<svg id="Grupo_158777" data-name="Grupo 158777" xmlns="http://www.w3.org/2000/svg" xmlns:xlink="http://www.w3.org/1999/xlink" width="482.5" height="274.819" viewBox="0 0 482.5 274.819">
  <defs>
    <clipPath id="clip-path">
      <rect id="Rectángulo_43497" data-name="Rectángulo 43497" width="482.5" height="274.819" fill="none"/>
    </clipPath>
  </defs>
  <g id="Grupo_154223" data-name="Grupo 154223">
    <g id="Grupo_154222" data-name="Grupo 154222" clip-path="url(#clip-path)">
      <path id="Trazado_214418" data-name="Trazado 214418" d="M120.761,180.8H80.771c-21.523,0-39.133,16.376-39.133,36.392s17.609,36.391,39.133,36.391H418.918c34.853,0,63.367-26.517,63.367-58.927s-28.514-58.928-63.366-58.928h0c-14.737,0-26.793-11.212-26.793-24.916S404.182,85.9,418.919,85.9h32.245c15.321,0,27.856-11.657,27.856-25.9s-12.534-25.9-27.856-25.9H410.388c-5.964,0-10.845-4.539-10.845-10.085s4.881-10.085,10.845-10.085h7.188a7.258,7.258,0,0,0,7.484-6.96h0A7.258,7.258,0,0,0,417.576,0H370.411c-9.934,0-11.04,10.913-36.131,10.913H261.985c-5.373,0-9.767,4.088-9.767,9.082s4.4,9.083,9.767,9.083h9.378c7.783,0,14.151,5.922,14.151,13.159S279.147,55.4,271.364,55.4H257.25c-38.116,0-43.5,9.263-50.175,27.687s-41.347,19.909-41.347,19.909H118.32c-11.728,0-21.325,8.924-21.325,19.832s9.6,19.832,21.325,19.832h2.441c11.282,0,20.512,8.584,20.512,19.074S132.043,180.8,120.761,180.8M438.58,13.92a7.237,7.237,0,0,1-7.486-6.96,7.5,7.5,0,0,1,14.97,0,7.237,7.237,0,0,1-7.485,6.96" transform="translate(-10.876 0)" fill="#e2e8f5" fill-rule="evenodd"/>
      <path id="Trazado_214419" data-name="Trazado 214419" d="M153.293,300.5h3.426V281.153l12.989,12.079L161.89,300.5h3.229l6.2-5.768,6.2,5.768h3.229l-7.817-7.269,12.989-12.079V300.5h3.426v-150.6h-3.426v3.669l-3.944-3.669h-3.229l7.174,6.672v.183l-14.6,13.58-14.6-13.58v-.183l7.174-6.672h-3.229l-3.944,3.669v-3.669h-3.426V189.83a21.5,21.5,0,0,1,3.426.823v-.541l.942.875a20.041,20.041,0,0,1,11.252,10.464l.795.739-.36.335a17.837,17.837,0,0,1,.686,2.365l1.288-1.2,14.6,13.58v.183l-14.6,13.58L163.01,223.3a20.708,20.708,0,0,1-1.855,1.279l8.553,7.953-12.989,12.079v-17.98a21.567,21.567,0,0,1-3.426.822Zm3.426-25.538V250.806l12.989,12.079Zm0-91.041V159.764l12.989,12.08Zm29.207-24.158v24.158l-12.989-12.078Zm0,30.348v24.158L172.937,202.19Zm0,30.348v24.157l-12.989-12.079Zm0,30.347v24.157l-12.989-12.078Zm-29.207-63.881,14.6-13.58,14.6,13.58v.183l-14.6,13.581-14.6-13.581Zm0,60.694,14.6-13.581,14.6,13.581v.183l-14.6,13.58-14.6-13.58Zm0,30.348,14.6-13.581,14.6,13.581v.183l-14.6,13.579-14.6-13.579Z" transform="translate(-40.04 -46.914)" fill="#bfcce8" fill-rule="evenodd"/>
      <path id="Trazado_214420" data-name="Trazado 214420" d="M477.61,253.588h3.426V234.24l12.989,12.079-7.817,7.269h3.229l6.2-5.768,6.2,5.768h3.229l-7.817-7.269,12.989-12.079v19.348h3.427V128.221a25.6,25.6,0,0,1-3.427-3.992v12.779L497.254,124.93l9.384-8.726a23.408,23.408,0,0,1-.464-2.573l-10.534,9.8-14.6-13.58v-.183l14.6-13.581,10.835,10.077a23.324,23.324,0,0,1,.633-2.415l-9.854-9.163L510.243,82.5V97.4a25.567,25.567,0,0,1,3.427-3.992V26.153a9.33,9.33,0,0,1,0-4.295V0h-3.427V15.619L497.254,3.54,501.061,0h-3.229L495.64,2.038,493.448,0h-3.23l3.807,3.54L481.036,15.619V.435a15.231,15.231,0,0,0-3.426,1.474Zm3.426-25.538V203.892l12.989,12.079Zm0-30.347V173.545l12.989,12.078Zm0-30.347V143.2l12.989,12.079Zm0-30.348V112.85l12.989,12.08Zm0-30.347V82.5l12.989,12.079Zm0-30.348V52.156l12.989,12.079Zm0-30.348V21.809l12.989,12.078Zm29.207-24.157V45.966L497.254,33.887Zm0,30.347V76.314L497.254,64.235Zm0,91.042v24.158l-12.989-12.079Zm0,30.348V197.7l-12.989-12.079Zm0,30.347v24.157l-12.989-12.078ZM481.036,18.622l14.6-13.581,14.6,13.581v.183l-14.6,13.581-14.6-13.581Zm0,30.348,14.6-13.581,14.6,13.581v.183l-14.6,13.58-14.6-13.58Zm0,30.347,14.6-13.58,14.6,13.58V79.5L495.64,93.08,481.036,79.5Zm0,60.694,14.6-13.58,14.6,13.58v.183l-14.6,13.581-14.6-13.581Zm0,30.348,14.6-13.58,14.6,13.58v.183l-14.6,13.58-14.6-13.58Zm0,30.347,14.6-13.581,14.6,13.581v.183l-14.6,13.58-14.6-13.58Zm0,30.348,14.6-13.581,14.6,13.581v.183l-14.6,13.579-14.6-13.579Z" transform="translate(-124.751)" fill="#bfcce8" fill-rule="evenodd"/>
      <path id="Trazado_214421" data-name="Trazado 214421" d="M118.092,228.127h-5.048v5.755l-6.189-5.755H102.1l10.948,10.18v.27l-21.518,20.01-21.518-20.01v-.27l10.41-9.68a40.989,40.989,0,0,0-6.4,1.529l-4.007,3.726V231.7A39.987,39.987,0,0,0,64.96,234.4v60.229a39.979,39.979,0,0,0,5.048,2.7v-9.621l14.085,13.1c.915.06,1.838.092,2.769.092h2.089L70.008,283.293v-.271l21.518-20.011,21.518,20.011v.271L94.1,300.908h4.759l14.186-13.191v13.191h5.048Zm0-76.918a21.307,21.307,0,0,0-12.01,8.835l6.962-6.473V186.9a22.034,22.034,0,0,0,5.048,2.181ZM70.008,278.6V243l19.139,17.8ZM113.044,243v35.6L93.905,260.8Z" transform="translate(-16.967 -47.321)" fill="#bfcce8" fill-rule="evenodd"/>
      <path id="Trazado_214422" data-name="Trazado 214422" d="M542.833,253.587h5.049V240.4l13.18,12.258q1.979-.334,3.916-.784l-17.1-15.9v-.27L569.4,215.69,590.917,235.7v.27l-11.626,10.811a63.711,63.711,0,0,0,16.675-11.836V154.373a62.919,62.919,0,0,0-7.027-6L569.4,166.549l-21.518-20.01v-.269L558.6,136.3q-2.131-.277-4.3-.422l-6.413,5.964v-6.18a28.372,28.372,0,0,1-5.049-.8Zm0-166.818a28.37,28.37,0,0,1,5.049-.8V61.533l19.138,17.8L559.957,85.9h4.757l4.685-4.357,4.684,4.357h4.759l-7.063-6.569,19.138-17.8V84.554a28.888,28.888,0,0,0,5.049-2.128V37.565a28.785,28.785,0,0,0-5.049-2.128V52.412l-19.138-17.8.563-.524h-5.886l.564.524-19.138,17.8V34.091h-5.049Zm0-72.848h5.655a7.871,7.871,0,0,0,.974-.06l-1.58-1.47v-.269l7.756-7.213a6.9,6.9,0,0,0-1.772-2.777L547.882,7.7V0h-5.049Zm5.049,217.356v-35.6l19.138,17.8Zm0-44.716v-35.6l19.138,17.8Zm43.035-35.6v35.6l-19.138-17.8Zm0,44.715v35.6l-19.138-17.8ZM547.882,56.838,569.4,36.828l21.518,20.01v.269L569.4,77.118,547.882,57.107Zm0,134.147,21.518-20.01,21.518,20.01v.27L569.4,211.266l-21.518-20.01Z" transform="translate(-141.787)" fill="#bfcce8" fill-rule="evenodd"/>
      <path id="Trazado_214423" data-name="Trazado 214423" d="M160.371,284.791H125.954a2.458,2.458,0,0,0-2.536,2.358v22.572a2.458,2.458,0,0,0,2.536,2.358h34.417a2.458,2.458,0,0,0,2.536-2.358V287.149a2.458,2.458,0,0,0-2.536-2.358" transform="translate(-32.237 -89.126)" fill="#90a9d5" fill-rule="evenodd"/>
      <path id="Trazado_214424" data-name="Trazado 214424" d="M190.937,284.791H156.52a2.458,2.458,0,0,0-2.536,2.358v22.572a2.458,2.458,0,0,0,2.536,2.358h34.417a2.458,2.458,0,0,0,2.536-2.358V287.149a2.458,2.458,0,0,0-2.536-2.358" transform="translate(-40.22 -89.126)" fill="#b6c7e6" fill-rule="evenodd"/>
      <path id="Trazado_214425" data-name="Trazado 214425" d="M188.433,297.908h-25.48a1.4,1.4,0,0,0-1.448,1.347v6.57a1.4,1.4,0,0,0,1.448,1.347h25.48a1.4,1.4,0,0,0,1.449-1.347v-6.57a1.405,1.405,0,0,0-1.449-1.347" transform="translate(-42.185 -93.231)" fill="#90a9d5" fill-rule="evenodd"/>
      <path id="Trazado_214426" data-name="Trazado 214426" d="M178.354,300.2H165.823a.306.306,0,0,0-.316.294v1.434a.306.306,0,0,0,.316.293h12.531a.306.306,0,0,0,.315-.293V300.49a.305.305,0,0,0-.315-.294" transform="translate(-43.23 -93.947)" fill="#e6e4eb" fill-rule="evenodd"/>
      <path id="Trazado_214427" data-name="Trazado 214427" d="M172.015,304.855h-6.19a.306.306,0,0,0-.316.294v1.433a.307.307,0,0,0,.316.294h6.19a.306.306,0,0,0,.315-.294v-1.433a.306.306,0,0,0-.315-.294" transform="translate(-43.23 -95.405)" fill="#e6e4eb" fill-rule="evenodd"/>
      <path id="Trazado_214428" data-name="Trazado 214428" d="M156.275,324.509h41.242a2.948,2.948,0,0,1,3.04,2.826v27.049a2.948,2.948,0,0,1-3.04,2.827H156.275a2.947,2.947,0,0,1-3.039-2.827V327.335a2.946,2.946,0,0,1,3.039-2.826" transform="translate(-40.025 -101.556)" fill="#90a9d5" fill-rule="evenodd"/>
      <path id="Trazado_214429" data-name="Trazado 214429" d="M119.649,324.509h41.242a2.946,2.946,0,0,1,3.039,2.826v27.049a2.947,2.947,0,0,1-3.039,2.827H119.649a2.947,2.947,0,0,1-3.039-2.827V327.335a2.946,2.946,0,0,1,3.039-2.826" transform="translate(-30.458 -101.556)" fill="#b6c7e6" fill-rule="evenodd"/>
      <path id="Trazado_214430" data-name="Trazado 214430" d="M127.355,340.229H157.89a1.683,1.683,0,0,1,1.735,1.615v7.873a1.682,1.682,0,0,1-1.735,1.613H127.355a1.682,1.682,0,0,1-1.735-1.613v-7.873a1.683,1.683,0,0,1,1.735-1.615" transform="translate(-32.812 -106.476)" fill="#90a9d5" fill-rule="evenodd"/>
      <path id="Trazado_214431" data-name="Trazado 214431" d="M145.879,342.97h15.015a.367.367,0,0,1,.378.352v1.718a.366.366,0,0,1-.378.352H145.879a.367.367,0,0,1-.379-.352v-1.718a.367.367,0,0,1,.379-.352" transform="translate(-38.004 -107.333)" fill="#e6e4eb" fill-rule="evenodd"/>
      <path id="Trazado_214432" data-name="Trazado 214432" d="M156.163,348.553h7.418a.367.367,0,0,1,.379.352v1.718a.367.367,0,0,1-.379.352h-7.418a.367.367,0,0,1-.379-.352v-1.718a.367.367,0,0,1,.379-.352" transform="translate(-40.691 -109.081)" fill="#e6e4eb" fill-rule="evenodd"/>
      <path id="Trazado_214433" data-name="Trazado 214433" d="M406.868,103.2a11.214,11.214,0,0,1,3.613-2.246,11.908,11.908,0,0,1,8.5,0A11.2,11.2,0,0,1,422.6,103.2a10.348,10.348,0,0,1,2.414,3.36,9.687,9.687,0,0,1,0,7.908,10.369,10.369,0,0,1-2.414,3.36,11.214,11.214,0,0,1-3.612,2.244,11.907,11.907,0,0,1-8.505,0,11.235,11.235,0,0,1-3.613-2.245,10.358,10.358,0,0,1-2.414-3.36,9.687,9.687,0,0,1,0-7.908,10.348,10.348,0,0,1,2.414-3.36m4-1.362a10.189,10.189,0,0,0-3.274,2.039,9.387,9.387,0,0,0-2.193,3.046,8.839,8.839,0,0,0,0,7.182,9.377,9.377,0,0,0,2.193,3.045,10.154,10.154,0,0,0,3.274,2.039,10.845,10.845,0,0,0,7.721,0,10.151,10.151,0,0,0,3.277-2.039,9.4,9.4,0,0,0,2.193-3.045,8.839,8.839,0,0,0,0-7.182,9.407,9.407,0,0,0-2.193-3.046,10.2,10.2,0,0,0-3.275-2.039,10.861,10.861,0,0,0-7.723,0m-1.229-7.611a18.892,18.892,0,0,0-4.018,1.594,18.354,18.354,0,0,0-3.549,2.487,1.2,1.2,0,0,1-.666.3,1.243,1.243,0,0,1-.725-.138c-1.633-.877-3.35-1.745-4.951-2.659a.707.707,0,0,0-.24-.069.8.8,0,0,0-.273.019.746.746,0,0,0-.251.113.649.649,0,0,0-.18.191c-1.191,1.675-2.386,3.84-3.489,5.617a.627.627,0,0,0-.086.238.617.617,0,0,0,.021.261.645.645,0,0,0,.122.233.68.68,0,0,0,.205.168c1.469.9,3.362,1.808,4.92,2.644a1.1,1.1,0,0,1,.491.512,1.019,1.019,0,0,1,.074.226l.1.032-.114.427c-.089.335-.168.671-.233,1.005s-.12.666-.166,1.02-.079.69-.1,1.029-.033.679-.033,1.04.011.708.033,1.039.055.684.1,1.03.1.7.166,1.02.145.67.233,1.006a1,1,0,0,1-.074.715,1.114,1.114,0,0,1-.526.508l-4.357,2.34h0l-.516.277a.682.682,0,0,0-.206.168.667.667,0,0,0-.121.233.62.62,0,0,0-.021.262.628.628,0,0,0,.086.238l3.226,5.2h0l.262.42a.655.655,0,0,0,.18.19.759.759,0,0,0,.251.113.771.771,0,0,0,.279.019.723.723,0,0,0,.256-.081c1.56-.912,3.322-1.782,4.931-2.647a1.247,1.247,0,0,1,.721-.137,1.2,1.2,0,0,1,.666.293l0,0a18.074,18.074,0,0,0,1.695,1.345,18.532,18.532,0,0,0,3.837,2.063,19.012,19.012,0,0,0,2.086.687,1.17,1.17,0,0,1,.611.389,1.046,1.046,0,0,1,.234.654l0,5.288a.606.606,0,0,0,.053.249.661.661,0,0,0,.154.213.7.7,0,0,0,.23.144.722.722,0,0,0,.267.049h6.978a.721.721,0,0,0,.267-.049.73.73,0,0,0,.23-.143.692.692,0,0,0,.154-.214.606.606,0,0,0,.053-.249v-5.288a1.032,1.032,0,0,1,.253-.671,1.173,1.173,0,0,1,.644-.385,18.652,18.652,0,0,0,5.873-2.736,18.3,18.3,0,0,0,1.695-1.345,1.2,1.2,0,0,1,.7-.3,1.233,1.233,0,0,1,.748.175l4.867,2.613a.706.706,0,0,0,.258.08.776.776,0,0,0,.28-.019.752.752,0,0,0,.251-.113.656.656,0,0,0,.18-.19c1.157-1.876,2.331-3.743,3.489-5.618a.61.61,0,0,0,.066-.5.655.655,0,0,0-.121-.233.642.642,0,0,0-.2-.168l-4.924-2.644a1.1,1.1,0,0,1-.491-.512,1.041,1.041,0,0,1-.062-.174l-.129-.024.129-.486c.089-.335.168-.671.233-1s.12-.666.167-1.022.078-.69.1-1.03.033-.677.033-1.039-.011-.708-.033-1.04-.056-.682-.1-1.028-.1-.7-.167-1.024-.144-.668-.233-1a1.008,1.008,0,0,1,.075-.716,1.129,1.129,0,0,1,.524-.506l4.877-2.618a.655.655,0,0,0,.2-.167.647.647,0,0,0,.121-.234.61.61,0,0,0-.066-.5c-1.192-1.647-2.384-3.847-3.489-5.617a.659.659,0,0,0-.18-.191.752.752,0,0,0-.251-.113.789.789,0,0,0-.28-.019.7.7,0,0,0-.256.082l-4.928,2.645a1.225,1.225,0,0,1-.739.137,1.2,1.2,0,0,1-.666-.306,17.994,17.994,0,0,0-1.687-1.337A18.582,18.582,0,0,0,421.86,94.9a19.049,19.049,0,0,0-2.085-.687,1.167,1.167,0,0,1-.611-.389,1.037,1.037,0,0,1-.235-.654l0-5.288a.616.616,0,0,0-.052-.249.661.661,0,0,0-.155-.213.724.724,0,0,0-.23-.145.735.735,0,0,0-.267-.049h-6.978a.722.722,0,0,0-.5.193.638.638,0,0,0-.207.462V93.17a1.034,1.034,0,0,1-.25.671,1.192,1.192,0,0,1-.647.385m-2.452-.2a19.712,19.712,0,0,0-2.08.967,19.252,19.252,0,0,0-3.748,2.626.133.133,0,0,1-.078.034.149.149,0,0,1-.085-.015q-2.486-1.335-4.97-2.669a1.826,1.826,0,0,0-.622-.182,1.891,1.891,0,0,0-.653.045,1.818,1.818,0,0,0-.609.278,1.629,1.629,0,0,0-.445.472c-1.2,1.808-2.341,3.768-3.489,5.617a1.518,1.518,0,0,0-.171,1.226,1.551,1.551,0,0,0,.3.565,1.676,1.676,0,0,0,.507.415c1.585.91,3.3,1.774,4.924,2.644a.129.129,0,0,1,.056.06.121.121,0,0,1,.007.08l-.113.428.007,0c-.049.207-.1.418-.138.632q-.108.55-.178,1.081t-.1,1.085c-.024.374-.036.74-.036,1.1s.012.721.036,1.094.06.736.1,1.087.107.713.178,1.079.155.719.245,1.063a.115.115,0,0,1-.008.083.137.137,0,0,1-.061.061c-1.81.9-3.647,1.956-5.436,2.917l.064.074-.055.063a1.563,1.563,0,0,0-.3.566,1.526,1.526,0,0,0-.046.629,1.506,1.506,0,0,0,.217.6l3.748,6.038.069-.038c.038.032.077.061.116.089a1.82,1.82,0,0,0,.609.279,1.878,1.878,0,0,0,.675.041,1.827,1.827,0,0,0,.625-.191c1.639-.809,3.328-1.787,4.948-2.657a.143.143,0,0,1,.082-.013.15.15,0,0,1,.081.034,19.261,19.261,0,0,0,1.786,1.418,19.732,19.732,0,0,0,4.054,2.178,20.1,20.1,0,0,0,2.207.728.143.143,0,0,1,.072.045.113.113,0,0,1,.027.078v5.288a1.511,1.511,0,0,0,.132.616,1.615,1.615,0,0,0,.379.524,1.753,1.753,0,0,0,.562.35,1.822,1.822,0,0,0,.661.124h6.978a1.828,1.828,0,0,0,.661-.124,1.785,1.785,0,0,0,.564-.35,1.642,1.642,0,0,0,.377-.524,1.511,1.511,0,0,0,.132-.616v-5.288a.123.123,0,0,1,.027-.08.138.138,0,0,1,.078-.044l.022-.008a20,20,0,0,0,2.193-.723,19.679,19.679,0,0,0,4.04-2.174,19.18,19.18,0,0,0,1.788-1.419.139.139,0,0,1,.081-.036.152.152,0,0,1,.089.021l4.923,2.643a1.79,1.79,0,0,0,.64.2,1.884,1.884,0,0,0,.675-.041,1.816,1.816,0,0,0,.609-.279,1.655,1.655,0,0,0,.437-.458c1.294-1.935,2.516-4.054,3.75-6.04l-.066-.037a1.5,1.5,0,0,0-.016-.78,1.572,1.572,0,0,0-.3-.566,1.681,1.681,0,0,0-.506-.414l-4.925-2.644a.129.129,0,0,1-.056-.06.127.127,0,0,1-.007-.082l.127-.484h-.007c.044-.188.085-.38.124-.574q.108-.55.178-1.081c.046-.351.081-.714.1-1.086s.037-.739.037-1.1-.012-.721-.037-1.1-.059-.736-.1-1.089-.106-.71-.178-1.079-.154-.717-.245-1.059a.134.134,0,0,1,.009-.086.136.136,0,0,1,.063-.059l4.918-2.641a1.647,1.647,0,0,0,.506-.415,1.6,1.6,0,0,0,.3-.565,1.53,1.53,0,0,0,.045-.627,1.561,1.561,0,0,0-.208-.584c-1.172-2.019-2.517-4.055-3.757-6.052l-.07.039c-.038-.032-.077-.062-.115-.091a1.828,1.828,0,0,0-.609-.278,1.893,1.893,0,0,0-.675-.042,1.823,1.823,0,0,0-.64.2l-.364.2v0l-4.568,2.451a.147.147,0,0,1-.088.016.136.136,0,0,1-.078-.036l-.012-.012a19.293,19.293,0,0,0-1.783-1.413,19.64,19.64,0,0,0-4.043-2.172,19.948,19.948,0,0,0-2.207-.728.143.143,0,0,1-.072-.045.112.112,0,0,1-.028-.078V87.882a1.511,1.511,0,0,0-.132-.616,1.622,1.622,0,0,0-.379-.524,1.782,1.782,0,0,0-.561-.35,1.828,1.828,0,0,0-.661-.124h-6.978a1.818,1.818,0,0,0-1.226.473,1.558,1.558,0,0,0-.509,1.14V93.17a.134.134,0,0,1-.028.081.151.151,0,0,1-.077.043l-.022.007a20.105,20.105,0,0,0-2.193.724" transform="translate(-101.915 -26.998)" fill="#bfcce8" fill-rule="evenodd"/>
      <path id="Trazado_214434" data-name="Trazado 214434" d="M16.687,178.681a11.244,11.244,0,0,1,3.613-2.245,11.913,11.913,0,0,1,8.5,0,11.252,11.252,0,0,1,3.613,2.245,10.342,10.342,0,0,1,2.414,3.361,9.693,9.693,0,0,1,0,7.907,10.337,10.337,0,0,1-2.414,3.36,11.233,11.233,0,0,1-3.612,2.245,11.912,11.912,0,0,1-8.505,0,11.245,11.245,0,0,1-3.613-2.246,10.341,10.341,0,0,1-2.414-3.359,9.687,9.687,0,0,1,0-7.908,10.342,10.342,0,0,1,2.414-3.361m4-1.362a10.179,10.179,0,0,0-3.275,2.04,9.386,9.386,0,0,0-2.193,3.045,8.831,8.831,0,0,0,0,7.182,9.386,9.386,0,0,0,2.193,3.045,10.191,10.191,0,0,0,3.275,2.04,10.855,10.855,0,0,0,7.721,0,10.173,10.173,0,0,0,3.277-2.04,9.4,9.4,0,0,0,2.193-3.045,8.831,8.831,0,0,0,0-7.182,9.4,9.4,0,0,0-2.193-3.045,10.187,10.187,0,0,0-3.275-2.04,10.861,10.861,0,0,0-7.723,0m-1.229-7.612a18.967,18.967,0,0,0-2.05.679,18.69,18.69,0,0,0-1.968.915,18.251,18.251,0,0,0-1.855,1.143,17.865,17.865,0,0,0-1.694,1.344,1.2,1.2,0,0,1-.666.3,1.243,1.243,0,0,1-.726-.138c-1.633-.877-3.35-1.745-4.951-2.659a.707.707,0,0,0-.24-.069.793.793,0,0,0-.273.019.763.763,0,0,0-.25.113.661.661,0,0,0-.18.191c-1.19,1.676-2.386,3.84-3.489,5.617a.629.629,0,0,0-.087.238.658.658,0,0,0,.143.494.679.679,0,0,0,.205.168c1.469.9,3.362,1.808,4.92,2.644a1.111,1.111,0,0,1,.491.513,1,1,0,0,1,.073.225l.1.032-.114.427q-.133.5-.233,1.006c-.064.325-.12.666-.165,1.021s-.08.689-.1,1.029-.033.679-.033,1.04.011.708.033,1.039.056.684.1,1.03.1.695.166,1.02.144.671.233,1.006a1.007,1.007,0,0,1-.074.714,1.12,1.12,0,0,1-.527.508L1.9,193.652h0l-.516.278a.683.683,0,0,0-.206.168.667.667,0,0,0-.121.233.646.646,0,0,0-.021.262.633.633,0,0,0,.087.238l3.226,5.2h0l.261.42a.667.667,0,0,0,.18.19.737.737,0,0,0,.25.114.789.789,0,0,0,.28.019.729.729,0,0,0,.255-.081c1.561-.912,3.322-1.782,4.932-2.646a1.242,1.242,0,0,1,.72-.137,1.2,1.2,0,0,1,.666.293l0,0a18.216,18.216,0,0,0,1.7,1.345,18.459,18.459,0,0,0,1.853,1.142,18.947,18.947,0,0,0,1.982.921,19.27,19.27,0,0,0,2.086.686,1.166,1.166,0,0,1,.611.389,1.042,1.042,0,0,1,.235.654l0,5.288a.617.617,0,0,0,.052.248.683.683,0,0,0,.155.213.724.724,0,0,0,.23.145.75.75,0,0,0,.267.049h6.977a.722.722,0,0,0,.5-.192.69.69,0,0,0,.154-.214.605.605,0,0,0,.053-.248v-5.288a1.032,1.032,0,0,1,.253-.671,1.172,1.172,0,0,1,.645-.385,18.838,18.838,0,0,0,4.018-1.594,18.469,18.469,0,0,0,1.854-1.142,18.215,18.215,0,0,0,1.7-1.345,1.2,1.2,0,0,1,.7-.3,1.244,1.244,0,0,1,.749.174l4.867,2.614a.733.733,0,0,0,.257.08.8.8,0,0,0,.281-.019.727.727,0,0,0,.25-.114.659.659,0,0,0,.18-.19c1.156-1.875,2.331-3.742,3.489-5.618a.62.62,0,0,0,.087-.239.637.637,0,0,0-.021-.26.658.658,0,0,0-.121-.234.65.65,0,0,0-.2-.167L42.8,191.286a1.1,1.1,0,0,1-.491-.512.988.988,0,0,1-.062-.175l-.129-.024.129-.485c.089-.335.168-.672.233-1.006s.12-.666.166-1.02.08-.69.1-1.03.033-.678.033-1.04-.011-.708-.033-1.039-.055-.682-.1-1.029-.1-.7-.166-1.024-.144-.668-.233-1a1.015,1.015,0,0,1,.074-.715,1.132,1.132,0,0,1,.524-.506l4.877-2.619a.654.654,0,0,0,.325-.4.641.641,0,0,0,.021-.261.621.621,0,0,0-.087-.238c-1.191-1.647-2.383-3.847-3.489-5.618a.661.661,0,0,0-.18-.191.752.752,0,0,0-.25-.113.8.8,0,0,0-.281-.019.718.718,0,0,0-.257.082L38.6,173.945a1.223,1.223,0,0,1-.738.137,1.21,1.21,0,0,1-.666-.306,18,18,0,0,0-1.687-1.338,18.6,18.6,0,0,0-3.83-2.057,19.114,19.114,0,0,0-2.086-.687,1.163,1.163,0,0,1-.611-.389,1.036,1.036,0,0,1-.235-.654l0-5.288a.605.605,0,0,0-.053-.248.661.661,0,0,0-.155-.213.7.7,0,0,0-.229-.145.751.751,0,0,0-.267-.049H21.064a.726.726,0,0,0-.5.192.639.639,0,0,0-.207.462v5.288a1.037,1.037,0,0,1-.25.671,1.185,1.185,0,0,1-.647.384m-2.453-.2a19.778,19.778,0,0,0-2.08.967,19.5,19.5,0,0,0-1.96,1.206,19.194,19.194,0,0,0-1.787,1.419.138.138,0,0,1-.078.034.148.148,0,0,1-.085-.015q-2.486-1.335-4.97-2.669a1.815,1.815,0,0,0-.622-.182,1.9,1.9,0,0,0-.654.046,1.8,1.8,0,0,0-.608.278,1.621,1.621,0,0,0-.445.471c-1.2,1.808-2.341,3.767-3.489,5.617a1.522,1.522,0,0,0-.171,1.226,1.594,1.594,0,0,0,.3.566,1.667,1.667,0,0,0,.508.414c1.584.91,3.3,1.774,4.924,2.644a.133.133,0,0,1,.056.06.121.121,0,0,1,.007.08l-.114.428h.007c-.049.207-.095.418-.137.633-.072.367-.132.727-.177,1.081s-.082.712-.106,1.085-.037.74-.037,1.1.013.721.037,1.1.059.735.106,1.086.106.714.177,1.08.155.718.246,1.062a.116.116,0,0,1-.01.083.127.127,0,0,1-.061.061c-1.809.9-3.647,1.956-5.435,2.917l.064.074-.055.064a1.58,1.58,0,0,0-.3.565,1.524,1.524,0,0,0-.045.629,1.5,1.5,0,0,0,.217.6l3.748,6.038.069-.039c.038.032.076.062.116.09a1.812,1.812,0,0,0,.608.278,1.866,1.866,0,0,0,.675.042,1.807,1.807,0,0,0,.625-.191c1.639-.809,3.328-1.787,4.948-2.657a.148.148,0,0,1,.082-.013.149.149,0,0,1,.081.034,19.145,19.145,0,0,0,1.786,1.419,19.551,19.551,0,0,0,1.959,1.206,19.852,19.852,0,0,0,2.1.973,20.243,20.243,0,0,0,2.207.728.137.137,0,0,1,.072.045.119.119,0,0,1,.028.078v5.288a1.508,1.508,0,0,0,.132.615,1.615,1.615,0,0,0,.379.524,1.774,1.774,0,0,0,.561.35,1.814,1.814,0,0,0,.662.124h6.977a1.817,1.817,0,0,0,.662-.124,1.8,1.8,0,0,0,.563-.35,1.619,1.619,0,0,0,.377-.524,1.5,1.5,0,0,0,.133-.615v-5.288a.123.123,0,0,1,.027-.08.145.145,0,0,1,.078-.045l.022-.007a20.208,20.208,0,0,0,2.193-.724,19.866,19.866,0,0,0,2.081-.967,19.178,19.178,0,0,0,3.747-2.626.137.137,0,0,1,.081-.036.154.154,0,0,1,.088.021l4.924,2.644a1.813,1.813,0,0,0,.64.2,1.9,1.9,0,0,0,.675-.043,1.809,1.809,0,0,0,.609-.278,1.659,1.659,0,0,0,.437-.458c1.294-1.935,2.516-4.054,3.75-6.04l-.066-.037a1.337,1.337,0,0,0,.029-.153,1.519,1.519,0,0,0-.045-.627,1.554,1.554,0,0,0-.3-.565,1.66,1.66,0,0,0-.506-.414l-4.926-2.644a.128.128,0,0,1-.055-.06.122.122,0,0,1-.007-.082l.127-.484-.007,0q.065-.282.123-.574c.072-.366.132-.727.178-1.081s.082-.714.106-1.086.037-.739.037-1.1-.013-.722-.037-1.1-.059-.735-.106-1.089-.1-.71-.178-1.08-.154-.717-.245-1.059a.125.125,0,0,1,.01-.085.128.128,0,0,1,.063-.06l4.919-2.641a1.645,1.645,0,0,0,.505-.415,1.586,1.586,0,0,0,.3-.565,1.519,1.519,0,0,0-.163-1.211c-1.172-2.02-2.516-4.056-3.756-6.053l-.07.039c-.038-.032-.076-.062-.116-.09a1.8,1.8,0,0,0-.609-.278,1.88,1.88,0,0,0-.675-.042,1.789,1.789,0,0,0-.64.2l-.364.194v0l-4.568,2.451a.145.145,0,0,1-.087.016.133.133,0,0,1-.078-.036l-.012-.01a19.1,19.1,0,0,0-1.784-1.413,19.48,19.48,0,0,0-1.949-1.2,19.682,19.682,0,0,0-2.094-.972,19.954,19.954,0,0,0-2.207-.728.137.137,0,0,1-.072-.045.113.113,0,0,1-.028-.078v-5.288a1.508,1.508,0,0,0-.132-.615,1.606,1.606,0,0,0-.38-.524,1.75,1.75,0,0,0-.561-.35,1.832,1.832,0,0,0-.662-.124H21.064a1.829,1.829,0,0,0-.662.124,1.8,1.8,0,0,0-.564.35,1.556,1.556,0,0,0-.509,1.139v5.288a.135.135,0,0,1-.028.08.138.138,0,0,1-.077.043l-.022.008a20.175,20.175,0,0,0-2.194.724" transform="translate(0 -50.62)" fill="#bfcce8" fill-rule="evenodd"/>
      <path id="Trazado_214435" data-name="Trazado 214435" d="M79.445,223.507m2.454-8.69a4.975,4.975,0,0,1,6.677,0,4.177,4.177,0,0,1,0,6.209,4.977,4.977,0,0,1-6.677,0,4.176,4.176,0,0,1,0-6.209m1.02-4.352a8.666,8.666,0,0,0-1.85.732,8.365,8.365,0,0,0-1.624,1.138.306.306,0,0,1-.346.038L76.905,211.2l-.012-.007a.582.582,0,0,0-.4-.043.542.542,0,0,0-.331.235l-.009.014-1.543,2.486a.47.47,0,0,0-.052.384.508.508,0,0,0,.252.307l.015.008L77,215.75a.264.264,0,0,1,.137.3,7.29,7.29,0,0,0,0,3.747.262.262,0,0,1-.153.306l-2.175,1.168h0a.508.508,0,0,0-.252.308.469.469,0,0,0,.052.383l1.552,2.5a.543.543,0,0,0,.331.234.577.577,0,0,0,.412-.049l.017-.008,2.178-1.17a.308.308,0,0,1,.345.039,8.414,8.414,0,0,0,1.623,1.138,8.709,8.709,0,0,0,1.863.736.274.274,0,0,1,.211.259v2.353a.485.485,0,0,0,.16.356.56.56,0,0,0,.383.149H86.79a.56.56,0,0,0,.383-.149.483.483,0,0,0,.16-.356V225.64a.274.274,0,0,1,.222-.262,8.673,8.673,0,0,0,1.851-.732,8.391,8.391,0,0,0,1.623-1.138.308.308,0,0,1,.361-.031l2.179,1.17a.58.58,0,0,0,.412.049.538.538,0,0,0,.33-.234l.01-.014,1.543-2.488a.467.467,0,0,0,.052-.383.508.508,0,0,0-.251-.307l-2.191-1.177a.261.261,0,0,1-.137-.3h0a7.271,7.271,0,0,0,.245-1.873,7.245,7.245,0,0,0-.061-.946,7.331,7.331,0,0,0-.183-.928.262.262,0,0,1,.153-.305l2.176-1.169a.508.508,0,0,0,.251-.307.469.469,0,0,0-.052-.383l-.009-.015-1.543-2.486h0a.536.536,0,0,0-.33-.235.58.58,0,0,0-.412.049h0l-2.193,1.178a.3.3,0,0,1-.352-.045,8.371,8.371,0,0,0-1.618-1.132,8.636,8.636,0,0,0-1.862-.736.273.273,0,0,1-.211-.259V207.85a.486.486,0,0,0-.16-.357.562.562,0,0,0-.383-.148H83.685a.563.563,0,0,0-.383.148.488.488,0,0,0-.16.357V210.2a.275.275,0,0,1-.223.262" transform="translate(-19.469 -64.889)" fill="#bfcce8" fill-rule="evenodd"/>
      <path id="Trazado_214436" data-name="Trazado 214436" d="M217.057,123.6a.812.812,0,0,0-1.619,0v1.771h-1.9a.755.755,0,1,0,0,1.506h1.9v1.771a.812.812,0,0,0,1.619,0v-1.771h1.9a.755.755,0,1,0,0-1.506h-1.9Z" transform="translate(-55.563 -38.444)" fill="#bfcce8" fill-rule="evenodd"/>
      <path id="Trazado_214437" data-name="Trazado 214437" d="M284.135,45.337m2.455-8.69a4.975,4.975,0,0,1,6.677,0,4.177,4.177,0,0,1,0,6.209,4.975,4.975,0,0,1-6.677,0,4.176,4.176,0,0,1,0-6.209m1.02-4.352a8.667,8.667,0,0,0-1.85.732,8.366,8.366,0,0,0-1.624,1.138.307.307,0,0,1-.346.039L281.6,33.026l-.011-.006a.576.576,0,0,0-.4-.043.537.537,0,0,0-.33.234l-.01.014L279.3,35.712a.47.47,0,0,0-.052.384.511.511,0,0,0,.253.307l.015.009,2.176,1.168a.262.262,0,0,1,.136.3h0a7.294,7.294,0,0,0-.183.928,7.325,7.325,0,0,0,0,1.891,7.232,7.232,0,0,0,.184.928.265.265,0,0,1-.154.306L279.5,43.1h0a.511.511,0,0,0-.253.307.47.47,0,0,0,.052.384l1.552,2.5h0a.537.537,0,0,0,.33.234.57.57,0,0,0,.412-.049l.017-.008,2.179-1.17a.307.307,0,0,1,.344.039,8.351,8.351,0,0,0,1.623,1.138,8.638,8.638,0,0,0,1.863.737.274.274,0,0,1,.211.259v2.354a.487.487,0,0,0,.16.356.563.563,0,0,0,.383.148h3.105a.562.562,0,0,0,.383-.148.485.485,0,0,0,.16-.356V47.469a.275.275,0,0,1,.222-.262,8.622,8.622,0,0,0,1.851-.732,8.411,8.411,0,0,0,1.624-1.138.305.305,0,0,1,.36-.03l2.179,1.169a.573.573,0,0,0,.412.049.535.535,0,0,0,.33-.234l.01-.014,1.544-2.487h0a.469.469,0,0,0,.052-.383.506.506,0,0,0-.25-.307l-2.192-1.177a.261.261,0,0,1-.137-.3h0a7.291,7.291,0,0,0,0-3.747.263.263,0,0,1,.153-.306l2.177-1.169a.506.506,0,0,0,.25-.307.467.467,0,0,0-.052-.383l-.009-.016L299,33.212a.541.541,0,0,0-.331-.234.58.58,0,0,0-.412.049h0L296.065,34.2a.305.305,0,0,1-.352-.045,8.38,8.38,0,0,0-1.618-1.133,8.636,8.636,0,0,0-1.862-.736.273.273,0,0,1-.211-.259V29.679a.486.486,0,0,0-.16-.357.562.562,0,0,0-.383-.148h-3.105a.563.563,0,0,0-.383.148.488.488,0,0,0-.16.357v2.353a.274.274,0,0,1-.223.262" transform="translate(-72.934 -9.13)" fill="#bfcce8" fill-rule="evenodd"/>
      <path id="Trazado_214438" data-name="Trazado 214438" d="M643.751,23.477a.811.811,0,0,0-1.619,0v1.771h-1.9a.755.755,0,1,0,0,1.506h1.9v1.771a.812.812,0,0,0,1.619,0V26.754h1.9a.755.755,0,1,0,0-1.506h-1.9Z" transform="translate(-167.015 -7.112)" fill="#bfcce8" fill-rule="evenodd"/>
      <path id="Trazado_214439" data-name="Trazado 214439" d="M4.89,309.4a.783.783,0,0,0-.81-.754.783.783,0,0,0-.809.754v1.771h-1.9a.755.755,0,1,0,0,1.507h1.9v1.771a.782.782,0,0,0,.809.752.783.783,0,0,0,.81-.752v-1.771h1.9a.755.755,0,1,0,0-1.507H4.89Z" transform="translate(-0.145 -96.592)" fill="#bfcce8" fill-rule="evenodd"/>
      <path id="Trazado_214440" data-name="Trazado 214440" d="M354.093,103.308m2.454-8.69a4.974,4.974,0,0,1,6.677,0,4.177,4.177,0,0,1,0,6.209,4.978,4.978,0,0,1-6.677,0,4.177,4.177,0,0,1,0-6.209m1.02-4.352a8.659,8.659,0,0,0-1.851.733,8.328,8.328,0,0,0-1.623,1.138.307.307,0,0,1-.346.039L351.553,91l-.011-.006a.58.58,0,0,0-.4-.043.543.543,0,0,0-.331.234l-.008.014-1.544,2.486a.473.473,0,0,0-.052.384.508.508,0,0,0,.252.307l.015.009,2.176,1.168a.262.262,0,0,1,.136.3h0a7.053,7.053,0,0,0-.184.928,7.409,7.409,0,0,0,0,1.891,7.063,7.063,0,0,0,.184.928.264.264,0,0,1-.154.305l-2.176,1.169h0a.51.51,0,0,0-.252.307.473.473,0,0,0,.052.384l1.552,2.5h0a.538.538,0,0,0,.331.234.571.571,0,0,0,.411-.049l.017-.008,2.178-1.169a.307.307,0,0,1,.345.038,8.3,8.3,0,0,0,1.623,1.138,8.6,8.6,0,0,0,1.863.737.275.275,0,0,1,.211.259v2.354a.487.487,0,0,0,.16.356.56.56,0,0,0,.383.148h3.1a.564.564,0,0,0,.384-.148.487.487,0,0,0,.16-.356V105.44a.275.275,0,0,1,.222-.262,8.589,8.589,0,0,0,1.851-.733,8.3,8.3,0,0,0,1.623-1.138.307.307,0,0,1,.361-.03l2.179,1.169a.575.575,0,0,0,.413.049.537.537,0,0,0,.33-.234l.01-.014,1.543-2.487a.472.472,0,0,0,.053-.383.511.511,0,0,0-.252-.307l-2.192-1.177a.262.262,0,0,1-.136-.3,7.321,7.321,0,0,0,.244-1.874,7.392,7.392,0,0,0-.061-.946,7.3,7.3,0,0,0-.182-.928.262.262,0,0,1,.153-.306l2.175-1.169a.511.511,0,0,0,.252-.307.47.47,0,0,0-.053-.383l-.009-.015-1.543-2.486a.546.546,0,0,0-.33-.234.582.582,0,0,0-.413.049h0l-2.2,1.178a.3.3,0,0,1-.351-.045A8.364,8.364,0,0,0,364.055,91a8.6,8.6,0,0,0-1.863-.736.273.273,0,0,1-.211-.259V87.65a.488.488,0,0,0-.16-.357.568.568,0,0,0-.384-.148h-3.1a.563.563,0,0,0-.383.148.488.488,0,0,0-.16.357V90a.274.274,0,0,1-.223.262" transform="translate(-91.207 -27.272)" fill="#bfcce8" fill-rule="evenodd"/>
      <path id="Trazado_214441" data-name="Trazado 214441" d="M314.415,94a.812.812,0,0,0-1.62,0v1.771h-1.9a.755.755,0,1,0,0,1.507h1.9v1.771a.812.812,0,0,0,1.62,0V97.275h1.9a.755.755,0,1,0,0-1.507h-1.9Z" transform="translate(-80.993 -29.181)" fill="#bfcce8" fill-rule="evenodd"/>
      <path id="Trazado_214442" data-name="Trazado 214442" d="M318.882,215.366a.812.812,0,0,0-1.619,0v1.771h-1.9a.755.755,0,1,0,0,1.507h1.9v1.771a.812.812,0,0,0,1.619,0v-1.771h1.9a.755.755,0,1,0,0-1.507h-1.9Z" transform="translate(-82.16 -67.164)" fill="#bfcce8" fill-rule="evenodd"/>
      <path id="Trazado_214443" data-name="Trazado 214443" d="M222.829,161.011a.812.812,0,0,0-1.619,0v1.771h-1.9a.755.755,0,1,0,0,1.507h1.9v1.771a.812.812,0,0,0,1.619,0v-1.771h1.9a.755.755,0,1,0,0-1.507h-1.9Z" transform="translate(-57.071 -50.153)" fill="#bfcce8" fill-rule="evenodd"/>
      <path id="Trazado_214444" data-name="Trazado 214444" d="M587.162,154.525a.812.812,0,0,0-1.619,0V156.3h-1.9a.755.755,0,1,0,0,1.507h1.9v1.77a.812.812,0,0,0,1.619,0V157.8h1.9a.755.755,0,1,0,0-1.507h-1.9Z" transform="translate(-152.234 -48.123)" fill="#bfcce8" fill-rule="evenodd"/>
      <path id="Trazado_214445" data-name="Trazado 214445" d="M426.465,235.708a21.184,21.184,0,0,1,8.628,5.783c2.151,2.429,28.479,49.333,30.17,52.386s1.687,10.773-2.3,15.523c-1.548,1.845-6,7.009-10.865,12.635H436.324c5.727-7.992,13.2-18.442,13.74-19.284.876-1.375,1.316-2.7-.284-5.028S427.1,271.506,427.1,271.506s-10.36-26.935-.639-35.8" transform="translate(-110.305 -73.766)" fill="#0f1630" fill-rule="evenodd"/>
      <path id="Trazado_214446" data-name="Trazado 214446" d="M426.465,235.708a21.184,21.184,0,0,1,8.628,5.783c2.151,2.429,28.479,49.333,30.17,52.386s1.687,10.773-2.3,15.523c-1.548,1.845-6,7.009-10.865,12.635H436.324c5.727-7.992,13.2-18.442,13.74-19.284.876-1.375,1.316-2.7-.284-5.028S427.1,271.506,427.1,271.506,416.744,244.571,426.465,235.708Z" transform="translate(-110.305 -73.766)" fill="none" stroke="#0e1632" stroke-miterlimit="22.926" stroke-width="0.216"/>
      <path id="Trazado_214447" data-name="Trazado 214447" d="M370.367,230.217s26.547,3.509,27.69,3.773,3.082,2.747,4.126,4.422,2.272,25.772,2.866,32.519S403.3,307.093,404,314.994c.116,1.311.332,3.156.613,5.323H325.2c-1.019-8.736-8.1-36.072-8.679-42.64-.595-6.747-3.6-30.708-2.866-32.519s2.214-4.554,3.3-4.988,26.971-7.937,26.971-7.937l13.272,1.361Z" transform="translate(-81.897 -72.047)" fill="#cec9d0" fill-rule="evenodd"/>
      <path id="Trazado_214448" data-name="Trazado 214448" d="M379.613,230.217,384,230.8a3.451,3.451,0,0,1-.909,1.675c-10.314,10.993-20.854,11.8-32.954,2.512a3.554,3.554,0,0,1-1.2-1.525c2.537-.738,4.232-1.228,4.232-1.228l13.272,1.361Z" transform="translate(-91.143 -72.047)" fill="#fff" fill-rule="evenodd"/>
      <path id="Trazado_214449" data-name="Trazado 214449" d="M376.466,195.607l.227,6.146s1.105,12.541,1.273,14.446c.081.92,1.226,2.17,3.143,3.187-8.679,9.251-16.257,9.829-26.439,2.015,1.713-1.294,2.624-2.7,2.543-3.621-.167-1.9-1.273-14.445-1.273-14.445l-.852-6.1s5.33.387,10.857,1.083c5.33-1.523,10.521-2.712,10.521-2.712" transform="translate(-92.639 -61.216)" fill="#e8685b" fill-rule="evenodd"/>
      <path id="Trazado_214450" data-name="Trazado 214450" d="M391.028,230.641s-3.07,12.336-3.3,14.846-3.834,27.784-3.457,32.056c.171,1.944,4.323,21.692,8.843,42.906h36.168c-.887-5.171-1.648-9.629-2.058-12.146-1.469-9.051-2.455-27.863-2.134-39.481s-2.784-29.052-3.153-30.708-3.915-3.722-5.014-4.106Z" transform="translate(-100.365 -72.18)" fill="#0f1630" fill-rule="evenodd"/>
      <path id="Trazado_214451" data-name="Trazado 214451" d="M387.067,256.449c-1.088,8.328-3.079,23.548-2.793,26.777,0,0,17.592-17.812,17.325-19.568s-7.424-14.859-7.424-14.859-3.075,3.288-7.107,7.65" transform="translate(-100.364 -77.862)" fill="#3d4155" fill-rule="evenodd"/>
      <path id="Trazado_214452" data-name="Trazado 214452" d="M390.848,230.165a3.94,3.94,0,0,1,1.057-.669c.279-.021,5.051,1.481,5.051,1.481s6.962,10.179,7.077,11.479-17.1,14.4-17.1,14.4l1.526-11.975s2.495-11.706,3.268-14.595Z" transform="translate(-101.067 -71.821)" fill="#545a6c" fill-rule="evenodd"/>
      <path id="Trazado_214453" data-name="Trazado 214453" d="M308.515,244.67a20.488,20.488,0,0,0-7.5,7.013c-1.7,2.723-19.462,52.986-20.6,56.255s.222,10.885,4.989,14.967c.516.442,1.3,1.1,2.288,1.935h19.683c-5.214-5.2-9.933-9.92-10.41-10.448-1.105-1.224-1.771-2.47-.6-5.005s17.782-29.3,17.782-29.3,5.506-28.144-5.636-35.417" transform="translate(-73.147 -76.57)" fill="#0f1630" fill-rule="evenodd"/>
      <path id="Trazado_214454" data-name="Trazado 214454" d="M341.478,234.052s5.188,11.707,5.853,14.15,8.646,26.831,9.024,31.1c.167,1.9-.441,21.159-1.165,42.211H319.41c-.016-2.2-.033-4.042-.052-5.358-.134-9.152-2.456-27.862-4.807-39.277s-2.339-29.087-2.264-30.776,3.211-4.266,4.227-4.811Z" transform="translate(-81.563 -73.247)" fill="#0f1630" fill-rule="evenodd"/>
      <path id="Trazado_214455" data-name="Trazado 214455" d="M357.243,259.133c2.531,8.052,7.159,22.768,7.444,26,0,0-20.476-14.91-20.519-16.684s4.723-15.785,4.723-15.785,3.609,2.778,8.352,6.472" transform="translate(-89.896 -79.071)" fill="#3d4155" fill-rule="evenodd"/>
      <path id="Trazado_214456" data-name="Trazado 214456" d="M349.117,233.461a4.029,4.029,0,0,0-1.158-.5c-.279.021-4.725,2.226-4.725,2.226s-5.087,11.1-4.972,12.4S357.65,259.2,357.65,259.2l-3.6-11.583s-4.511-11.171-5.78-13.905Z" transform="translate(-88.353 -72.906)" fill="#545a6c" fill-rule="evenodd"/>
      <path id="Trazado_214457" data-name="Trazado 214457" d="M338.254,201.051c-.134.028-.264.06-.394.1h0a5.11,5.11,0,0,0-3.841,5.219,5.348,5.348,0,0,0,5.84,4.7,5.213,5.213,0,0,0,5.053-5.43,5.012,5.012,0,0,0-2.414-3.858c.285,1.482.211,3.351-1.82,3.71l-.226-2.921a1.864,1.864,0,0,0-2.195-1.519" transform="translate(-87.241 -62.915)" fill="#e8685b" fill-rule="evenodd"/>
      <path id="Trazado_214458" data-name="Trazado 214458" d="M390.873,196.212c.137.005.27.015.4.029h.005a5.282,5.282,0,0,1,4.792,4.488,5.18,5.18,0,0,1-4.828,5.6,5.382,5.382,0,0,1-6.028-4.49,4.873,4.873,0,0,1,1.623-4.2c.009,1.505.445,3.331,2.512,3.342l-.344-2.91c-.14-1.179.99-1.822,1.864-1.863" transform="translate(-100.61 -61.405)" fill="#e8685b" fill-rule="evenodd"/>
      <path id="Trazado_214459" data-name="Trazado 214459" d="M356.957,161.833h0c-10.238.869-17.853,9.371-16.919,18.894l1.544,15.749c.934,9.523,10.078,16.6,20.316,15.735h0c10.239-.868,17.854-9.371,16.92-18.894l-1.544-15.749c-.935-9.522-10.079-16.6-20.317-15.735" transform="translate(-88.797 -50.624)" fill="#f4ad85" fill-rule="evenodd"/>
      <path id="Trazado_214460" data-name="Trazado 214460" d="M341.189,177.029a16.123,16.123,0,0,0-1.153,7.751l1.544,15.749c.881,8.968,9.041,15.77,18.541,15.806-10.824-.774-12.829-12.671-13.655-18.934s1.7-7.667,2.7-7.978,16.722-2.736,20.2-3.11a6.476,6.476,0,0,1,5.227,1.422l1.461-1.981-1.4-4.229s1.2.037,2.615,0a16.235,16.235,0,0,0-.687-3.273,30.841,30.841,0,0,1-6.142-2.578c-4.146-2.488-23.945.622-27.155.622a5.283,5.283,0,0,0-2.091.731" transform="translate(-88.797 -54.676)" fill="#ed9072" fill-rule="evenodd"/>
      <path id="Trazado_214461" data-name="Trazado 214461" d="M372.612,182.7s.113,1.158.219,2.232a2.491,2.491,0,0,0,2.182,2.107l-.239-2.439a2.532,2.532,0,0,1,2.589-2.033,18.687,18.687,0,0,0-4.083-26.6c-8.456-5.786-25.3-4.774-28.142-3.615s-5.412,6.043-5.412,6.043-2.693-1.855-4.9-.585-8.61,15.484-8.278,18.874S334.6,186.2,334.6,186.2a2.613,2.613,0,0,1,2.94,1.564l.24,2.439a2.41,2.41,0,0,0,1.736-2.44c-.1-1.075-.219-2.232-.219-2.232.084-.043.165-.088.246-.133,2.258-1.364,1.81-5.531,1.81-5.531l-2.081-2.708,4.13-5.052,4.752-1.453,10.795.384s12.73,1.472,11.615,4.917,2.053,6.749,2.053,6.749" transform="translate(-85.291 -47.4)" fill="#0e1632" fill-rule="evenodd"/>
      <path id="Trazado_214462" data-name="Trazado 214462" d="M372.612,186.611c.13,1.326,1.085,7.251,2.745,7.11,4.952-9.7,9.525-19.827,2.148-29.766-.868,6.4-7.718,10.3-14.579,11.639,3.63.735,8.328,2.116,7.633,4.267-1.114,3.446,2.053,6.75,2.053,6.75m-45.588-8.989a9.422,9.422,0,0,0-.475,2.976c.256,2.613,9.608,15.226,11.685,18.093,1.081-.091,1.225-7.564,1.059-9.255.084-.043.164-.087.246-.133,2.258-1.364,1.81-5.531,1.81-5.531l-2.081-2.707,4.13-5.053,4.533-1.386a6.653,6.653,0,0,1-2.941-1.755c-9.369,8.815-14.807,8.334-17.965,4.751" transform="translate(-85.291 -51.311)" fill="#010518" fill-rule="evenodd"/>
      <path id="Trazado_214463" data-name="Trazado 214463" d="M336.964,185.576s-7.832-15.791,7.924-18.49c0,0,4.17-7.657,12.525-5.737s13.584,1.867,17.332-1.567c0,0,2.148,3.761-.46,7.049,7.909,5.707,5.161,13.024,1.925,16.973-1.3-8.183-24.481.927-27.511-6.94-.3,7.517-8.776,5.647-11.734,8.712" transform="translate(-87.506 -50.004)" fill="#0e1632" fill-rule="evenodd"/>
      <path id="Trazado_214464" data-name="Trazado 214464" d="M336.985,189.677A21.612,21.612,0,0,1,335.1,182.8c3.045-.269,7-2.3,12.127-7.132,0,0,2.1,2.865,11.773,3.234,5.877.225,13.349-1.8,17.562-6.012,5.036,5.336,2.547,11.507-.329,15.017-1.3-8.185-24.48.926-27.512-6.941-.3,7.517-8.775,5.646-11.734,8.712" transform="translate(-87.527 -54.106)" fill="#010518" fill-rule="evenodd"/>
      <path id="Trazado_214465" data-name="Trazado 214465" d="M628.762,196.978c-3.313-11.55-14.887-5.2-19.84,4.69s-16.3,48.461-26.115,58.448c-3.8,3.871-2.64,4.2.856,2.311,17.439-9.4,49.658-49.551,45.1-65.449" transform="translate(-151.612 -59.704)" fill="#05304b" fill-rule="evenodd"/>
      <path id="Trazado_214466" data-name="Trazado 214466" d="M580.464,265.157c-.12.519.406.543,1.4.161,26.439-20.794,40.479-67.279,40.524-67.428a.478.478,0,0,0-.355-.595.525.525,0,0,0-.641.331c-.045.149-14.277,47.269-40.928,67.531" transform="translate(-151.612 -61.738)" fill="#0076bd" fill-rule="evenodd"/>
      <path id="Trazado_214467" data-name="Trazado 214467" d="M598.94,207.124c-5.777-8.421-13.27-.642-14.528,8.4s.183,42.431-4.918,52.692c-1.977,3.977-.963,3.964,1.31,1.64,11.336-11.586,26.089-51.138,18.136-62.729" transform="translate(-151.088 -63.691)" fill="#0076bd" fill-rule="evenodd"/>
      <path id="Trazado_214468" data-name="Trazado 214468" d="M578.447,272.9c.046.442.471.337,1.158-.2,15.409-22.776,13.96-63.1,13.955-63.23a.433.433,0,0,0-.864.023c0,.13,1.473,41.006-14.248,63.408" transform="translate(-151.09 -65.432)" fill="#05304b" fill-rule="evenodd"/>
      <path id="Trazado_214469" data-name="Trazado 214469" d="M627.5,250.459c9.985.968,6.128,10.045-1.471,14.8s-38.21,17.6-45.3,25.859c-2.747,3.2-3.158,2.405-2.021-.333,5.672-13.656,35.047-41.663,48.791-40.33" transform="translate(-151.003 -78.368)" fill="#0076bd" fill-rule="evenodd"/>
      <path id="Trazado_214470" data-name="Trazado 214470" d="M578.52,295.2c-.416.149-.5-.225-.3-.985,14.025-21.5,50.872-37.239,50.989-37.291a.418.418,0,0,1,.537.183.365.365,0,0,1-.2.5c-.118.052-37.468,16-51.026,37.593" transform="translate(-151.003 -80.393)" fill="#05304b" fill-rule="evenodd"/>
      <path id="Trazado_214471" data-name="Trazado 214471" d="M451.073,233.592l-2.479,20.259s3.747,47.445,5.591,67.522h27.822l.611-80.75Z" transform="translate(-117.172 -73.103)" fill="#0e1632" fill-rule="evenodd"/>
      <path id="Trazado_214472" data-name="Trazado 214472" d="M471.488,259.108l-1.225,7.16,2.438,63.049h33.918c.565-4.363,1.076-8.1,1.489-10.785,2.548-16.584,3.42-39.631,3.409-45.086s-6.805-13.55-9.14-14.142-30.889-.2-30.889-.2" transform="translate(-122.832 -81.048)" fill="#0e1632" fill-rule="evenodd"/>
      <path id="Trazado_214473" data-name="Trazado 214473" d="M444.125,116.716s-1.158-2-2.073-1.628-31.626,42.4-32.666,46.017-.613,10.025,5.331,18.922,18.662,30.728,19.111,31.2,7.4-3.911,8.14-5.135c0,0,.3-.4-.14-1.22s-15.566-34.124-16.523-36.514,25.98-32.04,27.265-34.411,6.236-14.811-8.445-17.23" transform="translate(-106.815 -36.002)" fill="#171c3a" fill-rule="evenodd"/>
      <path id="Trazado_214474" data-name="Trazado 214474" d="M480.462,99.96l-13.375,8.884s-9.542,34.741-9.579,36.319-3.691,20.736-3.691,20.736,13.375,4.936,15.286.2,23.353-38.7,24.414-44.026-1.487-17.966-2.76-19.348-10.3-2.764-10.3-2.764" transform="translate(-118.536 -31.283)" fill="#c9c4d1" fill-rule="evenodd"/>
      <path id="Trazado_214475" data-name="Trazado 214475" d="M463.484,108.478s-12.113,3.964-13.227,4.556S442.6,135.8,442.07,137.87s2.972,40.076,2.972,43.433-4.564,45.309-4.671,46a1.272,1.272,0,0,0,1.38,1.481c1.062,0,12.95-20.828,13.9-23.2s-2.137-38.1-2.137-38.1L461.6,116.35Z" transform="translate(-115.02 -33.949)" fill="#171c3a" fill-rule="evenodd"/>
      <path id="Trazado_214476" data-name="Trazado 214476" d="M503,116.654s17.361,16.273,18,17.261-17.407,56.562-17.619,59.129,8.917,40.373,9.236,41.36a1.792,1.792,0,0,1-.266.987,3.867,3.867,0,0,1-1.432,1.185c-.372.247-42.831-6.12-46.228-8.095s-10.721-32.674-10.721-36.82,2.568-20.014,2.568-20.014l20.891-32.9s15.092-21.05,25.574-22.1" transform="translate(-118.575 -36.507)" fill="#1c2344" fill-rule="evenodd"/>
      <path id="Trazado_214477" data-name="Trazado 214477" d="M512.287,112.931s20.112,18.831,20.748,19.819-17.408,56.562-17.62,59.129,8.918,40.373,9.236,41.36a1.786,1.786,0,0,1-.265.987,3.874,3.874,0,0,1-1.433,1.185c-.191.127-11.485-1.492-22.887-3.363,9.89-13.255,9.373-35.217,8.511-36.554-1-1.555-6.287-4.914-5.485-5.162s6.22-.373,6.621-1.617,8.022-40.6,8.022-40.6l5.088-3.19s2.274-15.3.669-17.54-12.193-10.707-12.279-10.776c1.317-.6-.149-3.555,1.073-3.678" transform="translate(-130.617 -35.342)" fill="#101937" fill-rule="evenodd"/>
      <path id="Trazado_214478" data-name="Trazado 214478" d="M536.2,138.167a29.344,29.344,0,0,1,4.447,4.155c1.819,2.205,24.473,46.243,24.94,50.37s-1.189,11.08-9.352,19.869-26.146,30.662-26.725,31.105-7.378-5.47-7.962-6.931c0,0-.259-.489.381-1.314s23.384-34.877,24.876-37.341-22.508-39.265-23.475-42.069-3.659-17.554,12.87-17.845" transform="translate(-136.215 -43.24)" fill="#383d5d" fill-rule="evenodd"/>
      <path id="Trazado_214479" data-name="Trazado 214479" d="M498.7,77.452c.123,6.155-1.594,12.512-1.16,18.675.089,1.257.736,1.675,2.4,2.683,2.31,3.2-4.008,13.307-8.163,13.909-.275.04-7.043-4.9-11.838-6.042-2.46-.587-4.486,2.335-4.671,2.21-1-.673,1.147-5.9.448-7.887.844-.21,1.6-1.962,2.193-2.473,3.884-3.331,2.617-11.647-.564-14.789-2.376-2.345,21.351-6.286,21.351-6.286" transform="translate(-124.071 -24.239)" fill="#ed9072" fill-rule="evenodd"/>
      <path id="Trazado_214480" data-name="Trazado 214480" d="M504.85,108.048c-.528,1.392-13.36,17.319-13.36,17.319s-.459.573-1.13-.153-8.577-10.988-8.577-10.988l17.559-12.167-.4-2.8c.258-.256,6.452,7.356,5.91,8.787" transform="translate(-125.841 -31.062)" fill="#fff" fill-rule="evenodd"/>
      <path id="Trazado_214481" data-name="Trazado 214481" d="M478.927,104.5c.005-.008-.018-.024-.067-.027-6-.394-6.911,15.42-5.856,18.521.007.02,3.647-5.176,6.157-7.244,1.136-.934-2.417-8.08-.233-11.25" transform="translate(-123.449 -32.693)" fill="#fff" fill-rule="evenodd"/>
      <path id="Trazado_214482" data-name="Trazado 214482" d="M496.979,105.437s-22.451,25.88-24.043,28.052-13.8,28.923-15.5,34.648c0,0,18.789-21.815,21.443-23.789s12.475-9.575,12.475-9.575a1.238,1.238,0,0,0,.132-.84c-.132-.345-2.865-6.1-2.865-6.1s8.174,1.136,8.917,1.086,4.413-17.008,4.518-17.5-5.078-5.985-5.078-5.985" transform="translate(-119.482 -32.997)" fill="#383d5d" fill-rule="evenodd"/>
      <path id="Trazado_214483" data-name="Trazado 214483" d="M475.2,104.461a69.433,69.433,0,0,0-6.894,1.773c-.955.493-8.492,12.141-8.7,13.129a.6.6,0,0,0,.318.666,22.418,22.418,0,0,1,2.151,1.259,13.782,13.782,0,0,1-2.628.444.491.491,0,0,0-.264.568c.053.457-1.006,43.928-1.006,43.928s9.265-48.069,10.637-51.233a57.233,57.233,0,0,1,5.059-8.169Z" transform="translate(-119.674 -32.691)" fill="#383d5d" fill-rule="evenodd"/>
      <path id="Trazado_214484" data-name="Trazado 214484" d="M465.689,64.418a4.936,4.936,0,1,1-5.265,4.951,5.126,5.126,0,0,1,5.265-4.951" transform="translate(-120.262 -20.16)" fill="#e8685b" fill-rule="evenodd"/>
      <path id="Trazado_214485" data-name="Trazado 214485" d="M513.515,64.145a4.936,4.936,0,1,1-5.265,4.95,5.123,5.123,0,0,1,5.265-4.95" transform="translate(-132.754 -20.074)" fill="#e8685b" fill-rule="evenodd"/>
      <path id="Trazado_214486" data-name="Trazado 214486" d="M482.614,27.585h0A18.315,18.315,0,0,1,500.85,45.873l.092,16.713a18.322,18.322,0,0,1-18.033,18.492h0a18.314,18.314,0,0,1-18.234-18.287l-.092-16.714a18.32,18.32,0,0,1,18.032-18.493" transform="translate(-121.348 -8.633)" fill="#f4ad85" fill-rule="evenodd"/>
      <path id="Trazado_214487" data-name="Trazado 214487" d="M500.143,43.133a18.535,18.535,0,0,1,.706,4.969l.092,16.713a18.374,18.374,0,0,1-15.665,18.32c-.87.085-1.428.136-1.549.148h-.008c9.9-.912,12-13.01,12-16.659V57.152c0-8.952-5.327-9.887-8.973-9.887H468.662a3.5,3.5,0,0,0-3.178,2l-.9-.637v-.321a18.475,18.475,0,0,1,5.848-13.6c9.08,1.65,24.18,4.456,25.22,5.061.566.328,2.414,1.738,4.494,3.364" transform="translate(-121.348 -10.862)" fill="#ed9072" fill-rule="evenodd"/>
      <path id="Trazado_214488" data-name="Trazado 214488" d="M460.9,42.223l3.257,3.041s1.561-5.654,14.7-3.91S466.744,30,463.885,31.432s-5.35,5.634-2.983,10.791" transform="translate(-120.14 -9.803)" fill="#01020e" fill-rule="evenodd"/>
      <path id="Trazado_214489" data-name="Trazado 214489" d="M493.436,37.815s-12.926,1.318-19.5-2.566-12.147-5.685-13.834-3.575c-1.6,2,4.833,7.408,2.245,16.6-.14.5-.479,9-.676,9.524-.063-3.327-1.209-11.829-2.394-13.957-3.538-6.352-9.072-11.126-1.885-20.651,4.413-5.846,11.907-8.585,15.388-5.627C484.12,27.2,499.738,14.68,499.834,30.65c0,0,8.414,2.635.595,18.644a2.141,2.141,0,0,0-2.311,2.309l.069,8.548c-6.318,0-6.447-15.4-4.751-22.337" transform="translate(-118.554 -5.121)" fill="#0e1632" fill-rule="evenodd"/>
      <path id="Trazado_214490" data-name="Trazado 214490" d="M498.746,322.743h36.577a3.118,3.118,0,0,0,3.216-2.99v-58.48a3.119,3.119,0,0,0-3.216-2.989H498.746a3.118,3.118,0,0,0-3.216,2.989v58.48a3.118,3.118,0,0,0,3.216,2.99" transform="translate(-129.432 -80.831)" fill="#e2e1e7" fill-rule="evenodd"/>
      <path id="Trazado_214491" data-name="Trazado 214491" d="M549.526,322.743h29.588a2.623,2.623,0,0,0,2.705-2.515V260.8a2.624,2.624,0,0,0-2.705-2.515H549.526a2.624,2.624,0,0,0-2.706,2.515v59.429a2.623,2.623,0,0,0,2.706,2.515" transform="translate(-142.829 -80.831)" fill="#fff" fill-rule="evenodd"/>
      <path id="Trazado_214492" data-name="Trazado 214492" d="M485.624,290.721h37.893c0-6.315,7.319-7.013,7.319-7.013H492.943s-7.319.7-7.319,7.013" transform="translate(-126.844 -88.787)" fill="#fff" fill-rule="evenodd"/>
      <path id="Trazado_214493" data-name="Trazado 214493" d="M494.783,337.006H534a2.053,2.053,0,0,1,2.117,1.968v12.794A2.053,2.053,0,0,1,534,353.737H494.783a2.053,2.053,0,0,1-2.117-1.969V338.974a2.052,2.052,0,0,1,2.117-1.968" transform="translate(-128.684 -105.467)" fill="#b92f6d" fill-rule="evenodd"/>
      <path id="Trazado_214494" data-name="Trazado 214494" d="M546.193,337.006H554.8a4.076,4.076,0,0,1,3.469,2.46c1.234,2.5,1.1,5,4.762,5h1.576c3.66,0,3.557-2.559,4.762-5a3.974,3.974,0,0,1,3.469-2.46h8.172a2.053,2.053,0,0,1,2.117,1.968v12.794a2.054,2.054,0,0,1-2.117,1.969H546.193a2.053,2.053,0,0,1-2.117-1.969V338.974a2.052,2.052,0,0,1,2.117-1.968" transform="translate(-142.112 -105.467)" fill="#e74d91" fill-rule="evenodd"/>
      <path id="Trazado_214495" data-name="Trazado 214495" d="M485.624,322.865h37.893c0-6.315,7.319-7.012,7.319-7.012H492.943s-7.319.7-7.319,7.012" transform="translate(-126.844 -98.847)" fill="#fff" fill-rule="evenodd"/>
      <path id="Trazado_214496" data-name="Trazado 214496" d="M587.981,307.54H553.519c0-6.315-6.7-7.012-6.7-7.012h34.461s6.7.7,6.7,7.012" transform="translate(-142.829 -94.051)" fill="#acabbb" fill-rule="evenodd"/>
      <path id="Trazado_214497" data-name="Trazado 214497" d="M553.833,268.476h26.414a1.086,1.086,0,1,1,0,2.166H553.833a1.086,1.086,0,1,1,0-2.166" transform="translate(-144.356 -84.02)" fill="#e2e1e7" fill-rule="evenodd"/>
      <path id="Trazado_214498" data-name="Trazado 214498" d="M553.833,285.843h26.414a1.086,1.086,0,1,1,0,2.166H553.833a1.086,1.086,0,1,1,0-2.166" transform="translate(-144.356 -89.455)" fill="#e2e1e7" fill-rule="evenodd"/>
      <path id="Trazado_214499" data-name="Trazado 214499" d="M553.833,322.108h26.414a1.086,1.086,0,1,1,0,2.166H553.833a1.086,1.086,0,1,1,0-2.166" transform="translate(-144.356 -100.805)" fill="#e2e1e7" fill-rule="evenodd"/>
      <path id="Trazado_214500" data-name="Trazado 214500" d="M502.7,267.2h25.516a1.086,1.086,0,1,1,0,2.166H502.7a1.086,1.086,0,1,1,0-2.166" transform="translate(-131 -83.62)" fill="#acabbb" fill-rule="evenodd"/>
      <path id="Trazado_214501" data-name="Trazado 214501" d="M502.7,306.314h25.516a1.129,1.129,0,0,1,1.164,1.083h0a1.129,1.129,0,0,1-1.164,1.081H502.7a1.129,1.129,0,0,1-1.164-1.081h0a1.129,1.129,0,0,1,1.164-1.083" transform="translate(-131 -95.862)" fill="#acabbb" fill-rule="evenodd"/>
      <path id="Trazado_214502" data-name="Trazado 214502" d="M502.7,331.344h25.516a1.086,1.086,0,1,1,0,2.166H502.7a1.086,1.086,0,1,1,0-2.166" transform="translate(-131 -103.695)" fill="#acabbb" fill-rule="evenodd"/>
      <path id="Trazado_214503" data-name="Trazado 214503" d="M473.824,337.989H495.96a1.886,1.886,0,0,0,1.946-1.81v-35.39a1.887,1.887,0,0,0-1.946-1.809H473.824a1.887,1.887,0,0,0-1.946,1.809v35.39a1.887,1.887,0,0,0,1.946,1.81" transform="translate(-123.254 -93.567)" fill="#e2e1e7" fill-rule="evenodd"/>
      <path id="Trazado_214504" data-name="Trazado 214504" d="M504.555,337.989h17.906a1.587,1.587,0,0,0,1.636-1.522V300.5a1.588,1.588,0,0,0-1.636-1.522H504.555a1.588,1.588,0,0,0-1.637,1.522v35.965a1.587,1.587,0,0,0,1.637,1.522" transform="translate(-131.362 -93.567)" fill="#fff" fill-rule="evenodd"/>
      <path id="Trazado_214505" data-name="Trazado 214505" d="M465.884,318.609h22.931c0-3.821,4.43-4.243,4.43-4.243H470.313s-4.429.423-4.429,4.243" transform="translate(-121.688 -98.382)" fill="#fff" fill-rule="evenodd"/>
      <path id="Trazado_214506" data-name="Trazado 214506" d="M471.426,346.621h23.733a1.241,1.241,0,0,1,1.281,1.191v7.742a1.242,1.242,0,0,1-1.281,1.191H471.426a1.242,1.242,0,0,1-1.28-1.191v-7.742a1.241,1.241,0,0,1,1.28-1.191" transform="translate(-122.802 -108.476)" fill="#b92f6d" fill-rule="evenodd"/>
      <path id="Trazado_214507" data-name="Trazado 214507" d="M502.538,346.621h5.212a2.465,2.465,0,0,1,2.1,1.489c.747,1.514.668,3.027,2.882,3.027h.954c2.214,0,2.153-1.549,2.882-3.027a2.4,2.4,0,0,1,2.1-1.489h4.946a1.242,1.242,0,0,1,1.281,1.191v7.742a1.243,1.243,0,0,1-1.281,1.191H502.538a1.243,1.243,0,0,1-1.281-1.191v-7.742a1.242,1.242,0,0,1,1.281-1.191" transform="translate(-130.928 -108.476)" fill="#e74d91" fill-rule="evenodd"/>
      <path id="Trazado_214508" data-name="Trazado 214508" d="M465.884,338.062h22.931c0-3.821,4.43-4.243,4.43-4.243H470.313s-4.429.422-4.429,4.243" transform="translate(-121.688 -104.47)" fill="#fff" fill-rule="evenodd"/>
      <path id="Trazado_214509" data-name="Trazado 214509" d="M527.827,328.789H506.972c0-3.821-4.054-4.243-4.054-4.243h20.856s4.053.422,4.053,4.243" transform="translate(-131.362 -101.568)" fill="#acabbb" fill-rule="evenodd"/>
      <path id="Trazado_214510" data-name="Trazado 214510" d="M507.162,305.147h15.985a.657.657,0,1,1,0,1.312H507.162a.657.657,0,1,1,0-1.312" transform="translate(-132.286 -95.497)" fill="#e2e1e7" fill-rule="evenodd"/>
      <path id="Trazado_214511" data-name="Trazado 214511" d="M507.162,315.658h15.985a.657.657,0,1,1,0,1.31H507.162a.657.657,0,1,1,0-1.31" transform="translate(-132.286 -98.786)" fill="#e2e1e7" fill-rule="evenodd"/>
      <path id="Trazado_214512" data-name="Trazado 214512" d="M507.162,337.6h15.985a.657.657,0,1,1,0,1.312H507.162a.657.657,0,1,1,0-1.312" transform="translate(-132.286 -105.654)" fill="#e2e1e7" fill-rule="evenodd"/>
      <path id="Trazado_214513" data-name="Trazado 214513" d="M476.217,304.374h15.441a.683.683,0,0,1,.7.655h0a.682.682,0,0,1-.7.655H476.217a.683.683,0,0,1-.7-.655h0a.684.684,0,0,1,.7-.655" transform="translate(-124.203 -95.255)" fill="#acabbb" fill-rule="evenodd"/>
      <path id="Trazado_214514" data-name="Trazado 214514" d="M476.217,328.047h15.441a.683.683,0,0,1,.7.655h0a.683.683,0,0,1-.7.655H476.217a.683.683,0,0,1-.7-.655h0a.684.684,0,0,1,.7-.655" transform="translate(-124.203 -102.663)" fill="#acabbb" fill-rule="evenodd"/>
      <path id="Trazado_214515" data-name="Trazado 214515" d="M476.217,343.193h15.441a.657.657,0,1,1,0,1.311H476.217a.657.657,0,1,1,0-1.311" transform="translate(-124.203 -107.403)" fill="#acabbb" fill-rule="evenodd"/>
      <path id="Trazado_214516" data-name="Trazado 214516" d="M138.289,221.828l30.275.133a.7.7,0,0,1,.723.672l-.007,2.945a.7.7,0,0,1-.723.672l-30.275-.133a.7.7,0,0,1-.723-.672l.007-2.945a.7.7,0,0,1,.723-.672M167.84,223.3l-28.83-.129,0,1.6,28.83.129Z" transform="translate(-35.93 -69.422)" fill="#0e1632" fill-rule="evenodd"/>
      <path id="Trazado_214517" data-name="Trazado 214517" d="M84.645,263.642l40-42.386a.761.761,0,0,1,1.02-.065l2.381,1.943a.64.64,0,0,1,.069.948l-40,42.387a.762.762,0,0,1-1.02.064l-2.381-1.943a.64.64,0,0,1-.069-.948m40.61-41L86.209,264.023l1.294,1.057L126.549,223.7Z" transform="translate(-22.063 -69.171)" fill="#0e1632" fill-rule="evenodd"/>
      <path id="Trazado_214518" data-name="Trazado 214518" d="M137.849,219.6a3.983,3.983,0,0,1,4.507,3.247,3.812,3.812,0,0,1-3.492,4.19,3.983,3.983,0,0,1-4.507-3.246,3.813,3.813,0,0,1,3.492-4.191" transform="translate(-35.086 -68.716)" fill="#383d5d" fill-rule="evenodd"/>
      <path id="Trazado_214519" data-name="Trazado 214519" d="M84.645,282.276l28.125,49.961a.749.749,0,0,0,.974.286l2.807-1.367a.65.65,0,0,0,.307-.906L88.733,280.29a.75.75,0,0,0-.974-.286l-2.806,1.366a.649.649,0,0,0-.307.906m29.07,48.745L86.261,282.25l1.526-.743,27.454,48.771Z" transform="translate(-22.088 -87.604)" fill="#0e1632" fill-rule="evenodd"/>
      <path id="Trazado_214520" data-name="Trazado 214520" d="M121.652,354.515a4.13,4.13,0,0,0,5.2-2.167,3.674,3.674,0,0,0-2.33-4.839,4.13,4.13,0,0,0-5.2,2.167,3.674,3.674,0,0,0,2.33,4.839" transform="translate(-31.097 -108.677)" fill="#383d5d" fill-rule="evenodd"/>
      <path id="Trazado_214521" data-name="Trazado 214521" d="M86.537,278.073a3.984,3.984,0,0,1,4.507,3.247,3.813,3.813,0,0,1-3.492,4.191,3.984,3.984,0,0,1-4.507-3.247,3.813,3.813,0,0,1,3.492-4.191" transform="translate(-21.683 -87.014)" fill="#383d5d" fill-rule="evenodd"/>
      <path id="Trazado_214522" data-name="Trazado 214522" d="M73.694,362.667h56.189a4.937,4.937,0,0,0,5.091-4.734h0a4.938,4.938,0,0,0-5.091-4.735H73.694a4.938,4.938,0,0,0-5.092,4.735h0a4.937,4.937,0,0,0,5.092,4.734" transform="translate(-17.919 -110.534)" fill="#383d5d" fill-rule="evenodd"/>
      <path id="Trazado_214523" data-name="Trazado 214523" d="M100.79,362.667h56.19a4.937,4.937,0,0,0,5.091-4.734h0a4.938,4.938,0,0,0-5.091-4.735H100.79a4.938,4.938,0,0,0-5.092,4.735h0a4.937,4.937,0,0,0,5.092,4.734" transform="translate(-24.996 -110.534)" fill="#0e1632" fill-rule="evenodd"/>
      <path id="Trazado_214524" data-name="Trazado 214524" d="M167.945,232.507h14.809a7.575,7.575,0,0,0,7.812-7.264H160.134a7.575,7.575,0,0,0,7.811,7.264" transform="translate(-41.827 -70.49)" fill="#fff" fill-rule="evenodd"/>
      <path id="Trazado_214525" data-name="Trazado 214525" d="M169.428,231.718h8.9a4.552,4.552,0,0,0,4.694-4.365H164.734a4.552,4.552,0,0,0,4.694,4.365" transform="translate(-43.028 -71.151)" fill="#dff0f2" fill-rule="evenodd"/>
      <path id="Trazado_214526" data-name="Trazado 214526" d="M161.854,220.392h24.771a5.794,5.794,0,0,1,5.975,5.556h-36.72a5.794,5.794,0,0,1,5.975-5.556" transform="translate(-40.715 -68.972)" fill="#383d5d" fill-rule="evenodd"/>
      <path id="Trazado_214527" data-name="Trazado 214527" d="M161.854,220.392H173.18a5.794,5.794,0,0,1,5.975,5.556H155.879a5.794,5.794,0,0,1,5.975-5.556" transform="translate(-40.715 -68.972)" fill="#01020e" fill-rule="evenodd"/>
      <path id="Trazado_214528" data-name="Trazado 214528" d="M567.04,65.587a.573.573,0,0,1-.762.119A.485.485,0,0,1,566.15,65a22.859,22.859,0,0,1,8.265-6.645A24.481,24.481,0,0,1,585,55.977a23.993,23.993,0,0,1,16.375,6.308,20.487,20.487,0,0,1,0,30.456,24.469,24.469,0,0,1-30.626,1.746,21.484,21.484,0,0,1-8.23-11.784.508.508,0,0,1,.4-.615.552.552,0,0,1,.661.372,20.464,20.464,0,0,0,7.84,11.227A23.321,23.321,0,0,0,600.6,92.021a19.516,19.516,0,0,0,0-29.015A22.852,22.852,0,0,0,585,57a23.33,23.33,0,0,0-10.081,2.26,21.8,21.8,0,0,0-7.876,6.33" transform="translate(-146.924 -17.518)" fill="#0e1632" fill-rule="evenodd"/>
      <path id="Trazado_214529" data-name="Trazado 214529" d="M601.9,73.117a11.14,11.14,0,0,0-3.322,5.447c.909.563,3.414,2.345,2.239,4.238l-4.889,7.869c-1.188,1.84-4.066.726-5.041.28a11.033,11.033,0,0,0-3.412,5.4,8.147,8.147,0,0,0,4.485.881,4.9,4.9,0,0,0,3.569-1.865l9.493-15.289a4.228,4.228,0,0,0-.061-3.79,7.307,7.307,0,0,0-3.063-3.169m-4.325,5.529c1.3-4.488,3.744-6.235,4-6.406a.5.5,0,0,1,.535-.035,8.356,8.356,0,0,1,3.724,3.738,5.067,5.067,0,0,1,.013,4.562l-9.5,15.3a5.878,5.878,0,0,1-4.273,2.3,9.249,9.249,0,0,1-5.325-1.121.434.434,0,0,1-.256-.425c0-.008.25-2.971,3.955-6.437a.5.5,0,0,1,.585-.085c.01,0,3.138,1.683,4.1.181l4.873-7.851c.909-1.463-1.939-3.076-2.19-3.215a.428.428,0,0,1-.237-.5" transform="translate(-153.191 -22.578)" fill="#0e1632" fill-rule="evenodd"/>
    </g>
  </g>
  <text id="_24" data-name="24" transform="translate(396.698 69.564)" fill="#0e1632" font-size="24.525" font-family="OpenSans-Extrabold, Open Sans" font-weight="800"><tspan x="0" y="0">24</tspan></text>
  <g id="Grupo_154225" data-name="Grupo 154225">
    <g id="Grupo_154224" data-name="Grupo 154224" clip-path="url(#clip-path)">
      <path id="Trazado_214530" data-name="Trazado 214530" d="M392.583,35.7h31.548a4.767,4.767,0,0,1,4.916,4.572V65.829a.5.5,0,0,1-.338.471.568.568,0,0,1-.6-.111l-8.378-7.79H392.583a4.767,4.767,0,0,1-4.915-4.572V40.275a4.767,4.767,0,0,1,4.915-4.572" transform="translate(-101.258 -11.173)" fill="#bfcce8" fill-rule="evenodd"/>
      <path id="Trazado_214531" data-name="Trazado 214531" d="M387.308,31.377h31.548a5.766,5.766,0,0,1,3.931,1.52,4.987,4.987,0,0,1,1.634,3.656V62.107a1.054,1.054,0,0,1-.2.62,1.175,1.175,0,0,1-.537.409h0a1.264,1.264,0,0,1-.688.066,1.22,1.22,0,0,1-.616-.306l-8.187-7.614H387.308a5.767,5.767,0,0,1-3.931-1.52,4.985,4.985,0,0,1-1.633-3.656V36.553a4.985,4.985,0,0,1,1.633-3.656,5.767,5.767,0,0,1,3.931-1.52m31.548,1.208H387.308a4.419,4.419,0,0,0-3.012,1.166,3.825,3.825,0,0,0-1.254,2.8V50.105a3.825,3.825,0,0,0,1.254,2.8,4.422,4.422,0,0,0,3.012,1.165h27.419l8.395,7.808V36.553a3.823,3.823,0,0,0-1.253-2.8,4.421,4.421,0,0,0-3.013-1.166" transform="translate(-99.711 -9.82)" fill="#fff" fill-rule="evenodd"/>
      <path id="Trazado_214532" data-name="Trazado 214532" d="M388.8,38.431a.331.331,0,1,1,0-.661h32.072a.331.331,0,1,1,0,.661Z" transform="translate(-101.46 -11.82)" fill="#fff" fill-rule="evenodd"/>
      <path id="Trazado_214533" data-name="Trazado 214533" d="M388.794,43.122a.331.331,0,1,1,0-.661h3.4a.331.331,0,1,1,0,.661Zm7.921,0a.331.331,0,1,1,0-.661h24.151a.331.331,0,1,1,0,.661Z" transform="translate(-101.46 -13.288)" fill="#fff" fill-rule="evenodd"/>
      <path id="Trazado_214534" data-name="Trazado 214534" d="M388.8,47.813a.331.331,0,1,1,0-.66h32.072a.331.331,0,1,1,0,.66Z" transform="translate(-101.46 -14.757)" fill="#fff" fill-rule="evenodd"/>
      <path id="Trazado_214535" data-name="Trazado 214535" d="M400.868,54.174a.331.331,0,1,1,0-.661h23.153a.331.331,0,1,1,0,.661Z" transform="translate(-104.614 -16.747)" fill="#fff" fill-rule="evenodd"/>
      <path id="Trazado_214536" data-name="Trazado 214536" d="M414.862,59.263a.331.331,0,1,1,0-.661h12.814a.331.331,0,1,1,0,.661Z" transform="translate(-108.269 -18.34)" fill="#fff" fill-rule="evenodd"/>
      <path id="Trazado_214537" data-name="Trazado 214537" d="M404.922,59.263a.331.331,0,1,1,0-.661H409.5a.331.331,0,1,1,0,.661Z" transform="translate(-105.672 -18.34)" fill="#fff" fill-rule="evenodd"/>
      <path id="Trazado_214538" data-name="Trazado 214538" d="M639.284,365.99a.812.812,0,0,0-1.619,0v1.771h-1.9a.755.755,0,1,0,0,1.506h1.9v1.771a.812.812,0,0,0,1.619,0v-1.771h1.9a.755.755,0,1,0,0-1.506h-1.9Z" transform="translate(-165.848 -114.302)" fill="#bfcce8" fill-rule="evenodd"/>
      <path id="Trazado_214539" data-name="Trazado 214539" d="M201.788,348.989H174.355a4.246,4.246,0,0,0-2.9,1.12,3.614,3.614,0,0,0,0,5.386,4.246,4.246,0,0,0,2.9,1.12h27.432a4.245,4.245,0,0,0,2.9-1.12,3.614,3.614,0,0,0,0-5.386,4.245,4.245,0,0,0-2.9-1.12" transform="translate(-44.47 -109.217)" fill="#0076bd" fill-rule="evenodd"/>
      <path id="Trazado_214540" data-name="Trazado 214540" d="M129.88,349.637h35.081a3.378,3.378,0,1,1,0,6.738H129.88Z" transform="translate(-33.924 -109.42)" fill="#fff" fill-rule="evenodd"/>
      <path id="Trazado_214541" data-name="Trazado 214541" d="M129.711,348.989a.445.445,0,1,0,0,.888h35.081a3.257,3.257,0,0,1,2.221.859,2.77,2.77,0,0,1,0,4.131,3.26,3.26,0,0,1-2.221.859H129.711a.445.445,0,1,0,0,.888h35.081a4.246,4.246,0,0,0,2.9-1.12,3.614,3.614,0,0,0,0-5.386,4.246,4.246,0,0,0-2.9-1.12Z" transform="translate(-33.756 -109.217)" fill="#004a82" fill-rule="evenodd"/>
      <path id="Trazado_214542" data-name="Trazado 214542" d="M209.776,352.8a3.674,3.674,0,0,0-1.2-2.693,4.245,4.245,0,0,0-2.9-1.12h3.566a4.245,4.245,0,0,1,2.9,1.12,3.612,3.612,0,0,1,0,5.386,4.245,4.245,0,0,1-2.9,1.12h-3.566a4.245,4.245,0,0,0,2.9-1.12,3.67,3.67,0,0,0,1.2-2.693" transform="translate(-53.722 -109.217)" fill="#004a82" fill-rule="evenodd"/>
      <path id="Trazado_214543" data-name="Trazado 214543" d="M202.782,352.8a3.674,3.674,0,0,0-1.2-2.693,4.245,4.245,0,0,0-2.9-1.12h3.566a4.248,4.248,0,0,1,2.9,1.12,3.614,3.614,0,0,1,0,5.386,4.248,4.248,0,0,1-2.9,1.12h-3.566a4.245,4.245,0,0,0,2.9-1.12,3.671,3.671,0,0,0,1.2-2.693" transform="translate(-51.896 -109.217)" fill="#004a82" fill-rule="evenodd"/>
      <path id="Trazado_214544" data-name="Trazado 214544" d="M138.374,339.27h24.021a3.719,3.719,0,0,1,2.536.981,3.165,3.165,0,0,1,0,4.717,3.719,3.719,0,0,1-2.536.98H138.374a3.719,3.719,0,0,1-2.536-.98,3.165,3.165,0,0,1,0-4.717,3.719,3.719,0,0,1,2.536-.981" transform="translate(-35.205 -106.176)" fill="#e74d91" fill-rule="evenodd"/>
      <path id="Trazado_214545" data-name="Trazado 214545" d="M200.389,339.836H169.67a2.958,2.958,0,1,0,0,5.9h30.719Z" transform="translate(-43.489 -106.353)" fill="#fff" fill-rule="evenodd"/>
      <path id="Trazado_214546" data-name="Trazado 214546" d="M200.241,339.27a.39.39,0,1,1,0,.778H169.522a2.852,2.852,0,0,0-1.945.752,2.426,2.426,0,0,0,0,3.617,2.855,2.855,0,0,0,1.945.752h30.719a.39.39,0,1,1,0,.778H169.522a3.716,3.716,0,0,1-2.536-.98,3.165,3.165,0,0,1,0-4.717,3.716,3.716,0,0,1,2.536-.981Z" transform="translate(-43.341 -106.176)" fill="#b92f6d" fill-rule="evenodd"/>
      <path id="Trazado_214547" data-name="Trazado 214547" d="M140.036,342.609a3.215,3.215,0,0,1,1.054-2.359,3.719,3.719,0,0,1,2.536-.98H140.5a3.717,3.717,0,0,0-2.536.98,3.164,3.164,0,0,0,0,4.717,3.716,3.716,0,0,0,2.536.98h3.124a3.718,3.718,0,0,1-2.536-.98,3.216,3.216,0,0,1-1.054-2.359" transform="translate(-35.761 -106.176)" fill="#b92f6d" fill-rule="evenodd"/>
      <path id="Trazado_214548" data-name="Trazado 214548" d="M146.16,342.609a3.218,3.218,0,0,1,1.054-2.359,3.719,3.719,0,0,1,2.536-.98h-3.123a3.719,3.719,0,0,0-2.536.98,3.165,3.165,0,0,0,0,4.717,3.718,3.718,0,0,0,2.536.98h3.123a3.718,3.718,0,0,1-2.536-.98,3.219,3.219,0,0,1-1.054-2.359" transform="translate(-37.361 -106.176)" fill="#b92f6d" fill-rule="evenodd"/>
      <path id="Trazado_214549" data-name="Trazado 214549" d="M390.115,358.183H272.135a3.929,3.929,0,0,1-3.971-3.485h0a3.364,3.364,0,0,1,3.522-3.484H389.667a3.93,3.93,0,0,1,3.971,3.484h0a3.365,3.365,0,0,1-3.523,3.485" transform="translate(-70.042 -109.913)" fill="#a8a6b5" fill-rule="evenodd"/>
      <path id="Trazado_214550" data-name="Trazado 214550" d="M390.361,359.861H272.38a4.109,4.109,0,0,1-3.283-1.643,3.554,3.554,0,0,1,3.07-1.641H390.149a4.116,4.116,0,0,1,3.282,1.641,3.549,3.549,0,0,1-3.07,1.643" transform="translate(-70.288 -111.591)" fill="#96929f" fill-rule="evenodd"/>
      <path id="Trazado_214551" data-name="Trazado 214551" d="M401.579,321.17H307.214a4.384,4.384,0,0,1-4.592-4.559l3.863-56.841a5.163,5.163,0,0,1,5.211-4.559h94.364a4.382,4.382,0,0,1,4.592,4.559l-3.862,56.841a5.165,5.165,0,0,1-5.212,4.559" transform="translate(-79.042 -79.869)" fill="#96929f" fill-rule="evenodd"/>
      <path id="Trazado_214552" data-name="Trazado 214552" d="M402.564,321.17H310.982a4.384,4.384,0,0,1-4.592-4.559l3.862-56.841a5.164,5.164,0,0,1,5.211-4.559h91.582a4.383,4.383,0,0,1,4.592,4.559l-3.862,56.841a5.165,5.165,0,0,1-5.211,4.559" transform="translate(-80.026 -79.869)" fill="#fff" fill-rule="evenodd"/>
      <path id="Trazado_214553" data-name="Trazado 214553" d="M398.862,321.17h-9.424L311.315,263.1l.227-3.333a4.613,4.613,0,0,1,1.119-2.671Zm-75.621-65.959,85.221,63.342a4.482,4.482,0,0,0,.6-1.942l.6-8.839-70.717-52.56Z" transform="translate(-81.315 -79.869)" fill="#f0eef0" fill-rule="evenodd"/>
      <path id="Trazado_214554" data-name="Trazado 214554" d="M293.576,358.183H272.135a3.929,3.929,0,0,1-3.971-3.485h0a3.364,3.364,0,0,1,3.523-3.484h21.441A3.929,3.929,0,0,1,297.1,354.7h0a3.365,3.365,0,0,1-3.523,3.485" transform="translate(-70.042 -109.913)" fill="#fff" fill-rule="evenodd"/>
      <path id="Trazado_214555" data-name="Trazado 214555" d="M399.9,352.162H301.726a1.965,1.965,0,0,1-1.985-1.742h0a1.682,1.682,0,0,1,1.761-1.742h98.174a1.964,1.964,0,0,1,1.986,1.742h0a1.682,1.682,0,0,1-1.761,1.742" transform="translate(-78.291 -109.119)" fill="#d2ced6" fill-rule="evenodd"/>
      <path id="Trazado_214556" data-name="Trazado 214556" d="M268.074,222.323a16.844,16.844,0,0,1,.15-8.4l-15.471-1.215,21.533-8.776a45.911,45.911,0,0,0,6.724-10.336c2.154-5.122-3.687-18.146-5.883-21.377s-6.756-2.748-9.76-1c0,0-4.51-6.32-9.895-6.743s-22.5,1.044-27.47,12.725,3.027,23.354-4.98,35.369a2.81,2.81,0,0,0,.334,2.8c1.039,1.281,13.663,14.962,42.434,9.45,0,0,2.293-.5,2.284-2.495Z" transform="translate(-58.192 -51.453)" fill="#0e1632" fill-rule="evenodd"/>
      <path id="Trazado_214557" data-name="Trazado 214557" d="M247.8,237.915c1.585-16.089,2.7-30.072,2.7-30.072l-1.468-4.534s-13.248,9.957-22.655-.519c.447,7.187,1.551,14.424-3.356,21.788a2.812,2.812,0,0,0,.334,2.8l.042.052.016.018.036.043.038.044.023.027.068.076,0,0,.081.09.024.025.068.072.058.062.044.046.1.1.013.012.121.122.027.027.106.1.073.072.069.066.049.047.1.1.163.152.113.1.085.078c2.753,2.477,9.165,7.057,19.968,8.646l.032,0q1.405.206,2.91.341Z" transform="translate(-58.192 -63.464)" fill="#010518" fill-rule="evenodd"/>
      <path id="Trazado_214558" data-name="Trazado 214558" d="M270.631,241.385c-.984-4.551-.3-6.381,1.076-12.461l-24.62-3.6-10.758,1.939a63.429,63.429,0,0,1-3.752,12.389c6.55,3.771,18.121,7.612,35.77,4.23,0,0,2.293-.5,2.284-2.495Z" transform="translate(-60.749 -70.515)" fill="#010518" fill-rule="evenodd"/>
      <path id="Trazado_214559" data-name="Trazado 214559" d="M228.629,249.831c6.812,1.988,16.126,4.363,24.155,8.034.555.254-.576,2.242-.061,2.508a18.683,18.683,0,0,1,3.523,2.664c3.751,3.449,11.383,30.442,10.7,33.131-1.1,4.326-10.738,16.212-10.738,16.212-1.915,3.439-4.289,8.449-6.62,13.862H201.7c3.336-10.084,4.578-16.914,4.666-23.071,2.557-20.93-9.543-25.483-9.543-25.483l12.532-27.426c4.876-1.606,14.6-1,14.6-1a10.667,10.667,0,0,1,4.676.571" transform="translate(-51.409 -77.972)" fill="#e74d91" fill-rule="evenodd"/>
      <path id="Trazado_214560" data-name="Trazado 214560" d="M259.379,331.34H252.62c1.26-3.134,7.118-17.959,8.372-21.123-5.7-.922-13.538-2.186-14.92-2.493s-6.677,2.507-6.677,2.507l.588-3.2-5.684,5.323,9.719-16.878s15.859,3.33,19.228,3.9,1.315.136,1.941.089c1.874-4.9-1.194-6.273-.83-8.646s.471-25.381.471-25.381c2.05.987,2.975,3.134,4.135,6.519.762,2.228,4.813,16.873,6.488,25.535.4,2.06.714,3.6.915,4.832-3.758,8.909-12.193,17.878-16.987,29.011" transform="translate(-61.199 -83.071)" fill="#b92f6d" fill-rule="evenodd"/>
      <path id="Trazado_214561" data-name="Trazado 214561" d="M252.492,213.343l-2.4,6.7s-3.627,15.808-4.466,17.858c-.291.711-1.25.929-2.725.9,2.122,2.826,6.244,7.137,12.2,8.187a12.319,12.319,0,0,0,8.27-.98c-1.272-.625-2.489-1.367-2.483-1.976.052-5.395,1.048-14.89,4.192-16.645,3.6-2.011-12.59-14.038-12.59-14.038" transform="translate(-63.446 -66.766)" fill="#e8685b" fill-rule="evenodd"/>
      <path id="Trazado_214562" data-name="Trazado 214562" d="M243.306,250.265a16.221,16.221,0,0,1-3.432-.124,25.307,25.307,0,0,0,7.624,6.407c9.393,5.534,13.916,2.519,15.346,1.1a10.549,10.549,0,0,1-2.29-1.367c-8.766,3.984-17.249-6.012-17.249-6.012Z" transform="translate(-62.655 -78.282)" fill="#fff" fill-rule="evenodd"/>
      <path id="Trazado_214563" data-name="Trazado 214563" d="M269.106,261.582s3.746,35.057,3.291,38.018-6.411,17.549-11.631,30.529h8.976c1.774-3.177,3.128-5.657,3.375-6.255.16-.387.78-1.507,1.633-2.976,1.534-2.642,3.826-6.406,5.552-9.042,5.5-8.4,5.488-6.44,3.583-16.282-1.676-8.661-6.821-24.688-7.583-26.916-1.16-3.387-6.224-7.323-7.2-7.076" transform="translate(-68.112 -81.859)" fill="#1c2344" fill-rule="evenodd"/>
      <path id="Trazado_214564" data-name="Trazado 214564" d="M269.871,330.833c-1.234,3.208-2.669,6.86-4.157,10.609a32.172,32.172,0,0,1,5.681.755c2.729,1,3.014,2.134,3.014,2.134.16-.386.78-1.507,1.633-2.976,1.534-2.642,3.825-6.406,5.552-9.042,1.655-2.527,2.81-4.116,3.565-5.371a15.623,15.623,0,0,1-3.57,2.4c-.994.28-8.643,1.148-11.718,1.49" transform="translate(-69.404 -102.318)" fill="#0e1632" fill-rule="evenodd"/>
      <path id="Trazado_214565" data-name="Trazado 214565" d="M226.649,248.835s6.873,30.964,7.815,39.965-2.086,15.443-5.491,22.205c-1.147,2.28-4.828,8.1-9.361,14.987H198.45l2.264-48.639-6.069-1.307c.361-2.444.655-4.467.857-5.885l11.949-19.645s4.5-3.4,19.2-1.679" transform="translate(-50.841 -77.722)" fill="#1c2344" fill-rule="evenodd"/>
      <path id="Trazado_214566" data-name="Trazado 214566" d="M213.784,268.827c-3.376,12.609-1.031,17.839-1.031,17.839l1.808-7.846s1.711,11.581,3.613,13.058c.945.733,12.195,2.739,16.41,3.47a30.785,30.785,0,0,1-2.072,12.972c-3.025.289-21.228-2.095-22.1,3.374-.434,2.727-.336-6.048-.336-6.048L209,331.08h-10.55l2.263-48.639-6.069-1.307.017-.115.017-.113.016-.113.017-.113.016-.111.016-.111.016-.11.016-.111.016-.109.016-.108.016-.108h0l.016-.107.016-.107.016-.105h0l.016-.1.016-.105.015-.1.016-.1.015-.1.015-.1.015-.1h0l.014-.1.015-.1h0l.015-.1.014-.1.014-.1.015-.1h0l.014-.1.013-.095.014-.094.013-.094h0l.014-.093.013-.091h0l.013-.091.013-.091.013-.09h0l.013-.089h0l.013-.088h0l.013-.087.013-.087.013-.086.013-.085.012-.085h0l.013-.083.012-.082h0l.012-.082.012-.081h0l.012-.08.011-.079.012-.08.011-.078h0l.011-.076.011-.077h0l.011-.075.01-.074h0l.01-.074.011-.073.01-.072h0l.01-.07h0l.01-.07h0l.01-.069h0l.01-.068h0l.01-.067h0l.009-.066,6.47-10.638Z" transform="translate(-50.841 -82.81)" fill="#0e1632" fill-rule="evenodd"/>
      <path id="Trazado_214567" data-name="Trazado 214567" d="M196.62,264.752c-3.875,9.845-4.929,43.61-1.736,61.737h17c-6.953-35.982,7.65-61.72,4.442-70.837-5.136-14.6-17.158,2.63-19.705,9.1" transform="translate(-50.411 -78.219)" fill="#383d5d" fill-rule="evenodd"/>
      <path id="Trazado_214568" data-name="Trazado 214568" d="M288.039,219.075l1.9-.772a50.75,50.75,0,0,0,5.512-7.856c-.45.8-3.436,5.653-7.807,2.686-4.751-3.227-4.943,1.884-4.943,1.884s2.874,3.037,4.544,3.746c.216.092.488.2.8.312m7.465-8.733,0,0h0Z" transform="translate(-73.84 -65.826)" fill="#010518" fill-rule="evenodd"/>
      <path id="Trazado_214569" data-name="Trazado 214569" d="M285.087,218.772a5.335,5.335,0,0,0-5.947,4.494,5.145,5.145,0,0,0,4.831,5.531,5.334,5.334,0,0,0,5.948-4.493,5.146,5.146,0,0,0-4.832-5.532" transform="translate(-72.903 -68.457)" fill="#e8685b" fill-rule="evenodd"/>
      <path id="Trazado_214570" data-name="Trazado 214570" d="M234.288,213.577q-.2.009-.4.032h0a5.235,5.235,0,0,0-4.725,4.482,5.147,5.147,0,0,0,4.833,5.532,5.335,5.335,0,0,0,5.948-4.493,4.835,4.835,0,0,0-1.641-4.158c0,1.493-.417,3.308-2.468,3.332l.321-2.89c.131-1.17-1-1.8-1.863-1.837" transform="translate(-59.848 -66.84)" fill="#e8685b" fill-rule="evenodd"/>
      <path id="Trazado_214571" data-name="Trazado 214571" d="M259.847,179.433h0c-10.155-.978-19.323,5.948-20.375,15.391l-1.738,15.6c-1.052,9.443,6.4,17.969,16.551,18.947s19.323-5.947,20.374-15.391l1.738-15.6c1.052-9.443-6.4-17.969-16.55-18.947" transform="translate(-62.07 -56.125)" fill="#f4ad85" fill-rule="evenodd"/>
      <path id="Trazado_214572" data-name="Trazado 214572" d="M239.169,201.736,237.736,214.6c-.881,7.905,4.2,15.167,11.831,17.9-10.8-4.161-5.265-21.623-5.265-21.623,2.188-.347,5.638-4.139,7.644-6.346s3.558-4.433,7.019-4.368,10.775,1.755,10.775,1.755a19.256,19.256,0,0,0,5.948,7.007l.709-6.369a15.973,15.973,0,0,0-.352-5.541c-.448-.245-.907-.492-1.393-.746-14.865-7.773-27.483-1.485-35.484,5.467" transform="translate(-62.07 -60.302)" fill="#ed9072" fill-rule="evenodd"/>
      <path id="Trazado_214573" data-name="Trazado 214573" d="M278.893,197.9l-3,1.186a9.409,9.409,0,0,0-6.053-.906s-6.591-2.253-10.082-1-1.438-3.255-.8-3.452a45.885,45.885,0,0,1,10.142-.071c2.886.516,7.23,1.146,7.23,1.146Z" transform="translate(-67.33 -60.525)" fill="#010518" fill-rule="evenodd"/>
      <path id="Trazado_214574" data-name="Trazado 214574" d="M238.676,212.362l1.779.291s1.235,5.23-2.256,5.271l.321-2.89a1.529,1.529,0,0,0-.036-.554Z" transform="translate(-62.217 -66.459)" fill="#010518" fill-rule="evenodd"/>
      <path id="Trazado_214575" data-name="Trazado 214575" d="M264.267,192.671c-2.713-3.4-7.146-4.1-10.593.681-3.149,4.368-7.826,11.927-15.7,11.31l-.04-.135.019,0,.443-4.877s-.663.161-1.467.337a29.351,29.351,0,0,1-.272-8.741c.912-6.129,10.081-15.082,20.425-15.428s17.826,5.368,19.308,8.626,2.945,10.648,2.945,10.648l-1.82,2.42-1.961,4.811c-4.758-4.3-4.27-8.374-6.337-10.426-1.12-1.11-2.795-1.113-4.954.771" transform="translate(-61.758 -55.019)" fill="#0e1632" fill-rule="evenodd"/>
      <path id="Trazado_214576" data-name="Trazado 214576" d="M252.7,203.547c-3.121,4.392-7.6,10.347-14.62,9.8l-.039-.135.018,0,.443-4.877s-.663.161-1.467.337c-.069-.421-.135-.862-.2-1.318,7.927,2.139,15.834-3.788,15.86-3.806" transform="translate(-61.863 -63.701)" fill="#010518" fill-rule="evenodd"/>
      <path id="Trazado_214577" data-name="Trazado 214577" d="M269.128,259.932s4.83,36.847,4.734,38.043-1.379,6.958-1.379,6.958a23.423,23.423,0,0,0,2.9-6.648c.572-3.013,2.1-23.4,2.1-23.4l-2.573-1.285,2.382-.133-3.933-11.447a3.289,3.289,0,0,0-1.07-1.182c-.62-.333-2.877-1.385-2.912-1.4a1.586,1.586,0,0,0-.883.1s.468.3.632.392" transform="translate(-70.131 -81.185)" fill="#484e6a" fill-rule="evenodd"/>
      <path id="Trazado_214578" data-name="Trazado 214578" d="M235.6,248.859s6.873,30.964,7.815,39.965a29.754,29.754,0,0,1-.6,9.977c1.266-9.207-12.667-30.871-12.667-30.871l3.621-1.6-4.86-2.038s2.24-11.654,2.383-13.6c.139-1.9-.941-2.248-1-2.267,1.6.068,3.362.205,5.305.432" transform="translate(-59.792 -77.746)" fill="#484e6a" fill-rule="evenodd"/>
      <path id="Trazado_214579" data-name="Trazado 214579" d="M43.817,374.636h6.017a4.066,4.066,0,1,0,0-8.11h-15.9a3.227,3.227,0,1,1,0-6.437H453.885a3.227,3.227,0,1,1,0,6.437h-21.8a4.066,4.066,0,1,0,0,8.11h5.109a6.454,6.454,0,1,1,0,12.874H43.817a6.454,6.454,0,1,1,0-12.874M24.586,360.089a3.227,3.227,0,1,1-3.461,3.22,3.347,3.347,0,0,1,3.461-3.22" transform="translate(-5.518 -112.691)" fill="#01020e" fill-rule="evenodd"/>
      <path id="Trazado_214580" data-name="Trazado 214580" d="M329.665,114.535H298.117a5.764,5.764,0,0,0-3.931,1.52,4.987,4.987,0,0,0-1.635,3.656v25.555a1.058,1.058,0,0,0,.2.62,1.183,1.183,0,0,0,.537.409h0a1.27,1.27,0,0,0,.688.067,1.226,1.226,0,0,0,.616-.307l8.187-7.613h26.881a5.762,5.762,0,0,0,3.931-1.52,4.987,4.987,0,0,0,1.635-3.656V119.711a4.986,4.986,0,0,0-1.635-3.656,5.764,5.764,0,0,0-3.931-1.52m-31.548,1.208h31.548a4.418,4.418,0,0,1,3.013,1.166,3.825,3.825,0,0,1,1.254,2.8v13.553a3.823,3.823,0,0,1-1.254,2.8,4.418,4.418,0,0,1-3.013,1.166H302.246l-8.4,7.808V119.711a3.825,3.825,0,0,1,1.254-2.8,4.419,4.419,0,0,1,3.013-1.166" transform="translate(-76.414 -35.844)" fill="#1a293d" fill-rule="evenodd"/>
      <path id="Trazado_214581" data-name="Trazado 214581" d="M331.676,121.589a.331.331,0,1,0,0-.66H299.6a.331.331,0,1,0,0,.66Z" transform="translate(-78.163 -37.845)" fill="#1a293d" fill-rule="evenodd"/>
      <path id="Trazado_214582" data-name="Trazado 214582" d="M331.677,126.28a.331.331,0,1,0,0-.661h-3.4a.331.331,0,1,0,0,.661Zm-7.921,0a.331.331,0,1,0,0-.661H299.6a.331.331,0,1,0,0,.661Z" transform="translate(-78.163 -39.313)" fill="#1a293d" fill-rule="evenodd"/>
      <path id="Trazado_214583" data-name="Trazado 214583" d="M331.676,130.971a.331.331,0,1,0,0-.66H299.6a.331.331,0,1,0,0,.66Z" transform="translate(-78.163 -40.781)" fill="#1a293d" fill-rule="evenodd"/>
      <path id="Trazado_214584" data-name="Trazado 214584" d="M322.758,137.331a.331.331,0,1,0,0-.66H299.6a.331.331,0,1,0,0,.66Z" transform="translate(-78.163 -42.772)" fill="#1a293d" fill-rule="evenodd"/>
      <path id="Trazado_214585" data-name="Trazado 214585" d="M312.419,142.42a.331.331,0,1,0,0-.661H299.6a.331.331,0,1,0,0,.661Z" transform="translate(-78.163 -44.364)" fill="#1a293d" fill-rule="evenodd"/>
      <path id="Trazado_214586" data-name="Trazado 214586" d="M325.268,142.42a.331.331,0,1,0,0-.661h-4.582a.331.331,0,1,0,0,.661Z" transform="translate(-83.67 -44.364)" fill="#1a293d" fill-rule="evenodd"/>
    </g>
  </g>
</svg>
