<svg xmlns="http://www.w3.org/2000/svg" xmlns:xlink="http://www.w3.org/1999/xlink" width="403.929" height="285.729" viewBox="0 0 403.929 285.729">
  <defs>
    <clipPath id="clip-path">
      <rect x="23" width="403.929" height="285.729" fill="none"/>
    </clipPath>
    <clipPath id="clip-path-2">
      <rect id="Rectángulo_43499" data-name="Rectángulo 43499" width="351.172" height="258.525" fill="none"/>
    </clipPath>
    <clipPath id="clip-path-3">
      <rect id="Rectángulo_43500" data-name="Rectángulo 43500" width="387.48" height="296.729" fill="none"/>
    </clipPath>
    <clipPath id="clip-path-4">
      <rect id="Rectángulo_43503" data-name="Rectángulo 43503" width="464.929" height="274.756" fill="none"/>
    </clipPath>
  </defs>
  <g id="Grupo_593156" data-name="Grupo 593156" transform="translate(-1409.071 -4339.192)">
    <g id="Grupo_de_desplazamiento_1" data-name="Grupo de desplazamiento 1" transform="translate(1386.071 4339.192)" clip-path="url(#clip-path)" style="isolation: isolate">
      <g id="Grupo_157783" data-name="Grupo 157783" transform="translate(62.722 38.204)">
        <g id="Grupo_154232" data-name="Grupo 154232" transform="translate(-36.308 -38.204)">
          <g id="Grupo_154231" data-name="Grupo 154231" clip-path="url(#clip-path-3)">
            <path id="Trazado_214589" data-name="Trazado 214589" d="M565.447,75.83c-.735-6.11-.926-10.865-1.17-16.959-.051-1.247-.922-16.515-3.265-14.723-.628.48.53,5.443.634,6.444,1.066,10.152-.313,20.448,1.4,30.53,1.723,10.633.836,22.825.964,33.739.236,20.3,1.143,41.114,1.981,61.42q.7,16.894,1.569,33.78c.583,11.292.274,21.93.409,33.13a29.459,29.459,0,0,0,.212,3.346c3.076.868,4.636,1.417,7.908,1.232.908-3.57-2.084-17.718-2.585-22.7-2.431-24.766-3.019-50.547-4.12-75.474-.563-12.758-1.237-26.23-1.172-38.965C568.3,93.2,575.566,94.846,585.7,83.4c4.406-4.974,6.3-9.215,8.451-15.466.342-.991.109-1.164-.493-1.99C587.172,77.3,581.442,84.9,570.2,92.008c-1.281.811-1.719.632-3.148.294-1.3-5.51-.99-10.881-1.6-16.473" transform="translate(-271.08 -21.248)" fill="#317772" fill-rule="evenodd"/>
            <path id="Trazado_214590" data-name="Trazado 214590" d="M533.294,212.862c.763.494,3.381,3.062,2.575.651-1.449-2.9-7.858-4.609-10.961-7.491-4.748-4.41-6.861-6.816-13.964-4.261-9.5,3.418-14.532,19.1-15.9,28.21-.6,3.989-1.077,10.036,4.774,8.459,6.176-1.664,5.368-.9,11.063.969,5.513,1.805,9.709-3.18,12.966-7.039,3.976-4.712,7.938-10.947,6.53-17.384-.83-3.79-.907-4.473,2.918-2.115" transform="translate(-239.12 -96.923)" fill="#549e9a" fill-rule="evenodd"/>
            <path id="Trazado_214591" data-name="Trazado 214591" d="M515.8,237.123a.517.517,0,0,0,.436-.239c9.384-14.729,20.939-17.35,24.761-15.436a.517.517,0,0,0,.462-.925c-4.237-2.12-16.24.339-26.094,15.805a.517.517,0,0,0,.435.8" transform="translate(-249.066 -106.17)" fill="#317772"/>
            <path id="Trazado_214592" data-name="Trazado 214592" d="M606.436,211.129c.615,2.9,2.469,11.683-1.89,12.468-4.213.758-9.627-1.527-12.884-4.159-5.482-4.429-5.351-4.739-11.884-8.042-5.227-2.643-6.059-6.111-7.33-11.347-.984.382-.869.51-1.383-.386,4.674-6.9,5.118-12.381,15.393-10.709,10.217,1.663,17.814,12.7,19.978,22.176" transform="translate(-276.03 -91.096)" fill="#549e9a" fill-rule="evenodd"/>
            <path id="Trazado_214593" data-name="Trazado 214593" d="M595.05,215.787a.517.517,0,0,0,.407-.836c-8.51-10.9-22.232-6.222-22.37-6.174a.517.517,0,0,0,.344.975c.13-.046,13.165-4.476,21.211,5.836a.517.517,0,0,0,.408.2" transform="translate(-276.84 -100.313)" fill="#317772"/>
            <path id="Trazado_214594" data-name="Trazado 214594" d="M525.575,162.224c.77.561,2.1,1.81,3.135,1.262.617-.325-4.588-4.135-4.2-4.826.37-.655,1.991-1.261,2.907-4.075,1.39-4.779,1.657-11.348-1.542-15.446-4.879-6.117-9.532-8.806-17.258-10.25-7.783-1.455-13.57.289-19.7,5.172-3.427,2.814-6.172,7.555-6.285,12.061-.063,2.481,1.461.352,4.463-.039,6.876-.684,12.335,2.217,16,8.012,3.6,5.7,5.186,7.206,12.274,7.652a16.766,16.766,0,0,0,7.084-.838c1.437-.507,1.942.4,3.126,1.315" transform="translate(-233.283 -61.998)" fill="#59aaa2" fill-rule="evenodd"/>
            <path id="Trazado_214595" data-name="Trazado 214595" d="M535.366,167.988a.517.517,0,0,0,.372-.876,21.222,21.222,0,0,1-2.414-3.667c-3.63-6.279-9.706-16.788-27.7-17.167a.517.517,0,0,0-.022,1.034c17.408.368,23.3,10.561,26.822,16.651a21.276,21.276,0,0,0,2.565,3.867.517.517,0,0,0,.372.158" transform="translate(-244.145 -70.635)" fill="#317772"/>
            <path id="Trazado_214596" data-name="Trazado 214596" d="M621.74,150.4c-1.411-2.116-.709-5.46-4.3-9.872-3.955-4.86-9.68-6.242-12.016-9.277-2.568-3.336-1.361-8.674,1-11.76,1.43-1.867,2.312-2.476,3.2-4.794-.92-.745-1.853-1.452-2.793-2.168,4.927-.387,2.119,2.536,9.643,1.494,6.7-.928,9.549.671,12.5,6.993,3.653,7.826,2.915,21.349-3.964,27.511-.586.526-2.508,2.282-3.276,1.873" transform="translate(-291.943 -54.322)" fill="#549e9a" fill-rule="evenodd"/>
            <path id="Trazado_214597" data-name="Trazado 214597" d="M628.737,135.141a.524.524,0,0,0,.143-.02.517.517,0,0,0,.354-.64,30.781,30.781,0,0,0-14.589-18.676.517.517,0,0,0-.441.935,29.717,29.717,0,0,1,14.037,18.025.517.517,0,0,0,.5.375" transform="translate(-296.738 -55.897)" fill="#317772"/>
            <path id="Trazado_214598" data-name="Trazado 214598" d="M607.39,71.19c-1.9,3.9-1.125-1.511-2.806-4.674-3.071-5.778-5.843-5.451-5.257-12.9.488-6.208,2.657-8.343,6.886-12.654s9.617-10.3,16.464-9.218c3.159.5,1.662,3.263,1.574,6.1-.31,9.9,1.589,17.266-6.875,24.7-3.467,3.048-7.841,4.2-9.986,8.636" transform="translate(-289.652 -15.268)" fill="#59aaa2" fill-rule="evenodd"/>
            <path id="Trazado_214599" data-name="Trazado 214599" d="M610.6,82.075a.524.524,0,0,0,.085-.007.518.518,0,0,0,.426-.594c-.016-.093-1.445-9.466,5.358-23.159a.517.517,0,1,0-.925-.46c-6.965,14.02-5.517,23.4-5.452,23.788a.517.517,0,0,0,.509.432" transform="translate(-294.814 -27.798)" fill="#317772"/>
            <path id="Trazado_214600" data-name="Trazado 214600" d="M624.924,96.55c2.983-2.472,5.946-5.723,10.192-5.55,5,.2,4.747,8.439-1.941,8.159-4.435-.186-5.333-1.653-10.551-.7-1.18.216,1.227-1.08,1.718-1.46Z" transform="translate(-300.795 -43.939)" fill="#59aaa2" fill-rule="evenodd"/>
            <path id="Trazado_214601" data-name="Trazado 214601" d="M626.332,100.651a.513.513,0,0,0,.218-.049,25.613,25.613,0,0,1,7.5-1.621.517.517,0,0,0-.1-1.029,25.951,25.951,0,0,0-7.841,1.713.517.517,0,0,0,.221.985" transform="translate(-302.493 -47.298)" fill="#317772"/>
            <path id="Trazado_214602" data-name="Trazado 214602" d="M536.1,76.565c-7.191-5.7-4.952-2.736-12.249-3.79-6.806-.983-13.11-11.617-12.487-18.125.633-6.624,1.138-3.691,4.884-3.6,7.475.185,10.127-1.49,16.686,3.876,4.63,3.785,7.791,10.23,6.325,16.231-.95,3.892-.557,2.29-.441,6.011.071,2.256-1.839.095-2.718-.6" transform="translate(-247.154 -24.301)" fill="#59aaa2" fill-rule="evenodd"/>
            <path id="Trazado_214603" data-name="Trazado 214603" d="M549.336,80.528a.524.524,0,0,0,.186-.035.518.518,0,0,0,.3-.669c-.042-.109-4.328-10.914-16.112-14.753a.517.517,0,0,0-.32.984A26.356,26.356,0,0,1,548.854,80.2a.518.518,0,0,0,.483.331" transform="translate(-257.644 -31.41)" fill="#317772"/>
            <path id="Trazado_214604" data-name="Trazado 214604" d="M546.214,30.909c1.018.33,1.341-1.765,1.617-2.659,1.255-4.084,2.218-10.731-3.549-11.585-3.549-.526-4.846-.018-8.584-1.395-2.161-.8-4.4-1.489-6.469-.017-1.678,1.191,1.141,1.781,2.521,4.164,2.588,4.468,1.593,5.654,7.34,8.123,3.065,1.317,4.193,1.284,7.124,3.367" transform="translate(-255.557 -6.949)" fill="#59aaa2" fill-rule="evenodd"/>
            <path id="Trazado_214605" data-name="Trazado 214605" d="M557.78,36.692a.474.474,0,0,0,.1-.009.516.516,0,0,0,.411-.6c-.013-.072-1.441-7.23-7.892-7.4a.51.51,0,0,0-.53.5.517.517,0,0,0,.5.531c5.627.145,6.891,6.491,6.9,6.555a.516.516,0,0,0,.507.421" transform="translate(-265.783 -13.849)" fill="#317772"/>
            <path id="Trazado_214606" data-name="Trazado 214606" d="M579,25.807c.8,1.544-.262.261-1.967,2.066C571.944,33.26,572.1,34.6,564.5,37.254c-2.774.97-2.695,1.169-1.936-2.618,1.165-5.814,2.952-12.1,10.006-12.5,3.214-.184,4.791,1.062,6.428,3.676" transform="translate(-271.702 -10.678)" fill="#63bab3" fill-rule="evenodd"/>
            <path id="Trazado_214607" data-name="Trazado 214607" d="M562.142,40.689a.518.518,0,0,0,.491-.357c.021-.064,2.13-6.407,6.548-8.786a.517.517,0,1,0-.489-.911c-4.787,2.577-6.951,9.1-7.041,9.376a.517.517,0,0,0,.331.652.528.528,0,0,0,.16.025" transform="translate(-271.467 -14.764)" fill="#317772"/>
            <path id="Trazado_214609" data-name="Trazado 214609" d="M591.926,408.926c-.3-4.6-2.783-30.067-9.568-28.848-4.769.856-11.324,24.637-7.477,30.453,2.459,3.718,16.765,10.415,17.078-.137Z" transform="translate(-277.313 -183.512)" fill="#549e9a" fill-rule="evenodd"/>
            <path id="Trazado_214612" data-name="Trazado 214612" d="M153.223,75.83c.735-6.11.926-10.865,1.17-16.959.051-1.247.922-16.515,3.265-14.723.628.48-.53,5.443-.634,6.444-1.066,10.152.313,20.448-1.4,30.53-1.723,10.633-.836,22.825-.964,33.739-.236,20.3-1.143,41.114-1.981,61.42q-.7,16.894-1.569,33.78c-.584,11.292-.274,21.93-.41,33.13a29.358,29.358,0,0,1-.212,3.346c-3.076.868-4.636,1.417-7.908,1.232-.908-3.57,2.084-17.718,2.585-22.7,2.432-24.766,3.019-50.547,4.12-75.474.563-12.758,1.237-26.23,1.172-38.965C150.368,93.2,143.1,94.846,132.965,83.4c-4.406-4.974-6.3-9.215-8.451-15.466-.342-.991-.11-1.164.493-1.99C131.5,77.3,137.227,84.9,148.471,92.008c1.281.811,1.719.632,3.148.294,1.3-5.51.99-10.881,1.6-16.473" transform="translate(-60.109 -21.248)" fill="#317772" fill-rule="evenodd"/>
            <path id="Trazado_214613" data-name="Trazado 214613" d="M178.05,212.862c-.763.494-3.381,3.062-2.575.651,1.449-2.9,7.858-4.609,10.961-7.491,4.748-4.41,6.861-6.816,13.964-4.261,9.5,3.418,14.532,19.1,15.9,28.21.6,3.989,1.077,10.036-4.774,8.459-6.176-1.664-5.368-.9-11.063.969-5.513,1.805-9.709-3.18-12.966-7.039-3.976-4.712-7.938-10.947-6.53-17.384.83-3.79.907-4.473-2.917-2.115" transform="translate(-84.744 -96.923)" fill="#549e9a" fill-rule="evenodd"/>
            <path id="Trazado_214614" data-name="Trazado 214614" d="M209.445,237.123a.516.516,0,0,1-.436-.239c-9.385-14.729-20.939-17.35-24.761-15.436a.517.517,0,0,1-.462-.925c4.237-2.12,16.24.339,26.095,15.805a.517.517,0,0,1-.435.8" transform="translate(-88.696 -106.17)" fill="#317772"/>
            <path id="Trazado_214615" data-name="Trazado 214615" d="M109.61,211.129c-.615,2.9-2.469,11.683,1.89,12.468,4.213.758,9.627-1.527,12.884-4.159,5.482-4.429,5.351-4.739,11.884-8.042,5.227-2.643,6.059-6.111,7.33-11.347.984.382.87.51,1.383-.386-4.674-6.9-5.118-12.381-15.393-10.709-10.217,1.663-17.814,12.7-19.978,22.176" transform="translate(-52.536 -91.096)" fill="#549e9a" fill-rule="evenodd"/>
            <path id="Trazado_214616" data-name="Trazado 214616" d="M133.6,215.787a.517.517,0,0,1-.407-.836c8.51-10.9,22.232-6.222,22.37-6.174a.517.517,0,0,1-.344.975c-.13-.046-13.165-4.476-21.212,5.836a.515.515,0,0,1-.407.2" transform="translate(-64.326 -100.313)" fill="#317772"/>
            <path id="Trazado_214617" data-name="Trazado 214617" d="M181.263,162.224c-.77.561-2.1,1.81-3.135,1.262-.617-.325,4.588-4.135,4.2-4.826-.37-.655-1.991-1.261-2.907-4.075-1.39-4.779-1.657-11.348,1.542-15.446,4.879-6.117,9.532-8.806,17.258-10.25,7.783-1.455,13.57.289,19.7,5.172,3.427,2.814,6.172,7.555,6.285,12.061.063,2.481-1.461.352-4.463-.039-6.876-.684-12.335,2.217-16,8.012-3.6,5.7-5.187,7.206-12.274,7.652a16.766,16.766,0,0,1-7.084-.838c-1.437-.507-1.942.4-3.126,1.315" transform="translate(-86.075 -61.998)" fill="#59aaa2" fill-rule="evenodd"/>
            <path id="Trazado_214618" data-name="Trazado 214618" d="M185.836,167.988a.517.517,0,0,1-.372-.876,21.225,21.225,0,0,0,2.414-3.667c3.63-6.279,9.706-16.788,27.7-17.167a.517.517,0,0,1,.022,1.034c-17.408.368-23.3,10.561-26.822,16.651a21.28,21.28,0,0,1-2.565,3.867.517.517,0,0,1-.372.158" transform="translate(-89.576 -70.635)" fill="#317772"/>
            <path id="Trazado_214619" data-name="Trazado 214619" d="M102.85,150.4c1.41-2.116.709-5.46,4.3-9.872,3.955-4.86,9.68-6.242,12.016-9.277,2.568-3.336,1.361-8.674-1-11.76-1.43-1.867-2.312-2.476-3.2-4.794.92-.745,1.852-1.452,2.792-2.168-4.927-.387-2.119,2.536-9.642,1.494-6.7-.928-9.549.671-12.5,6.993-3.653,7.826-2.915,21.349,3.964,27.511.586.526,2.508,2.282,3.277,1.873" transform="translate(-45.166 -54.322)" fill="#549e9a" fill-rule="evenodd"/>
            <path id="Trazado_214620" data-name="Trazado 214620" d="M106.905,135.141a.524.524,0,0,1-.143-.02.517.517,0,0,1-.354-.64A30.781,30.781,0,0,1,121,115.806a.517.517,0,0,1,.441.935A29.718,29.718,0,0,0,107.4,134.766a.517.517,0,0,1-.5.375" transform="translate(-51.424 -55.897)" fill="#317772"/>
            <path id="Trazado_214621" data-name="Trazado 214621" d="M118.814,71.19c1.9,3.9,1.124-1.511,2.806-4.674,3.071-5.778,5.843-5.451,5.257-12.9-.488-6.208-2.657-8.343-6.886-12.654s-9.617-10.3-16.464-9.218c-3.159.5-1.662,3.263-1.574,6.1.31,9.9-1.589,17.266,6.875,24.7,3.467,3.048,7.841,4.2,9.986,8.636" transform="translate(-49.071 -15.268)" fill="#59aaa2" fill-rule="evenodd"/>
            <path id="Trazado_214622" data-name="Trazado 214622" d="M133.223,82.075a.524.524,0,0,1-.085-.007.518.518,0,0,1-.426-.594c.015-.093,1.445-9.466-5.358-23.159a.517.517,0,1,1,.925-.46c6.965,14.02,5.517,23.4,5.452,23.788a.517.517,0,0,1-.509.432" transform="translate(-61.532 -27.798)" fill="#317772"/>
            <path id="Trazado_214623" data-name="Trazado 214623" d="M109.86,96.55c-2.983-2.472-5.946-5.723-10.192-5.55-5,.2-4.747,8.439,1.941,8.159,4.435-.186,5.333-1.653,10.551-.7,1.18.216-1.227-1.08-1.718-1.46Z" transform="translate(-46.508 -43.939)" fill="#59aaa2" fill-rule="evenodd"/>
            <path id="Trazado_214624" data-name="Trazado 214624" d="M115.524,100.651a.514.514,0,0,1-.218-.049,25.612,25.612,0,0,0-7.5-1.621.517.517,0,0,1,.1-1.029,25.948,25.948,0,0,1,7.841,1.713.517.517,0,0,1-.221.985" transform="translate(-51.882 -47.298)" fill="#317772"/>
            <path id="Trazado_214625" data-name="Trazado 214625" d="M187.418,76.565c7.191-5.7,4.952-2.736,12.249-3.79,6.806-.983,13.11-11.617,12.487-18.125-.633-6.624-1.138-3.691-4.884-3.6-7.475.185-10.127-1.49-16.686,3.876-4.63,3.785-7.791,10.23-6.325,16.231.95,3.892.557,2.29.441,6.011-.071,2.256,1.839.095,2.718-.6" transform="translate(-88.888 -24.301)" fill="#59aaa2" fill-rule="evenodd"/>
            <path id="Trazado_214626" data-name="Trazado 214626" d="M184.924,80.528a.517.517,0,0,1-.483-.7c.042-.109,4.327-10.914,16.112-14.753a.517.517,0,0,1,.32.984A26.356,26.356,0,0,0,185.405,80.2a.516.516,0,0,1-.482.331" transform="translate(-89.135 -31.41)" fill="#317772"/>
            <path id="Trazado_214627" data-name="Trazado 214627" d="M185,30.909c-1.018.33-1.341-1.765-1.617-2.659-1.255-4.084-2.218-10.731,3.549-11.585,3.549-.526,4.846-.018,8.585-1.395,2.162-.8,4.4-1.489,6.469-.017,1.678,1.191-1.141,1.781-2.521,4.164-2.588,4.468-1.593,5.654-7.34,8.123-3.065,1.317-4.193,1.284-7.124,3.367" transform="translate(-88.181 -6.949)" fill="#59aaa2" fill-rule="evenodd"/>
            <path id="Trazado_214628" data-name="Trazado 214628" d="M184.332,36.692a.473.473,0,0,1-.1-.009.516.516,0,0,1-.411-.6c.013-.072,1.441-7.23,7.892-7.4a.51.51,0,0,1,.53.5.517.517,0,0,1-.5.531c-5.627.145-6.891,6.491-6.9,6.555a.516.516,0,0,1-.507.421" transform="translate(-88.849 -13.849)" fill="#317772"/>
            <path id="Trazado_214629" data-name="Trazado 214629" d="M154.944,25.807c-.8,1.544.262.261,1.967,2.066,5.089,5.387,4.931,6.724,12.532,9.381,2.774.97,2.695,1.169,1.936-2.618-1.165-5.814-2.951-12.1-10.006-12.5-3.215-.184-4.791,1.062-6.428,3.676" transform="translate(-74.762 -10.678)" fill="#63bab3" fill-rule="evenodd"/>
            <path id="Trazado_214630" data-name="Trazado 214630" d="M180.533,40.689a.517.517,0,0,1-.491-.357c-.021-.064-2.13-6.407-6.548-8.786a.517.517,0,0,1,.49-.911c4.787,2.577,6.951,9.1,7.041,9.376a.517.517,0,0,1-.331.652.528.528,0,0,1-.16.025" transform="translate(-83.728 -14.764)" fill="#317772"/>
          </g>
        </g>
        <g id="Grupo_154234" data-name="Grupo 154234" transform="translate(-62.722 -28.044)">
          <g id="Grupo_154233" data-name="Grupo 154233" transform="translate(0 0)" clip-path="url(#clip-path-4)">
            <path id="Trazado_214635" data-name="Trazado 214635" d="M144.669,182c7.677,8.153,7.208,18.493-1.137,26.807s-17.408,11.154-16.227,18.94,11.538,7.142,15.756,15.729-5.965,25.395-25.8,19.746-29.824-26.4-23.765-42.267,17.3-18.342,19.933-30.879,12.875-13.987,20.337-12.537,10.9,4.461,10.9,4.461" transform="translate(-34.7 -79.849)" fill="#47477f"/>
            <path id="Trazado_214636" data-name="Trazado 214636" d="M119.832,243.937l-1.314,6.141-1.63,7.641-8.9,4.206-7.845-12.831,10.906-15.6.824-1.182a20.284,20.284,0,0,0,7.962,11.622" transform="translate(-37.894 -104.718)" fill="#ffc795"/>
            <path id="Trazado_214637" data-name="Trazado 214637" d="M126.319,243.937l-1.314,6.141a8.023,8.023,0,0,1-5.521-3.766c-2.621-3.843-2.541-8.994-1.952-12.815l.824-1.182a20.284,20.284,0,0,0,7.962,11.622" transform="translate(-44.381 -104.718)" fill="#eea87e"/>
            <path id="Trazado_214638" data-name="Trazado 214638" d="M88.507,237.829a27.783,27.783,0,0,0-8.979,12.805c-2.967,8.554.323,17.529,6.114,25.511S80.156,300.22,61.526,297.9s-31.01-19.7-16.771-29.385S56,252.569,56,252.569s-2.159-9.243,10.67-13.273,21.833-1.467,21.833-1.467" transform="translate(-14.478 -106.839)" fill="#47477f"/>
            <path id="Trazado_214639" data-name="Trazado 214639" d="M625.8,234.84l-1.53-1.655c-1.345,5.7-4.146,10.539-7.361,13.183a.034.034,0,0,1-.019.011l1.791,4.744.609,1.613.221.583,3.124,8.271,15.076.379,3.309-10.654Z" transform="translate(-234.442 -105.11)" fill="#ffc795"/>
            <path id="Trazado_214640" data-name="Trazado 214640" d="M622.69,248.93a12.113,12.113,0,0,1-4.009,2.193l-1.791-4.744a.034.034,0,0,0,.019-.011c3.216-2.644,6.017-7.488,7.361-13.183l1.53,1.655c.737,4.761.787,11.039-3.111,14.09" transform="translate(-234.442 -105.11)" fill="#eea87e"/>
            <path id="Trazado_214641" data-name="Trazado 214641" d="M606.99,211.128a29.4,29.4,0,0,0-1.067-17.447c-4.7-11.927-23.364-12.541-31.174-2.21s-.524,28.707,9.534,33.763c0,0,9.045,4.234,15.328-.91l.017-.013c3.218-2.645,6.02-7.488,7.361-13.182" transform="translate(-217.164 -83.052)" fill="#ffc795"/>
            <path id="Trazado_214642" data-name="Trazado 214642" d="M588.608,219.3a5.036,5.036,0,0,1,2.867-4.4,4.687,4.687,0,0,1,4.029-.06.658.658,0,0,1,.258,1.036l0,0a.839.839,0,0,1-.942.22,4.042,4.042,0,0,0-2.922.14,5.973,5.973,0,0,0-3.288,3.068" transform="translate(-223.685 -96.658)" fill="#944c38"/>
            <path id="Trazado_214643" data-name="Trazado 214643" d="M578.191,226.163s-1.952-1.911-3.726-1.034a2.264,2.264,0,0,0-1.436,1.907.729.729,0,0,0,.338.644.9.9,0,0,0,1.324-.337,1.991,1.991,0,0,1,.812-.937,3.341,3.341,0,0,1,2.689-.244" transform="translate(-217.759 -101.379)" fill="#944c38"/>
            <path id="Trazado_214644" data-name="Trazado 214644" d="M594.069,246.783a2.455,2.455,0,0,1-1.39-.391,2.482,2.482,0,0,1-1.007-1.553.282.282,0,0,1,.263-.31.309.309,0,0,1,.351.233,1.773,1.773,0,0,0,2.156,1.447c1.983-.253,2.415-1.342,2.419-1.353a.323.323,0,0,1,.392-.174.27.27,0,0,1,.2.348c-.022.058-.562,1.423-2.919,1.723a3.722,3.722,0,0,1-.46.03" transform="translate(-224.849 -110.216)" fill="#e69468"/>
            <path id="Trazado_214645" data-name="Trazado 214645" d="M600.41,246.3a.307.307,0,0,1-.3-.2.271.271,0,0,1,.212-.339,8.012,8.012,0,0,0,3.311-2.324,10.8,10.8,0,0,0,2.232-3.03.321.321,0,0,1,.389-.178.27.27,0,0,1,.2.344,10.9,10.9,0,0,1-2.347,3.216,8.4,8.4,0,0,1-3.616,2.5.351.351,0,0,1-.085.01" transform="translate(-228.056 -108.275)" fill="#e69468"/>
            <path id="Trazado_214646" data-name="Trazado 214646" d="M605.487,248.694a.322.322,0,0,1-.258-.122.256.256,0,0,1,.085-.381,14.979,14.979,0,0,0,2.064-1.6,10.073,10.073,0,0,0,1.836-2.19.33.33,0,0,1,.416-.122.261.261,0,0,1,.136.369,10.405,10.405,0,0,1-1.947,2.327,15.115,15.115,0,0,1-2.161,1.673.337.337,0,0,1-.172.046" transform="translate(-229.987 -110.091)" fill="#eea87e"/>
            <path id="Trazado_214647" data-name="Trazado 214647" d="M597.906,229.756a1.807,1.807,0,1,1-1.795-1.592,1.7,1.7,0,0,1,1.795,1.592" transform="translate(-225.857 -102.849)" fill="#3a505b"/>
            <path id="Trazado_214648" data-name="Trazado 214648" d="M585.3,236.062a1.807,1.807,0,1,1-1.794-1.592,1.7,1.7,0,0,1,1.794,1.592" transform="translate(-221.06 -105.688)" fill="#3a505b"/>
            <path id="Trazado_214649" data-name="Trazado 214649" d="M589.233,199.18a17.023,17.023,0,0,1-6.489-3.583,9.6,9.6,0,0,1-2.915-5.5s-2.243,4.839-9.963,2.881-6.832,6.416-12.394,8.482-15.176-1.552-14.689-10.155,6.125-9.473,12.866-9.092,10.024-9.18,19.23-10.679,12.687,3.358,12.687,3.358,8.355-.969,10.894,9.456-2.135,21.218-2.135,21.218a3.569,3.569,0,0,1-2.2-.864c-1.333-.958-1.335-1.894-1.335-1.894a5.384,5.384,0,0,0,2.392-6.513c-1.409-4.513-4.559-3.223-5.651-1.231a5.379,5.379,0,0,0-.294,4.113" transform="translate(-206.249 -77.223)" fill="#944c38"/>
            <path id="Trazado_214650" data-name="Trazado 214650" d="M644.294,406.949H612.1a41.571,41.571,0,0,1,2.083,12.89c0,13.887-7.1,26.932-19.547,38.264h49.655c7.25-15.443,4.4-33.128,0-51.154" transform="translate(-225.979 -183.348)" fill="#004059" fill-rule="evenodd"/>
            <path id="Trazado_214651" data-name="Trazado 214651" d="M646.494,298.119h0c-.1-4.753-.259-9.469-.418-14.087l-.055-1.438c-.449-10.53-3.4-20.811-15.3-25.4-7.639-2.947-13.615,1.071-18.691,5.868-8,8.705-9.165,24.937-10.364,36.042-.374,3.457-.63,7.165-.82,10.9h0L595.8,369s5.429,2.582,24.163,2.582,29.877-4.22,29.877-4.22Z" transform="translate(-226.419 -115.468)" fill="#f2f9ff" fill-rule="evenodd"/>
            <path id="Trazado_214652" data-name="Trazado 214652" d="M112.613,340.394c-3.714,2.124-10.495,3.744-14.879,4.4-5.795.446-10.675-.765-16.1-2.4l-1.783-.6a48.846,48.846,0,0,1-6.15-2.731c-1.749-.94-1.4-5.45-1.592-7.555-1.389-15.415-.888-32-.354-47.482l.055-1.438c.449-10.53,3.4-20.811,15.3-25.4,7.639-2.947,13.615,1.071,18.691,5.869,8,8.705,9.165,24.936,10.364,36.041.833,7.715,1.1,16.661,1.293,24.463.146,5.933.037,12.352-4.847,16.828" transform="translate(-26.889 -115.467)" fill="#4b75ba" fill-rule="evenodd"/>
            <path id="Trazado_214653" data-name="Trazado 214653" d="M72.507,406.949h32.06a41.572,41.572,0,0,0-2.083,12.89c0,13.887,7.1,26.932,19.547,38.264H72.507c-7.251-15.443-4.4-33.128,0-51.154" transform="translate(-25.698 -183.348)" fill="#47477f" fill-rule="evenodd"/>
            <path id="Trazado_214654" data-name="Trazado 214654" d="M279.31,444.665c85.76,0,155.7-35.417,155.7-78.843s-69.945-78.842-155.7-78.842-155.7,35.417-155.7,78.842,69.946,78.843,155.7,78.843" transform="translate(-46.82 -129.331)" fill="#d18469" fill-rule="evenodd"/>
            <path id="Trazado_214764" data-name="Trazado 214764" d="M0,0,42.411,1.694l2.138,49.119L2.138,49.119Z" transform="translate(296.114 191.715) rotate(-22.095)" fill="#e3f1ff"/>
            <path id="Trazado_214655" data-name="Trazado 214655" d="M518.359,396.291a.649.649,0,0,1-.807-.3l-10.983-24a.53.53,0,0,1,.341-.716.648.648,0,0,1,.807.3l10.983,24a.531.531,0,0,1-.341.716" transform="translate(-192.463 -167.265)" fill="#4c627a"/>
            <path id="Trazado_214656" data-name="Trazado 214656" d="M511.632,404.727a.649.649,0,0,1-.807-.3l-8.185-17.889a.53.53,0,0,1,.341-.716.648.648,0,0,1,.807.3l8.186,17.889a.53.53,0,0,1-.341.716" transform="translate(-190.969 -173.816)" fill="#4c627a"/>
            <path id="Trazado_214657" data-name="Trazado 214657" d="M532.949,382.74a.649.649,0,0,1-.807-.3l-14.724-32.179a.53.53,0,0,1,.341-.716.649.649,0,0,1,.807.3l14.724,32.179a.53.53,0,0,1-.341.716" transform="translate(-196.59 -157.482)" fill="#4c627a"/>
            <path id="Trazado_214658" data-name="Trazado 214658" d="M525.4,388.785a.649.649,0,0,1-.807-.3L511.333,359.5a.531.531,0,0,1,.341-.716.649.649,0,0,1,.807.3l13.262,28.984a.53.53,0,0,1-.341.716" transform="translate(-194.276 -161.642)" fill="#4c627a"/>
            <path id="Trazado_214659" data-name="Trazado 214659" d="M552.776,384.452a.649.649,0,0,1-.807-.3l-9.937-21.718a.53.53,0,0,1,.341-.716.649.649,0,0,1,.807.3l9.937,21.717a.53.53,0,0,1-.341.716" transform="translate(-205.952 -162.963)" fill="#4c627a"/>
            <path id="Trazado_214660" data-name="Trazado 214660" d="M541.393,379.312a.649.649,0,0,1-.807-.3L525.862,346.83a.53.53,0,0,1,.341-.716.649.649,0,0,1,.807.3L541.734,378.6a.531.531,0,0,1-.341.716" transform="translate(-199.802 -155.938)" fill="#4c627a"/>
            <rect id="Rectángulo_43502" data-name="Rectángulo 43502" width="43.098" height="51.604" transform="translate(123.493 181.785)" fill="#e3f1ff"/>
            <path id="Trazado_214661" data-name="Trazado 214661" d="M259.057,380a.588.588,0,0,1-.62-.55V356.469a.624.624,0,0,1,1.239,0v22.979a.588.588,0,0,1-.62.55" transform="translate(-98.103 -160.371)" fill="#4c627a"/>
            <path id="Trazado_214662" data-name="Trazado 214662" d="M239.672,381.537a.588.588,0,0,1-.62-.55V341a.624.624,0,0,1,1.239,0v39.99a.588.588,0,0,1-.62.55" transform="translate(-90.73 -153.405)" fill="#4c627a"/>
            <path id="Trazado_214663" data-name="Trazado 214663" d="M248.623,381.537a.588.588,0,0,1-.62-.55V341a.624.624,0,0,1,1.239,0v39.99a.588.588,0,0,1-.62.55" transform="translate(-94.134 -153.405)" fill="#4c627a"/>
            <path id="Trazado_214664" data-name="Trazado 214664" d="M221.77,381.537a.588.588,0,0,1-.62-.55V341a.624.624,0,0,1,1.239,0v39.99a.588.588,0,0,1-.62.55" transform="translate(-83.921 -153.405)" fill="#4c627a"/>
            <path id="Trazado_214665" data-name="Trazado 214665" d="M230.721,381.537a.588.588,0,0,1-.62-.55V341a.624.624,0,0,1,1.239,0v39.99a.588.588,0,0,1-.62.55" transform="translate(-87.325 -153.405)" fill="#4c627a"/>
            <path id="Trazado_214666" data-name="Trazado 214666" d="M281.6,343.834h109.42c4.473,0,8.133,3.246,8.133,7.215v34.162c0,3.969-3.66,7.215-8.133,7.215H281.6c-4.473,0-8.132-3.247-8.132-7.215V351.049c0-3.969,3.659-7.215,8.132-7.215m0,3.7a3.77,3.77,0,0,0-3.963,3.516v27.4a3.772,3.772,0,0,0,3.963,3.516h109.42a3.774,3.774,0,0,0,3.963-3.516v-27.4a3.772,3.772,0,0,0-3.963-3.516Z" transform="translate(-103.821 -154.93)" fill="#c1d4e8" fill-rule="evenodd"/>
            <path id="Trazado_214667" data-name="Trazado 214667" d="M284.161,350.561H393.58a3.772,3.772,0,0,1,3.963,3.516v27.4A3.773,3.773,0,0,1,393.58,385H284.161a3.772,3.772,0,0,1-3.963-3.516v-27.4a3.77,3.77,0,0,1,3.963-3.516" transform="translate(-106.38 -157.959)" fill="#8fa9c4" fill-rule="evenodd"/>
            <path id="Trazado_214668" data-name="Trazado 214668" d="M348.329,408.767a.33.33,0,0,1-.348-.309v-5.484a.351.351,0,0,1,.7,0v5.484a.33.33,0,0,1-.348.309" transform="translate(-132.162 -181.419)" fill="#fff"/>
            <path id="Trazado_214669" data-name="Trazado 214669" d="M401.014,408.767a.33.33,0,0,1-.348-.309v-5.484a.351.351,0,0,1,.7,0v5.484a.33.33,0,0,1-.348.309" transform="translate(-152.201 -181.419)" fill="#fff"/>
            <path id="Trazado_214670" data-name="Trazado 214670" d="M394.949,359.383H289.939a.311.311,0,1,1,0-.618H394.949a.311.311,0,1,1,0,.618" transform="translate(-109.953 -161.653)" fill="#fff"/>
            <path id="Trazado_214671" data-name="Trazado 214671" d="M394.949,368.164H289.939a.311.311,0,1,1,0-.618H394.949a.311.311,0,1,1,0,.618" transform="translate(-109.953 -165.606)" fill="#fff"/>
            <path id="Trazado_214672" data-name="Trazado 214672" d="M394.949,376.943H289.939a.311.311,0,1,1,0-.618H394.949a.311.311,0,1,1,0,.618" transform="translate(-109.953 -169.559)" fill="#fff"/>
            <path id="Trazado_214673" data-name="Trazado 214673" d="M394.949,385.723H289.939a.311.311,0,1,1,0-.618H394.949a.311.311,0,1,1,0,.618" transform="translate(-109.953 -173.512)" fill="#fff"/>
            <path id="Trazado_214674" data-name="Trazado 214674" d="M394.949,394.5H289.939a.311.311,0,1,1,0-.618H394.949a.311.311,0,1,1,0,.618" transform="translate(-109.953 -177.465)" fill="#fff"/>
            <path id="Trazado_214675" data-name="Trazado 214675" d="M394.949,403.283H289.939a.311.311,0,1,1,0-.618H394.949a.311.311,0,1,1,0,.618" transform="translate(-109.953 -181.419)" fill="#fff"/>
            <path id="Trazado_214676" data-name="Trazado 214676" d="M301.42,383.517a.33.33,0,0,1-.348-.309V359.074a.351.351,0,0,1,.7,0v24.134a.33.33,0,0,1-.348.309" transform="translate(-114.32 -161.653)" fill="#fff"/>
            <path id="Trazado_214677" data-name="Trazado 214677" d="M314.739,383.517a.33.33,0,0,1-.348-.309V359.074a.351.351,0,0,1,.7,0v24.134a.33.33,0,0,1-.348.309" transform="translate(-119.385 -161.653)" fill="#fff"/>
            <path id="Trazado_214678" data-name="Trazado 214678" d="M328.057,383.517a.33.33,0,0,1-.348-.309V359.074a.351.351,0,0,1,.7,0v24.134a.33.33,0,0,1-.348.309" transform="translate(-124.451 -161.653)" fill="#fff"/>
            <path id="Trazado_214679" data-name="Trazado 214679" d="M341.376,383.517a.33.33,0,0,1-.348-.309V359.074a.351.351,0,0,1,.7,0v24.134a.33.33,0,0,1-.348.309" transform="translate(-129.517 -161.653)" fill="#fff"/>
            <path id="Trazado_214680" data-name="Trazado 214680" d="M354.694,383.517a.33.33,0,0,1-.348-.309V359.074a.351.351,0,0,1,.7,0v24.134a.33.33,0,0,1-.348.309" transform="translate(-134.583 -161.653)" fill="#fff"/>
            <path id="Trazado_214681" data-name="Trazado 214681" d="M368.012,383.517a.33.33,0,0,1-.348-.309V359.074a.351.351,0,0,1,.7,0v24.134a.33.33,0,0,1-.348.309" transform="translate(-139.648 -161.653)" fill="#fff"/>
            <path id="Trazado_214682" data-name="Trazado 214682" d="M381.331,383.517a.33.33,0,0,1-.348-.309V359.074a.351.351,0,0,1,.7,0v24.134a.33.33,0,0,1-.348.309" transform="translate(-144.714 -161.653)" fill="#fff"/>
            <path id="Trazado_214683" data-name="Trazado 214683" d="M394.649,383.517a.33.33,0,0,1-.348-.309V359.074a.351.351,0,0,1,.7,0v24.134a.33.33,0,0,1-.348.309" transform="translate(-149.78 -161.653)" fill="#fff"/>
            <path id="Trazado_214684" data-name="Trazado 214684" d="M407.968,383.517a.33.33,0,0,1-.348-.309V359.074a.351.351,0,0,1,.7,0v24.134a.33.33,0,0,1-.348.309" transform="translate(-154.846 -161.653)" fill="#fff"/>
            <path id="Trazado_214685" data-name="Trazado 214685" d="M421.286,383.517a.33.33,0,0,1-.348-.309V359.074a.351.351,0,0,1,.7,0v24.134a.33.33,0,0,1-.348.309" transform="translate(-159.911 -161.653)" fill="#fff"/>
            <path id="Trazado_214686" data-name="Trazado 214686" d="M434.6,383.517a.33.33,0,0,1-.348-.309V359.074a.351.351,0,0,1,.7,0v24.134a.33.33,0,0,1-.348.309" transform="translate(-164.977 -161.653)" fill="#fff"/>
            <path id="Trazado_214687" data-name="Trazado 214687" d="M447.923,383.517a.33.33,0,0,1-.348-.309V359.074a.351.351,0,0,1,.7,0v24.134a.33.33,0,0,1-.348.309" transform="translate(-170.043 -161.653)" fill="#fff"/>
            <path id="Trazado_214688" data-name="Trazado 214688" d="M316.524,447.226c-.639-9.093,4.028-9.98,11.47-15.839,22.163-16.571,23.884-1.147,36.532-1.154,7.85,0,15.681-3,17.139,6.069,1.879,11.7,7.693,10,9.094,16.159.6,2.619-2.351,13.993-3.049,17.649-2.053,10.757-8.947,14.891-20.4,18.171-8.083,2.314-27.976,5.383-35.156.578-4.31-2.885-13.3-13.374-14.939-17.915-3.527-9.769-.465-15.142-.687-23.718" transform="translate(-119.808 -190.895)" fill="#eea659" fill-rule="evenodd"/>
            <path id="Trazado_214689" data-name="Trazado 214689" d="M304.023,412.654c3.2,3.6,3.148,3.183.079,5.8a30.064,30.064,0,0,0-12.367-9.971c1.176-.977,2.358-1.948,3.564-2.912a40.18,40.18,0,0,1,8.725,7.082" transform="translate(-110.768 -182.728)" fill="#fff" fill-rule="evenodd"/>
            <path id="Trazado_214690" data-name="Trazado 214690" d="M324.085,390.222c-.286,1.921-6.646,4.8-8.469,6.772s-2.419,2.312-.548,2.379c3.232.115,9.193,1.2,2.873,2.794a75.037,75.037,0,0,0-9.145,3.017,13.619,13.619,0,0,0-2.322-2.911,38.913,38.913,0,0,0-8.3-6.8c2.193-4.119,7.707-14.562,9.218-11.186,1.36,3.04-5.583,10.854,2.806,1.682,4.314-4.718,10.559-5.052,5.427,1.854-.015.02,3.6-1.775,4.764-2.141,3.108-.979,5.3.517,3.94,2.363-1.341,1.814,0,.531-.244,2.178" transform="translate(-113.217 -172.347)" fill="#ffc795" fill-rule="evenodd"/>
            <path id="Trazado_214691" data-name="Trazado 214691" d="M233.957,458.5c4.065-18.108,13.322-36.842,31.427-47.248,2.886-1.659,2.049-1.881,4.31-.911,6.046,2.592,10.065,6.561,13.552,11.534C272.947,433,265.988,443.8,265.514,458.5s-31.557,0-31.557,0" transform="translate(-88.792 -184.618)" fill="#555586" fill-rule="evenodd"/>
            <path id="Trazado_214692" data-name="Trazado 214692" d="M320.089,400.912a.376.376,0,0,1-.217-.068.286.286,0,0,1-.055-.434c4.653-5.18,11.757-6.39,12.056-6.439a.349.349,0,0,1,.405.248.314.314,0,0,1-.279.36c-.071.012-7.152,1.223-11.638,6.216a.365.365,0,0,1-.273.117" transform="translate(-121.42 -177.502)" fill="#eea87e"/>
            <path id="Trazado_214693" data-name="Trazado 214693" d="M314.528,397.113a.375.375,0,0,1-.238-.084.285.285,0,0,1-.015-.437c4.365-4.114,7.215-4.94,7.334-4.973a.357.357,0,0,1,.436.2.3.3,0,0,1-.226.388c-.028.008-2.817.83-7.037,4.807a.368.368,0,0,1-.253.1" transform="translate(-119.305 -176.439)" fill="#eea87e"/>
            <path id="Trazado_214694" data-name="Trazado 214694" d="M436.736,412.654c-3.2,3.6-3.148,3.183-.079,5.8a30.064,30.064,0,0,1,12.368-9.971c-1.176-.977-2.358-1.948-3.564-2.912a40.178,40.178,0,0,0-8.725,7.082" transform="translate(-165.01 -182.728)" fill="#fff" fill-rule="evenodd"/>
            <path id="Trazado_214695" data-name="Trazado 214695" d="M409.378,390.222c.286,1.921,6.646,4.8,8.469,6.772s2.419,2.312.548,2.379c-3.232.115-9.193,1.2-2.873,2.794a75.033,75.033,0,0,1,9.145,3.017,13.619,13.619,0,0,1,2.322-2.911,38.914,38.914,0,0,1,8.3-6.8c-2.193-4.119-7.707-14.562-9.218-11.186-1.36,3.04,5.583,10.854-2.806,1.682-4.314-4.718-10.559-5.052-5.427,1.854.015.02-3.6-1.775-4.764-2.141-3.108-.979-5.3.517-3.94,2.363,1.342,1.814,0,.531.244,2.178" transform="translate(-155.264 -172.347)" fill="#ffc795" fill-rule="evenodd"/>
            <path id="Trazado_214696" data-name="Trazado 214696" d="M485.558,458.5c-4.065-18.108-13.323-36.842-31.427-47.248-2.886-1.659-2.049-1.881-4.31-.911-6.046,2.592-10.065,6.561-13.552,11.534C446.568,433,453.526,443.8,454,458.5s31.557,0,31.557,0" transform="translate(-165.742 -184.618)" fill="#555586" fill-rule="evenodd"/>
            <path id="Trazado_214697" data-name="Trazado 214697" d="M421.981,400.912a.364.364,0,0,1-.272-.117c-4.486-4.993-11.566-6.2-11.638-6.216a.313.313,0,0,1-.279-.36.346.346,0,0,1,.405-.248c.3.049,7.4,1.259,12.056,6.439a.285.285,0,0,1-.055.434.373.373,0,0,1-.217.068" transform="translate(-155.67 -177.502)" fill="#eea87e"/>
            <path id="Trazado_214698" data-name="Trazado 214698" d="M430.4,397.113a.369.369,0,0,1-.254-.1c-4.242-4-7.008-4.8-7.036-4.806a.3.3,0,0,1-.229-.388.361.361,0,0,1,.437-.2c.119.033,2.969.859,7.335,4.973a.286.286,0,0,1-.015.437.375.375,0,0,1-.238.084" transform="translate(-160.646 -176.439)" fill="#eea87e"/>
            <path id="Trazado_214699" data-name="Trazado 214699" d="M276.448,140.52H393.615c3.49,0,6.344,2.532,6.344,5.629v62.115c0,3.1-2.854,5.628-6.344,5.628H276.448c-3.49,0-6.344-2.532-6.344-5.628V146.149c0-3.1,2.854-5.629,6.344-5.629m42.26,6.757-2.446-2.9H276.448a1.9,1.9,0,0,0-1.995,1.77v62.115a1.9,1.9,0,0,0,1.995,1.77H393.615a1.9,1.9,0,0,0,1.995-1.77V146.149a1.9,1.9,0,0,0-1.995-1.77H353.8l-2.446,2.9Z" transform="translate(-102.541 -63.387)" fill="#8fa9c4" fill-rule="evenodd"/>
            <path id="Trazado_214700" data-name="Trazado 214700" d="M279.118,213.194H396.285a1.9,1.9,0,0,0,1.995-1.77V149.31a1.9,1.9,0,0,0-1.995-1.77H356.47l-2.446,2.9H321.378l-2.446-2.9H279.118a1.9,1.9,0,0,0-1.995,1.77v62.115a1.9,1.9,0,0,0,1.995,1.77" transform="translate(-105.21 -66.548)" fill="#004059" fill-rule="evenodd"/>
            <path id="Trazado_214701" data-name="Trazado 214701" d="M366.239,288.765c10.949.634,18.924,2.584,18.924,4.892,0,2.821-11.916,5.109-26.615,5.109s-26.614-2.288-26.614-5.109c0-2.308,7.975-4.258,18.924-4.892,2.93-4.66,2.384-11.4,1.857-14.78h11.667c-.527,3.376-1.072,10.12,1.858,14.78" transform="translate(-126.058 -123.48)" fill="#6d86a1" fill-rule="evenodd"/>
            <path id="Trazado_214702" data-name="Trazado 214702" d="M289.131,256.289H395.405c-6.086-7.5-27.57-13.037-53.137-13.037s-47.051,5.54-53.137,13.037" transform="translate(-109.778 -109.643)" fill="#c1d4e8" fill-rule="evenodd"/>
            <path id="Trazado_214703" data-name="Trazado 214703" d="M344.208,205.111l21.862-15.329a1.139,1.139,0,0,1,1.452.137l5.54,5.962a1.135,1.135,0,0,0,1.4.172l24.055-14.85a.882.882,0,0,0,.446-.706.856.856,0,0,0-.35-.748l-4.295-3.37a.845.845,0,0,1-.3-.978,1,1,0,0,1,.887-.637l20.251-1.837a1.087,1.087,0,0,1,.856.278.835.835,0,0,1,.284.769l-2.806,18.192a.94.94,0,0,1-.691.749,1.117,1.117,0,0,1-1.066-.206l-4.424-3.762a1.138,1.138,0,0,0-1.329-.085L372.7,210a1.134,1.134,0,0,1-1.45-.207l-7.261-8.821a1.112,1.112,0,0,0-1.221-.317l-17.536,6.04a1.1,1.1,0,0,1-1.283-.4.854.854,0,0,1,.258-1.186" transform="translate(-130.575 -77.976)" fill="#e67070" fill-rule="evenodd"/>
            <path id="Trazado_214704" data-name="Trazado 214704" d="M304.491,174.064a11.986,11.986,0,0,1,10.524-6.031l.328,0,.328,0a11.985,11.985,0,0,1,10.523,6.031,9.36,9.36,0,0,1-.6,10.175,23.478,23.478,0,0,0-3.846,8.667c-.375,1.577-.66,3.816-1.161,5.245-.781,2.227-2.922,3.209-5.242,3.186-2.319.023-4.46-.959-5.241-3.186-.5-1.429-.786-3.668-1.161-5.245a23.489,23.489,0,0,0-3.846-8.667,9.361,9.361,0,0,1-.6-10.175" transform="translate(-115.155 -75.773)" fill="#ffd258" fill-rule="evenodd"/>
            <path id="Trazado_214705" data-name="Trazado 214705" d="M325.392,210.3a16.853,16.853,0,0,1-13.661,0c.148.51.289,1.052.429,1.64.375,1.577.66,3.816,1.161,5.246.781,2.226,2.922,3.208,5.242,3.185,2.319.023,4.46-.959,5.241-3.185.5-1.43.786-3.668,1.161-5.246.14-.588.281-1.13.429-1.64" transform="translate(-118.374 -94.804)" fill="#c1d4e8" fill-rule="evenodd"/>
            <path id="Trazado_214706" data-name="Trazado 214706" d="M319.684,218.977a17.646,17.646,0,0,1-4.505-.58.61.61,0,0,1-.469-.769.716.716,0,0,1,.866-.416,16.274,16.274,0,0,0,8.8-.165.724.724,0,0,1,.885.383.6.6,0,0,1-.433.786,17.6,17.6,0,0,1-5.141.761" transform="translate(-119.495 -97.829)" fill="#f2f9ff"/>
            <path id="Trazado_214707" data-name="Trazado 214707" d="M319.935,224.327a17.761,17.761,0,0,1-4.077-.473.615.615,0,0,1-.494-.756.711.711,0,0,1,.853-.438,16.337,16.337,0,0,0,6.527.189.693.693,0,0,1,.819.485.625.625,0,0,1-.547.727,17.768,17.768,0,0,1-3.08.268" transform="translate(-119.747 -100.361)" fill="#f2f9ff"/>
            <path id="Trazado_214708" data-name="Trazado 214708" d="M323.254,228.32a8.284,8.284,0,0,1-3.267,0,.915.915,0,0,0-.214.573c0,.677.828,1.227,1.848,1.227s1.847-.55,1.847-1.227a.911.911,0,0,0-.214-.573" transform="translate(-121.433 -102.919)" fill="#8fa9c4" fill-rule="evenodd"/>
            <path id="Trazado_214709" data-name="Trazado 214709" d="M319.669,199.532l-.041,0a.319.319,0,0,1-.3-.342l.561-3.9c.4-2.207,1.712-3.113,3.1-4.072a11.357,11.357,0,0,0,2.5-2.13c1.281-1.549,1.1-3.064.351-3.877a2.513,2.513,0,0,0-2.285-.7,2.158,2.158,0,0,1,.177,2.752,1.847,1.847,0,0,1-1.92.944,1.772,1.772,0,0,1-1.408-1.512c-.119-.958.56-1.855,1.824-2.426a5.078,5.078,0,0,0-4.852.073,2.45,2.45,0,0,1,.859,2.623,1.519,1.519,0,0,1-.773.992,1.984,1.984,0,0,1-1.418.029,1.356,1.356,0,0,1-.949-1.04,3.428,3.428,0,0,1,1.172-2.587,2.366,2.366,0,0,0-2.052.015,3.005,3.005,0,0,0-1.554,2.526c-.106,1.986.811,2.8,2.081,3.935.3.269.622.554.948.871,1.65,1.605,1.55,3.215,1.434,5.079-.019.3-.038.612-.05.931a.351.351,0,0,1-.7-.021c.012-.323.032-.637.051-.944.112-1.8.2-3.215-1.254-4.629-.319-.31-.631-.588-.927-.852-1.343-1.2-2.4-2.141-2.283-4.4a3.628,3.628,0,0,1,1.907-3.034,3.177,3.177,0,0,1,2.845.035l.1.061a5.8,5.8,0,0,1,6.17.064,3.324,3.324,0,0,1,3.394.827c.918,1,1.172,2.817-.328,4.633a12.064,12.064,0,0,1-2.635,2.253c-1.335.92-2.488,1.715-2.842,3.681l-.2,1.258-.354,2.621a.337.337,0,0,1-.346.273m3.154-14.839-.118.046c-1.116.455-1.7,1.14-1.612,1.878a1.134,1.134,0,0,0,.863.976,1.187,1.187,0,0,0,1.174-.655,1.616,1.616,0,0,0-.305-2.245m-6,.024a2.942,2.942,0,0,0-1.046,2.124.706.706,0,0,0,.506.557,1.231,1.231,0,0,0,.841.005.923.923,0,0,0,.433-.609,1.9,1.9,0,0,0-.734-2.079" transform="translate(-118.457 -82.544)" fill="#6d86a1"/>
            <path id="Trazado_214710" data-name="Trazado 214710" d="M125.981,267.58c21.252,8.9,25.4,41.346,49.646,37.563,6.841-1.068,7.662-.505,9.368,6.113.625,4.082-1.941,4.328-6.343,5.328-18.511,3.38-30.48-2.372-41.679-12.605-1.19-11.1-2.4-27.149-10.337-35.788q-.325-.308-.655-.61" transform="translate(-47.723 -120.596)" fill="#3669b2" fill-rule="evenodd"/>
            <path id="Trazado_214711" data-name="Trazado 214711" d="M216.144,335.826c3.979-.09,5.155.474,5.715,5.329.254,2.2-.92,3.113-2.814,3.552a4.442,4.442,0,0,0,.244-2.727c-.935-3.628-1.6-5.436-3.145-6.153" transform="translate(-82.017 -151.321)" fill="#fcae37" fill-rule="evenodd"/>
            <path id="Trazado_214712" data-name="Trazado 214712" d="M238.2,336.3c-3.122.907-6.136-.107-9.38,1.235-.024.78,3.908,4.238,1.9,5.494-.517.324-5.408-2.493-7.7-3.835a3.01,3.01,0,0,0,.532-2.356c-.4-3.477-1.118-4.753-2.954-5.165a13.078,13.078,0,0,1,5.741-4.155c7.866-3.151,8.1.489,8.568.581,5.42,1.06,2.1,2.268,3.724,2.893,2.979,1.147,2.776,2.949.182,3.322-2.22.318,1.364,1.411-.615,1.986" transform="translate(-83.711 -147.009)" fill="#ffc795" fill-rule="evenodd"/>
            <path id="Trazado_214713" data-name="Trazado 214713" d="M243.773,340.968a.387.387,0,0,1-.07-.006c-.053-.011-5.369-.957-7.757-.42a.354.354,0,0,1-.424-.223.308.308,0,0,1,.252-.375c2.541-.575,7.844.373,8.068.413a.312.312,0,0,1,.271.364.34.34,0,0,1-.341.247" transform="translate(-89.383 -153.095)" fill="#eea87e"/>
            <path id="Trazado_214714" data-name="Trazado 214714" d="M236.372,334.878a.347.347,0,0,1-.33-.21.3.3,0,0,1,.218-.391c2.578-.776,7.68-.434,7.895-.419a.323.323,0,0,1,.32.332.335.335,0,0,1-.374.284c-.053,0-5.177-.346-7.618.388a.394.394,0,0,1-.112.017" transform="translate(-89.578 -150.399)" fill="#eea87e"/>
            <path id="Trazado_214715" data-name="Trazado 214715" d="M236.811,330.064a.35.35,0,0,1-.328-.206.3.3,0,0,1,.212-.395,17.286,17.286,0,0,1,4.256-.4.327.327,0,0,1,.34.317.315.315,0,0,1-.357.3,17.07,17.07,0,0,0-4.005.363.387.387,0,0,1-.116.018" transform="translate(-89.745 -148.279)" fill="#eea87e"/>
            <path id="Trazado_214716" data-name="Trazado 214716" d="M193.368,353.305l.7-.965a1.505,1.505,0,0,1,1.925-.371l25.655,14.654,2.568,3.621-4.44-.385-25.992-14.845a1.157,1.157,0,0,1-.417-1.709" transform="translate(-73.27 -158.505)" fill="#47477f" fill-rule="evenodd"/>
            <path id="Trazado_214717" data-name="Trazado 214717" d="M214,375.04a6.543,6.543,0,0,0-.213-2.9l-.054-.03c1.049-1.4,1.359-3.653-.084-4.659-2.018-.678-3.806.394-5.275,1.6l-4.629-2.644c-2.205.669-4.479,2.413-6.506,5.692,1.117.3,2.171,1.193,3.2,3.213.859,1.681,2.169,5.333.743,7.163,6.032,1.025,11.9-1.792,12.817-7.43" transform="translate(-74.827 -165.091)" fill="#ffc795" fill-rule="evenodd"/>
            <path id="Trazado_214718" data-name="Trazado 214718" d="M190.013,377.243c2.954-.776,5.377-1.889,7.682,2.623,1.071,2.1,2.844,7.261-.866,8.129a16.541,16.541,0,0,1-1.642.292,4.837,4.837,0,0,0,.76-4.038c-.807-4.078-2.962-6.125-5.934-7.006" transform="translate(-72.078 -169.651)" fill="#fcae37" fill-rule="evenodd"/>
            <path id="Trazado_214719" data-name="Trazado 214719" d="M85.349,279.681c6.395-6.639,13.456-6.572,19.252.546,6.484,7.964,3.959,18.986,3.474,28.207-.324,6.2-1.232,16.842,3.647,21.812,11.667,9.861,38.931-8.968,42.329,8.2,1.278,6.456-7.01,7.263-12.579,8.3-10.173,1.9-31.305,4.936-41.094,1.865-19.291-6.051-19.513-16.75-20.272-32.94-.457-9.715-.921-27.8,5.243-35.988" transform="translate(-30.182 -123.844)" fill="#598dd8" fill-rule="evenodd"/>
            <path id="Trazado_214720" data-name="Trazado 214720" d="M104.6,284.678c6.485,7.964,3.959,18.987,3.475,28.207-.325,6.2-1.232,16.842,3.647,21.812,11.667,9.861,38.931-8.968,42.329,8.2,1.278,6.456-7.009,7.263-12.578,8.3-10.173,1.9-31.305,4.935-41.094,1.864-19.291-6.051-19.513-16.75-20.272-32.939-.319-6.776-.64-17.624,1.284-26.344Z" transform="translate(-30.182 -128.295)" fill="#598dd8" fill-rule="evenodd"/>
            <path id="Trazado_214721" data-name="Trazado 214721" d="M550.289,445.045c9.64,0,17.5-1.706,17.5-3.8s-7.863-3.8-17.5-3.8-17.5,1.706-17.5,3.8,7.862,3.8,17.5,3.8" transform="translate(-202.454 -197.081)" fill="#a9c8c9" fill-rule="evenodd"/>
            <path id="Trazado_214722" data-name="Trazado 214722" d="M540.925,444.552a.771.771,0,0,1-.087,0c-5.045-.561-5.74-1.31-5.74-2.037,0-.5,0-1.542,7.066-2.169a.681.681,0,0,1,.762.554.641.641,0,0,1-.623.676,22.931,22.931,0,0,0-5.553.938,18.622,18.622,0,0,0,4.261.812.637.637,0,0,1,.6.69.673.673,0,0,1-.69.541m25.617-1.424a.684.684,0,0,1-.679-.479c-.366-.269-2.184-.813-6.861-1.162a.644.644,0,0,1-.635-.667.672.672,0,0,1,.752-.564c8.119.6,8.119,1.718,8.119,2.253a.66.66,0,0,1-.7.618m-.639-.445h0Z" transform="translate(-203.332 -198.344)" fill="#cadadb"/>
            <path id="Trazado_214723" data-name="Trazado 214723" d="M586.406,464.463a11.9,11.9,0,0,1-1.4-.081,12.124,12.124,0,0,0,1.522-2.373c3.485-.014,6.224-.9,8.209-3.64,4.437-6.128-2.653-8.673-7.082-4.735v-5.606q.375-.172.768-.322c3.2-1.211,7.109-1,9.663,1.268,3.276,2.909,2.347,7.055.078,10.188-2.754,3.8-6.784,5.313-11.756,5.3" transform="translate(-222.314 -201.37)" fill="#a9c8c9" fill-rule="evenodd"/>
            <path id="Trazado_214724" data-name="Trazado 214724" d="M567.791,444.358h0v11.618c0,6.8-6.266,12.357-13.928,12.357h-7.147c-7.661,0-13.928-5.56-13.928-12.357V444.358c0,2.1,7.835,3.8,17.5,3.8s17.5-1.7,17.5-3.8" transform="translate(-202.454 -200.191)" fill="#cadadb" fill-rule="evenodd"/>
            <path id="Trazado_214725" data-name="Trazado 214725" d="M548.3,469.938a12.427,12.427,0,0,1-5.459-1.253.874.874,0,0,1-.406-1.26,1.117,1.117,0,0,1,1.42-.361,10.13,10.13,0,0,0,4.446,1.02.933.933,0,1,1,0,1.854m-8.052-3.461a1.1,1.1,0,0,1-.817-.349,9.394,9.394,0,0,1-2.475-6.255V453.94a.9.9,0,0,1,.412-.738,1.148,1.148,0,0,1,.911-.155,46.119,46.119,0,0,0,7.614,1.1.969.969,0,0,1,.957,1,1.01,1.01,0,0,1-1.125.849,52.62,52.62,0,0,1-6.68-.861v4.743a7.56,7.56,0,0,0,2.02,5.1.857.857,0,0,1-.166,1.3,1.121,1.121,0,0,1-.65.2" transform="translate(-204.04 -204.088)" fill="#f2f9ff"/>
            <path id="Trazado_214726" data-name="Trazado 214726" d="M550.52,435.918a.736.736,0,0,1-.5-.192,7.569,7.569,0,0,1-2.809-4.451,4.7,4.7,0,0,1,1.518-4.27,7.733,7.733,0,0,0,2.088-4,.7.7,0,0,1,.807-.5.63.63,0,0,1,.566.716,8.86,8.86,0,0,1-2.36,4.539,3.583,3.583,0,0,0-1.235,3.366,6.479,6.479,0,0,0,2.433,3.747.569.569,0,0,1-.024.873.74.74,0,0,1-.48.171" transform="translate(-207.916 -190.349)" fill="#fff"/>
            <path id="Trazado_214727" data-name="Trazado 214727" d="M560.458,432.064a.744.744,0,0,1-.5-.192,7.586,7.586,0,0,1-2.808-4.451,4.7,4.7,0,0,1,1.518-4.271,8,8,0,0,0,2.278-5.421.691.691,0,0,1,.742-.575.648.648,0,0,1,.648.658,9.115,9.115,0,0,1-2.567,6.1,3.582,3.582,0,0,0-1.236,3.366,6.489,6.489,0,0,0,2.433,3.747.57.57,0,0,1-.024.874.743.743,0,0,1-.48.17" transform="translate(-211.696 -187.942)" fill="#fff"/>
            <path id="Trazado_214728" data-name="Trazado 214728" d="M570.717,436.842a.738.738,0,0,1-.5-.192A7.582,7.582,0,0,1,567.4,432.2a4.7,4.7,0,0,1,1.518-4.27,8,8,0,0,0,1.754-2.767.715.715,0,0,1,.874-.4.608.608,0,0,1,.454.775,9.262,9.262,0,0,1-1.98,3.152,3.583,3.583,0,0,0-1.236,3.366,6.48,6.48,0,0,0,2.433,3.747.57.57,0,0,1-.024.874.745.745,0,0,1-.48.17" transform="translate(-215.598 -191.353)" fill="#fff"/>
            <path id="Trazado_214729" data-name="Trazado 214729" d="M173.8,439.177c9.639,0,17.5-1.707,17.5-3.8s-7.862-3.8-17.5-3.8-17.5,1.706-17.5,3.8,7.863,3.8,17.5,3.8" transform="translate(-59.253 -194.439)" fill="#f2f9ff" fill-rule="evenodd"/>
            <path id="Trazado_214730" data-name="Trazado 214730" d="M191.3,438.491h0v11.618c0,6.8-6.266,12.357-13.928,12.357h-7.148c-7.661,0-13.928-5.56-13.928-12.357V438.491c0,2.1,7.835,3.8,17.5,3.8s17.5-1.7,17.5-3.8" transform="translate(-59.253 -197.55)" fill="#4c627a" fill-rule="evenodd"/>
            <path id="Trazado_214731" data-name="Trazado 214731" d="M173.8,446.31c9.666,0,17.5-1.7,17.5-3.8V438.49c0,2.1-7.836,3.8-17.5,3.8s-17.5-1.7-17.5-3.8v4.023c0,2.1,7.835,3.8,17.5,3.8" transform="translate(-59.253 -197.549)" fill="#6d86a1" fill-rule="evenodd"/>
            <path id="Trazado_214732" data-name="Trazado 214732" d="M169.264,463.611a22.672,22.672,0,0,1-10.54-2.239.868.868,0,0,1-.317-1.28,1.127,1.127,0,0,1,1.441-.283c.052.029,4.377,2.4,11.5,1.869a1.02,1.02,0,0,1,1.128.847.968.968,0,0,1-.954,1c-.785.058-1.54.085-2.262.085" transform="translate(-59.994 -207.083)" fill="#f2f9ff"/>
            <path id="Trazado_214733" data-name="Trazado 214733" d="M194.117,472.838a.933.933,0,1,1,0-1.854,24.335,24.335,0,0,0,6.146-1.3,1.093,1.093,0,0,1,1.355.522.9.9,0,0,1-.588,1.2,26.146,26.146,0,0,1-6.913,1.433" transform="translate(-73.241 -211.564)" fill="#f2f9ff"/>
            <path id="Trazado_214734" data-name="Trazado 214734" d="M172.066,386.306c-7.3.375-4.991,10.423-3.163,16.264a15.343,15.343,0,0,0,3.037,2.154c.392-.993-.42-9.4,5.263-8.922l.027,0c-.392-4.012-1.477-9.688-5.165-9.5" transform="translate(-63.346 -174.051)" fill="#549e9a" fill-rule="evenodd"/>
            <path id="Trazado_214735" data-name="Trazado 214735" d="M198.246,384.142c-5.828.695-9.081,6.927-10.9,11.707,2.024,1.876,2.021,5.64,2.377,6.181.116.177.271.009.548-.683,2.313-4.529,5.459-6.615,6.754-3.359l.618-.955c1.4-2.168,7.817-13.751.606-12.891" transform="translate(-71.063 -173.058)" fill="#59aaa2" fill-rule="evenodd"/>
            <path id="Trazado_214736" data-name="Trazado 214736" d="M211.589,400.38c-.952-1.892-4.334.039-7.055,2.014-.393.715-.735,1.284-.954,1.623l-.618.954a11.906,11.906,0,0,1,.594,4.263c0,.622.068.919.217.981.45.187,1.64-1.763,3.889-3.376a15.421,15.421,0,0,1,1.94-1.2c.938-2.034,2.285-4.668,1.986-5.262" transform="translate(-77.003 -180.042)" fill="#549e9a" fill-rule="evenodd"/>
            <path id="Trazado_214737" data-name="Trazado 214737" d="M174.983,404.219a.337.337,0,0,1-.345-.269,60.631,60.631,0,0,1-.612-10.48.336.336,0,0,1,.372-.288.324.324,0,0,1,.323.329,59.981,59.981,0,0,0,.607,10.359.319.319,0,0,1-.3.346l-.045,0" transform="translate(-65.972 -177.148)" fill="#317772"/>
            <path id="Trazado_214738" data-name="Trazado 214738" d="M190.238,406.218a.376.376,0,0,1-.107-.015.3.3,0,0,1-.225-.389c.09-.248,2.238-6.1,4.9-8.378a.382.382,0,0,1,.493.007.285.285,0,0,1-.009.437c-2.537,2.174-4.7,8.064-4.72,8.122a.346.346,0,0,1-.332.214" transform="translate(-72.031 -179.026)" fill="#317772"/>
            <path id="Trazado_214739" data-name="Trazado 214739" d="M203.686,412.482a.38.38,0,0,1-.146-.029.3.3,0,0,1-.169-.41c.449-.863,1.973-3.705,2.7-4.049a.371.371,0,0,1,.472.128.292.292,0,0,1-.144.418A16.719,16.719,0,0,0,204,412.3a.354.354,0,0,1-.316.179" transform="translate(-77.146 -183.802)" fill="#317772"/>
            <path id="Trazado_214740" data-name="Trazado 214740" d="M182.963,423.621c-4.97.906-16.37,2.508-20.43-.6-3.416-2.725-14.325-12.668-7.622-16.489,4.3-.879,9.955,5.486,11.6,5.961.392-.993-.419-9.4,5.264-8.922,5.612.473,3.973,9.977,5.349,6.538,2.984-5.847,7.358-7.621,7.347.9,0,2.5,1.112-.248,4.107-2.4,6.732-4.827,10.3-.744,6.511,5.821-1.784,3.092-8.813,7.112-12.123,9.187" transform="translate(-57.914 -181.816)" fill="#63bab3" fill-rule="evenodd"/>
            <path id="Trazado_214741" data-name="Trazado 214741" d="M170.136,429.723a.348.348,0,0,1-.329-.208c-.036-.092-3.66-9.27-10.761-14.94a.285.285,0,0,1-.025-.436.379.379,0,0,1,.491-.024c7.238,5.778,10.917,15.1,10.954,15.2a.3.3,0,0,1-.216.393.386.386,0,0,1-.113.017" transform="translate(-60.255 -186.539)" fill="#317772"/>
            <path id="Trazado_214742" data-name="Trazado 214742" d="M184.152,430.025l-.038,0a.32.32,0,0,1-.309-.341c.014-.118,1.415-11.824-2.078-14.671a.285.285,0,0,1-.021-.436.382.382,0,0,1,.492-.018c3.751,3.057,2.36,14.7,2.3,15.193a.336.336,0,0,1-.346.275" transform="translate(-68.883 -186.736)" fill="#317772"/>
            <path id="Trazado_214743" data-name="Trazado 214743" d="M198.061,429.342a.381.381,0,0,1-.164-.036.293.293,0,0,1-.143-.418c.193-.32,4.776-7.872,9.885-10.421a.373.373,0,0,1,.475.118.291.291,0,0,1-.133.421c-4.931,2.461-9.565,10.1-9.612,10.173a.356.356,0,0,1-.307.164" transform="translate(-75.006 -188.515)" fill="#317772"/>
            <path id="Trazado_214744" data-name="Trazado 214744" d="M195.28,418.833a.317.317,0,0,1-.064-.006.313.313,0,0,1-.279-.359c.041-.2,1.017-4.85,1.848-6.244a.372.372,0,0,1,.47-.129.294.294,0,0,1,.145.418c-.781,1.31-1.769,6.02-1.779,6.067a.34.34,0,0,1-.342.252" transform="translate(-73.948 -185.649)" fill="#317772"/>
            <path id="Trazado_214745" data-name="Trazado 214745" d="M173.47,440.938a22.443,22.443,0,0,1-3.9-.306,14.772,14.772,0,0,1-2.978-.9,6.172,6.172,0,0,0-4.14-.522.707.707,0,0,1-.84-.457.619.619,0,0,1,.516-.745,7.674,7.674,0,0,1,5.027.595,13.27,13.27,0,0,0,2.689.822c3.378.6,7.506.12,11.146-.306.913-.107,1.807-.211,2.664-.3.667-.061,1.3-.169,1.914-.274a11.562,11.562,0,0,1,4.495-.142l.359.1a.61.61,0,0,1,.464.771.715.715,0,0,1-.869.411l-.314-.084a10.038,10.038,0,0,0-3.872.162c-.643.11-1.307.223-2.029.29-.843.084-1.728.187-2.632.292a67.4,67.4,0,0,1-7.7.6" transform="translate(-61.267 -197.244)" fill="#d18469"/>
            <path id="Trazado_214746" data-name="Trazado 214746" d="M618.212,279.681c-6.395-6.639-13.456-6.572-19.251.546-6.485,7.964-3.959,18.986-3.475,28.207.325,6.2,1.232,16.842-3.647,21.812-11.667,9.861-38.931-8.968-42.329,8.2-1.278,6.456,7.01,7.263,12.578,8.3,10.173,1.9,31.3,4.936,41.094,1.865,19.292-6.051,19.513-16.75,20.273-32.94.457-9.715.921-27.8-5.243-35.988" transform="translate(-208.764 -123.844)" fill="#b7e4ef" fill-rule="evenodd"/>
            <path id="Trazado_214747" data-name="Trazado 214747" d="M553.45,377.243c-2.954-.776-5.378-1.889-7.682,2.623-1.071,2.1-2.844,7.261.866,8.129a16.515,16.515,0,0,0,1.642.292,4.839,4.839,0,0,1-.76-4.038c.807-4.078,2.963-6.125,5.934-7.006" transform="translate(-206.868 -169.651)" fill="#fff" fill-rule="evenodd"/>
            <path id="Trazado_214748" data-name="Trazado 214748" d="M542.217,367.689c-3.281-4.323-10.523-8.956-15.593-10.5-6.2-1.89,1.666,6,1.641,6.229-.149,1.347-5.705,7.069.087,11.949,2.108,1.775,5.558,2.208,8.474,1.62-.411-1.933.582-4.594,1.279-5.958,1.307-2.56,2.653-3.31,4.113-3.336" transform="translate(-199.204 -160.81)" fill="#ffc795" fill-rule="evenodd"/>
            <path id="Trazado_214749" data-name="Trazado 214749" d="M529.35,335.826c-3.98-.09-5.157.474-5.716,5.329-.254,2.2.921,3.113,2.815,3.552a4.428,4.428,0,0,1-.245-2.727c.936-3.628,1.6-5.436,3.146-6.153" transform="translate(-198.959 -151.321)" fill="#fff" fill-rule="evenodd"/>
            <path id="Trazado_214750" data-name="Trazado 214750" d="M498.416,336.3c3.122.907,6.136-.107,9.38,1.235.024.78-3.907,4.238-1.9,5.494.517.324,5.408-2.493,7.7-3.835a3.011,3.011,0,0,1-.532-2.356c.4-3.477,1.119-4.753,2.955-5.165a13.079,13.079,0,0,0-5.741-4.155c-7.866-3.151-8.1.489-8.568.581-5.42,1.06-2.1,2.268-3.724,2.893-2.979,1.147-2.775,2.949-.182,3.322,2.22.318-1.364,1.411.615,1.986" transform="translate(-188.386 -147.009)" fill="#ffc795" fill-rule="evenodd"/>
            <path id="Trazado_214751" data-name="Trazado 214751" d="M499.964,340.968a.341.341,0,0,1-.341-.247.313.313,0,0,1,.272-.364c.224-.041,5.527-.989,8.068-.413a.308.308,0,0,1,.252.375.352.352,0,0,1-.423.223c-2.389-.537-7.7.41-7.758.42a.374.374,0,0,1-.07.006" transform="translate(-189.837 -153.095)" fill="#eea87e"/>
            <path id="Trazado_214752" data-name="Trazado 214752" d="M507.461,334.878a.394.394,0,0,1-.112-.017c-2.443-.734-7.568-.391-7.618-.388a.328.328,0,0,1-.374-.284.322.322,0,0,1,.32-.332c.217-.015,5.318-.357,7.9.419a.3.3,0,0,1,.218.391.347.347,0,0,1-.33.21" transform="translate(-189.738 -150.399)" fill="#eea87e"/>
            <path id="Trazado_214753" data-name="Trazado 214753" d="M509.248,330.065a.388.388,0,0,1-.116-.018,16.9,16.9,0,0,0-4.005-.363.311.311,0,1,1-.018-.617,17.347,17.347,0,0,1,4.256.4.3.3,0,0,1,.212.395.349.349,0,0,1-.328.206" transform="translate(-191.797 -148.279)" fill="#eea87e"/>
            <path id="Trazado_214754" data-name="Trazado 214754" d="M537.114,305.668c-6.842-1.068-7.662-.505-9.369,6.113-.625,4.082,1.941,4.327,6.344,5.328,18.511,3.38,30.48-2.372,41.679-12.606,1.163-10.841,2.344-26.4,9.8-35.172l-.221-.583c-20.035,9.706-24.541,40.619-48.234,36.92" transform="translate(-200.501 -121.122)" fill="#b7e4ef"/>
            <path id="Trazado_214755" data-name="Trazado 214755" d="M142.863,182.434c-10.1-3.679-23.224.844-25.131,15.414a28.5,28.5,0,0,0,.727,11.459,20.285,20.285,0,0,0,7.959,11.622,10.605,10.605,0,0,0,4.906,1.792s12.46,1.88,19.141-11.083,2.5-25.524-7.6-29.2" transform="translate(-44.483 -81.711)" fill="#ffc795"/>
            <path id="Trazado_214756" data-name="Trazado 214756" d="M148.967,209.74v0a.945.945,0,0,0,1.334.624,3.221,3.221,0,0,1,1.949-.22,2.988,2.988,0,0,1,2.247,2.283s.621-2.825-1.692-3.622a4.571,4.571,0,0,0-3.338.082.8.8,0,0,0-.5.85" transform="translate(-56.462 -94.011)" fill="#47477f"/>
            <path id="Trazado_214757" data-name="Trazado 214757" d="M166.907,215.814a2.971,2.971,0,0,1,3.038-1.665,2.032,2.032,0,0,1,1.961,1.93.53.53,0,0,1-.121.361v0a.7.7,0,0,1-1.134-.077,1.762,1.762,0,0,0-1.242-.935,3.449,3.449,0,0,0-2.5.384" transform="translate(-63.289 -96.524)" fill="#47477f"/>
            <path id="Trazado_214758" data-name="Trazado 214758" d="M156.8,237.858a2.466,2.466,0,0,1-2.189-1.327.263.263,0,0,1,.162-.36.326.326,0,0,1,.407.142,1.862,1.862,0,0,0,2.116.936,1.479,1.479,0,0,0,1.131-1.821.278.278,0,0,1,.243-.323.311.311,0,0,1,.364.214,1.99,1.99,0,0,1-1.585,2.461,2.932,2.932,0,0,1-.65.076" transform="translate(-58.603 -105.973)" fill="#e69468"/>
            <path id="Trazado_214759" data-name="Trazado 214759" d="M149.582,241.274h-.007a6.779,6.779,0,0,1-3.892-1.71,7.42,7.42,0,0,1-2.358-2.9.272.272,0,0,1,.212-.34.319.319,0,0,1,.383.187,7.122,7.122,0,0,0,2.19,2.659,6.248,6.248,0,0,0,3.481,1.559.292.292,0,0,1,.3.283.3.3,0,0,1-.309.267" transform="translate(-54.315 -106.517)" fill="#e69468"/>
            <path id="Trazado_214760" data-name="Trazado 214760" d="M146.026,244.569a.345.345,0,0,1-.135-.028,15.575,15.575,0,0,1-2.327-1.367,6.786,6.786,0,0,1-2.089-2.125.261.261,0,0,1,.145-.366.329.329,0,0,1,.413.128,6.363,6.363,0,0,0,1.909,1.927,15.316,15.316,0,0,0,2.22,1.308.262.262,0,0,1,.143.368.316.316,0,0,1-.279.155" transform="translate(-53.604 -108.474)" fill="#eea87e"/>
            <path id="Trazado_214761" data-name="Trazado 214761" d="M154.188,222.96a1.4,1.4,0,1,1-1.388-1.231,1.316,1.316,0,0,1,1.388,1.231" transform="translate(-57.396 -99.952)" fill="#3a505b"/>
            <path id="Trazado_214762" data-name="Trazado 214762" d="M166.206,225.572a1.4,1.4,0,1,1-1.388-1.231,1.317,1.317,0,0,1,1.388,1.231" transform="translate(-61.967 -101.128)" fill="#3a505b"/>
            <path id="Trazado_214763" data-name="Trazado 214763" d="M117.032,181s.813,6.681,8.658,5.539,2.39,10.058,10.541,10.439,15.4-7.794,12.084-16.32-12.461-11.316-20.086-13.184-9.34-7.416-15.469-5.947-5.182,6.822-5.182,6.822-15.89-.949-17.918,15.172S72.19,197.154,67.716,204.54a15.877,15.877,0,0,0-1.581,13.923s3.6-13.209,17.33-11.5,19.4-7.539,19.4-7.539a5.073,5.073,0,0,1-2.285-2.537,6.7,6.7,0,0,1-.449-2.9,13.141,13.141,0,0,0,11.375-3.13c5.457-4.735,5.522-9.858,5.522-9.858" transform="translate(-24.61 -72.733)" fill="#555586"/>
          </g>
        </g>
      </g>
    </g>
  </g>
</svg>
