<svg xmlns="http://www.w3.org/2000/svg" xmlns:xlink="http://www.w3.org/1999/xlink" width="1328" height="851.574" viewBox="0 0 1328 851.574">
  <defs>
    <linearGradient id="linear-gradient" x1="0.5" x2="0.5" y2="1" gradientUnits="objectBoundingBox">
      <stop offset="0" stop-color="#d7e4f6" stop-opacity="0.031"/>
      <stop offset="0.774" stop-color="#99c2c2"/>
      <stop offset="1" stop-color="#fff"/>
    </linearGradient>
    <filter id="Trazado_246551" x="14" y="23.274" width="1300" height="805.026" filterUnits="userSpaceOnUse">
      <feOffset input="SourceAlpha"/>
      <feGaussianBlur stdDeviation="10" result="blur"/>
      <feFlood flood-opacity="0.161"/>
      <feComposite operator="in" in2="blur"/>
      <feComposite in="SourceGraphic"/>
    </filter>
    <clipPath id="clip-path">
      <rect id="Rectángulo_55543" data-name="Rectángulo 55543" width="1189.804" height="596.09" fill="none"/>
    </clipPath>
  </defs>
  <g id="Grupo_599658" data-name="Grupo 599658" transform="translate(-136 -4612.791)">
    <path id="Trazado_131372" data-name="Trazado 131372" d="M0,337.859H1328V-513.715H0Z" transform="translate(136 5126.506)" fill="url(#linear-gradient)"/>
    <g transform="matrix(1, 0, 0, 1, 136, 4612.79)" filter="url(#Trazado_246551)">
      <path id="Trazado_246551-2" data-name="Trazado 246551" d="M15,0H1225a15,15,0,0,1,15,15V730.026a15,15,0,0,1-15,15H15a15,15,0,0,1-15-15V15A15,15,0,0,1,15,0Z" transform="translate(44 53.27)" fill="#fff"/>
    </g>
    <g id="Grupo_599644" data-name="Grupo 599644" transform="matrix(-0.017, 1, -1, -0.017, 5532.866, 4314.107)">
      <path id="Trazado_226411" data-name="Trazado 226411" d="M16.055,83.569H9.823L27.843,97.7,45.863,83.569H16.055Z" transform="translate(771.068 4716.641)" fill="#0e8282" fill-rule="evenodd"/>
    </g>
    <path id="Trazado_246523" data-name="Trazado 246523" d="M16.055,83.569H9.823L27.843,97.7,45.863,83.569H16.055Z" transform="matrix(-0.017, 1, -1, -0.017, 558.728, 5007.601)" fill="#0e8282" fill-rule="evenodd"/>
    <g id="Grupo_599657" data-name="Grupo 599657" transform="translate(205.099 4741.955)">
      <line id="Línea_1560" data-name="Línea 1560" x2="75.452" transform="translate(896.29 297.788)" fill="none" stroke="#8f4240" stroke-width="2"/>
      <path id="Trazado_246524" data-name="Trazado 246524" d="M984.69,311.651l-1.337-1.436,7.08-6.58-7.08-6.582,1.337-1.435,8.622,8.017Z" transform="translate(-19.443 -5.845)" fill="#8f4240"/>
      <g id="Grupo_599656" data-name="Grupo 599656">
        <g id="Grupo_599655" data-name="Grupo 599655" clip-path="url(#clip-path)">
          <path id="Trazado_246525" data-name="Trazado 246525" d="M1008.117,339.536H1201.4c3.985,0,7.214-2.173,7.214-4.854V271.435c0-2.681-3.23-4.855-7.214-4.855H1008.117c-3.984,0-7.214,2.174-7.214,4.855v63.247c0,2.681,3.23,4.854,7.214,4.854" transform="translate(-19.79 -5.271)" fill="#f8eaea"/>
          <path id="Trazado_246526" data-name="Trazado 246526" d="M1008.117,339.536H1201.4c3.985,0,7.214-2.173,7.214-4.854V271.435c0-2.681-3.23-4.855-7.214-4.855H1008.117c-3.984,0-7.214,2.174-7.214,4.855v63.247C1000.9,337.363,1004.133,339.536,1008.117,339.536Z" transform="translate(-19.79 -5.271)" fill="none" stroke="#ef6f6c" stroke-width="2"/>
          <path id="Trazado_246527" data-name="Trazado 246527" d="M507.967,605.642H701.251c3.985,0,7.215-2.173,7.215-4.854V537.541c0-2.681-3.23-4.855-7.215-4.855H507.967c-3.984,0-7.214,2.174-7.214,4.855v63.247c0,2.681,3.23,4.854,7.214,4.854" transform="translate(-9.901 -10.533)" fill="#f8eaea"/>
          <path id="Trazado_246528" data-name="Trazado 246528" d="M507.967,605.642H701.251c3.985,0,7.215-2.173,7.215-4.854V537.541c0-2.681-3.23-4.855-7.215-4.855H507.967c-3.984,0-7.214,2.174-7.214,4.855v63.247C500.754,603.469,503.984,605.642,507.967,605.642Z" transform="translate(-9.901 -10.533)" fill="none" stroke="#ef6f6c" stroke-width="2"/>
          <line id="Línea_1561" data-name="Línea 1561" y2="75.452" transform="translate(594.708 439.49)" fill="none" stroke="#8f4240" stroke-width="2"/>
          <path id="Trazado_246529" data-name="Trazado 246529" d="M598.525,518.675l1.436-1.337,6.58,7.08,6.582-7.08,1.435,1.337-8.017,8.622Z" transform="translate(-11.834 -10.229)" fill="#8f4240"/>
          <line id="Línea_1562" data-name="Línea 1562" y2="75.452" transform="translate(594.708 314.648)" fill="none" stroke="#8f4240" stroke-width="2"/>
          <path id="Trazado_246530" data-name="Trazado 246530" d="M598.525,391.315l1.436-1.337,6.58,7.08,6.582-7.08,1.435,1.337-8.017,8.622Z" transform="translate(-11.834 -7.711)" fill="#8f4240"/>
          <path id="Trazado_246531" data-name="Trazado 246531" d="M507.967,475.914H701.251c3.985,0,7.215-2.173,7.215-4.854V407.813c0-2.681-3.23-4.855-7.215-4.855H507.967c-3.984,0-7.214,2.174-7.214,4.855V471.06c0,2.681,3.23,4.854,7.214,4.854" transform="translate(-9.901 -7.968)" fill="#f8eaea"/>
          <path id="Trazado_246532" data-name="Trazado 246532" d="M507.967,475.914H701.251c3.985,0,7.215-2.173,7.215-4.854V407.813c0-2.681-3.23-4.855-7.215-4.855H507.967c-3.984,0-7.214,2.174-7.214,4.855V471.06C500.754,473.741,503.984,475.914,507.967,475.914Z" transform="translate(-9.901 -7.968)" fill="none" stroke="#ef6f6c" stroke-width="2"/>
          <line id="Línea_1563" data-name="Línea 1563" x2="75.452" transform="translate(664.578 297.788)" fill="none" stroke="#8f4240" stroke-width="2"/>
          <path id="Trazado_246533" data-name="Trazado 246533" d="M748.3,311.651l-1.337-1.436,7.08-6.58-7.08-6.582,1.337-1.435,8.622,8.017Z" transform="translate(-14.769 -5.845)" fill="#8f4240"/>
          <path id="Trazado_246534" data-name="Trazado 246534" d="M770.882,339.536h173.3c3.572,0,6.469-2.173,6.469-4.854V271.435c0-2.681-2.9-4.855-6.469-4.855h-173.3c-3.572,0-6.469,2.174-6.469,4.855v63.247c0,2.681,2.9,4.854,6.469,4.854" transform="translate(-15.114 -5.271)" fill="#f8eaea"/>
          <path id="Trazado_246535" data-name="Trazado 246535" d="M770.882,339.536h173.3c3.572,0,6.469-2.173,6.469-4.854V271.435c0-2.681-2.9-4.855-6.469-4.855h-173.3c-3.572,0-6.469,2.174-6.469,4.855v63.247C764.413,337.363,767.31,339.536,770.882,339.536Z" transform="translate(-15.114 -5.271)" fill="none" stroke="#ef6f6c" stroke-width="2"/>
          <line id="Línea_1564" data-name="Línea 1564" x1="75.452" transform="translate(218.061 297.788)" fill="none" stroke="#8f4240" stroke-width="2"/>
          <path id="Trazado_246536" data-name="Trazado 246536" d="M228.913,295.615l1.337,1.436-7.081,6.58,7.081,6.582-1.337,1.435-8.622-8.017Z" transform="translate(-4.356 -5.845)" fill="#8f4240"/>
          <path id="Trazado_246537" data-name="Trazado 246537" d="M201.5,339.536H8.214C4.23,339.536,1,337.363,1,334.682V271.435c0-2.681,3.23-4.855,7.214-4.855H201.5c3.984,0,7.213,2.174,7.213,4.855v63.247c0,2.681-3.23,4.854-7.213,4.854" transform="translate(-0.02 -5.271)" fill="#f8eaea"/>
          <path id="Trazado_246538" data-name="Trazado 246538" d="M201.5,339.536H8.214C4.23,339.536,1,337.363,1,334.682V271.435c0-2.681,3.23-4.855,7.214-4.855H201.5c3.984,0,7.213,2.174,7.213,4.855v63.247C208.711,337.363,205.481,339.536,201.5,339.536Z" transform="translate(-0.02 -5.271)" fill="none" stroke="#ef6f6c" stroke-width="2"/>
          <line id="Línea_1565" data-name="Línea 1565" x1="75.452" transform="translate(449.774 297.788)" fill="none" stroke="#8f4240" stroke-width="2"/>
          <path id="Trazado_246539" data-name="Trazado 246539" d="M465.3,295.615l1.337,1.436-7.08,6.58,7.08,6.582-1.337,1.435-8.622-8.017Z" transform="translate(-9.03 -5.845)" fill="#8f4240"/>
          <path id="Trazado_246540" data-name="Trazado 246540" d="M439.166,339.536h-173.3c-3.572,0-6.469-2.173-6.469-4.854V271.435c0-2.681,2.9-4.855,6.469-4.855h173.3c3.572,0,6.469,2.174,6.469,4.855v63.247c0,2.681-2.9,4.854-6.469,4.854" transform="translate(-5.129 -5.271)" fill="#f8eaea"/>
          <path id="Trazado_246541" data-name="Trazado 246541" d="M439.166,339.536h-173.3c-3.572,0-6.469-2.173-6.469-4.854V271.435c0-2.681,2.9-4.855,6.469-4.855h173.3c3.572,0,6.469,2.174,6.469,4.855v63.247C445.634,337.363,442.738,339.536,439.166,339.536Z" transform="translate(-5.129 -5.271)" fill="none" stroke="#ef6f6c" stroke-width="2"/>
          <path id="Trazado_246542" data-name="Trazado 246542" d="M507.967,1H701.251c3.985,0,7.215,2.173,7.215,4.855V69.1c0,2.681-3.23,4.855-7.215,4.855H507.967c-3.984,0-7.214-2.174-7.214-4.855V5.855c0-2.682,3.23-4.855,7.214-4.855" transform="translate(-9.901 -0.02)" fill="#f8eaea"/>
          <path id="Trazado_246543" data-name="Trazado 246543" d="M507.967,1H701.251c3.985,0,7.215,2.173,7.215,4.855V69.1c0,2.681-3.23,4.855-7.215,4.855H507.967c-3.984,0-7.214-2.174-7.214-4.855V5.855C500.754,3.173,503.984,1,507.967,1Z" transform="translate(-9.901 -0.02)" fill="none" stroke="#ef6f6c" stroke-width="2"/>
          <line id="Línea_1566" data-name="Línea 1566" y1="75.452" transform="translate(594.708 81.148)" fill="none" stroke="#8f4240" stroke-width="2"/>
          <path id="Trazado_246544" data-name="Trazado 246544" d="M614.561,89.238l-1.436,1.337-6.58-7.08-6.582,7.08-1.435-1.337,8.017-8.622Z" transform="translate(-11.834 -1.594)" fill="#8f4240"/>
          <line id="Línea_1567" data-name="Línea 1567" y1="75.452" transform="translate(594.708 205.99)" fill="none" stroke="#8f4240" stroke-width="2"/>
          <path id="Trazado_246545" data-name="Trazado 246545" d="M614.561,216.6l-1.436,1.337-6.58-7.08-6.582,7.08-1.435-1.337,8.017-8.622Z" transform="translate(-11.834 -4.112)" fill="#8f4240"/>
          <path id="Trazado_246546" data-name="Trazado 246546" d="M507.967,266.684H701.251c3.985,0,7.215,2.173,7.215,4.855v63.246c0,2.681-3.23,4.855-7.215,4.855H507.967c-3.984,0-7.214-2.174-7.214-4.855V271.539c0-2.682,3.23-4.855,7.214-4.855" transform="translate(-9.901 -5.273)" fill="#ef6f6c"/>
          <path id="Trazado_246547" data-name="Trazado 246547" d="M507.967,266.684H701.251c3.985,0,7.215,2.173,7.215,4.855v63.246c0,2.681-3.23,4.855-7.215,4.855H507.967c-3.984,0-7.214-2.174-7.214-4.855V271.539C500.754,268.857,503.984,266.684,507.967,266.684Z" transform="translate(-9.901 -5.273)" fill="none" stroke="#8f4240" stroke-width="2"/>
          <path id="Trazado_246548" data-name="Trazado 246548" d="M507.967,130.728H701.251c3.985,0,7.215,2.173,7.215,4.854v63.247c0,2.681-3.23,4.855-7.215,4.855H507.967c-3.984,0-7.214-2.174-7.214-4.855V135.582c0-2.681,3.23-4.854,7.214-4.854" transform="translate(-9.901 -2.585)" fill="#f8eaea"/>
          <path id="Trazado_246549" data-name="Trazado 246549" d="M507.967,130.728H701.251c3.985,0,7.215,2.173,7.215,4.854v63.247c0,2.681-3.23,4.855-7.215,4.855H507.967c-3.984,0-7.214-2.174-7.214-4.855V135.582C500.754,132.9,503.984,130.728,507.967,130.728Z" transform="translate(-9.901 -2.585)" fill="none" stroke="#ef6f6c" stroke-width="2"/>
        </g>
      </g>
    </g>
    <path id="Trazado_246558" data-name="Trazado 246558" d="M7.576,11.474H3.533v2.549H8.308V16H.962V5.336H8.323V7.321H3.533V9.569H7.576Zm4.878-1.216L13.6,8.075h2.563l-2.087,3.86L16.27,16H13.692l-1.245-2.344L11.223,16H8.631l2.2-4.065-2.08-3.86h2.593ZM24.319,12.1a4.779,4.779,0,0,1-.831,2.948,2.665,2.665,0,0,1-2.245,1.1,2.285,2.285,0,0,1-1.794-.8v3.7H16.98V8.075h2.307l.073.732a2.285,2.285,0,0,1,1.868-.879,2.687,2.687,0,0,1,2.278,1.08,4.838,4.838,0,0,1,.813,2.97Zm-2.468-.154q0-2.109-1.23-2.109a1.162,1.162,0,0,0-1.172.63v3.12a1.2,1.2,0,0,0,1.187.659q1.179,0,1.216-2.036Zm7.39,4.2a4.074,4.074,0,0,1-2.952-1.088,3.756,3.756,0,0,1-1.128-2.831v-.205a4.867,4.867,0,0,1,.45-2.146,3.3,3.3,0,0,1,1.315-1.439,3.969,3.969,0,0,1,2.051-.509,3.43,3.43,0,0,1,2.637,1.036,4.073,4.073,0,0,1,.967,2.889v.959H27.674a1.779,1.779,0,0,0,.579,1.047,1.722,1.722,0,0,0,1.157.381,2.218,2.218,0,0,0,1.831-.82l1.128,1.333a3.153,3.153,0,0,1-1.307,1.014A4.418,4.418,0,0,1,29.241,16.146Zm-.278-6.313q-1.084,0-1.289,1.436h2.49v-.19a1.223,1.223,0,0,0-.3-.919A1.2,1.2,0,0,0,28.963,9.833Zm9.4.476-.813-.059a1.46,1.46,0,0,0-1.494.732V16H33.592V8.075h2.314l.081,1.018a1.911,1.911,0,0,1,1.736-1.165,2.407,2.407,0,0,1,.688.088ZM42.5,6.1v1.97h1.3V9.789H42.5v3.625a.926.926,0,0,0,.161.623.864.864,0,0,0,.637.176,3.621,3.621,0,0,0,.615-.044v1.765a4.555,4.555,0,0,1-1.392.212,2.586,2.586,0,0,1-1.882-.6,2.462,2.462,0,0,1-.608-1.824V9.789H39.019V8.075H40.03V6.1Zm1.743,5.859A4.677,4.677,0,0,1,44.7,9.851a3.3,3.3,0,0,1,1.326-1.425,3.993,3.993,0,0,1,2.029-.5,3.644,3.644,0,0,1,2.805,1.1,4.23,4.23,0,0,1,1.025,3v.088a4.1,4.1,0,0,1-1.029,2.941,3.654,3.654,0,0,1-2.787,1.088,3.7,3.7,0,0,1-2.717-1.014,3.968,3.968,0,0,1-1.106-2.75Zm2.468.154a2.949,2.949,0,0,0,.344,1.611,1.147,1.147,0,0,0,1.018.513q1.318,0,1.348-2.029v-.249q0-2.131-1.362-2.131-1.238,0-1.34,1.838Zm10.415,1.655a.57.57,0,0,0-.33-.505,5.013,5.013,0,0,0-1.252-.4,5.711,5.711,0,0,1-1.523-.538,2.552,2.552,0,0,1-.916-.809,1.933,1.933,0,0,1-.315-1.091,2.19,2.19,0,0,1,.9-1.8,3.711,3.711,0,0,1,2.358-.707,4.112,4.112,0,0,1,2.52.71,2.222,2.222,0,0,1,.952,1.868H57.044q0-.952-1-.952a1,1,0,0,0-.652.216.669.669,0,0,0-.264.538.614.614,0,0,0,.322.535,3.045,3.045,0,0,0,1.029.337,8.893,8.893,0,0,1,1.241.315A2.255,2.255,0,0,1,59.5,13.7a2.075,2.075,0,0,1-.963,1.765,4.224,4.224,0,0,1-2.494.681,4.31,4.31,0,0,1-1.816-.366,3.037,3.037,0,0,1-1.245-1,2.256,2.256,0,0,1-.447-1.326h2.307a.954.954,0,0,0,.366.8,1.506,1.506,0,0,0,.9.253,1.185,1.185,0,0,0,.758-.205A.656.656,0,0,0,57.124,13.773Zm11.1,2.373a4.074,4.074,0,0,1-2.952-1.088,3.756,3.756,0,0,1-1.128-2.831v-.205a4.867,4.867,0,0,1,.45-2.146,3.3,3.3,0,0,1,1.315-1.439,3.969,3.969,0,0,1,2.051-.509A3.43,3.43,0,0,1,70.6,8.965a4.073,4.073,0,0,1,.967,2.889v.959H66.66a1.779,1.779,0,0,0,.579,1.047,1.722,1.722,0,0,0,1.157.381,2.218,2.218,0,0,0,1.831-.82l1.128,1.333a3.153,3.153,0,0,1-1.307,1.014A4.418,4.418,0,0,1,68.228,16.146Zm-.278-6.313q-1.084,0-1.289,1.436h2.49v-.19a1.223,1.223,0,0,0-.3-.919A1.2,1.2,0,0,0,67.949,9.833Zm6.877-1.758.081.93a2.687,2.687,0,0,1,2.263-1.077,2.261,2.261,0,0,1,1.849.74,3.522,3.522,0,0,1,.634,2.227V16H77.178V11a1.337,1.337,0,0,0-.242-.883,1.118,1.118,0,0,0-.879-.282,1.177,1.177,0,0,0-1.077.571V16H72.512V8.075ZM85.33,16V9.789H84.18V8.075h1.15V7.812a3.026,3.026,0,0,1,1.04-2.424,4.156,4.156,0,0,1,2.7-.791,9.591,9.591,0,0,1,2.578.425l-.337,1.948-.41-.11a6.527,6.527,0,0,0-1.685-.212q-1.414,0-1.414,1.289v.139h1.553V9.789H87.805V16Zm7.456,0H90.3V8.075h2.483Zm3.772-7.925.081.93A2.687,2.687,0,0,1,98.9,7.929a2.261,2.261,0,0,1,1.849.74,3.522,3.522,0,0,1,.634,2.227V16H98.909V11a1.337,1.337,0,0,0-.242-.883,1.118,1.118,0,0,0-.879-.282,1.177,1.177,0,0,0-1.077.571V16H94.243V8.075ZM107.215,16a2.787,2.787,0,0,1-.234-.71,2.3,2.3,0,0,1-1.9.857,2.812,2.812,0,0,1-1.9-.677,2.156,2.156,0,0,1-.784-1.7,2.216,2.216,0,0,1,.952-1.948,4.851,4.851,0,0,1,2.769-.659h.762v-.42q0-1.1-.945-1.1a.772.772,0,0,0-.879.868h-2.468a2.213,2.213,0,0,1,.978-1.865,4.109,4.109,0,0,1,2.494-.717,3.6,3.6,0,0,1,2.4.74,2.572,2.572,0,0,1,.9,2.029v3.508a3.593,3.593,0,0,0,.337,1.67V16Zm-1.545-1.611a1.377,1.377,0,0,0,.765-.2,1.239,1.239,0,0,0,.436-.447V12.477h-.718q-1.289,0-1.289,1.157a.707.707,0,0,0,.227.546A.822.822,0,0,0,105.669,14.389Zm7.31-6.313.081.93a2.687,2.687,0,0,1,2.263-1.077,2.261,2.261,0,0,1,1.849.74,3.522,3.522,0,0,1,.634,2.227V16H115.33V11a1.337,1.337,0,0,0-.242-.883,1.118,1.118,0,0,0-.879-.282,1.177,1.177,0,0,0-1.077.571V16h-2.468V8.075Zm9.1,6.021h3.611V16h-6.731V14.623l3.516-4.644h-3.362v-1.9h6.5V9.408Zm9.272,1.9a2.787,2.787,0,0,1-.234-.71,2.3,2.3,0,0,1-1.9.857,2.812,2.812,0,0,1-1.9-.677,2.156,2.156,0,0,1-.784-1.7,2.216,2.216,0,0,1,.952-1.948,4.851,4.851,0,0,1,2.769-.659h.762v-.42q0-1.1-.945-1.1a.772.772,0,0,0-.879.868h-2.468a2.213,2.213,0,0,1,.978-1.865,4.109,4.109,0,0,1,2.494-.717,3.6,3.6,0,0,1,2.4.74,2.572,2.572,0,0,1,.9,2.029v3.508a3.593,3.593,0,0,0,.337,1.67V16Zm-1.545-1.611a1.377,1.377,0,0,0,.765-.2,1.239,1.239,0,0,0,.436-.447V12.477h-.718q-1.289,0-1.289,1.157a.707.707,0,0,0,.227.546A.822.822,0,0,0,129.81,14.389ZM139,13.773a.57.57,0,0,0-.33-.505,5.013,5.013,0,0,0-1.252-.4,5.711,5.711,0,0,1-1.523-.538,2.552,2.552,0,0,1-.916-.809,1.933,1.933,0,0,1-.315-1.091,2.19,2.19,0,0,1,.9-1.8,3.711,3.711,0,0,1,2.358-.707,4.112,4.112,0,0,1,2.52.71,2.222,2.222,0,0,1,.952,1.868h-2.476q0-.952-1-.952a1,1,0,0,0-.652.216.669.669,0,0,0-.264.538.614.614,0,0,0,.322.535,3.045,3.045,0,0,0,1.029.337,8.893,8.893,0,0,1,1.241.315,2.255,2.255,0,0,1,1.787,2.2,2.075,2.075,0,0,1-.963,1.765,4.224,4.224,0,0,1-2.494.681,4.31,4.31,0,0,1-1.816-.366,3.037,3.037,0,0,1-1.245-1,2.256,2.256,0,0,1-.447-1.326h2.307a.954.954,0,0,0,.366.8,1.506,1.506,0,0,0,.9.253,1.185,1.185,0,0,0,.758-.205A.656.656,0,0,0,139,13.773ZM27.414,30.965l1.963-4.629h2.776l-3.435,6.833V37H26.11V33.169l-3.428-6.833h2.761ZM39.9,35.242a1.1,1.1,0,0,0,.806-.282,1.034,1.034,0,0,0,.278-.787H43.3a2.74,2.74,0,0,1-.934,2.139,3.474,3.474,0,0,1-2.406.835,3.517,3.517,0,0,1-2.725-1.084,4.271,4.271,0,0,1-1-3v-.1a4.827,4.827,0,0,1,.443-2.12,3.226,3.226,0,0,1,1.278-1.414,3.811,3.811,0,0,1,1.978-.494,3.43,3.43,0,0,1,2.454.857,3.039,3.039,0,0,1,.908,2.322H40.985a1.355,1.355,0,0,0-.3-.945,1.037,1.037,0,0,0-.806-.33q-.959,0-1.121,1.223a8.631,8.631,0,0,0-.051,1.069,3.39,3.39,0,0,0,.286,1.655A.989.989,0,0,0,39.9,35.242Zm4.131-2.278a4.677,4.677,0,0,1,.461-2.113,3.3,3.3,0,0,1,1.326-1.425,3.993,3.993,0,0,1,2.029-.5,3.644,3.644,0,0,1,2.805,1.1,4.23,4.23,0,0,1,1.025,3v.088a4.1,4.1,0,0,1-1.029,2.941,3.654,3.654,0,0,1-2.787,1.088,3.7,3.7,0,0,1-2.717-1.014,3.968,3.968,0,0,1-1.106-2.75Zm2.468.154a2.949,2.949,0,0,0,.344,1.611,1.147,1.147,0,0,0,1.018.513q1.318,0,1.348-2.029v-.249q0-2.131-1.362-2.131-1.238,0-1.34,1.838Zm8.533-4.043.081.93a2.687,2.687,0,0,1,2.263-1.077,2.261,2.261,0,0,1,1.849.74A3.522,3.522,0,0,1,59.86,31.9V37H57.384V32a1.337,1.337,0,0,0-.242-.883,1.118,1.118,0,0,0-.879-.282,1.177,1.177,0,0,0-1.077.571V37H52.719V29.075ZM64.1,27.1v1.97h1.3v1.714H64.1v3.625a.926.926,0,0,0,.161.623.864.864,0,0,0,.637.176,3.621,3.621,0,0,0,.615-.044v1.765a4.555,4.555,0,0,1-1.392.212,2.586,2.586,0,0,1-1.882-.6,2.462,2.462,0,0,1-.608-1.824V30.789H60.622V29.075h1.011V27.1ZM70.839,37a2.787,2.787,0,0,1-.234-.71,2.3,2.3,0,0,1-1.9.857,2.812,2.812,0,0,1-1.9-.677,2.156,2.156,0,0,1-.784-1.7,2.216,2.216,0,0,1,.952-1.948,4.851,4.851,0,0,1,2.769-.659h.762v-.42q0-1.1-.945-1.1a.772.772,0,0,0-.879.868H66.2a2.213,2.213,0,0,1,.978-1.865,4.109,4.109,0,0,1,2.494-.717,3.6,3.6,0,0,1,2.4.74,2.572,2.572,0,0,1,.9,2.029v3.508a3.593,3.593,0,0,0,.337,1.67V37Zm-1.545-1.611a1.377,1.377,0,0,0,.765-.2,1.239,1.239,0,0,0,.436-.447V33.477h-.718q-1.289,0-1.289,1.157a.707.707,0,0,0,.227.546A.822.822,0,0,0,69.293,35.389Zm12.4-2.285a4.83,4.83,0,0,1-.806,3,2.7,2.7,0,0,1-2.271,1.047,2.342,2.342,0,0,1-1.948-.959l-.1.813H74.354V25.75h2.468v3.962a2.259,2.259,0,0,1,1.78-.784,2.7,2.7,0,0,1,2.285,1.062,4.855,4.855,0,0,1,.806,2.988Zm-2.476-.157a3.222,3.222,0,0,0-.3-1.627,1.025,1.025,0,0,0-.934-.486,1.182,1.182,0,0,0-1.157.636v3.144a1.188,1.188,0,0,0,1.172.629,1.048,1.048,0,0,0,1.106-.848A6.091,6.091,0,0,0,79.218,32.946ZM85.385,37H82.909V29.075h2.476Zm-2.622-9.968a1.1,1.1,0,0,1,.381-.864,1.619,1.619,0,0,1,1.978,0,1.171,1.171,0,0,1,0,1.729,1.619,1.619,0,0,1-1.978,0A1.1,1.1,0,0,1,82.763,27.032ZM89.508,37H87.033V25.75h2.476Zm4.124,0H91.156V29.075h2.476ZM91.01,27.032a1.1,1.1,0,0,1,.381-.864,1.619,1.619,0,0,1,1.978,0,1.171,1.171,0,0,1,0,1.729,1.619,1.619,0,0,1-1.978,0A1.1,1.1,0,0,1,91.01,27.032Zm3.831,5.947a4.841,4.841,0,0,1,.813-2.966,2.676,2.676,0,0,1,2.271-1.084,2.276,2.276,0,0,1,1.787.835V25.75h2.476V37H99.967l-.125-.85a2.337,2.337,0,0,1-1.934,1,2.671,2.671,0,0,1-2.241-1.084A4.994,4.994,0,0,1,94.84,32.979Zm2.468.154q0,2.109,1.23,2.109a1.215,1.215,0,0,0,1.172-.688V31.536a1.182,1.182,0,0,0-1.157-.7q-1.143,0-1.238,1.846ZM108.053,37a2.787,2.787,0,0,1-.234-.71,2.3,2.3,0,0,1-1.9.857,2.812,2.812,0,0,1-1.9-.677,2.156,2.156,0,0,1-.784-1.7,2.216,2.216,0,0,1,.952-1.948,4.851,4.851,0,0,1,2.769-.659h.762v-.42q0-1.1-.945-1.1a.772.772,0,0,0-.879.868h-2.468a2.213,2.213,0,0,1,.978-1.865,4.109,4.109,0,0,1,2.494-.717,3.6,3.6,0,0,1,2.4.74,2.572,2.572,0,0,1,.9,2.029v3.508a3.593,3.593,0,0,0,.337,1.67V37Zm-1.545-1.611a1.377,1.377,0,0,0,.765-.2,1.239,1.239,0,0,0,.436-.447V33.477h-.718q-1.289,0-1.289,1.157a.707.707,0,0,0,.227.546A.822.822,0,0,0,106.508,35.389Zm4.731-2.41a4.841,4.841,0,0,1,.813-2.966,2.676,2.676,0,0,1,2.271-1.084,2.276,2.276,0,0,1,1.787.835V25.75h2.476V37h-2.219l-.125-.85a2.337,2.337,0,0,1-1.934,1,2.671,2.671,0,0,1-2.241-1.084A4.994,4.994,0,0,1,111.239,32.979Zm2.468.154q0,2.109,1.23,2.109a1.215,1.215,0,0,0,1.172-.688V31.536a1.182,1.182,0,0,0-1.157-.7q-1.143,0-1.238,1.846Z" transform="translate(729 4757)" fill="#1b3f5e"/>
    <path id="Trazado_246556" data-name="Trazado 246556" d="M-33.4-5.1h-4.975V0h-3.085V-12.8H-32.9v2.382h-5.476v2.944H-33.4ZM-28.63,0H-31.6V-9.51h2.971Zm-3.146-11.962A1.322,1.322,0,0,1-31.32-13a1.724,1.724,0,0,1,1.187-.4,1.724,1.724,0,0,1,1.187.4,1.322,1.322,0,0,1,.457,1.037,1.322,1.322,0,0,1-.457,1.037,1.724,1.724,0,0,1-1.187.4,1.724,1.724,0,0,1-1.187-.4A1.322,1.322,0,0,1-31.777-11.962Zm7.69,2.452.1,1.116a3.225,3.225,0,0,1,2.716-1.292,2.713,2.713,0,0,1,2.219.888,4.226,4.226,0,0,1,.76,2.672V0h-2.971V-6a1.6,1.6,0,0,0-.29-1.059A1.342,1.342,0,0,0-22.61-7.4a1.413,1.413,0,0,0-1.292.686V0h-2.962V-9.51ZM-11.3,0a3.344,3.344,0,0,1-.281-.853A2.754,2.754,0,0,1-13.865.176,3.374,3.374,0,0,1-16.15-.637a2.588,2.588,0,0,1-.94-2.043,2.66,2.66,0,0,1,1.143-2.338,5.821,5.821,0,0,1,3.322-.791h.914v-.5q0-1.316-1.134-1.316A.927.927,0,0,0-13.9-6.587h-2.962a2.655,2.655,0,0,1,1.173-2.239,4.931,4.931,0,0,1,2.993-.86A4.323,4.323,0,0,1-9.822-8.8,3.086,3.086,0,0,1-8.741-6.363v4.21a4.311,4.311,0,0,0,.4,2V0Zm-1.854-1.934a1.652,1.652,0,0,0,.918-.237,1.487,1.487,0,0,0,.523-.536V-4.228h-.861q-1.547,0-1.547,1.389a.848.848,0,0,0,.272.655A.986.986,0,0,0-13.153-1.934ZM-4.381-9.51l.1,1.116A3.225,3.225,0,0,1-1.569-9.686,2.713,2.713,0,0,1,.65-8.8a4.226,4.226,0,0,1,.76,2.672V0H-1.56V-6a1.6,1.6,0,0,0-.29-1.059A1.342,1.342,0,0,0-2.9-7.4,1.413,1.413,0,0,0-4.2-6.715V0H-7.159V-9.51Zm11.452,7.4a1.317,1.317,0,0,0,.967-.338,1.241,1.241,0,0,0,.334-.945h2.777A3.288,3.288,0,0,1,10.028-.826a4.168,4.168,0,0,1-2.887,1,4.22,4.22,0,0,1-3.27-1.3,5.125,5.125,0,0,1-1.2-3.6v-.123A5.792,5.792,0,0,1,3.208-7.4a3.872,3.872,0,0,1,1.534-1.7,4.573,4.573,0,0,1,2.373-.593,4.116,4.116,0,0,1,2.944,1.028,3.647,3.647,0,0,1,1.09,2.786H8.372A1.626,1.626,0,0,0,8.011-7a1.244,1.244,0,0,0-.967-.4Q5.893-7.4,5.7-5.933a10.357,10.357,0,0,0-.062,1.283,4.068,4.068,0,0,0,.343,1.986A1.187,1.187,0,0,0,7.071-2.109ZM15.526,0H12.555V-9.51h2.971ZM12.379-11.962A1.322,1.322,0,0,1,12.836-13a1.724,1.724,0,0,1,1.187-.4,1.724,1.724,0,0,1,1.187.4,1.322,1.322,0,0,1,.457,1.037,1.322,1.322,0,0,1-.457,1.037,1.724,1.724,0,0,1-1.187.4,1.724,1.724,0,0,1-1.187-.4A1.322,1.322,0,0,1,12.379-11.962ZM21.951.176a4.889,4.889,0,0,1-3.542-1.305,4.507,4.507,0,0,1-1.354-3.4v-.246A5.84,5.84,0,0,1,17.6-7.348a3.955,3.955,0,0,1,1.578-1.727,4.763,4.763,0,0,1,2.461-.611A4.117,4.117,0,0,1,24.8-8.442a4.887,4.887,0,0,1,1.16,3.467v1.151H20.07a2.135,2.135,0,0,0,.694,1.257,2.066,2.066,0,0,0,1.389.457,2.662,2.662,0,0,0,2.2-.984l1.354,1.6A3.784,3.784,0,0,1,24.135-.277,5.3,5.3,0,0,1,21.951.176ZM21.617-7.4q-1.3,0-1.547,1.723h2.988v-.229a1.467,1.467,0,0,0-.36-1.1A1.434,1.434,0,0,0,21.617-7.4ZM32.9-6.829l-.976-.07a1.752,1.752,0,0,0-1.793.879V0H27.171V-9.51h2.777l.1,1.222a2.294,2.294,0,0,1,2.083-1.4,2.888,2.888,0,0,1,.826.105ZM39.063,0a3.344,3.344,0,0,1-.281-.853A2.754,2.754,0,0,1,36.5.176a3.374,3.374,0,0,1-2.285-.813,2.588,2.588,0,0,1-.94-2.043,2.66,2.66,0,0,1,1.143-2.338,5.821,5.821,0,0,1,3.322-.791h.914v-.5q0-1.316-1.134-1.316a.927.927,0,0,0-1.055,1.042H33.5a2.655,2.655,0,0,1,1.173-2.239,4.931,4.931,0,0,1,2.993-.86A4.323,4.323,0,0,1,40.54-8.8a3.086,3.086,0,0,1,1.081,2.435v4.21a4.311,4.311,0,0,0,.4,2V0ZM37.208-1.934a1.652,1.652,0,0,0,.918-.237,1.487,1.487,0,0,0,.523-.536V-4.228h-.861q-1.547,0-1.547,1.389a.848.848,0,0,0,.272.655A.986.986,0,0,0,37.208-1.934Z" transform="translate(800 4911)" fill="#1b3f5e"/>
    <path id="Trazado_246555" data-name="Trazado 246555" d="M-45.536,0V-12.8h4.122a6.064,6.064,0,0,1,3.05.769A5.406,5.406,0,0,1-36.25-9.857a6.554,6.554,0,0,1,.769,3.142v.589a6.592,6.592,0,0,1-.743,3.151A5.429,5.429,0,0,1-38.316-.8a5.93,5.93,0,0,1-3.01.8Zm3.085-10.415v8.042h1.072a2.4,2.4,0,0,0,2.039-.945,4.63,4.63,0,0,0,.712-2.808V-6.68a4.592,4.592,0,0,0-.712-2.795,2.442,2.442,0,0,0-2.074-.94ZM-30.612,0h-3.076V-12.8h3.076Zm6.9-4.526h-1.67V0h-3.085V-12.8h5.036a5.621,5.621,0,0,1,3.56,1.01,3.421,3.421,0,0,1,1.283,2.853,4.155,4.155,0,0,1-.541,2.213A3.837,3.837,0,0,1-20.821-5.3l2.672,5.167V0h-3.3ZM-25.383-6.9h1.951a1.751,1.751,0,0,0,1.323-.463,1.788,1.788,0,0,0,.444-1.291,1.809,1.809,0,0,0-.448-1.3,1.735,1.735,0,0,0-1.318-.471h-1.951ZM-8.789-5.432h-4.852v3.059h5.73V0h-8.815V-12.8h8.833v2.382h-5.748v2.7h4.852ZM3.7-4.333a4.673,4.673,0,0,1-.721,2.36A4.35,4.35,0,0,1,1.129-.387a6.3,6.3,0,0,1-2.72.563A5.025,5.025,0,0,1-5.563-1.468a6.786,6.786,0,0,1-1.45-4.641v-.633a7.746,7.746,0,0,1,.655-3.292,4.961,4.961,0,0,1,1.885-2.18,5.26,5.26,0,0,1,2.848-.769,5.516,5.516,0,0,1,3.744,1.226A4.844,4.844,0,0,1,3.727-8.376H.65a2.292,2.292,0,0,0-.589-1.679,2.422,2.422,0,0,0-1.687-.51A1.843,1.843,0,0,0-3.313-9.7a5.536,5.536,0,0,0-.562,2.751v.905A6.125,6.125,0,0,0-3.362-3.12a1.882,1.882,0,0,0,1.771.879,2.369,2.369,0,0,0,1.626-.5,2.126,2.126,0,0,0,.6-1.591Zm11.813,0a4.673,4.673,0,0,1-.721,2.36,4.35,4.35,0,0,1-1.85,1.586,6.3,6.3,0,0,1-2.72.563A5.025,5.025,0,0,1,6.249-1.468,6.786,6.786,0,0,1,4.8-6.108v-.633a7.746,7.746,0,0,1,.655-3.292,4.961,4.961,0,0,1,1.885-2.18,5.26,5.26,0,0,1,2.848-.769,5.516,5.516,0,0,1,3.744,1.226,4.844,4.844,0,0,1,1.608,3.379H12.463a2.292,2.292,0,0,0-.589-1.679,2.422,2.422,0,0,0-1.687-.51A1.843,1.843,0,0,0,8.5-9.7a5.536,5.536,0,0,0-.562,2.751v.905A6.125,6.125,0,0,0,8.451-3.12a1.882,1.882,0,0,0,1.771.879,2.369,2.369,0,0,0,1.626-.5,2.126,2.126,0,0,0,.6-1.591ZM20.259,0H17.183V-12.8h3.076ZM33.24-6.135a7.546,7.546,0,0,1-.694,3.313A5.132,5.132,0,0,1,30.573-.6a5.494,5.494,0,0,1-2.914.778,5.572,5.572,0,0,1-2.9-.751,5.123,5.123,0,0,1-1.973-2.149,7.329,7.329,0,0,1-.743-3.208v-.721a7.58,7.58,0,0,1,.69-3.318A5.119,5.119,0,0,1,24.71-12.19a5.533,5.533,0,0,1,2.931-.782,5.479,5.479,0,0,1,2.9.773A5.211,5.211,0,0,1,32.524-10a7.362,7.362,0,0,1,.716,3.274ZM30.1-6.671a5.381,5.381,0,0,0-.637-2.9,2.044,2.044,0,0,0-1.824-.989q-2.32,0-2.452,3.48l-.009.94A5.535,5.535,0,0,0,25.8-3.243a2.041,2.041,0,0,0,1.854,1.011,2.016,2.016,0,0,0,1.8-.993A5.383,5.383,0,0,0,30.1-6.082ZM45.519,0H42.451L37.916-7.963V0H34.831V-12.8h3.085l4.526,7.963V-12.8h3.076ZM-27.962,23.418a4.96,4.96,0,0,1-2.083,1.274,8.984,8.984,0,0,1-3.006.483,5.36,5.36,0,0,1-4.017-1.538,6.226,6.226,0,0,1-1.608-4.28l-.009-1.107a7.637,7.637,0,0,1,.668-3.3,4.96,4.96,0,0,1,1.912-2.171,5.407,5.407,0,0,1,2.878-.76,5.669,5.669,0,0,1,3.713,1.094,4.637,4.637,0,0,1,1.542,3.265h-2.971a2.426,2.426,0,0,0-.686-1.529,2.212,2.212,0,0,0-1.494-.457,2.013,2.013,0,0,0-1.793.984,5.256,5.256,0,0,0-.642,2.813v.773A5.145,5.145,0,0,0-34.9,21.84a2.316,2.316,0,0,0,2.061.962,2.592,2.592,0,0,0,1.793-.536V20.28h-2.145V18.162h5.229Zm9.729-3.85h-4.852v3.059h5.73V25h-8.815V12.2h8.833v2.382h-5.748v2.7h4.852ZM-5.41,25H-8.477l-4.535-7.963V25H-16.1V12.2h3.085l4.526,7.963V12.2H-5.41Zm9.888-5.432H-.374v3.059h5.73V25H-3.458V12.2H5.375v2.382H-.374v2.7H4.478Zm6.891.905H9.7V25H6.614V12.2H11.65a5.621,5.621,0,0,1,3.56,1.01,3.421,3.421,0,0,1,1.283,2.853,4.155,4.155,0,0,1-.541,2.213A3.837,3.837,0,0,1,14.26,19.7l2.672,5.167V25h-3.3ZM9.7,18.1H11.65a1.751,1.751,0,0,0,1.323-.463,1.788,1.788,0,0,0,.444-1.291,1.809,1.809,0,0,0-.448-1.3,1.735,1.735,0,0,0-1.318-.471H9.7Zm15.926,4.509H21.4L20.659,25h-3.3l4.693-12.8h2.9L29.685,25H26.372Zm-3.489-2.382h2.751l-1.38-4.438Zm11.566,2.4h5.37V25H30.617V12.2H33.7Z" transform="translate(800 5032.107)" fill="#fff"/>
    <path id="Trazado_246553" data-name="Trazado 246553" d="M-44.446-4.342V0h-3.085V-12.8h5.106a5.948,5.948,0,0,1,2.6.541,4.074,4.074,0,0,1,1.749,1.538,4.2,4.2,0,0,1,.62,2.263A3.7,3.7,0,0,1-38.8-5.462a5.561,5.561,0,0,1-3.678,1.121Zm0-2.382h2.021a1.906,1.906,0,0,0,1.367-.448,1.665,1.665,0,0,0,.47-1.266,2.059,2.059,0,0,0-.483-1.433,1.712,1.712,0,0,0-1.318-.545h-2.057ZM-30.2-6.829l-.976-.07a1.752,1.752,0,0,0-1.793.879V0H-35.93V-9.51h2.777l.1,1.222a2.294,2.294,0,0,1,2.083-1.4,2.888,2.888,0,0,1,.826.105Zm.378,1.986a5.613,5.613,0,0,1,.554-2.536,3.96,3.96,0,0,1,1.591-1.709,4.791,4.791,0,0,1,2.435-.6,4.373,4.373,0,0,1,3.366,1.323,5.076,5.076,0,0,1,1.23,3.6v.105A4.925,4.925,0,0,1-21.88-1.129,4.384,4.384,0,0,1-25.225.176a4.434,4.434,0,0,1-3.261-1.217,4.761,4.761,0,0,1-1.327-3.3Zm2.962.185a3.538,3.538,0,0,0,.413,1.934,1.376,1.376,0,0,0,1.222.615q1.582,0,1.617-2.435v-.3q0-2.558-1.635-2.558-1.485,0-1.608,2.206Zm7.146-.167a5.809,5.809,0,0,1,.976-3.56,3.211,3.211,0,0,1,2.725-1.3,2.731,2.731,0,0,1,2.145,1V-13.5H-10.9V0h-2.663l-.149-1.02a2.8,2.8,0,0,1-2.32,1.2,3.205,3.205,0,0,1-2.689-1.3A5.993,5.993,0,0,1-19.714-4.825Zm2.962.185q0,2.531,1.477,2.531a1.458,1.458,0,0,0,1.406-.826V-6.557A1.419,1.419,0,0,0-15.258-7.4q-1.371,0-1.485,2.215Zm13.2,3.612a3.054,3.054,0,0,1-2.54,1.2,3,3,0,0,1-2.369-.91,3.826,3.826,0,0,1-.8-2.615V-9.51H-6.3v6.179A1.065,1.065,0,0,0-5.115-2.109a1.548,1.548,0,0,0,1.45-.729V-9.51H-.686V0H-3.463ZM4.957-2.109a1.317,1.317,0,0,0,.967-.338,1.241,1.241,0,0,0,.334-.945H9.035A3.288,3.288,0,0,1,7.915-.826a4.168,4.168,0,0,1-2.887,1,4.22,4.22,0,0,1-3.27-1.3,5.125,5.125,0,0,1-1.2-3.6v-.123A5.792,5.792,0,0,1,1.094-7.4a3.872,3.872,0,0,1,1.534-1.7A4.573,4.573,0,0,1,5-9.686,4.116,4.116,0,0,1,7.945-8.657a3.647,3.647,0,0,1,1.09,2.786H6.258A1.626,1.626,0,0,0,5.9-7a1.244,1.244,0,0,0-.967-.4q-1.151,0-1.345,1.468a10.357,10.357,0,0,0-.062,1.283,4.068,4.068,0,0,0,.343,1.986A1.187,1.187,0,0,0,4.957-2.109Zm9.352,0a1.317,1.317,0,0,0,.967-.338,1.241,1.241,0,0,0,.334-.945h2.777A3.288,3.288,0,0,1,17.266-.826a4.168,4.168,0,0,1-2.887,1,4.22,4.22,0,0,1-3.27-1.3,5.125,5.125,0,0,1-1.2-3.6v-.123A5.792,5.792,0,0,1,10.446-7.4a3.872,3.872,0,0,1,1.534-1.7,4.573,4.573,0,0,1,2.373-.593A4.116,4.116,0,0,1,17.3-8.657a3.647,3.647,0,0,1,1.09,2.786H15.609A1.626,1.626,0,0,0,15.249-7a1.244,1.244,0,0,0-.967-.4q-1.151,0-1.345,1.468a10.357,10.357,0,0,0-.062,1.283,4.068,4.068,0,0,0,.343,1.986A1.187,1.187,0,0,0,14.309-2.109ZM22.764,0H19.793V-9.51h2.971ZM19.617-11.962A1.322,1.322,0,0,1,20.074-13a1.724,1.724,0,0,1,1.187-.4,1.724,1.724,0,0,1,1.187.4,1.322,1.322,0,0,1,.457,1.037,1.322,1.322,0,0,1-.457,1.037,1.724,1.724,0,0,1-1.187.4,1.724,1.724,0,0,1-1.187-.4A1.322,1.322,0,0,1,19.617-11.962Zm4.6,7.119a5.613,5.613,0,0,1,.554-2.536,3.96,3.96,0,0,1,1.591-1.709,4.791,4.791,0,0,1,2.435-.6,4.373,4.373,0,0,1,3.366,1.323,5.076,5.076,0,0,1,1.23,3.6v.105a4.925,4.925,0,0,1-1.235,3.529A4.384,4.384,0,0,1,28.811.176,4.434,4.434,0,0,1,25.55-1.042a4.761,4.761,0,0,1-1.327-3.3Zm2.962.185a3.538,3.538,0,0,0,.413,1.934,1.376,1.376,0,0,0,1.222.615q1.582,0,1.617-2.435v-.3q0-2.558-1.635-2.558-1.485,0-1.608,2.206ZM29.2-13.5h3.129l-2.443,2.76-2.417,0Zm8.218,3.99.1,1.116a3.225,3.225,0,0,1,2.716-1.292,2.713,2.713,0,0,1,2.219.888,4.226,4.226,0,0,1,.76,2.672V0H40.236V-6a1.6,1.6,0,0,0-.29-1.059A1.342,1.342,0,0,0,38.892-7.4a1.413,1.413,0,0,0-1.292.686V0H34.638V-9.51Z" transform="translate(1048 5044.607)" fill="#1b3f5e"/>
    <path id="Trazado_246552" data-name="Trazado 246552" d="M-43.937,0V-12.8h4.122a6.064,6.064,0,0,1,3.05.769,5.406,5.406,0,0,1,2.114,2.171,6.554,6.554,0,0,1,.769,3.142v.589a6.592,6.592,0,0,1-.743,3.151A5.429,5.429,0,0,1-36.716-.8a5.93,5.93,0,0,1-3.01.8Zm3.085-10.415v8.042h1.072a2.4,2.4,0,0,0,2.039-.945,4.63,4.63,0,0,0,.712-2.808V-6.68a4.592,4.592,0,0,0-.712-2.795,2.442,2.442,0,0,0-2.074-.94ZM-29.312,0h-2.971V-9.51h2.971Zm-3.146-11.962A1.322,1.322,0,0,1-32-13a1.724,1.724,0,0,1,1.187-.4,1.724,1.724,0,0,1,1.187.4,1.322,1.322,0,0,1,.457,1.037,1.322,1.322,0,0,1-.457,1.037,1.724,1.724,0,0,1-1.187.4,1.724,1.724,0,0,1-1.187-.4A1.322,1.322,0,0,1-32.458-11.962Zm10.723,5.133-.976-.07a1.752,1.752,0,0,0-1.793.879V0h-2.962V-9.51h2.777l.1,1.222a2.294,2.294,0,0,1,2.083-1.4,2.888,2.888,0,0,1,.826.105Zm5.669,7a4.889,4.889,0,0,1-3.542-1.305,4.507,4.507,0,0,1-1.354-3.4v-.246a5.84,5.84,0,0,1,.541-2.575,3.955,3.955,0,0,1,1.578-1.727,4.763,4.763,0,0,1,2.461-.611,4.117,4.117,0,0,1,3.164,1.244,4.887,4.887,0,0,1,1.16,3.467v1.151h-5.889a2.135,2.135,0,0,0,.694,1.257,2.066,2.066,0,0,0,1.389.457,2.662,2.662,0,0,0,2.2-.984l1.354,1.6A3.784,3.784,0,0,1-13.882-.277,5.3,5.3,0,0,1-16.066.176ZM-16.4-7.4q-1.3,0-1.547,1.723h2.988v-.229a1.467,1.467,0,0,0-.36-1.1A1.434,1.434,0,0,0-16.4-7.4Zm9.554,5.291a1.317,1.317,0,0,0,.967-.338,1.241,1.241,0,0,0,.334-.945h2.777A3.288,3.288,0,0,1-3.889-.826a4.168,4.168,0,0,1-2.887,1,4.22,4.22,0,0,1-3.27-1.3,5.125,5.125,0,0,1-1.2-3.6v-.123A5.792,5.792,0,0,1-10.709-7.4a3.872,3.872,0,0,1,1.534-1.7A4.573,4.573,0,0,1-6.8-9.686,4.116,4.116,0,0,1-3.858-8.657a3.647,3.647,0,0,1,1.09,2.786H-5.546A1.626,1.626,0,0,0-5.906-7a1.244,1.244,0,0,0-.967-.4q-1.151,0-1.345,1.468a10.357,10.357,0,0,0-.062,1.283,4.068,4.068,0,0,0,.343,1.986A1.187,1.187,0,0,0-6.847-2.109Zm8.78-9.765V-9.51H3.5v2.057H1.934V-3.1a1.111,1.111,0,0,0,.193.747,1.037,1.037,0,0,0,.765.211A4.345,4.345,0,0,0,3.63-2.2V-.079A5.466,5.466,0,0,1,1.96.176,3.1,3.1,0,0,1-.3-.545a2.954,2.954,0,0,1-.729-2.188v-4.72H-2.241V-9.51h1.213v-2.364ZM4.025-4.843a5.613,5.613,0,0,1,.554-2.536A3.96,3.96,0,0,1,6.17-9.088a4.791,4.791,0,0,1,2.435-.6,4.373,4.373,0,0,1,3.366,1.323,5.076,5.076,0,0,1,1.23,3.6v.105a4.925,4.925,0,0,1-1.235,3.529A4.384,4.384,0,0,1,8.622.176,4.434,4.434,0,0,1,5.361-1.042a4.761,4.761,0,0,1-1.327-3.3Zm2.962.185A3.538,3.538,0,0,0,7.4-2.725a1.376,1.376,0,0,0,1.222.615q1.582,0,1.617-2.435v-.3Q10.239-7.4,8.6-7.4,7.119-7.4,7-5.194ZM20.259-6.829l-.976-.07a1.752,1.752,0,0,0-1.793.879V0H14.528V-9.51h2.777l.1,1.222a2.294,2.294,0,0,1,2.083-1.4,2.888,2.888,0,0,1,.826.105Zm5.177,2a5.809,5.809,0,0,1,.976-3.56,3.211,3.211,0,0,1,2.725-1.3,2.731,2.731,0,0,1,2.145,1V-13.5h2.971V0H31.588l-.149-1.02a2.8,2.8,0,0,1-2.32,1.2,3.205,3.205,0,0,1-2.689-1.3A5.993,5.993,0,0,1,25.436-4.825Zm2.962.185q0,2.531,1.477,2.531a1.458,1.458,0,0,0,1.406-.826V-6.557A1.419,1.419,0,0,0,29.892-7.4q-1.371,0-1.485,2.215ZM40.535.176a4.889,4.889,0,0,1-3.542-1.305,4.507,4.507,0,0,1-1.354-3.4v-.246a5.84,5.84,0,0,1,.541-2.575,3.955,3.955,0,0,1,1.578-1.727,4.763,4.763,0,0,1,2.461-.611,4.117,4.117,0,0,1,3.164,1.244,4.887,4.887,0,0,1,1.16,3.467v1.151H38.654a2.135,2.135,0,0,0,.694,1.257,2.066,2.066,0,0,0,1.389.457,2.662,2.662,0,0,0,2.2-.984l1.354,1.6A3.784,3.784,0,0,1,42.719-.277,5.3,5.3,0,0,1,40.535.176ZM40.2-7.4q-1.3,0-1.547,1.723h2.988v-.229a1.467,1.467,0,0,0-.36-1.1A1.434,1.434,0,0,0,40.2-7.4ZM-38.048,20.315a5.735,5.735,0,0,1-1,3.538,3.2,3.2,0,0,1-2.694,1.323,2.742,2.742,0,0,1-2.153-.958v4.438h-2.962V15.49h2.769l.088.879a2.742,2.742,0,0,1,2.241-1.055,3.224,3.224,0,0,1,2.733,1.3,5.805,5.805,0,0,1,.976,3.564Zm-2.962-.185q0-2.531-1.477-2.531a1.394,1.394,0,0,0-1.406.756V22.1a1.439,1.439,0,0,0,1.424.791q1.415,0,1.459-2.443Zm10.02-1.96-.976-.07a1.752,1.752,0,0,0-1.793.879V25h-2.962V15.49h2.777l.1,1.222a2.294,2.294,0,0,1,2.083-1.4,2.888,2.888,0,0,1,.826.105Zm.378,1.986a5.613,5.613,0,0,1,.554-2.536,3.96,3.96,0,0,1,1.591-1.709,4.791,4.791,0,0,1,2.435-.6,4.373,4.373,0,0,1,3.366,1.323,5.076,5.076,0,0,1,1.23,3.6v.105a4.925,4.925,0,0,1-1.235,3.529,4.384,4.384,0,0,1-3.344,1.305,4.434,4.434,0,0,1-3.261-1.217,4.761,4.761,0,0,1-1.327-3.3Zm2.962.185a3.538,3.538,0,0,0,.413,1.934,1.376,1.376,0,0,0,1.222.615q1.582,0,1.617-2.435v-.3q0-2.558-1.635-2.558-1.485,0-1.608,2.206Zm7.146-.167a5.809,5.809,0,0,1,.976-3.56,3.211,3.211,0,0,1,2.725-1.3,2.731,2.731,0,0,1,2.145,1V11.5h2.971V25h-2.663l-.149-1.02a2.8,2.8,0,0,1-2.32,1.2,3.205,3.205,0,0,1-2.689-1.3A5.993,5.993,0,0,1-20.5,20.175Zm2.962.185q0,2.531,1.477,2.531a1.458,1.458,0,0,0,1.406-.826V18.443a1.419,1.419,0,0,0-1.389-.844q-1.371,0-1.485,2.215Zm13.2,3.612a3.054,3.054,0,0,1-2.54,1.2,3,3,0,0,1-2.369-.91,3.826,3.826,0,0,1-.8-2.615V15.49h2.962v6.179a1.065,1.065,0,0,0,1.187,1.222,1.548,1.548,0,0,0,1.45-.729V15.49h2.979V25H-4.254Zm8.508-1.081a1.317,1.317,0,0,0,.967-.338,1.241,1.241,0,0,0,.334-.945H8.244a3.288,3.288,0,0,1-1.121,2.566,4.168,4.168,0,0,1-2.887,1,4.22,4.22,0,0,1-3.27-1.3,5.125,5.125,0,0,1-1.2-3.6v-.123A5.792,5.792,0,0,1,.3,17.6a3.872,3.872,0,0,1,1.534-1.7,4.573,4.573,0,0,1,2.373-.593,4.116,4.116,0,0,1,2.944,1.028,3.647,3.647,0,0,1,1.09,2.786H5.467A1.626,1.626,0,0,0,5.106,18a1.244,1.244,0,0,0-.967-.4q-1.151,0-1.345,1.468a10.357,10.357,0,0,0-.062,1.283,4.068,4.068,0,0,0,.343,1.986A1.187,1.187,0,0,0,4.166,22.891Zm9.352,0a1.317,1.317,0,0,0,.967-.338,1.241,1.241,0,0,0,.334-.945H17.6a3.288,3.288,0,0,1-1.121,2.566,4.168,4.168,0,0,1-2.887,1,4.22,4.22,0,0,1-3.27-1.3,5.125,5.125,0,0,1-1.2-3.6v-.123A5.792,5.792,0,0,1,9.655,17.6a3.872,3.872,0,0,1,1.534-1.7,4.573,4.573,0,0,1,2.373-.593,4.116,4.116,0,0,1,2.944,1.028,3.647,3.647,0,0,1,1.09,2.786H14.818A1.626,1.626,0,0,0,14.458,18a1.244,1.244,0,0,0-.967-.4q-1.151,0-1.345,1.468a10.357,10.357,0,0,0-.062,1.283,4.068,4.068,0,0,0,.343,1.986A1.187,1.187,0,0,0,13.518,22.891ZM21.973,25H19V15.49h2.971ZM18.826,13.038A1.322,1.322,0,0,1,19.283,12a1.943,1.943,0,0,1,2.373,0,1.405,1.405,0,0,1,0,2.074,1.943,1.943,0,0,1-2.373,0A1.322,1.322,0,0,1,18.826,13.038Zm4.6,7.119a5.613,5.613,0,0,1,.554-2.536,3.96,3.96,0,0,1,1.591-1.709,4.791,4.791,0,0,1,2.435-.6,4.373,4.373,0,0,1,3.366,1.323,5.076,5.076,0,0,1,1.23,3.6v.105a4.925,4.925,0,0,1-1.235,3.529,4.384,4.384,0,0,1-3.344,1.305,4.434,4.434,0,0,1-3.261-1.217,4.761,4.761,0,0,1-1.327-3.3Zm2.962.185a3.538,3.538,0,0,0,.413,1.934,1.376,1.376,0,0,0,1.222.615q1.582,0,1.617-2.435v-.3Q29.637,17.6,28,17.6q-1.485,0-1.608,2.206ZM28.406,11.5h3.129l-2.443,2.76-2.417,0Zm8.218,3.99.1,1.116a3.225,3.225,0,0,1,2.716-1.292,2.713,2.713,0,0,1,2.219.888,4.226,4.226,0,0,1,.76,2.672V25H39.445V19a1.6,1.6,0,0,0-.29-1.059A1.342,1.342,0,0,0,38.1,17.6a1.413,1.413,0,0,0-1.292.686V25H33.847V15.49Z" transform="translate(1292 5033.5)" fill="#1b3f5e"/>
    <path id="Trazado_246559" data-name="Trazado 246559" d="M-62.912-2.391H-67.14L-67.878,0h-3.3l4.693-12.8h2.9L-58.852,0h-3.313ZM-66.4-4.772h2.751l-1.38-4.438Zm7.972-.053a5.809,5.809,0,0,1,.976-3.56,3.211,3.211,0,0,1,2.725-1.3,2.731,2.731,0,0,1,2.145,1V-13.5h2.971V0h-2.663l-.149-1.02a2.8,2.8,0,0,1-2.32,1.2,3.205,3.205,0,0,1-2.689-1.3A5.993,5.993,0,0,1-58.43-4.825Zm2.962.185q0,2.531,1.477,2.531a1.458,1.458,0,0,0,1.406-.826V-6.557A1.419,1.419,0,0,0-53.974-7.4q-1.371,0-1.485,2.215ZM-45.132-9.51l.1,1.116a3.27,3.27,0,0,1,2.716-1.292,2.407,2.407,0,0,1,2.435,1.433A3.165,3.165,0,0,1-37.09-9.686q2.892,0,2.971,3.5V0H-37.09V-6a1.813,1.813,0,0,0-.246-1.063,1.048,1.048,0,0,0-.9-.334,1.4,1.4,0,0,0-1.31.782l.009.123V0H-42.5V-5.985a1.906,1.906,0,0,0-.237-1.081,1.045,1.045,0,0,0-.905-.334,1.42,1.42,0,0,0-1.3.782V0h-2.962V-9.51ZM-29.3,0h-2.971V-9.51H-29.3Zm-3.146-11.962A1.322,1.322,0,0,1-31.992-13a1.724,1.724,0,0,1,1.187-.4,1.724,1.724,0,0,1,1.187.4,1.322,1.322,0,0,1,.457,1.037,1.322,1.322,0,0,1-.457,1.037,1.724,1.724,0,0,1-1.187.4,1.724,1.724,0,0,1-1.187-.4A1.322,1.322,0,0,1-32.449-11.962Zm7.69,2.452.1,1.116a3.225,3.225,0,0,1,2.716-1.292,2.713,2.713,0,0,1,2.219.888,4.226,4.226,0,0,1,.76,2.672V0h-2.971V-6a1.6,1.6,0,0,0-.29-1.059A1.342,1.342,0,0,0-23.282-7.4a1.413,1.413,0,0,0-1.292.686V0h-2.962V-9.51ZM-14.2,0h-2.971V-9.51H-14.2ZM-17.35-11.962A1.322,1.322,0,0,1-16.893-13a1.724,1.724,0,0,1,1.187-.4,1.724,1.724,0,0,1,1.187.4,1.322,1.322,0,0,1,.457,1.037,1.322,1.322,0,0,1-.457,1.037,1.724,1.724,0,0,1-1.187.4,1.724,1.724,0,0,1-1.187-.4A1.322,1.322,0,0,1-17.35-11.962ZM-7.4-2.672a.684.684,0,0,0-.4-.606,6.016,6.016,0,0,0-1.5-.475A6.853,6.853,0,0,1-11.127-4.4a3.062,3.062,0,0,1-1.1-.971A2.319,2.319,0,0,1-12.6-6.68a2.628,2.628,0,0,1,1.081-2.158,4.453,4.453,0,0,1,2.83-.848,4.934,4.934,0,0,1,3.023.853A2.666,2.666,0,0,1-4.526-6.592H-7.5q0-1.143-1.2-1.143a1.194,1.194,0,0,0-.782.259.8.8,0,0,0-.316.646.737.737,0,0,0,.387.642,3.654,3.654,0,0,0,1.235.4,10.671,10.671,0,0,1,1.49.378A2.706,2.706,0,0,1-4.544-2.76,2.491,2.491,0,0,1-5.7-.642,5.068,5.068,0,0,1-8.692.176a5.172,5.172,0,0,1-2.18-.439,3.645,3.645,0,0,1-1.494-1.2A2.707,2.707,0,0,1-12.9-3.05h2.769a1.145,1.145,0,0,0,.439.962,1.808,1.808,0,0,0,1.081.3A1.422,1.422,0,0,0-7.7-2.03.787.787,0,0,0-7.4-2.672Zm7.69-9.2V-9.51H1.854v2.057H.29V-3.1a1.111,1.111,0,0,0,.193.747,1.037,1.037,0,0,0,.765.211A4.345,4.345,0,0,0,1.986-2.2V-.079A5.466,5.466,0,0,1,.316.176,3.1,3.1,0,0,1-1.942-.545a2.954,2.954,0,0,1-.729-2.188v-4.72H-3.885V-9.51h1.213v-2.364ZM8.771-6.829,7.8-6.9A1.752,1.752,0,0,0,6-6.021V0H3.041V-9.51H5.818l.1,1.222A2.294,2.294,0,0,1,8-9.686a2.888,2.888,0,0,1,.826.105ZM14.933,0a3.344,3.344,0,0,1-.281-.853A2.754,2.754,0,0,1,12.366.176a3.374,3.374,0,0,1-2.285-.813,2.588,2.588,0,0,1-.94-2.043,2.66,2.66,0,0,1,1.143-2.338,5.821,5.821,0,0,1,3.322-.791h.914v-.5q0-1.316-1.134-1.316a.927.927,0,0,0-1.055,1.042H9.369a2.655,2.655,0,0,1,1.173-2.239,4.931,4.931,0,0,1,2.993-.86,4.323,4.323,0,0,1,2.874.888A3.086,3.086,0,0,1,17.49-6.363v4.21a4.311,4.311,0,0,0,.4,2V0ZM13.078-1.934A1.652,1.652,0,0,0,14-2.171a1.487,1.487,0,0,0,.523-.536V-4.228h-.861q-1.547,0-1.547,1.389a.848.848,0,0,0,.272.655A.986.986,0,0,0,13.078-1.934ZM23.15-2.109a1.317,1.317,0,0,0,.967-.338,1.241,1.241,0,0,0,.334-.945h2.777A3.288,3.288,0,0,1,26.108-.826a4.168,4.168,0,0,1-2.887,1,4.22,4.22,0,0,1-3.27-1.3,5.125,5.125,0,0,1-1.2-3.6v-.123A5.792,5.792,0,0,1,19.288-7.4a3.872,3.872,0,0,1,1.534-1.7,4.573,4.573,0,0,1,2.373-.593,4.116,4.116,0,0,1,2.944,1.028,3.647,3.647,0,0,1,1.09,2.786H24.451A1.626,1.626,0,0,0,24.091-7a1.244,1.244,0,0,0-.967-.4q-1.151,0-1.345,1.468a10.357,10.357,0,0,0-.062,1.283,4.068,4.068,0,0,0,.343,1.986A1.187,1.187,0,0,0,23.15-2.109ZM31.605,0H28.635V-9.51h2.971ZM28.459-11.962A1.322,1.322,0,0,1,28.916-13a1.724,1.724,0,0,1,1.187-.4,1.724,1.724,0,0,1,1.187.4,1.322,1.322,0,0,1,.457,1.037,1.322,1.322,0,0,1-.457,1.037,1.724,1.724,0,0,1-1.187.4,1.724,1.724,0,0,1-1.187-.4A1.322,1.322,0,0,1,28.459-11.962Zm4.6,7.119a5.613,5.613,0,0,1,.554-2.536A3.96,3.96,0,0,1,35.2-9.088a4.791,4.791,0,0,1,2.435-.6A4.373,4.373,0,0,1,41-8.363a5.076,5.076,0,0,1,1.23,3.6v.105A4.925,4.925,0,0,1,41-1.129,4.384,4.384,0,0,1,37.652.176a4.434,4.434,0,0,1-3.261-1.217,4.761,4.761,0,0,1-1.327-3.3Zm2.962.185a3.538,3.538,0,0,0,.413,1.934,1.376,1.376,0,0,0,1.222.615q1.582,0,1.617-2.435v-.3q0-2.558-1.635-2.558-1.485,0-1.608,2.206ZM38.039-13.5h3.129l-2.443,2.76-2.417,0Zm8.218,3.99.1,1.116a3.225,3.225,0,0,1,2.716-1.292,2.713,2.713,0,0,1,2.219.888,4.226,4.226,0,0,1,.76,2.672V0H49.078V-6a1.6,1.6,0,0,0-.29-1.059A1.342,1.342,0,0,0,47.733-7.4a1.413,1.413,0,0,0-1.292.686V0H43.479V-9.51ZM61.972-4.148,63.554-9.51h3.173l-3.876,11.1-.167.4a2.944,2.944,0,0,1-2.918,1.846,4.642,4.642,0,0,1-1.222-.175V1.556h.387a2.026,2.026,0,0,0,.954-.18,1.094,1.094,0,0,0,.488-.647L60.609.1,57.3-9.51h3.164Zm-130.8,22.319-.976-.07a1.752,1.752,0,0,0-1.793.879V25h-2.962V15.49h2.777l.1,1.222a2.294,2.294,0,0,1,2.083-1.4,2.888,2.888,0,0,1,.826.105Zm5.669,7A4.889,4.889,0,0,1-66.7,23.871a4.507,4.507,0,0,1-1.354-3.4v-.246a5.84,5.84,0,0,1,.541-2.575,3.955,3.955,0,0,1,1.578-1.727,4.763,4.763,0,0,1,2.461-.611,4.117,4.117,0,0,1,3.164,1.244,4.887,4.887,0,0,1,1.16,3.467v1.151h-5.889a2.135,2.135,0,0,0,.694,1.257,2.066,2.066,0,0,0,1.389.457,2.662,2.662,0,0,0,2.2-.984l1.354,1.6a3.784,3.784,0,0,1-1.569,1.217A5.3,5.3,0,0,1-63.158,25.176Zm-.334-7.576q-1.3,0-1.547,1.723h2.988v-.229a1.467,1.467,0,0,0-.36-1.1A1.434,1.434,0,0,0-63.492,17.6Zm9.554,5.291a1.317,1.317,0,0,0,.967-.338,1.241,1.241,0,0,0,.334-.945h2.777a3.288,3.288,0,0,1-1.121,2.566,4.168,4.168,0,0,1-2.887,1,4.22,4.22,0,0,1-3.27-1.3,5.125,5.125,0,0,1-1.2-3.6v-.123A5.792,5.792,0,0,1-57.8,17.6a3.872,3.872,0,0,1,1.534-1.7,4.573,4.573,0,0,1,2.373-.593,4.116,4.116,0,0,1,2.944,1.028,3.647,3.647,0,0,1,1.09,2.786h-2.777A1.626,1.626,0,0,0-53,18a1.244,1.244,0,0,0-.967-.4q-1.151,0-1.345,1.468a10.357,10.357,0,0,0-.062,1.283,4.068,4.068,0,0,0,.343,1.986A1.187,1.187,0,0,0-53.938,22.891Zm11,1.081a3.054,3.054,0,0,1-2.54,1.2,3,3,0,0,1-2.369-.91,3.826,3.826,0,0,1-.8-2.615V15.49h2.962v6.179a1.065,1.065,0,0,0,1.187,1.222,1.548,1.548,0,0,0,1.45-.729V15.49h2.979V25h-2.777Zm10.239-5.8-.976-.07a1.752,1.752,0,0,0-1.793.879V25h-2.962V15.49h2.777l.1,1.222a2.294,2.294,0,0,1,2.083-1.4,2.888,2.888,0,0,1,.826.105Zm6.047,4.157a.684.684,0,0,0-.4-.606,6.016,6.016,0,0,0-1.5-.475,6.853,6.853,0,0,1-1.828-.646,3.062,3.062,0,0,1-1.1-.971,2.319,2.319,0,0,1-.378-1.31,2.628,2.628,0,0,1,1.081-2.158,4.453,4.453,0,0,1,2.83-.848,4.934,4.934,0,0,1,3.023.853,2.666,2.666,0,0,1,1.143,2.241h-2.971q0-1.143-1.2-1.143a1.194,1.194,0,0,0-.782.259.8.8,0,0,0-.316.646.737.737,0,0,0,.387.642,3.654,3.654,0,0,0,1.235.4,10.671,10.671,0,0,1,1.49.378A2.706,2.706,0,0,1-23.8,22.24a2.491,2.491,0,0,1-1.156,2.118,5.068,5.068,0,0,1-2.993.817,5.172,5.172,0,0,1-2.18-.439,3.645,3.645,0,0,1-1.494-1.2,2.707,2.707,0,0,1-.536-1.591h2.769a1.145,1.145,0,0,0,.439.962,1.808,1.808,0,0,0,1.081.3,1.422,1.422,0,0,0,.91-.246A.787.787,0,0,0-26.657,22.328Zm3.867-2.171a5.613,5.613,0,0,1,.554-2.536,3.96,3.96,0,0,1,1.591-1.709,4.791,4.791,0,0,1,2.435-.6,4.373,4.373,0,0,1,3.366,1.323,5.076,5.076,0,0,1,1.23,3.6v.105a4.925,4.925,0,0,1-1.235,3.529,4.384,4.384,0,0,1-3.344,1.305,4.434,4.434,0,0,1-3.261-1.217,4.761,4.761,0,0,1-1.327-3.3Zm2.962.185a3.538,3.538,0,0,0,.413,1.934,1.376,1.376,0,0,0,1.222.615q1.582,0,1.617-2.435v-.3q0-2.558-1.635-2.558-1.485,0-1.608,2.206Zm12.5,1.986a.684.684,0,0,0-.4-.606,6.016,6.016,0,0,0-1.5-.475,6.853,6.853,0,0,1-1.828-.646,3.062,3.062,0,0,1-1.1-.971,2.319,2.319,0,0,1-.378-1.31,2.628,2.628,0,0,1,1.081-2.158,4.453,4.453,0,0,1,2.83-.848,4.934,4.934,0,0,1,3.023.853,2.666,2.666,0,0,1,1.143,2.241H-7.427q0-1.143-1.2-1.143a1.194,1.194,0,0,0-.782.259.8.8,0,0,0-.316.646.737.737,0,0,0,.387.642,3.654,3.654,0,0,0,1.235.4,10.671,10.671,0,0,1,1.49.378A2.706,2.706,0,0,1-4.474,22.24a2.491,2.491,0,0,1-1.156,2.118,5.068,5.068,0,0,1-2.993.817,5.172,5.172,0,0,1-2.18-.439,3.645,3.645,0,0,1-1.494-1.2,2.707,2.707,0,0,1-.536-1.591h2.769a1.145,1.145,0,0,0,.439.962,1.808,1.808,0,0,0,1.081.3,1.422,1.422,0,0,0,.91-.246A.787.787,0,0,0-7.33,22.328ZM4.289,16.51a2.964,2.964,0,0,1,2.426-1.2,2.956,2.956,0,0,1,2.373.932A4.186,4.186,0,0,1,9.905,19v6H6.935V19.067a1.674,1.674,0,0,0-.308-1.112A1.322,1.322,0,0,0,5.581,17.6a1.424,1.424,0,0,0-1.292.58V25H1.327V11.5H4.289Zm12.929,7.462a3.054,3.054,0,0,1-2.54,1.2,3,3,0,0,1-2.369-.91,3.826,3.826,0,0,1-.8-2.615V15.49h2.962v6.179a1.065,1.065,0,0,0,1.187,1.222,1.548,1.548,0,0,0,1.45-.729V15.49h2.979V25H17.306ZM24.5,15.49l.1,1.116a3.27,3.27,0,0,1,2.716-1.292,2.407,2.407,0,0,1,2.435,1.433,3.165,3.165,0,0,1,2.795-1.433q2.892,0,2.971,3.5V25H32.546V19a1.813,1.813,0,0,0-.246-1.063,1.048,1.048,0,0,0-.9-.334,1.4,1.4,0,0,0-1.31.782l.009.123V25H27.132V19.015a1.906,1.906,0,0,0-.237-1.081,1.045,1.045,0,0,0-.905-.334,1.42,1.42,0,0,0-1.3.782V25H21.727V15.49ZM42.565,25a3.344,3.344,0,0,1-.281-.853A2.754,2.754,0,0,1,40,25.176a3.374,3.374,0,0,1-2.285-.813,2.588,2.588,0,0,1-.94-2.043,2.66,2.66,0,0,1,1.143-2.338,5.821,5.821,0,0,1,3.322-.791h.914v-.5q0-1.316-1.134-1.316a.927.927,0,0,0-1.055,1.042H37a2.655,2.655,0,0,1,1.173-2.239,4.931,4.931,0,0,1,2.993-.86,4.323,4.323,0,0,1,2.874.888,3.086,3.086,0,0,1,1.081,2.435v4.21a4.311,4.311,0,0,0,.4,2V25Zm-1.854-1.934a1.652,1.652,0,0,0,.918-.237,1.487,1.487,0,0,0,.523-.536V20.772h-.861q-1.547,0-1.547,1.389a.848.848,0,0,0,.272.655A.986.986,0,0,0,40.711,23.066Zm8.771-7.576.1,1.116a3.225,3.225,0,0,1,2.716-1.292,2.713,2.713,0,0,1,2.219.888,4.226,4.226,0,0,1,.76,2.672V25H52.3V19a1.6,1.6,0,0,0-.29-1.059,1.342,1.342,0,0,0-1.055-.338,1.413,1.413,0,0,0-1.292.686V25H46.705V15.49Zm7.058,4.667a5.613,5.613,0,0,1,.554-2.536,3.96,3.96,0,0,1,1.591-1.709,4.791,4.791,0,0,1,2.435-.6,4.373,4.373,0,0,1,3.366,1.323,5.076,5.076,0,0,1,1.23,3.6v.105a4.925,4.925,0,0,1-1.235,3.529,4.384,4.384,0,0,1-3.344,1.305,4.434,4.434,0,0,1-3.261-1.217,4.761,4.761,0,0,1-1.327-3.3Zm2.962.185a3.538,3.538,0,0,0,.413,1.934,1.376,1.376,0,0,0,1.222.615q1.582,0,1.617-2.435v-.3q0-2.558-1.635-2.558-1.485,0-1.608,2.206ZM72,22.328a.684.684,0,0,0-.4-.606,6.016,6.016,0,0,0-1.5-.475,6.853,6.853,0,0,1-1.828-.646,3.062,3.062,0,0,1-1.1-.971,2.319,2.319,0,0,1-.378-1.31,2.628,2.628,0,0,1,1.081-2.158,4.453,4.453,0,0,1,2.83-.848,4.934,4.934,0,0,1,3.023.853,2.666,2.666,0,0,1,1.143,2.241H71.9q0-1.143-1.2-1.143a1.194,1.194,0,0,0-.782.259.8.8,0,0,0-.316.646.737.737,0,0,0,.387.642,3.654,3.654,0,0,0,1.235.4,10.671,10.671,0,0,1,1.49.378,2.706,2.706,0,0,1,2.145,2.646A2.491,2.491,0,0,1,73.7,24.358a5.068,5.068,0,0,1-2.993.817,5.172,5.172,0,0,1-2.18-.439,3.645,3.645,0,0,1-1.494-1.2A2.707,2.707,0,0,1,66.5,21.95h2.769a1.145,1.145,0,0,0,.439.962,1.808,1.808,0,0,0,1.081.3,1.422,1.422,0,0,0,.91-.246A.787.787,0,0,0,72,22.328Z" transform="translate(554.083 5032.107)" fill="#1b3f5e"/>
    <path id="Trazado_246560" data-name="Trazado 246560" d="M6.174,6.2H9.25v8.78a4.2,4.2,0,0,1-.567,2.18A3.87,3.87,0,0,1,7.1,18.648a4.835,4.835,0,0,1-2.263.527,4.661,4.661,0,0,1-3.252-1.055,3.833,3.833,0,0,1-1.16-2.988H3.52a2.113,2.113,0,0,0,.3,1.274,1.2,1.2,0,0,0,1.015.4,1.148,1.148,0,0,0,.989-.479,2.251,2.251,0,0,0,.347-1.34Zm9.483,12.973a4.889,4.889,0,0,1-3.542-1.305,4.507,4.507,0,0,1-1.354-3.4v-.246a5.84,5.84,0,0,1,.541-2.575A3.955,3.955,0,0,1,12.88,9.925a4.763,4.763,0,0,1,2.461-.611A4.117,4.117,0,0,1,18.5,10.558a4.887,4.887,0,0,1,1.16,3.467v1.151H13.776a2.135,2.135,0,0,0,.694,1.257,2.066,2.066,0,0,0,1.389.457,2.662,2.662,0,0,0,2.2-.984l1.354,1.6a3.784,3.784,0,0,1-1.569,1.217A5.3,5.3,0,0,1,15.657,19.176ZM15.323,11.6q-1.3,0-1.547,1.723h2.988v-.229a1.467,1.467,0,0,0-.36-1.1A1.434,1.434,0,0,0,15.323,11.6ZM21.511,19V11.547h-1.38V9.49h1.38V8.734a3.286,3.286,0,0,1,.958-2.522,3.785,3.785,0,0,1,2.689-.9,5.89,5.89,0,0,1,1.389.185l.009,2.18a2.706,2.706,0,0,0-.729-.079q-1.345,0-1.345,1.16V9.49h1.854v2.057H24.481V19Zm10.468.176a4.889,4.889,0,0,1-3.542-1.305,4.507,4.507,0,0,1-1.354-3.4v-.246a5.84,5.84,0,0,1,.541-2.575A3.955,3.955,0,0,1,29.2,9.925a4.763,4.763,0,0,1,2.461-.611,4.117,4.117,0,0,1,3.164,1.244,4.887,4.887,0,0,1,1.16,3.467v1.151H30.1a2.135,2.135,0,0,0,.694,1.257,2.066,2.066,0,0,0,1.389.457,2.662,2.662,0,0,0,2.2-.984l1.354,1.6a3.784,3.784,0,0,1-1.569,1.217A5.3,5.3,0,0,1,31.979,19.176ZM31.645,11.6q-1.3,0-1.547,1.723h2.988v-.229a1.467,1.467,0,0,0-.36-1.1A1.434,1.434,0,0,0,31.645,11.6Zm9.642,2.575a5.809,5.809,0,0,1,.976-3.56,3.211,3.211,0,0,1,2.725-1.3,2.731,2.731,0,0,1,2.145,1V5.5H50.1V19H47.438l-.149-1.02a2.8,2.8,0,0,1-2.32,1.2,3.205,3.205,0,0,1-2.689-1.3A5.993,5.993,0,0,1,41.286,14.175Zm2.962.185q0,2.531,1.477,2.531a1.458,1.458,0,0,0,1.406-.826V12.443a1.419,1.419,0,0,0-1.389-.844q-1.371,0-1.485,2.215Zm12.138,4.816a4.889,4.889,0,0,1-3.542-1.305,4.507,4.507,0,0,1-1.354-3.4v-.246a5.84,5.84,0,0,1,.541-2.575,3.955,3.955,0,0,1,1.578-1.727,4.763,4.763,0,0,1,2.461-.611,4.117,4.117,0,0,1,3.164,1.244,4.887,4.887,0,0,1,1.16,3.467v1.151H54.5a2.135,2.135,0,0,0,.694,1.257,2.066,2.066,0,0,0,1.389.457,2.662,2.662,0,0,0,2.2-.984l1.354,1.6a3.784,3.784,0,0,1-1.569,1.217A5.3,5.3,0,0,1,56.386,19.176ZM56.052,11.6q-1.3,0-1.547,1.723h2.988v-.229a1.467,1.467,0,0,0-.36-1.1A1.434,1.434,0,0,0,56.052,11.6ZM69.517,7.126V9.49h1.564v2.057H69.517V15.9a1.111,1.111,0,0,0,.193.747,1.037,1.037,0,0,0,.765.211,4.345,4.345,0,0,0,.738-.053v2.118a5.466,5.466,0,0,1-1.67.255,3.1,3.1,0,0,1-2.259-.721,2.954,2.954,0,0,1-.729-2.188v-4.72H65.342V9.49h1.213V7.126ZM77.6,19a3.344,3.344,0,0,1-.281-.853,2.754,2.754,0,0,1-2.285,1.028,3.374,3.374,0,0,1-2.285-.813,2.588,2.588,0,0,1-.94-2.043,2.66,2.66,0,0,1,1.143-2.338,5.821,5.821,0,0,1,3.322-.791h.914v-.5q0-1.316-1.134-1.316A.927.927,0,0,0,75,12.413H72.039a2.655,2.655,0,0,1,1.173-2.239,4.931,4.931,0,0,1,2.993-.86,4.323,4.323,0,0,1,2.874.888,3.086,3.086,0,0,1,1.081,2.435v4.21a4.311,4.311,0,0,0,.4,2V19Zm-1.854-1.934a1.652,1.652,0,0,0,.918-.237,1.487,1.487,0,0,0,.523-.536V14.772h-.861q-1.547,0-1.547,1.389a.848.848,0,0,0,.272.655A.986.986,0,0,0,75.748,17.066ZM84.924,19H81.953V5.5h2.971Zm6.425.176a4.889,4.889,0,0,1-3.542-1.305,4.507,4.507,0,0,1-1.354-3.4v-.246a5.84,5.84,0,0,1,.541-2.575,3.955,3.955,0,0,1,1.578-1.727,4.763,4.763,0,0,1,2.461-.611A4.117,4.117,0,0,1,94.2,10.558a4.887,4.887,0,0,1,1.16,3.467v1.151H89.468a2.135,2.135,0,0,0,.694,1.257,2.066,2.066,0,0,0,1.389.457,2.662,2.662,0,0,0,2.2-.984l1.354,1.6a3.784,3.784,0,0,1-1.569,1.217A5.3,5.3,0,0,1,91.349,19.176ZM91.015,11.6q-1.3,0-1.547,1.723h2.988v-.229a1.467,1.467,0,0,0-.36-1.1A1.434,1.434,0,0,0,91.015,11.6ZM99.268,9.49l.1,1.116a3.225,3.225,0,0,1,2.716-1.292,2.713,2.713,0,0,1,2.219.888,4.226,4.226,0,0,1,.76,2.672V19h-2.971V13a1.6,1.6,0,0,0-.29-1.059,1.342,1.342,0,0,0-1.055-.338,1.413,1.413,0,0,0-1.292.686V19H96.49V9.49Zm10.881-2.364V9.49h1.564v2.057h-1.564V15.9a1.111,1.111,0,0,0,.193.747,1.037,1.037,0,0,0,.765.211,4.345,4.345,0,0,0,.738-.053v2.118a5.466,5.466,0,0,1-1.67.255,3.1,3.1,0,0,1-2.259-.721,2.954,2.954,0,0,1-.729-2.188v-4.72h-1.213V9.49h1.213V7.126Zm2.092,7.031a5.613,5.613,0,0,1,.554-2.536,3.96,3.96,0,0,1,1.591-1.709,4.791,4.791,0,0,1,2.435-.6,4.373,4.373,0,0,1,3.366,1.323,5.076,5.076,0,0,1,1.23,3.6v.105a4.925,4.925,0,0,1-1.235,3.529,4.384,4.384,0,0,1-3.344,1.305,4.434,4.434,0,0,1-3.261-1.217,4.761,4.761,0,0,1-1.327-3.3Zm2.962.185a3.538,3.538,0,0,0,.413,1.934,1.376,1.376,0,0,0,1.222.615q1.582,0,1.617-2.435v-.3q0-2.558-1.635-2.558-1.485,0-1.608,2.206ZM31.913,35.51a3.251,3.251,0,0,1,4.8-.264A4.186,4.186,0,0,1,37.529,38v6H34.558V38.067a1.674,1.674,0,0,0-.308-1.112A1.322,1.322,0,0,0,33.2,36.6a1.424,1.424,0,0,0-1.292.58V44H28.951V30.5h2.962Zm12.929,7.462a3.054,3.054,0,0,1-2.54,1.2,3,3,0,0,1-2.369-.91,3.826,3.826,0,0,1-.8-2.615V34.49H42.09v6.179a1.065,1.065,0,0,0,1.187,1.222,1.548,1.548,0,0,0,1.45-.729V34.49h2.979V44H44.929Zm7.286-8.481.1,1.116a3.27,3.27,0,0,1,2.716-1.292,2.407,2.407,0,0,1,2.435,1.433,3.165,3.165,0,0,1,2.795-1.433q2.892,0,2.971,3.5V44H60.169V38a1.813,1.813,0,0,0-.246-1.063,1.048,1.048,0,0,0-.9-.334,1.4,1.4,0,0,0-1.31.782l.009.123V44H54.755V38.015a1.906,1.906,0,0,0-.237-1.081,1.045,1.045,0,0,0-.905-.334,1.42,1.42,0,0,0-1.3.782V44H49.35V34.49ZM70.189,44a3.344,3.344,0,0,1-.281-.853,2.754,2.754,0,0,1-2.285,1.028,3.374,3.374,0,0,1-2.285-.813,2.588,2.588,0,0,1-.94-2.043,2.66,2.66,0,0,1,1.143-2.338,5.821,5.821,0,0,1,3.322-.791h.914v-.5q0-1.316-1.134-1.316a.927.927,0,0,0-1.055,1.042H64.625A2.655,2.655,0,0,1,65.8,35.175a4.931,4.931,0,0,1,2.993-.86,4.323,4.323,0,0,1,2.874.888,3.086,3.086,0,0,1,1.081,2.435v4.21a4.311,4.311,0,0,0,.4,2V44Zm-1.854-1.934a1.652,1.652,0,0,0,.918-.237,1.487,1.487,0,0,0,.523-.536V39.772h-.861q-1.547,0-1.547,1.389a.848.848,0,0,0,.272.655A.986.986,0,0,0,68.334,42.066Zm8.771-7.576.1,1.116a3.225,3.225,0,0,1,2.716-1.292,2.713,2.713,0,0,1,2.219.888,4.226,4.226,0,0,1,.76,2.672V44H79.927V38a1.6,1.6,0,0,0-.29-1.059,1.342,1.342,0,0,0-1.055-.338,1.413,1.413,0,0,0-1.292.686V44H74.329V34.49Zm7.058,4.667a5.613,5.613,0,0,1,.554-2.536,3.96,3.96,0,0,1,1.591-1.709,4.791,4.791,0,0,1,2.435-.6,4.373,4.373,0,0,1,3.366,1.323,5.076,5.076,0,0,1,1.23,3.6v.105A4.925,4.925,0,0,1,92.1,42.871a4.384,4.384,0,0,1-3.344,1.305A4.434,4.434,0,0,1,85.5,42.958a4.761,4.761,0,0,1-1.327-3.3Zm2.962.185a3.538,3.538,0,0,0,.413,1.934,1.376,1.376,0,0,0,1.222.615q1.582,0,1.617-2.435v-.3q0-2.558-1.635-2.558-1.485,0-1.608,2.206Z" transform="translate(248 5015.107)" fill="#1b3f5e"/>
    <path id="Trazado_246554" data-name="Trazado 246554" d="M-61.422-4.333a4.673,4.673,0,0,1-.721,2.36,4.35,4.35,0,0,1-1.85,1.586,6.3,6.3,0,0,1-2.72.563,5.025,5.025,0,0,1-3.973-1.644,6.786,6.786,0,0,1-1.45-4.641v-.633a7.746,7.746,0,0,1,.655-3.292,4.961,4.961,0,0,1,1.885-2.18,5.26,5.26,0,0,1,2.848-.769A5.516,5.516,0,0,1-63-11.755,4.844,4.844,0,0,1-61.4-8.376h-3.076a2.292,2.292,0,0,0-.589-1.679,2.422,2.422,0,0,0-1.687-.51,1.843,1.843,0,0,0-1.687.861A5.536,5.536,0,0,0-69-6.952v.905a6.126,6.126,0,0,0,.514,2.927,1.882,1.882,0,0,0,1.771.879,2.369,2.369,0,0,0,1.626-.5,2.126,2.126,0,0,0,.6-1.591Zm.949-.51a5.613,5.613,0,0,1,.554-2.536,3.96,3.96,0,0,1,1.591-1.709,4.791,4.791,0,0,1,2.435-.6,4.373,4.373,0,0,1,3.366,1.323,5.076,5.076,0,0,1,1.23,3.6v.105a4.925,4.925,0,0,1-1.235,3.529A4.384,4.384,0,0,1-55.876.176a4.434,4.434,0,0,1-3.261-1.217,4.761,4.761,0,0,1-1.327-3.3Zm2.962.185A3.538,3.538,0,0,0-57.1-2.725a1.376,1.376,0,0,0,1.222.615q1.582,0,1.617-2.435v-.3q0-2.558-1.635-2.558-1.485,0-1.608,2.206ZM-47.193-9.51l.1,1.116A3.27,3.27,0,0,1-44.38-9.686a2.407,2.407,0,0,1,2.435,1.433,3.165,3.165,0,0,1,2.795-1.433q2.892,0,2.971,3.5V0h-2.971V-6A1.813,1.813,0,0,0-39.4-7.066a1.048,1.048,0,0,0-.9-.334,1.4,1.4,0,0,0-1.31.782l.009.123V0h-2.971V-5.985A1.906,1.906,0,0,0-44.8-7.066a1.045,1.045,0,0,0-.905-.334,1.42,1.42,0,0,0-1.3.782V0H-49.97V-9.51ZM-29.887.176a4.889,4.889,0,0,1-3.542-1.305,4.507,4.507,0,0,1-1.354-3.4v-.246a5.84,5.84,0,0,1,.541-2.575,3.955,3.955,0,0,1,1.578-1.727A4.763,4.763,0,0,1-30.2-9.686,4.117,4.117,0,0,1-27.04-8.442a4.887,4.887,0,0,1,1.16,3.467v1.151h-5.889a2.135,2.135,0,0,0,.694,1.257,2.066,2.066,0,0,0,1.389.457,2.662,2.662,0,0,0,2.2-.984l1.354,1.6A3.784,3.784,0,0,1-27.7-.277,5.3,5.3,0,0,1-29.887.176ZM-30.221-7.4q-1.3,0-1.547,1.723h2.988v-.229a1.467,1.467,0,0,0-.36-1.1A1.434,1.434,0,0,0-30.221-7.4Zm11.285.571-.976-.07a1.752,1.752,0,0,0-1.793.879V0h-2.962V-9.51h2.777l.1,1.222a2.294,2.294,0,0,1,2.083-1.4,2.888,2.888,0,0,1,.826.105Zm4.922,4.72a1.317,1.317,0,0,0,.967-.338,1.241,1.241,0,0,0,.334-.945h2.777A3.288,3.288,0,0,1-11.057-.826a4.168,4.168,0,0,1-2.887,1,4.22,4.22,0,0,1-3.27-1.3,5.125,5.125,0,0,1-1.2-3.6v-.123A5.792,5.792,0,0,1-17.877-7.4a3.872,3.872,0,0,1,1.534-1.7,4.573,4.573,0,0,1,2.373-.593,4.116,4.116,0,0,1,2.944,1.028,3.647,3.647,0,0,1,1.09,2.786h-2.777A1.626,1.626,0,0,0-13.074-7a1.244,1.244,0,0,0-.967-.4q-1.151,0-1.345,1.468a10.357,10.357,0,0,0-.062,1.283A4.068,4.068,0,0,0-15.1-2.663,1.187,1.187,0,0,0-14.014-2.109ZM-5.559,0H-8.53V-9.51h2.971ZM-8.706-11.962A1.322,1.322,0,0,1-8.249-13a1.724,1.724,0,0,1,1.187-.4,1.724,1.724,0,0,1,1.187.4,1.322,1.322,0,0,1,.457,1.037,1.322,1.322,0,0,1-.457,1.037,1.724,1.724,0,0,1-1.187.4,1.724,1.724,0,0,1-1.187-.4A1.322,1.322,0,0,1-8.706-11.962ZM1.622,0A3.344,3.344,0,0,1,1.34-.853,2.754,2.754,0,0,1-.945.176,3.374,3.374,0,0,1-3.23-.637a2.588,2.588,0,0,1-.94-2.043A2.66,2.66,0,0,1-3.028-5.019,5.821,5.821,0,0,1,.294-5.81h.914v-.5q0-1.316-1.134-1.316A.927.927,0,0,0-.98-6.587H-3.942A2.655,2.655,0,0,1-2.769-8.825a4.931,4.931,0,0,1,2.993-.86A4.323,4.323,0,0,1,3.1-8.8,3.086,3.086,0,0,1,4.179-6.363v4.21a4.311,4.311,0,0,0,.4,2V0ZM-.233-1.934a1.652,1.652,0,0,0,.918-.237,1.487,1.487,0,0,0,.523-.536V-4.228H.347Q-1.2-4.228-1.2-2.839a.848.848,0,0,0,.272.655A.986.986,0,0,0-.233-1.934ZM8.943,0H5.972V-13.5H8.943Zm4.948,0H10.92V-9.51h2.971ZM10.745-11.962A1.322,1.322,0,0,1,11.2-13a1.724,1.724,0,0,1,1.187-.4,1.724,1.724,0,0,1,1.187.4,1.322,1.322,0,0,1,.457,1.037,1.322,1.322,0,0,1-.457,1.037,1.724,1.724,0,0,1-1.187.4,1.724,1.724,0,0,1-1.187-.4A1.322,1.322,0,0,1,10.745-11.962Zm8.464,9.677h4.333V0H15.464V-1.652l4.219-5.572H15.649V-9.51h7.8v1.6ZM30.335,0a3.344,3.344,0,0,1-.281-.853A2.754,2.754,0,0,1,27.769.176a3.374,3.374,0,0,1-2.285-.813,2.588,2.588,0,0,1-.94-2.043,2.66,2.66,0,0,1,1.143-2.338,5.821,5.821,0,0,1,3.322-.791h.914v-.5q0-1.316-1.134-1.316a.927.927,0,0,0-1.055,1.042H24.772a2.655,2.655,0,0,1,1.173-2.239,4.931,4.931,0,0,1,2.993-.86,4.323,4.323,0,0,1,2.874.888,3.086,3.086,0,0,1,1.081,2.435v4.21a4.311,4.311,0,0,0,.4,2V0ZM28.481-1.934a1.652,1.652,0,0,0,.918-.237,1.487,1.487,0,0,0,.523-.536V-4.228h-.861q-1.547,0-1.547,1.389a.848.848,0,0,0,.272.655A.986.986,0,0,0,28.481-1.934Zm10.072-.176a1.317,1.317,0,0,0,.967-.338,1.241,1.241,0,0,0,.334-.945h2.777A3.288,3.288,0,0,1,41.511-.826a4.168,4.168,0,0,1-2.887,1,4.22,4.22,0,0,1-3.27-1.3,5.125,5.125,0,0,1-1.2-3.6v-.123A5.792,5.792,0,0,1,34.69-7.4a3.872,3.872,0,0,1,1.534-1.7A4.573,4.573,0,0,1,38.6-9.686a4.116,4.116,0,0,1,2.944,1.028,3.647,3.647,0,0,1,1.09,2.786H39.854A1.626,1.626,0,0,0,39.494-7a1.244,1.244,0,0,0-.967-.4q-1.151,0-1.345,1.468a10.357,10.357,0,0,0-.062,1.283,4.068,4.068,0,0,0,.343,1.986A1.187,1.187,0,0,0,38.553-2.109ZM47.008,0H44.038V-9.51h2.971ZM43.862-11.962A1.322,1.322,0,0,1,44.319-13a1.724,1.724,0,0,1,1.187-.4,1.724,1.724,0,0,1,1.187.4,1.322,1.322,0,0,1,.457,1.037,1.322,1.322,0,0,1-.457,1.037,1.724,1.724,0,0,1-1.187.4,1.724,1.724,0,0,1-1.187-.4A1.322,1.322,0,0,1,43.862-11.962Zm4.6,7.119a5.613,5.613,0,0,1,.554-2.536A3.96,3.96,0,0,1,50.6-9.088a4.791,4.791,0,0,1,2.435-.6A4.373,4.373,0,0,1,56.4-8.363a5.076,5.076,0,0,1,1.23,3.6v.105A4.925,4.925,0,0,1,56.4-1.129,4.384,4.384,0,0,1,53.055.176a4.434,4.434,0,0,1-3.261-1.217,4.761,4.761,0,0,1-1.327-3.3Zm2.962.185a3.538,3.538,0,0,0,.413,1.934,1.376,1.376,0,0,0,1.222.615q1.582,0,1.617-2.435v-.3q0-2.558-1.635-2.558-1.485,0-1.608,2.206ZM53.442-13.5h3.129l-2.443,2.76-2.417,0ZM61.66-9.51l.1,1.116a3.225,3.225,0,0,1,2.716-1.292,2.713,2.713,0,0,1,2.219.888,4.226,4.226,0,0,1,.76,2.672V0H64.481V-6a1.6,1.6,0,0,0-.29-1.059A1.342,1.342,0,0,0,63.136-7.4a1.413,1.413,0,0,0-1.292.686V0H58.882V-9.51Z" transform="translate(800 5181.215)" fill="#1b3f5e"/>
    <path id="Trazado_246557" data-name="Trazado 246557" d="M-34.589-5.432h-4.852v3.059h5.73V0h-8.815V-12.8h8.833v2.382h-5.748v2.7h4.852Zm5.854-1.459,1.38-2.619h3.076l-2.5,4.632L-24.157,0H-27.25l-1.494-2.812L-30.212,0h-3.111l2.637-4.878-2.5-4.632h3.111ZM-14.5-4.685a5.735,5.735,0,0,1-1,3.538A3.2,3.2,0,0,1-18.189.176a2.742,2.742,0,0,1-2.153-.958V3.656H-23.3V-9.51h2.769l.088.879a2.742,2.742,0,0,1,2.241-1.055,3.224,3.224,0,0,1,2.733,1.3A5.805,5.805,0,0,1-14.5-4.825Zm-2.962-.185q0-2.531-1.477-2.531a1.394,1.394,0,0,0-1.406.756V-2.9a1.439,1.439,0,0,0,1.424.791q1.415,0,1.459-2.443ZM-8.591.176a4.889,4.889,0,0,1-3.542-1.305,4.507,4.507,0,0,1-1.354-3.4v-.246a5.84,5.84,0,0,1,.541-2.575,3.955,3.955,0,0,1,1.578-1.727,4.763,4.763,0,0,1,2.461-.611A4.117,4.117,0,0,1-5.744-8.442a4.887,4.887,0,0,1,1.16,3.467v1.151h-5.889a2.135,2.135,0,0,0,.694,1.257,2.066,2.066,0,0,0,1.389.457,2.662,2.662,0,0,0,2.2-.984l1.354,1.6A3.784,3.784,0,0,1-6.407-.277,5.3,5.3,0,0,1-8.591.176ZM-8.925-7.4q-1.3,0-1.547,1.723h2.988v-.229a1.467,1.467,0,0,0-.36-1.1A1.434,1.434,0,0,0-8.925-7.4ZM2.36-6.829,1.384-6.9a1.752,1.752,0,0,0-1.793.879V0H-3.371V-9.51H-.593l.1,1.222a2.294,2.294,0,0,1,2.083-1.4,2.888,2.888,0,0,1,.826.105Zm4.957-5.045V-9.51H8.881v2.057H7.317V-3.1a1.111,1.111,0,0,0,.193.747,1.037,1.037,0,0,0,.765.211A4.345,4.345,0,0,0,9.013-2.2V-.079a5.466,5.466,0,0,1-1.67.255A3.1,3.1,0,0,1,5.084-.545a2.954,2.954,0,0,1-.729-2.188v-4.72H3.142V-9.51H4.355v-2.364ZM9.409-4.843a5.613,5.613,0,0,1,.554-2.536,3.96,3.96,0,0,1,1.591-1.709,4.791,4.791,0,0,1,2.435-.6,4.373,4.373,0,0,1,3.366,1.323,5.076,5.076,0,0,1,1.23,3.6v.105A4.925,4.925,0,0,1,17.35-1.129,4.384,4.384,0,0,1,14.005.176a4.434,4.434,0,0,1-3.261-1.217,4.761,4.761,0,0,1-1.327-3.3Zm2.962.185a3.538,3.538,0,0,0,.413,1.934,1.376,1.376,0,0,0,1.222.615q1.582,0,1.617-2.435v-.3q0-2.558-1.635-2.558-1.485,0-1.608,2.206ZM28.973.176a4.889,4.889,0,0,1-3.542-1.305,4.507,4.507,0,0,1-1.354-3.4v-.246a5.84,5.84,0,0,1,.541-2.575A3.955,3.955,0,0,1,26.2-9.075a4.763,4.763,0,0,1,2.461-.611,4.117,4.117,0,0,1,3.164,1.244,4.887,4.887,0,0,1,1.16,3.467v1.151H27.092a2.135,2.135,0,0,0,.694,1.257,2.066,2.066,0,0,0,1.389.457,2.662,2.662,0,0,0,2.2-.984l1.354,1.6A3.784,3.784,0,0,1,31.157-.277,5.3,5.3,0,0,1,28.973.176ZM28.639-7.4q-1.3,0-1.547,1.723h2.988v-.229a1.467,1.467,0,0,0-.36-1.1A1.434,1.434,0,0,0,28.639-7.4ZM36.892-9.51l.1,1.116A3.225,3.225,0,0,1,39.7-9.686a2.713,2.713,0,0,1,2.219.888,4.226,4.226,0,0,1,.76,2.672V0H39.713V-6a1.6,1.6,0,0,0-.29-1.059A1.342,1.342,0,0,0,38.369-7.4a1.413,1.413,0,0,0-1.292.686V0H34.115V-9.51Zm-74.839,25,.1,1.116a3.27,3.27,0,0,1,2.716-1.292A2.407,2.407,0,0,1-32.7,16.747,3.165,3.165,0,0,1-29.9,15.314q2.892,0,2.971,3.5V25H-29.9V19a1.813,1.813,0,0,0-.246-1.063,1.048,1.048,0,0,0-.9-.334,1.4,1.4,0,0,0-1.31.782l.009.123V25h-2.971V19.015a1.906,1.906,0,0,0-.237-1.081,1.045,1.045,0,0,0-.905-.334,1.42,1.42,0,0,0-1.3.782V25h-2.962V15.49ZM-19.885,25a3.344,3.344,0,0,1-.281-.853,2.754,2.754,0,0,1-2.285,1.028,3.374,3.374,0,0,1-2.285-.813,2.588,2.588,0,0,1-.94-2.043,2.66,2.66,0,0,1,1.143-2.338,5.821,5.821,0,0,1,3.322-.791h.914v-.5q0-1.316-1.134-1.316a.927.927,0,0,0-1.055,1.042h-2.962a2.655,2.655,0,0,1,1.173-2.239,4.931,4.931,0,0,1,2.993-.86,4.323,4.323,0,0,1,2.874.888,3.086,3.086,0,0,1,1.081,2.435v4.21a4.311,4.311,0,0,0,.4,2V25Zm-1.854-1.934a1.652,1.652,0,0,0,.918-.237,1.487,1.487,0,0,0,.523-.536V20.772h-.861q-1.547,0-1.547,1.389a.848.848,0,0,0,.272.655A.986.986,0,0,0-21.74,23.066Zm11.8-4.9-.976-.07a1.752,1.752,0,0,0-1.793.879V25h-2.962V15.49h2.777l.1,1.222a2.294,2.294,0,0,1,2.083-1.4,2.888,2.888,0,0,1,.826.105Zm4.887,3.287-.835.835V25H-8.846V11.491h2.962v7.172l.3-.4,2.232-2.777H.2L-3.133,19.4.417,25H-2.975ZM5.577,25.176a4.889,4.889,0,0,1-3.542-1.305,4.507,4.507,0,0,1-1.354-3.4v-.246a5.84,5.84,0,0,1,.541-2.575A3.955,3.955,0,0,1,2.8,15.925a4.763,4.763,0,0,1,2.461-.611,4.117,4.117,0,0,1,3.164,1.244,4.887,4.887,0,0,1,1.16,3.467v1.151H3.7a2.135,2.135,0,0,0,.694,1.257,2.066,2.066,0,0,0,1.389.457,2.662,2.662,0,0,0,2.2-.984l1.354,1.6a3.784,3.784,0,0,1-1.569,1.217A5.3,5.3,0,0,1,5.577,25.176ZM5.243,17.6q-1.3,0-1.547,1.723H6.684v-.229a1.467,1.467,0,0,0-.36-1.1A1.434,1.434,0,0,0,5.243,17.6Zm8.982-4.474V15.49H15.79v2.057H14.225V21.9a1.111,1.111,0,0,0,.193.747,1.037,1.037,0,0,0,.765.211,4.345,4.345,0,0,0,.738-.053v2.118a5.466,5.466,0,0,1-1.67.255,3.1,3.1,0,0,1-2.259-.721,2.954,2.954,0,0,1-.729-2.188v-4.72H10.05V15.49h1.213V13.126ZM20.079,25H17.108V15.49h2.971ZM16.932,13.038A1.322,1.322,0,0,1,17.389,12a1.943,1.943,0,0,1,2.373,0,1.405,1.405,0,0,1,0,2.074,1.943,1.943,0,0,1-2.373,0A1.322,1.322,0,0,1,16.932,13.038Zm7.69,2.452.1,1.116a3.225,3.225,0,0,1,2.716-1.292,2.713,2.713,0,0,1,2.219.888,4.226,4.226,0,0,1,.76,2.672V25H27.444V19a1.6,1.6,0,0,0-.29-1.059A1.342,1.342,0,0,0,26.1,17.6a1.413,1.413,0,0,0-1.292.686V25H21.845V15.49Zm7.084,4.685a6.421,6.421,0,0,1,.475-2.549,3.821,3.821,0,0,1,1.362-1.709,3.591,3.591,0,0,1,2.065-.6,2.855,2.855,0,0,1,2.32,1l.105-.826h2.689V24.64a4.009,4.009,0,0,1-.584,2.184,3.75,3.75,0,0,1-1.692,1.424,6.219,6.219,0,0,1-2.566.5,5.365,5.365,0,0,1-2.026-.4,3.657,3.657,0,0,1-1.5-1.028L33.6,25.58a2.716,2.716,0,0,0,2.18.976,1.764,1.764,0,0,0,1.969-2.021v-.3a2.781,2.781,0,0,1-2.153.94,3.437,3.437,0,0,1-2.812-1.332,5.517,5.517,0,0,1-1.072-3.564Zm2.971.185a3.383,3.383,0,0,0,.439,1.85,1.387,1.387,0,0,0,1.23.681,1.573,1.573,0,0,0,1.4-.642v-4a1.534,1.534,0,0,0-1.38-.65,1.4,1.4,0,0,0-1.239.708A3.858,3.858,0,0,0,34.677,20.359Z" transform="translate(800 5293)" fill="#1b3f5e"/>
  </g>
</svg>
