<svg id="Grupo_592457" data-name="Grupo 592457" xmlns="http://www.w3.org/2000/svg" xmlns:xlink="http://www.w3.org/1999/xlink" width="268.32" height="161.627" viewBox="0 0 268.32 161.627">
  <defs>
    <clipPath id="clip-path">
      <rect id="Rectángulo_53750" data-name="Rectángulo 53750" width="268.32" height="161.627" fill="none"/>
    </clipPath>
    <clipPath id="clip-path-3">
      <rect id="Rectángulo_53727" data-name="Rectángulo 53727" width="31.589" height="11.397" fill="#9eabb6"/>
    </clipPath>
    <clipPath id="clip-path-4">
      <rect id="Rectángulo_53728" data-name="Rectángulo 53728" width="63.87" height="26.05" fill="#c6cbd0"/>
    </clipPath>
  </defs>
  <g id="Grupo_592456" data-name="Grupo 592456" clip-path="url(#clip-path)">
    <g id="Grupo_592455" data-name="Grupo 592455" transform="translate(0 0)">
      <g id="Grupo_592454" data-name="Grupo 592454" clip-path="url(#clip-path)">
        <path id="Trazado_245104" data-name="Trazado 245104" d="M1035,451.657l-6.549,100.485s-.686,6.091,2.825,6.1c5.773.018,28.735,0,28.735,0s-4.345-1.268-4.292-4.121c.062-3.363,7.655-103.417,7.655-103.417Z" transform="translate(-933.655 -396.977)" fill="#102538"/>
        <path id="Trazado_245105" data-name="Trazado 245105" d="M1080.476,542.95c-1.135,0-23.067.093-28.689,0-2.45-.039-2.88-2.811-2.9-4.6a11.558,11.558,0,0,1,.074-1.5l.17-2.612.434-6.657.383-5.881.492-7.557.415-6.379,4.653-71.4,28.374-.95s-3.2,41.872-5.46,72.352c-.253,3.4-.493,6.652-.715,9.692q-.109,1.456-.209,2.843c-.21,2.884-.4,5.532-.569,7.87-.088,1.232-.169,2.377-.242,3.426-.289,4.11-.458,6.735-.46,7.234a5.418,5.418,0,0,0,.055.813c.466,3.2,3.765,3.307,4.191,3.307" transform="translate(-952.253 -383.506)" fill="#c6cbd0"/>
        <path id="Trazado_245106" data-name="Trazado 245106" d="M488.359,0H352.137L368.09,82.684l2.184,11.324,7.43,38.513H515.745Z" transform="translate(-319.695 0.002)" fill="#9eabb6"/>
        <path id="Trazado_245107" data-name="Trazado 245107" d="M330.348,0l-2.211.951L352.976,135.4l2.939-2.876Z" transform="translate(-297.906 0.003)" fill="#9eabb6"/>
        <path id="Trazado_245108" data-name="Trazado 245108" d="M597.753,1114.557H734.944l3.789-2.876H600.692Z" transform="translate(-542.682 -979.156)" fill="#9eabb6"/>
        <path id="Trazado_245212" data-name="Trazado 245212" d="M0,0H29.7V1.821H0Z" transform="translate(103.248 159.484)" fill="#15324b"/>
        <path id="Trazado_245109" data-name="Trazado 245109" d="M1084.352,1135.8l-.153,1.392-27.935,7.282.384-5.881.183-2.794Z" transform="translate(-958.951 -1000.403)" fill="#9eabb6"/>
        <g id="Grupo_592450" data-name="Grupo 592450" transform="translate(96.632 148.596)" opacity="0.4">
          <g id="Grupo_592449" data-name="Grupo 592449">
            <g id="Grupo_592448" data-name="Grupo 592448" clip-path="url(#clip-path-3)">
              <path id="Trazado_245110" data-name="Trazado 245110" d="M1080.484,1253.6c-1.135,0-23.067.093-28.689,0-2.45-.04-2.88-2.811-2.9-4.605l27.8-6.75c-.289,4.11-.458,6.735-.46,7.234a5.435,5.435,0,0,0,.055.813c.466,3.2,3.765,3.307,4.191,3.307" transform="translate(-1048.895 -1242.245)" fill="#9eabb6"/>
            </g>
          </g>
        </g>
        <g id="Grupo_592453" data-name="Grupo 592453" transform="translate(52.984 106.474)" opacity="0.4">
          <g id="Grupo_592452" data-name="Grupo 592452">
            <g id="Grupo_592451" data-name="Grupo 592451" clip-path="url(#clip-path-4)">
              <path id="Trazado_245111" data-name="Trazado 245111" d="M638.981,893.17l-58.845,26.035-5.025-26.05Z" transform="translate(-575.111 -893.155)" fill="#c6cbd0"/>
            </g>
          </g>
        </g>
        <path id="Trazado_245112" data-name="Trazado 245112" d="M488.357,0H352.135L372.666,106.47l137.794.034Z" transform="translate(-319.693 0.003)" fill="#1b3f5e"/>
        <path id="Trazado_245113" data-name="Trazado 245113" d="M1345.633,971.436c-.394-2.612-2.354-4.729-4.378-4.729s-3.346,2.117-2.953,4.729,2.353,4.73,4.378,4.73,3.347-2.117,2.953-4.73" transform="translate(-1214.943 -851.465)" fill="#636363"/>
        <path id="Trazado_245114" data-name="Trazado 245114" d="M559.641,144.041H432.1L417.651,69.793,416.544,64.1l-.945-4.857-2.215-11.388H539.091l2.433,11.388,1.038,4.857,1.216,5.694Z" transform="translate(-375.3 -42.149)" fill="#e9f3fe"/>
        <path id="Trazado_245115" data-name="Trazado 245115" d="M539.091,47.854H413.384L415.6,59.242H541.524Z" transform="translate(-375.3 -42.149)" fill="#1b3f5e"/>
        <path id="Trazado_245116" data-name="Trazado 245116" d="M901.368,294.938h12.716l1.65,8.225H903.018Z" transform="translate(-818.326 -259.778)" fill="#ef6f6c"/>
        <path id="Trazado_245117" data-name="Trazado 245117" d="M644.882,363.932H657.6l1.574,7.849H646.49Z" transform="translate(-585.47 -320.547)" fill="#ffd947"/>
        <path id="Trazado_245118" data-name="Trazado 245118" d="M1316.827,294.938h12.716l1.65,8.225h-12.716Z" transform="translate(-1195.51 -259.778)" fill="#ffd947"/>
        <path id="Trazado_245119" data-name="Trazado 245119" d="M1351.832,434.5h12.716l1.574,7.849H1353.44Z" transform="translate(-1227.29 -382.702)" fill="#ef6f6c"/>
        <path id="Trazado_245120" data-name="Trazado 245120" d="M1249.04,570.91h25.5l1.581,8.225h-25.432Z" transform="translate(-1133.967 -502.851)" fill="#ffd947"/>
        <rect id="Rectángulo_53729" data-name="Rectángulo 53729" width="126.651" height="0.478" transform="translate(43.626 34.921)" fill="#afcdfb"/>
        <rect id="Rectángulo_53730" data-name="Rectángulo 53730" width="126.553" height="0.478" transform="translate(45.444 43.146)" fill="#afcdfb"/>
        <rect id="Rectángulo_53731" data-name="Rectángulo 53731" width="127.018" height="0.478" transform="translate(46.7 51.371)" fill="#afcdfb"/>
        <rect id="Rectángulo_53732" data-name="Rectángulo 53732" width="126.868" height="0.478" transform="translate(48.571 59.595)" fill="#afcdfb"/>
        <rect id="Rectángulo_53733" data-name="Rectángulo 53733" width="126.978" height="0.478" transform="translate(50.182 67.82)" fill="#afcdfb"/>
        <rect id="Rectángulo_53734" data-name="Rectángulo 53734" width="127.182" height="0.478" transform="translate(51.699 76.045)" fill="#afcdfb"/>
        <rect id="Rectángulo_53735" data-name="Rectángulo 53735" width="127.339" height="0.478" transform="translate(53.262 84.269)" fill="#afcdfb"/>
        <rect id="Rectángulo_53736" data-name="Rectángulo 53736" width="127.348" height="0.478" transform="translate(54.975 92.494)" fill="#afcdfb"/>
        <path id="Trazado_245121" data-name="Trazado 245121" d="M470.324,79.084c-.609,0-.98.637-.828,1.424a1.648,1.648,0,0,0,1.378,1.423c.609,0,.98-.637.828-1.423a1.649,1.649,0,0,0-1.378-1.424" transform="translate(-426.211 -69.656)" fill="#e9f3fe"/>
        <path id="Trazado_245122" data-name="Trazado 245122" d="M510.113,79.084c-.609,0-.98.637-.828,1.424a1.649,1.649,0,0,0,1.378,1.423c.609,0,.98-.637.828-1.423a1.649,1.649,0,0,0-1.378-1.424" transform="translate(-462.334 -69.656)" fill="#e9f3fe"/>
        <path id="Trazado_245123" data-name="Trazado 245123" d="M554.335,80.508a1.649,1.649,0,0,0-1.378-1.424c-.609,0-.98.637-.828,1.424a1.649,1.649,0,0,0,1.378,1.424c.609,0,.98-.637.828-1.424" transform="translate(-501.231 -69.656)" fill="#e9f3fe"/>
        <path id="Trazado_245124" data-name="Trazado 245124" d="M578.984,263.682l.358-.12-14.881-74.189h10.458L573.7,183.68H563.32l-.012-.06-.179.06H550.6l-.012-.06-.179.06H537.888l-.012-.06-.18.06H525.172l-.012-.06-.179.06H512.456l-.012-.06-.179.06H499.741l-.012-.06-.179.06H487.025l-.012-.06-.179.06H474.309l-.012-.06-.179.06H461.593l-.012-.06-.179.06H447.686l1.107,5.694h13.559l14.9,74.308.358-.12-14.881-74.189h12.333l14.9,74.308.358-.12-14.881-74.189h12.333l14.9,74.308.358-.12-14.881-74.189H500.5l14.9,74.308.359-.12-14.881-74.189h12.333l14.9,74.308.358-.12L513.6,189.374h12.334l14.9,74.308.358-.12-14.881-74.189h12.333l14.9,74.308.358-.12L539.03,189.374h12.333l14.9,74.308.358-.12-14.881-74.189h12.334Z" transform="translate(-406.441 -161.73)" fill="#1b3f5e"/>
        <rect id="Rectángulo_53737" data-name="Rectángulo 53737" width="26.614" height="34.342" transform="translate(233.499 70.313)" fill="#e6d2d2"/>
        <rect id="Rectángulo_53738" data-name="Rectángulo 53738" width="26.614" height="34.342" transform="translate(241.705 70.313)" fill="#ef6f6c"/>
        <path id="Trazado_245125" data-name="Trazado 245125" d="M2752,781.934a2.59,2.59,0,0,0,.016,5.016h0a2.59,2.59,0,0,0-.016-5.016" transform="translate(-2496.706 -688.719)" fill="#ebf2f9"/>
        <path id="Trazado_245126" data-name="Trazado 245126" d="M2752.018,645.5h0a2.59,2.59,0,1,0-1.952-2.5,2.287,2.287,0,0,0,1.952,2.5" transform="translate(-2496.706 -564.135)" fill="#ebf2f9"/>
        <path id="Trazado_245208" data-name="Trazado 245208" d="M.005.018,16.661.007l0,5.007L0,5.025Z" transform="translate(246.935 85.003) rotate(-0.237)" fill="#ebf2f9"/>
        <rect id="Rectángulo_53740" data-name="Rectángulo 53740" width="22.752" height="29.358" transform="translate(5.407 94.107)" fill="#e6d2d2"/>
        <path id="Trazado_245209" data-name="Trazado 245209" d="M0,0H22.752V29.358H0Z" transform="translate(12.423 94.107)" fill="#ef6f6c"/>
        <rect id="Rectángulo_53742" data-name="Rectángulo 53742" width="14.24" height="4.288" transform="translate(16.904 106.642)" fill="#ebf2f9"/>
        <path id="Trazado_245127" data-name="Trazado 245127" d="M707.939,1244.813l1.328,7.215,1.989-.014.073-7.2Z" transform="translate(-642.718 -1096.417)" fill="#e49963"/>
        <path id="Trazado_245128" data-name="Trazado 245128" d="M889.508,1240.375l3.778,6.908,1.472-2.439-2.274-5.418Z" transform="translate(-807.559 -1091.672)" fill="#e49963"/>
        <path id="Trazado_245129" data-name="Trazado 245129" d="M605.051,443.518a3.118,3.118,0,0,0-2.085-.515.887.887,0,0,1,.44-.269,2.694,2.694,0,0,0-1.153.388c-4.964-2.468-5.744,6.963-5.639,9.154s-1.668,2.906-4.251,4.632c-4.927,3.294-5.36,7.7-5.36,7.7.038.029.078.063.121.1.244-.534.748-1.538,1.172-1.689-.016.049-.5,1.382-.683,2.146,1.454,1.427,4.173,4.588,6.068,6.83a4.576,4.576,0,0,1,.129-1.389l.234,1.819c1.014,1.2,1.713,2.049,1.713,2.049-.125-1.77,6.206-11.114,9.509-13.912a15.043,15.043,0,0,0,1.111-4.438,14.531,14.531,0,0,1-.676,4.015c2.8-3.322,1.169-15.292-.651-16.626" transform="translate(-532.923 -389.938)" fill="#163560"/>
        <path id="Trazado_245130" data-name="Trazado 245130" d="M737.044,547.022a3.755,3.755,0,0,1-2.807.661c-1.14-.4-1.885-2.309-1.869-2.313.483-.124.622-.98.612-4.659l.218.055,3.67.938s-.083,1.49-.086,2.894a5.582,5.582,0,0,0,.262,2.423" transform="translate(-664.895 -476.253)" fill="#e49963"/>
        <path id="Trazado_245131" data-name="Trazado 245131" d="M738.078,453.96a2.512,2.512,0,0,1,4.083-.127,12.364,12.364,0,0,0-4.083.127" transform="translate(-670.08 -398.835)" fill="#e37970"/>
        <path id="Trazado_245132" data-name="Trazado 245132" d="M745.05,542.116s-.083,1.49-.086,2.894c-2.054-.075-3.139-2.492-3.584-3.832Z" transform="translate(-673.078 -476.664)" fill="#d68d5d"/>
        <path id="Trazado_245133" data-name="Trazado 245133" d="M723.8,464.962a16.2,16.2,0,0,1-1.335-4.07c-.184-1.34.344-6.3,4.211-5.59a4.536,4.536,0,0,1,2.179,1.063c.84.732,2.051,2.311.7,6.644l-.352,1.464Z" transform="translate(-655.881 -400.963)" fill="#163560"/>
        <path id="Trazado_245134" data-name="Trazado 245134" d="M734.7,867.681l-1.945.077-2.106.083a59.025,59.025,0,0,1-7.592-18.189q-.1-.391-.2-.79c-1.493-5.618-4.588-12.669-6.219-19.052-.26-1.017-.493-1.973-.7-2.879q-.1-.435-.194-.856a85.514,85.514,0,0,1-1.871-12.709l11.779.122a356.689,356.689,0,0,0,9.053,54.194" transform="translate(-648.103 -716.404)" fill="#2b478b"/>
        <path id="Trazado_245135" data-name="Trazado 245135" d="M674.255,595.595c-.03,7.232.822,10.335.822,10.335a12.663,12.663,0,0,1-11.037.873c-.071-.029-4.963-1.469-4.963-1.469.1-.293.992-5.167,1.09-5.435,1.265-3.507,2.226-5.045,2.376-6.122a29.519,29.519,0,0,0,.146-6.06,61.081,61.081,0,0,0-1.453-9.516,32.824,32.824,0,0,0,4.862-2.145,3.377,3.377,0,0,0,2.623,1.256c1.194-.034,1.581-.694,1.519-1.414,1.272.914,2.288,1.777,2.288,1.777,1.081,2.424,3.275,4.777,3.433,8.5.039.914-1.706,9.223-1.707,9.425" transform="translate(-598.357 -507.245)" fill="#e7f1fd"/>
        <path id="Trazado_245136" data-name="Trazado 245136" d="M791.307,584.849c-1.729-2.607-6.209-8.259-10.832-8.952l3.989,10.028a4.789,4.789,0,0,0,1.406,2.72,20.463,20.463,0,0,0,6.572,3.538,33.882,33.882,0,0,0,5.9-4.623c1.069-1.011,2.948-4.866,2.948-4.866l-.507-2.188s-3.189,2.3-4.329,2.965c-.649.378-2.144,1.281-3.2,1.92a1.407,1.407,0,0,1-1.948-.542" transform="translate(-708.571 -507.244)" fill="#c65447"/>
        <path id="Trazado_245137" data-name="Trazado 245137" d="M740.206,482.028s-4.859.1-4.862-3.8-.633-6.522,2.469-6.754,3.706,1.258,3.953,2.561-.3,7.867-1.56,7.994" transform="translate(-667.549 -415.247)" fill="#e49963"/>
        <path id="Trazado_245138" data-name="Trazado 245138" d="M724.631,464.982s-1.33,4.582-3.372,5.259-2.927-.028-2.927-.028a8.027,8.027,0,0,0,1.891-4.408s3.4-3,4.408-.823" transform="translate(-652.153 -408.852)" fill="#163560"/>
        <path id="Trazado_245139" data-name="Trazado 245139" d="M783.128,468.447a5.464,5.464,0,0,1,1.236,2.017c.242.995.351,3.042.814,2.972,0,0,1-3.114-.124-4.876-1.194-1.868-1.925-.114-1.925-.114" transform="translate(-710.979 -411.945)" fill="#163560"/>
        <path id="Trazado_245140" data-name="Trazado 245140" d="M1000.884,594.036s.685-3.185,3.4-2.735a1.223,1.223,0,0,1,.64,1.851c-.429.927-.614.448-1.289,1.694s-1.407,1.527-2.243,1.378Z" transform="translate(-908.674 -520.773)" fill="#e49963"/>
        <path id="Trazado_245141" data-name="Trazado 245141" d="M718.824,1301.955a8.9,8.9,0,0,1-.253,2.958s-.326,1.913,1.135,1.949,1.819-.142,1.653-1.316-.48-3.2-.48-3.2Z" transform="translate(-652.342 -1146.748)" fill="#e49963"/>
        <path id="Trazado_245142" data-name="Trazado 245142" d="M720.242,1329.175a1.079,1.079,0,0,1-.092.063h-2.859a.681.681,0,0,1-.081-.063,11.89,11.89,0,0,1,.1-2.767c1.654,1.956,2.689-.048,2.689-.048a12.806,12.806,0,0,1,.238,2.815" transform="translate(-651.086 -1168.243)" fill="#c45446"/>
        <path id="Trazado_245143" data-name="Trazado 245143" d="M930.28,1290.7a47.393,47.393,0,0,1-3.52-5.819l-2,1.324,4.476,5.424,1.047-.178Z" transform="translate(-839.561 -1131.705)" fill="#e49963"/>
        <path id="Trazado_245144" data-name="Trazado 245144" d="M926.95,1302.478h-3.685a7.152,7.152,0,0,1-1.1-2.2,1.866,1.866,0,0,0-1.219-1.052v3.212h-.764l-.724-3.414a3.913,3.913,0,0,1,.3-3.049c.39,0,1.439.343,3.429,3.236a2.409,2.409,0,0,0,2.093,1.26.187.187,0,0,0,.029.02,3.189,3.189,0,0,1,1.641,1.984" transform="translate(-834.56 -1141.484)" fill="#c45446"/>
        <path id="Trazado_245145" data-name="Trazado 245145" d="M780.251,575.9s2.811,8.961,2.894,10.775.331,29.657.331,29.657-.165,1.28,1.736.747a5.625,5.625,0,0,0,2.4-1.067s-1.819-17.175-1.323-23.15-3.8-15.718-3.8-15.718Z" transform="translate(-708.368 -507.245)" fill="#c65447"/>
        <path id="Trazado_245146" data-name="Trazado 245146" d="M751.2,949.11l-2.106.083A59.024,59.024,0,0,1,741.5,931q-.1-.391-.2-.79c-1.493-5.618-4.588-12.669-6.22-19.052-.26-1.017-.493-1.973-.7-2.879q-.1-.435-.194-.856l1.735-1.7s5.208,10.881,6.82,21.122c1.4,8.9,7.009,19.6,8.461,22.26" transform="translate(-666.541 -797.755)" fill="#233862"/>
        <path id="Trazado_245147" data-name="Trazado 245147" d="M803.681,687.344l-.1.406-5.451-2.286a.331.331,0,0,1-.034-.25c.041-.157.137-.155.137-.155Z" transform="translate(-724.556 -603.391)" fill="#163560"/>
        <path id="Trazado_245148" data-name="Trazado 245148" d="M666.076,906.467c.03,4.98-.165,16.429-.668,21.169h-1.865c-1.031,0-1.545-.019-1.545-.019-1.261-8.241-2.158-15.06-2.811-20.936-.536-4.822-1.012-8.956-1.378-12.515-.369-3.581-.625-6.58-.717-9.114q-.021-.6-.031-1.164t-.005-1.1l10.177-1.28c-.128,8.725-1.174,22.069-1.157,24.963" transform="translate(-596.521 -776.419)" fill="#2b478b"/>
        <path id="Trazado_245149" data-name="Trazado 245149" d="M663.9,953.852c-1.031,0-1.545-.019-1.545-.019-1.261-8.241-2.158-15.06-2.811-20.936-.536-4.822-1.012-8.956-1.378-12.515-.369-3.581-.625-6.58-.717-9.114l3.734,2.834s-2.384,1.085-1.474,9.3,2.925,29.287,4.191,30.45" transform="translate(-596.883 -802.635)" fill="#233862"/>
        <path id="Trazado_245150" data-name="Trazado 245150" d="M641.99,617.146s-.717,3.342-3.2,2.916a25.3,25.3,0,0,1-6.007-2.347s1.06-4.322,2.378-10c1.6-6.873,3.571-15.734,4.5-21.323.261-1.566.44-2.874.506-3.811l2.058-5.152s3.068,8.885,3.233,11.125-3.472,28.591-3.472,28.591" transform="translate(-574.488 -508.594)" fill="#c65447"/>
        <path id="Trazado_245151" data-name="Trazado 245151" d="M663.091,588.222l2.716-10.792a36.264,36.264,0,0,0-5.152,2.437,18.129,18.129,0,0,0-1.742,5.921s-.7,9.916.867,13.543c0,0,4.961,1.28,12.9-2.24v-2.347s-8.681.587-10.458.854Z" transform="translate(-598.066 -508.594)" fill="#e49963"/>
        <path id="Trazado_245152" data-name="Trazado 245152" d="M665.312,659.467c-.111,3.627-.772,10.668-6.669,14.437-.016.009-.031.02-.047.029,1.6-6.873,3.571-15.734,4.5-21.323,1.083,2.089,2.275,4.86,2.215,6.857" transform="translate(-597.92 -574.812)" fill="#aa413e"/>
        <path id="Trazado_245153" data-name="Trazado 245153" d="M663.21,577.43s-5.035.458-6.247,3.943-1.6,15.078-.055,18.491a10.979,10.979,0,0,0,5.883-.126l.139-.034s1.2-3.787.124-4.534c0,0-3.169.213-2.838-1.138s3-16.6,3-16.6" transform="translate(-595.468 -508.594)" fill="#c65447"/>
        <path id="Trazado_245154" data-name="Trazado 245154" d="M800.206,695.018a6.288,6.288,0,0,0,.839-2.186,2.13,2.13,0,0,1,1.8-2.125c1.194-.2,1.707-.224,1.7.21a12.356,12.356,0,0,1-2.688,5.276c-1.713,1.81-1.654-1.174-1.654-1.174" transform="translate(-726.483 -608.245)" fill="#e49963"/>
        <path id="Trazado_245155" data-name="Trazado 245155" d="M858.24,704.629l-.392-.392-.1.406Z" transform="translate(-778.723 -620.284)" fill="#163560"/>
        <path id="Trazado_245214" data-name="Trazado 245214" d="M0,0H44.07V56.866H0Z" transform="translate(220.381 104.656)" fill="#e6d2d2"/>
        <path id="Trazado_245213" data-name="Trazado 245213" d="M0,0H44.07V56.866H0Z" transform="translate(206.793 104.656)" fill="#ef6f6c"/>
        <path id="Trazado_245156" data-name="Trazado 245156" d="M2356.92,980.775h-10.573V967.133h-6.437v13.643h-10.573v8.306h10.573v13.643h6.437V989.082h10.573Z" transform="translate(-2114.739 -851.84)" fill="#ebf2f9"/>
        <path id="Trazado_245157" data-name="Trazado 245157" d="M2722.962,877.9l13.588,8.539V877.9Z" transform="translate(-2472.099 -773.246)" fill="#e9bcba"/>
        <path id="Trazado_245158" data-name="Trazado 245158" d="M2230.251,1006.767a1.248,1.248,0,0,1,.14,1.085.011.011,0,0,1,0,.005,6.468,6.468,0,0,1-1.651,2.338c-.1.1-.188.2-.265.285l-.059.069-.046.053c-.726.863-.453,1.061-1.757,2.813-1.487,2-2.511,2.033-2.8,1.851-.246-.155.254-1.214.809-2.4.027-.057.053-.116.081-.174.074-.158.147-.319.221-.478.65-1.432.483-2.1.329-4.236-.125-1.732-2.089-9.678-2.089-9.678l2.85-.634s.859,6.327,1.8,7.3c.506.519,1.072.526,1.558.911q.051.04.1.082a4.093,4.093,0,0,1,.78.809" transform="translate(-2018.342 -878.732)" fill="#e49963"/>
        <path id="Trazado_245159" data-name="Trazado 245159" d="M2236.013,1067.444a1.248,1.248,0,0,1,.14,1.085.013.013,0,0,1,0,.006,7.493,7.493,0,0,1-1.654,2.33c-.1.105-.185.2-.263.292l-.06.069-.045.053c-.726.863-.453,1.061-1.757,2.813-1.488,2-2.512,2.033-2.8,1.851-.246-.155.255-1.214.809-2.4a6.607,6.607,0,0,0,2.651-2.52c.9-1.475,1.493-3.369,2.1-4.466.034.027.068.054.1.082a4.1,4.1,0,0,1,.78.809" transform="translate(-2024.104 -939.409)" fill="#c65447"/>
        <path id="Trazado_245160" data-name="Trazado 245160" d="M1966.42,996.2c-.176,1.135-1.43.946-2.831.5s-1.068.083-3.062-.2-2.6-1.244-2.659-1.627c-.054-.339.931-.459,1.988-.616.133-.019.266-.04.4-.062,1.193-.193,2.067-1.187,3.151-2,1.027-.773,2.558-3.921,2.558-3.921l2.734.279s-1.435,2.812-1.99,4.035a5.392,5.392,0,0,0-.268,2.4,5.818,5.818,0,0,1-.021,1.207" transform="translate(-1777.491 -870.464)" fill="#e49963"/>
        <path id="Trazado_245161" data-name="Trazado 245161" d="M1963.588,1040.929c-1.4-.442-1.068.083-3.062-.2s-2.6-1.244-2.659-1.627c-.054-.339.931-.459,1.988-.616l.01.026a4.875,4.875,0,0,0,2.855,1.145c1.353.043,2.786-.458,3.72-.438a5.842,5.842,0,0,1-.021,1.207c-.176,1.135-1.43.946-2.831.5" transform="translate(-1777.49 -914.686)" fill="#c65447"/>
        <path id="Trazado_245162" data-name="Trazado 245162" d="M2071.529,601.99s-.651-2.06-1.368-2.144-3-.546-3.16-.126a3.562,3.562,0,0,0,.489,2.48c.488.546,3.518,1.429,3.518,1.429Z" transform="translate(-1876.516 -528.073)" fill="#e49963"/>
        <path id="Trazado_245163" data-name="Trazado 245163" d="M2164.452,823.717l5.893,20.465a4.224,4.224,0,0,0,1.773-.21,7.16,7.16,0,0,0,1.714-1.077s-1.462-19.649-4.142-23.737-5.239,4.559-5.239,4.559" transform="translate(-1965.044 -720.539)" fill="#aa413e"/>
        <path id="Trazado_245164" data-name="Trazado 245164" d="M2064.418,751.463s-16.934-7.388-20.71-5.816-15.116,30.682-15.116,30.682a2.274,2.274,0,0,0,.955.777,7.056,7.056,0,0,0,2.222.294s10.233-11.318,11.451-14.619,1.705-6.445,2.924-6.13,15.716,7.7,19,3.3,2.429-10.12,2.429-10.12Z" transform="translate(-1841.7 -656.564)" fill="#c65447"/>
        <path id="Trazado_245165" data-name="Trazado 245165" d="M2289.326,370.431a15.5,15.5,0,0,1-.721-4.281,16.049,16.049,0,0,0,1.185,4.732c3.522,2.983,10.271,12.945,10.138,14.833,0,0,2.378-5.2,2.419-5.234,0,0,4.385-7.2-.812-11.319-2.642-2.1-2.629-4.784-2.518-7.12s-.721-12.391-6.013-9.76a2.87,2.87,0,0,0-1.229-.414.946.946,0,0,1,.469.287,3.326,3.326,0,0,0-2.223.549c-1.94,1.422-3.676,14.185-.694,17.727" transform="translate(-2076.958 -309.902)" fill="#b5453c"/>
        <path id="Trazado_245166" data-name="Trazado 245166" d="M2312.431,463.059c-.018.01,1.7,1.161,2.992.705,1.216-.428,2.01-2.461,1.993-2.466-.515-.132-.664-1.045-.652-4.967l-.233.059-3.913,1s.089,1.589.091,3.086a5.947,5.947,0,0,1-.279,2.583" transform="translate(-2099.389 -401.931)" fill="#e49963"/>
        <path id="Trazado_245167" data-name="Trazado 245167" d="M2314.47,457.826s.089,1.589.092,3.086c2.19-.08,3.347-2.657,3.822-4.086Z" transform="translate(-2101.24 -402.367)" fill="#d68d5d"/>
        <path id="Trazado_245168" data-name="Trazado 245168" d="M2294.5,375.567a17.264,17.264,0,0,0,1.423-4.34c.2-1.428-.366-6.722-4.49-5.96a4.835,4.835,0,0,0-2.323,1.133c-.9.78-2.187,2.464-.743,7.084l.375,1.56Z" transform="translate(-2076.957 -321.657)" fill="#b5453c"/>
        <path id="Trazado_245169" data-name="Trazado 245169" d="M2289.53,393.762s5.18.11,5.184-4.054.674-6.954-2.633-7.2-3.951,1.342-4.215,2.731.316,8.387,1.664,8.523" transform="translate(-2077.032 -336.886)" fill="#e49963"/>
        <path id="Trazado_245170" data-name="Trazado 245170" d="M2290.929,376.469s-3.538-3.122-4.658-.963c-.339-.375-.944-.647-1.743.6-1.2,1.878-.132,5.2-.132,5.2.493.074.609-2.109.868-3.169a5.37,5.37,0,0,1,1.152-1.97c.452,1.315,1.7,4.461,3.408,5.029,2.177.722,3.121-.03,3.121-.03a8.56,8.56,0,0,1-2.016-4.7" transform="translate(-2073.54 -330.072)" fill="#b5453c"/>
        <path id="Trazado_245171" data-name="Trazado 245171" d="M2290.135,533.643c-.28,1-1.136,1.259-2.285,1.085-2.19-.33-5.443-2.227-7.787-3.539-3.574-2-5.2-.12-6.335-1.393s1.3-4.1-.812-17.236c-.716-4.454,3.819-14.011,3.819-14.011s.314,2.589,4.738-.554a56.2,56.2,0,0,1,3.508,7.174c1.814,4.442,3.552,9.806,3.042,12.571-.975,5.27,2.924,12.995,2.112,15.9" transform="translate(-2063.447 -438.629)" fill="#699dee"/>
        <path id="Trazado_245172" data-name="Trazado 245172" d="M2124.052,502.64l-2.674,14.176s-.333.765-.855,1.854c-1.225,2.557-3.494,6.9-4.946,7.342-.716.218-2.24-.551-3.926-1.651a78.858,78.858,0,0,1-6.957-5.335,4.95,4.95,0,0,1,1.028-3.424s7.635,3.7,8.393,3.773c1.653.152,3.335-10.142,4.88-13.572,1.116-2.481,5.058-3.164,5.058-3.164" transform="translate(-1910.762 -442.72)" fill="#699dee"/>
        <path id="Trazado_245173" data-name="Trazado 245173" d="M2299.846,453.43s-.1.529-1.116.447c0,0-.856-.068-.83-.65a2.185,2.185,0,0,1,1.946.2" transform="translate(-2086.198 -399.078)" fill="#fff"/>
        <path id="Trazado_245174" data-name="Trazado 245174" d="M2359.316,624.734c-.28,1-1.136,1.259-2.285,1.085-1.516-.852-8.063-4.125-7.99-6.343.108-3.284,1.259-3.388.447-7.441-.652-3.254,5.4-9.3,6.363-10.62,1.814,4.441,1.865,4.651,1.354,7.416-.975,5.271,2.924,12.995,2.112,15.9" transform="translate(-2132.627 -529.72)" fill="#4a75cb"/>
        <path id="Trazado_245175" data-name="Trazado 245175" d="M2189.387,632.938c-1.225,2.557-3.494,6.9-4.946,7.342-.716.218-2.24-.551-3.926-1.651a7.966,7.966,0,0,0,3.588.254c1.259-.157,1.624-2.148,3.614-5.135,1.291-1.937,1.607-1.449,1.67-.81" transform="translate(-1979.627 -556.987)" fill="#4a75cb"/>
        <path id="Trazado_245176" data-name="Trazado 245176" d="M2306.817,683.349s-1.1-1.1-2.132-.838a1.9,1.9,0,0,0-1.5,1.6c.041.419.589,1.6,1.381,1.7a11.925,11.925,0,0,0,3.046-.629Z" transform="translate(-2090.991 -601.112)" fill="#e49963"/>
        <path id="Trazado_245177" data-name="Trazado 245177" d="M2340.789,498s4.223.336,5.684,2.966c2.057,3.7,7,20.174,4.657,22.279-2.635,2.37-12.846-.07-12.846-.07a6.265,6.265,0,0,1,.122-2.786c.433-.908,7.472-2.375,7.8-2.795s-4.061-8.175-4.061-9.432S2340.789,498,2340.789,498" transform="translate(-2122.763 -438.63)" fill="#699dee"/>
        <path id="Trazado_245178" data-name="Trazado 245178" d="M2149.808,658.716h-15.552l-2.8-12.616h15.528Z" transform="translate(-1935.084 -569.077)" fill="#1c468a"/>
        <rect id="Rectángulo_53745" data-name="Rectángulo 53745" width="20.332" height="0.492" transform="translate(199.225 89.147)" fill="#163560"/>
        <path id="Trazado_245179" data-name="Trazado 245179" d="M2215.239,691.363c-.1-.443.1-.8.444-.8a.967.967,0,0,1,.8.8c.1.443-.1.8-.444.8a.966.966,0,0,1-.8-.8" transform="translate(-2011.129 -608.237)" fill="#163560"/>
        <path id="Trazado_245210" data-name="Trazado 245210" d="M0,0H29.076V37.519H0Z" transform="translate(7.941 123.465)" fill="#e6d2d2"/>
        <path id="Trazado_245211" data-name="Trazado 245211" d="M0,0H29.076V37.519H0Z" transform="translate(16.906 123.465)" fill="#ef6f6c"/>
        <path id="Trazado_245180" data-name="Trazado 245180" d="M273.472,1122.83l-5.013-6.26,4.851-6.468-3.052-3.811-4.851,6.468-5.013-6.26-2.954,3.938,5.012,6.26-4.851,6.468,3.052,3.811,4.851-6.468,5.013,6.26Z" transform="translate(-233.724 -974.409)" fill="#ebf2f9"/>
        <path id="Trazado_245181" data-name="Trazado 245181" d="M95.155,1035.684,86.19,1042.7v-7.014Z" transform="translate(-78.249 -912.219)" fill="#e6d2d2"/>
        <path id="Trazado_245182" data-name="Trazado 245182" d="M1785.2,528s6.778,8.907,7.1,12.314-3.227,8.737-3.227,8.737Z" transform="translate(-1620.728 -465.06)" fill="#1b3f5e"/>
        <path id="Trazado_245183" data-name="Trazado 245183" d="M1664.616,1302.745a24.07,24.07,0,0,1-.562,4.293h-8.475a1.662,1.662,0,0,1,1.249-1.156,6.312,6.312,0,0,0,4.353-3.766c.846-2.381,3.435.629,3.435.629" transform="translate(-1503.053 -1146.083)" fill="#163560"/>
        <path id="Trazado_245184" data-name="Trazado 245184" d="M1774.4,1302.745a24.13,24.13,0,0,1-.561,4.293h-8.475a1.658,1.658,0,0,1,1.249-1.156,6.314,6.314,0,0,0,4.353-3.766c.846-2.381,3.435.629,3.435.629" transform="translate(-1602.72 -1146.083)" fill="#163560"/>
        <path id="Trazado_245185" data-name="Trazado 245185" d="M1699.081,826.849s1.188,9.8,5.618,27.2,5.034,24.932,5.034,24.932l4.753-.172s.04-19.014-2-27.763-.44-31.54-.44-31.54Z" transform="translate(-1542.547 -721.811)" fill="#163560"/>
        <path id="Trazado_245186" data-name="Trazado 245186" d="M1673.943,824.008a306.125,306.125,0,0,0,1.812,32.9c1.98,18.134,1.309,25.831,1.309,25.831l4.743.2s2.835-18.14,2.022-27.217,3.881-31.145,3.881-31.145Z" transform="translate(-1519.721 -725.777)" fill="#1c468a"/>
        <path id="Trazado_245187" data-name="Trazado 245187" d="M1712.748,480.142l-2.527,2.138-3.652-.878c.05-.381.291-1.957.511-3.385.013-.084.027-.168.039-.251.188-1.215.35-2.259.35-2.259l3.411-1.942,1.272-.724c0,.026-.1,1.349-.112,1.542a14.053,14.053,0,0,0,.708,5.76" transform="translate(-1549.345 -416.472)" fill="#ffb27d"/>
        <path id="Trazado_245188" data-name="Trazado 245188" d="M1681.535,561.319c-.734,4.318-12.94,4.83-16.087.91-.358-.447-.376-2.525-.241-5.327.264-5.475,1.112-13.711,1.145-17.918a42.658,42.658,0,0,1,.521-6,59.887,59.887,0,0,1,1.548-7.179s5.962-2.487,7.078-2.064c5.375,2.038,6.769,33.258,6.036,37.575" transform="translate(-1511.724 -461.265)" fill="#1b3f5e"/>
        <path id="Trazado_245189" data-name="Trazado 245189" d="M1665.973,619.515c.264-5.475,1.112-13.711,1.145-17.918a42.62,42.62,0,0,1,.521-6l3.586-.817s3.507,18.482-5.252,24.733" transform="translate(-1512.489 -523.877)" fill="#1b3f5e"/>
        <path id="Trazado_245190" data-name="Trazado 245190" d="M1676.99,732.921a1.318,1.318,0,0,1-.269,1.26,2.381,2.381,0,0,0-.729,1.926c.118.6,1.244,1.577,1.634,1.419s1.185-.947,1.1-1.263.535-2.775-.417-3.721-1.319.379-1.319.379" transform="translate(-1521.564 -644.915)" fill="#ffb27d"/>
        <path id="Trazado_245191" data-name="Trazado 245191" d="M1627.328,532.124s-3.5.845-6.285,6.145-4.62,9.24-4.107,11.15,5.193,8.535,6,8.535a2.411,2.411,0,0,0,2.182-2.461s-3.3-6.372-2.646-7.326c.277-.408,4.278-4.6,4.849-2.706.945,3.132.007-13.337.007-13.337" transform="translate(-1467.892 -468.689)" fill="#1b3f5e"/>
        <path id="Trazado_245192" data-name="Trazado 245192" d="M1716.823,479.787c-.749,1.637-3.54,3.053-4.7,3.574.013-.084.026-.169.039-.251.188-1.215.35-2.259.35-2.259l3.411-1.942c.754-.013,1.213.2.9.878" transform="translate(-1554.383 -421.817)" fill="#fca56b"/>
        <path id="Trazado_245193" data-name="Trazado 245193" d="M1695.618,406.741s5.495,2.212,6.509-2.225,2.407-7.139-1.058-8.739-4.537-.168-5.155,1.207-1.7,9.067-.3,9.756" transform="translate(-1538.78 -347.975)" fill="#ffb27d"/>
        <path id="Trazado_245194" data-name="Trazado 245194" d="M1702.856,378.659s.35,5.163,1.178,4.939,1.578-.39,1.457,1.166-1.268,3.353,1.282,3.628,6.216-8.21,5.515-9.817c-2.021-4.636-12.352-5.571-9.431.084" transform="translate(-1545.505 -330.077)" fill="#163560"/>
        <path id="Trazado_245195" data-name="Trazado 245195" d="M1702.321,513.937c.071-.038,4.4-1.686,4.868-1.486s.749,1.374.749,1.374l-7.078,2.065a4.329,4.329,0,0,1,1.461-1.953" transform="translate(-1544.162 -451.346)" fill="#1b3f5e"/>
        <path id="Trazado_245196" data-name="Trazado 245196" d="M221.852,581.773s-2.294-3.453-.141-5.646A5.246,5.246,0,0,1,224.564,575s-1.816,3.93-1.229,4.321,1.779-4.568,1.779-4.568,3.578-.447,4.729.267c0,0-3.058,3.23-2.414,3.422s3.948-2.978,3.948-2.978,3.33.731,3.152,3.352-1.325,3.43-1.829,3.361-3.454-1.523-3.518-.99,1.711,2.276,2.955,2.357c0,0-2.348,3.341-3.908,2.377s-1.693-2.492-2.666-3.066-1.8-.572-1.4.013,2.162,1.153,2.718,2.422,1.055,2.126-.559,1.812-4.238-1.837-4.353-3.583Z" transform="translate(-200.448 -506.113)" fill="#82b378"/>
        <path id="Trazado_245197" data-name="Trazado 245197" d="M223.53,610.3s-9.044-.45-11.041,2.888a8.926,8.926,0,0,1-1.8,3.261l-.212.745s1.567-2.132,2.128-2.261c0,0-.877-4.135,10.926-4.633" transform="translate(-191.085 -537.529)" fill="#82b378"/>
        <path id="Trazado_245198" data-name="Trazado 245198" d="M192.318,659.863a7.947,7.947,0,0,0-2.076,5.162l.352.041s.62-3.422,1.741-4.761-.017-.442-.017-.442" transform="translate(-172.715 -580.941)" fill="#82b378"/>
        <path id="Trazado_245199" data-name="Trazado 245199" d="M13.384,508.163s3.649-2.637,1.946-6.215c0,0-1.362-2.2-2.822-2.762,0,0,.778,5.336,0,5.462s-.535-6.027-.535-6.027-3.843-2.386-5.352-2.2c0,0,2.384,5.211,1.605,5.085s-3.454-5.4-3.454-5.4S.832,495.168.2,498.182s.389,4.52.973,4.708,4.33.125,4.233.753-2.627,1.632-4.038,1.067c0,0,1.557,4.959,3.6,4.708s2.676-1.883,3.941-2.009,2.189.314,1.557.753-2.773.144-3.795,1.265-1.849,1.811.049,2.314,5.3.188,5.984-1.7Z" transform="translate(0 -436.845)" fill="#a8d29f"/>
        <path id="Trazado_245200" data-name="Trazado 245200" d="M21.7,522.416s10.217,4.269,11.384,9.04a12.436,12.436,0,0,0,.973,4.583v.942s-1.07-3.2-1.654-3.641c0,0,2.287-4.143-10.7-10.923" transform="translate(-19.705 -460.138)" fill="#82b378"/>
        <path id="Trazado_245201" data-name="Trazado 245201" d="M151.025,632.359a10.826,10.826,0,0,1,.677,6.846l-.405-.141s.393-4.139-.431-6.221.159-.484.159-.484" transform="translate(-136.668 -556.459)" fill="#82b378"/>
        <path id="Trazado_245202" data-name="Trazado 245202" d="M177.123,449s-4.81-3.476-2.565-8.192c0,0,1.8-2.9,3.72-3.641,0,0-1.026,7.034,0,7.2s.705-7.944.705-7.944,5.066-3.145,7.054-2.9c0,0-3.142,6.868-2.116,6.7s4.553-7.117,4.553-7.117,5.195-1.241,6.028,2.731-.513,5.958-1.283,6.206-5.708.166-5.579.993,3.463,2.152,5.323,1.407c0,0-2.052,6.537-4.746,6.206s-3.527-2.483-5.195-2.648-2.886.414-2.052.993,3.655.19,5,1.667,2.437,2.388-.064,3.05-6.99.248-7.888-2.234Z" transform="translate(-157.934 -381.315)" fill="#a8d29f"/>
        <path id="Trazado_245203" data-name="Trazado 245203" d="M210.65,467.784s-13.467,5.627-15.007,11.916a16.4,16.4,0,0,1-1.283,6.041v1.241s1.411-4.22,2.181-4.8c0,0-3.014-5.462,14.109-14.4" transform="translate(-176.455 -412.019)" fill="#82b378"/>
        <path id="Trazado_245204" data-name="Trazado 245204" d="M181.967,612.71a14.269,14.269,0,0,0-.893,9.023l.534-.185s-.519-5.456.568-8.2-.209-.638-.209-.638" transform="translate(-164.061 -538.988)" fill="#82b378"/>
        <path id="Trazado_245205" data-name="Trazado 245205" d="M113.68,694.4c5.2,0,9.422-5.443,9.422-12.157H104.258c0,6.714,4.218,12.157,9.422,12.157" transform="translate(-94.653 -600.915)" fill="#9eabb6"/>
        <path id="Trazado_245206" data-name="Trazado 245206" d="M127.314,694.309a7.322,7.322,0,0,1-1.171.093c-5.2,0-9.421-5.443-9.421-12.157h2.341c0,6.2,3.6,11.321,8.251,12.064" transform="translate(-105.969 -600.914)" fill="#c6cbd0"/>
        <path id="Trazado_245207" data-name="Trazado 245207" d="M120.786,776.835H104.007a1.364,1.364,0,0,0-1.162,1.5h19.1a1.364,1.364,0,0,0-1.162-1.5" transform="translate(-93.37 -684.228)" fill="#9eabb6"/>
        <rect id="Rectángulo_53748" data-name="Rectángulo 53748" width="19.367" height="0.373" transform="translate(9.295 81.331)" fill="#1b3f5e"/>
      </g>
    </g>
  </g>
</svg>
