<svg xmlns="http://www.w3.org/2000/svg" xmlns:xlink="http://www.w3.org/1999/xlink" width="295" height="311" viewBox="0 0 295 311">
  <defs>
    <clipPath id="clip-path">
      <rect id="Rectángulo_55207" data-name="Rectángulo 55207" width="295" height="311" fill="none"/>
    </clipPath>
  </defs>
  <g id="Grupo_599081" data-name="Grupo 599081" transform="translate(0.154 0.154)">
    <g id="Grupo_599080" data-name="Grupo 599080" transform="translate(-0.154 -0.154)" clip-path="url(#clip-path)">
      <path id="Trazado_236231" data-name="Trazado 236231" d="M230.35,0H64.5C28.875,0,0,30.436,0,67.986v174.82c0,37.55,28.875,67.986,64.5,67.986H230.35c35.623,0,64.5-30.436,64.5-67.986V67.986C294.849,30.436,265.974,0,230.35,0" transform="translate(0.209 0.209)" fill="#82afff"/>
      <g id="Grupo_599857" data-name="Grupo 599857" transform="translate(-11.379 -4.715)">
        <path id="Trazado_236232" data-name="Trazado 236232" d="M89.868,155.749A68.839,68.839,0,1,0,21.029,86.909a68.922,68.922,0,0,0,68.839,68.839M97.722,25.267l5.918-2.177a64.8,64.8,0,0,1,22.946,9.85c-.588-.06-2.14-.222-2.408-.31-.329-.111-.843,2.107-.843,2.107l2.714,1.079.741-2.728a66.149,66.149,0,0,1,7.933,6.469l-3.992,3.992h-.7l-.574-2.251-2.186-3.927-7.715-2.779-5.33,2.579,3.024,6.557a50.825,50.825,0,0,0-25.614-7.924V26.67l5.437,1.718-2.26-3.983-3.177,1.357V21.687a64.082,64.082,0,0,1,6.974.565l-2.672.889Zm35.723,50.39,1.3-.551.324-3.2a47.228,47.228,0,0,1,2.366,13.235H125.467l.44-1.913,3.385-.3,2.8-4.77-.079-.894-2.871,3.677-1.75.431-1.116-1.311,1.311-2.232L124.73,75.73l-2.566,2.251a33.294,33.294,0,0,0-2.853-7.113l1.394-.509,1.116-.667-.009-1.311.718-.894-.417-.25c-.306.144-1.9.607-1.9.607l-.551,1.8-.8.482a33.341,33.341,0,0,0-4.1-5.613l6.6-6.6.06.093,1.607-.963-.25-.546,1.964-1.964A47.73,47.73,0,0,1,134.817,71.2l-1.644-2.441-.847.315Zm-8.7,43.628-3.57-3.57-1.348-3.57-.695,1.528-1.385-1.38,1.417-4.339-.917-3.154-.065.009A33.606,33.606,0,0,0,120.743,100h.019c.218,0,1.028-1.028,1.028-1.028l1.987.218,5.131-2.028-1.968-1.871-1.162-1.033-.9-1.834-1.607-2.8c.023-.31.032-.63.046-.949h14.124a47.435,47.435,0,0,1-12.7,30.611m-68.524-2.26,1.769-3.089-3.8-13.3-3-7.4L53.9,92.059l.736-2.209,1.838-.051a33.4,33.4,0,0,0,8.5,19.506L57.183,117.1Zm4.251-32.6-.042.718h-.477c.014-.273.019-.546.042-.82ZM105.79,112.3l-.607-.329-7.7,2.978-3.987-1.538-1.857.514v-2.538l1.922-.583,1.162.282,2.454.959-1.482-2.7L98.866,112l1.519.347-.463-2.028,1.028-3.348,3.594-2.19.31,2.019-4.381,2.38.843,1.676,4.552-.922.074,2.274-.153.093M87.641,99.038l-.139-.292-.824.046a12.305,12.305,0,0,1-3-1.25l3.075-.375L88.1,93.546v5.539c-.153-.019-.315-.019-.463-.046M74.734,91.48l-3-.463,1.528-2.343h.9a16.04,16.04,0,0,0,.574,2.806m16.9-12.212.824.25,1.042,1.26-1.866,1.871ZM97.2,101.7l-1.436,1.681-2.385,1.186-.8-1.4-.482,2.792-.463.181v-3.52c.333-.037.676-.042,1-.1l1.139,1.431.949-1.181-.074-.787a16.433,16.433,0,0,0,1.57-.528ZM96.129,83.149l-.037,1.908-.069.088H94.133Zm1.135,6.571,2.283-.069,1.246,1.037-.417.746-1.741-1-.954.746.477,1.431-.019.065-4.006-4.006H96.8ZM95.75,95.282l-2.181-.232-1.542,4c-.13.023-.264.019-.389.037V91.17ZM84.418,85.145l-.153-.644-1.537.644h-.676l.222-.931.991-.959-.787-.181-.815,1.162-.847.389.1.519h-.894l.537-2.089,1.57-1.389,3.478,3.478Zm-6.553,3.529.361.426.245-.426h1.264l-1.644,1.778a12.534,12.534,0,0,1-.4-1.778Zm1.959,5.372L82.1,90.1l-.6-.533,1.01-.519.125-.38h1.6l-.366.2-.153.528,1.246-.083-.926.922-.945.2-.195.94-2.894,2.894c-.06-.079-.13-.144-.185-.227M88.1,75.1l-.658-.1.509,2.116.148.116v5.418L85.136,79.68l2.084-1.125-1.88-3.117A12.24,12.24,0,0,1,88.1,74.73ZM60.244,88.674l-.037.671-.148.9c-.056-.519-.079-1.047-.107-1.57Zm1.727,4.191,2.2,2.209,1.8-1.255L70.21,97.38l4.566.8,1.274-3.589a16.112,16.112,0,0,0,1.463,2.177l-3.922,3.922.63-1.607-2.334-.38.746,2.742.111.093-5.27,5.27a29.922,29.922,0,0,1-7-13.842Zm18.038,6.4a15.7,15.7,0,0,0,8.095,3.353v4.08l-.037.1.037-.014v3.056l-1.028.2-.6,3.83,1.625-.185V114.9l-2.57.713-.857.824A29.884,29.884,0,0,1,69.969,109.3Zm29.777,14.564,2.589.551,2.547.079,1.4,1.4-4.279-.153-2.76-1.5c.171-.12.333-.25.5-.375m2.482-7.021-.773-.773,1.575-.12c-.255.31-.537.6-.8.894m4.047-34.056c-1.2.019-2.366.037-2.468.037a14.905,14.905,0,0,0-1.954,1.477l-1.32,1.713-.4-2.089.935-2.135-.722-.662-3.237,2.061-.685-.347,2.528-2.528.556.185,1.612-.38-.82-1.153,1.926-1.922a30.07,30.07,0,0,1,4.047,5.742m-9.466-5.316-.157-.5-1.047.167-.653,1.26-2.876.282c.208.421,1.107,2.172,1.186,2.329l-3.57,3.575a15.575,15.575,0,0,0-2.436-1.6l.445-.236-.528-1.774-.357-.653L95.263,72.03a15.748,15.748,0,0,0-3.631-.829V56.989a29.83,29.83,0,0,1,18.139,7.525ZM88.1,71.2a15.86,15.86,0,0,0-3.293.722l.533-1.227-2.755,2.163,0,.009a16.272,16.272,0,0,0-2.584,1.681l-10.04-10.04A29.851,29.851,0,0,1,88.1,56.989ZM76.948,76.48l-4.747.834.167-1.806-3.936-1.357-6.289,1.315a29.923,29.923,0,0,1,5.33-8.461Zm-15.236.157,1.973.417-2.366.653c.116-.361.264-.713.394-1.07m-5.289,8.507h-.306l.32-.3c-.009.1-.009.194-.014.3m3.76,33.945,7.289-7.289a33.45,33.45,0,0,0,14.148,7.576l-2.51,2.417,5.4,7.141,3.589.2v5.344a47.331,47.331,0,0,1-25.429-8.484l1.167-.759Zm31.454,10.239,4.548.25.12,1.042,2.769,3.038a47.966,47.966,0,0,1-7.437.82Zm28.916-9.243,1.695,1.695c-.81.755-1.625,1.5-2.487,2.2Zm1.695-68.047-1.033,1.033-1.227-2.677-2.227-1.19s-2.079-1.829-3.158-2.959a47.63,47.63,0,0,1,7.646,5.793m-8.127-6.085,1.561,5.46,3.645,3.172.144.232-7.2,7.2A33.346,33.346,0,0,0,91.637,53.46V39.34a47.247,47.247,0,0,1,22.483,6.613M88.1,53.46a33.346,33.346,0,0,0-20.631,8.558l-9.98-9.98A47.387,47.387,0,0,1,88.1,39.34ZM64.977,64.514a33.434,33.434,0,0,0-7.808,15.041l-3.1,5.59H42.3A47.423,47.423,0,0,1,55,54.53Zm-12.61,24.16L49.014,95.88l-4.742-1.764-.894,3.158a48.206,48.206,0,0,1-1.079-8.6ZM48.829,124.42l.551.482-6.858,6.858a65.44,65.44,0,0,1-11.647-17.023l1.82,1.065L44.86,126.625Zm3.2,2.83,1.658,1.473,5.386-1.023A50.877,50.877,0,0,0,88.1,138.007v14.12a64.984,64.984,0,0,1-43.087-17.871Zm39.613,10.758A51.067,51.067,0,0,0,100.4,137l.329,2.172,8.414,6.206,9.475-5.256,2.718-5.733-.181-3.547,1.792-4.2-.44-.343c.773-.639,1.5-1.338,2.228-2.024l1.63,1.625.5,3.075,1.848-.732,6.011,6.011a65.01,65.01,0,0,1-43.091,17.876ZM129.556,124.1l-.338-4.015-.449.019a50.92,50.92,0,0,0,12.2-31.426h14.12A64.985,64.985,0,0,1,137.22,131.76Zm11.415-38.951a50.75,50.75,0,0,0-7.2-24.424l6,5.613,4.816-4.14L137.2,51.052,132.32,47.3l.014-.357,4.886-4.886a64.985,64.985,0,0,1,17.871,43.087ZM88.1,35.807A50.936,50.936,0,0,0,55,49.542l-9.98-9.98A64.989,64.989,0,0,1,88.1,21.687ZM52.5,52.038A50.931,50.931,0,0,0,38.77,85.145H24.65A64.962,64.962,0,0,1,42.521,42.058ZM38.77,88.674a50.823,50.823,0,0,0,2.8,15.027l-.533,1.889-13.8-.306A64.926,64.926,0,0,1,24.65,88.674Z" transform="translate(69.142 56.342)" fill="#f5f5f5"/>
        <path id="Trazado_236233" data-name="Trazado 236233" d="M52.661,77.871,65.406,75.81a1.439,1.439,0,0,0,.824-2.4c-3.066-3.279-9.16-10.058-12.684-15.833-4.858-7.942-13.4-14.49-13.4-14.49s1.635,21.844,18.107,29.346c0,0-16.329-4.122-26.772-6.914s-13.3-5.872-13.3-5.872,8.15,20.876,34.482,18.228" transform="translate(58.794 147.164)" fill="#f5f5f5"/>
        <path id="Trazado_236234" data-name="Trazado 236234" d="M50.92,69.52C50.481,64.078,46.5,50.162,39,38.659c0,0,.009,27.957,9.938,37.423,0,0-14.05-13.476-22.437-19.654A41.255,41.255,0,0,1,15.174,44.073S17.286,61.735,28.71,70.548C36.43,76.508,53.569,80.7,53.569,80.7A46.824,46.824,0,0,1,50.92,69.52" transform="translate(47.882 131.101)" fill="#f5f5f5"/>
        <path id="Trazado_236235" data-name="Trazado 236235" d="M27.933,67.55l8.586,7.423a1.391,1.391,0,0,0,2.306-1.019A59.759,59.759,0,0,1,39.7,63.577C40.728,59.02,42,44.21,36.806,33.448c0,0-6.28,19.288-1.371,35.353A221.151,221.151,0,0,0,19.843,47.253a31.941,31.941,0,0,1-5.752-10.577S13.957,55.931,27.933,67.55" transform="translate(43.95 112.179)" fill="#f5f5f5"/>
        <path id="Trazado_236236" data-name="Trazado 236236" d="M26.448,69.174a1.4,1.4,0,0,0,2.454-.347,105.761,105.761,0,0,1,6.224-14.041c5.3-9.711,2.853-21.136,2.853-21.136s-8.5,14.574-10.966,30.764c-.157-.718-.333-1.491-.542-2.376-2.334-9.8-11.411-34.269-11.411-34.269s-3.191,13.434.8,24.076c2.052,5.46,7.78,13.532,10.591,17.329" transform="translate(43.082 91.556)" fill="#f5f5f5"/>
        <path id="Trazado_236237" data-name="Trazado 236237" d="M19.193,68.424a.992.992,0,0,0,1.913.032,24.457,24.457,0,0,1,6.02-10.008A62.824,62.824,0,0,0,41.329,33.9S27.2,45.228,22.749,52.869c0,0,.44-10.508-1.07-18.1a23.913,23.913,0,0,1,1.449-12.707S14.177,30.649,15.5,46.39a131.965,131.965,0,0,0,3.691,22.034" transform="translate(48.587 70.827)" fill="#f5f5f5"/>
        <path id="Trazado_236238" data-name="Trazado 236238" d="M19.658,53.336c2.681-2.454,7.372-6.641,11.9-9.179,6.006-3.367,10.753-14.24,11.8-16.658,0,0-16.736,13.7-21.289,18.093,0,0,2.755-12.244,4.524-17.542s1.542-7.058,3.089-9.267c0,0-8.058,7.062-10.262,12.689C17.6,36.095,17.949,46.607,17.7,52.409a1.167,1.167,0,0,0,1.954.926" transform="translate(57.064 58.935)" fill="#f5f5f5"/>
        <path id="Trazado_236239" data-name="Trazado 236239" d="M30.546,32.692c4.705-3.825,12.207-15,12.207-15-1.857,1.06-9.415,3.677-15.736,10.151a30.929,30.929,0,0,0-7.65,15.3s6.474-6.618,11.179-10.443" transform="translate(63.107 54.955)" fill="#f5f5f5"/>
        <path id="Trazado_236240" data-name="Trazado 236240" d="M129.111,53.69c-13.828-2.723-25.669-4.705-39.548-1.1-.681.181-1.32.384-1.977.574-.662-.19-1.3-.4-1.982-.574-13.879-3.608-25.72-1.625-39.548,1.1a74.713,74.713,0,0,1-24.4.329s8.66,8.79,28.369,8.79c8.6,0,19.4-7.238,26.225-7.623a29.678,29.678,0,0,1,4.978.19C66.593,61.349,59.832,70.407,59.7,70.583a1.76,1.76,0,0,0,.343,2.468,1.731,1.731,0,0,0,1.065.361,1.756,1.756,0,0,0,1.4-.695c.542-.713,11.355-11.9,25.077-16.032,13.717,4.131,24.535,15.319,25.072,16.032a1.771,1.771,0,0,0,1.408.695,1.741,1.741,0,0,0,1.065-.361,1.763,1.763,0,0,0,.338-2.468c-.134-.176-6.891-9.234-21.534-15.208a29.716,29.716,0,0,1,4.978-.19c6.821.384,17.63,7.623,26.225,7.623,19.714,0,28.369-8.79,28.369-8.79a74.713,74.713,0,0,1-24.4-.329" transform="translate(71.429 174.582)" fill="#f5f5f5"/>
        <path id="Trazado_236241" data-name="Trazado 236241" d="M51.519,72.429C68,64.927,69.626,43.083,69.626,43.083s-8.544,6.548-13.4,14.49c-3.524,5.77-9.619,12.555-12.684,15.833a1.439,1.439,0,0,0,.824,2.4l12.744,2.061C83.44,80.52,91.595,59.643,91.595,59.643s-2.862,3.075-13.3,5.872-26.772,6.914-26.772,6.914" transform="translate(149.462 147.164)" fill="#f5f5f5"/>
        <path id="Trazado_236242" data-name="Trazado 236242" d="M75.392,56.428c-8.387,6.178-22.437,19.654-22.437,19.654,9.929-9.466,9.938-37.423,9.938-37.423-7.5,11.5-11.48,25.419-11.92,30.861A46.825,46.825,0,0,1,48.324,80.7s17.139-4.191,24.859-10.151C84.608,61.74,86.719,44.073,86.719,44.073A41.256,41.256,0,0,1,75.392,56.428" transform="translate(168.249 131.101)" fill="#f5f5f5"/>
        <path id="Trazado_236243" data-name="Trazado 236243" d="M57.163,68.8c4.909-16.065-1.371-35.353-1.371-35.353C50.6,44.21,51.865,59.02,52.9,63.577a59.757,59.757,0,0,1,.875,10.378,1.391,1.391,0,0,0,2.306,1.019l8.586-7.423C78.641,55.931,78.507,36.671,78.507,36.671a31.941,31.941,0,0,1-5.752,10.577A221.552,221.552,0,0,0,57.163,68.8" transform="translate(181.477 112.179)" fill="#f5f5f5"/>
        <path id="Trazado_236244" data-name="Trazado 236244" d="M64.134,64.417C61.67,48.223,53.168,33.654,53.168,33.654s-2.441,11.425,2.848,21.131a106.312,106.312,0,0,1,6.233,14.046,1.4,1.4,0,0,0,2.445.347c2.82-3.8,8.549-11.874,10.591-17.334,4-10.642.8-24.076.8-24.076S67.01,52.233,64.676,62.042c-.208.88-.38,1.653-.542,2.376" transform="translate(183.796 91.556)" fill="#f5f5f5"/>
        <path id="Trazado_236245" data-name="Trazado 236245" d="M70.461,34.766c-1.51,7.595-1.07,18.1-1.07,18.1C64.936,45.228,50.816,33.9,50.816,33.9a62.767,62.767,0,0,0,14.2,24.553,24.357,24.357,0,0,1,6.016,10.008.993.993,0,0,0,1.913-.032,131.461,131.461,0,0,0,3.691-22.039c1.324-15.736-7.627-24.326-7.627-24.326a23.9,23.9,0,0,1,1.45,12.707" transform="translate(177.298 70.827)" fill="#f5f5f5"/>
        <path id="Trazado_236246" data-name="Trazado 236246" d="M69.839,45.593C65.282,41.2,48.546,27.5,48.546,27.5c1.051,2.417,5.8,13.291,11.8,16.658,4.524,2.538,9.216,6.72,11.9,9.179a1.168,1.168,0,0,0,1.954-.926c-.25-5.8.1-16.315-1.713-20.937-2.209-5.627-10.262-12.689-10.262-12.689,1.547,2.2,1.324,3.973,3.089,9.267s4.524,17.542,4.524,17.542" transform="translate(169.055 58.935)" fill="#f5f5f5"/>
        <path id="Trazado_236247" data-name="Trazado 236247" d="M59.578,32.692c4.705,3.825,11.179,10.443,11.179,10.443a30.929,30.929,0,0,0-7.65-15.3c-6.321-6.474-13.879-9.091-15.736-10.151,0,0,7.5,11.179,12.207,15" transform="translate(164.789 54.955)" fill="#f5f5f5"/>
      </g>
      <path id="Trazado_236248" data-name="Trazado 236248" d="M45.785,28.785l-2.654,1.749,2.83.442,3.1,3.419,1.728-1.114-2.076-4.251Z" transform="translate(133.707 89.302)" fill="#f5f5f5"/>
      <path id="Trazado_236249" data-name="Trazado 236249" d="M44.8,37.812l.983.377,2.486-6.683-.684-.93-1.069.541-1.708,6.048Z" transform="translate(138.878 94.845)" fill="#f5f5f5"/>
      <path id="Trazado_236250" data-name="Trazado 236250" d="M40.621,30.2l-.782-.827-1.753,2.244.434.676Z" transform="translate(118.091 91.124)" fill="#f5f5f5"/>
      <path id="Trazado_236251" data-name="Trazado 236251" d="M44.611,29.456l.475-1.527-1.573.319-.442.127L42.6,29l1.7,1.97.688-.586Z" transform="translate(132.076 86.651)" fill="#f5f5f5"/>
      <path id="Trazado_236252" data-name="Trazado 236252" d="M36.279,37.75l.025-.95-1.2,1.732.344.586Z" transform="translate(108.873 114.11)" fill="#f5f5f5"/>
    </g>
  </g>
</svg>
