<svg xmlns="http://www.w3.org/2000/svg" xmlns:xlink="http://www.w3.org/1999/xlink" width="1321.938" height="541.27" viewBox="0 0 1321.938 541.27">
  <defs>
    <linearGradient id="linear-gradient" x1="0.835" y1="0.896" x2="0.013" y2="0.056" gradientUnits="objectBoundingBox">
      <stop offset="0" stop-color="#004b89"/>
      <stop offset="1" stop-color="#008bfd"/>
    </linearGradient>
    <linearGradient id="linear-gradient-2" x1="0.429" y1="0.396" x2="1.045" y2="0.295" xlink:href="#linear-gradient"/>
    <clipPath id="clip-path">
      <path id="Rectangle_652" data-name="Rectangle 652" d="M20.787,0H1299.213C1310.693,0,1320,8.4,1320,18.772V488.063c0,10.367-9.307,18.772-20.787,18.772H20.787C9.307,506.835,0,498.431,0,488.063V18.772C0,8.4,9.307,0,20.787,0Z" fill="url(#linear-gradient)"/>
    </clipPath>
    <clipPath id="clip-path-2">
      <rect id="Rect치ngulo_51732" data-name="Rect치ngulo 51732" width="681.578" height="535.9" fill="none"/>
    </clipPath>
  </defs>
  <g id="Grupo_593156" data-name="Grupo 593156" transform="translate(-144.333 -70)">
    <g id="Grupo_78297" data-name="Grupo 78297" transform="translate(11218.248 12523.086)">
      <path id="Trazado_99257" data-name="Trazado 99257" d="M416.049,103.656a.918.918,0,1,1-.918-.877A.9.9,0,0,1,416.049,103.656Z" transform="translate(-11447.97 -12119.038)" fill="#fff"/>
      <path id="Trazado_99258" data-name="Trazado 99258" d="M424.495,103.656a.918.918,0,1,1-.917-.877A.9.9,0,0,1,424.495,103.656Z" transform="translate(-11448.161 -12119.038)" fill="#fff"/>
      <path id="Trazado_99259" data-name="Trazado 99259" d="M432.941,103.656a.918.918,0,1,1-.917-.877A.9.9,0,0,1,432.941,103.656Z" transform="translate(-11448.352 -12119.038)" fill="#fff"/>
      <path id="Trazado_99260" data-name="Trazado 99260" d="M441.388,103.656a.918.918,0,1,1-.918-.877A.9.9,0,0,1,441.388,103.656Z" transform="translate(-11448.543 -12119.038)" fill="#fff"/>
      <path id="Trazado_99261" data-name="Trazado 99261" d="M449.834,103.656a.918.918,0,1,1-.917-.877A.9.9,0,0,1,449.834,103.656Z" transform="translate(-11448.733 -12119.038)" fill="#fff"/>
      <ellipse id="Elipse_3975" data-name="Elipse 3975" cx="0.917" cy="0.877" rx="0.917" ry="0.877" transform="translate(-11033.756 -12009.241)" fill="#fff"/>
      <path id="Trazado_99268" data-name="Trazado 99268" d="M424.495,111.164a.918.918,0,1,1-.917-.877A.9.9,0,0,1,424.495,111.164Z" transform="translate(-11448.161 -12119.528)" fill="#fff"/>
      <ellipse id="Elipse_3976" data-name="Elipse 3976" cx="0.917" cy="0.877" rx="0.917" ry="0.877" transform="translate(-11017.245 -12009.241)" fill="#fff"/>
      <path id="Trazado_99269" data-name="Trazado 99269" d="M441.388,111.164a.918.918,0,1,1-.918-.877A.9.9,0,0,1,441.388,111.164Z" transform="translate(-11448.543 -12119.528)" fill="#fff"/>
      <path id="Trazado_99270" data-name="Trazado 99270" d="M449.834,111.164a.918.918,0,1,1-.917-.877A.9.9,0,0,1,449.834,111.164Z" transform="translate(-11448.733 -12119.528)" fill="#fff"/>
      <path id="Trazado_99274" data-name="Trazado 99274" d="M416.049,118.672a.918.918,0,1,1-.918-.878A.9.9,0,0,1,416.049,118.672Z" transform="translate(-11447.97 -12120.019)" fill="#fff"/>
      <path id="Trazado_99275" data-name="Trazado 99275" d="M424.495,118.672a.918.918,0,1,1-.917-.878A.9.9,0,0,1,424.495,118.672Z" transform="translate(-11448.161 -12120.019)" fill="#fff"/>
      <path id="Trazado_99276" data-name="Trazado 99276" d="M432.941,118.672a.918.918,0,1,1-.917-.878A.9.9,0,0,1,432.941,118.672Z" transform="translate(-11448.352 -12120.019)" fill="#fff"/>
      <path id="Trazado_99277" data-name="Trazado 99277" d="M441.388,118.672a.918.918,0,1,1-.918-.878A.9.9,0,0,1,441.388,118.672Z" transform="translate(-11448.543 -12120.019)" fill="#fff"/>
      <path id="Trazado_99278" data-name="Trazado 99278" d="M449.834,118.672a.918.918,0,1,1-.917-.878A.9.9,0,0,1,449.834,118.672Z" transform="translate(-11448.733 -12120.019)" fill="#fff"/>
      <ellipse id="Elipse_3980" data-name="Elipse 3980" cx="0.917" cy="0.877" rx="0.917" ry="0.877" transform="translate(-11033.756 -11995.206)" fill="#fff"/>
      <path id="Trazado_99285" data-name="Trazado 99285" d="M424.495,126.18a.918.918,0,1,1-.917-.878A.9.9,0,0,1,424.495,126.18Z" transform="translate(-11448.161 -12120.509)" fill="#fff"/>
      <ellipse id="Elipse_3981" data-name="Elipse 3981" cx="0.917" cy="0.877" rx="0.917" ry="0.877" transform="translate(-11017.245 -11995.206)" fill="#fff"/>
      <path id="Trazado_99286" data-name="Trazado 99286" d="M441.388,126.18a.918.918,0,1,1-.918-.878A.9.9,0,0,1,441.388,126.18Z" transform="translate(-11448.543 -12120.509)" fill="#fff"/>
      <path id="Trazado_99287" data-name="Trazado 99287" d="M449.834,126.18a.918.918,0,1,1-.917-.878A.9.9,0,0,1,449.834,126.18Z" transform="translate(-11448.733 -12120.509)" fill="#fff"/>
      <ellipse id="Elipse_3985" data-name="Elipse 3985" cx="0.917" cy="0.877" rx="0.917" ry="0.877" transform="translate(-11033.756 -11988.189)" fill="#fff"/>
      <path id="Trazado_99291" data-name="Trazado 99291" d="M424.495,133.688a.918.918,0,1,1-.917-.878A.9.9,0,0,1,424.495,133.688Z" transform="translate(-11448.161 -12120.999)" fill="#fff"/>
      <ellipse id="Elipse_3986" data-name="Elipse 3986" cx="0.917" cy="0.877" rx="0.917" ry="0.877" transform="translate(-11017.245 -11988.189)" fill="#fff"/>
      <path id="Trazado_99292" data-name="Trazado 99292" d="M441.388,133.688a.918.918,0,1,1-.918-.878A.9.9,0,0,1,441.388,133.688Z" transform="translate(-11448.543 -12120.999)" fill="#fff"/>
      <path id="Trazado_99293" data-name="Trazado 99293" d="M449.834,133.688a.918.918,0,1,1-.917-.878A.9.9,0,0,1,449.834,133.688Z" transform="translate(-11448.733 -12120.999)" fill="#fff"/>
    </g>
    <path id="Rectangle_652-2" data-name="Rectangle 652" d="M1320,18.772Z" transform="translate(144.333 70)" fill="url(#linear-gradient-2)"/>
    <g id="Grupo_158572" data-name="Grupo 158572" transform="translate(11218.248 12523.086)">
      <path id="Trazado_99257-2" data-name="Trazado 99257" d="M416.049,103.656a.918.918,0,1,1-.918-.877A.9.9,0,0,1,416.049,103.656Z" transform="translate(-11447.97 -12119.038)" fill="#fff"/>
      <path id="Trazado_99258-2" data-name="Trazado 99258" d="M424.495,103.656a.918.918,0,1,1-.917-.877A.9.9,0,0,1,424.495,103.656Z" transform="translate(-11448.161 -12119.038)" fill="#fff"/>
      <path id="Trazado_99259-2" data-name="Trazado 99259" d="M432.941,103.656a.918.918,0,1,1-.917-.877A.9.9,0,0,1,432.941,103.656Z" transform="translate(-11448.352 -12119.038)" fill="#fff"/>
      <path id="Trazado_99260-2" data-name="Trazado 99260" d="M441.388,103.656a.918.918,0,1,1-.918-.877A.9.9,0,0,1,441.388,103.656Z" transform="translate(-11448.543 -12119.038)" fill="#fff"/>
      <path id="Trazado_99261-2" data-name="Trazado 99261" d="M449.834,103.656a.918.918,0,1,1-.917-.877A.9.9,0,0,1,449.834,103.656Z" transform="translate(-11448.733 -12119.038)" fill="#fff"/>
      <ellipse id="Elipse_3975-2" data-name="Elipse 3975" cx="0.917" cy="0.877" rx="0.917" ry="0.877" transform="translate(-11033.756 -12009.241)" fill="#fff"/>
      <path id="Trazado_99268-2" data-name="Trazado 99268" d="M424.495,111.164a.918.918,0,1,1-.917-.877A.9.9,0,0,1,424.495,111.164Z" transform="translate(-11448.161 -12119.528)" fill="#fff"/>
      <ellipse id="Elipse_3976-2" data-name="Elipse 3976" cx="0.917" cy="0.877" rx="0.917" ry="0.877" transform="translate(-11017.245 -12009.241)" fill="#fff"/>
      <path id="Trazado_99269-2" data-name="Trazado 99269" d="M441.388,111.164a.918.918,0,1,1-.918-.877A.9.9,0,0,1,441.388,111.164Z" transform="translate(-11448.543 -12119.528)" fill="#fff"/>
      <path id="Trazado_99270-2" data-name="Trazado 99270" d="M449.834,111.164a.918.918,0,1,1-.917-.877A.9.9,0,0,1,449.834,111.164Z" transform="translate(-11448.733 -12119.528)" fill="#fff"/>
      <path id="Trazado_99274-2" data-name="Trazado 99274" d="M416.049,118.672a.918.918,0,1,1-.918-.878A.9.9,0,0,1,416.049,118.672Z" transform="translate(-11447.97 -12120.019)" fill="#fff"/>
      <path id="Trazado_99275-2" data-name="Trazado 99275" d="M424.495,118.672a.918.918,0,1,1-.917-.878A.9.9,0,0,1,424.495,118.672Z" transform="translate(-11448.161 -12120.019)" fill="#fff"/>
      <path id="Trazado_99276-2" data-name="Trazado 99276" d="M432.941,118.672a.918.918,0,1,1-.917-.878A.9.9,0,0,1,432.941,118.672Z" transform="translate(-11448.352 -12120.019)" fill="#fff"/>
      <path id="Trazado_99277-2" data-name="Trazado 99277" d="M441.388,118.672a.918.918,0,1,1-.918-.878A.9.9,0,0,1,441.388,118.672Z" transform="translate(-11448.543 -12120.019)" fill="#fff"/>
      <path id="Trazado_99278-2" data-name="Trazado 99278" d="M449.834,118.672a.918.918,0,1,1-.917-.878A.9.9,0,0,1,449.834,118.672Z" transform="translate(-11448.733 -12120.019)" fill="#fff"/>
      <ellipse id="Elipse_3980-2" data-name="Elipse 3980" cx="0.917" cy="0.877" rx="0.917" ry="0.877" transform="translate(-11033.756 -11995.206)" fill="#fff"/>
      <path id="Trazado_99285-2" data-name="Trazado 99285" d="M424.495,126.18a.918.918,0,1,1-.917-.878A.9.9,0,0,1,424.495,126.18Z" transform="translate(-11448.161 -12120.509)" fill="#fff"/>
      <ellipse id="Elipse_3981-2" data-name="Elipse 3981" cx="0.917" cy="0.877" rx="0.917" ry="0.877" transform="translate(-11017.245 -11995.206)" fill="#fff"/>
      <path id="Trazado_99286-2" data-name="Trazado 99286" d="M441.388,126.18a.918.918,0,1,1-.918-.878A.9.9,0,0,1,441.388,126.18Z" transform="translate(-11448.543 -12120.509)" fill="#fff"/>
      <path id="Trazado_99287-2" data-name="Trazado 99287" d="M449.834,126.18a.918.918,0,1,1-.917-.878A.9.9,0,0,1,449.834,126.18Z" transform="translate(-11448.733 -12120.509)" fill="#fff"/>
      <ellipse id="Elipse_3985-2" data-name="Elipse 3985" cx="0.917" cy="0.877" rx="0.917" ry="0.877" transform="translate(-11033.756 -11988.189)" fill="#fff"/>
      <path id="Trazado_99291-2" data-name="Trazado 99291" d="M424.495,133.688a.918.918,0,1,1-.917-.878A.9.9,0,0,1,424.495,133.688Z" transform="translate(-11448.161 -12120.999)" fill="#fff"/>
      <ellipse id="Elipse_3986-2" data-name="Elipse 3986" cx="0.917" cy="0.877" rx="0.917" ry="0.877" transform="translate(-11017.245 -11988.189)" fill="#fff"/>
      <path id="Trazado_99292-2" data-name="Trazado 99292" d="M441.388,133.688a.918.918,0,1,1-.918-.878A.9.9,0,0,1,441.388,133.688Z" transform="translate(-11448.543 -12120.999)" fill="#fff"/>
      <path id="Trazado_99293-2" data-name="Trazado 99293" d="M449.834,133.688a.918.918,0,1,1-.917-.878A.9.9,0,0,1,449.834,133.688Z" transform="translate(-11448.733 -12120.999)" fill="#fff"/>
    </g>
    <path id="Trazado_243628" data-name="Trazado 243628" d="M24,0H1296a24,24,0,0,1,24,24V516.167a24,24,0,0,1-24,24H24a24,24,0,0,1-24-24V24A24,24,0,0,1,24,0Z" transform="translate(144.333 70)" fill="#f9f9f9"/>
    <g id="Grupo_158577" data-name="Grupo 158577" transform="translate(149.486 71.958)">
      <g id="Grupo_591408" data-name="Grupo 591408">
        <g id="Grupo_158580" data-name="Grupo 158580" opacity="0.67">
          <g id="Grupo_158579" data-name="Grupo 158579">
            <g id="Grupo_158578" data-name="Grupo 158578" clip-path="url(#clip-path-2)">
              <path id="Trazado_225665" data-name="Trazado 225665" d="M0,284.944,268.429,535.9H681.578L108.365,0H0Z" transform="translate(0 0)" fill="#dde9f2"/>
            </g>
          </g>
        </g>
        <path id="Trazado_225666" data-name="Trazado 225666" d="M796.436,168.87v71.467H8.247L47.51,194.327C61.383,178.034,80.239,168.87,99.87,168.87Z" transform="translate(24.204 285.81)" fill="#1f2041"/>
        <path id="Trazado_225666_-_Contorno" data-name="Trazado 225666 - Contorno" d="M99.87,167.87H797.436v73.467H6.079l40.67-47.66a79.018,79.018,0,0,1,11.418-10.989,72.39,72.39,0,0,1,12.927-8.1,67.381,67.381,0,0,1,14.036-5.006A64.6,64.6,0,0,1,99.87,167.87Zm695.565,2H99.87a62.6,62.6,0,0,0-14.284,1.66,65.387,65.387,0,0,0-13.618,4.858A70.391,70.391,0,0,0,59.4,184.263a77.013,77.013,0,0,0-11.129,10.712L10.415,239.337H795.436Z" transform="translate(24.204 285.81)" fill="#1f2041"/>
        <path id="Trazado_222629_-_Contorno" data-name="Trazado 222629 - Contorno" d="M99.732,167.87h697.5v73.384H6.047l40.618-47.6a78.967,78.967,0,0,1,11.41-10.982,72.333,72.333,0,0,1,12.915-8.091,67.309,67.309,0,0,1,14.02-5A64.515,64.515,0,0,1,99.732,167.87Zm695.628,1.917H99.732a62.685,62.685,0,0,0-14.3,1.662A65.46,65.46,0,0,0,71.8,176.313a70.448,70.448,0,0,0-12.58,7.883,77.071,77.071,0,0,0-11.137,10.719L10.17,239.337H795.36Z" transform="translate(26.404 285.851)" fill="#1f2041"/>
        <path id="Trazado_222629_-_Contorno_-_Contorno" data-name="Trazado 222629 - Contorno - Contorno" d="M99.732,166.87h698.5v75.384H3.879L45.9,193.006a79.961,79.961,0,0,1,11.555-11.12,73.33,73.33,0,0,1,13.094-8.2,68.308,68.308,0,0,1,14.229-5.075A65.511,65.511,0,0,1,99.732,166.87Zm694.628,3.917H99.732a61.682,61.682,0,0,0-14.074,1.636,64.456,64.456,0,0,0-13.426,4.79,69.445,69.445,0,0,0-12.4,7.771,76.072,76.072,0,0,0-10.992,10.58l-36.5,42.775H794.36Z" transform="translate(26.404 285.851)" fill="#1f2041"/>
        <path id="Trazado_225669_-_Contorno" data-name="Trazado 225669 - Contorno" d="M180.749-1H389.195L310.026,73.007a35.518,35.518,0,0,1-11.732,7.284,37.838,37.838,0,0,1-26.654,0,35.529,35.529,0,0,1-11.734-7.284ZM384.126,1H185.817l75.454,70.546a35.2,35.2,0,0,0,47.389,0Z" transform="translate(376.083)" fill="#0e8282"/>
        <path id="Trazado_222632_-_Contorno" data-name="Trazado 222632 - Contorno" d="M180.707-1H388.913l-79.1,73.942a35.452,35.452,0,0,1-11.71,7.271,37.755,37.755,0,0,1-26.6,0,35.465,35.465,0,0,1-11.712-7.271ZM384.084.917H185.535l75.524,70.61a35.276,35.276,0,0,0,47.49,0Z" transform="translate(376.245 0.042)" fill="#0e8282"/>
        <path id="Trazado_222632_-_Contorno_-_Contorno" data-name="Trazado 222632 - Contorno - Contorno" d="M178.173-2H391.447L310.5,73.672a36.448,36.448,0,0,1-12.039,7.475,38.755,38.755,0,0,1-27.306,0,36.461,36.461,0,0,1-12.04-7.475ZM381.55,1.917H188.069L261.742,70.8a34.276,34.276,0,0,0,46.124,0Z" transform="translate(376.245 0.042)" fill="#0e8282"/>
        <path id="Trazado_225670" data-name="Trazado 225670" d="M84.2,87.966,0,166.682V0H43.191L84.2,38.334a33.52,33.52,0,0,1,0,49.633" fill="#0e8282"/>
        <path id="Trazado_225670_-_Contorno" data-name="Trazado 225670 - Contorno" d="M-1,168.986V-1H43.585L84.879,37.6a35.812,35.812,0,0,1,8.475,11.944,34.116,34.116,0,0,1,0,27.206A35.811,35.811,0,0,1,84.88,88.7ZM1,1V164.378L83.514,87.236a32.52,32.52,0,0,0,0-48.172L42.8,1Z" fill="#0e8282"/>
        <path id="Trazado_222633_-_Contorno" data-name="Trazado 222633 - Contorno" d="M-1,168.815V-1H43.492L84.766,37.585a35.771,35.771,0,0,1,8.465,11.93,34.095,34.095,0,0,1,0,27.187,35.77,35.77,0,0,1-8.464,11.93ZM.874.917V164.466L83.5,87.217A32.547,32.547,0,0,0,83.5,39L42.764.917Z" transform="translate(0.063 0.042)" fill="#0e8282"/>
        <path id="Trazado_222633_-_Contorno_-_Contorno" data-name="Trazado 222633 - Contorno - Contorno" d="M-2,171.119V-2H43.887L85.449,36.854a36.766,36.766,0,0,1,8.7,12.263,35.095,35.095,0,0,1,0,27.983,36.764,36.764,0,0,1-8.7,12.262ZM1.874,1.917V162.162L82.818,86.487a31.548,31.548,0,0,0,0-46.758L42.37,1.917Z" transform="translate(0.063 0.042)" fill="#0e8282"/>
        <path id="Trazado_225671" data-name="Trazado 225671" d="M0,0H355.751L220.5,126.423c-23.549,22.016-61.731,22.016-85.28,0Z" transform="translate(927.118 537.817) rotate(180)" fill="#fff"/>
        <path id="Trazado_225672" data-name="Trazado 225672" d="M0,0H203.377L126.06,72.276c-10.11,9.452-24.938,11.805-37.686,6.95a34.243,34.243,0,0,1-11.068-6.95Z" transform="translate(858.243 537.354) rotate(180)" fill="#0e8282"/>
        <path id="Trazado_225672_-_Contorno" data-name="Trazado 225672 - Contorno" d="M-2.534-1H205.911L126.743,73.007a35.383,35.383,0,0,1-11.678,7.255,37.433,37.433,0,0,1-13.328,2.421A38.4,38.4,0,0,1,88.018,80.16a35.21,35.21,0,0,1-11.4-7.154ZM200.843,1H2.534L77.988,71.546a33.192,33.192,0,0,0,10.741,6.746,36.41,36.41,0,0,0,13.007,2.392,34.415,34.415,0,0,0,23.641-9.137Z" transform="translate(858.243 537.354) rotate(180)" fill="#0e8282"/>
        <path id="Trazado_222632_-_Contorno-2" data-name="Trazado 222632 - Contorno" d="M0,0H208.206l-79.1,73.942a35.452,35.452,0,0,1-11.71,7.271,37.755,37.755,0,0,1-26.6,0,35.465,35.465,0,0,1-11.712-7.271ZM203.377,1.917H4.828l75.524,70.61a35.276,35.276,0,0,0,47.49,0Z" transform="translate(860.657 538.312) rotate(180)" fill="#0e8282"/>
        <path id="Trazado_222632_-_Contorno_-_Contorno-2" data-name="Trazado 222632 - Contorno - Contorno" d="M-2.534-1H210.74L129.789,74.672a36.448,36.448,0,0,1-12.039,7.475,38.756,38.756,0,0,1-27.306,0A36.46,36.46,0,0,1,78.4,74.672ZM200.843,2.917H7.362L81.035,71.8a34.276,34.276,0,0,0,46.124,0Z" transform="translate(860.657 538.312) rotate(180)" fill="#0e8282"/>
      </g>
    </g>
    <rect id="Rect치ngulo_53018" data-name="Rect치ngulo 53018" width="1316.784" height="535.9" rx="22" transform="translate(147.549 70)" fill="none"/>
    <path id="technologist-in-white-coat-with-tablet-in-his-hands-controls-the-production-process-in-the-dairy-shop-quality-control-at-the-dairy-plant_-_Contorno" data-name="technologist-in-white-coat-with-tablet-in-his-hands-controls-the-production-process-in-the-dairy-shop-quality-control-at-the-dairy-plant - Contorno" d="M317.781-1H957.838V536.817H563.675l-.271-.251L219.525,218.584a133.6,133.6,0,0,1-25.075-31.054A118.332,118.332,0,0,1,181.2,153.536a119.9,119.9,0,0,1,5.508-68.757A129.227,129.227,0,0,1,205.824,51.2a133.189,133.189,0,0,1,29.011-27.246,138.107,138.107,0,0,1,37.72-18.277A152.64,152.64,0,0,1,317.781-1ZM955.943.917H317.781C287.515.917,259.2,9.429,235.9,25.534a131.291,131.291,0,0,0-28.6,26.856,127.3,127.3,0,0,0-18.829,33.082,117.969,117.969,0,0,0-5.424,67.649,116.4,116.4,0,0,0,13.031,33.44A131.688,131.688,0,0,0,220.8,217.169L564.41,534.9H955.943Z" transform="translate(508.433 72.958)" fill="#0e8282"/>
    <path id="Trazado_243629" data-name="Trazado 243629" d="M158.32,0H514.071L378.825,126.423c-23.549,22.016-61.731,22.016-85.28,0Z" transform="translate(463.805 70)" fill="#fff"/>
    <path id="Trazado_243630" data-name="Trazado 243630" d="M183.283,0H386.66L309.343,72.276c-13.462,12.586-35.289,12.586-48.755,0Z" transform="translate(515.025 70)" fill="#0e8282"/>
  </g>
</svg>
