<svg xmlns="http://www.w3.org/2000/svg" width="621.108" height="550.617" viewBox="0 0 621.108 550.617">
  <g id="Grupo_599862" data-name="Grupo 599862" transform="translate(-180 -1948.819)">
    <g id="Grupo_599860" data-name="Grupo 599860">
      <path id="Trazado_243962" data-name="Trazado 243962" d="M553.962,164.14V43.73H536.656l23.751-24.444h1.769V0H0V183.425H562.176V164.14Z" transform="translate(180 1948.819)" fill="#f8eaea"/>
      <path id="Trazado_243979" data-name="Trazado 243979" d="M203.139,13.461V177.422H180.951V41.13h-16.4l22.511-27.668Zm10.18-9.732H182.084l-3.057,3.757L156.516,35.157l-12.776,15.7h27.031V187.154h42.548V3.729Z" transform="translate(559.627 1945.091)" fill="#f65a6c"/>
      <text id="La_producción_debe_estar_mediada_por_un_proceso_que_va_más_allá_de_la_transformación_de_los_bienes_y_servicios." data-name="La producción debe estar mediada por un proceso que va más allá de la
transformación de los bienes y servicios." transform="translate(423 1996.577)" fill="#12263f" font-size="16" font-family="Roboto-Regular, Roboto"><tspan x="0" y="17">La producción debe estar mediada </tspan><tspan x="0" y="41">por un proceso que va más allá de la</tspan><tspan x="0" y="65">transformación de los bienes y </tspan><tspan x="0" y="89">servicios.</tspan></text>
      <g id="inventario" transform="translate(247 1982.495)">
        <g id="Grupo_599754" data-name="Grupo 599754" transform="translate(2.968 2.968)">
          <g id="Grupo_599738" data-name="Grupo 599738" transform="translate(82.645 82.645)">
            <path id="Trazado_246735" data-name="Trazado 246735" d="M75.484,47.935V71.548a3.947,3.947,0,0,1-3.935,3.935H47.935A3.947,3.947,0,0,1,44,71.548V47.935A3.947,3.947,0,0,1,47.935,44h7.871v7.871h7.871V44h7.871A3.947,3.947,0,0,1,75.484,47.935Z" transform="translate(-44 -44)" fill="#d3a06c"/>
          </g>
          <g id="Grupo_599739" data-name="Grupo 599739" transform="translate(86.581 51.161)">
            <path id="Trazado_246736" data-name="Trazado 246736" d="M77.484,55.548a3.947,3.947,0,0,1-3.935,3.935H49.935A3.947,3.947,0,0,1,46,55.548V31.935A3.947,3.947,0,0,1,49.935,28h7.871v7.871h7.871V28h7.871a3.947,3.947,0,0,1,3.935,3.935Z" transform="translate(-46 -28)" fill="#d3a06c"/>
          </g>
          <g id="Grupo_599740" data-name="Grupo 599740" transform="translate(55.097 51.161)">
            <path id="Trazado_246737" data-name="Trazado 246737" d="M61.484,31.935V55.548a3.947,3.947,0,0,1-3.935,3.935H49.677V47.677a3.947,3.947,0,0,0-3.935-3.935H30V31.935A3.947,3.947,0,0,1,33.935,28h7.871v7.871h7.871V28h7.871A3.947,3.947,0,0,1,61.484,31.935Z" transform="translate(-30 -28)" fill="#d3a06c"/>
          </g>
          <g id="Grupo_599741" data-name="Grupo 599741" transform="translate(59.032 0)">
            <path id="Trazado_246738" data-name="Trazado 246738" d="M87.1,5.935v43.29a3.947,3.947,0,0,1-3.935,3.935H35.935A3.947,3.947,0,0,1,32,49.226V5.935A3.947,3.947,0,0,1,35.935,2H51.677V13.806H67.419V2H83.161A3.947,3.947,0,0,1,87.1,5.935Z" transform="translate(-32 -2)" fill="#d3a06c"/>
          </g>
          <g id="Grupo_599742" data-name="Grupo 599742" transform="translate(78.71 0)">
            <path id="Trazado_246739" data-name="Trazado 246739" d="M42,2H57.742V13.806H42Z" transform="translate(-42 -2)" fill="#b27946"/>
          </g>
          <g id="Grupo_599743" data-name="Grupo 599743" transform="translate(66.903 51.161)">
            <path id="Trazado_246740" data-name="Trazado 246740" d="M36,28h7.871v7.871H36Z" transform="translate(-36 -28)" fill="#b27946"/>
          </g>
          <g id="Grupo_599744" data-name="Grupo 599744" transform="translate(98.387 51.161)">
            <path id="Trazado_246741" data-name="Trazado 246741" d="M52,28h7.871v7.871H52Z" transform="translate(-52 -28)" fill="#b27946"/>
          </g>
          <g id="Grupo_599745" data-name="Grupo 599745" transform="translate(94.452 82.645)">
            <path id="Trazado_246742" data-name="Trazado 246742" d="M50,44h7.871v7.871H50Z" transform="translate(-50 -44)" fill="#b27946"/>
          </g>
          <g id="Grupo_599746" data-name="Grupo 599746" transform="translate(0 15.742)">
            <path id="Trazado_246743" data-name="Trazado 246743" d="M36.435,10a8.855,8.855,0,0,1,0,17.71H23.645a5.912,5.912,0,0,0-5.9,5.9v3.935a3.964,3.964,0,0,0-3.935,3.935v.335a3.948,3.948,0,0,0,1.161,2.794l2.775,2.775v9.839l-2.3-1.141A24.327,24.327,0,0,1,26.321,10Z" transform="translate(-2 -10)" fill="#656d78"/>
          </g>
          <g id="Grupo_599747" data-name="Grupo 599747" transform="translate(0 88.962)">
            <path id="Trazado_246744" data-name="Trazado 246744" d="M37.419,65.628V76.313H2V47.21A20.528,20.528,0,0,0,9.143,62.775l.885.728A19.9,19.9,0,0,0,12.8,65.51,20.428,20.428,0,0,0,23.35,68.442h2.637a20.565,20.565,0,0,0,6.907-1.2Z" transform="translate(-2 -47.21)" fill="#4fc1e9"/>
          </g>
          <g id="Grupo_599748" data-name="Grupo 599748" transform="translate(0 68.871)">
            <path id="Trazado_246745" data-name="Trazado 246745" d="M21.677,66.516,12.8,75.391a19.9,19.9,0,0,1-2.775-2.007l-.885-.728a20.493,20.493,0,0,1,6.139-34.731L17.742,37A40.927,40.927,0,0,1,29.548,47.744a40,40,0,0,1,3.483,5.687,40.555,40.555,0,0,1,3.286,8.894v.02Z" transform="translate(-2 -37)" fill="#4fc1e9"/>
          </g>
          <g id="Grupo_599749" data-name="Grupo 599749" transform="translate(47.226 70.839)">
            <path id="Trazado_246746" data-name="Trazado 246746" d="M30.6,50.889a5.6,5.6,0,0,0-3.522,3.522L26,57.677V41.935H49.613A3.964,3.964,0,0,0,53.548,38V81.29a3.947,3.947,0,0,1-3.935,3.935H26V70.31l15.585-5.588a5.591,5.591,0,0,0-1.5-10.98H37.806l-1.5-1.5A5.574,5.574,0,0,0,30.6,50.889Z" transform="translate(-26 -38)" fill="#ffeaa7"/>
          </g>
          <g id="Grupo_599750" data-name="Grupo 599750" transform="translate(51.161 66.903)">
            <path id="Trazado_246747" data-name="Trazado 246747" d="M47.677,36a3.947,3.947,0,0,1,3.935,3.935,3.964,3.964,0,0,1-3.935,3.935H28V36H47.677Z" transform="translate(-28 -36)" fill="#e6e9ed"/>
          </g>
          <g id="Grupo_599751" data-name="Grupo 599751" transform="translate(31.031 80.677)">
            <path id="Trazado_246748" data-name="Trazado 246748" d="M33.965,43v9.839l-12.908,3.68a40.555,40.555,0,0,0-3.286-8.894Z" transform="translate(-17.77 -43)" fill="#f0d0b4"/>
          </g>
          <g id="Grupo_599752" data-name="Grupo 599752" transform="translate(10.803 83.442)">
            <path id="Trazado_246749" data-name="Trazado 246749" d="M61.957,49.177a5.6,5.6,0,0,1-2.46,9.347L43.913,64.112,32.106,68.342l-4.526,1.614a20.565,20.565,0,0,1-6.907,1.2H18.037A20.428,20.428,0,0,1,7.49,68.224l8.875-8.875L31,55.178v-.02l12.908-3.68L45,48.212a5.566,5.566,0,0,1,9.229-2.165l1.5,1.5H58a5.61,5.61,0,0,1,3.955,1.633Z" transform="translate(-7.49 -44.405)" fill="#f0d0b4"/>
          </g>
          <g id="Grupo_599753" data-name="Grupo 599753" transform="translate(11.806 33.452)">
            <path id="Trazado_246750" data-name="Trazado 246750" d="M23.742,48.516V65.163A40.927,40.927,0,0,0,11.935,54.419V38.677L9.161,35.9A3.948,3.948,0,0,1,8,33.109v-.335a3.964,3.964,0,0,1,3.935-3.935V24.9a5.912,5.912,0,0,1,5.9-5.9H28.11a5.923,5.923,0,0,1,5.274,3.227c1.732,3.385,4.132,8.756,4.132,12.515l-5.9,1.968v5.1a6.718,6.718,0,0,1-6.71,6.71Z" transform="translate(-8 -19)" fill="#f0d0b4"/>
          </g>
        </g>
        <g id="Grupo_599755" data-name="Grupo 599755" transform="translate(1 1)">
          <path id="Trazado_246751" data-name="Trazado 246751" d="M118.632,52.39a5.871,5.871,0,0,0,.433-2.2V6.9a5.91,5.91,0,0,0-5.9-5.9H65.935a5.91,5.91,0,0,0-5.9,5.9v43.29a5.871,5.871,0,0,0,.433,2.2A5.892,5.892,0,0,0,56.1,58.065V67.9H52.161v7.871H48.226V82.16l-13.282,3.8a42.885,42.885,0,0,0-2.46-3.918V67.826a8.6,8.6,0,0,0,7.871-8.609v-3.67l5.9-1.968V52.161c0-4.069-2.369-9.544-4.355-13.418a8,8,0,0,0-.669-1.068A10.816,10.816,0,0,0,37.4,16.742H27.291A26.292,26.292,0,0,0,15.532,66.549l1.21.6v3.322l-1.177.441a22.553,22.553,0,0,0-14.549,20.6H1V123H40.355V111.727l7.871-2.82V123H73.806a5.91,5.91,0,0,0,5.9-5.9V87.581h4.3a5.837,5.837,0,0,0-.362,1.968v23.613a5.91,5.91,0,0,0,5.9,5.9h23.613a5.91,5.91,0,0,0,5.9-5.9V89.548a5.871,5.871,0,0,0-.433-2.2A5.894,5.894,0,0,0,123,81.677V58.065A5.892,5.892,0,0,0,118.632,52.39ZM83.645,4.935H95.452v7.871H83.645ZM63.968,6.9a1.971,1.971,0,0,1,1.968-1.968H79.71V16.742H99.387V4.935h13.774A1.971,1.971,0,0,1,115.129,6.9v43.29a1.971,1.971,0,0,1-1.968,1.968H65.935a1.971,1.971,0,0,1-1.968-1.968ZM103.323,56.1h3.935v3.935h-3.935Zm-31.484,0h3.935v3.935H71.839ZM56.1,71.839h17.71a1.968,1.968,0,0,1,0,3.935H56.1ZM23.676,103.106,51.732,95.09l1.417-4.246a3.6,3.6,0,0,1,5.958-1.407l2.078,2.08h3.091A3.632,3.632,0,0,1,67.9,95.145a3.693,3.693,0,0,1-2.782,3.534L33.2,110.111a18.521,18.521,0,0,1-6.242,1.082H24.318A18.515,18.515,0,0,1,17.08,109.7Zm24.55-16.852V92l-9.612,2.745a42.179,42.179,0,0,0-1.879-5.207ZM42.212,50.78l-5.793,1.932V59.22a4.753,4.753,0,0,1-4.75,4.752l-7.056,0V67.9l3.935,0v9.38a42.213,42.213,0,0,0-7.871-6.492V55.282l-3.359-3.359a1.959,1.959,0,0,1-.577-1.393v-.336a1.971,1.971,0,0,1,1.968-1.968h1.968v-5.9a3.939,3.939,0,0,1,3.935-3.935H34.89a3.933,3.933,0,0,1,3.51,2.151A36.319,36.319,0,0,1,42.212,50.78ZM4.935,43.033A22.382,22.382,0,0,1,27.291,20.677H37.4a6.887,6.887,0,1,1,0,13.774H24.613a7.879,7.879,0,0,0-7.871,7.871v2.3a5.915,5.915,0,0,0-3.935,5.567v.336a5.868,5.868,0,0,0,1.73,4.176l2.206,2.206V62.7A22.2,22.2,0,0,1,4.935,43.033ZM16.949,74.6l1.507-.567A38.759,38.759,0,0,1,34.835,95.825L23.916,98.944l-.775-2.324A16.669,16.669,0,0,0,11.315,85.672l-.954,3.817a12.757,12.757,0,0,1,9.048,8.379l.986,2.958-6.883,6.883c-.425-.3-.84-.628-1.24-.97l-.87-.746A18.513,18.513,0,0,1,16.949,74.6Zm19.471,44.463H4.935V104.578a22.416,22.416,0,0,0,3.9,4.4l.87.746a22.459,22.459,0,0,0,14.609,5.405h2.641a22.405,22.405,0,0,0,7.57-1.314l1.891-.677Zm37.387,0H52.161V107.5l14.154-5.071a7.562,7.562,0,0,0-2.039-14.845H62.815l-.927-.927a7.336,7.336,0,0,0-9.727-.732V79.71H73.806a5.837,5.837,0,0,0,1.968-.362V117.1A1.97,1.97,0,0,1,73.806,119.065Zm5.9-45.258a5.91,5.91,0,0,0-5.9-5.9H60.032V58.065A1.971,1.971,0,0,1,62,56.1h5.9v7.871H79.71V56.1h5.9a1.971,1.971,0,0,1,1.968,1.968V81.677a1.97,1.97,0,0,1-1.968,1.968h-5.9Zm35.419,39.355a1.97,1.97,0,0,1-1.968,1.968H89.548a1.97,1.97,0,0,1-1.968-1.968V89.548a1.97,1.97,0,0,1,1.968-1.968h5.9v7.871h11.806V87.581h5.9a1.97,1.97,0,0,1,1.968,1.968ZM99.387,87.581h3.935v3.935H99.387Zm19.677-5.9a1.97,1.97,0,0,1-1.968,1.968H93.484a1.97,1.97,0,0,1-1.968-1.968V58.065A1.971,1.971,0,0,1,93.484,56.1h5.9v7.871h11.806V56.1h5.9a1.971,1.971,0,0,1,1.968,1.968Z" transform="translate(-1 -1)"/>
          <path id="Trazado_246752" data-name="Trazado 246752" d="M51,23h3.935v3.935H51Z" transform="translate(47.387 20.29)"/>
          <path id="Trazado_246753" data-name="Trazado 246753" d="M47,23h3.935v3.935H47Z" transform="translate(43.516 20.29)"/>
          <path id="Trazado_246754" data-name="Trazado 246754" d="M55,23h3.935v3.935H55Z" transform="translate(51.258 20.29)"/>
          <path id="Trazado_246755" data-name="Trazado 246755" d="M47,19H66.677v3.935H47Z" transform="translate(43.516 16.419)"/>
        </g>
      </g>
    </g>
    <g id="Grupo_599859" data-name="Grupo 599859" transform="translate(-642.02 -0.58)">
      <path id="Trazado_243974" data-name="Trazado 243974" d="M220,79.824v39.112c5.373-6.008,8.091-12.644,8.091-19.929A25.886,25.886,0,0,0,220,79.824" transform="translate(680.256 2096.606)" fill="#0e8282"/>
      <path id="Trazado_243975" data-name="Trazado 243975" d="M221.239,80.035V85.46a54.693,54.693,0,0,1,15.811,9.024q15.637,12.8,15.639,31c0,11.963-2.961,29.163-13.062,38.046-4.829,4.248-12.363,10.771-18.388,14.771,0,0-29.321,20.692-29.321,28.866S221.239,211,221.239,211h31.45v26.058h-31.45v3.391H751.763V80.035Z" transform="translate(680.256 2065.573)" fill="#e1efef"/>
      <path id="Trazado_243983" data-name="Trazado 243983" d="M252.56,76.3a46.723,46.723,0,0,1,33.991,13.752,44.946,44.946,0,0,1,14,33.3q0,19.273-13.575,33.583a148.138,148.138,0,0,1-20.031,17.444q-11.428,8.373-25.386,18.662-12.236,8.888-13.669,15.342h72.661v19.455h-95.9q5.357-35.828,20.939-47.193t26.581-19.408a139.652,139.652,0,0,0,19.647-17.305q8.654-9.261,8.654-20.58a25.89,25.89,0,0,0-8.175-19.269,28.313,28.313,0,0,0-39.345,0q-6.978,6.827-8.7,23.571l-19.789-7.015q3.06-19.455,14.244-30.494A46.507,46.507,0,0,1,252.56,76.3m0-8.884A55.582,55.582,0,0,0,212.27,83.88c-8.808,8.691-14.45,20.6-16.778,35.4l-1.135,7.216,7.016,2.487L221.163,136l10.96,3.885,1.171-11.347c1.156-11.235,3.947-16.088,6.087-18.182a19.091,19.091,0,0,1,26.524.021,17.067,17.067,0,0,1,5.494,12.967c0,5.295-2.052,10.068-6.278,14.587a131.048,131.048,0,0,1-18.382,16.183q-10.992,8.044-26.569,19.4c-12.513,9.126-20.525,26.47-24.5,53.029l-1.52,10.169H309.637V199.495H247.893q13.48-9.936,24.5-18.007a158.026,158.026,0,0,0,21.242-18.516c10.618-11.193,16-24.525,16-39.624a53.64,53.64,0,0,0-16.653-39.571C281.92,72.918,268.321,67.413,252.56,67.413" transform="translate(627.868 2072.267)" fill="#0e8282"/>
      <text id="Incorporar_el_sistema_administrativo_y_financiero_de_las_empresas" data-name="Incorporar el sistema administrativo y financiero 
de las empresas" transform="translate(1000 2186.331)" fill="#12263f" font-size="16" font-family="Roboto-Regular, Roboto"><tspan x="0" y="17">Incorporar el sistema </tspan><tspan x="0" y="41">administrativo y financiero </tspan><tspan x="0" y="65">de las empresas</tspan></text>
      <g id="presupuesto" transform="translate(1219.682 2163.305)">
        <g id="Grupo_599770" data-name="Grupo 599770" transform="translate(2.936 2.936)">
          <g id="Grupo_599756" data-name="Grupo 599756" transform="translate(19.363)">
            <path id="Trazado_246756" data-name="Trazado 246756" d="M97.2,5.873V34.918L97.121,35,83.644,48.472H73.963a9.7,9.7,0,0,0-7.745,3.873H39.109V98.817h42.6v7.745H31.363V48.472A19.37,19.37,0,0,0,12,29.109V22.971a3.811,3.811,0,0,1,.349-1.607H27.491a3.884,3.884,0,0,0,3.873-3.873V2.349A3.811,3.811,0,0,1,32.971,2H93.326A3.884,3.884,0,0,1,97.2,5.873Z" transform="translate(-12 -2)" fill="#e6e9ed"/>
          </g>
          <g id="Grupo_599757" data-name="Grupo 599757" transform="translate(46.472 50.345)">
            <path id="Trazado_246757" data-name="Trazado 246757" d="M63.274,60.53a10.553,10.553,0,0,1-2.343-2.575,10.913,10.913,0,0,1-1.549-3.292h-.019l-8.191,8.191-1.936.775-7.164,2.866a3.256,3.256,0,0,1-4.4-3.64,3.312,3.312,0,0,1,.174-.581l3.64-9.1,1.936-1.936L55.045,39.618a3.884,3.884,0,0,1-3.873-3.873V33.809A9.568,9.568,0,0,1,53.109,28H26V74.472H68.6V64.79Z" transform="translate(-26 -28)" fill="#ffeaa7"/>
          </g>
          <g id="Grupo_599758" data-name="Grupo 599758" transform="translate(46.472 7.745)">
            <path id="Trazado_246758" data-name="Trazado 246758" d="M26,6H76.345v7.745H26Z" transform="translate(-26 -6)" fill="#ff826e"/>
          </g>
          <g id="Grupo_599759" data-name="Grupo 599759" transform="translate(19.712 0.349)">
            <path id="Trazado_246759" data-name="Trazado 246759" d="M31.195,2.18V17.322a3.884,3.884,0,0,1-3.873,3.873H12.18a3.9,3.9,0,0,1,.794-1.142L30.052,2.974A3.9,3.9,0,0,1,31.195,2.18Z" transform="translate(-12.18 -2.18)" fill="#b4dd7f"/>
          </g>
          <g id="Grupo_599760" data-name="Grupo 599760" transform="translate(61.963 58.09)">
            <path id="Trazado_246760" data-name="Trazado 246760" d="M51.427,32V47.723a10.994,10.994,0,0,0,.465,3.195h-.019l-8.191,8.191L34,49.427l1.936-1.936L47.554,35.873A3.9,3.9,0,0,0,51.427,32Z" transform="translate(-34 -32)" fill="#ff826e"/>
          </g>
          <g id="Grupo_599761" data-name="Grupo 599761" transform="translate(83.011 30.981)">
            <path id="Trazado_246761" data-name="Trazado 246761" d="M66.421,19.936a6.846,6.846,0,0,1,9.6,9.759L64.717,41,48.994,56.727V47.045a5.8,5.8,0,0,0-1.7-4.105,5.922,5.922,0,0,0-2.42-1.452l8-8L66.344,20.014Z" transform="translate(-44.87 -18)" fill="#ff826e"/>
          </g>
          <g id="Grupo_599762" data-name="Grupo 599762" transform="translate(58.09 75.517)">
            <path id="Trazado_246762" data-name="Trazado 246762" d="M45.554,50.682l-1.936.775-7.164,2.866a3.256,3.256,0,0,1-4.4-3.64,3.312,3.312,0,0,1,.174-.581l3.64-9.1Z" transform="translate(-32 -41)" fill="#aab2bd"/>
          </g>
          <g id="Grupo_599763" data-name="Grupo 599763" transform="translate(89.071 81.326)">
            <path id="Trazado_246763" data-name="Trazado 246763" d="M69.3,44l3.873,23.236H48V49.809Z" transform="translate(-48 -44)" fill="#b4dd7f"/>
          </g>
          <g id="Grupo_599764" data-name="Grupo 599764" transform="translate(71.644 46.472)">
            <path id="Trazado_246764" data-name="Trazado 246764" d="M45.6,40.348a3.786,3.786,0,0,1-2.73,1.142A3.884,3.884,0,0,1,39,37.618V35.682a9.568,9.568,0,0,1,1.936-5.809A9.7,9.7,0,0,1,48.682,26h9.682l-8,8a6.006,6.006,0,0,0-1.685-.252,1.942,1.942,0,0,0-1.936,1.936v1.936A3.786,3.786,0,0,1,45.6,40.348Z" transform="translate(-39 -26)" fill="#f0d0b4"/>
          </g>
          <g id="Grupo_599765" data-name="Grupo 599765" transform="translate(79.39 53.985)">
            <path id="Trazado_246765" data-name="Trazado 246765" d="M67.495,31.758a53.236,53.236,0,0,1,6.487,25.463l-21.3,5.809-5.325-4.26a10.552,10.552,0,0,1-2.343-2.575A11.666,11.666,0,0,1,43,49.708V32.049a1.942,1.942,0,0,1,1.936-1.936,6.006,6.006,0,0,1,1.685.252,5.922,5.922,0,0,1,2.42,1.452,5.8,5.8,0,0,1,1.7,4.105V45.6L66.468,29.88Z" transform="translate(-43 -29.88)" fill="#f0d0b4"/>
          </g>
          <g id="Grupo_599766" data-name="Grupo 599766" transform="translate(0 46.472)">
            <path id="Trazado_246766" data-name="Trazado 246766" d="M40.727,26V87.963a7.743,7.743,0,0,1-7.745,7.745H9.745A7.743,7.743,0,0,1,2,87.963V26A19.345,19.345,0,0,0,9.745,41.491V55.045a1.942,1.942,0,0,0,1.936,1.936H31.045a1.942,1.942,0,0,0,1.936-1.936V41.491A19.345,19.345,0,0,0,40.727,26Z" transform="translate(-2 -26)" fill="#969faa"/>
          </g>
          <g id="Grupo_599767" data-name="Grupo 599767" transform="translate(7.794 85.21)">
            <path id="Trazado_246767" data-name="Trazado 246767" d="M27.427,69.165H7.961a1.937,1.937,0,0,1-1.936-1.936V47.942a1.937,1.937,0,0,1,1.936-1.936H27.425a1.937,1.937,0,0,1,1.936,1.936V67.228A1.933,1.933,0,0,1,27.427,69.165Z" transform="translate(-6.025 -46.006)" fill="#ff826e"/>
          </g>
          <g id="Grupo_599768" data-name="Grupo 599768" transform="translate(7.745 61.963)">
            <path id="Trazado_246768" data-name="Trazado 246768" d="M29.236,34V47.554A1.942,1.942,0,0,1,27.3,49.491H7.936A1.942,1.942,0,0,1,6,47.554V34a19.363,19.363,0,0,0,23.236,0Z" transform="translate(-6 -34)" fill="#69d6f4"/>
          </g>
          <g id="Grupo_599769" data-name="Grupo 599769" transform="translate(0 27.109)">
            <path id="Trazado_246769" data-name="Trazado 246769" d="M40.727,35.363A19.363,19.363,0,1,1,21.363,16,19.345,19.345,0,0,1,40.727,35.363Z" transform="translate(-2 -16)" fill="#fcd770"/>
          </g>
        </g>
        <g id="Grupo_599771" data-name="Grupo 599771" transform="translate(1 1)">
          <path id="Trazado_246770" data-name="Trazado 246770" d="M108.517,57.882l-.333-.612,10.3-10.3a8.745,8.745,0,0,0-9.047-14.488V6.809A5.816,5.816,0,0,0,103.626,1H43.268a5.774,5.774,0,0,0-4.109,1.7L22.065,19.8a5.767,5.767,0,0,0-1.7,4.109v4.3A21.32,21.32,0,0,0,1,49.408v61.963a9.693,9.693,0,0,0,9.682,9.682H33.918a9.693,9.693,0,0,0,9.682-9.682v-1.936h75.868l-4.229-25.374A55.263,55.263,0,0,0,108.517,57.882ZM111.325,82.8,92.447,87.945,87.895,84.3a9.642,9.642,0,0,1-3.633-7.561V59.09a3.877,3.877,0,0,1,3.873,3.873V76.517h3.873V73.446l13.31-13.31A51.34,51.34,0,0,1,111.325,82.8ZM84.262,55.217A3.877,3.877,0,0,0,80.39,59.09v1.936a1.936,1.936,0,0,1-3.873,0V59.09a7.753,7.753,0,0,1,7.745-7.745H89.27l-3.977,3.977A7.546,7.546,0,0,0,84.262,55.217Zm-21.2,33.057L65.606,81.9l5.528,5.528-6.376,2.55a1.341,1.341,0,0,1-1.795-1.218A1.264,1.264,0,0,1,63.058,88.274ZM74.581,85.4l-6.944-6.944L79.346,66.744a5.65,5.65,0,0,0,1.044-.267V76.74a13.62,13.62,0,0,0,.263,2.583ZM73,62.963H51.345V55.217H73.322a11.571,11.571,0,0,0-.678,3.873v1.936A5.744,5.744,0,0,0,73,62.963ZM51.345,66.835H73.779l-7.745,7.745H51.345Zm0,11.618H62.814l-3.1,7.745H51.345Zm0,11.618H59.28a5.165,5.165,0,0,0,6.92,3.5l4.508-1.8v6.047H51.345Zm23.236.149,1.088-.436,6.448-6.448c.07.126.134.254.209.378v14.1H74.581ZM86.2,87.9,90.071,91v6.816H86.2ZM117.18,40.765a4.879,4.879,0,0,1-1.439,3.472L92.008,67.97V62.963a7.7,7.7,0,0,0-2.893-5.987L108.8,37.293a4.91,4.91,0,0,1,8.382,3.472ZM39.727,7.611V18.427a1.94,1.94,0,0,1-1.936,1.936H26.974ZM22.3,31.981A17.427,17.427,0,1,1,4.873,49.408,17.448,17.448,0,0,1,22.3,31.981ZM12.618,68.357a21.113,21.113,0,0,0,19.363,0v10.1H12.618Zm21.3,48.823H10.682a5.816,5.816,0,0,1-5.809-5.809V61.617a21.5,21.5,0,0,0,3.873,4.21V78.453a3.877,3.877,0,0,0,3.873,3.873H31.981a3.877,3.877,0,0,0,3.873-3.873V65.827a21.5,21.5,0,0,0,3.873-4.21v49.754A5.816,5.816,0,0,1,33.918,117.18ZM43.6,105.562V49.408a21.32,21.32,0,0,0-19.363-21.2V24.236H37.79A5.816,5.816,0,0,0,43.6,18.427V4.873h60.026a1.94,1.94,0,0,1,1.936,1.936V35.052l-12.42,12.42h-8.88a11.585,11.585,0,0,0-8.636,3.873H47.472v50.345h42.6v3.873Zm50.345,0V91.551l17.8-4.856,3.145,18.868Z" transform="translate(-1 -1)"/>
          <path id="Trazado_246771" data-name="Trazado 246771" d="M12.873,41.955v4.153h3.873V41.955a5.506,5.506,0,0,0,.817-10.189L13.787,29.88a1.655,1.655,0,0,1,.74-3.135h.565A1.655,1.655,0,0,1,16.745,28.4v2.219h3.873V28.4a5.516,5.516,0,0,0-3.873-5.246V19H12.873v4.153a5.506,5.506,0,0,0-.817,10.189l3.776,1.886a1.655,1.655,0,0,1-.74,3.135h-.565a1.655,1.655,0,0,1-1.654-1.654V34.491H9V36.71A5.516,5.516,0,0,0,12.873,41.955Z" transform="translate(6.491 15.854)"/>
          <path id="Trazado_246772" data-name="Trazado 246772" d="M28.236,45H8.873A3.877,3.877,0,0,0,5,48.873V68.236a3.877,3.877,0,0,0,3.873,3.873H28.236a3.877,3.877,0,0,0,3.873-3.873V48.873A3.877,3.877,0,0,0,28.236,45Zm0,7.745H24.363V48.873h3.873ZM20.491,68.236H16.618V64.363h3.873Zm0-7.745H16.618V56.618h3.873Zm-7.745,0H8.873V56.618h3.873Zm3.873-7.745V48.873h3.873v3.873Zm-3.873-3.873v3.873H8.873V48.873ZM8.873,64.363h3.873v3.873H8.873Zm15.491,3.873V56.618h3.875l0,11.618Z" transform="translate(2.745 40.199)"/>
          <path id="Trazado_246773" data-name="Trazado 246773" d="M79.217,5H25V16.618H79.217Zm-3.873,7.745H28.873V8.873H75.345Z" transform="translate(21.472 2.745)"/>
          <path id="Trazado_246774" data-name="Trazado 246774" d="M25,13H79.217v3.873H25Z" transform="translate(21.472 10.236)"/>
          <path id="Trazado_246775" data-name="Trazado 246775" d="M25,17H79.217v3.873H25Z" transform="translate(21.472 13.981)"/>
          <path id="Trazado_246776" data-name="Trazado 246776" d="M25,21H55.981v3.873H25Z" transform="translate(21.472 17.727)"/>
        </g>
      </g>
    </g>
    <g id="Grupo_599861" data-name="Grupo 599861">
      <path id="Trazado_243981" data-name="Trazado 243981" d="M521.54,269.866c-7.169-10.7-10.237-17.721-12.65-29.275l29.345-5.883c1.357,9.95-1.143,16.608,4.364,20.642a37.421,37.421,0,0,0,19.576,6.911s19.958,1.615,24.28-16.554-19.445-28.971-19.445-28.971c-.867-.139-6.074-1.939-6.973-2.062H545.428V190.122a126.949,126.949,0,0,0,16.747-1.375s10.334-10.688,10.334-17.48-10.334-9.689-10.334-9.689a21.516,21.516,0,0,0-11.884,3.816q-3.056,2.323-7.015,10.116l-21.828-6.3c3.241-7.462,7.5-19.23,12.172-22.493,8.067-5.861,17.817-12.458,28.971-12.668L562.175,128H0V295.98H562.175l-.567-4.214c-14.054-.591-25.648-6.9-35.864-14.437" transform="translate(180 2200.261)" fill="#d2e1f1"/>
      <path id="Trazado_243982" data-name="Trazado 243982" d="M194.973,139.981A35.118,35.118,0,0,1,220.6,150.363a33.526,33.526,0,0,1,10.515,24.7q0,14.591-17.686,28.155,8.5.56,17.879,9.446,13.671,14.409,13.669,33.678a45,45,0,0,1-14.008,33.254,48.529,48.529,0,0,1-67.837-.05q-11.187-11.038-14.244-30.589l19.789-7.015q1.725,16.839,8.7,23.666a28.313,28.313,0,0,0,39.345,0,25.88,25.88,0,0,0,8.172-19.266,28.489,28.489,0,0,0-8.172-20.112q-8.172-8.7-25-11.786l-11.95-.281V194.982q13-.187,17.117-1.732t8.984-6.592a16.216,16.216,0,0,0,4.879-11.6,14.578,14.578,0,0,0-4.592-10.9,16.242,16.242,0,0,0-22.277-.047q-2.583,2.616-5.926,11.412l-18.454-7.11q4.109-12.628,10.04-18.146a35.248,35.248,0,0,1,25.434-10.29m0-8.884a44.281,44.281,0,0,0-31.763,12.8c-5.094,4.771-9.135,11.91-12.361,21.824l-2.579,7.915,7.9,3.044,18.454,7.11,5.948,2.292-.938.018-8.947.127v36.6l8.862.21,11.193.264c8.841,1.712,15.331,4.717,19.3,8.934a19.835,19.835,0,0,1,5.775,14.1,17.046,17.046,0,0,1-5.494,12.967,19.1,19.1,0,0,1-26.563-.018c-1.71-1.679-4.828-6.328-6.048-18.232L176.551,229.7l-10.969,3.885L145.793,240.6l-7.013,2.487,1.129,7.214c2.328,14.868,7.973,26.811,16.775,35.5a55.58,55.58,0,0,0,40.3,16.473c15.767,0,29.369-5.526,40.432-16.42a53.706,53.706,0,0,0,16.644-39.514c0-15.1-5.415-28.46-16.094-39.722l-.166-.172-.17-.163a55.834,55.834,0,0,0-7.715-6.183c6.834-7.921,10.282-16.3,10.282-25.04,0-11.922-4.422-22.333-13.145-30.948A44.145,44.145,0,0,0,194.973,131.1M190.4,170.3a7.028,7.028,0,0,1,9.368.175,5.842,5.842,0,0,1,1.9,4.581,7.5,7.5,0,0,1-2.4,5.5c-3.124,3.234-4.982,4.152-5.639,4.4-.236.089-2.306.761-9.976,1.042l2.806-7.37c2.319-6.094,3.669-7.977,3.941-8.324" transform="translate(547.053 2197.164)" fill="#1b3f5e"/>
      <text id="El_sistema_de_producción_consiste_en_los_insumos_procesos_productos_y_flujos_de_información_que_conectan_la_organización_con_los_clientes_y_el_sistema_externo_al_cual_le_responden_las_necesidades." data-name="El sistema de producción consiste en los insumos, procesos, productos y flujos de información que conectan la organización con los clientes y el sistema externo al cual le responden las necesidades." transform="translate(428 2341.577)" fill="#12263f" font-size="16" font-family="Roboto-Regular, Roboto"><tspan x="0" y="17">El sistema de producción consiste </tspan><tspan x="0" y="41">en los insumos, procesos, </tspan><tspan x="0" y="65">productos y flujos de información </tspan><tspan x="0" y="89">que conectan la organización con </tspan><tspan x="0" y="113">los clientes y el sistema externo al </tspan><tspan x="0" y="137">cual le responden las necesidades.</tspan></text>
      <g id="materias-primas_1_" data-name="materias-primas(1)" transform="translate(265 2351.363)">
        <path id="Trazado_246777" data-name="Trazado 246777" d="M358.759,197.569v-.126a3.568,3.568,0,0,0-3.568-3.568H318.125v73.88h40.634v-5.136a5.922,5.922,0,0,0-1.408-3.842,3.51,3.51,0,0,1-.326-4.116,11.835,11.835,0,0,0,1.734-6.186V211.713a11.836,11.836,0,0,0-1.734-6.186,3.509,3.509,0,0,1,.326-4.116A5.922,5.922,0,0,0,358.759,197.569Z" transform="translate(-242.461 -147.763)" fill="#fea95c"/>
        <path id="Trazado_246778" data-name="Trazado 246778" d="M358.759,197.569v-.126a3.568,3.568,0,0,0-3.568-3.568h-6.041a5.924,5.924,0,0,1-1.313,2.779,3.509,3.509,0,0,0-.326,4.116,11.836,11.836,0,0,1,1.734,6.186v36.762a11.836,11.836,0,0,1-1.734,6.186,3.509,3.509,0,0,0,.326,4.116,5.922,5.922,0,0,1,1.408,3.842V263h-31.12v4.757h40.634v-5.136a5.922,5.922,0,0,0-1.408-3.842,3.51,3.51,0,0,1-.326-4.116,11.836,11.836,0,0,0,1.734-6.186V211.713a11.836,11.836,0,0,0-1.734-6.186,3.509,3.509,0,0,1,.326-4.116A5.922,5.922,0,0,0,358.759,197.569Z" transform="translate(-242.461 -147.763)" fill="#fe9738"/>
        <path id="Trazado_246779" data-name="Trazado 246779" d="M100.605,138.3l-40.634,3.694L23.031,138.3V42.256l40.634-3.694,36.94,3.694Z" transform="translate(-17.553 -29.39)" fill="#fd4755"/>
        <path id="Trazado_246780" data-name="Trazado 246780" d="M91.091,50.094V116.17a26.163,26.163,0,0,1-26.163,26.163h-41.9v4.757l36.94,3.694,40.634-3.694V51.045Z" transform="translate(-17.553 -38.179)" fill="#fb2b3a"/>
        <g id="Grupo_599772" data-name="Grupo 599772" transform="translate(1.784 1.784)">
          <path id="Trazado_246781" data-name="Trazado 246781" d="M88.895,18.582H11.068A3.568,3.568,0,0,1,7.5,15.014V11.068A3.568,3.568,0,0,1,11.068,7.5H88.895a3.568,3.568,0,0,1,3.568,3.568v3.947A3.568,3.568,0,0,1,88.895,18.582Z" transform="translate(-7.5 -7.5)" fill="#d3e1f5"/>
          <path id="Trazado_246782" data-name="Trazado 246782" d="M88.895,468.988H11.068A3.568,3.568,0,0,1,7.5,465.42v-3.947a3.568,3.568,0,0,1,3.568-3.568H88.895a3.568,3.568,0,0,1,3.568,3.568v3.947A3.568,3.568,0,0,1,88.895,468.988Z" transform="translate(-7.5 -350.78)" fill="#d3e1f5"/>
          <path id="Trazado_246783" data-name="Trazado 246783" d="M89.489,108.076H10.473A2.973,2.973,0,0,1,7.5,105.1v-1.442a2.973,2.973,0,0,1,2.973-2.973H89.489a2.973,2.973,0,0,1,2.973,2.973V105.1A2.973,2.973,0,0,1,89.489,108.076Z" transform="translate(-7.5 -78.524)" fill="#d3e1f5"/>
          <path id="Trazado_246784" data-name="Trazado 246784" d="M89.489,185.732H10.473A2.973,2.973,0,0,1,7.5,182.759v-1.442a2.973,2.973,0,0,1,2.973-2.973H89.489a2.973,2.973,0,0,1,2.973,2.973v1.442A2.973,2.973,0,0,1,89.489,185.732Z" transform="translate(-7.5 -137.71)" fill="#d3e1f5"/>
          <path id="Trazado_246785" data-name="Trazado 246785" d="M89.489,387.638H10.473A2.973,2.973,0,0,1,7.5,384.665v-1.442a2.973,2.973,0,0,1,2.973-2.973H89.489a2.973,2.973,0,0,1,2.973,2.973v1.442A2.973,2.973,0,0,1,89.489,387.638Z" transform="translate(-7.5 -291.594)" fill="#d3e1f5"/>
        </g>
        <path id="Trazado_246786" data-name="Trazado 246786" d="M208.229,359.628a24.014,24.014,0,0,0-17.213-11,20.383,20.383,0,0,0-40.036,5.406q0,.886.074,1.754a20.386,20.386,0,0,0-18.307,18.5h88.419A14.778,14.778,0,0,0,208.229,359.628Z" transform="translate(-101.174 -254.298)" fill="#0055a3"/>
        <path id="Trazado_246787" data-name="Trazado 246787" d="M208.568,443.045a5.954,5.954,0,0,1-5.165,8.908h-69.31a20.265,20.265,0,0,0-1.344,5.708h88.419A14.779,14.779,0,0,0,208.568,443.045Z" transform="translate(-101.175 -337.669)" fill="#004281"/>
        <circle id="Elipse_4905" data-name="Elipse 4905" cx="3.694" cy="3.694" r="3.694" transform="translate(60.888 97.828)" fill="#004281"/>
        <circle id="Elipse_4906" data-name="Elipse 4906" cx="3.694" cy="3.694" r="3.694" transform="translate(83.052 105.216)" fill="#004281"/>
        <path id="Trazado_246788" data-name="Trazado 246788" d="M399.476,309.982h-3.694a7.388,7.388,0,0,1,7.388-7.388h3.694A7.388,7.388,0,0,1,399.476,309.982Z" transform="translate(-301.648 -230.624)" fill="#a2e62e"/>
        <path id="Trazado_246789" data-name="Trazado 246789" d="M356.576,309.982h3.694a7.388,7.388,0,0,0-7.388-7.388h-3.694A7.388,7.388,0,0,0,356.576,309.982Z" transform="translate(-266.136 -230.624)" fill="#a2e62e"/>
        <path id="Trazado_246790" data-name="Trazado 246790" d="M116.214,107.615a13.658,13.658,0,0,0,1.868-6.9V73.318a1.784,1.784,0,1,0-3.568,0v27.394a10.093,10.093,0,0,1-1.221,4.82,16.418,16.418,0,0,0-5.184-1.848A25.7,25.7,0,0,0,91.221,92.738a22.092,22.092,0,0,0-6.386-9.62V79.226a9.126,9.126,0,0,0,5.6,1.916h1.91v5.6a1.784,1.784,0,0,0,3.568,0v-5.6h1.91A9.182,9.182,0,0,0,107,71.971a1.784,1.784,0,0,0-1.784-1.784h-3.694a9.165,9.165,0,0,0-7.388,3.743,9.165,9.165,0,0,0-7.388-3.743h-1.91V51.471A4.773,4.773,0,0,0,88.41,47.9h24.32a1.786,1.786,0,0,1,1.784,1.784v.126a4.165,4.165,0,0,1-.985,2.689,5.338,5.338,0,0,0-.887,1.474H112.6a1.784,1.784,0,0,0-.091,3.565,5.3,5.3,0,0,0,.529,1.159,10.087,10.087,0,0,1,1.472,5.257v1.044a1.784,1.784,0,1,0,3.568,0V63.951a13.662,13.662,0,0,0-1.6-6.424,1.784,1.784,0,0,0,.334-3.482,7.739,7.739,0,0,0,1.266-4.239V49.68a5.358,5.358,0,0,0-5.352-5.351H88.41a4.773,4.773,0,0,0-3.574-3.574V33a4.765,4.765,0,0,0,3.694-4.637V26.921a4.765,4.765,0,0,0-3.694-4.637v-7.9A5.361,5.361,0,0,0,88.53,9.3V5.351A5.358,5.358,0,0,0,83.178,0H5.351A5.358,5.358,0,0,0,0,5.351V9.3a5.361,5.361,0,0,0,3.694,5.089v7.9A4.765,4.765,0,0,0,0,26.921v1.442A4.765,4.765,0,0,0,3.694,33v7.754A4.765,4.765,0,0,0,0,45.391v1.442A4.765,4.765,0,0,0,3.694,51.47V88.776A4.765,4.765,0,0,0,0,93.413v1.442a4.765,4.765,0,0,0,3.694,4.637v7.9A5.361,5.361,0,0,0,0,112.478v3.947a5.358,5.358,0,0,0,5.351,5.351H119.992a1.784,1.784,0,0,0,1.784-1.784,16.561,16.561,0,0,0-5.562-12.377ZM101.522,73.754h1.619a5.614,5.614,0,0,1-5.313,3.82H96.209A5.614,5.614,0,0,1,101.522,73.754Zm-14.776,0a5.614,5.614,0,0,1,5.313,3.82H90.44a5.614,5.614,0,0,1-5.313-3.82ZM3.568,9.3V5.351A1.786,1.786,0,0,1,5.351,3.568H83.179a1.786,1.786,0,0,1,1.784,1.784V9.3a1.786,1.786,0,0,1-1.784,1.784H17.619a1.784,1.784,0,0,0,0,3.568H81.268v7.514H7.262V14.65H9.294a1.784,1.784,0,1,0,0-3.568H5.351A1.786,1.786,0,0,1,3.568,9.3Zm0,19.065V26.921a1.191,1.191,0,0,1,1.189-1.189H83.773a1.191,1.191,0,0,1,1.189,1.189v1.442a1.191,1.191,0,0,1-1.189,1.189H4.757A1.191,1.191,0,0,1,3.568,28.363Zm77.7,4.757v7.514H7.262V33.12ZM3.568,46.833V45.391A1.191,1.191,0,0,1,4.757,44.2H83.773a1.191,1.191,0,0,1,1.189,1.189v1.442a1.191,1.191,0,0,1-1.189,1.189H4.757A1.191,1.191,0,0,1,3.568,46.833Zm0,48.022V93.413a1.191,1.191,0,0,1,1.189-1.189H49.343a22.268,22.268,0,0,0-1.008,3.82H4.757A1.191,1.191,0,0,1,3.568,94.855Zm44.455,5.091a22.108,22.108,0,0,0-12.791,7.181H7.262V99.612H48.023c0,.1,0,.2,0,.334ZM30,118.208H5.351a1.786,1.786,0,0,1-1.784-1.784v-3.947a1.786,1.786,0,0,1,1.784-1.784H32.671A22.044,22.044,0,0,0,30,118.208Zm3.623,0a18.573,18.573,0,0,1,16.432-14.94,1.784,1.784,0,0,0,1.6-1.927,19.049,19.049,0,0,1,.005-3.28c.006-.044.01-.089.012-.134a18.4,18.4,0,0,1,5.754-11.719,1.784,1.784,0,0,0-2.448-2.6A22.108,22.108,0,0,0,51,88.656H7.262V51.59H81.268V80.554a22.16,22.16,0,0,0-18.436-1.73,1.784,1.784,0,0,0,1.184,3.365A18.62,18.62,0,0,1,88.121,94.8a1.784,1.784,0,0,0,1.492,1.3,22.155,22.155,0,0,1,15.933,10.182,1.785,1.785,0,0,0,1.288.817,13,13,0,0,1,11.251,11.108Z" transform="translate(0 0)"/>
        <path id="Trazado_246791" data-name="Trazado 246791" d="M253.978,403.812a5.478,5.478,0,1,0,5.478,5.478A5.484,5.484,0,0,0,253.978,403.812Zm0,7.388a1.91,1.91,0,1,1,1.91-1.91A1.912,1.912,0,0,1,253.978,411.2Z" transform="translate(-189.396 -307.768)"/>
        <path id="Trazado_246792" data-name="Trazado 246792" d="M347.166,434.875a5.478,5.478,0,1,0,5.478,5.478A5.484,5.484,0,0,0,347.166,434.875Zm0,7.388a1.91,1.91,0,1,1,1.91-1.91A1.912,1.912,0,0,1,347.166,442.263Z" transform="translate(-260.42 -331.443)"/>
        <circle id="Elipse_4907" data-name="Elipse 4907" cx="1.784" cy="1.784" r="1.784" transform="translate(73.363 90.44)"/>
        <circle id="Elipse_4908" data-name="Elipse 4908" cx="1.784" cy="1.784" r="1.784" transform="translate(75.79 101.649)"/>
        <circle id="Elipse_4909" data-name="Elipse 4909" cx="1.784" cy="1.784" r="1.784" transform="translate(97.828 109.037)"/>
        <circle id="Elipse_4910" data-name="Elipse 4910" cx="1.784" cy="1.784" r="1.784" transform="translate(49.932 109.037)"/>
        <path id="Trazado_246793" data-name="Trazado 246793" d="M421.128,226.906a1.784,1.784,0,0,0,0,3.568h3.694a1.784,1.784,0,0,0,0-3.568Z" transform="translate(-319.606 -172.938)"/>
        <path id="Trazado_246794" data-name="Trazado 246794" d="M374.534,226.906a1.784,1.784,0,0,0,0,3.568h3.694a1.784,1.784,0,0,0,0-3.568Z" transform="translate(-284.094 -172.938)"/>
      </g>
    </g>
  </g>
</svg>
