<svg xmlns="http://www.w3.org/2000/svg" width="1077.141" height="402" viewBox="0 0 1077.141 402">
  <g id="Grupo_593157" data-name="Grupo 593157" transform="translate(696.141 2230)">
    <path id="Trazado_226781" data-name="Trazado 226781" d="M28.623,0H1048.517c15.808,0,28.623,8.507,28.623,19V383c0,10.493-12.815,19-28.623,19H28.623C12.815,402,0,393.493,0,383V19C0,8.507,12.815,0,28.623,0Z" transform="translate(-696.141 -2230)" fill="#7cbbbb"/>
    <g id="Elipse_4739" data-name="Elipse 4739" transform="translate(-91 -2072)" fill="#d4dbdb" stroke="#0e8282" stroke-width="3">
      <ellipse cx="95" cy="90" rx="95" ry="90" stroke="none"/>
      <ellipse cx="95" cy="90" rx="93.5" ry="88.5" fill="none"/>
    </g>
    <g id="Elipse_4752" data-name="Elipse 4752" transform="translate(-656 -2191)" fill="#ef6f6c" stroke="#fff" stroke-width="3">
      <ellipse cx="98.5" cy="48" rx="98.5" ry="48" stroke="none"/>
      <ellipse cx="98.5" cy="48" rx="97" ry="46.5" fill="none"/>
    </g>
    <g id="Rectángulo_52045" data-name="Rectángulo 52045" transform="translate(-410 -2189)" fill="#1f4e79" stroke="#fff" stroke-width="3">
      <rect width="208" height="92" stroke="none"/>
      <rect x="1.5" y="1.5" width="205" height="89" fill="none"/>
    </g>
    <g id="Trazado_226793" data-name="Trazado 226793" transform="translate(-144.459 -2185.193)" fill="#afafaf">
      <path d="M 110.0721740722656 86.58061981201172 L -5.362136363983154 40.34528350830078 L 110.0466690063477 -2.202799320220947 L 224.1470336914062 42.45656967163086 L 110.0721740722656 86.58061981201172 Z" stroke="none"/>
      <path d="M 110.0307159423828 -0.598236083984375 L -1.183120727539062 40.40327835083008 L 110.0817565917969 84.96859741210938 L 220.0104217529297 42.44830703735352 L 110.0307159423828 -0.598236083984375 M 110.0625839233398 -3.807365417480469 L 228.2836151123047 42.46486282348633 L 110.0625839233398 88.192626953125 L -9.541213989257812 40.28729629516602 L 110.0625839233398 -3.807365417480469 Z" stroke="none" fill="#fff"/>
    </g>
    <g id="Trazado_226794" data-name="Trazado 226794" transform="translate(133.825 -2193.429)" fill="#7030a0">
      <path d="M 1.499995231628418 99.30130767822266 L 1.499995231628418 1.500004410743713 L 219.054931640625 1.500004410743713 L 219.054931640625 15.12853336334229 L 219.054931640625 39.71994400024414 L 219.054931640625 58.67582702636719 L 219.054931640625 80.74262237548828 L 190.8448791503906 80.74262237548828 L 190.7801666259766 80.74262237548828 L 190.7156677246094 80.74820709228516 L 149.233642578125 84.33441925048828 L 149.1649627685547 84.34032440185547 L 149.0970764160156 84.35256195068359 L 112.099609375 91.01274108886719 L 112.0893173217773 91.01459503173828 L 112.0790557861328 91.01659393310547 L 85.84636688232422 96.11766815185547 L 1.499995231628418 99.30130767822266 Z" stroke="none"/>
      <path d="M 3 3.000007629394531 L 3 97.74362182617188 L 85.67385864257812 94.62309265136719 L 111.833869934082 89.53647613525391 L 148.9670562744141 82.85188293457031 L 190.7154388427734 79.24263000488281 L 217.554931640625 79.24263000488281 L 217.554931640625 3.000007629394531 L 3 3.000007629394531 M 0 7.62939453125e-06 L 220.554931640625 7.62939453125e-06 L 220.554931640625 82.24263000488281 L 190.8448791503906 82.24263000488281 L 149.3628387451172 85.82884979248047 L 112.3653717041016 92.48900604248047 L 86.01875305175781 97.61222076416016 L 0 100.859001159668 L 0 7.62939453125e-06 Z" stroke="none" fill="#fff"/>
    </g>
    <g id="Trazado_226795" data-name="Trazado 226795" transform="translate(133.825 -2193.429)" fill="#ffd947">
      <path d="M 1.499995231628418 99.30130767822266 L 1.499995231628418 1.500004410743713 L 219.054931640625 1.500004410743713 L 219.054931640625 15.12853336334229 L 219.054931640625 39.71994400024414 L 219.054931640625 58.67582702636719 L 219.054931640625 80.74262237548828 L 190.8448791503906 80.74262237548828 L 190.7801666259766 80.74262237548828 L 190.7156677246094 80.74820709228516 L 149.233642578125 84.33441925048828 L 149.1649627685547 84.34032440185547 L 149.0970764160156 84.35256195068359 L 112.099609375 91.01274108886719 L 112.0893173217773 91.01459503173828 L 112.0790557861328 91.01659393310547 L 85.84636688232422 96.11766815185547 L 1.499995231628418 99.30130767822266 Z" stroke="none"/>
      <path d="M 3 3.000007629394531 L 3 97.74362182617188 L 85.67385864257812 94.62309265136719 L 111.833869934082 89.53647613525391 L 148.9670562744141 82.85188293457031 L 190.7154388427734 79.24263000488281 L 217.554931640625 79.24263000488281 L 217.554931640625 3.000007629394531 L 3 3.000007629394531 M 0 7.62939453125e-06 L 220.554931640625 7.62939453125e-06 L 220.554931640625 82.24263000488281 L 190.8448791503906 82.24263000488281 L 149.3628387451172 85.82884979248047 L 112.3653717041016 92.48900604248047 L 86.01875305175781 97.61222076416016 L 0 100.859001159668 L 0 7.62939453125e-06 Z" stroke="none" fill="#fff"/>
    </g>
    <g id="Grupo_158898" data-name="Grupo 158898" transform="translate(-2975 -1060)">
      <g id="Trazado_226796" data-name="Trazado 226796" transform="translate(2334.825 -996.429)" fill="#0e8282">
        <path d="M 1.499995231628418 99.30130767822266 L 1.499995231628418 1.500004410743713 L 219.054931640625 1.500004410743713 L 219.054931640625 15.12853336334229 L 219.054931640625 39.71994400024414 L 219.054931640625 58.67582702636719 L 219.054931640625 80.74262237548828 L 190.8448791503906 80.74262237548828 L 190.7801666259766 80.74262237548828 L 190.7156677246094 80.74820709228516 L 149.233642578125 84.33441925048828 L 149.1649627685547 84.34032440185547 L 149.0970764160156 84.35256195068359 L 112.099609375 91.01274108886719 L 112.0893173217773 91.01459503173828 L 112.0790557861328 91.01659393310547 L 85.84636688232422 96.11766815185547 L 1.499995231628418 99.30130767822266 Z" stroke="none"/>
        <path d="M 3 3.000007629394531 L 3 97.74362182617188 L 85.67385864257812 94.62309265136719 L 111.833869934082 89.53647613525391 L 148.9670562744141 82.85188293457031 L 190.7154388427734 79.24263000488281 L 217.554931640625 79.24263000488281 L 217.554931640625 3.000007629394531 L 3 3.000007629394531 M 0 7.62939453125e-06 L 220.554931640625 7.62939453125e-06 L 220.554931640625 82.24263000488281 L 190.8448791503906 82.24263000488281 L 149.3628387451172 85.82884979248047 L 112.3653717041016 92.48900604248047 L 86.01875305175781 97.61222076416016 L 0 100.859001159668 L 0 7.62939453125e-06 Z" stroke="none" fill="#fff"/>
      </g>
      <g id="Trazado_226797" data-name="Trazado 226797" transform="translate(2321.825 -991.429)" fill="#0e8282">
        <path d="M 1.499995231628418 99.30130767822266 L 1.499995231628418 1.500004410743713 L 219.054931640625 1.500004410743713 L 219.054931640625 15.12853336334229 L 219.054931640625 39.71994400024414 L 219.054931640625 58.67582702636719 L 219.054931640625 80.74262237548828 L 190.8448791503906 80.74262237548828 L 190.7801666259766 80.74262237548828 L 190.7156677246094 80.74820709228516 L 149.233642578125 84.33441925048828 L 149.1649627685547 84.34032440185547 L 149.0970764160156 84.35256195068359 L 112.099609375 91.01274108886719 L 112.0893173217773 91.01459503173828 L 112.0790557861328 91.01659393310547 L 85.84636688232422 96.11766815185547 L 1.499995231628418 99.30130767822266 Z" stroke="none"/>
        <path d="M 3 3.000007629394531 L 3 97.74362182617188 L 85.67385864257812 94.62309265136719 L 111.833869934082 89.53647613525391 L 148.9670562744141 82.85188293457031 L 190.7154388427734 79.24263000488281 L 217.554931640625 79.24263000488281 L 217.554931640625 3.000007629394531 L 3 3.000007629394531 M 0 7.62939453125e-06 L 220.554931640625 7.62939453125e-06 L 220.554931640625 82.24263000488281 L 190.8448791503906 82.24263000488281 L 149.3628387451172 85.82884979248047 L 112.3653717041016 92.48900604248047 L 86.01875305175781 97.61222076416016 L 0 100.859001159668 L 0 7.62939453125e-06 Z" stroke="none" fill="#fff"/>
      </g>
      <g id="Trazado_226798" data-name="Trazado 226798" transform="translate(2309.825 -985.429)" fill="#0e8282">
        <path d="M 1.499995231628418 99.30130767822266 L 1.499995231628418 1.500004410743713 L 219.054931640625 1.500004410743713 L 219.054931640625 15.12853336334229 L 219.054931640625 39.71994400024414 L 219.054931640625 58.67582702636719 L 219.054931640625 80.74262237548828 L 190.8448791503906 80.74262237548828 L 190.7801666259766 80.74262237548828 L 190.7156677246094 80.74820709228516 L 149.233642578125 84.33441925048828 L 149.1649627685547 84.34032440185547 L 149.0970764160156 84.35256195068359 L 112.099609375 91.01274108886719 L 112.0893173217773 91.01459503173828 L 112.0790557861328 91.01659393310547 L 85.84636688232422 96.11766815185547 L 1.499995231628418 99.30130767822266 Z" stroke="none"/>
        <path d="M 3 3.000007629394531 L 3 97.74362182617188 L 85.67385864257812 94.62309265136719 L 111.833869934082 89.53647613525391 L 148.9670562744141 82.85188293457031 L 190.7154388427734 79.24263000488281 L 217.554931640625 79.24263000488281 L 217.554931640625 3.000007629394531 L 3 3.000007629394531 M 0 7.62939453125e-06 L 220.554931640625 7.62939453125e-06 L 220.554931640625 82.24263000488281 L 190.8448791503906 82.24263000488281 L 149.3628387451172 85.82884979248047 L 112.3653717041016 92.48900604248047 L 86.01875305175781 97.61222076416016 L 0 100.859001159668 L 0 7.62939453125e-06 Z" stroke="none" fill="#fff"/>
      </g>
    </g>
    <g id="Trazado_226799" data-name="Trazado 226799" transform="translate(-385.733 -2069.731)" fill="rgba(249,233,232,0.7)">
      <path d="M 83.74987030029297 176.1038513183594 L 1.500013947486877 141.2711334228516 L 1.500013947486877 1.499999284744263 L 167.4405670166016 1.499999284744263 L 167.4405670166016 141.2644958496094 L 83.74987030029297 176.1038513183594 Z" stroke="none"/>
      <path d="M 3 3 L 3 140.2774353027344 L 83.75486755371094 174.4770050048828 L 165.9405517578125 140.26416015625 L 165.9405517578125 3 L 3 3 M 0 0 L 168.9405517578125 0 L 168.9405517578125 142.2648620605469 L 83.74490356445312 177.730712890625 L 0 142.2648620605469 L 0 0 Z" stroke="none" fill="#ef6f6c"/>
    </g>
    <g id="Rectángulo_52046" data-name="Rectángulo 52046" transform="translate(109 -2047)" fill="#afafaf" stroke="#fff" stroke-width="3">
      <rect width="256" height="75" rx="37.5" stroke="none"/>
      <rect x="1.5" y="1.5" width="253" height="72" rx="36" fill="none"/>
    </g>
    <line id="Línea_355" data-name="Línea 355" x2="139.376" transform="translate(-627.5 -1891.775)" fill="none" stroke="#002552" stroke-width="2"/>
    <path id="Trazado_226800" data-name="Trazado 226800" d="M99.195,18.745a1.54,1.54,0,0,1-1.318-.809,2.034,2.034,0,0,1,.423-2.562l7.624-6-7.624-6A2.036,2.036,0,0,1,97.877.809a1.461,1.461,0,0,1,2.21-.49l9.563,7.528a2.019,2.019,0,0,1,0,3.053l-9.563,7.526a1.435,1.435,0,0,1-.892.319" transform="translate(-593.85 -1901.148)" fill="#002552" stroke="#002552" stroke-width="0.5"/>
    <path id="Trazado_226802" data-name="Trazado 226802" d="M100.223,1.518,89.753,9.985a4.548,4.548,0,0,0,0,7.362l11.168,9.031H6.438C2.9,26.378,0,28.721,0,31.584V43.558c0,2.863,2.9,5.206,6.438,5.206h94.483L89.753,57.795a4.548,4.548,0,0,0,0,7.362l10.47,8.467a7.585,7.585,0,0,0,9.105,0L149.36,41.252a4.745,4.745,0,0,0,1.878-3.634v-.094a4.747,4.747,0,0,0-1.878-3.635L109.329,1.518a7.585,7.585,0,0,0-9.105,0" transform="matrix(-1, -0.017, 0.017, -1, 319.054, -1868.149)" fill="#fff" stroke="#ffd947" stroke-width="1"/>
    <g id="Grupo_158899" data-name="Grupo 158899" transform="translate(-1580.889 -350.43)">
      <path id="Trazado_226803" data-name="Trazado 226803" d="M0,0H82.4" transform="translate(1394.5 -1575.637)" fill="none" stroke="#002552" stroke-width="2"/>
      <path id="Trazado_226807" data-name="Trazado 226807" d="M0,72.31V0" transform="translate(1476.9 -1576)" fill="none" stroke="#002552" stroke-width="2"/>
      <path id="Trazado_226806" data-name="Trazado 226806" d="M73.3,0H0" transform="translate(1476.42 -1503.691)" fill="none" stroke="#002552" stroke-width="2"/>
      <path id="Trazado_226805" data-name="Trazado 226805" d="M1.138,8.057a1.094,1.094,0,0,1-.812-.364A.692.692,0,0,1,.566,6.6L5.184,4.125.477,1.451A.719.719,0,0,1,.2.345,1.1,1.1,0,0,1,1.547.164l5.9,3.355a.8.8,0,0,1,.438.664.728.728,0,0,1-.415.646l-5.793,3.1a1.1,1.1,0,0,1-.543.125" transform="matrix(0.998, -0.07, 0.07, 0.998, 1544.162, -1507.438)" fill="#002552" stroke="#002552" stroke-width="0.5"/>
    </g>
    <text id="Comienzo" transform="translate(-560 -2139)" fill="#fff" stroke="#ef6f6c" stroke-width="1" font-size="20" font-family="Roboto-Black, Roboto" font-weight="800"><tspan x="-45.308" y="0">Comienzo</tspan></text>
    <text id="Actividad" transform="translate(-306 -2139)" fill="#fff" stroke="#1f4e79" stroke-width="1" font-size="20" font-family="Roboto-Black, Roboto" font-weight="800"><tspan x="-42.661" y="0">Actividad</tspan></text>
    <text id="Decisión" transform="translate(-31 -2135)" fill="#12263f" stroke="#afafaf" stroke-width="1" font-size="20" font-family="Roboto-Black, Roboto" font-weight="800"><tspan x="-38.979" y="0">Decisión</tspan></text>
    <text id="Documento" transform="translate(244 -2143)" fill="#12263f" stroke="#ffd947" stroke-width="1" font-size="20" font-family="Roboto-Black, Roboto" font-weight="800"><tspan x="-51.514" y="0">Documento</tspan></text>
    <text id="Multidocumento" transform="translate(-557 -1996)" fill="#fff" stroke="#0e8282" stroke-width="1" font-size="20" font-family="Roboto-Black, Roboto" font-weight="800"><tspan x="-74.009" y="0">Multidocumento</tspan></text>
    <text id="Conectar_fuera_de_la_página" data-name="Conectar fuera
de la página" transform="translate(-301 -2007)" fill="#12263f" stroke="#11253d" stroke-width="1" font-size="20" font-family="Roboto-Regular, Roboto"><tspan x="-65.737" y="0">Conectar fuera</tspan><tspan x="-53.799" y="27">de la página</tspan></text>
    <text id="Conector" transform="translate(4 -1981)" fill="#12263f" stroke="#11253d" stroke-width="1" font-size="20" font-family="Roboto-Regular, Roboto"><tspan x="-40.518" y="0">Conector</tspan></text>
    <text id="Terminador" transform="translate(243 -2001)" fill="#12263f" stroke="#afafaf" stroke-width="1" font-size="20" font-family="Roboto-Black, Roboto" font-weight="800"><tspan x="-52.876" y="0">Terminador</tspan></text>
  </g>
</svg>
