<svg xmlns="http://www.w3.org/2000/svg" width="1030.175" height="343.864" viewBox="0 0 1030.175 343.864">
  <g id="Grupo_599861" data-name="Grupo 599861" transform="translate(665.175 2193.429)">
    <g id="Trazado_247193" data-name="Trazado 247193" transform="translate(-91 -2072)" fill="#d4dbdb">
      <path d="M 95 178.5 C 88.64994812011719 178.5 82.30442810058594 177.8940277099609 76.1396484375 176.6989288330078 C 70.13304901123047 175.5345001220703 64.22499847412109 173.7971038818359 58.57965087890625 171.5349731445312 C 53.03770065307617 169.3143005371094 47.6927490234375 166.5658721923828 42.69319915771484 163.3660278320312 C 37.74227523803711 160.1972808837891 33.0869255065918 156.5584716796875 28.85647583007812 152.5506744384766 C 24.62745094299316 148.5442504882812 20.78834915161133 144.1361694335938 17.44577407836914 139.4489440917969 C 14.07254981994629 134.7187042236328 11.17555046081543 129.6624298095703 8.835249900817871 124.4205474853516 C 6.452499866485596 119.0835494995117 4.622550010681152 113.4988250732422 3.396250009536743 107.8214492797852 C 2.138000011444092 101.9961242675781 1.5 96.0001220703125 1.5 90 C 1.5 83.9998779296875 2.138000011444092 78.00387573242188 3.396250009536743 72.17855072021484 C 4.622550010681152 66.50117492675781 6.452499866485596 60.91645050048828 8.835249900817871 55.57944869995117 C 11.17555046081543 50.33757400512695 14.07254981994629 45.28129959106445 17.44577407836914 40.55104827880859 C 20.78834915161133 35.86382675170898 24.62745094299316 31.45574951171875 28.85647583007812 27.44932556152344 C 33.0869255065918 23.44152450561523 37.74227523803711 19.80272483825684 42.69319915771484 16.63397407531738 C 47.6927490234375 13.43412494659424 53.03770065307617 10.68570041656494 58.57965087890625 8.465024948120117 C 64.22499847412109 6.202899932861328 70.13304901123047 4.465499877929688 76.1396484375 3.301074981689453 C 82.30442810058594 2.105974912643433 88.64994812011719 1.5 95 1.5 C 101.3500518798828 1.5 107.6955718994141 2.105974912643433 113.8603515625 3.301074981689453 C 119.8669509887695 4.465499877929688 125.7750015258789 6.202899932861328 131.4203491210938 8.465024948120117 C 136.9622955322266 10.68570041656494 142.3072509765625 13.43412494659424 147.3067932128906 16.63397407531738 C 152.2577209472656 19.80272483825684 156.9130706787109 23.44152450561523 161.1435241699219 27.44932556152344 C 165.3725433349609 31.45574951171875 169.2116546630859 35.86382675170898 172.5542297363281 40.55104827880859 C 175.9274444580078 45.28129959106445 178.8244476318359 50.33757400512695 181.1647491455078 55.57944869995117 C 183.5475006103516 60.91645050048828 185.3774566650391 66.50117492675781 186.6037445068359 72.17855072021484 C 187.8619995117188 78.00387573242188 188.5 83.9998779296875 188.5 90 C 188.5 96.0001220703125 187.8619995117188 101.9961242675781 186.6037445068359 107.8214492797852 C 185.3774566650391 113.4988250732422 183.5475006103516 119.0835494995117 181.1647491455078 124.4205474853516 C 178.8244476318359 129.6624298095703 175.9274444580078 134.7187042236328 172.5542297363281 139.4489440917969 C 169.2116546630859 144.1361694335938 165.3725433349609 148.5442504882812 161.1435241699219 152.5506744384766 C 156.9130706787109 156.5584716796875 152.2577209472656 160.1972808837891 147.3067932128906 163.3660278320312 C 142.3072509765625 166.5658721923828 136.9622955322266 169.3143005371094 131.4203491210938 171.5349731445312 C 125.7750015258789 173.7971038818359 119.8669509887695 175.5345001220703 113.8603515625 176.6989288330078 C 107.6955718994141 177.8940277099609 101.3500518798828 178.5 95 178.5 Z" stroke="none"/>
      <path d="M 95 3 C 88.74555206298828 3 82.49605560302734 3.59674072265625 76.42513275146484 4.773651123046875 C 70.51144409179688 5.920074462890625 64.69505310058594 7.6304931640625 59.1375732421875 9.857391357421875 C 53.68284606933594 12.04313659667969 48.42221069335938 14.74815368652344 43.50181579589844 17.89736938476562 C 38.63034057617188 21.01524353027344 34.05003356933594 24.5953369140625 29.88807678222656 28.53823852539062 C 25.72900390625 32.47845458984375 21.95368957519531 36.81315612792969 18.66705322265625 41.42196655273438 C 15.3516845703125 46.07107543945312 12.504638671875 51.04008483886719 10.20494079589844 56.19097137451172 C 7.864364624023438 61.4334716796875 6.06689453125 66.91902923583984 4.862442016601562 72.4952392578125 C 3.626602172851562 78.21671295166016 3 84.10615539550781 3 90 C 3 95.89384460449219 3.626602172851562 101.7832870483398 4.862442016601562 107.5047607421875 C 6.06689453125 113.0809707641602 7.864364624023438 118.5665283203125 10.20494079589844 123.8090209960938 C 12.504638671875 128.9599304199219 15.3516845703125 133.9289245605469 18.66705322265625 138.5780334472656 C 21.95368957519531 143.1868438720703 25.72900390625 147.5215454101562 29.88807678222656 151.4617614746094 C 34.05003356933594 155.4046630859375 38.63034057617188 158.9847717285156 43.50181579589844 162.1026306152344 C 48.42221069335938 165.2518463134766 53.68284606933594 167.9568634033203 59.1375732421875 170.1426086425781 C 64.69505310058594 172.3695068359375 70.51144409179688 174.0799255371094 76.42513275146484 175.2263488769531 C 82.49605560302734 176.4032592773438 88.74555206298828 177 95 177 C 101.2544479370117 177 107.5039443969727 176.4032592773438 113.5748672485352 175.2263488769531 C 119.4885559082031 174.0799255371094 125.3049240112305 172.3695068359375 130.8624267578125 170.1426086425781 C 136.317138671875 167.9568634033203 141.5777587890625 165.2518463134766 146.4981842041016 162.1026306152344 C 151.36962890625 158.9847717285156 155.949951171875 155.4046630859375 160.1118927001953 151.4617614746094 C 164.27099609375 147.5215454101562 168.0463104248047 143.1868438720703 171.3329467773438 138.5780334472656 C 174.6483154296875 133.9289245605469 177.495361328125 128.9599304199219 179.7950592041016 123.8090209960938 C 182.1356353759766 118.5665283203125 183.93310546875 113.0809707641602 185.1375579833984 107.5047607421875 C 186.3733978271484 101.7832870483398 187 95.89384460449219 187 90 C 187 84.10615539550781 186.3733978271484 78.21671295166016 185.1375579833984 72.4952392578125 C 183.93310546875 66.91902923583984 182.1356353759766 61.4334716796875 179.7950592041016 56.19097137451172 C 177.495361328125 51.04008483886719 174.6483154296875 46.07107543945312 171.3329467773438 41.42196655273438 C 168.0463104248047 36.81315612792969 164.27099609375 32.47845458984375 160.1118927001953 28.53823852539062 C 155.949951171875 24.5953369140625 151.36962890625 21.01524353027344 146.4981842041016 17.89736938476562 C 141.5777587890625 14.74815368652344 136.317138671875 12.04313659667969 130.8624267578125 9.857391357421875 C 125.3049240112305 7.6304931640625 119.4885559082031 5.920074462890625 113.5748672485352 4.773651123046875 C 107.5039443969727 3.59674072265625 101.2544479370117 3 95 3 M 95 0 C 147.4670257568359 0 190 40.29437255859375 190 90 C 190 139.7056274414062 147.4670257568359 180 95 180 C 42.53294372558594 180 0 139.7056274414062 0 90 C 0 40.29437255859375 42.53294372558594 0 95 0 Z" stroke="none" fill="#0e8282"/>
    </g>
    <g id="Trazado_247200" data-name="Trazado 247200" transform="translate(-656 -2191)" fill="#ef6f6c">
      <path d="M 98.5 94.5 C 85.30410766601562 94.5 72.50631713867188 93.24128723144531 60.462158203125 90.7587890625 C 54.68163299560547 89.56734466552734 49.10823822021484 88.09329223632812 43.89676284790039 86.37757873535156 C 38.74513244628906 84.68154907226562 33.90373611450195 82.73523712158203 29.50707817077637 80.59271240234375 C 25.12663078308105 78.45807647705078 21.15407943725586 76.11236572265625 17.69976234436035 73.62071228027344 C 14.23594760894775 71.12220764160156 11.26634216308594 68.45749664306641 8.873420715332031 65.70052337646484 C 3.980789422988892 60.06357955932617 1.5 54.10823822021484 1.5 48 C 1.5 41.89176177978516 3.980789422988892 35.93642044067383 8.873420715332031 30.29947280883789 C 11.26634216308594 27.54249954223633 14.23594760894775 24.87778854370117 17.69976234436035 22.3792896270752 C 21.15407943725586 19.88763236999512 25.12663078308105 17.54192161560059 29.50707817077637 15.40728950500488 C 33.90373611450195 13.26476287841797 38.74513244628906 11.31844711303711 43.89676284790039 9.622421264648438 C 49.10823822021484 7.906710624694824 54.68163299560547 6.432657718658447 60.462158203125 5.241210460662842 C 72.50631713867188 2.758710622787476 85.30410766601562 1.5 98.5 1.5 C 111.6958923339844 1.5 124.4936828613281 2.758710622787476 136.537841796875 5.241210460662842 C 142.3183746337891 6.432657718658447 147.8917694091797 7.906710624694824 153.1032409667969 9.622421264648438 C 158.2548675537109 11.31844711303711 163.0962677001953 13.26476287841797 167.492919921875 15.40728950500488 C 171.8733673095703 17.54192161560059 175.8459167480469 19.88763236999512 179.3002319335938 22.3792896270752 C 182.7640533447266 24.87778854370117 185.7336578369141 27.54249954223633 188.1265716552734 30.29947280883789 C 193.0192108154297 35.93642044067383 195.5 41.89176177978516 195.5 48 C 195.5 54.10823822021484 193.0192108154297 60.06357955932617 188.1265716552734 65.70052337646484 C 185.7336578369141 68.45749664306641 182.7640533447266 71.12220764160156 179.3002319335938 73.62071228027344 C 175.8459167480469 76.11236572265625 171.8733673095703 78.45807647705078 167.492919921875 80.59271240234375 C 163.0962677001953 82.73523712158203 158.2548675537109 84.68154907226562 153.1032409667969 86.37757873535156 C 147.8917694091797 88.09329223632812 142.3183746337891 89.56734466552734 136.537841796875 90.7587890625 C 124.4936828613281 93.24128723144531 111.6958923339844 94.5 98.5 94.5 Z" stroke="none"/>
      <path d="M 98.5 3 C 85.40560913085938 3 72.70972442626953 4.248336791992188 60.76496887207031 6.710304260253906 C 55.04046630859375 7.890220642089844 49.52299499511719 9.349357604980469 44.36585998535156 11.04719543457031 C 39.27830505371094 12.72211456298828 34.50016784667969 14.64272308349609 30.16419982910156 16.75569152832031 C 25.86064147949219 18.85285949707031 21.96221923828125 21.15422058105469 18.5772705078125 23.59583282470703 C 15.20716857910156 26.02674865722656 12.32344055175781 28.61296844482422 10.00625610351562 31.28269195556641 C 5.357254028320312 36.63894271850586 3 42.26344299316406 3 48 C 3 53.73655700683594 5.357254028320312 59.36105728149414 10.00625610351562 64.71730804443359 C 12.32344055175781 67.38702392578125 15.20716857910156 69.97325134277344 18.5772705078125 72.40416717529297 C 21.96221923828125 74.84577941894531 25.86064147949219 77.14714050292969 30.16419982910156 79.24430847167969 C 34.50016784667969 81.35727691650391 39.27830505371094 83.27789306640625 44.36585998535156 84.95280456542969 C 49.52299499511719 86.650634765625 55.04046630859375 88.10977935791016 60.76496887207031 89.28969573974609 C 72.70972442626953 91.75166320800781 85.40560913085938 93 98.5 93 C 111.5943908691406 93 124.2902755737305 91.75166320800781 136.2350311279297 89.28969573974609 C 141.9595336914062 88.10977935791016 147.4770050048828 86.650634765625 152.6341400146484 84.95280456542969 C 157.7216949462891 83.27789306640625 162.4998321533203 81.35727691650391 166.8358001708984 79.24430847167969 C 171.1393585205078 77.14714050292969 175.0377807617188 74.84577941894531 178.4227294921875 72.40416717529297 C 181.7928314208984 69.97325134277344 184.6765594482422 67.38702392578125 186.9937438964844 64.71730804443359 C 191.6427459716797 59.36105728149414 194 53.73655700683594 194 48 C 194 42.26344299316406 191.6427459716797 36.63894271850586 186.9937438964844 31.28269195556641 C 184.6765594482422 28.61296844482422 181.7928314208984 26.02674865722656 178.4227294921875 23.59583282470703 C 175.0377807617188 21.15422058105469 171.1393585205078 18.85285949707031 166.8358001708984 16.75569152832031 C 162.4998321533203 14.64272308349609 157.7216949462891 12.72211456298828 152.6341400146484 11.04719543457031 C 147.4770050048828 9.349357604980469 141.9595336914062 7.890220642089844 136.2350311279297 6.710304260253906 C 124.2902755737305 4.248336791992188 111.5943908691406 3 98.5 3 M 98.5 0 C 152.9000244140625 0 197 21.49033355712891 197 48 C 197 74.50966644287109 152.9000244140625 96 98.5 96 C 44.0999755859375 96 0 74.50966644287109 0 48 C 0 21.49033355712891 44.0999755859375 0 98.5 0 Z" stroke="none" fill="#fff"/>
    </g>
    <g id="Trazado_247197" data-name="Trazado 247197" transform="translate(-410 -2189)" fill="#1f4e79">
      <path d="M 206.5 90.5 L 1.5 90.5 L 1.5 1.5 L 206.5 1.5 L 206.5 90.5 Z" stroke="none"/>
      <path d="M 3 3 L 3 89 L 205 89 L 205 3 L 3 3 M 0 0 L 208 0 L 208 92 L 0 92 L 0 0 Z" stroke="none" fill="#fff"/>
    </g>
    <g id="Trazado_226793" data-name="Trazado 226793" transform="translate(-144.459 -2185.193)" fill="#afafaf">
      <path d="M 110.0721740722656 86.58061981201172 L -5.362136363983154 40.34528350830078 L 110.0466690063477 -2.202799320220947 L 224.1470336914062 42.45656967163086 L 110.0721740722656 86.58061981201172 Z" stroke="none"/>
      <path d="M 110.0307159423828 -0.598236083984375 L -1.183120727539062 40.40327835083008 L 110.0817565917969 84.96859741210938 L 220.0104217529297 42.44830703735352 L 110.0307159423828 -0.598236083984375 M 110.0625839233398 -3.807365417480469 L 228.2836151123047 42.46486282348633 L 110.0625839233398 88.192626953125 L -9.541213989257812 40.28729629516602 L 110.0625839233398 -3.807365417480469 Z" stroke="none" fill="#fff"/>
    </g>
    <g id="Trazado_226794" data-name="Trazado 226794" transform="translate(133.825 -2193.429)" fill="#7030a0">
      <path d="M 1.499995231628418 99.30130767822266 L 1.499995231628418 1.500004410743713 L 219.054931640625 1.500004410743713 L 219.054931640625 15.12853336334229 L 219.054931640625 39.71994400024414 L 219.054931640625 58.67582702636719 L 219.054931640625 80.74262237548828 L 190.8448791503906 80.74262237548828 L 190.7801666259766 80.74262237548828 L 190.7156677246094 80.74820709228516 L 149.233642578125 84.33441925048828 L 149.1649627685547 84.34032440185547 L 149.0970764160156 84.35256195068359 L 112.099609375 91.01274108886719 L 112.0893173217773 91.01459503173828 L 112.0790557861328 91.01659393310547 L 85.84636688232422 96.11766815185547 L 1.499995231628418 99.30130767822266 Z" stroke="none"/>
      <path d="M 3 3.000007629394531 L 3 97.74362182617188 L 85.67385864257812 94.62309265136719 L 111.833869934082 89.53647613525391 L 148.9670562744141 82.85188293457031 L 190.7154388427734 79.24263000488281 L 217.554931640625 79.24263000488281 L 217.554931640625 3.000007629394531 L 3 3.000007629394531 M 0 7.62939453125e-06 L 220.554931640625 7.62939453125e-06 L 220.554931640625 82.24263000488281 L 190.8448791503906 82.24263000488281 L 149.3628387451172 85.82884979248047 L 112.3653717041016 92.48900604248047 L 86.01875305175781 97.61222076416016 L 0 100.859001159668 L 0 7.62939453125e-06 Z" stroke="none" fill="#fff"/>
    </g>
    <g id="Trazado_226795" data-name="Trazado 226795" transform="translate(133.825 -2193.429)" fill="#ffd947">
      <path d="M 1.499995231628418 99.30130767822266 L 1.499995231628418 1.500004410743713 L 219.054931640625 1.500004410743713 L 219.054931640625 15.12853336334229 L 219.054931640625 39.71994400024414 L 219.054931640625 58.67582702636719 L 219.054931640625 80.74262237548828 L 190.8448791503906 80.74262237548828 L 190.7801666259766 80.74262237548828 L 190.7156677246094 80.74820709228516 L 149.233642578125 84.33441925048828 L 149.1649627685547 84.34032440185547 L 149.0970764160156 84.35256195068359 L 112.099609375 91.01274108886719 L 112.0893173217773 91.01459503173828 L 112.0790557861328 91.01659393310547 L 85.84636688232422 96.11766815185547 L 1.499995231628418 99.30130767822266 Z" stroke="none"/>
      <path d="M 3 3.000007629394531 L 3 97.74362182617188 L 85.67385864257812 94.62309265136719 L 111.833869934082 89.53647613525391 L 148.9670562744141 82.85188293457031 L 190.7154388427734 79.24263000488281 L 217.554931640625 79.24263000488281 L 217.554931640625 3.000007629394531 L 3 3.000007629394531 M 0 7.62939453125e-06 L 220.554931640625 7.62939453125e-06 L 220.554931640625 82.24263000488281 L 190.8448791503906 82.24263000488281 L 149.3628387451172 85.82884979248047 L 112.3653717041016 92.48900604248047 L 86.01875305175781 97.61222076416016 L 0 100.859001159668 L 0 7.62939453125e-06 Z" stroke="none" fill="#fff"/>
    </g>
    <g id="Grupo_158898" data-name="Grupo 158898" transform="translate(-2975 -1060)">
      <g id="Trazado_226796" data-name="Trazado 226796" transform="translate(2334.825 -996.429)" fill="#0e8282">
        <path d="M 1.499995231628418 99.30130767822266 L 1.499995231628418 1.500004410743713 L 219.054931640625 1.500004410743713 L 219.054931640625 15.12853336334229 L 219.054931640625 39.71994400024414 L 219.054931640625 58.67582702636719 L 219.054931640625 80.74262237548828 L 190.8448791503906 80.74262237548828 L 190.7801666259766 80.74262237548828 L 190.7156677246094 80.74820709228516 L 149.233642578125 84.33441925048828 L 149.1649627685547 84.34032440185547 L 149.0970764160156 84.35256195068359 L 112.099609375 91.01274108886719 L 112.0893173217773 91.01459503173828 L 112.0790557861328 91.01659393310547 L 85.84636688232422 96.11766815185547 L 1.499995231628418 99.30130767822266 Z" stroke="none"/>
        <path d="M 3 3.000007629394531 L 3 97.74362182617188 L 85.67385864257812 94.62309265136719 L 111.833869934082 89.53647613525391 L 148.9670562744141 82.85188293457031 L 190.7154388427734 79.24263000488281 L 217.554931640625 79.24263000488281 L 217.554931640625 3.000007629394531 L 3 3.000007629394531 M 0 7.62939453125e-06 L 220.554931640625 7.62939453125e-06 L 220.554931640625 82.24263000488281 L 190.8448791503906 82.24263000488281 L 149.3628387451172 85.82884979248047 L 112.3653717041016 92.48900604248047 L 86.01875305175781 97.61222076416016 L 0 100.859001159668 L 0 7.62939453125e-06 Z" stroke="none" fill="#fff"/>
      </g>
      <g id="Trazado_226797" data-name="Trazado 226797" transform="translate(2321.825 -991.429)" fill="#0e8282">
        <path d="M 1.499995231628418 99.30130767822266 L 1.499995231628418 1.500004410743713 L 219.054931640625 1.500004410743713 L 219.054931640625 15.12853336334229 L 219.054931640625 39.71994400024414 L 219.054931640625 58.67582702636719 L 219.054931640625 80.74262237548828 L 190.8448791503906 80.74262237548828 L 190.7801666259766 80.74262237548828 L 190.7156677246094 80.74820709228516 L 149.233642578125 84.33441925048828 L 149.1649627685547 84.34032440185547 L 149.0970764160156 84.35256195068359 L 112.099609375 91.01274108886719 L 112.0893173217773 91.01459503173828 L 112.0790557861328 91.01659393310547 L 85.84636688232422 96.11766815185547 L 1.499995231628418 99.30130767822266 Z" stroke="none"/>
        <path d="M 3 3.000007629394531 L 3 97.74362182617188 L 85.67385864257812 94.62309265136719 L 111.833869934082 89.53647613525391 L 148.9670562744141 82.85188293457031 L 190.7154388427734 79.24263000488281 L 217.554931640625 79.24263000488281 L 217.554931640625 3.000007629394531 L 3 3.000007629394531 M 0 7.62939453125e-06 L 220.554931640625 7.62939453125e-06 L 220.554931640625 82.24263000488281 L 190.8448791503906 82.24263000488281 L 149.3628387451172 85.82884979248047 L 112.3653717041016 92.48900604248047 L 86.01875305175781 97.61222076416016 L 0 100.859001159668 L 0 7.62939453125e-06 Z" stroke="none" fill="#fff"/>
      </g>
      <g id="Trazado_226798" data-name="Trazado 226798" transform="translate(2309.825 -985.429)" fill="#0e8282">
        <path d="M 1.499995231628418 99.30130767822266 L 1.499995231628418 1.500004410743713 L 219.054931640625 1.500004410743713 L 219.054931640625 15.12853336334229 L 219.054931640625 39.71994400024414 L 219.054931640625 58.67582702636719 L 219.054931640625 80.74262237548828 L 190.8448791503906 80.74262237548828 L 190.7801666259766 80.74262237548828 L 190.7156677246094 80.74820709228516 L 149.233642578125 84.33441925048828 L 149.1649627685547 84.34032440185547 L 149.0970764160156 84.35256195068359 L 112.099609375 91.01274108886719 L 112.0893173217773 91.01459503173828 L 112.0790557861328 91.01659393310547 L 85.84636688232422 96.11766815185547 L 1.499995231628418 99.30130767822266 Z" stroke="none"/>
        <path d="M 3 3.000007629394531 L 3 97.74362182617188 L 85.67385864257812 94.62309265136719 L 111.833869934082 89.53647613525391 L 148.9670562744141 82.85188293457031 L 190.7154388427734 79.24263000488281 L 217.554931640625 79.24263000488281 L 217.554931640625 3.000007629394531 L 3 3.000007629394531 M 0 7.62939453125e-06 L 220.554931640625 7.62939453125e-06 L 220.554931640625 82.24263000488281 L 190.8448791503906 82.24263000488281 L 149.3628387451172 85.82884979248047 L 112.3653717041016 92.48900604248047 L 86.01875305175781 97.61222076416016 L 0 100.859001159668 L 0 7.62939453125e-06 Z" stroke="none" fill="#fff"/>
      </g>
    </g>
    <g id="Trazado_226799" data-name="Trazado 226799" transform="translate(-385.733 -2069.731)" fill="rgba(249,233,232,0.7)">
      <path d="M 83.74987030029297 176.1038513183594 L 1.500013947486877 141.2711334228516 L 1.500013947486877 1.499999284744263 L 167.4405670166016 1.499999284744263 L 167.4405670166016 141.2644958496094 L 83.74987030029297 176.1038513183594 Z" stroke="none"/>
      <path d="M 3 3 L 3 140.2774353027344 L 83.75486755371094 174.4770050048828 L 165.9405517578125 140.26416015625 L 165.9405517578125 3 L 3 3 M 0 0 L 168.9405517578125 0 L 168.9405517578125 142.2648620605469 L 83.74490356445312 177.730712890625 L 0 142.2648620605469 L 0 0 Z" stroke="none" fill="#ef6f6c"/>
    </g>
    <g id="Trazado_247191" data-name="Trazado 247191" transform="translate(109 -2047)" fill="#afafaf">
      <path d="M 218.5 73.5 L 37.5 73.5 C 32.63936614990234 73.5 27.9249324798584 72.54837036132812 23.48763275146484 70.67156982421875 C 19.20096588134766 68.85843658447266 15.35083293914795 66.26249694824219 12.04416656494141 62.95583343505859 C 8.737500190734863 59.64916610717773 6.141566753387451 55.79903411865234 4.328433513641357 51.51236724853516 C 2.451633214950562 47.07506561279297 1.5 42.36063385009766 1.5 37.5 C 1.5 32.63936614990234 2.451633214950562 27.9249324798584 4.328433513641357 23.48763275146484 C 6.141566753387451 19.20096588134766 8.737500190734863 15.35083293914795 12.04416656494141 12.04416656494141 C 15.35083293914795 8.737500190734863 19.20096588134766 6.141566753387451 23.48763275146484 4.328433513641357 C 27.9249324798584 2.451633214950562 32.63936614990234 1.5 37.5 1.5 L 218.5 1.5 C 223.3606262207031 1.5 228.0750732421875 2.451633214950562 232.5123596191406 4.328433513641357 C 236.7990264892578 6.141566753387451 240.649169921875 8.737500190734863 243.9558258056641 12.04416656494141 C 247.2624969482422 15.35083293914795 249.8584289550781 19.20096588134766 251.6715698242188 23.48763275146484 C 253.5483703613281 27.9249324798584 254.5 32.63936614990234 254.5 37.5 C 254.5 42.36063385009766 253.5483703613281 47.07506561279297 251.6715698242188 51.51236724853516 C 249.8584289550781 55.79903411865234 247.2624969482422 59.64916610717773 243.9558258056641 62.95583343505859 C 240.649169921875 66.26249694824219 236.7990264892578 68.85843658447266 232.5123596191406 70.67156982421875 C 228.0750732421875 72.54837036132812 223.3606262207031 73.5 218.5 73.5 Z" stroke="none"/>
      <path d="M 37.5 3 C 32.84121704101562 3 28.3233642578125 3.911750793457031 24.07196044921875 5.7099609375 C 19.96406555175781 7.447425842285156 16.27421569824219 9.9354248046875 13.10482788085938 13.10482025146484 C 9.9354248046875 16.27421569824219 7.447433471679688 19.96407318115234 5.7099609375 24.07196426391602 C 3.9117431640625 28.32335662841797 3 32.84121322631836 3 37.5 C 3 42.15878677368164 3.9117431640625 46.67664337158203 5.7099609375 50.92803573608398 C 7.447433471679688 55.03592681884766 9.9354248046875 58.72578430175781 13.10482788085938 61.89517974853516 C 16.27421569824219 65.0645751953125 19.96406555175781 67.55257415771484 24.07196044921875 69.2900390625 C 28.3233642578125 71.08824920654297 32.84121704101562 72 37.5 72 L 218.5 72 C 223.1587829589844 72 227.6766357421875 71.08824920654297 231.9280395507812 69.2900390625 C 236.0359344482422 67.55257415771484 239.7257843017578 65.0645751953125 242.8951721191406 61.89517974853516 C 246.0645751953125 58.72578430175781 248.5525665283203 55.03592681884766 250.2900390625 50.92803573608398 C 252.0882568359375 46.67664337158203 253 42.15878677368164 253 37.5 C 253 32.84121322631836 252.0882568359375 28.32335662841797 250.2900390625 24.07196426391602 C 248.5525665283203 19.96407318115234 246.0645751953125 16.27421569824219 242.8951721191406 13.10482025146484 C 239.7257843017578 9.9354248046875 236.0359344482422 7.447425842285156 231.9280395507812 5.7099609375 C 227.6766357421875 3.911750793457031 223.1587829589844 3 218.5 3 L 37.5 3 M 37.5 0 L 218.5 0 C 239.2106781005859 0 256 16.78932189941406 256 37.5 C 256 58.21067810058594 239.2106781005859 75 218.5 75 L 37.5 75 C 16.78932189941406 75 0 58.21067810058594 0 37.5 C 0 16.78932189941406 16.78932189941406 0 37.5 0 Z" stroke="none" fill="#fff"/>
    </g>
    <path id="Trazado_247202" data-name="Trazado 247202" d="M0,0H139.376" transform="translate(-627.5 -1891.775)" fill="none" stroke="#002552" stroke-width="2"/>
    <path id="Trazado_226800" data-name="Trazado 226800" d="M99.195,18.745a1.54,1.54,0,0,1-1.318-.809,2.034,2.034,0,0,1,.423-2.562l7.624-6-7.624-6A2.036,2.036,0,0,1,97.877.809a1.461,1.461,0,0,1,2.21-.49l9.563,7.528a2.019,2.019,0,0,1,0,3.053l-9.563,7.526a1.435,1.435,0,0,1-.892.319" transform="translate(-593.85 -1901.148)" fill="#002552" stroke="#002552" stroke-width="0.5"/>
    <path id="Trazado_226802" data-name="Trazado 226802" d="M100.223,1.518,89.753,9.985a4.548,4.548,0,0,0,0,7.362l11.168,9.031H6.438C2.9,26.378,0,28.721,0,31.584V43.558c0,2.863,2.9,5.206,6.438,5.206h94.483L89.753,57.795a4.548,4.548,0,0,0,0,7.362l10.47,8.467a7.585,7.585,0,0,0,9.105,0L149.36,41.252a4.745,4.745,0,0,0,1.878-3.634v-.094a4.747,4.747,0,0,0-1.878-3.635L109.329,1.518a7.585,7.585,0,0,0-9.105,0" transform="translate(319.721 -1869.464) rotate(180)" fill="#99c2c2" stroke="#0e8282" stroke-width="1"/>
    <g id="Grupo_158899" data-name="Grupo 158899" transform="translate(-1580.889 -350.43)">
      <path id="Trazado_226803" data-name="Trazado 226803" d="M0,0H82.4" transform="translate(1394.5 -1575.637)" fill="none" stroke="#002552" stroke-width="2"/>
      <path id="Trazado_226807" data-name="Trazado 226807" d="M0,72.31V0" transform="translate(1476.9 -1576)" fill="none" stroke="#002552" stroke-width="2"/>
      <path id="Trazado_226806" data-name="Trazado 226806" d="M73.3,0H0" transform="translate(1476.42 -1503.691)" fill="none" stroke="#002552" stroke-width="2"/>
      <path id="Trazado_226805" data-name="Trazado 226805" d="M1.138,8.057a1.094,1.094,0,0,1-.812-.364A.692.692,0,0,1,.566,6.6L5.184,4.125.477,1.451A.719.719,0,0,1,.2.345,1.1,1.1,0,0,1,1.547.164l5.9,3.355a.8.8,0,0,1,.438.664.728.728,0,0,1-.415.646l-5.793,3.1a1.1,1.1,0,0,1-.543.125" transform="matrix(0.998, -0.07, 0.07, 0.998, 1544.162, -1507.438)" fill="#002552" stroke="#002552" stroke-width="0.5"/>
    </g>
    <path id="Trazado_247203" data-name="Trazado 247203" d="M-32.729-4.814a5.193,5.193,0,0,1-.8,2.622A4.833,4.833,0,0,1-35.586-.43,7,7,0,0,1-38.608.2a5.584,5.584,0,0,1-4.414-1.826,7.54,7.54,0,0,1-1.611-5.156v-.7a8.607,8.607,0,0,1,.728-3.657,5.513,5.513,0,0,1,2.095-2.422,5.844,5.844,0,0,1,3.164-.854,6.129,6.129,0,0,1,4.16,1.362A5.383,5.383,0,0,1-32.7-9.307h-3.418a2.547,2.547,0,0,0-.654-1.865,2.691,2.691,0,0,0-1.875-.566,2.048,2.048,0,0,0-1.875.957,6.151,6.151,0,0,0-.625,3.057v1.006a6.806,6.806,0,0,0,.571,3.252,2.091,2.091,0,0,0,1.968.977A2.632,2.632,0,0,0-36.8-3.047a2.363,2.363,0,0,0,.664-1.768Zm1.055-.566A6.236,6.236,0,0,1-31.06-8.2a4.4,4.4,0,0,1,1.768-1.9,5.323,5.323,0,0,1,2.705-.664,4.858,4.858,0,0,1,3.74,1.47,5.64,5.64,0,0,1,1.367,4v.117a5.472,5.472,0,0,1-1.372,3.921A4.871,4.871,0,0,1-26.567.2,4.927,4.927,0,0,1-30.19-1.157a5.29,5.29,0,0,1-1.475-3.667Zm3.291.205a3.932,3.932,0,0,0,.459,2.148,1.529,1.529,0,0,0,1.357.684q1.758,0,1.8-2.705v-.332q0-2.842-1.816-2.842-1.65,0-1.787,2.451Zm11.465-5.391.107,1.24a3.633,3.633,0,0,1,3.018-1.436A2.675,2.675,0,0,1-11.089-9.17a3.517,3.517,0,0,1,3.105-1.592q3.213,0,3.3,3.887V0h-3.3V-6.67a2.014,2.014,0,0,0-.273-1.182,1.164,1.164,0,0,0-1-.371,1.559,1.559,0,0,0-1.455.869l.01.137V0H-14V-6.65a2.117,2.117,0,0,0-.264-1.2,1.161,1.161,0,0,0-1.006-.371,1.578,1.578,0,0,0-1.445.869V0H-20V-10.566ZM.669,0h-3.3V-10.566h3.3Zm-3.5-13.291a1.469,1.469,0,0,1,.508-1.152A1.916,1.916,0,0,1-1-14.893a1.916,1.916,0,0,1,1.318.449,1.469,1.469,0,0,1,.508,1.152,1.469,1.469,0,0,1-.508,1.152A1.916,1.916,0,0,1-1-11.689a1.916,1.916,0,0,1-1.318-.449A1.469,1.469,0,0,1-2.827-13.291ZM7.808.2a5.432,5.432,0,0,1-3.936-1.45,5.008,5.008,0,0,1-1.5-3.774V-5.3a6.489,6.489,0,0,1,.6-2.861,4.395,4.395,0,0,1,1.753-1.919,5.292,5.292,0,0,1,2.734-.679A4.574,4.574,0,0,1,10.972-9.38a5.43,5.43,0,0,1,1.289,3.853v1.279H5.718a2.372,2.372,0,0,0,.771,1.4,2.3,2.3,0,0,0,1.543.508,2.958,2.958,0,0,0,2.441-1.094l1.5,1.777A4.2,4.2,0,0,1,10.234-.308,5.891,5.891,0,0,1,7.808.2ZM7.437-8.223q-1.445,0-1.719,1.914h3.32v-.254a1.63,1.63,0,0,0-.4-1.226A1.593,1.593,0,0,0,7.437-8.223Zm9.17-2.344.107,1.24a3.583,3.583,0,0,1,3.018-1.436,3.015,3.015,0,0,1,2.466.986,4.7,4.7,0,0,1,.845,2.969V0h-3.3V-6.67a1.783,1.783,0,0,0-.322-1.177,1.491,1.491,0,0,0-1.172-.376,1.569,1.569,0,0,0-1.436.762V0H13.521V-10.566ZM28.745-2.539H33.56V0H24.585V-1.836l4.688-6.191H24.79v-2.539h8.662v1.777Zm5.84-2.842A6.236,6.236,0,0,1,35.2-8.2a4.4,4.4,0,0,1,1.768-1.9,5.323,5.323,0,0,1,2.705-.664,4.858,4.858,0,0,1,3.74,1.47,5.64,5.64,0,0,1,1.367,4v.117a5.472,5.472,0,0,1-1.372,3.921A4.871,4.871,0,0,1,39.692.2a4.927,4.927,0,0,1-3.623-1.353,5.29,5.29,0,0,1-1.475-3.667Zm3.291.205a3.932,3.932,0,0,0,.459,2.148,1.529,1.529,0,0,0,1.357.684q1.758,0,1.8-2.705v-.332q0-2.842-1.816-2.842-1.65,0-1.787,2.451Z" transform="translate(-560 -2139)" fill="#fff" stroke="#ef6f6c" stroke-width="1"/>
    <path id="Trazado_247199" data-name="Trazado 247199" d="M-33.511-2.656h-4.7L-39.028,0H-42.69l5.215-14.219h3.223L-29,0h-3.682ZM-37.388-5.3h3.057l-1.533-4.932Zm13.74,2.959a1.464,1.464,0,0,0,1.074-.376A1.379,1.379,0,0,0-22.2-3.77h3.086A3.653,3.653,0,0,1-20.361-.918,4.631,4.631,0,0,1-23.569.2,4.689,4.689,0,0,1-27.2-1.25a5.7,5.7,0,0,1-1.328-4v-.137a6.436,6.436,0,0,1,.591-2.827,4.3,4.3,0,0,1,1.7-1.885,5.081,5.081,0,0,1,2.637-.659,4.573,4.573,0,0,1,3.271,1.143,4.053,4.053,0,0,1,1.211,3.1H-22.2a1.807,1.807,0,0,0-.4-1.26,1.382,1.382,0,0,0-1.074-.439q-1.279,0-1.494,1.631a11.508,11.508,0,0,0-.068,1.426,4.52,4.52,0,0,0,.381,2.207A1.319,1.319,0,0,0-23.647-2.344Zm9.756-10.85v2.627h1.738v2.285h-1.738v4.834a1.234,1.234,0,0,0,.215.83,1.152,1.152,0,0,0,.85.234,4.828,4.828,0,0,0,.82-.059V-.088A6.074,6.074,0,0,1-13.862.2a3.448,3.448,0,0,1-2.51-.8,3.282,3.282,0,0,1-.811-2.432V-8.281H-18.53v-2.285h1.348v-2.627ZM-7.388,0h-3.3V-10.566h3.3Zm-3.5-13.291a1.469,1.469,0,0,1,.508-1.152,1.916,1.916,0,0,1,1.318-.449,1.916,1.916,0,0,1,1.318.449,1.469,1.469,0,0,1,.508,1.152,1.469,1.469,0,0,1-.508,1.152,1.916,1.916,0,0,1-1.318.449,1.916,1.916,0,0,1-1.318-.449A1.469,1.469,0,0,1-10.884-13.291Zm9.736,9.375,1.67-6.65H3.989L.542,0H-2.817L-6.265-10.566h3.477ZM8.442,0h-3.3V-10.566h3.3Zm-3.5-13.291a1.469,1.469,0,0,1,.508-1.152,1.916,1.916,0,0,1,1.318-.449,1.916,1.916,0,0,1,1.318.449A1.469,1.469,0,0,1,8.6-13.291a1.469,1.469,0,0,1-.508,1.152,1.916,1.916,0,0,1-1.318.449,1.916,1.916,0,0,1-1.318-.449A1.469,1.469,0,0,1,4.946-13.291Zm5.107,7.93a6.455,6.455,0,0,1,1.084-3.955,3.568,3.568,0,0,1,3.027-1.445,3.035,3.035,0,0,1,2.383,1.113V-15h3.3V0H16.89l-.166-1.133A3.116,3.116,0,0,1,14.146.2,3.562,3.562,0,0,1,11.157-1.25,6.659,6.659,0,0,1,10.054-5.361Zm3.291.205q0,2.813,1.641,2.813a1.62,1.62,0,0,0,1.563-.918V-7.285A1.576,1.576,0,0,0,15-8.223q-1.523,0-1.65,2.461ZM27.671,0a3.716,3.716,0,0,1-.312-.947A3.06,3.06,0,0,1,24.819.2a3.749,3.749,0,0,1-2.539-.9,2.875,2.875,0,0,1-1.045-2.271,2.955,2.955,0,0,1,1.27-2.6A6.468,6.468,0,0,1,26.2-6.455h1.016v-.559q0-1.462-1.26-1.462A1.03,1.03,0,0,0,24.78-7.319H21.489a2.95,2.95,0,0,1,1.3-2.487,5.479,5.479,0,0,1,3.325-.956,4.8,4.8,0,0,1,3.193.986,3.429,3.429,0,0,1,1.2,2.705v4.678a4.79,4.79,0,0,0,.449,2.227V0ZM25.61-2.148a1.836,1.836,0,0,0,1.021-.264,1.653,1.653,0,0,0,.581-.6V-4.7h-.957q-1.719,0-1.719,1.543a.942.942,0,0,0,.3.728A1.1,1.1,0,0,0,25.61-2.148Zm6.309-3.213A6.455,6.455,0,0,1,33-9.316a3.568,3.568,0,0,1,3.027-1.445,3.035,3.035,0,0,1,2.383,1.113V-15h3.3V0H38.755l-.166-1.133A3.116,3.116,0,0,1,36.011.2,3.562,3.562,0,0,1,33.022-1.25,6.659,6.659,0,0,1,31.919-5.361Zm3.291.205q0,2.813,1.641,2.813a1.62,1.62,0,0,0,1.563-.918V-7.285a1.576,1.576,0,0,0-1.543-.937q-1.523,0-1.65,2.461Z" transform="translate(-306 -2139)" fill="#fff" stroke="#1f4e79" stroke-width="1"/>
    <path id="Trazado_247195" data-name="Trazado 247195" d="M-37.905,0V-14.219h4.58a6.737,6.737,0,0,1,3.389.854,6.006,6.006,0,0,1,2.349,2.412,7.283,7.283,0,0,1,.854,3.491v.654a7.325,7.325,0,0,1-.825,3.5A6.032,6.032,0,0,1-29.883-.884,6.589,6.589,0,0,1-33.228,0Zm3.428-11.572v8.936h1.191a2.666,2.666,0,0,0,2.266-1.05,5.145,5.145,0,0,0,.791-3.12v-.615a5.1,5.1,0,0,0-.791-3.105,2.713,2.713,0,0,0-2.3-1.045ZM-20.015.2a5.432,5.432,0,0,1-3.936-1.45,5.008,5.008,0,0,1-1.5-3.774V-5.3a6.489,6.489,0,0,1,.6-2.861A4.395,4.395,0,0,1-23.1-10.083a5.292,5.292,0,0,1,2.734-.679A4.574,4.574,0,0,1-16.851-9.38a5.43,5.43,0,0,1,1.289,3.853v1.279H-22.1a2.372,2.372,0,0,0,.771,1.4,2.3,2.3,0,0,0,1.543.508,2.958,2.958,0,0,0,2.441-1.094l1.5,1.777A4.2,4.2,0,0,1-17.588-.308,5.891,5.891,0,0,1-20.015.2Zm-.371-8.418q-1.445,0-1.719,1.914h3.32v-.254a1.63,1.63,0,0,0-.4-1.226A1.593,1.593,0,0,0-20.386-8.223ZM-9.771-2.344A1.464,1.464,0,0,0-8.7-2.72a1.379,1.379,0,0,0,.371-1.05h3.086A3.653,3.653,0,0,1-6.484-.918,4.631,4.631,0,0,1-9.692.2,4.689,4.689,0,0,1-13.325-1.25a5.7,5.7,0,0,1-1.328-4v-.137a6.436,6.436,0,0,1,.591-2.827,4.3,4.3,0,0,1,1.7-1.885,5.081,5.081,0,0,1,2.637-.659A4.573,4.573,0,0,1-6.45-9.619a4.053,4.053,0,0,1,1.211,3.1H-8.325a1.807,1.807,0,0,0-.4-1.26A1.382,1.382,0,0,0-9.8-8.223q-1.279,0-1.494,1.631a11.508,11.508,0,0,0-.068,1.426,4.52,4.52,0,0,0,.381,2.207A1.319,1.319,0,0,0-9.771-2.344ZM-.376,0h-3.3V-10.566h3.3Zm-3.5-13.291a1.469,1.469,0,0,1,.508-1.152,1.916,1.916,0,0,1,1.318-.449,1.916,1.916,0,0,1,1.318.449A1.469,1.469,0,0,1-.22-13.291a1.469,1.469,0,0,1-.508,1.152,1.916,1.916,0,0,1-1.318.449,1.916,1.916,0,0,1-1.318-.449A1.469,1.469,0,0,1-3.872-13.291ZM7.183-2.969a.76.76,0,0,0-.439-.674,6.685,6.685,0,0,0-1.67-.527,7.615,7.615,0,0,1-2.031-.718A3.4,3.4,0,0,1,1.821-5.967,2.577,2.577,0,0,1,1.4-7.422a2.92,2.92,0,0,1,1.2-2.4,4.948,4.948,0,0,1,3.145-.942,5.482,5.482,0,0,1,3.359.947,2.962,2.962,0,0,1,1.27,2.49h-3.3q0-1.27-1.338-1.27a1.326,1.326,0,0,0-.869.288.892.892,0,0,0-.352.718.819.819,0,0,0,.43.713,4.06,4.06,0,0,0,1.372.449,11.857,11.857,0,0,1,1.655.42,3.007,3.007,0,0,1,2.383,2.939A2.767,2.767,0,0,1,9.072-.713,5.632,5.632,0,0,1,5.747.2,5.747,5.747,0,0,1,3.325-.293a4.05,4.05,0,0,1-1.66-1.328,3.007,3.007,0,0,1-.6-1.768H4.146a1.272,1.272,0,0,0,.488,1.069,2.009,2.009,0,0,0,1.2.337,1.58,1.58,0,0,0,1.011-.273A.875.875,0,0,0,7.183-2.969ZM15.366,0h-3.3V-10.566h3.3Zm-3.5-13.291a1.469,1.469,0,0,1,.508-1.152,1.916,1.916,0,0,1,1.318-.449,1.916,1.916,0,0,1,1.318.449,1.469,1.469,0,0,1,.508,1.152,1.469,1.469,0,0,1-.508,1.152,1.916,1.916,0,0,1-1.318.449,1.916,1.916,0,0,1-1.318-.449A1.469,1.469,0,0,1,11.87-13.291Zm5.107,7.91A6.236,6.236,0,0,1,17.593-8.2a4.4,4.4,0,0,1,1.768-1.9,5.323,5.323,0,0,1,2.705-.664,4.858,4.858,0,0,1,3.74,1.47,5.64,5.64,0,0,1,1.367,4v.117A5.472,5.472,0,0,1,25.8-1.255,4.871,4.871,0,0,1,22.085.2a4.927,4.927,0,0,1-3.623-1.353,5.29,5.29,0,0,1-1.475-3.667Zm3.291.205a3.932,3.932,0,0,0,.459,2.148,1.529,1.529,0,0,0,1.357.684q1.758,0,1.8-2.705v-.332q0-2.842-1.816-2.842-1.65,0-1.787,2.451ZM22.515-15h3.477l-2.715,3.066-2.686,0Zm9.131,4.434.107,1.24a3.583,3.583,0,0,1,3.018-1.436,3.015,3.015,0,0,1,2.466.986,4.7,4.7,0,0,1,.845,2.969V0h-3.3V-6.67a1.783,1.783,0,0,0-.322-1.177,1.491,1.491,0,0,0-1.172-.376,1.569,1.569,0,0,0-1.436.762V0H28.56V-10.566Z" transform="translate(-31 -2135)" fill="#12263f" stroke="#afafaf" stroke-width="1"/>
    <path id="Trazado_247196" data-name="Trazado 247196" d="M-50.439,0V-14.219h4.58a6.737,6.737,0,0,1,3.389.854,6.006,6.006,0,0,1,2.349,2.412,7.283,7.283,0,0,1,.854,3.491v.654a7.325,7.325,0,0,1-.825,3.5A6.032,6.032,0,0,1-42.417-.884,6.589,6.589,0,0,1-45.762,0Zm3.428-11.572v8.936h1.191a2.666,2.666,0,0,0,2.266-1.05,5.145,5.145,0,0,0,.791-3.12v-.615a5.1,5.1,0,0,0-.791-3.105,2.713,2.713,0,0,0-2.3-1.045Zm8.936,6.191A6.236,6.236,0,0,1-37.461-8.2a4.4,4.4,0,0,1,1.768-1.9,5.323,5.323,0,0,1,2.705-.664,4.858,4.858,0,0,1,3.74,1.47,5.64,5.64,0,0,1,1.367,4v.117a5.472,5.472,0,0,1-1.372,3.921A4.871,4.871,0,0,1-32.969.2a4.927,4.927,0,0,1-3.623-1.353,5.29,5.29,0,0,1-1.475-3.667Zm3.291.205a3.932,3.932,0,0,0,.459,2.148,1.529,1.529,0,0,0,1.357.684q1.758,0,1.8-2.705v-.332q0-2.842-1.816-2.842-1.65,0-1.787,2.451Zm12.822,2.832a1.464,1.464,0,0,0,1.074-.376,1.379,1.379,0,0,0,.371-1.05h3.086A3.653,3.653,0,0,1-18.677-.918,4.631,4.631,0,0,1-21.885.2,4.689,4.689,0,0,1-25.518-1.25a5.7,5.7,0,0,1-1.328-4v-.137a6.436,6.436,0,0,1,.591-2.827,4.3,4.3,0,0,1,1.7-1.885,5.081,5.081,0,0,1,2.637-.659,4.573,4.573,0,0,1,3.271,1.143,4.053,4.053,0,0,1,1.211,3.1h-3.086a1.807,1.807,0,0,0-.4-1.26,1.382,1.382,0,0,0-1.074-.439q-1.279,0-1.494,1.631a11.508,11.508,0,0,0-.068,1.426,4.52,4.52,0,0,0,.381,2.207A1.319,1.319,0,0,0-21.963-2.344Zm12.217,1.2A3.393,3.393,0,0,1-12.568.2,3.328,3.328,0,0,1-15.2-.815a4.251,4.251,0,0,1-.894-2.905v-6.846H-12.8V-3.7a1.183,1.183,0,0,0,1.318,1.357,1.72,1.72,0,0,0,1.611-.811v-7.412h3.311V0H-9.648Zm8.1-9.424.107,1.24a3.633,3.633,0,0,1,3.018-1.436A2.675,2.675,0,0,1,4.18-9.17a3.517,3.517,0,0,1,3.105-1.592q3.213,0,3.3,3.887V0h-3.3V-6.67a2.014,2.014,0,0,0-.273-1.182,1.164,1.164,0,0,0-1-.371,1.559,1.559,0,0,0-1.455.869l.01.137V0H1.27V-6.65a2.117,2.117,0,0,0-.264-1.2A1.161,1.161,0,0,0,0-8.223a1.578,1.578,0,0,0-1.445.869V0H-4.736V-10.566ZM17.578.2a5.432,5.432,0,0,1-3.936-1.45,5.008,5.008,0,0,1-1.5-3.774V-5.3a6.489,6.489,0,0,1,.6-2.861,4.395,4.395,0,0,1,1.753-1.919,5.292,5.292,0,0,1,2.734-.679A4.574,4.574,0,0,1,20.742-9.38a5.43,5.43,0,0,1,1.289,3.853v1.279H15.488a2.372,2.372,0,0,0,.771,1.4,2.3,2.3,0,0,0,1.543.508,2.958,2.958,0,0,0,2.441-1.094l1.5,1.777A4.2,4.2,0,0,1,20-.308,5.891,5.891,0,0,1,17.578.2Zm-.371-8.418q-1.445,0-1.719,1.914h3.32v-.254a1.63,1.63,0,0,0-.4-1.226A1.593,1.593,0,0,0,17.207-8.223Zm9.17-2.344.107,1.24A3.583,3.583,0,0,1,29.5-10.762a3.015,3.015,0,0,1,2.466.986,4.7,4.7,0,0,1,.845,2.969V0h-3.3V-6.67a1.783,1.783,0,0,0-.322-1.177,1.491,1.491,0,0,0-1.172-.376,1.569,1.569,0,0,0-1.436.762V0H23.291V-10.566Zm12.09-2.627v2.627h1.738v2.285H38.467v4.834a1.234,1.234,0,0,0,.215.83,1.152,1.152,0,0,0,.85.234,4.828,4.828,0,0,0,.82-.059V-.088A6.074,6.074,0,0,1,38.5.2a3.448,3.448,0,0,1-2.51-.8,3.282,3.282,0,0,1-.811-2.432V-8.281H33.828v-2.285h1.348v-2.627Zm2.324,7.813A6.236,6.236,0,0,1,41.406-8.2a4.4,4.4,0,0,1,1.768-1.9,5.323,5.323,0,0,1,2.705-.664,4.858,4.858,0,0,1,3.74,1.47,5.64,5.64,0,0,1,1.367,4v.117a5.472,5.472,0,0,1-1.372,3.921A4.871,4.871,0,0,1,45.9.2a4.927,4.927,0,0,1-3.623-1.353A5.29,5.29,0,0,1,40.8-4.824Zm3.291.205a3.932,3.932,0,0,0,.459,2.148,1.529,1.529,0,0,0,1.357.684q1.758,0,1.8-2.705v-.332q0-2.842-1.816-2.842-1.65,0-1.787,2.451Z" transform="translate(244 -2143)" fill="#12263f" stroke="#ffd947" stroke-width="1"/>
    <path id="Trazado_247201" data-name="Trazado 247201" d="M-68.433-14.219l3.174,9.893,3.164-9.893h4.512V0h-3.437V-3.32l.332-6.8L-64.126,0h-2.266l-3.447-10.127.332,6.807V0h-3.428V-14.219Zm19.17,13.076A3.393,3.393,0,0,1-52.085.2,3.328,3.328,0,0,1-54.717-.815a4.251,4.251,0,0,1-.894-2.905v-6.846h3.291V-3.7A1.183,1.183,0,0,0-51-2.344a1.72,1.72,0,0,0,1.611-.811v-7.412h3.311V0h-3.086ZM-40.806,0h-3.3V-15h3.3Zm5.859-13.193v2.627h1.738v2.285h-1.738v4.834a1.234,1.234,0,0,0,.215.83,1.152,1.152,0,0,0,.85.234,4.828,4.828,0,0,0,.82-.059V-.088A6.074,6.074,0,0,1-34.917.2a3.448,3.448,0,0,1-2.51-.8,3.282,3.282,0,0,1-.811-2.432V-8.281h-1.348v-2.285h1.348v-2.627ZM-28.442,0h-3.3V-10.566h3.3Zm-3.5-13.291a1.469,1.469,0,0,1,.508-1.152,1.916,1.916,0,0,1,1.318-.449,1.916,1.916,0,0,1,1.318.449,1.469,1.469,0,0,1,.508,1.152,1.469,1.469,0,0,1-.508,1.152,1.916,1.916,0,0,1-1.318.449,1.916,1.916,0,0,1-1.318-.449A1.469,1.469,0,0,1-31.938-13.291Zm5.107,7.93a6.455,6.455,0,0,1,1.084-3.955,3.568,3.568,0,0,1,3.027-1.445,3.035,3.035,0,0,1,2.383,1.113V-15h3.3V0H-20l-.166-1.133A3.116,3.116,0,0,1-22.739.2,3.562,3.562,0,0,1-25.728-1.25,6.659,6.659,0,0,1-26.831-5.361Zm3.291.205q0,2.813,1.641,2.813a1.62,1.62,0,0,0,1.563-.918V-7.285a1.576,1.576,0,0,0-1.543-.937q-1.523,0-1.65,2.461Zm7.959-.225A6.236,6.236,0,0,1-14.966-8.2,4.4,4.4,0,0,1-13.2-10.1a5.323,5.323,0,0,1,2.705-.664,4.858,4.858,0,0,1,3.74,1.47,5.64,5.64,0,0,1,1.367,4v.117A5.472,5.472,0,0,1-6.758-1.255,4.871,4.871,0,0,1-10.474.2,4.927,4.927,0,0,1-14.1-1.157a5.29,5.29,0,0,1-1.475-3.667Zm3.291.205a3.932,3.932,0,0,0,.459,2.148,1.529,1.529,0,0,0,1.357.684q1.758,0,1.8-2.705v-.332q0-2.842-1.816-2.842-1.65,0-1.787,2.451ZM.532-2.344A1.464,1.464,0,0,0,1.606-2.72a1.379,1.379,0,0,0,.371-1.05H5.063A3.653,3.653,0,0,1,3.818-.918,4.631,4.631,0,0,1,.61.2,4.689,4.689,0,0,1-3.022-1.25a5.7,5.7,0,0,1-1.328-4v-.137A6.436,6.436,0,0,1-3.76-8.218a4.3,4.3,0,0,1,1.7-1.885,5.081,5.081,0,0,1,2.637-.659A4.573,4.573,0,0,1,3.853-9.619a4.053,4.053,0,0,1,1.211,3.1H1.978a1.807,1.807,0,0,0-.4-1.26A1.382,1.382,0,0,0,.5-8.223q-1.279,0-1.494,1.631A11.508,11.508,0,0,0-1.06-5.166,4.52,4.52,0,0,0-.679-2.959,1.319,1.319,0,0,0,.532-2.344Zm12.217,1.2A3.393,3.393,0,0,1,9.927.2,3.328,3.328,0,0,1,7.295-.815,4.251,4.251,0,0,1,6.4-3.721v-6.846H9.692V-3.7a1.183,1.183,0,0,0,1.318,1.357,1.72,1.72,0,0,0,1.611-.811v-7.412h3.311V0H12.847Zm8.1-9.424.107,1.24a3.633,3.633,0,0,1,3.018-1.436A2.675,2.675,0,0,1,26.675-9.17a3.517,3.517,0,0,1,3.105-1.592q3.213,0,3.3,3.887V0h-3.3V-6.67a2.014,2.014,0,0,0-.273-1.182,1.164,1.164,0,0,0-1-.371,1.559,1.559,0,0,0-1.455.869l.01.137V0h-3.3V-6.65a2.117,2.117,0,0,0-.264-1.2A1.161,1.161,0,0,0,22.5-8.223a1.578,1.578,0,0,0-1.445.869V0H17.759V-10.566ZM40.073.2a5.432,5.432,0,0,1-3.936-1.45,5.008,5.008,0,0,1-1.5-3.774V-5.3a6.489,6.489,0,0,1,.6-2.861,4.395,4.395,0,0,1,1.753-1.919,5.292,5.292,0,0,1,2.734-.679A4.574,4.574,0,0,1,43.237-9.38a5.43,5.43,0,0,1,1.289,3.853v1.279H37.983a2.372,2.372,0,0,0,.771,1.4,2.3,2.3,0,0,0,1.543.508,2.958,2.958,0,0,0,2.441-1.094l1.5,1.777A4.2,4.2,0,0,1,42.5-.308,5.891,5.891,0,0,1,40.073.2ZM39.7-8.223q-1.445,0-1.719,1.914H41.3v-.254a1.63,1.63,0,0,0-.4-1.226A1.593,1.593,0,0,0,39.7-8.223Zm9.17-2.344.107,1.24A3.583,3.583,0,0,1,52-10.762a3.015,3.015,0,0,1,2.466.986,4.7,4.7,0,0,1,.845,2.969V0h-3.3V-6.67a1.783,1.783,0,0,0-.322-1.177,1.491,1.491,0,0,0-1.172-.376,1.569,1.569,0,0,0-1.436.762V0H45.786V-10.566Zm12.09-2.627v2.627H62.7v2.285H60.962v4.834a1.234,1.234,0,0,0,.215.83,1.152,1.152,0,0,0,.85.234,4.828,4.828,0,0,0,.82-.059V-.088A6.074,6.074,0,0,1,60.991.2a3.448,3.448,0,0,1-2.51-.8,3.282,3.282,0,0,1-.811-2.432V-8.281H56.323v-2.285h1.348v-2.627Zm2.324,7.813A6.236,6.236,0,0,1,63.9-8.2a4.4,4.4,0,0,1,1.768-1.9,5.323,5.323,0,0,1,2.705-.664,4.858,4.858,0,0,1,3.74,1.47,5.64,5.64,0,0,1,1.367,4v.117a5.472,5.472,0,0,1-1.372,3.921A4.871,4.871,0,0,1,68.394.2a4.927,4.927,0,0,1-3.623-1.353A5.29,5.29,0,0,1,63.3-4.824Zm3.291.205a3.932,3.932,0,0,0,.459,2.148,1.529,1.529,0,0,0,1.357.684q1.758,0,1.8-2.705v-.332q0-2.842-1.816-2.842-1.65,0-1.787,2.451Z" transform="translate(-557 -1996)" fill="#fff" stroke="#0e8282" stroke-width="1"/>
    <path id="Trazado_247198" data-name="Trazado 247198" d="M-53.628-4.512A5.231,5.231,0,0,1-55.293-1.03,5.457,5.457,0,0,1-59.019.2a5.01,5.01,0,0,1-4.038-1.807,7.268,7.268,0,0,1-1.519-4.834V-7.812a8.1,8.1,0,0,1,.708-3.486,5.288,5.288,0,0,1,2.007-2.31,5.588,5.588,0,0,1,3.008-.806,5.138,5.138,0,0,1,3.633,1.265,5.294,5.294,0,0,1,1.592,3.5h-1.885a4.085,4.085,0,0,0-1.06-2.468,3.206,3.206,0,0,0-2.28-.764,3.355,3.355,0,0,0-2.817,1.329A6.1,6.1,0,0,0-62.69-7.769v1.378a6.273,6.273,0,0,0,.967,3.685,3.124,3.124,0,0,0,2.705,1.368,3.608,3.608,0,0,0,2.4-.708,3.929,3.929,0,0,0,1.108-2.466Zm1.8-.869a6.241,6.241,0,0,1,.61-2.793,4.553,4.553,0,0,1,1.7-1.914,4.626,4.626,0,0,1,2.485-.674,4.456,4.456,0,0,1,3.491,1.494,5.748,5.748,0,0,1,1.333,3.975v.127A6.3,6.3,0,0,1-42.8-2.4,4.486,4.486,0,0,1-44.492-.488,4.679,4.679,0,0,1-47.017.2,4.445,4.445,0,0,1-50.5-1.3a5.719,5.719,0,0,1-1.333-3.955Zm1.816.215A4.52,4.52,0,0,0-49.2-2.344a2.61,2.61,0,0,0,2.183,1.064,2.594,2.594,0,0,0,2.188-1.079,4.943,4.943,0,0,0,.811-3.022A4.513,4.513,0,0,0-44.844-8.2a2.623,2.623,0,0,0-2.192-1.079,2.594,2.594,0,0,0-2.158,1.064A4.906,4.906,0,0,0-50.015-5.166Zm11.777-5.4.059,1.328a3.851,3.851,0,0,1,3.164-1.523q3.35,0,3.379,3.779V0h-1.807V-6.992a2.432,2.432,0,0,0-.522-1.689,2.094,2.094,0,0,0-1.6-.547A2.607,2.607,0,0,0-37.1-8.76a3.183,3.183,0,0,0-1.035,1.23V0h-1.807V-10.566ZM-24.526.2a4.617,4.617,0,0,1-3.5-1.411A5.237,5.237,0,0,1-29.37-4.99v-.332a6.341,6.341,0,0,1,.6-2.808,4.685,4.685,0,0,1,1.68-1.934,4.223,4.223,0,0,1,2.339-.7,3.957,3.957,0,0,1,3.2,1.357,5.877,5.877,0,0,1,1.143,3.887v.752h-7.158a3.756,3.756,0,0,0,.913,2.524,2.87,2.87,0,0,0,2.222.962,3.147,3.147,0,0,0,1.621-.391,4.073,4.073,0,0,0,1.162-1.035l1.1.859A4.437,4.437,0,0,1-24.526.2Zm-.225-9.473a2.41,2.41,0,0,0-1.836.8A3.868,3.868,0,0,0-27.5-6.25h5.293v-.137a3.441,3.441,0,0,0-.742-2.134A2.269,2.269,0,0,0-24.751-9.277Zm10.674,8a2.6,2.6,0,0,0,1.689-.586,2.061,2.061,0,0,0,.8-1.465h1.709A3.276,3.276,0,0,1-10.5-1.6,4.116,4.116,0,0,1-12.041-.293,4.438,4.438,0,0,1-14.077.2a4.353,4.353,0,0,1-3.433-1.44,5.737,5.737,0,0,1-1.274-3.94v-.3a6.361,6.361,0,0,1,.566-2.744A4.314,4.314,0,0,1-16.592-10.1a4.619,4.619,0,0,1,2.5-.664A4.238,4.238,0,0,1-11.133-9.7,3.8,3.8,0,0,1-9.878-6.934h-1.709a2.49,2.49,0,0,0-.776-1.685,2.415,2.415,0,0,0-1.724-.659,2.529,2.529,0,0,0-2.134.991,4.655,4.655,0,0,0-.757,2.866v.342a4.562,4.562,0,0,0,.752,2.813A2.541,2.541,0,0,0-14.077-1.279ZM-5.4-13.125v2.559h1.973v1.4H-5.4v6.561a1.467,1.467,0,0,0,.264.953,1.11,1.11,0,0,0,.9.318,4.374,4.374,0,0,0,.859-.117V0A5.268,5.268,0,0,1-4.761.2,2.25,2.25,0,0,1-6.587-.537,3.147,3.147,0,0,1-7.2-2.617V-9.17H-9.126v-1.4H-7.2v-2.559ZM5.21,0a3.8,3.8,0,0,1-.254-1.113A4.031,4.031,0,0,1,1.948.2,3.73,3.73,0,0,1-.615-.688a2.859,2.859,0,0,1-1-2.241A2.987,2.987,0,0,1-.361-5.493a5.916,5.916,0,0,1,3.53-.913H4.927v-.83A2.029,2.029,0,0,0,4.36-8.745a2.276,2.276,0,0,0-1.67-.562,2.634,2.634,0,0,0-1.621.488A1.439,1.439,0,0,0,.415-7.637H-1.4A2.493,2.493,0,0,1-.84-9.165,3.832,3.832,0,0,1,.684-10.332a5.125,5.125,0,0,1,2.114-.43,4.177,4.177,0,0,1,2.861.913A3.294,3.294,0,0,1,6.733-7.334v4.863A5.946,5.946,0,0,0,7.1-.156V0Zm-3-1.377a3.175,3.175,0,0,0,1.611-.439,2.658,2.658,0,0,0,1.1-1.143V-5.127H3.511Q.19-5.127.19-3.184A1.645,1.645,0,0,0,.757-1.855,2.177,2.177,0,0,0,2.212-1.377ZM14.673-8.945a5.414,5.414,0,0,0-.889-.068A2.381,2.381,0,0,0,11.372-7.5V0H9.565V-10.566h1.758l.029,1.221a2.813,2.813,0,0,1,2.52-1.416,1.846,1.846,0,0,1,.8.137ZM22.173,0V-9.17H20.5v-1.4h1.67V-11.65a3.6,3.6,0,0,1,.908-2.627,3.431,3.431,0,0,1,2.568-.928,4.77,4.77,0,0,1,1.24.165l-.1,1.456a5.189,5.189,0,0,0-.977-.088,1.763,1.763,0,0,0-1.357.514,2.086,2.086,0,0,0-.479,1.474v1.117h2.256v1.4H23.979V0ZM34.751-1.045A3.837,3.837,0,0,1,31.655.2a3.285,3.285,0,0,1-2.573-.981,4.248,4.248,0,0,1-.894-2.905v-6.875H30V-3.74q0,2.4,1.953,2.4A2.7,2.7,0,0,0,34.7-2.881v-7.686h1.807V0H34.79ZM43.638.2a4.617,4.617,0,0,1-3.5-1.411A5.237,5.237,0,0,1,38.794-4.99v-.332a6.341,6.341,0,0,1,.6-2.808,4.685,4.685,0,0,1,1.68-1.934,4.223,4.223,0,0,1,2.339-.7,3.957,3.957,0,0,1,3.2,1.357,5.877,5.877,0,0,1,1.143,3.887v.752H40.6a3.756,3.756,0,0,0,.913,2.524,2.87,2.87,0,0,0,2.222.962,3.147,3.147,0,0,0,1.621-.391,4.073,4.073,0,0,0,1.162-1.035l1.1.859A4.437,4.437,0,0,1,43.638.2Zm-.225-9.473a2.41,2.41,0,0,0-1.836.8,3.868,3.868,0,0,0-.918,2.231h5.293v-.137a3.441,3.441,0,0,0-.742-2.134A2.269,2.269,0,0,0,43.413-9.277Zm11.543.332a5.414,5.414,0,0,0-.889-.068A2.381,2.381,0,0,0,51.655-7.5V0H49.849V-10.566h1.758l.029,1.221a2.813,2.813,0,0,1,2.52-1.416,1.846,1.846,0,0,1,.8.137ZM62.749,0A3.8,3.8,0,0,1,62.5-1.113,4.031,4.031,0,0,1,59.487.2a3.73,3.73,0,0,1-2.563-.884,2.859,2.859,0,0,1-1-2.241,2.987,2.987,0,0,1,1.255-2.563,5.916,5.916,0,0,1,3.53-.913h1.758v-.83A2.029,2.029,0,0,0,61.9-8.745a2.276,2.276,0,0,0-1.67-.562,2.634,2.634,0,0,0-1.621.488,1.439,1.439,0,0,0-.654,1.182H56.138A2.493,2.493,0,0,1,56.7-9.165a3.832,3.832,0,0,1,1.523-1.167,5.125,5.125,0,0,1,2.114-.43,4.177,4.177,0,0,1,2.861.913,3.294,3.294,0,0,1,1.074,2.515v4.863a5.946,5.946,0,0,0,.371,2.314V0Zm-3-1.377a3.175,3.175,0,0,0,1.611-.439,2.658,2.658,0,0,0,1.1-1.143V-5.127H61.05q-3.32,0-3.32,1.943A1.645,1.645,0,0,0,58.3-1.855,2.177,2.177,0,0,0,59.751-1.377ZM-52.871,21.629a6.19,6.19,0,0,1,1.152-3.911A3.644,3.644,0,0,1-48.7,16.238a3.665,3.665,0,0,1,2.939,1.27V12h1.807V27h-1.66l-.088-1.133A3.679,3.679,0,0,1-48.721,27.2a3.609,3.609,0,0,1-2.993-1.5,6.26,6.26,0,0,1-1.157-3.926Zm1.807.205a4.687,4.687,0,0,0,.742,2.813,2.4,2.4,0,0,0,2.051,1.016,2.636,2.636,0,0,0,2.51-1.543V19.266a2.656,2.656,0,0,0-2.49-1.494,2.411,2.411,0,0,0-2.07,1.025A5.16,5.16,0,0,0-51.064,21.834Zm14.3,5.361a4.617,4.617,0,0,1-3.5-1.411,5.237,5.237,0,0,1-1.348-3.774v-.332a6.341,6.341,0,0,1,.6-2.808,4.685,4.685,0,0,1,1.68-1.934,4.223,4.223,0,0,1,2.339-.7,3.957,3.957,0,0,1,3.2,1.357,5.877,5.877,0,0,1,1.143,3.887v.752H-39.8a3.756,3.756,0,0,0,.913,2.524,2.87,2.87,0,0,0,2.222.962,3.147,3.147,0,0,0,1.621-.391,4.073,4.073,0,0,0,1.162-1.035l1.1.859A4.437,4.437,0,0,1-36.768,27.2Zm-.225-9.473a2.41,2.41,0,0,0-1.836.8,3.868,3.868,0,0,0-.918,2.231h5.293v-.137a3.441,3.441,0,0,0-.742-2.134A2.269,2.269,0,0,0-36.992,17.723ZM-23.643,27h-1.807V12h1.807Zm9.414,0a3.8,3.8,0,0,1-.254-1.113A4.031,4.031,0,0,1-17.49,27.2a3.73,3.73,0,0,1-2.563-.884,2.859,2.859,0,0,1-1-2.241A2.987,2.987,0,0,1-19.8,21.507a5.916,5.916,0,0,1,3.53-.913h1.758v-.83a2.029,2.029,0,0,0-.566-1.509,2.276,2.276,0,0,0-1.67-.562,2.634,2.634,0,0,0-1.621.488,1.439,1.439,0,0,0-.654,1.182H-20.84a2.493,2.493,0,0,1,.562-1.528,3.832,3.832,0,0,1,1.523-1.167,5.125,5.125,0,0,1,2.114-.43,4.177,4.177,0,0,1,2.861.913,3.294,3.294,0,0,1,1.074,2.515v4.863a5.946,5.946,0,0,0,.371,2.314V27Zm-3-1.377a3.175,3.175,0,0,0,1.611-.439,2.658,2.658,0,0,0,1.1-1.143V21.873h-1.416q-3.32,0-3.32,1.943a1.645,1.645,0,0,0,.566,1.328A2.177,2.177,0,0,0-17.227,25.623ZM4,21.834a6.327,6.327,0,0,1-1.1,3.887A3.537,3.537,0,0,1-.088,27.2a3.875,3.875,0,0,1-3.027-1.221v5.088H-4.922V16.434h1.65l.088,1.172A3.722,3.722,0,0,1-.117,16.238,3.6,3.6,0,0,1,2.9,17.674,6.4,6.4,0,0,1,4,21.668ZM2.2,21.629a4.669,4.669,0,0,0-.762-2.822,2.454,2.454,0,0,0-2.09-1.035,2.656,2.656,0,0,0-2.461,1.455v5.049a2.661,2.661,0,0,0,2.48,1.445,2.442,2.442,0,0,0,2.065-1.03A5.1,5.1,0,0,0,2.2,21.629ZM12.822,27a3.8,3.8,0,0,1-.254-1.113A4.031,4.031,0,0,1,9.561,27.2,3.73,3.73,0,0,1,7,26.312,2.859,2.859,0,0,1,6,24.07a2.987,2.987,0,0,1,1.255-2.563,5.916,5.916,0,0,1,3.53-.913h1.758v-.83a2.029,2.029,0,0,0-.566-1.509,2.276,2.276,0,0,0-1.67-.562,2.634,2.634,0,0,0-1.621.488,1.439,1.439,0,0,0-.654,1.182H6.211a2.493,2.493,0,0,1,.562-1.528A3.832,3.832,0,0,1,8.3,16.668a5.125,5.125,0,0,1,2.114-.43,4.177,4.177,0,0,1,2.861.913,3.294,3.294,0,0,1,1.074,2.515v4.863a5.946,5.946,0,0,0,.371,2.314V27Zm-3-1.377a3.175,3.175,0,0,0,1.611-.439,2.658,2.658,0,0,0,1.1-1.143V21.873H11.123q-3.32,0-3.32,1.943a1.645,1.645,0,0,0,.566,1.328A2.177,2.177,0,0,0,9.824,25.623ZM11.494,12h2.188l-2.617,2.871-1.455,0Zm5.254,9.629A6.21,6.21,0,0,1,17.891,17.7a3.654,3.654,0,0,1,3.027-1.46,3.635,3.635,0,0,1,3.018,1.367l.088-1.172h1.65V26.746a4.3,4.3,0,0,1-1.216,3.232,4.487,4.487,0,0,1-3.267,1.182,5.435,5.435,0,0,1-2.236-.488,3.85,3.85,0,0,1-1.67-1.338l.938-1.084a3.533,3.533,0,0,0,2.842,1.436,2.768,2.768,0,0,0,2.056-.742,2.837,2.837,0,0,0,.737-2.09v-.908A3.713,3.713,0,0,1,20.9,27.2a3.609,3.609,0,0,1-3-1.494A6.529,6.529,0,0,1,16.748,21.629Zm1.816.205a4.738,4.738,0,0,0,.732,2.808,2.38,2.38,0,0,0,2.051,1.021,2.646,2.646,0,0,0,2.51-1.553V19.285a2.677,2.677,0,0,0-2.49-1.514A2.4,2.4,0,0,0,19.307,18.8,5.16,5.16,0,0,0,18.564,21.834ZM30.361,27H28.555V16.434h1.807ZM28.408,13.631a1.078,1.078,0,0,1,.269-.742,1.008,1.008,0,0,1,.8-.3,1.024,1.024,0,0,1,.8.3,1.067,1.067,0,0,1,.273.742,1.032,1.032,0,0,1-.273.732,1.043,1.043,0,0,1-.8.293,1.026,1.026,0,0,1-.8-.293A1.043,1.043,0,0,1,28.408,13.631Zm6.553,2.8.059,1.328a3.851,3.851,0,0,1,3.164-1.523q3.35,0,3.379,3.779V27H39.756V20.008a2.432,2.432,0,0,0-.522-1.689,2.094,2.094,0,0,0-1.6-.547,2.607,2.607,0,0,0-1.543.469,3.183,3.183,0,0,0-1.035,1.23V27H33.252V16.434ZM50.811,27a3.8,3.8,0,0,1-.254-1.113A4.031,4.031,0,0,1,47.549,27.2a3.73,3.73,0,0,1-2.563-.884,2.859,2.859,0,0,1-1-2.241,2.987,2.987,0,0,1,1.255-2.563,5.916,5.916,0,0,1,3.53-.913h1.758v-.83a2.029,2.029,0,0,0-.566-1.509,2.276,2.276,0,0,0-1.67-.562,2.634,2.634,0,0,0-1.621.488,1.439,1.439,0,0,0-.654,1.182H44.2a2.493,2.493,0,0,1,.562-1.528,3.832,3.832,0,0,1,1.523-1.167,5.125,5.125,0,0,1,2.114-.43,4.177,4.177,0,0,1,2.861.913,3.294,3.294,0,0,1,1.074,2.515v4.863a5.946,5.946,0,0,0,.371,2.314V27Zm-3-1.377a3.175,3.175,0,0,0,1.611-.439,2.658,2.658,0,0,0,1.1-1.143V21.873H49.111q-3.32,0-3.32,1.943a1.645,1.645,0,0,0,.566,1.328A2.177,2.177,0,0,0,47.813,25.623Z" transform="translate(-301 -2007)" fill="#12263f" stroke="#11253d" stroke-width="1"/>
    <path id="Trazado_247194" data-name="Trazado 247194" d="M-28.408-4.512A5.231,5.231,0,0,1-30.073-1.03,5.457,5.457,0,0,1-33.8.2a5.01,5.01,0,0,1-4.038-1.807,7.268,7.268,0,0,1-1.519-4.834V-7.812a8.1,8.1,0,0,1,.708-3.486,5.288,5.288,0,0,1,2.007-2.31,5.588,5.588,0,0,1,3.008-.806A5.138,5.138,0,0,1-30-13.149a5.294,5.294,0,0,1,1.592,3.5h-1.885a4.085,4.085,0,0,0-1.06-2.468,3.206,3.206,0,0,0-2.28-.764,3.355,3.355,0,0,0-2.817,1.329,6.1,6.1,0,0,0-1.021,3.782v1.378A6.273,6.273,0,0,0-36.5-2.706,3.124,3.124,0,0,0-33.8-1.338a3.608,3.608,0,0,0,2.4-.708,3.929,3.929,0,0,0,1.108-2.466Zm1.8-.869A6.241,6.241,0,0,1-26-8.174a4.553,4.553,0,0,1,1.7-1.914,4.626,4.626,0,0,1,2.485-.674,4.456,4.456,0,0,1,3.491,1.494,5.748,5.748,0,0,1,1.333,3.975v.127A6.3,6.3,0,0,1-17.583-2.4,4.486,4.486,0,0,1-19.272-.488,4.679,4.679,0,0,1-21.8.2,4.445,4.445,0,0,1-25.278-1.3a5.719,5.719,0,0,1-1.333-3.955Zm1.816.215a4.52,4.52,0,0,0,.815,2.822A2.61,2.61,0,0,0-21.8-1.279a2.594,2.594,0,0,0,2.188-1.079A4.943,4.943,0,0,0-18.8-5.381,4.513,4.513,0,0,0-19.624-8.2a2.623,2.623,0,0,0-2.192-1.079,2.594,2.594,0,0,0-2.158,1.064A4.906,4.906,0,0,0-24.795-5.166Zm11.777-5.4.059,1.328a3.85,3.85,0,0,1,3.164-1.523q3.35,0,3.379,3.779V0H-8.223V-6.992a2.432,2.432,0,0,0-.522-1.689,2.094,2.094,0,0,0-1.6-.547,2.607,2.607,0,0,0-1.543.469,3.183,3.183,0,0,0-1.035,1.23V0h-1.807V-10.566ZM.693.2A4.617,4.617,0,0,1-2.8-1.216,5.237,5.237,0,0,1-4.15-4.99v-.332a6.341,6.341,0,0,1,.6-2.808,4.685,4.685,0,0,1,1.68-1.934,4.223,4.223,0,0,1,2.339-.7A3.957,3.957,0,0,1,3.672-9.4,5.877,5.877,0,0,1,4.814-5.518v.752H-2.344a3.756,3.756,0,0,0,.913,2.524,2.87,2.87,0,0,0,2.222.962A3.147,3.147,0,0,0,2.412-1.67,4.073,4.073,0,0,0,3.574-2.705l1.1.859A4.437,4.437,0,0,1,.693.2ZM.469-9.277a2.41,2.41,0,0,0-1.836.8A3.868,3.868,0,0,0-2.285-6.25H3.008v-.137a3.441,3.441,0,0,0-.742-2.134A2.269,2.269,0,0,0,.469-9.277Zm10.674,8a2.6,2.6,0,0,0,1.689-.586,2.061,2.061,0,0,0,.8-1.465h1.709A3.276,3.276,0,0,1,14.717-1.6,4.116,4.116,0,0,1,13.179-.293,4.438,4.438,0,0,1,11.143.2,4.353,4.353,0,0,1,7.71-1.245a5.737,5.737,0,0,1-1.274-3.94v-.3A6.361,6.361,0,0,1,7-8.232,4.314,4.314,0,0,1,8.628-10.1a4.619,4.619,0,0,1,2.5-.664A4.238,4.238,0,0,1,14.087-9.7a3.8,3.8,0,0,1,1.255,2.764H13.633a2.49,2.49,0,0,0-.776-1.685,2.415,2.415,0,0,0-1.724-.659A2.529,2.529,0,0,0,9-8.286,4.655,4.655,0,0,0,8.242-5.42v.342a4.562,4.562,0,0,0,.752,2.813A2.541,2.541,0,0,0,11.143-1.279Zm8.682-11.846v2.559H21.8v1.4H19.824v6.561a1.467,1.467,0,0,0,.264.953,1.11,1.11,0,0,0,.9.318,4.374,4.374,0,0,0,.859-.117V0A5.268,5.268,0,0,1,20.459.2a2.25,2.25,0,0,1-1.826-.732,3.147,3.147,0,0,1-.615-2.08V-9.17H16.094v-1.4h1.924v-2.559Zm3.408,7.744a6.241,6.241,0,0,1,.61-2.793,4.553,4.553,0,0,1,1.7-1.914,4.626,4.626,0,0,1,2.485-.674,4.456,4.456,0,0,1,3.491,1.494,5.748,5.748,0,0,1,1.333,3.975v.127A6.3,6.3,0,0,1,32.261-2.4,4.486,4.486,0,0,1,30.571-.488,4.679,4.679,0,0,1,28.047.2,4.445,4.445,0,0,1,24.565-1.3a5.719,5.719,0,0,1-1.333-3.955Zm1.816.215a4.52,4.52,0,0,0,.815,2.822,2.61,2.61,0,0,0,2.183,1.064,2.594,2.594,0,0,0,2.188-1.079,4.943,4.943,0,0,0,.811-3.022A4.513,4.513,0,0,0,30.22-8.2a2.623,2.623,0,0,0-2.192-1.079,2.594,2.594,0,0,0-2.158,1.064A4.906,4.906,0,0,0,25.049-5.166ZM40.225-8.945a5.414,5.414,0,0,0-.889-.068A2.381,2.381,0,0,0,36.924-7.5V0H35.117V-10.566h1.758L36.9-9.346a2.813,2.813,0,0,1,2.52-1.416,1.846,1.846,0,0,1,.8.137Z" transform="translate(4 -1981)" fill="#12263f" stroke="#11253d" stroke-width="1"/>
    <path id="Trazado_247192" data-name="Trazado 247192" d="M-40.64-11.572h-4.268V0h-3.428V-11.572h-4.189v-2.646H-40.64ZM-34.233.2a5.432,5.432,0,0,1-3.936-1.45,5.008,5.008,0,0,1-1.5-3.774V-5.3a6.489,6.489,0,0,1,.6-2.861,4.395,4.395,0,0,1,1.753-1.919,5.292,5.292,0,0,1,2.734-.679A4.574,4.574,0,0,1-31.069-9.38,5.43,5.43,0,0,1-29.78-5.527v1.279h-6.543a2.372,2.372,0,0,0,.771,1.4,2.3,2.3,0,0,0,1.543.508,2.958,2.958,0,0,0,2.441-1.094l1.5,1.777A4.2,4.2,0,0,1-31.807-.308,5.891,5.891,0,0,1-34.233.2ZM-34.6-8.223q-1.445,0-1.719,1.914H-33v-.254a1.63,1.63,0,0,0-.4-1.226A1.593,1.593,0,0,0-34.6-8.223Zm12.539.635-1.084-.078a1.947,1.947,0,0,0-1.992.977V0h-3.291V-10.566h3.086l.107,1.357a2.548,2.548,0,0,1,2.314-1.553,3.209,3.209,0,0,1,.918.117Zm4.3-2.979.107,1.24a3.633,3.633,0,0,1,3.018-1.436A2.675,2.675,0,0,1-11.938-9.17a3.517,3.517,0,0,1,3.105-1.592q3.213,0,3.3,3.887V0h-3.3V-6.67a2.014,2.014,0,0,0-.273-1.182,1.164,1.164,0,0,0-1-.371,1.559,1.559,0,0,0-1.455.869l.01.137V0h-3.3V-6.65a2.117,2.117,0,0,0-.264-1.2,1.161,1.161,0,0,0-1.006-.371,1.578,1.578,0,0,0-1.445.869V0h-3.291V-10.566ZM-.181,0h-3.3V-10.566h3.3Zm-3.5-13.291a1.469,1.469,0,0,1,.508-1.152,1.916,1.916,0,0,1,1.318-.449,1.916,1.916,0,0,1,1.318.449,1.469,1.469,0,0,1,.508,1.152,1.469,1.469,0,0,1-.508,1.152,1.916,1.916,0,0,1-1.318.449,1.916,1.916,0,0,1-1.318-.449A1.469,1.469,0,0,1-3.677-13.291Zm8.545,2.725.107,1.24a3.583,3.583,0,0,1,3.018-1.436,3.015,3.015,0,0,1,2.466.986A4.7,4.7,0,0,1,11.3-6.807V0H8V-6.67a1.783,1.783,0,0,0-.322-1.177,1.491,1.491,0,0,0-1.172-.376,1.569,1.569,0,0,0-1.436.762V0H1.782V-10.566ZM19.077,0a3.716,3.716,0,0,1-.312-.947A3.06,3.06,0,0,1,16.226.2a3.749,3.749,0,0,1-2.539-.9,2.875,2.875,0,0,1-1.045-2.271,2.955,2.955,0,0,1,1.27-2.6A6.468,6.468,0,0,1,17.6-6.455h1.016v-.559q0-1.462-1.26-1.462a1.03,1.03,0,0,0-1.172,1.158H12.9a2.95,2.95,0,0,1,1.3-2.487,5.479,5.479,0,0,1,3.325-.956,4.8,4.8,0,0,1,3.193.986,3.429,3.429,0,0,1,1.2,2.705v4.678a4.79,4.79,0,0,0,.449,2.227V0ZM17.017-2.148a1.836,1.836,0,0,0,1.021-.264,1.653,1.653,0,0,0,.581-.6V-4.7h-.957q-1.719,0-1.719,1.543a.942.942,0,0,0,.3.728A1.1,1.1,0,0,0,17.017-2.148Zm6.309-3.213a6.455,6.455,0,0,1,1.084-3.955,3.568,3.568,0,0,1,3.027-1.445,3.035,3.035,0,0,1,2.383,1.113V-15h3.3V0H30.161L30-1.133A3.116,3.116,0,0,1,27.417.2,3.562,3.562,0,0,1,24.429-1.25,6.659,6.659,0,0,1,23.325-5.361Zm3.291.205q0,2.813,1.641,2.813a1.62,1.62,0,0,0,1.563-.918V-7.285a1.576,1.576,0,0,0-1.543-.937q-1.523,0-1.65,2.461Zm7.959-.225A6.236,6.236,0,0,1,35.19-8.2a4.4,4.4,0,0,1,1.768-1.9,5.323,5.323,0,0,1,2.705-.664,4.858,4.858,0,0,1,3.74,1.47,5.64,5.64,0,0,1,1.367,4v.117A5.472,5.472,0,0,1,43.4-1.255,4.871,4.871,0,0,1,39.683.2,4.927,4.927,0,0,1,36.06-1.157a5.29,5.29,0,0,1-1.475-3.667Zm3.291.205a3.932,3.932,0,0,0,.459,2.148,1.529,1.529,0,0,0,1.357.684q1.758,0,1.8-2.705v-.332q0-2.842-1.816-2.842-1.65,0-1.787,2.451ZM52.612-7.588l-1.084-.078a1.947,1.947,0,0,0-1.992.977V0H46.245V-10.566h3.086l.107,1.357a2.548,2.548,0,0,1,2.314-1.553,3.209,3.209,0,0,1,.918.117Z" transform="translate(243 -2001)" fill="#12263f" stroke="#afafaf" stroke-width="1"/>
  </g>
</svg>
