<svg xmlns="http://www.w3.org/2000/svg" xmlns:xlink="http://www.w3.org/1999/xlink" width="1077.141" height="406.5" viewBox="0 0 1077.141 406.5">
  <defs>
    <clipPath id="clip-path">
      <rect id="Rectángulo_52992" data-name="Rectángulo 52992" width="411.991" height="377.327" transform="translate(4 2)" fill="none"/>
    </clipPath>
    <clipPath id="clip-path-2">
      <rect id="Rectángulo_52987" data-name="Rectángulo 52987" width="411.991" height="381.327" fill="none"/>
    </clipPath>
    <clipPath id="clip-path-3">
      <rect id="Rectángulo_52985" data-name="Rectángulo 52985" width="57.762" height="104.43" fill="none"/>
    </clipPath>
    <clipPath id="clip-path-4">
      <rect id="Rectángulo_52986" data-name="Rectángulo 52986" width="52.843" height="27.053" fill="none"/>
    </clipPath>
  </defs>
  <g id="Grupo_593159" data-name="Grupo 593159" transform="translate(696.141 1551)">
    <path id="Trazado_226791" data-name="Trazado 226791" d="M28.623,0H1048.517c15.808,0,28.623,8.507,28.623,19V383c0,10.493-12.815,19-28.623,19H28.623C12.815,402,0,393.493,0,383V19C0,8.507,12.815,0,28.623,0Z" transform="translate(-696.141 -1551)" fill="#7cbbbb"/>
    <g id="Grupo_591340" data-name="Grupo 591340" transform="translate(-369.25 -1523.827)">
      <g id="Grupo_591339" data-name="Grupo 591339" clip-path="url(#clip-path)">
        <g id="Grupo_591336" data-name="Grupo 591336">
          <g id="Grupo_591335" data-name="Grupo 591335" clip-path="url(#clip-path-2)">
            <path id="Trazado_243368" data-name="Trazado 243368" d="M128.594,323.388c-1.209-5.333-2.5-10.884-3.647-16.53-1.417,1.326-2.874,2.621-4.219,4.01-10.146,10.474-8.828,57.311-8.828,57.311s.844-.471,2.252-1.288c4.99-12.155,10.242-24.594,16.147-36.564q-.919-3.468-1.7-6.94" transform="translate(-11.714 -16.9)" fill="#005c52"/>
            <path id="Trazado_243369" data-name="Trazado 243369" d="M133.228,298.055c1.17,6.856,2.373,13.709,3.9,20.487,6.535-12.193,13.883-23.677,22.512-33.576q-1.107-5.735-2.029-11.514c-.915-5.748-2.149-11.757-3.079-17.817-8.238,4.154-15.083,11.144-17.4,20.323-1.748,6.916-.92,14.653-4.107,20.918.068.392.136.786.2,1.178" transform="translate(-13.933 -14.079)" fill="#005c52"/>
            <path id="Trazado_243370" data-name="Trazado 243370" d="M168.718,251.682a40.27,40.27,0,0,0-4.052.988c.114.724.228,1.45.338,2.182,1.089,7.225,1.9,14.477,3.147,21.678.126.725.264,1.448.394,2.171a93.843,93.843,0,0,1,29.85-20.57,13.439,13.439,0,0,1,8.29-3.3c-12.509-2.736-25.384-5.483-37.967-3.147" transform="translate(-17.247 -13.813)" fill="#005c52"/>
            <path id="Trazado_243371" data-name="Trazado 243371" d="M181.855,305.463c2.832-4.565,4.112-10.261,4.783-15.762.877-7.2.994-14.621,3.472-21.388a23.075,23.075,0,0,1,6.689-9.754c-19.968,8.467-35.091,23.861-47.384,42.358a115.24,115.24,0,0,1,32.441,4.546" transform="translate(-15.649 -14.24)" fill="#00796c"/>
            <path id="Trazado_243372" data-name="Trazado 243372" d="M122.223,350.833c-2.7,6.168-5.289,12.359-7.8,18.48,4.842-2.807,16.5-9.792,24.669-16.5a110.546,110.546,0,0,0-16.867-1.979" transform="translate(-11.984 -19.322)" fill="#00796c"/>
            <path id="Trazado_243373" data-name="Trazado 243373" d="M146.427,344.828a15.878,15.878,0,0,0,1.875-2.664c3.467-6.482,5.548-14.085,10.839-19.007,4.337-4.035,10.264-5.7,15-9.123a112.308,112.308,0,0,0-31.588-3.2,299.105,299.105,0,0,0-16.026,30.981,124.3,124.3,0,0,1,19.9,3.011" transform="translate(-13.252 -17.114)" fill="#00796c"/>
            <path id="Trazado_243374" data-name="Trazado 243374" d="M151.053,288.3A231.687,231.687,0,0,0,103.1,391.207h4.246a228.2,228.2,0,0,1,47.164-100.6c1.7-2.08-1.778-4.367-3.458-2.313" transform="translate(-10.798 -15.834)" fill="#002b2b"/>
            <path id="Trazado_243375" data-name="Trazado 243375" d="M39.734,297.826a32.639,32.639,0,0,0-9.463-3.776c-9.943-2.228-20.253-.422-30.271,1.386a10.736,10.736,0,0,1,6.5,2.871c12.617,5.9,22.609,15.288,30.877,26.6a209.641,209.641,0,0,0,2.353-27.078" transform="translate(0 -16.138)" fill="#00796c"/>
            <path id="Trazado_243376" data-name="Trazado 243376" d="M67.554,340.483c-2.582-2.858-5.738-5.259-7.515-8.735-2.637-5.157-1.676-11.485-2.919-17.2a23.332,23.332,0,0,0-5.942-11,217.974,217.974,0,0,1-3.422,29.916C57.542,349.2,64.747,367.585,71.3,385.222c1.1.691,1.757,1.09,1.757,1.09s2.284-37.2-5.508-45.829" transform="translate(-5.002 -16.718)" fill="#00796c"/>
            <path id="Trazado_243377" data-name="Trazado 243377" d="M14.523,323.674c.509,5.747,1.828,11.8,5.737,15.834,3.032,3.133,7.227,4.668,10.778,7.095,6.579.085,13.17-.129,19.764-.392-10.338-20.443-23.7-38.323-43.536-47.6a18.447,18.447,0,0,1,5.06,7.952c1.792,5.454,1.688,11.361,2.2,17.109" transform="translate(-0.761 -16.446)" fill="#005c52"/>
            <path id="Trazado_243378" data-name="Trazado 243378" d="M40.59,356.731c1.777,3.361,3,7.159,4.69,10.6,3.218,6.539,19.81,17.353,25.274,20.79-3.945-10.612-8.124-21.5-12.958-31.914-5.671.235-11.342.456-17.006.523" transform="translate(-4.251 -19.618)" fill="#005c52"/>
            <path id="Trazado_243379" data-name="Trazado 243379" d="M72.439,392.838h3.426A179.919,179.919,0,0,0,35.5,317.681c-1.4-1.554-4.093.34-2.678,1.913a177.238,177.238,0,0,1,39.618,73.244" transform="translate(-3.396 -17.464)" fill="#002b2b"/>
            <path id="Trazado_243380" data-name="Trazado 243380" d="M99.307,239.837a169.33,169.33,0,0,1,11.818-30.2A171.07,171.07,0,0,1,102,180.553c-.713.383-1.423.772-2.124,1.185A49.833,49.833,0,0,0,81.262,201.05a193.889,193.889,0,0,0,18.045,38.786" transform="translate(-8.511 -9.944)" fill="#005c52"/>
            <path id="Trazado_243381" data-name="Trazado 243381" d="M79.335,248.426a34.756,34.756,0,0,1-3.862,9.829,174.116,174.116,0,0,0,15.173,21.761c1.454-10.04,3.286-19.962,5.677-29.6a213.5,213.5,0,0,1-19.261-37.875,34.037,34.037,0,0,0-.776,9.817c.62,8.786,4.663,17.422,3.049,26.066" transform="translate(-7.905 -11.706)" fill="#005c52"/>
            <path id="Trazado_243382" data-name="Trazado 243382" d="M71.314,268.392c-6.615,16.9,11.715,67.579,11.715,67.579s.778-.883,2.064-2.39c.954-13.634,2.056-27.586,3.758-41.417a184.525,184.525,0,0,1-17.537-23.772" transform="translate(-7.318 -14.781)" fill="#005c52"/>
            <path id="Trazado_243383" data-name="Trazado 243383" d="M111.191,177.043a160.79,160.79,0,0,0,7.21,24.5,113.772,113.772,0,0,1,20.533-25.483,16.817,16.817,0,0,1,8.133-7.174c-12.145,1.687-24.555,3.471-35.875,8.161" transform="translate(-11.646 -9.301)" fill="#005c52"/>
            <path id="Trazado_243384" data-name="Trazado 243384" d="M139.013,218.96q-.251-1.559-.557-3.091c-1.691-8.493-4.328-16.927-4.052-25.6a28.728,28.728,0,0,1,3.919-13.794c-15.51,14.277-25.861,32.275-32.967,52.2a180.812,180.812,0,0,1,33.657-9.717" transform="translate(-11.035 -9.719)" fill="#00796c"/>
            <path id="Trazado_243385" data-name="Trazado 243385" d="M122.121,260.935c4.154-5.893,10.329-10.264,13.657-16.76,2.421-4.724,3.091-10.088,2.852-15.5a163.881,163.881,0,0,0-36.1,11.03,3.4,3.4,0,0,1-1.073.275,250.611,250.611,0,0,0-6.681,27.978c9.063-2.583,18.167-5.024,27.341-7.02" transform="translate(-9.927 -12.594)" fill="#00796c"/>
            <path id="Trazado_243386" data-name="Trazado 243386" d="M92.665,277.879c-2.948,18.479-4.5,37.458-5.791,55.859,6.4-7.5,25.674-30.815,27.54-41.716,1.178-6.887,1.141-14.2,3.078-20.779-8.321,1.965-16.587,4.257-24.827,6.635" transform="translate(-9.099 -14.939)" fill="#00796c"/>
            <path id="Trazado_243387" data-name="Trazado 243387" d="M92.533,387.213A283.932,283.932,0,0,1,111.47,218.165c1.326-2.988-3.4-4.582-4.706-1.631a288.422,288.422,0,0,0-19.3,170.679Z" transform="translate(-8.62 -11.839)" fill="#002b2b"/>
            <path id="Trazado_243388" data-name="Trazado 243388" d="M375.224,11.679V364.826c0,6.454-4.96,11.679-11.074,11.679H143.378c-6.115,0-11.074-5.225-11.074-11.679V11.679C132.3,5.225,137.264,0,143.378,0H364.15c6.115,0,11.074,5.225,11.074,11.679" transform="translate(-13.857)"/>
            <path id="Trazado_243389" data-name="Trazado 243389" d="M354.8,359.269H155.495A10.283,10.283,0,0,1,145.5,348.72V29.92a10.283,10.283,0,0,1,9.995-10.549H354.8A10.283,10.283,0,0,1,364.8,29.92v318.8a10.283,10.283,0,0,1-9.995,10.549" transform="translate(-15.239 -1.067)" fill="#dbe2ef"/>
            <path id="Trazado_243390" data-name="Trazado 243390" d="M179.246,236.2H169.3a4.082,4.082,0,0,1-3.967-4.187v-10.5a4.082,4.082,0,0,1,3.967-4.187h9.947a4.082,4.082,0,0,1,3.967,4.187v10.5a4.082,4.082,0,0,1-3.967,4.187" transform="translate(-17.317 -11.969)" fill="#fff"/>
            <path id="Trazado_243391" data-name="Trazado 243391" d="M355.534,224.871H212.04a2.451,2.451,0,0,1,0-4.895H355.534a2.451,2.451,0,0,1,0,4.895" transform="translate(-21.966 -12.115)" fill="#fff"/>
            <path id="Trazado_243392" data-name="Trazado 243392" d="M282.6,234.36H212.04a2.451,2.451,0,0,1,0-4.895H282.6a2.451,2.451,0,0,1,0,4.895" transform="translate(-21.966 -12.638)" fill="#fff"/>
            <path id="Trazado_243393" data-name="Trazado 243393" d="M179.246,292.157H169.3a4.082,4.082,0,0,1-3.967-4.187v-10.5a4.082,4.082,0,0,1,3.967-4.187h9.947a4.082,4.082,0,0,1,3.967,4.187v10.5a4.082,4.082,0,0,1-3.967,4.187" transform="translate(-17.317 -15.051)" fill="#fff"/>
            <path id="Trazado_243394" data-name="Trazado 243394" d="M355.534,280.831H212.04a2.451,2.451,0,0,1,0-4.895H355.534a2.451,2.451,0,0,1,0,4.895" transform="translate(-21.966 -15.197)" fill="#fff"/>
            <path id="Trazado_243395" data-name="Trazado 243395" d="M282.6,290.32H212.04a2.451,2.451,0,0,1,0-4.895H282.6a2.451,2.451,0,0,1,0,4.895" transform="translate(-21.966 -15.72)" fill="#fff"/>
            <path id="Trazado_243396" data-name="Trazado 243396" d="M179.246,348.117H169.3a4.082,4.082,0,0,1-3.967-4.187v-10.5a4.082,4.082,0,0,1,3.967-4.187h9.947a4.082,4.082,0,0,1,3.967,4.187v10.5a4.082,4.082,0,0,1-3.967,4.187" transform="translate(-17.317 -18.133)" fill="#fff"/>
            <path id="Trazado_243397" data-name="Trazado 243397" d="M355.534,336.791H212.04a2.45,2.45,0,0,1,0-4.894H355.534a2.45,2.45,0,0,1,0,4.894" transform="translate(-21.966 -18.279)" fill="#fff"/>
            <path id="Trazado_243398" data-name="Trazado 243398" d="M282.6,346.28H212.04a2.451,2.451,0,0,1,0-4.895H282.6a2.451,2.451,0,0,1,0,4.895" transform="translate(-21.966 -18.802)" fill="#fff"/>
            <path id="Trazado_243399" data-name="Trazado 243399" d="M175.441,235.334l-6.841-7.221a2.455,2.455,0,0,1,0-3.34,2.157,2.157,0,0,1,3.166,0l3.674,3.879,15.534-16.4a2.156,2.156,0,0,1,3.165,0,2.456,2.456,0,0,1,0,3.34Z" transform="translate(-17.59 -11.652)" fill="#3f72af"/>
            <path id="Trazado_243400" data-name="Trazado 243400" d="M175.441,291.872,168.6,284.65a2.455,2.455,0,0,1,0-3.34,2.157,2.157,0,0,1,3.166,0l3.674,3.879,15.534-16.4a2.156,2.156,0,0,1,3.165,0,2.456,2.456,0,0,1,0,3.34Z" transform="translate(-17.59 -14.766)" fill="#3f72af"/>
            <path id="Trazado_243401" data-name="Trazado 243401" d="M175.441,347.832l-6.841-7.221a2.455,2.455,0,0,1,0-3.34,2.157,2.157,0,0,1,3.166,0l3.674,3.879,15.534-16.4a2.156,2.156,0,0,1,3.165,0,2.456,2.456,0,0,1,0,3.34Z" transform="translate(-17.59 -17.847)" fill="#3f72af"/>
            <path id="Trazado_243402" data-name="Trazado 243402" d="M350.885,168.008H167.652a2.451,2.451,0,0,1,0-4.895H350.885a2.451,2.451,0,0,1,0,4.895" transform="translate(-17.317 -8.983)" fill="#fff"/>
            <path id="Trazado_243403" data-name="Trazado 243403" d="M350.885,158.818H167.652a2.451,2.451,0,0,1,0-4.895H350.885a2.451,2.451,0,0,1,0,4.895" transform="translate(-17.317 -8.477)" fill="#fff"/>
            <path id="Trazado_243404" data-name="Trazado 243404" d="M350.885,149.628H167.652a2.451,2.451,0,0,1,0-4.895H350.885a2.451,2.451,0,0,1,0,4.895" transform="translate(-17.317 -7.971)" fill="#fff"/>
            <path id="Trazado_243405" data-name="Trazado 243405" d="M350.885,140.437H167.652a2.451,2.451,0,0,1,0-4.895H350.885a2.451,2.451,0,0,1,0,4.895" transform="translate(-17.317 -7.465)" fill="#fff"/>
            <path id="Trazado_243406" data-name="Trazado 243406" d="M350.885,131.247H167.652a2.451,2.451,0,0,1,0-4.895H350.885a2.451,2.451,0,0,1,0,4.895" transform="translate(-17.317 -6.959)" fill="#fff"/>
            <path id="Trazado_243407" data-name="Trazado 243407" d="M258.386,177.5H167.652a2.451,2.451,0,0,1,0-4.895h90.734a2.451,2.451,0,0,1,0,4.895" transform="translate(-17.317 -9.506)" fill="#fff"/>
            <path id="Trazado_243408" data-name="Trazado 243408" d="M350.885,89.493H167.652a2.451,2.451,0,0,1,0-4.895H350.885a2.451,2.451,0,0,1,0,4.895" transform="translate(-17.317 -4.659)" fill="#fff"/>
            <path id="Trazado_243409" data-name="Trazado 243409" d="M350.885,80.3H167.652a2.451,2.451,0,0,1,0-4.895H350.885a2.451,2.451,0,0,1,0,4.895" transform="translate(-17.317 -4.153)" fill="#fff"/>
            <path id="Trazado_243410" data-name="Trazado 243410" d="M350.885,71.112H167.652a2.451,2.451,0,0,1,0-4.895H350.885a2.451,2.451,0,0,1,0,4.895" transform="translate(-17.317 -3.647)" fill="#fff"/>
            <path id="Trazado_243411" data-name="Trazado 243411" d="M350.885,61.922H167.652a2.451,2.451,0,0,1,0-4.895H350.885a2.451,2.451,0,0,1,0,4.895" transform="translate(-17.317 -3.141)" fill="#fff"/>
            <path id="Trazado_243412" data-name="Trazado 243412" d="M350.885,52.732H167.652a2.451,2.451,0,0,1,0-4.895H350.885a2.451,2.451,0,0,1,0,4.895" transform="translate(-17.317 -2.635)" fill="#fff"/>
            <path id="Trazado_243413" data-name="Trazado 243413" d="M258.386,98.981H167.652a2.451,2.451,0,0,1,0-4.895h90.734a2.451,2.451,0,0,1,0,4.895" transform="translate(-17.317 -5.182)" fill="#fff"/>
            <path id="Trazado_243414" data-name="Trazado 243414" d="M278.761,169.677c-4.753,2-7.59,7.117-9.594,12.086a194.825,194.825,0,0,0-9.646,32.393S251.927,212,247.461,212.9a37.882,37.882,0,0,0-4.185,7.174c-.84,1.724-1.7,3.654-1.233,5.529a15.218,15.218,0,0,0,4.24,2.948,159.179,159.179,0,0,0,16.424,5.61c5.229-6.824,10.546-13.517,15.3-20.718Z" transform="translate(-25.337 -9.345)" fill="#3f72af"/>
            <path id="Trazado_243415" data-name="Trazado 243415" d="M213.69,202.711a20.185,20.185,0,0,1,6.641.168c1.351,2.362,3.6,5.508,5.2,7.707a67.133,67.133,0,0,0,19.657,4.981,9,9,0,0,1-.1,6.871,8.565,8.565,0,0,1-4.61,4.978c-4.645-2.685-12.186-9.547-16.831-12.23a5.214,5.214,0,0,1-4.47.816,6.13,6.13,0,0,1-3.284-2.3c-.047.018-.1.035-.141.055-.669.292-1.058,1.018-1.724,1.255a.693.693,0,0,1-.888-.453c-.242-1.144.729-2.117,1.62-2.615l.029-.014a4.643,4.643,0,0,0-2.325.784.935.935,0,0,1-1.205-1.394,4.8,4.8,0,0,1,3.476-1.806,8.724,8.724,0,0,1,1.746.029c.007-.043.013-.084.02-.127-1.838-.23-3.8-.877-5.089.728a.771.771,0,0,1-1.338-.662,3.632,3.632,0,0,1,3.329-2.85,16.07,16.07,0,0,1,2.976.087c.135.01.269.018.4.024.01-.228.02-.456.022-.682a7.9,7.9,0,0,0-2.754-.687,2.3,2.3,0,0,0-1.3.423,8.214,8.214,0,0,1-1.205.71,1.462,1.462,0,0,1-1.333-.042c-.392-.255-.836-1.025-.431-1.255,1.227-.694,2.526-2.362,3.911-2.495" transform="translate(-21.955 -11.154)" fill="#ffab91"/>
            <path id="Trazado_243416" data-name="Trazado 243416" d="M212.763,213.141l-.8,1.3a.615.615,0,0,1-.833.224.689.689,0,0,1-.283-.857l.581-1.424a.623.623,0,0,1,.885-.325l.221.126a.691.691,0,0,1,.232.958" transform="translate(-22.078 -11.675)" fill="#3f72af"/>
            <path id="Trazado_243536" data-name="Trazado 243536" d="M.019.065,15.4-.276l-.1,4.5L-.084,4.565Z" transform="translate(188.807 198.364) rotate(-61.762)" fill="#112d4e"/>
            <path id="Trazado_243417" data-name="Trazado 243417" d="M214.38,211.916l-1.725,2.3L210.517,213l.864-2.788Z" transform="translate(-22.049 -11.577)" fill="#112d4e"/>
            <path id="Trazado_243418" data-name="Trazado 243418" d="M216.978,203.866a.934.934,0,0,0-.928.2.973.973,0,0,0-.047.857,3.584,3.584,0,0,0,1.42,1.927,3.272,3.272,0,0,0,2.261.512,1.359,1.359,0,0,0,.742-2.277,4.4,4.4,0,0,0-1.5-.712,11.938,11.938,0,0,0-1.952-.507" transform="translate(-22.616 -11.226)" fill="#ffab91"/>
            <path id="Trazado_243419" data-name="Trazado 243419" d="M215.567,203.34a.5.5,0,0,1,.684-.313c.012,0,.021,0,.032,0a22.743,22.743,0,0,1,4.665,1.459c.76.328.133,1.5-.62,1.179a20.927,20.927,0,0,0-3.733-1.192c-.009,1.489,2.8,2.523,3.742,2.848a.649.649,0,0,1,.432.489.717.717,0,0,1,.014.58,3.216,3.216,0,0,0,.163,3.056,1.767,1.767,0,0,0,2.618.448c.671-.5,1.332.652.665,1.152a2.973,2.973,0,0,1-4.095-.524,4.364,4.364,0,0,1-.7-4.108c-2.073-.8-4.957-2.417-3.87-5.072" transform="translate(-22.553 -11.179)" fill="#ff8a65"/>
            <path id="Trazado_243420" data-name="Trazado 243420" d="M244.955,227.463a9.068,9.068,0,0,0,3.31-4.383,8.73,8.73,0,0,0,.463-6.205c-.216-.563.649-.807.864-.249.84,2.185.32,4.679-.5,6.784a10,10,0,0,1-3.694,4.872c-.49.32-.938-.5-.448-.818" transform="translate(-25.634 -11.913)" fill="#2b4e78"/>
            <path id="Trazado_243421" data-name="Trazado 243421" d="M263.05,217.021a2.711,2.711,0,0,1,1.022,1.092q.485.775.9,1.593a22.829,22.829,0,0,1,1.38,3.347.449.449,0,1,1-.863.249,21.272,21.272,0,0,0-1.239-3.018c-.24-.475-.5-.942-.771-1.4a2.439,2.439,0,0,0-.875-1.046c-.524-.254-.077-1.073.443-.821" transform="translate(-27.48 -11.95)" fill="#2b4e78"/>
            <path id="Trazado_243422" data-name="Trazado 243422" d="M297.623,152.331c.461-2.6,2.057-4.8,3.6-6.882a11.121,11.121,0,0,1,1.517-1.754c1.03-.908,1.765-1.024,1.967-2.584.78-6.045-.209-14.844-5.477-18.592a8.914,8.914,0,0,0-2.48-1.364c-.941-.288-1.756.122-2.65-.05-1.293-.249-.859-2.357-1.229-3.3a4.658,4.658,0,0,0-5.227-2.618,8.312,8.312,0,0,0-4.965,3.757,6.7,6.7,0,0,0-1.083,2.365.064.064,0,0,1-.014.029,4.02,4.02,0,0,0-4.686-1.089,8.432,8.432,0,0,0-3.648,4.023c-2.337,4.781-1.909,10.728.342,15.554a29.042,29.042,0,0,0,10.441,11.515,19.392,19.392,0,0,0,6.839,3.147c2.457.494,4.682-.669,6.75-2.156" transform="translate(-28.456 -6.339)" fill="#3e2723"/>
            <path id="Trazado_243423" data-name="Trazado 243423" d="M261.579,316.542c-3.736-26.735-.771-54.92,4.287-81.411,8,.334,14.826.744,22.56,2.921.218,28.2-6.374,56.941-19.48,81.514Z" transform="translate(-27.221 -12.95)" fill="#09121f"/>
            <path id="Trazado_243424" data-name="Trazado 243424" d="M309.966,379.189a3.555,3.555,0,0,1-1.926-.228c1.163,4.646,2.288,9.3,3.34,13.98a13.943,13.943,0,0,0,7.188-1.514c.175-5.085.467-10.411.669-15.823a22.486,22.486,0,0,1-9.271,3.584" transform="translate(-32.264 -20.686)" fill="#ffab91"/>
            <path id="Trazado_243425" data-name="Trazado 243425" d="M312.966,337.5c-3.61-10.321-9.99-19.363-17.865-25.313l-2.111,4.057a13.457,13.457,0,0,0-.525,10.6c5.62,15.556,9.56,38.2,13.6,54.351.36,1.436,3.908.886,5.851.577.845-.134,6.774-1.457,6.809-2.383.435-11.668-2.132-31.511-5.763-41.894" transform="translate(-30.544 -17.194)" fill="#112d4e"/>
            <path id="Trazado_243426" data-name="Trazado 243426" d="M289.672,322.58c-5.386-19.139-8.426-54.737-8.426-54.737s-15.2-13.3-15.2-31.174c7.962-.867,31.28,4.311,39.228,5.309,4,27.88,1.339,57.319-8.332,83.605Z" transform="translate(-27.865 -13.029)" fill="#112d4e"/>
            <path id="Trazado_243427" data-name="Trazado 243427" d="M308.649,382.8a28.359,28.359,0,0,0,10.524-2.567c.754-.343,1.1.957.354,1.3a29.237,29.237,0,0,1-10.863,2.619c-.822.039-.835-1.31-.014-1.348" transform="translate(-32.264 -20.938)" fill="#09121f"/>
            <path id="Trazado_243428" data-name="Trazado 243428" d="M300.162,322.295a14.2,14.2,0,0,0,2.885-6.256c.168-.849,1.4-.505,1.236.344a15.656,15.656,0,0,1-3.208,6.855c-.534.661-1.446-.284-.914-.943" transform="translate(-31.422 -17.379)" fill="#09121f"/>
            <path id="Trazado_243429" data-name="Trazado 243429" d="M301.258,325.917l1.614-3.032c.4-.757,1.515-.092,1.11.667q-.806,1.517-1.613,3.032c-.4.757-1.515.092-1.111-.667" transform="translate(-31.544 -17.764)" fill="#09121f"/>
            <path id="Trazado_243430" data-name="Trazado 243430" d="M278.235,374.8a3.556,3.556,0,0,1-1.919-.289c1.03,4.681,2.022,9.373,2.941,14.08,3.115.176,4.5.851,7.417-.271.32-5.078.574-11.405.93-16.808a22.423,22.423,0,0,1-9.37,3.288" transform="translate(-28.941 -20.461)" fill="#ffab91"/>
            <path id="Trazado_243431" data-name="Trazado 243431" d="M282.361,333.964c-3.314-10.431-9.435-19.671-17.136-25.868L263,312.085a13.45,13.45,0,0,0-.827,10.584c5.174,15.726,9.006,42.637,12.588,58.911.319,1.448,5.644,1.066,7.569.824.849-.107,4.518-.182,4.579-1.106.767-11.649-1.214-36.84-4.548-47.333" transform="translate(-27.385 -16.968)" fill="#09121f"/>
            <path id="Trazado_243432" data-name="Trazado 243432" d="M277.32,383a14.376,14.376,0,0,0,9.289-2.916c.669-.5,1.494.532.822,1.033a15.781,15.781,0,0,1-10.239,3.226c-.821-.031-.694-1.374.128-1.343" transform="translate(-28.974 -20.925)" fill="#112d4e"/>
            <path id="Trazado_243433" data-name="Trazado 243433" d="M268.331,317.958l2.723-4.386c.452-.728,1.494.054,1.043.78l-2.723,4.385c-.451.728-1.493-.053-1.043-.779" transform="translate(-28.093 -17.254)" fill="#112d4e"/>
            <path id="Trazado_243434" data-name="Trazado 243434" d="M270.394,322.094q.58-2.329,1.164-4.658c.21-.838,1.4-.359,1.2.474q-.583,2.329-1.164,4.658c-.209.838-1.4.359-1.2-.474" transform="translate(-28.318 -17.458)" fill="#112d4e"/>
            <path id="Trazado_243435" data-name="Trazado 243435" d="M267.044,390.9l7.509-2.034,10.644-.195a28.331,28.331,0,0,1,1.677,9.182H258.407c.021-4.581,4.292-6.954,8.637-6.954" transform="translate(-27.065 -21.406)" fill="#fff"/>
            <path id="Trazado_243436" data-name="Trazado 243436" d="M300.779,390.9l7.509-2.034,10.644-.195a28.332,28.332,0,0,1,1.677,9.182H292.141c.021-4.581,4.292-6.954,8.637-6.954" transform="translate(-30.598 -21.406)" fill="#fff"/>
            <path id="Trazado_243437" data-name="Trazado 243437" d="M289,165.938a30.487,30.487,0,0,1,11.147-1.142c7.159.608,16.322,5.221,14.842,14.307-.757,4.64-3.417,8.708-4.293,13.351a201.311,201.311,0,0,0-2.717,52.489c.194,2.71,1.113,6.289-1.329,7.149-11.37,4-21.349,4.02-33.333,3.566a22.221,22.221,0,0,1-8.089-1.5,5.609,5.609,0,0,1-3.149-5.628c1.547-18.606,2.943-36.726,4.509-55.391.005-.068.011-.136.017-.2a30.968,30.968,0,0,1,22.4-27" transform="translate(-27.447 -9.07)" fill="#3f72af"/>
            <path id="Trazado_243438" data-name="Trazado 243438" d="M288.445,173.087c.969,1.014,2.552.737,3.761.487a15.652,15.652,0,0,0,3.824-1.328,16.708,16.708,0,0,0,6.182-5.332c.339-.484,1.121-.021.779.467A17.62,17.62,0,0,1,296,173.3a16.32,16.32,0,0,1-4.248,1.318c-1.367.219-2.89.24-3.939-.858-.409-.428.224-1.1.633-.668" transform="translate(-30.131 -9.181)" fill="#2b4e78"/>
            <path id="Trazado_243439" data-name="Trazado 243439" d="M262.442,246.727q.258-1.8.351-3.625c.239-4.788-.172-9.574.312-14.353.477-4.723,1.151-9.429,1.74-14.137.592-4.731,1.2-9.464,2.022-14.158.463-2.625,1-5.237,1.635-7.82a23.3,23.3,0,0,1,2.477-6.747.454.454,0,0,1,.779.467,20.716,20.716,0,0,0-2.224,5.856c-.563,2.21-1.047,4.443-1.472,6.686C267.2,203.427,266.579,208,266,212.58q-.884,6.954-1.741,13.912a64.972,64.972,0,0,0-.528,6.94c-.035,2.342.045,4.685.03,7.027a59.727,59.727,0,0,1-.589,7.5c-.3,2.245-.344,4.9,1.5,6.454.449.379-.187,1.044-.633.668a6.436,6.436,0,0,1-1.928-5.022,24.524,24.524,0,0,1,.336-3.336" transform="translate(-27.452 -10.226)" fill="#2b4e78"/>
            <path id="Trazado_243440" data-name="Trazado 243440" d="M283.5,250.824c6.776-.684,13.985-1.906,19.474-6.5.446-.373,1.084.291.633.669-5.7,4.765-13.062,6.06-20.107,6.771-.574.058-.569-.887,0-.945" transform="translate(-29.648 -13.45)" fill="#2b4e78"/>
            <path id="Trazado_243441" data-name="Trazado 243441" d="M289.852,152.81c1.73,4.627.749,15,.184,15.645a1.951,1.951,0,0,0-.341,2.378c.555.676,1.58.484,2.381.191a24.814,24.814,0,0,0,10.1-6.976c-.275-.257-.745-.774-1.019-1.032-3.256-3.053-2.075-12.753-1.682-17.332Z" transform="translate(-30.313 -8.023)" fill="#ffab91"/>
            <path id="Trazado_243442" data-name="Trazado 243442" d="M299.021,155.089c.086-1.936.28-7.365.432-9.131l-9.55,6.867a24.8,24.8,0,0,1,.976,7.933c2.7-1.909,5.483-3.728,8.142-5.669" transform="translate(-30.364 -8.039)" fill="#ff8a65"/>
            <path id="Trazado_243443" data-name="Trazado 243443" d="M277.353,134.41c-1.432,7.256-1.149,23.217,8.333,24.4,3.076.384,6.077-1.574,7.936-4.19s2.794-5.815,3.7-8.943a9.7,9.7,0,0,0,3.431-.919,3.467,3.467,0,0,0,1.774-2.9c-.026-1.208-1.139-2.363-2.252-2.085-2.217.555-4.022,3.526-4.3,1.084-2.036-17.806-11.96-8.449-15.215-12.7-.054-.071-2.439,3.492-2.632,3.893a9.6,9.6,0,0,0-.771,2.353" transform="translate(-28.983 -7.058)" fill="#ffab91"/>
            <path id="Trazado_243444" data-name="Trazado 243444" d="M303.282,142.241c-.793-.485-1.737.08-2.381.633-.421.361-1.312,1.317-.874,1.94a.035.035,0,0,0,.035.012c.52-.093.871-.876,1.283-1.2.593-.469,1.331-.478,1.919-.911a.285.285,0,0,0,.019-.472" transform="translate(-31.412 -7.824)" fill="#ff8a65"/>
            <path id="Trazado_243445" data-name="Trazado 243445" d="M278.554,140.582a.406.406,0,0,0-.654.06,2.257,2.257,0,0,0-.18,1.447,3.815,3.815,0,0,0,.295,1.546.442.442,0,0,0,.816-.074,3.84,3.84,0,0,0,.095-1.574,2.25,2.25,0,0,0-.372-1.405" transform="translate(-29.084 -7.735)" fill="#212121"/>
            <path id="Trazado_243446" data-name="Trazado 243446" d="M288.054,139.925a.4.4,0,0,0-.654.06,2.252,2.252,0,0,0-.181,1.447,3.816,3.816,0,0,0,.295,1.546.442.442,0,0,0,.816-.074,3.84,3.84,0,0,0,.095-1.574,2.25,2.25,0,0,0-.372-1.405" transform="translate(-30.079 -7.699)" fill="#212121"/>
            <path id="Trazado_243447" data-name="Trazado 243447" d="M284.641,135.765a3.494,3.494,0,0,1,4.558-.31c.655.506.032,1.685-.633,1.172a2.272,2.272,0,0,0-3.011.081c-.611.575-1.528-.364-.914-.943" transform="translate(-29.791 -7.421)" fill="#3e2723"/>
            <path id="Trazado_243448" data-name="Trazado 243448" d="M277.006,136.578a1.772,1.772,0,0,1,2.261-.3c.7.456.07,1.631-.632,1.173a.531.531,0,0,0-.715.068c-.581.616-1.5-.326-.914-.942" transform="translate(-28.994 -7.49)" fill="#3e2723"/>
            <path id="Trazado_243449" data-name="Trazado 243449" d="M286.471,153.259a5.3,5.3,0,0,0,4.057-2.155c.521-.673,1.432.275.914.943a6.513,6.513,0,0,1-4.958,2.561c-.822.03-.836-1.318-.013-1.348" transform="translate(-29.94 -8.309)" fill="#212121"/>
            <path id="Trazado_243450" data-name="Trazado 243450" d="M281.589,144.273c.295-.321.764.163.47.485a5.721,5.721,0,0,0-1.525,2.5c-.312,1.34.251,2.9,1.746,2.928.422.009.046.7-.378.694a2.582,2.582,0,0,1-2.475-2.358c-.235-1.674,1.118-3.114,2.162-4.253" transform="translate(-29.264 -7.94)" fill="#ff8a65"/>
            <path id="Trazado_243451" data-name="Trazado 243451" d="M307.791,170.4c2.507-1.389,3.944-1.643,6.68-.509a14.737,14.737,0,0,1,8.267,8.95c3.617,11.085,7.526,22.9,10.858,34.086,2.534,8.511-3.46,17.677-6.973,25.79-4.159-1.777-8.133-3.8-12.293-5.579a79.429,79.429,0,0,1,3.072-17.491c-6.316-13.435-8.152-20.331-13.253-34.328" transform="translate(-31.856 -9.317)" fill="#3f72af"/>
            <path id="Trazado_243452" data-name="Trazado 243452" d="M299.909,266.658c0-.027,0-.055,0-.083a12.224,12.224,0,0,1,7.743-11.253q.428-.164.853-.318a76.838,76.838,0,0,0,6.644-20.151c2.11-.862,4.44-.276,6.467.782a8.662,8.662,0,0,1,4.236,5.334c-2.991,4.613-10.208,11.854-13.2,16.466a6.035,6.035,0,0,1,.327,4.776,6.41,6.41,0,0,1-2.5,3.22c.012.051.024.1.038.154.209.731.854,1.212,1.013,1.935a.744.744,0,0,1-.515.888c-1.1.14-1.923-.976-2.3-1.961,0-.01-.007-.022-.012-.031a5.325,5.325,0,0,0,.509,2.519c.452.954-.69,1.89-1.433,1.127a5.323,5.323,0,0,1-1.357-3.83,10.116,10.116,0,0,1,.2-1.831c-.039-.011-.079-.021-.118-.033-.4,1.908-1.2,3.9.182,5.417.511.559-.016,1.6-.757,1.339a3.786,3.786,0,0,1-2.356-3.779,18.753,18.753,0,0,1,.377-3.117c.023-.141.043-.28.062-.417-.214-.034-.429-.066-.641-.092a9.07,9.07,0,0,0-.92,2.824,2.633,2.633,0,0,0,.27,1.409,9.181,9.181,0,0,1,.55,1.336,1.646,1.646,0,0,1-.227,1.466.839.839,0,0,1-1.387-.219c-.629-1.233-1.758-2.58-1.748-3.879" transform="translate(-31.412 -12.911)" fill="#ffab91"/>
            <path id="Trazado_243453" data-name="Trazado 243453" d="M321.406,217.443a11.681,11.681,0,0,1,5.258.434c.56.135.411,1.067-.152.931a11.134,11.134,0,0,0-5.029-.423c-.236.053-.466-.2-.484-.43a.477.477,0,0,1,.407-.511" transform="translate(-33.621 -11.967)" fill="#2b4e78"/>
            <path id="Trazado_243454" data-name="Trazado 243454" d="M323.048,218.952l1.714.19a.475.475,0,0,1,.365.546.461.461,0,0,1-.517.385l-1.714-.19a.473.473,0,0,1-.365-.545.463.463,0,0,1,.517-.386" transform="translate(-33.78 -12.058)" fill="#2b4e78"/>
            <path id="Trazado_243455" data-name="Trazado 243455" d="M308.295,192.515q4.371,11.882,9.666,23.352c.252.545-.592.863-.842.32q-5.29-11.458-9.666-23.352a.451.451,0,1,1,.842-.32" transform="translate(-32.198 -10.586)" fill="#2b4e78"/>
            <path id="Trazado_243456" data-name="Trazado 243456" d="M307.106,196.245a14.918,14.918,0,0,0,3.806,4.058.5.5,0,0,1,.063.665.441.441,0,0,1-.63.065,15.646,15.646,0,0,1-3.97-4.244c-.32-.5.409-1.051.731-.545" transform="translate(-32.081 -10.797)" fill="#2b4e78"/>
            <path id="Trazado_243457" data-name="Trazado 243457" d="M316.591,234.135a7.862,7.862,0,0,1,7.159.526,11.216,11.216,0,0,1,4.582,5.763.451.451,0,1,1-.842.32,10.2,10.2,0,0,0-4.11-5.224,7.059,7.059,0,0,0-6.485-.5c-.531.235-.834-.654-.3-.889" transform="translate(-33.13 -12.86)" fill="#2b4e78"/>
            <path id="Trazado_243458" data-name="Trazado 243458" d="M100.486,93.649c.6-4.323-1.72-8.75-5.371-11.422a20.306,20.306,0,0,0-13.061-3.445l-.139.009c-9.073.565-15.155,10.175-12.484,19.345a26.832,26.832,0,0,0,4.122,8.437c2.8,3.8,7,7.215,11.9,7.18,4.489-.033,8.477-3.037,10.74-6.7s3.705-9.2,4.29-13.408" transform="translate(-7.206 -4.337)" fill="#3e2723"/>
            <path id="Trazado_243459" data-name="Trazado 243459" d="M94.666,133.576c-.579.706-1.655.506-2.491.2a25.934,25.934,0,0,1-10.554-7.287c.289-.271.78-.812,1.064-1.076,3.4-3.194,2.167-9.452,1.761-14.233L94.5,114.743a13.86,13.86,0,0,0-.619,2.441,39.22,39.22,0,0,0-.373,7.386c.112,3.359.513,6.187.8,6.523a2.037,2.037,0,0,1,.356,2.482" transform="translate(-8.549 -6.123)" fill="#ab7361"/>
            <path id="Trazado_243460" data-name="Trazado 243460" d="M94.232,124.8c-.123-.082-.245-.17-.368-.253a12.471,12.471,0,0,1-5.311-9.228l-.005-.053,6.057,2.147a39.232,39.232,0,0,0-.373,7.387" transform="translate(-9.274 -6.348)" fill="#96513c"/>
            <path id="Trazado_243461" data-name="Trazado 243461" d="M100.7,92.035c2.726,7.192,5.188,23.669-4.364,26.711-3.1.986-6.525-.453-8.889-2.787s-3.879-5.446-5.347-8.492a9.994,9.994,0,0,1-3.688-.285,3.532,3.532,0,0,1-2.326-2.64c-.181-1.247.765-2.651,1.958-2.578,7.779.472,14.309-8.5,18.077-15.7.044-.082,3.112,3.125,3.381,3.5a9.8,9.8,0,0,1,1.2,2.273" transform="translate(-7.966 -4.751)" fill="#ab7361"/>
            <path id="Trazado_243462" data-name="Trazado 243462" d="M94.8,94.406a4.817,4.817,0,0,0-4.936.686c-.579.446.179,1.309.753.867a3.734,3.734,0,0,1,3.841-.434c.665.287,1-.834.343-1.12" transform="translate(-9.39 -5.178)" fill="#3e2723"/>
            <path id="Trazado_243463" data-name="Trazado 243463" d="M104.738,94.368a3.371,3.371,0,0,0-4.3-.443c-.594.41-.081,1.456.52,1.04a2.3,2.3,0,0,1,2.962.2c.524.511,1.35-.281.822-.795" transform="translate(-10.492 -5.141)" fill="#3e2723"/>
            <path id="Trazado_243464" data-name="Trazado 243464" d="M94.444,99.314c-.115-.746-1.2-.483-1.087.263q.177,1.141.354,2.28c.115.747,1.2.483,1.086-.263s-.235-1.52-.353-2.28" transform="translate(-9.777 -5.445)" fill="#212121"/>
            <path id="Trazado_243465" data-name="Trazado 243465" d="M104.117,98.334c-.115-.746-1.2-.483-1.087.264s.235,1.519.354,2.28,1.2.482,1.086-.264-.235-1.52-.353-2.28" transform="translate(-10.79 -5.391)" fill="#212121"/>
            <path id="Trazado_243466" data-name="Trazado 243466" d="M81.3,105.259a2.571,2.571,0,0,0-3.6-1c-.623.371-.107,1.415.52,1.04a1.471,1.471,0,0,1,2.1.508c.38.637,1.369.094.986-.549" transform="translate(-8.108 -5.721)" fill="#96513c"/>
            <path id="Trazado_243467" data-name="Trazado 243467" d="M92.948,110.71a4.235,4.235,0,0,0,1.324,2.533,3.627,3.627,0,0,0,3.578.709c.038-.013.071-.037.108-.053a5.669,5.669,0,0,0-5.011-3.189" transform="translate(-9.735 -6.097)" fill="#e53935"/>
            <path id="Trazado_243468" data-name="Trazado 243468" d="M100,110.683a18.654,18.654,0,0,0-7.066-1.141,3.833,3.833,0,0,0,.007,1.1,5.671,5.671,0,0,1,5.011,3.189A4.288,4.288,0,0,0,100,110.683" transform="translate(-9.73 -6.032)" fill="#b71c1c"/>
            <path id="Trazado_243469" data-name="Trazado 243469" d="M97.811,116.165a.458.458,0,0,0-.547-.337,6.463,6.463,0,0,1-3.388-.463.45.45,0,0,0-.611.178.49.49,0,0,0,.168.644,7.574,7.574,0,0,0,4.057.556.479.479,0,0,0,.32-.577" transform="translate(-9.763 -6.351)" fill="#96513c"/>
            <path id="Trazado_243470" data-name="Trazado 243470" d="M102.468,105.524a3.149,3.149,0,0,0-1.478-2.1.437.437,0,0,0-.61.178.5.5,0,0,0,.167.643,2.216,2.216,0,0,1,1.031,1.343,1.988,1.988,0,0,1-.893,1.678.493.493,0,0,0,0,.668.442.442,0,0,0,.633,0,2.845,2.845,0,0,0,1.15-2.41" transform="translate(-10.507 -5.692)" fill="#96513c"/>
            <path id="Trazado_243471" data-name="Trazado 243471" d="M62.082,86.332a13.108,13.108,0,0,1,.814-11.5A14.644,14.644,0,0,1,71.958,68.1a12.845,12.845,0,0,1,11.107,2.1A10.636,10.636,0,0,1,86.727,81.08c-1.572,5.369-7.793,9.02-12.5,10.707a9.467,9.467,0,0,1-12.149-5.455" transform="translate(-6.401 -3.726)" fill="#3e2723"/>
            <path id="Trazado_243472" data-name="Trazado 243472" d="M109.487,205.112c-1.243-7.94-2.2-15.725-6.353-23.224-9.43-.389-28.507,1.174-29.3,2.083-1.878,2.159-12.6,16.978-13.314,22.837-1.4,11.478-.647,23.139.461,34.52,1.083,11.129,3.775,23,3.816,34.289,3.25.41,4.139.927,7.389,1.338,5.959-18.094,9.584-37.21,11.878-56.295.728.11,2.043.256,2.77.366a480.881,480.881,0,0,1,5.021,57.5,18.071,18.071,0,0,0,7.192.4c.749-.113,2.728-9.164,3.034-10.3a301.355,301.355,0,0,0,7.544-35.964,94.83,94.83,0,0,0-.141-27.552" transform="translate(-6.259 -10.014)" fill="#3f72af"/>
            <path id="Trazado_243473" data-name="Trazado 243473" d="M99.4,326.814a2.577,2.577,0,0,0,1.3-.475c-.121,3.418-.213,6.837-.252,10.257a9.858,9.858,0,0,1-5.215.133c-.873-3.5-1.864-7.152-2.8-10.876a15.76,15.76,0,0,0,6.968.961" transform="translate(-9.681 -17.946)" fill="#ab7361"/>
            <path id="Trazado_243474" data-name="Trazado 243474" d="M88.632,293.367a48.135,48.135,0,0,1,10.46-24.782l2.5,2.982a11.45,11.45,0,0,1,2.335,8.789,428.358,428.358,0,0,0-3.652,42.829,2.573,2.573,0,0,1-1.3.476A15.752,15.752,0,0,1,92,322.7c-2.449-9.7-4.557-19.9-3.366-29.332" transform="translate(-9.247 -14.792)" fill="#3f72af"/>
            <path id="Trazado_243475" data-name="Trazado 243475" d="M30.71,312.781a2.631,2.631,0,0,0,1.205.71q-3.743,3.273-7.415,6.636a10.744,10.744,0,0,1-3.569-4.015c1.892-3.021,3.811-6.233,5.815-9.455a17.536,17.536,0,0,0,3.964,6.124" transform="translate(-2.192 -16.889)" fill="#ab7361"/>
            <path id="Trazado_243476" data-name="Trazado 243476" d="M45.905,282.685A42.825,42.825,0,0,1,70.383,274.4l-.444,3.951a11.1,11.1,0,0,1-4.654,7.695A387.261,387.261,0,0,0,32.6,311.714a2.633,2.633,0,0,1-1.2-.71,17.515,17.515,0,0,1-3.964-6.124c5.219-8.389,11.023-16.849,18.478-22.2" transform="translate(-2.873 -15.113)" fill="#3f72af"/>
            <path id="Trazado_243477" data-name="Trazado 243477" d="M108.572,338.386l-6.111-1.656-8.663-.158a23.066,23.066,0,0,0-1.364,7.473H115.6c-.017-3.729-3.494-5.66-7.03-5.66" transform="translate(-9.681 -18.537)" fill="#fff"/>
            <path id="Trazado_243478" data-name="Trazado 243478" d="M25.438,328.406l-.9-6.59-3.192-8.5a19.889,19.889,0,0,0-7.061,1.544l3.97,10.063,1.613,4.091,3.322,8.422c3.254-1.449,3.607-5.58,2.248-9.027" transform="translate(-1.496 -17.255)" fill="#fff"/>
            <path id="Trazado_243479" data-name="Trazado 243479" d="M65.738,269.732c-.141-.742-1.227-.48-1.087.263q1.276,6.707,2.55,13.412c.141.742,1.227.481,1.086-.263l-2.549-13.412" transform="translate(-6.77 -14.831)" fill="#315887"/>
            <path id="Trazado_243480" data-name="Trazado 243480" d="M63.83,278.209c.286-.69-.7-1.231-.992-.537q-.787,1.9-1.575,3.8c-.286.691.7,1.231.992.537q.787-1.9,1.575-3.8" transform="translate(-6.411 -15.275)" fill="#315887"/>
            <path id="Trazado_243481" data-name="Trazado 243481" d="M97.644,282.61a26.521,26.521,0,0,1-1.575-11.417.558.558,0,1,0-1.114-.051,27.885,27.885,0,0,0,1.7,12.017c.261.7,1.245.15.986-.549" transform="translate(-9.937 -14.903)" fill="#315887"/>
            <path id="Trazado_243482" data-name="Trazado 243482" d="M94.815,281.106c-.118-.746-1.2-.483-1.087.263l.694,4.39c.117.747,1.2.483,1.086-.263Z" transform="translate(-9.816 -15.457)" fill="#315887"/>
            <path id="Trazado_243483" data-name="Trazado 243483" d="M34.237,310.257,31.562,305.4c-.362-.657-1.3-.02-.939.633L33.3,310.89c.362.657,1.3.02.939-.633" transform="translate(-3.199 -16.805)" fill="#315887"/>
            <path id="Trazado_243484" data-name="Trazado 243484" d="M98.04,323.038l-4.389-.985c-.7-.156-1.044.963-.343,1.12l4.389.985c.7.156,1.044-.963.343-1.12" transform="translate(-9.733 -17.736)" fill="#315887"/>
            <path id="Trazado_243485" data-name="Trazado 243485" d="M145.031,144.861a328.42,328.42,0,0,0,7.629-35.174c-1.91-.586-4.318-.643-6.227-1.228-4.056,10.4-8.578,23.268-12.764,34.357l6.559,4.067a3.225,3.225,0,0,0,4.8-2.021" transform="translate(-14 -5.973)" fill="#ab7361"/>
            <path id="Trazado_243486" data-name="Trazado 243486" d="M147.653,110.477a36.991,36.991,0,0,1,1.577-12.33,9.733,9.733,0,0,1,6.826-.682,1.712,1.712,0,0,1,1.1,1.786,28.574,28.574,0,0,1-3.634,11.562Z" transform="translate(-15.459 -5.348)" fill="#ab7361"/>
            <path id="Trazado_243487" data-name="Trazado 243487" d="M155.033,100.6c-.43,1.5,1.3,2.185,1.738.67.745-2.595,1.424-5.33,3.082-7.286.957-1.129.367-2.445-.594-1.311a21.148,21.148,0,0,0-4.226,7.927" transform="translate(-16.231 -5.08)" fill="#ab7361"/>
            <path id="Trazado_243488" data-name="Trazado 243488" d="M153.42,99.063c-.372,1.5,1.36,2.193,1.738.67.76-3.062,1.207-5.567,2.91-8.116.847-1.268.141-2.784-.7-1.52a28.318,28.318,0,0,0-3.945,8.966" transform="translate(-16.063 -4.936)" fill="#ab7361"/>
            <path id="Trazado_243489" data-name="Trazado 243489" d="M151.338,98.9c-.237,1.541,1.648,1.6,1.886.056.5-3.233.555-5.717,2.175-8.513.771-1.331.311-3.116-.463-1.78a29.191,29.191,0,0,0-3.6,10.237" transform="translate(-15.849 -4.857)" fill="#ab7361"/>
            <path id="Trazado_243490" data-name="Trazado 243490" d="M151.23,89.433a32.269,32.269,0,0,0-1.937,10.1c-.05,1.531,1.859.962,1.908-.554.1-3.012-.117-5.362.936-8.251.537-1.472-.369-2.767-.907-1.292" transform="translate(-15.637 -4.89)" fill="#ab7361"/>
            <path id="Trazado_243491" data-name="Trazado 243491" d="M151.64,102.534a3.227,3.227,0,0,1-.854,4.995c-.632.36-.014,1.34.612.984a4.445,4.445,0,0,0,.977-6.863c-.492-.55-1.224.338-.735.884" transform="translate(-15.765 -5.589)" fill="#96513c"/>
            <path id="Trazado_243492" data-name="Trazado 243492" d="M150.153,97.33a4.031,4.031,0,0,1,1.119,4.269c-.224.717.872.935,1.094.224a5.2,5.2,0,0,0-1.478-5.378c-.549-.486-1.286.4-.735.884" transform="translate(-15.706 -5.304)" fill="#96513c"/>
            <path id="Trazado_243493" data-name="Trazado 243493" d="M111.618,212.826c.8-3.176-6.774-40.313-9-51.716,2.467-5.612,7.058-13.856,3.373-19.263-6.417-9.416-10.855-15.911-21.144-15.911-3.613,0-8.262-.2-11.484,1.881a12.473,12.473,0,0,0-5.541,10.954c.319,4.556,3.278,7.987,4.827,12.11,1.758,4.679,5.343,17.049,2.914,21.478-4.643,8.463-16.02,27.694-15.806,30.62,14.364,11.278,34.944,15.22,51.856,9.846" transform="translate(-6.259 -6.936)" fill="#112d4e"/>
            <path id="Trazado_243494" data-name="Trazado 243494" d="M95.488,134.853c.173,3.634-7.207-.237-7.8-.589a19.978,19.978,0,0,1-4.8-4.1c-.486-.557-1.308.237-.822.795a20.056,20.056,0,0,0,9.425,6.246c1.991.577,5.252.807,5.1-2.3-.036-.749-1.15-.808-1.114-.051" transform="translate(-8.581 -7.158)" fill="#d01968"/>
            <path id="Trazado_243495" data-name="Trazado 243495" d="M108.461,215.636a50.719,50.719,0,0,1-44.815-9.975c-.569-.463-1.168.53-.6.989a51.753,51.753,0,0,0,45.668,10.132c.7-.181.45-1.33-.249-1.147" transform="translate(-6.579 -11.32)" fill="#09121f"/>
            <path id="Trazado_243496" data-name="Trazado 243496" d="M121.4,132.053l-23.832-3.891,5.519,16.816,19.363,1.922a54.484,54.484,0,0,0-1.05-14.847" transform="translate(-10.219 -7.058)" fill="#112d4e"/>
            <path id="Trazado_243497" data-name="Trazado 243497" d="M142.171,135.217l-17.986-2.937a54.484,54.484,0,0,1,1.05,14.847l15.242,1.513Z" transform="translate(-13.007 -7.285)" fill="#ab7361"/>
            <path id="Trazado_243498" data-name="Trazado 243498" d="M122.943,139.118c-.107-.969-.255-1.932-.416-2.893a14.694,14.694,0,0,0-.6-2.724c-.209-.56-1.077-.325-.867.24a13.581,13.581,0,0,1,.566,2.512c.161.952.317,1.906.423,2.866a17.433,17.433,0,0,1-.156,5.616c-.127.592.739.835.867.24a18.2,18.2,0,0,0,.184-5.856" transform="translate(-12.676 -7.335)" fill="#09121f"/>
            <g id="Grupo_591331" data-name="Grupo 591331" transform="translate(129.868 14.086)" opacity="0.22" style="mix-blend-mode: multiply;isolation: isolate">
              <g id="Grupo_591330" data-name="Grupo 591330">
                <g id="Grupo_591329" data-name="Grupo 591329" clip-path="url(#clip-path-3)">
                  <path id="Trazado_243499" data-name="Trazado 243499" d="M188.581,89.223l13.814,18.813-9.83,1.682-3.975,9.619-15.067-20.5-1.083-1.474c-1.039,1.115-2.086,2.277-3.366,2.514-2.229.406-4.754-2.192-7.09-2.192s-4.87,2.6-7.1,2.192c-1.28-.236-2.319-1.4-3.366-2.514l-.358.491-6.1,8.3V19.667a8.932,8.932,0,0,0,3.868-.113c2.131-.822,3.671-4.177,5.953-4.6,2.229-.416,4.754,2.183,7.1,2.183s4.861-2.6,7.09-2.183c2.292.425,3.823,3.78,5.962,4.6,2.175.841,5.389-.69,7.368.52,2,1.219,2.346,4.923,4.1,6.482s5.282,1.285,6.759,3.147.609,5.462,1.764,7.569c1.146,2.088,4.548,3.09,5.345,5.386.779,2.258-1.209,5.339-.806,7.758.385,2.353,3.259,4.526,3.259,6.992s-2.874,4.649-3.259,7c-.4,2.419,1.585,5.49.806,7.748-.8,2.3-4.2,3.3-5.345,5.386-1.155,2.107-.286,5.726-1.764,7.578-1.244,1.569-3.957,1.625-5.828,2.542Z" transform="translate(-145.062 -14.907)" fill="#637373"/>
                </g>
              </g>
            </g>
            <path id="Trazado_243500" data-name="Trazado 243500" d="M166.584,73.126l-8.321,11.335L147.437,99.194,131.651,120.68l-3.99-9.617-9.816-1.689,14.168-19.285,12.463-16.963Z" transform="translate(-12.343 -4.027)" fill="#112d4e"/>
            <path id="Trazado_243501" data-name="Trazado 243501" d="M202.424,109.374l-9.826,1.689-3.98,9.617-15.063-20.5-11.54-15.718-8.331-11.335h22.108l12.816,17.436Z" transform="translate(-16.097 -4.027)" fill="#112d4e"/>
            <g id="Grupo_591334" data-name="Grupo 591334" transform="translate(119.67 69.099)" opacity="0.22" style="mix-blend-mode: multiply;isolation: isolate">
              <g id="Grupo_591333" data-name="Grupo 591333">
                <g id="Grupo_591332" data-name="Grupo 591332" clip-path="url(#clip-path-4)">
                  <path id="Trazado_243502" data-name="Trazado 243502" d="M186.513,90.562a4.536,4.536,0,0,0-1.21.744c-1.761,1.558-2.114,5.266-4.1,6.482s-5.2-.312-7.37.523a6.973,6.973,0,0,0-2.371,1.869L159.92,84.461,149.094,99.195a4.8,4.8,0,0,0-1.372-.884c-2.18-.834-5.4.694-7.379-.523S138,92.864,136.25,91.305a6.606,6.606,0,0,0-2.58-1.216l12.463-16.963H173.7Z" transform="translate(-133.67 -73.126)" fill="#637373"/>
                </g>
              </g>
            </g>
            <path id="Trazado_243503" data-name="Trazado 243503" d="M199.049,55.436c0,2.47-2.869,4.645-3.26,7-.4,2.418,1.585,5.495.807,7.75-.792,2.3-4.194,3.3-5.338,5.391-1.156,2.107-.289,5.719-1.764,7.572s-5,1.582-6.761,3.143-2.1,5.266-4.1,6.485c-1.978,1.208-5.2-.319-7.371.517-2.138.821-3.67,4.181-5.962,4.6-2.228.412-4.752-2.187-7.092-2.187s-4.864,2.6-7.091,2.187c-2.292-.423-3.824-3.783-5.962-4.6-2.176-.836-5.393.691-7.372-.517-2-1.219-2.346-4.93-4.1-6.486S128.4,85,126.918,83.145s-.607-5.465-1.762-7.572c-1.144-2.086-4.546-3.094-5.338-5.39-.778-2.256,1.208-5.332.807-7.75-.39-2.352-3.26-4.527-3.26-7s2.869-4.645,3.26-7c.4-2.418-1.585-5.495-.807-7.75.792-2.3,4.194-3.3,5.338-5.391,1.155-2.107.289-5.719,1.764-7.572s5-1.582,6.761-3.142,2.1-5.267,4.1-6.486c1.978-1.208,5.194.319,7.371-.517,2.136-.821,3.67-4.181,5.962-4.6,2.227-.412,4.751,2.187,7.091,2.187s4.864-2.6,7.092-2.187c2.293.423,3.825,3.783,5.962,4.6,2.175.836,5.393-.691,7.371.517,2,1.219,2.346,4.93,4.1,6.486s5.283,1.284,6.761,3.143.608,5.465,1.764,7.572c1.144,2.086,4.546,3.094,5.338,5.39.778,2.256-1.208,5.332-.807,7.75.39,2.352,3.26,4.527,3.26,7" transform="translate(-12.293 -0.712)" fill="#3f72af"/>
            <path id="Trazado_243504" data-name="Trazado 243504" d="M159.093,90.98c-18.344,0-33.269-15.752-33.269-35.113s14.925-35.114,33.269-35.114S192.362,36.5,192.362,55.866,177.437,90.98,159.093,90.98m0-69.051c-17.73,0-32.154,15.225-32.154,33.938S141.363,89.8,159.093,89.8s32.154-15.225,32.154-33.938-14.424-33.938-32.154-33.938" transform="translate(-13.179 -1.143)" fill="#dbe2ef"/>
            <path id="Trazado_243505" data-name="Trazado 243505" d="M187.135,56.23c0,15.943-12.245,28.867-27.35,28.867s-27.35-12.925-27.35-28.867,12.245-28.867,27.35-28.867,27.35,12.925,27.35,28.867" transform="translate(-13.871 -1.507)" fill="#dbe2ef"/>
          </g>
        </g>
        <text id="ISO" transform="translate(130.077 50.632)" fill="#637373" font-size="19" font-family="Montserrat-Bold, Montserrat" font-weight="700"><tspan x="0" y="0">ISO</tspan></text>
        <text id="_9001" data-name="9001" transform="translate(130.744 65.553)" fill="#637373" font-size="13" font-family="Montserrat-Bold, Montserrat" font-weight="700"><tspan x="0" y="0">90</tspan><tspan y="0" letter-spacing="-0.005em">0</tspan><tspan y="0">1</tspan></text>
        <text id="CERTIFIED" transform="translate(131.795 73.619)" fill="#637373" font-size="4" font-family="Montserrat-Bold, Montserrat" font-weight="700"><tspan x="0" y="0">CE</tspan><tspan y="0" letter-spacing="-0.009em">R</tspan><tspan y="0">TIFIED</tspan></text>
        <g id="Grupo_591338" data-name="Grupo 591338">
          <g id="Grupo_591337" data-name="Grupo 591337" clip-path="url(#clip-path-2)">
            <path id="Trazado_243506" data-name="Trazado 243506" d="M130.669,123.107a267.192,267.192,0,0,0,5.06-31.836c-1.893-.594-4.235-.723-6.128-1.318-2.539,7.32-5.253,16.014-7.908,24.231-1.25,3.869.634,8.364,4.447,10.614a2.945,2.945,0,0,0,4.529-1.69" transform="translate(-12.706 -4.954)" fill="#ab7361"/>
            <path id="Trazado_243507" data-name="Trazado 243507" d="M130.218,92.16a47.012,47.012,0,0,1,1.467-13.952c2.253-1.055,4.611.111,6.671.753a1.706,1.706,0,0,1,1.136,1.76,28.639,28.639,0,0,1-3.4,11.641Z" transform="translate(-13.63 -4.284)" fill="#ab7361"/>
            <path id="Trazado_243508" data-name="Trazado 243508" d="M137.384,82.178c-.4,1.507,1.347,2.154,1.751.63.692-2.61,1.316-5.362,2.934-7.354.935-1.15.318-2.453-.621-1.3a21.208,21.208,0,0,0-4.064,8.021" transform="translate(-14.383 -4.059)" fill="#ab7361"/>
            <path id="Trazado_243509" data-name="Trazado 243509" d="M135.74,80.679c-.342,1.509,1.4,2.163,1.751.63.7-3.079,1.093-5.592,2.745-8.18.822-1.286.086-2.786-.733-1.5a28.381,28.381,0,0,0-3.763,9.053" transform="translate(-14.212 -3.918)" fill="#ab7361"/>
            <path id="Trazado_243510" data-name="Trazado 243510" d="M133.655,80.563c-.207,1.546,1.68,1.562,1.887.013.433-3.243.44-5.728,2-8.56.743-1.348.248-3.123-.5-1.77a29.263,29.263,0,0,0-3.39,10.317" transform="translate(-13.997 -3.842)" fill="#ab7361"/>
            <path id="Trazado_243511" data-name="Trazado 243511" d="M133.357,71.1a32.339,32.339,0,0,0-1.733,10.136c-.019,1.533,1.878.92,1.9-.6.038-3.013-.226-5.359.769-8.27.507-1.484-.424-2.758-.933-1.27" transform="translate(-13.786 -3.879)" fill="#ab7361"/>
            <path id="Trazado_243512" data-name="Trazado 243512" d="M97.436,137.017c9.426-2.856,18.668-6.46,27.835-10.165l1.455-9.492a1.674,1.674,0,0,0-1.868-1.971q-13.847,2.421-27.472,6.037c-1.253,5.146-1.633,10.406.049,15.59" transform="translate(-10.087 -6.354)" fill="#ab7361"/>
            <path id="Trazado_243513" data-name="Trazado 243513" d="M70.37,132.323a6.556,6.556,0,0,0-.215,6.141c1.9,3.611,6.227,3.332,9.764,2.632,4.963-.982,9.86-2.256,14.707-3.726-1.682-5.184-1.3-10.444-.048-15.589q-7.268,1.925-14.453,4.176c-3.742,1.177-7.672,2.552-9.755,6.367" transform="translate(-7.278 -6.707)" fill="#112d4e"/>
            <path id="Trazado_243514" data-name="Trazado 243514" d="M94.9,135.446a13.381,13.381,0,0,1-1.033-4.955,25.4,25.4,0,0,1,.694-5.368c.12-.593-.745-.837-.866-.24a25.624,25.624,0,0,0-.719,5.8,14.655,14.655,0,0,0,1.145,5.231c.233.557,1.009.085.779-.467" transform="translate(-9.738 -6.859)" fill="#09121f"/>
            <rect id="Rectángulo_52988" data-name="Rectángulo 52988" width="40.041" height="2.447" transform="translate(77.623 325.109)" fill="#112d4e"/>
            <rect id="Rectángulo_52989" data-name="Rectángulo 52989" width="40.041" height="2.447" transform="translate(66.423 341.94)" fill="#112d4e"/>
            <rect id="Rectángulo_52990" data-name="Rectángulo 52990" width="40.041" height="2.447" transform="translate(51.763 358.771)" fill="#112d4e"/>
            <path id="Trazado_243515" data-name="Trazado 243515" d="M104.42,341.9c6.064,0,13.6,3.293,16.578,12.534l10.187,31.639a4.412,4.412,0,0,1-3.986,5.873H81.641a4.412,4.412,0,0,1-3.986-5.873L87.842,354.43c2.975-9.241,10.514-12.534,16.578-12.534m0-2.835c-8.009,0-16.018,4.819-19.121,14.456L73.905,388.9a4.412,4.412,0,0,0,3.986,5.873h53.057a4.412,4.412,0,0,0,3.986-5.873l-11.393-35.387c-3.1-9.637-11.112-14.456-19.121-14.456" transform="translate(-7.717 -18.674)" fill="#112d4e"/>
            <path id="Trazado_243516" data-name="Trazado 243516" d="M384.518,347.978c.7-3.086,1.449-6.3,2.111-9.566.82.767,1.663,1.517,2.442,2.321,5.872,6.062,5.108,33.169,5.108,33.169s-.488-.273-1.3-.746c-2.889-7.034-5.928-14.233-9.346-21.161.355-1.338.683-2.68.987-4.017" transform="translate(-40.17 -18.638)" fill="#005c52"/>
            <path id="Trazado_243517" data-name="Trazado 243517" d="M381.282,333.317c-.677,3.968-1.373,7.934-2.26,11.857a104.753,104.753,0,0,0-13.029-19.432q.641-3.319,1.174-6.664c.53-3.326,1.244-6.8,1.782-10.311,4.768,2.4,8.73,6.449,10.073,11.762,1.012,4,.533,8.48,2.378,12.105q-.06.342-.118.682" transform="translate(-38.333 -17.005)" fill="#005c52"/>
            <path id="Trazado_243518" data-name="Trazado 243518" d="M359.7,306.479a23.448,23.448,0,0,1,2.346.572c-.066.42-.132.839-.2,1.263-.63,4.181-1.1,8.379-1.822,12.546-.073.42-.152.838-.227,1.257a54.32,54.32,0,0,0-17.276-11.905,7.768,7.768,0,0,0-4.8-1.911c7.24-1.585,14.691-3.174,21.973-1.822" transform="translate(-35.373 -16.851)" fill="#005c52"/>
            <path id="Trazado_243519" data-name="Trazado 243519" d="M351.733,337.6a22.638,22.638,0,0,1-2.768-9.122c-.508-4.164-.575-8.462-2.009-12.378a13.355,13.355,0,0,0-3.871-5.645c11.557,4.9,20.309,13.81,27.424,24.515a66.712,66.712,0,0,0-18.775,2.631" transform="translate(-35.934 -17.098)" fill="#00796c"/>
            <path id="Trazado_243520" data-name="Trazado 243520" d="M387.783,363.863c1.56,3.57,3.061,7.153,4.516,10.7a120.338,120.338,0,0,1-14.278-9.55,64,64,0,0,1,9.762-1.145" transform="translate(-39.593 -20.039)" fill="#00796c"/>
            <path id="Trazado_243521" data-name="Trazado 243521" d="M372.222,360.387a9.257,9.257,0,0,1-1.086-1.542c-2.006-3.751-3.21-8.151-6.272-11-2.51-2.335-5.94-3.3-8.682-5.28a64.982,64.982,0,0,1,18.281-1.851,173.067,173.067,0,0,1,9.275,17.931,71.921,71.921,0,0,0-11.516,1.742" transform="translate(-37.306 -18.762)" fill="#00796c"/>
            <path id="Trazado_243522" data-name="Trazado 243522" d="M395.493,392.767c-3.111-25.657-12.561-43.528-28.237-63.667-.984-1.264,1.029-2.654,2-1.406,15.946,20.486,25.5,38.918,28.6,65.073Z" transform="translate(-38.438 -18.021)" fill="#002b2b"/>
            <path id="Trazado_243523" data-name="Trazado 243523" d="M434.5,333.185A18.839,18.839,0,0,1,439.98,331c5.755-1.29,11.722-.245,17.52.8a6.208,6.208,0,0,0-3.765,1.661c-7.3,3.414-13.085,8.848-17.87,15.393a121.334,121.334,0,0,1-1.362-15.671" transform="translate(-45.509 -18.197)" fill="#00796c"/>
            <path id="Trazado_243524" data-name="Trazado 243524" d="M419.359,357.872c1.494-1.655,3.321-3.044,4.349-5.055,1.526-2.985.97-6.647,1.689-9.952a13.512,13.512,0,0,1,3.439-6.37,126.241,126.241,0,0,0,1.98,17.314c-5.663,9.106-9.834,19.748-13.629,29.956-.636.4-1.016.63-1.016.63s-1.322-21.531,3.187-26.523" transform="translate(-43.57 -18.532)" fill="#00796c"/>
            <path id="Trazado_243525" data-name="Trazado 243525" d="M448.838,348.145c-.294,3.326-1.058,6.827-3.32,9.164-1.756,1.813-4.183,2.7-6.238,4.107-3.808.048-7.622-.075-11.439-.228,5.983-11.83,13.717-22.179,25.2-27.546a10.687,10.687,0,0,0-2.928,4.6c-1.037,3.157-.978,6.576-1.271,9.9" transform="translate(-44.811 -18.375)" fill="#005c52"/>
            <path id="Trazado_243526" data-name="Trazado 243526" d="M434.67,367.276c-1.029,1.945-1.735,4.143-2.714,6.135-1.862,3.784-11.465,10.043-14.628,12.032,2.284-6.141,4.7-12.441,7.5-18.469,3.283.136,6.565.265,9.843.3" transform="translate(-43.71 -20.211)" fill="#005c52"/>
            <path id="Trazado_243527" data-name="Trazado 243527" d="M413.245,393.934H411.3a96.677,96.677,0,0,1,25.191-49.275c.81-.852,2.369.187,1.55,1.049a95.212,95.212,0,0,0-24.794,48.227" transform="translate(-43.079 -18.964)" fill="#002b2b"/>
            <path id="Trazado_243528" data-name="Trazado 243528" d="M400.695,299.624a98.057,98.057,0,0,0-6.84-17.482,98.957,98.957,0,0,0,5.282-16.829c.413.222.824.447,1.229.686a28.844,28.844,0,0,1,10.772,11.178,112.2,112.2,0,0,1-10.443,22.448" transform="translate(-41.252 -14.612)" fill="#005c52"/>
            <path id="Trazado_243529" data-name="Trazado 243529" d="M412.864,304.595a20.119,20.119,0,0,0,2.235,5.688,100.694,100.694,0,0,1-8.782,12.594c-.842-5.81-1.9-11.554-3.286-17.13a123.52,123.52,0,0,0,11.147-21.92,19.678,19.678,0,0,1,.449,5.682c-.359,5.085-2.7,10.083-1.765,15.086" transform="translate(-42.213 -15.632)" fill="#005c52"/>
            <path id="Trazado_243530" data-name="Trazado 243530" d="M417.633,316.15c3.828,9.784-6.781,39.111-6.781,39.111s-.45-.511-1.194-1.383c-.552-7.891-1.189-15.965-2.175-23.97a106.859,106.859,0,0,0,10.15-13.758" transform="translate(-42.679 -17.412)" fill="#005c52"/>
            <path id="Trazado_243531" data-name="Trazado 243531" d="M393.409,263.282a93,93,0,0,1-4.173,14.177,65.827,65.827,0,0,0-11.883-14.748,9.732,9.732,0,0,0-4.707-4.151c7.03.975,14.212,2.008,20.763,4.723" transform="translate(-39.03 -14.24)" fill="#005c52"/>
            <path id="Trazado_243532" data-name="Trazado 243532" d="M377.458,287.541c.1-.6.205-1.2.322-1.789.979-4.915,2.5-9.8,2.345-14.816a16.625,16.625,0,0,0-2.268-7.984c8.977,8.263,14.968,18.679,19.08,30.212a104.6,104.6,0,0,0-19.479-5.623" transform="translate(-39.534 -14.482)" fill="#00796c"/>
            <path id="Trazado_243533" data-name="Trazado 243533" d="M386.54,311.835c-2.4-3.41-5.978-5.941-7.9-9.7a17.79,17.79,0,0,1-1.651-8.973,94.837,94.837,0,0,1,20.891,6.384,1.987,1.987,0,0,0,.621.159,145.211,145.211,0,0,1,3.867,16.192c-5.245-1.495-10.514-2.907-15.824-4.062" transform="translate(-39.482 -16.146)" fill="#00796c"/>
            <path id="Trazado_243534" data-name="Trazado 243534" d="M404.487,321.641c1.706,10.695,2.606,21.678,3.352,32.329-3.7-4.34-14.859-17.835-15.938-24.143-.682-3.986-.661-8.217-1.782-12.026,4.816,1.138,9.6,2.464,14.368,3.84" transform="translate(-40.86 -17.503)" fill="#00796c"/>
            <path id="Trazado_243535" data-name="Trazado 243535" d="M402.677,390.678a155.533,155.533,0,0,0-8.991-103.65c-.767-1.68,1.965-2.576,2.723-.917a158.011,158.011,0,0,1,9.23,104.567Z" transform="translate(-41.22 -15.709)" fill="#002b2b"/>
          </g>
        </g>
      </g>
    </g>
  </g>
</svg>
