<svg xmlns="http://www.w3.org/2000/svg" xmlns:xlink="http://www.w3.org/1999/xlink" width="653.488" height="350.268" viewBox="0 0 653.488 350.268">
  <defs>
    <clipPath id="clip-path">
      <rect id="Rectángulo_55806" data-name="Rectángulo 55806" width="653.488" height="350.268" fill="none"/>
    </clipPath>
    <clipPath id="clip-path-3">
      <rect id="Rectángulo_55804" data-name="Rectángulo 55804" width="149.133" height="47.139" fill="none"/>
    </clipPath>
  </defs>
  <g id="Grupo_599864" data-name="Grupo 599864" transform="translate(1966.744 863.634)">
    <g id="Grupo_599825" data-name="Grupo 599825" transform="translate(-1966.744 -863.634)">
      <g id="Grupo_599824" data-name="Grupo 599824" clip-path="url(#clip-path)">
        <g id="Grupo_599823" data-name="Grupo 599823">
          <g id="Grupo_599822" data-name="Grupo 599822" clip-path="url(#clip-path)">
            <path id="Trazado_246997" data-name="Trazado 246997" d="M95.978,349S18.388,293.28,53.745,220.562,153.1,258.834,197.711,156.2,252.313-25.015,371.069,7.4,441.145,124.866,503.3,133.409s111.26,39.347,82.778,105.956,42.233,110.35,42.233,110.35Z" transform="translate(-7.044 0)" fill="#e6d2d2"/>
            <path id="Trazado_246998" data-name="Trazado 246998" d="M700.484,14.189l-20.879,2.123,6.512,5.31L633.84,84.351,602.227,44.327,566.2,84.707,551.773,62.216l-28.21,28.62,9.089,9.089,16.909-16.91,15.388,22.853,37.113-41.89,30.977,40.477,63.041-74.71,6.527,5.322Z" transform="translate(-82.855 -2.245)" fill="#0e8282"/>
            <path id="Trazado_246999" data-name="Trazado 246999" d="M661.232,347.288s-8.614-10.05-.531-16.434c0,0,5.9-3.575,10.719-3.284,0,0-6.822,11.44-4.615,12.577s6.683-13.295,6.683-13.295,13.437-1.3,17.759.775c0,0-11.487,9.4-9.068,9.96s14.827-8.667,14.827-8.667,12.506,2.128,11.839,9.757-4.977,9.985-6.87,9.782-12.972-4.432-13.214-2.88,6.428,6.624,11.1,6.861c0,0-8.816,9.723-14.677,6.917s-6.359-7.254-10.013-8.923-6.771-1.664-5.263.037,8.119,3.355,10.208,7.05,3.963,6.187-2.1,5.274-15.917-5.348-16.349-10.428Z" transform="translate(-104.01 -51.661)" fill="#eee1ad"/>
            <path id="Trazado_247000" data-name="Trazado 247000" d="M702.029,341.21s-33.967-1.309-41.468,8.4a24.565,24.565,0,0,1-6.763,9.492l-.8,2.169s5.886-6.206,7.992-6.582c0,0-3.294-12.034,41.035-13.485" transform="translate(-103.339 -53.988)" fill="#eee1ad"/>
            <path id="Trazado_247001" data-name="Trazado 247001" d="M652.481,362.322a21.329,21.329,0,0,0-7.8,15.026l1.323.118s2.328-9.961,6.537-13.857-.063-1.287-.063-1.287" transform="translate(-102.023 -57.203)" fill="#eee1ad"/>
            <path id="Trazado_247002" data-name="Trazado 247002" d="M616.749,329.518s13.7-7.674,7.309-18.089c0,0-5.116-6.395-10.6-8.04,0,0,2.923,15.531,0,15.9s-2.01-17.54-2.01-17.54-14.364-2.875-20.028-2.327c0,0,8.882,11.1,5.959,10.731s-12.973-15.714-12.973-15.714-14.8-2.741-17.176,6.029,1.462,13.156,3.655,13.7,16.262.365,15.9,2.193-9.867,4.751-15.166,3.106c0,0,5.847,14.435,13.521,13.7s10.05-5.481,14.8-5.847,8.223.913,5.848,2.193-10.415.419-14.253,3.681-6.943,5.272.183,6.734,19.917.548,22.475-4.933Z" transform="translate(-89.647 -46.531)" fill="#eee1ad"/>
            <path id="Trazado_247003" data-name="Trazado 247003" d="M575.405,304.932s38.371,12.425,42.756,26.311a29.148,29.148,0,0,0,3.655,13.338v2.741s-4.02-9.318-6.213-10.6c0,0,8.588-12.059-40.2-31.793" transform="translate(-91.059 -48.256)" fill="#eee1ad"/>
            <path id="Trazado_247004" data-name="Trazado 247004" d="M630.2,351.715a25.306,25.306,0,0,1,2.544,19.924l-1.522-.409s1.477-12.048-1.619-18.107.6-1.408.6-1.408" transform="translate(-99.44 -55.39)" fill="#eee1ad"/>
            <path id="Trazado_247005" data-name="Trazado 247005" d="M649.867,314.822s-18.064-10.116-9.634-23.845c0,0,6.743-8.43,13.97-10.6,0,0-3.854,20.473,0,20.954s2.649-23.122,2.649-23.122,19.028-9.152,26.494-8.43c0,0-11.8,19.992-7.948,19.509s17.1-20.713,17.1-20.713,19.51-3.614,22.641,7.948-1.928,17.342-4.817,18.065-21.437.481-20.955,2.89,13.006,6.263,19.991,4.094c0,0-7.707,19.028-17.823,18.065s-13.247-7.226-19.509-7.708-10.839,1.2-7.708,2.891,13.729.552,18.787,4.853,9.152,6.949-.241,8.876-26.253.722-29.625-6.5Z" transform="translate(-100.964 -42.419)" fill="#ffd947"/>
            <path id="Trazado_247006" data-name="Trazado 247006" d="M707.554,282.413s-50.58,16.378-56.36,34.683a38.424,38.424,0,0,1-4.817,17.582v3.613s5.3-12.284,8.189-13.97c0,0-11.321-15.9,52.988-41.909" transform="translate(-102.291 -44.693)" fill="#ffd947"/>
            <path id="Trazado_247007" data-name="Trazado 247007" d="M645.489,344.082s-7.8,11.845-3.354,26.264l2.007-.54s-1.948-15.881,2.133-23.869-.786-1.856-.786-1.856" transform="translate(-101.403 -54.096)" fill="#ffd947"/>
            <path id="Trazado_247008" data-name="Trazado 247008" d="M644.725,406.2a35.384,35.384,0,0,0,35.385-35.385H609.34A35.384,35.384,0,0,0,644.725,406.2" transform="translate(-96.43 -58.683)" fill="#99c2c2"/>
            <path id="Trazado_247009" data-name="Trazado 247009" d="M654.242,405.929a35.406,35.406,0,0,1-39.779-35.114h8.79a35.391,35.391,0,0,0,30.989,35.114" transform="translate(-97.24 -58.682)" fill="#c4d5d5"/>
            <path id="Trazado_247010" data-name="Trazado 247010" d="M676.14,409.8H613.124a4.366,4.366,0,0,0-4.366,4.365h71.747a4.366,4.366,0,0,0-4.365-4.365" transform="translate(-96.338 -64.853)" fill="#99c2c2"/>
            <rect id="Rectángulo_55802" data-name="Rectángulo 55802" width="72.738" height="1.086" transform="translate(511.746 312.133)" fill="#0e8282"/>
            <path id="Trazado_247011" data-name="Trazado 247011" d="M350.26,186.144l-15.292,181.83s-1.6,11.023,6.6,11.042c13.481.032,67.1,0,67.1,0s-10.146-2.295-10.023-7.457c.145-6.085,17.874-187.136,17.874-187.136Z" transform="translate(-52.99 -29.185)" fill="#cb3928"/>
            <path id="Trazado_247012" data-name="Trazado 247012" d="M413.838,375.1c-2.651.008-53.861.168-66.988,0-5.721-.071-6.725-5.087-6.772-8.333a16.294,16.294,0,0,1,.173-2.706l.4-4.726,1.013-12.045.895-10.641,1.151-13.675.969-11.543,10.866-129.2,66.251-1.719s-7.466,75.768-12.748,130.922c-.589,6.145-1.151,12.037-1.669,17.537q-.253,2.635-.487,5.145c-.489,5.219-.937,10.011-1.327,14.242-.205,2.23-.395,4.3-.566,6.2-.674,7.438-1.069,12.188-1.075,13.091a7.587,7.587,0,0,0,.13,1.471c1.088,5.8,8.791,5.985,9.786,5.985" transform="translate(-53.818 -28.565)" fill="#fb8e86"/>
            <path id="Trazado_247013" data-name="Trazado 247013" d="M480.088,68.92H162.017l37.249,149.624,5.1,20.491,17.349,69.691H544.034Z" transform="translate(-25.64 -10.907)" fill="#fb8e86"/>
            <path id="Trazado_247014" data-name="Trazado 247014" d="M161.046,68.92l-5.162,1.721,58,243.291,6.864-5.2Z" transform="translate(-24.669 -10.907)" fill="#cb3928"/>
            <path id="Trazado_247015" data-name="Trazado 247015" d="M224.786,359.016H545.12l8.846-5.2H231.65Z" transform="translate(-35.573 -55.992)" fill="#cb3928"/>
            <rect id="Rectángulo_55803" data-name="Rectángulo 55803" width="69.357" height="3.296" transform="translate(301.705 346.604)" fill="#cb3928"/>
            <path id="Trazado_247016" data-name="Trazado 247016" d="M407.547,359.993l-.359,2.519L341.962,375.69l.895-10.642.427-5.055Z" transform="translate(-54.116 -56.97)" fill="#cb3928"/>
            <path id="Trazado_247017" data-name="Trazado 247017" d="M413.839,407.818c-2.651.008-53.861.168-66.988,0-5.721-.071-6.725-5.087-6.772-8.333L405,387.271c-.674,7.438-1.069,12.188-1.075,13.091a7.592,7.592,0,0,0,.13,1.471c1.088,5.8,8.791,5.985,9.786,5.985" transform="translate(-53.818 -61.287)" fill="#ee4f42"/>
            <g id="Grupo_599821" data-name="Grupo 599821" transform="translate(184.343 250.681)" opacity="0.2">
              <g id="Grupo_599820" data-name="Grupo 599820">
                <g id="Grupo_599819" data-name="Grupo 599819" clip-path="url(#clip-path-3)">
                  <path id="Trazado_247018" data-name="Trazado 247018" d="M368.133,297.837l-137.4,47.111L219,297.81Z" transform="translate(-219 -297.81)" fill="#ee4f42"/>
                </g>
              </g>
            </g>
            <path id="Trazado_247019" data-name="Trazado 247019" d="M480.087,68.92H162.016l47.938,192.668,321.526.061Z" transform="translate(-25.639 -10.907)" fill="#ef6f6c"/>
            <path id="Trazado_247020" data-name="Trazado 247020" d="M431.3,325.217a10.9,10.9,0,0,0-10.222-8.558c-4.726,0-7.813,3.832-6.894,8.558a10.9,10.9,0,0,0,10.221,8.558c4.726,0,7.813-3.832,6.895-8.558" transform="translate(-65.52 -50.112)" fill="#8f4240"/>
            <path id="Trazado_247021" data-name="Trazado 247021" d="M519.171,255.237H221.36L187.633,120.883l-2.585-10.3-2.207-8.788L177.67,81.184H471.188l5.68,20.607,2.423,8.788,2.84,10.3Z" transform="translate(-28.117 -12.848)" fill="#fff"/>
            <path id="Trazado_247022" data-name="Trazado 247022" d="M471.187,81.184H177.669l5.172,20.607H476.867Z" transform="translate(-28.117 -12.848)" fill="#f8eaea"/>
            <path id="Trazado_247023" data-name="Trazado 247023" d="M194.014,89.188a1.946,1.946,0,0,0-1.933,2.576A3.519,3.519,0,0,0,195.3,94.34a1.946,1.946,0,0,0,1.934-2.577,3.518,3.518,0,0,0-3.218-2.576" transform="translate(-30.385 -14.114)" fill="#e9f3fe"/>
            <path id="Trazado_247024" data-name="Trazado 247024" d="M204.182,89.188a1.946,1.946,0,0,0-1.933,2.576,3.519,3.519,0,0,0,3.218,2.577,1.946,1.946,0,0,0,1.933-2.577,3.518,3.518,0,0,0-3.218-2.576" transform="translate(-31.994 -14.114)" fill="#e9f3fe"/>
            <path id="Trazado_247025" data-name="Trazado 247025" d="M218.349,91.764a3.518,3.518,0,0,0-3.218-2.576,1.946,1.946,0,0,0-1.934,2.576,3.52,3.52,0,0,0,3.219,2.576,1.946,1.946,0,0,0,1.934-2.576" transform="translate(-33.726 -14.114)" fill="#e9f3fe"/>
            <path id="Trazado_247026" data-name="Trazado 247026" d="M644.931,387.906l-3.1,13.056-4.643-.026-.17-13.03Z" transform="translate(-100.81 -61.387)" fill="#e49963"/>
            <path id="Trazado_247027" data-name="Trazado 247027" d="M597.712,388.244l-8.821,12.5-3.438-4.414,5.309-9.8Z" transform="translate(-92.65 -61.169)" fill="#e49963"/>
            <path id="Trazado_247028" data-name="Trazado 247028" d="M626.314,183.807a8.992,8.992,0,0,1,4.868-.931,2.28,2.28,0,0,0-1.027-.487,7.545,7.545,0,0,1,2.693.7c11.59-4.466,13.412,12.6,13.168,16.564s3.895,5.258,9.924,8.382c11.505,5.96,12.516,13.941,12.516,13.941-.09.053-.184.113-.283.182-.571-.967-1.746-2.783-2.737-3.057a40.725,40.725,0,0,1,1.594,3.883c-3.394,2.582-9.743,8.3-14.168,12.359a6.493,6.493,0,0,0-.3-2.513l-.546,3.292c-2.368,2.177-4,3.709-4,3.709.292-3.2-14.49-20.111-22.2-25.175-1.878-2.763-2.545-7.646-2.6-8.031a21.079,21.079,0,0,0,1.578,7.266c-6.53-6.01-2.729-27.672,1.52-30.086" transform="translate(-98.319 -28.858)" fill="#163560"/>
            <path id="Trazado_247029" data-name="Trazado 247029" d="M627.2,218.884c-.039.019,3.724,1.971,6.554,1.2,2.662-.727,4.4-4.178,4.364-4.185-1.127-.225-1.452-1.774-1.428-8.43l-.509.1-8.57,1.7s.2,2.7.2,5.237c.006,2.132-.124,4.155-.612,4.383" transform="translate(-99.257 -32.832)" fill="#e49963"/>
            <path id="Trazado_247030" data-name="Trazado 247030" d="M636.923,187.011a6.851,6.851,0,0,0-9.534-.23s3.088-.534,9.534.23" transform="translate(-99.286 -29.267)" fill="#e37970"/>
            <path id="Trazado_247031" data-name="Trazado 247031" d="M627.692,209.282s.2,2.7.2,5.237c4.795-.136,7.329-4.51,8.368-6.934Z" transform="translate(-99.334 -32.851)" fill="#d68d5d"/>
            <path id="Trazado_247032" data-name="Trazado 247032" d="M636.132,203.167a25.209,25.209,0,0,0,3.116-7.365c.431-2.424-.8-11.409-9.832-10.115a12.265,12.265,0,0,0-5.088,1.923c-1.96,1.324-4.79,4.183-1.626,12.023l.822,2.648Z" transform="translate(-98.319 -29.365)" fill="#163560"/>
            <path id="Trazado_247033" data-name="Trazado 247033" d="M587.117,375.625l4.542.139,4.917.151A97.042,97.042,0,0,0,614.3,343c.149-.471.3-.947.471-1.43,3.486-10.166,10.714-22.926,14.522-34.475.607-1.839,1.151-3.571,1.64-5.21.156-.524.309-1.04.454-1.548a122.47,122.47,0,0,0,4.368-23l-27.5.22a512.618,512.618,0,0,1-21.138,98.065" transform="translate(-92.913 -43.89)" fill="#2b478b"/>
            <path id="Trazado_247034" data-name="Trazado 247034" d="M616.054,252.125c.069,13.087-1.92,18.7-1.92,18.7a36.955,36.955,0,0,0,25.771,1.579c.165-.051,11.588-2.659,11.588-2.659-.234-.529-2.316-9.349-2.545-9.835-2.955-6.346-5.2-9.128-5.549-11.079a41.5,41.5,0,0,1-.34-10.965,87.929,87.929,0,0,1,3.394-17.219,89.426,89.426,0,0,1-11.354-3.88c-.913,1.136-3.7,2.326-6.125,2.272-2.788-.061-3.692-1.255-3.547-2.558-2.971,1.653-5.341,3.215-5.341,3.215-2.525,4.385-7.646,8.645-8.017,15.373-.092,1.654,3.983,16.688,3.985,17.055" transform="translate(-96.861 -34.259)" fill="#e7f1fd"/>
            <path id="Trazado_247035" data-name="Trazado 247035" d="M593.453,232.682c4.037-4.716,14.5-14.944,25.292-16.2l-9.315,18.146a8.029,8.029,0,0,1-3.281,4.923,54.073,54.073,0,0,1-15.347,6.4,80.625,80.625,0,0,1-13.771-8.365c-2.5-1.829-6.882-8.806-6.882-8.806l1.183-3.959s7.448,4.164,10.108,5.364c1.516.684,5.006,2.318,7.466,3.474a3.837,3.837,0,0,0,4.548-.981" transform="translate(-90.228 -34.259)" fill="#a8d29f"/>
            <path id="Trazado_247036" data-name="Trazado 247036" d="M625.08,208.86s11.345.187,11.353-6.88,1.478-11.8-5.765-12.221-8.654,2.277-9.231,4.636.692,14.235,3.643,14.465" transform="translate(-98.322 -30.023)" fill="#e49963"/>
            <path id="Trazado_247037" data-name="Trazado 247037" d="M626.289,189.292s3.106,8.291,7.874,9.517,6.835-.051,6.835-.051a13.5,13.5,0,0,1-4.416-7.976s-7.949-5.436-10.293-1.49" transform="translate(-99.112 -29.729)" fill="#163560"/>
            <path id="Trazado_247038" data-name="Trazado 247038" d="M626.123,190.107s-2.32,1.852-2.885,3.652-.82,5.5-1.9,5.378c0,0-2.34-5.635.29-8.824,2.79-3.38,4.5-.205,4.5-.205" transform="translate(-98.177 -29.871)" fill="#163560"/>
            <path id="Trazado_247039" data-name="Trazado 247039" d="M569.7,225.448a7.081,7.081,0,0,0-7.936-4.949c-.727.227-2.853,1.075-1.494,3.35,1,1.677,1.434.811,3.009,3.065s3.284,2.763,5.237,2.493Z" transform="translate(-88.593 -34.882)" fill="#e49963"/>
            <path id="Trazado_247040" data-name="Trazado 247040" d="M641.792,402.55a12.587,12.587,0,0,0,.591,5.353s.76,3.463-2.65,3.528-4.247-.258-3.861-2.381,1.12-5.8,1.12-5.8Z" transform="translate(-100.615 -63.705)" fill="#e49963"/>
            <path id="Trazado_247041" data-name="Trazado 247041" d="M635.5,413.9s.072.045.215.114h6.675a1.643,1.643,0,0,0,.189-.114,16.758,16.758,0,0,0-.244-5.007c-3.863,3.54-6.279-.088-6.279-.088-.628,1.513-.555,5.094-.555,5.094" transform="translate(-100.57 -64.694)" fill="#82b378"/>
            <path id="Trazado_247042" data-name="Trazado 247042" d="M575.691,408.7s6.287-6.979,8.217-10.53l4.675,2.4-10.451,9.815-2.444-.322Z" transform="translate(-91.104 -63.012)" fill="#e49963"/>
            <path id="Trazado_247043" data-name="Trazado 247043" d="M571.057,412.781h8.6c.829-.62,1.6-2.052,2.565-3.976a4.217,4.217,0,0,1,2.847-1.9v5.812h1.785l1.69-6.178c1.112-2.046.088-3.9-.7-5.517-.911,0-3.362.621-8.007,5.855a6.085,6.085,0,0,1-4.886,2.279.393.393,0,0,1-.069.036c-2.8,1.26-3.6,2.826-3.832,3.591" transform="translate(-90.371 -63.462)" fill="#82b378"/>
            <path id="Trazado_247044" data-name="Trazado 247044" d="M624.709,216.483s-6.564,16.215-6.757,19.5-.773,53.666-.773,53.666.386,2.316-4.054,1.351-5.6-1.93-5.6-1.93,4.247-31.08,3.088-41.89,8.88-28.442,8.88-28.442Z" transform="translate(-96.143 -34.259)" fill="#a8d29f"/>
            <path id="Trazado_247045" data-name="Trazado 247045" d="M592.513,379.51l4.917.151a97.042,97.042,0,0,0,17.727-32.914q.222-.706.471-1.43c3.486-10.166,10.714-22.926,14.522-34.475.606-1.839,1.151-3.572,1.639-5.21q.235-.787.454-1.548l-4.05-3.073s-12.16,19.69-15.924,38.22c-3.27,16.1-16.366,35.464-19.756,40.28" transform="translate(-93.767 -47.635)" fill="#233862"/>
            <path id="Trazado_247046" data-name="Trazado 247046" d="M607.851,248.6l.239.734,12.728-4.137a.489.489,0,0,0,.081-.453.361.361,0,0,0-.319-.281Z" transform="translate(-96.194 -38.686)" fill="#163560"/>
            <path id="Trazado_247047" data-name="Trazado 247047" d="M633.891,339.973c-.07,9.011.386,29.729,1.56,38.305h4.355c2.407,0,3.608-.035,3.608-.035,2.944-14.913,5.039-27.252,6.563-37.884,1.251-8.726,2.363-16.206,3.218-22.646.861-6.481,1.46-11.907,1.674-16.492.033-.722.058-1.425.072-2.107s.017-1.351.011-2L631.188,294.8c.3,15.789,2.742,39.934,2.7,45.172" transform="translate(-99.887 -46.653)" fill="#2b478b"/>
            <path id="Trazado_247048" data-name="Trazado 247048" d="M641.426,379.485c2.407,0,3.608-.035,3.608-.035,2.945-14.913,5.039-27.252,6.564-37.884,1.251-8.726,2.363-16.206,3.218-22.646.86-6.481,1.459-11.907,1.673-16.492l-8.72,5.129s5.566,1.963,3.442,16.827-6.83,53-9.785,55.1" transform="translate(-101.507 -47.86)" fill="#233862"/>
            <path id="Trazado_247049" data-name="Trazado 247049" d="M638.566,288.744s1.673,6.048,7.465,5.276,14.027-4.247,14.027-4.247-2.475-7.82-5.552-18.093c-3.726-12.438-8.337-28.472-10.511-38.586a62.651,62.651,0,0,1-1.182-6.895l-4.8-9.322s-7.163,16.078-7.55,20.132,8.108,51.735,8.108,51.735" transform="translate(-99.77 -34.321)" fill="#a8d29f"/>
            <path id="Trazado_247050" data-name="Trazado 247050" d="M642.754,236.4l-6.342-19.529a97.994,97.994,0,0,1,12.029,4.409s2.513,3.24,4.068,10.714c0,0,1.642,17.944-2.025,24.507,0,0-11.582,2.316-30.115-4.055V248.2s20.27,1.061,24.42,1.545Z" transform="translate(-98.175 -34.321)" fill="#e49963"/>
            <path id="Trazado_247051" data-name="Trazado 247051" d="M640.4,248.551c.258,6.564,1.8,19.3,15.572,26.124.037.017.074.037.11.052-3.726-12.438-8.337-28.472-10.511-38.586-2.529,3.78-5.312,8.8-5.172,12.409" transform="translate(-101.344 -37.37)" fill="#82b378"/>
            <path id="Trazado_247052" data-name="Trazado 247052" d="M639.3,216.876s11.755.828,14.587,7.134,3.732,27.284.129,33.461c0,0-4.961,1.412-13.736-.228l-.325-.061s-2.8-6.854-.29-8.2c0,0,7.4.386,6.628-2.059s-6.993-30.042-6.993-30.042" transform="translate(-101.063 -34.321)" fill="#a8d29f"/>
            <path id="Trazado_247053" data-name="Trazado 247053" d="M620.932,253.922a10.127,10.127,0,0,1-1.959-3.955c-.344-2-1.413-3.479-4.2-3.845s-3.986-.407-3.978.38,2.277,6.27,6.276,9.546,3.861-2.125,3.861-2.125" transform="translate(-96.66 -38.909)" fill="#e49963"/>
            <path id="Trazado_247054" data-name="Trazado 247054" d="M606.763,250.081l.915-.709.239.735Z" transform="translate(-96.022 -39.464)" fill="#163560"/>
            <path id="Trazado_247055" data-name="Trazado 247055" d="M552.8,218.818a.53.53,0,0,1-.278-.078l-74.341-45.2a.535.535,0,1,1,.556-.915l74.341,45.2a.536.536,0,0,1-.279.993" transform="translate(-75.633 -27.305)" fill="#163560"/>
            <path id="Trazado_247056" data-name="Trazado 247056" d="M281.794,150.055c-1.575,1.334-4.762,3.838-6.034,4.9l3.224,40.323L245.8,180.446l-6.034,4.9a40.454,40.454,0,1,0,79.671,9.932c0-22.34-15.3-45.225-37.641-45.225" transform="translate(-37.748 -23.747)" fill="#99c2c2"/>
            <path id="Trazado_247057" data-name="Trazado 247057" d="M267.755,146.022a40.476,40.476,0,0,0-36,30.391l39.22,9.932,6.035-4.9Z" transform="translate(-36.676 -23.108)" fill="#aa413e"/>
            <path id="Trazado_247058" data-name="Trazado 247058" d="M286.152,149.9q-1.628,0-3.224.128l3.224,40.323-39.22-9.932a40.455,40.455,0,1,0,39.22-30.519" transform="translate(-38.883 -23.723)" fill="#c4d5d5"/>
            <path id="Trazado_247059" data-name="Trazado 247059" d="M274.922,140.2a40.476,40.476,0,0,0-36,30.391l39.22,9.932Z" transform="translate(-37.811 -22.187)" fill="#c65447"/>
            <path id="Trazado_247060" data-name="Trazado 247060" d="M275.863,153.832a.535.535,0,0,1-.379-.914l24.151-24.151H454.967a.535.535,0,1,1,0,1.071H300.08l-23.837,23.838a.534.534,0,0,1-.379.157" transform="translate(-43.571 -20.378)" fill="#163560"/>
            <path id="Trazado_247061" data-name="Trazado 247061" d="M331.857,206.941a.535.535,0,0,1-.379-.914l26-26H471.97a.535.535,0,0,1,0,1.071H357.922l-25.686,25.687a.534.534,0,0,1-.379.157" transform="translate(-52.433 -28.49)" fill="#163560"/>
            <path id="Trazado_247062" data-name="Trazado 247062" d="M462.148,123.131H303.611L300.4,118.2H458.934Z" transform="translate(-47.539 -18.706)" fill="#f8eaea"/>
            <path id="Trazado_247063" data-name="Trazado 247063" d="M476.258,175.179H361.641l-3.214-4.928H473.045Z" transform="translate(-56.722 -26.943)" fill="#f8eaea"/>
            <path id="Trazado_247064" data-name="Trazado 247064" d="M445.186,268.378H402.953l-20.347-72.359H424.84Z" transform="translate(-60.548 -31.02)" fill="#f8eaea"/>
            <path id="Trazado_247065" data-name="Trazado 247065" d="M508.138,268.378H465.9l-20.347-72.359h42.234Z" transform="translate(-70.511 -31.02)" fill="#f8eaea"/>
            <path id="Trazado_247066" data-name="Trazado 247066" d="M482.319,204.293s14.362,16.118,15.051,22.283-6.838,15.811-6.838,15.811Z" transform="translate(-76.328 -32.33)" fill="#aa413e"/>
            <path id="Trazado_247067" data-name="Trazado 247067" d="M471.408,405.237s-.306,5.431-1.19,7.768H452.261a3.33,3.33,0,0,1,2.646-2.091c2.813-.542,7.52-2.719,9.223-6.816,1.792-4.308,7.279,1.138,7.279,1.138" transform="translate(-71.571 -63.687)" fill="#163560"/>
            <path id="Trazado_247068" data-name="Trazado 247068" d="M496.865,405.237s-.306,5.431-1.188,7.768H477.719a3.323,3.323,0,0,1,2.646-2.091c2.811-.542,7.519-2.719,9.222-6.816,1.792-4.308,7.277,1.138,7.277,1.138" transform="translate(-75.6 -63.687)" fill="#163560"/>
            <path id="Trazado_247069" data-name="Trazado 247069" d="M462.349,292.286s2.516,17.735,11.9,49.216,10.666,45.115,10.666,45.115l10.07-.311s.086-34.406-4.241-50.237S489.814,279,489.814,279Z" transform="translate(-73.168 -44.152)" fill="#163560"/>
            <path id="Trazado_247070" data-name="Trazado 247070" d="M456.526,280.151a473.858,473.858,0,0,0,3.839,59.538c4.2,32.814,2.774,46.742,2.774,46.742l10.05.369s6.006-32.826,4.284-49.25,8.225-56.358,8.225-56.358Z" transform="translate(-72.245 -44.335)" fill="#1c468a"/>
            <path id="Trazado_247071" data-name="Trazado 247071" d="M477.178,203.369l-5.354,3.869-7.738-1.589c.107-.689.618-3.541,1.083-6.126l.082-.454c.4-2.2.742-4.088.742-4.088l7.227-3.514,2.694-1.31c-.007.046-.209,2.44-.237,2.79a22.083,22.083,0,0,0,1.5,10.423" transform="translate(-73.443 -30.093)" fill="#ffb27d"/>
            <path id="Trazado_247072" data-name="Trazado 247072" d="M489.235,271.27c-1.555,7.812-27.419,8.739-34.086,1.647-.758-.808-.8-4.569-.509-9.64.559-9.907,2.355-24.81,2.425-32.424a66.289,66.289,0,0,1,1.1-10.853,95.366,95.366,0,0,1,3.28-12.99s12.633-4.5,15-3.735c11.388,3.687,14.343,60.181,12.79,67.994" transform="translate(-71.922 -32.155)" fill="#c65447"/>
            <path id="Trazado_247073" data-name="Trazado 247073" d="M454.671,266.161c.56-9.907,2.356-24.81,2.426-32.424a66.189,66.189,0,0,1,1.1-10.853l7.6-1.477s7.429,33.443-11.129,44.754" transform="translate(-71.953 -35.038)" fill="#aa413e"/>
            <path id="Trazado_247074" data-name="Trazado 247074" d="M459.153,257.925a2.113,2.113,0,0,1-.57,2.28,3.977,3.977,0,0,0-1.544,3.486c.249,1.084,2.635,2.854,3.462,2.568s2.511-1.714,2.329-2.286,1.133-5.02-.884-6.733a1.589,1.589,0,0,0-2.794.685" transform="translate(-72.32 -40.611)" fill="#ffb27d"/>
            <path id="Trazado_247075" data-name="Trazado 247075" d="M465.481,205.349s-7.412,1.529-13.316,11.119-9.79,16.72-8.7,20.177,11,15.444,12.713,15.444a4.739,4.739,0,0,0,4.624-4.453s-6.981-11.53-5.606-13.258c.588-.737,9.064-8.321,10.273-4.9,2,5.668.015-24.134.015-24.134" transform="translate(-70.15 -32.497)" fill="#c65447"/>
            <path id="Trazado_247076" data-name="Trazado 247076" d="M475.34,193.3c-1.587,2.963-7.5,5.524-9.968,6.466.029-.152.056-.3.082-.454.4-2.2.742-4.088.742-4.088l7.228-3.514c1.6-.024,2.57.37,1.915,1.589" transform="translate(-73.646 -30.339)" fill="#fca56b"/>
            <path id="Trazado_247077" data-name="Trazado 247077" d="M462.842,191.342s11.642,4,13.791-4.026,5.1-12.918-2.242-15.812-9.613-.3-10.923,2.183-3.6,16.407-.627,17.655" transform="translate(-73.016 -26.939)" fill="#ffb27d"/>
            <path id="Trazado_247078" data-name="Trazado 247078" d="M464.2,172.091s.742,9.342,2.5,8.937,3.343-.707,3.087,2.109-2.689,6.067,2.715,6.566,13.17-14.857,11.686-17.763c-4.283-8.389-26.172-10.082-19.983.152" transform="translate(-73.288 -26.115)" fill="#163560"/>
            <path id="Trazado_247079" data-name="Trazado 247079" d="M465.858,203.023c.15-.07,9.318-3.051,10.315-2.689s1.585,2.486,1.585,2.486l-15,3.736s1.18-2.645,3.1-3.534" transform="translate(-73.233 -31.699)" fill="#aa413e"/>
            <path id="Trazado_247080" data-name="Trazado 247080" d="M46.31,389.929H201.847l32.541-133.306H78.852Z" transform="translate(-7.329 -40.611)" fill="#0b6868"/>
            <path id="Trazado_247081" data-name="Trazado 247081" d="M273.117,389.929H117.58L85.039,256.624H240.576Z" transform="translate(-13.458 -40.611)" fill="#99c2c2"/>
            <path id="Trazado_247082" data-name="Trazado 247082" d="M264.462,383.794H126.556L97.7,265.6H235.609Z" transform="translate(-15.462 -42.032)" fill="#fff"/>
            <path id="Trazado_247083" data-name="Trazado 247083" d="M46.31,413.8l33.035-6.338,32.106,6.338Z" transform="translate(-7.329 -64.482)" fill="#084e4e"/>
            <path id="Trazado_247084" data-name="Trazado 247084" d="M115,240.068a14.409,14.409,0,0,0-14.384,13.983h5.758A8.637,8.637,0,1,1,115,263.1a2.879,2.879,0,0,0,0,5.758,14.4,14.4,0,0,0,0-28.79" transform="translate(-15.923 -37.991)" fill="#1c468a"/>
            <path id="Trazado_247085" data-name="Trazado 247085" d="M158.323,240.068a14.409,14.409,0,0,0-14.384,13.983H149.7a8.637,8.637,0,1,1,8.626,9.049,2.879,2.879,0,0,0,0,5.758,14.4,14.4,0,0,0,0-28.79" transform="translate(-22.779 -37.991)" fill="#1c468a"/>
            <path id="Trazado_247086" data-name="Trazado 247086" d="M201.645,240.068a14.409,14.409,0,0,0-14.384,13.983h5.758a8.636,8.636,0,1,1,8.626,9.049,2.879,2.879,0,0,0,0,5.758,14.4,14.4,0,0,0,0-28.79" transform="translate(-29.635 -37.991)" fill="#1c468a"/>
            <path id="Trazado_247087" data-name="Trazado 247087" d="M244.967,240.068a14.409,14.409,0,0,0-14.384,13.983h5.758a8.637,8.637,0,1,1,8.626,9.049,2.879,2.879,0,0,0,0,5.758,14.4,14.4,0,0,0,0-28.79" transform="translate(-36.49 -37.991)" fill="#1c468a"/>
            <path id="Trazado_247088" data-name="Trazado 247088" d="M151.68,311.3H120.727l-5.606-20.9h30.954Z" transform="translate(-18.218 -45.956)" fill="#c4d5d5"/>
            <path id="Trazado_247089" data-name="Trazado 247089" d="M204.044,311.3H173.091l-5.606-20.9h30.954Z" transform="translate(-26.505 -45.956)" fill="#c4d5d5"/>
            <path id="Trazado_247090" data-name="Trazado 247090" d="M254.159,311.3H223.205L217.6,290.4h30.954Z" transform="translate(-34.436 -45.956)" fill="#c4d5d5"/>
            <path id="Trazado_247091" data-name="Trazado 247091" d="M161.38,345.735H130.426l-5.606-20.9h30.954Z" transform="translate(-19.753 -51.406)" fill="#c4d5d5"/>
            <path id="Trazado_247092" data-name="Trazado 247092" d="M213.744,345.735H182.79l-5.606-20.9h30.954Z" transform="translate(-28.04 -51.406)" fill="#c4d5d5"/>
            <path id="Trazado_247093" data-name="Trazado 247093" d="M263.859,345.735H232.905l-5.606-20.9h30.954Z" transform="translate(-35.971 -51.406)" fill="#c4d5d5"/>
            <path id="Trazado_247094" data-name="Trazado 247094" d="M171.365,380.893H140.412l-5.606-20.9h30.954Z" transform="translate(-21.333 -56.97)" fill="#c4d5d5"/>
            <path id="Trazado_247095" data-name="Trazado 247095" d="M223.729,380.893H192.776l-5.606-20.9h30.954Z" transform="translate(-29.62 -56.97)" fill="#c4d5d5"/>
            <path id="Trazado_247096" data-name="Trazado 247096" d="M273.844,380.893H242.891l-5.606-20.9h30.954Z" transform="translate(-37.551 -56.97)" fill="#c4d5d5"/>
            <path id="Trazado_247097" data-name="Trazado 247097" d="M78.91,256.623l.435,126.967L46.31,389.929Z" transform="translate(-7.329 -40.611)" fill="#0e8282"/>
            <path id="Trazado_247098" data-name="Trazado 247098" d="M652.906,415.9H.582a.582.582,0,0,1,0-1.164H652.906a.582.582,0,0,1,0,1.164" transform="translate(0 -65.633)" fill="#283250"/>
          </g>
        </g>
      </g>
    </g>
  </g>
</svg>
