<svg id="Grupo_599735" data-name="Grupo 599735" xmlns="http://www.w3.org/2000/svg" xmlns:xlink="http://www.w3.org/1999/xlink" width="125" height="125" viewBox="0 0 125 125">
  <defs>
    <clipPath id="clip-path">
      <rect id="Rectángulo_55572" data-name="Rectángulo 55572" width="125" height="125" fill="none"/>
    </clipPath>
  </defs>
  <g id="Grupo_599734" data-name="Grupo 599734" transform="translate(0 0)" clip-path="url(#clip-path)">
    <path id="Trazado_246712" data-name="Trazado 246712" d="M5.876,68.342h31.25a4.167,4.167,0,0,1,4.167,4.167v31.25a4.167,4.167,0,0,1-4.167,4.167H5.876a4.167,4.167,0,0,1-4.167-4.167V72.509a4.167,4.167,0,0,1,4.167-4.167" transform="translate(0.375 14.992)" fill="#ef6f6c"/>
    <rect id="Rectángulo_55567" data-name="Rectángulo 55567" width="10.417" height="16.666" transform="translate(22.917 83.333)" fill="#e9bcba"/>
    <path id="Trazado_246713" data-name="Trazado 246713" d="M38.338,68.342H71.67a4.166,4.166,0,0,1,4.167,4.167v31.25a4.166,4.166,0,0,1-4.167,4.167H38.338a4.167,4.167,0,0,1-4.167-4.167V72.509a4.167,4.167,0,0,1,4.167-4.167" transform="translate(7.496 14.992)" fill="#e9bcba"/>
    <path id="Trazado_246714" data-name="Trazado 246714" d="M72.508,68.342h31.25a4.167,4.167,0,0,1,4.167,4.167v31.25a4.167,4.167,0,0,1-4.167,4.167H72.508a4.167,4.167,0,0,1-4.167-4.167V72.509a4.167,4.167,0,0,1,4.167-4.167" transform="translate(14.992 14.992)" fill="#bf5856"/>
    <path id="Trazado_246715" data-name="Trazado 246715" d="M72.508,34.171h31.25a4.167,4.167,0,0,1,4.167,4.167V71.67a4.167,4.167,0,0,1-4.167,4.168H72.508a4.167,4.167,0,0,1-4.167-4.168V38.338a4.167,4.167,0,0,1,4.167-4.167" transform="translate(14.992 7.496)" fill="#ef6f6c"/>
    <rect id="Rectángulo_55568" data-name="Rectángulo 55568" width="10.417" height="16.666" transform="translate(104.166 41.667)" fill="#bf5856"/>
    <rect id="Rectángulo_55569" data-name="Rectángulo 55569" width="10.417" height="16.666" transform="translate(104.166 83.333)" fill="#e9bcba"/>
    <path id="Trazado_246716" data-name="Trazado 246716" d="M72.508,1.709h31.25a4.167,4.167,0,0,1,4.167,4.167v31.25a4.167,4.167,0,0,1-4.167,4.167H72.508a4.167,4.167,0,0,1-4.167-4.167V5.876a4.167,4.167,0,0,1,4.167-4.167" transform="translate(14.992 0.375)" fill="#bf5856"/>
    <rect id="Rectángulo_55570" data-name="Rectángulo 55570" width="10.417" height="16.666" transform="translate(104.166 2.084)" fill="#ef6f6c"/>
    <path id="Trazado_246717" data-name="Trazado 246717" d="M49.625,1.709l8.333,8.333L40.251,27.751l-8.333-8.334-8.334,8.334L1.709,49.625l8.333,8.333L31.917,36.084l8.333,8.333L66.291,18.375l8.333,8.333v-25Z" transform="translate(0.375 0.375)" fill="#ffd947"/>
    <path id="Trazado_246718" data-name="Trazado 246718" d="M55.423,25.628a4.167,4.167,0,1,1-4.167,4.167,4.167,4.167,0,0,1,4.167-4.167" transform="translate(11.244 5.622)" fill="#ccdcc2"/>
    <rect id="Rectángulo_55571" data-name="Rectángulo 55571" width="10.417" height="16.666" transform="translate(64.583 83.333)" fill="#ef6f6c"/>
    <path id="Trazado_246719" data-name="Trazado 246719" d="M73.379,65.635V60.707L68.67,59.579c-.658-1.591-.911-2.2-1.569-3.789l2.539-4.145c-1.883-1.884-1.6-1.6-3.485-3.485L62.011,50.7,58.223,49.13l-1.129-4.708H52.165L51.036,49.13,47.247,50.7,43.1,48.161c-1.884,1.884-1.6,1.6-3.485,3.485l2.539,4.145c-.658,1.59-.91,2.2-1.569,3.789l-4.709,1.128v4.929l4.709,1.129c.658,1.591.911,2.2,1.569,3.789L39.619,74.7,43.1,78.183l4.143-2.54,3.789,1.569,1.129,4.709h4.929l1.129-4.708,3.789-1.571,4.143,2.54c1.884-1.884,1.6-1.6,3.485-3.485L67.1,70.553c.658-1.59.91-2.2,1.569-3.789Zm-18.75,3.786a6.25,6.25,0,1,1,6.25-6.25A6.251,6.251,0,0,1,54.629,69.422Z" transform="translate(7.871 9.745)" fill="#0e8282"/>
    <path id="Trazado_246720" data-name="Trazado 246720" d="M44.7,83.567a29.066,29.066,0,0,1-4.49-1.88l1.927-3.695A24.925,24.925,0,0,0,45.985,79.6Z" transform="translate(8.822 17.109)" fill="#ffcbb1"/>
    <path id="Trazado_246721" data-name="Trazado 246721" d="M52.063,93.1a29.535,29.535,0,0,1-4.485-.343l.637-4.118a25.4,25.4,0,0,0,3.848.294A25,25,0,0,0,67.446,44.227l2.566-3.283A29.167,29.167,0,0,1,52.063,93.1" transform="translate(10.437 8.982)" fill="#ffcbb1"/>
    <path id="Trazado_246722" data-name="Trazado 246722" d="M59.849,41.828a24.9,24.9,0,0,0-3.861-1.254l.958-4.054a29,29,0,0,1,4.509,1.463Z" transform="translate(12.282 8.011)" fill="#ffcbb1"/>
    <path id="Trazado_246723" data-name="Trazado 246723" d="M36.311,86.093A29.167,29.167,0,0,1,56.5,35.879c.744,0,1.5.029,2.24.085l-.315,4.154c-.638-.049-1.285-.073-1.925-.073A25,25,0,0,0,39.2,83.086Z" transform="translate(5.997 7.871)" fill="#ffcbb1"/>
    <path id="Trazado_246724" data-name="Trazado 246724" d="M22.5,57.174a8.353,8.353,0,0,1-5.665-5.664.344.344,0,0,0-.665,0,8.349,8.349,0,0,1-5.663,5.664.344.344,0,0,0,0,.665A8.349,8.349,0,0,1,16.168,63.5a.344.344,0,0,0,.665,0A8.353,8.353,0,0,1,22.5,57.838a.345.345,0,0,0,0-.665" transform="translate(2.249 11.244)" fill="#ccdcc2"/>
    <path id="Trazado_246725" data-name="Trazado 246725" d="M13.416,19.081a8.349,8.349,0,0,1,5.664-5.664.344.344,0,0,0,0-.665,8.351,8.351,0,0,1-5.664-5.664.344.344,0,0,0-.665,0,8.351,8.351,0,0,1-5.664,5.664.344.344,0,0,0,0,.665,8.349,8.349,0,0,1,5.664,5.664.344.344,0,0,0,.665,0" transform="translate(1.499 1.499)" fill="#ccdcc2"/>
    <path id="Trazado_246726" data-name="Trazado 246726" d="M125,6.25A6.256,6.256,0,0,0,118.75,0H87.5A6.256,6.256,0,0,0,81.25,6.25V37.5a6.226,6.226,0,0,0,1.6,4.167,6.226,6.226,0,0,0-1.6,4.167v4.743c-.263-.221-.529-.438-.8-.651l-2.567,3.284A25,25,0,0,1,62.5,97.916a25.259,25.259,0,0,1-3.848-.294l-.637,4.118a29.535,29.535,0,0,0,4.485.343,29.03,29.03,0,0,0,18.75-6.844v23.512a2.085,2.085,0,0,1-2.084,2.083H45.834a2.087,2.087,0,0,1-2.084-2.083V92.46l1.443-1.5A25,25,0,0,1,62.5,47.917c.64,0,1.289.024,1.927.072l.315-4.154c-.743-.056-1.5-.084-2.241-.084a29.216,29.216,0,0,0-27.967,37.5H6.25A6.258,6.258,0,0,0,0,87.5v31.25A6.258,6.258,0,0,0,6.25,125H37.5a6.221,6.221,0,0,0,4.167-1.6,6.221,6.221,0,0,0,4.167,1.6H79.166a6.226,6.226,0,0,0,4.168-1.6A6.221,6.221,0,0,0,87.5,125H118.75a6.256,6.256,0,0,0,6.25-6.249V87.5a6.226,6.226,0,0,0-1.6-4.167,6.229,6.229,0,0,0,1.6-4.167V45.833a6.226,6.226,0,0,0-1.6-4.167A6.226,6.226,0,0,0,125,37.5ZM25,85.417h6.25v12.5H25Zm14.582,33.334a2.085,2.085,0,0,1-2.083,2.083H6.25a2.087,2.087,0,0,1-2.084-2.083V87.5A2.088,2.088,0,0,1,6.25,85.417H20.834V100a2.083,2.083,0,0,0,2.083,2.083H33.334A2.083,2.083,0,0,0,35.417,100V85.417h.711a28.87,28.87,0,0,0,3.456,5.549ZM106.25,4.168h6.25v12.5h-6.25Zm14.584,114.583a2.085,2.085,0,0,1-2.084,2.083H87.5a2.085,2.085,0,0,1-2.084-2.083V90.939a29.2,29.2,0,0,0,3.433-5.523h13.234V100a2.083,2.083,0,0,0,2.084,2.083h10.416A2.083,2.083,0,0,0,116.667,100V85.417h2.083a2.086,2.086,0,0,1,2.084,2.084ZM106.25,85.417h6.25v12.5h-6.25Zm14.584-6.249a2.085,2.085,0,0,1-2.084,2.083h-28.3a29.2,29.2,0,0,0-5.035-26.388V45.833A2.085,2.085,0,0,1,87.5,43.751h14.582V58.333a2.084,2.084,0,0,0,2.084,2.084h10.416a2.084,2.084,0,0,0,2.084-2.084V43.751h2.083a2.085,2.085,0,0,1,2.084,2.083ZM106.25,43.751h6.25v12.5h-6.25Zm14.584-6.25a2.087,2.087,0,0,1-2.084,2.084H87.5A2.087,2.087,0,0,1,85.417,37.5V6.25A2.085,2.085,0,0,1,87.5,4.168h14.582V18.75a2.084,2.084,0,0,0,2.084,2.084h10.416a2.084,2.084,0,0,0,2.084-2.084V4.168h2.083a2.085,2.085,0,0,1,2.084,2.083Z" transform="translate(0 0)"/>
    <path id="Trazado_246727" data-name="Trazado 246727" d="M8.943,59.807a2.085,2.085,0,0,0,2.947,0l20.4-20.4,6.86,6.86a2.083,2.083,0,0,0,2.946,0L66.667,21.7l6.86,6.86a2.083,2.083,0,0,0,3.556-1.473v-25A2.083,2.083,0,0,0,75,0H50a2.084,2.084,0,0,0-1.473,3.557l6.86,6.859L40.625,25.18l-6.86-6.86a2.083,2.083,0,0,0-2.946,0L.61,48.527a2.085,2.085,0,0,0,0,2.947ZM32.291,22.739l6.86,6.86a2.083,2.083,0,0,0,2.946,0L59.806,11.891a2.085,2.085,0,0,0,0-2.947L55.029,4.168H72.916V22.055L68.14,17.277a2.083,2.083,0,0,0-2.946,0L40.625,41.846l-6.86-6.86a2.083,2.083,0,0,0-2.946,0l-20.4,20.4L5.03,50Z" transform="translate(0 0)"/>
    <path id="Trazado_246728" data-name="Trazado 246728" d="M71.487,50.547,68,47.062a2.082,2.082,0,0,0-2.561-.3L62.2,48.744l-1.827-.756-.882-3.676a2.083,2.083,0,0,0-2.025-1.6H52.54a2.085,2.085,0,0,0-2.027,1.6l-.882,3.676-1.827.756L44.566,46.76a2.084,2.084,0,0,0-2.562.3l-3.485,3.485a2.084,2.084,0,0,0-.3,2.562L40.2,56.348l-.757,1.827-3.676.882a2.084,2.084,0,0,0-1.6,2.027v4.929a2.082,2.082,0,0,0,1.6,2.025l3.676.882.757,1.827-1.985,3.239a2.084,2.084,0,0,0,.3,2.562L42,80.031a2.084,2.084,0,0,0,2.562.3L47.8,78.349l1.827.757.882,3.676a2.085,2.085,0,0,0,2.027,1.6h4.929a2.083,2.083,0,0,0,2.025-1.6l.882-3.676,1.827-.757,3.24,1.985a2.083,2.083,0,0,0,2.561-.3l3.485-3.485a2.083,2.083,0,0,0,.3-2.562l-1.985-3.239.757-1.827,3.676-.882a2.083,2.083,0,0,0,1.6-2.025V61.083a2.085,2.085,0,0,0-1.6-2.027l-3.676-.882-.757-1.827,1.985-3.239a2.083,2.083,0,0,0-.3-2.562m.183,12.178v1.642l-3.112.746a2.087,2.087,0,0,0-1.439,1.229L65.55,70.131a2.084,2.084,0,0,0,.149,1.886l1.682,2.744-1.163,1.162-2.744-1.682a2.084,2.084,0,0,0-1.886-.148L57.8,75.663A2.085,2.085,0,0,0,56.571,77.1l-.746,3.112H54.182L53.436,77.1a2.083,2.083,0,0,0-1.228-1.439l-3.789-1.569a2.085,2.085,0,0,0-1.886.148l-2.744,1.682L42.627,74.76l1.682-2.744a2.084,2.084,0,0,0,.149-1.886l-1.571-3.787a2.083,2.083,0,0,0-1.439-1.229l-3.111-.746V62.725l3.111-.746a2.081,2.081,0,0,0,1.439-1.228l1.571-3.789a2.085,2.085,0,0,0-.149-1.886l-1.682-2.744,1.162-1.162,2.744,1.682A2.081,2.081,0,0,0,48.419,53l3.789-1.569a2.081,2.081,0,0,0,1.228-1.439l.746-3.112h1.642l.746,3.112A2.083,2.083,0,0,0,57.8,51.43L61.587,53a2.081,2.081,0,0,0,1.886-.148l2.744-1.682,1.163,1.162L65.7,55.076a2.085,2.085,0,0,0-.149,1.886l1.569,3.789a2.086,2.086,0,0,0,1.439,1.228Z" transform="translate(7.496 9.37)"/>
    <path id="Trazado_246729" data-name="Trazado 246729" d="M52.755,52.965A8.333,8.333,0,1,0,61.088,61.3a8.334,8.334,0,0,0-8.333-8.333m0,12.5A4.167,4.167,0,1,1,56.922,61.3a4.167,4.167,0,0,1-4.167,4.167" transform="translate(9.745 11.619)"/>
    <path id="Trazado_246730" data-name="Trazado 246730" d="M5.5,15.917a6.258,6.258,0,0,1,6.249,6.25,2.084,2.084,0,0,0,4.168,0,6.258,6.258,0,0,1,6.249-6.25,2.083,2.083,0,1,0,0-4.167A6.256,6.256,0,0,1,15.918,5.5a2.084,2.084,0,0,0-4.168,0A6.256,6.256,0,0,1,5.5,11.75a2.083,2.083,0,1,0,0,4.167m8.333-4.173a10.541,10.541,0,0,0,2.09,2.09,10.541,10.541,0,0,0-2.09,2.09,10.541,10.541,0,0,0-2.09-2.09,10.541,10.541,0,0,0,2.09-2.09" transform="translate(0.75 0.75)"/>
    <path id="Trazado_246731" data-name="Trazado 246731" d="M55.8,23.92a6.25,6.25,0,1,0,6.25,6.249A6.25,6.25,0,0,0,55.8,23.92m0,8.333a2.083,2.083,0,1,1,2.084-2.084A2.084,2.084,0,0,1,55.8,32.253" transform="translate(10.869 5.247)"/>
    <path id="Trazado_246732" data-name="Trazado 246732" d="M19.335,49.923a2.084,2.084,0,0,0-4.168,0,6.258,6.258,0,0,1-6.249,6.25,2.083,2.083,0,1,0,0,4.167,6.256,6.256,0,0,1,6.249,6.249,2.084,2.084,0,1,0,4.168,0,6.256,6.256,0,0,1,6.249-6.249,2.083,2.083,0,1,0,0-4.167,6.258,6.258,0,0,1-6.249-6.25M17.251,60.346a10.541,10.541,0,0,0-2.09-2.09,10.541,10.541,0,0,0,2.09-2.09,10.541,10.541,0,0,0,2.09,2.09,10.541,10.541,0,0,0-2.09,2.09" transform="translate(1.499 10.494)"/>
    <path id="Trazado_246733" data-name="Trazado 246733" d="M40.215,81.688a29.138,29.138,0,0,0,4.49,1.88l1.28-3.965a24.9,24.9,0,0,1-3.843-1.61Z" transform="translate(8.822 17.109)"/>
    <path id="Trazado_246734" data-name="Trazado 246734" d="M55.989,40.575a24.851,24.851,0,0,1,3.861,1.254l1.607-3.845a29.107,29.107,0,0,0-4.51-1.464Z" transform="translate(12.282 8.011)"/>
  </g>
</svg>
