<svg xmlns="http://www.w3.org/2000/svg" width="1070" height="672" viewBox="0 0 1070 672">
  <g id="Grupo_591548" data-name="Grupo 591548" transform="translate(-265 -7635)">
    <g id="Grupo_591547" data-name="Grupo 591547">
      <g id="Rectángulo_52003" data-name="Rectángulo 52003" transform="translate(265 7635)" fill="#daebeb" stroke="#daebeb" stroke-width="1">
        <rect width="1070" height="672" stroke="none"/>
        <rect x="0.5" y="0.5" width="1069" height="671" fill="none"/>
      </g>
      <g id="Rectángulo_52004" data-name="Rectángulo 52004" transform="translate(957.14 7899.22)" fill="#0e8282" stroke="#0e8282" stroke-width="1">
        <rect width="349" height="105" rx="19" stroke="none"/>
        <rect x="0.5" y="0.5" width="348" height="104" rx="18.5" fill="none"/>
      </g>
      <g id="Rectángulo_52005" data-name="Rectángulo 52005" transform="translate(293.86 7899.22)" fill="#0e8282" stroke="#0e8282" stroke-width="1">
        <rect width="321" height="105" rx="16" stroke="none"/>
        <rect x="0.5" y="0.5" width="320" height="104" rx="15.5" fill="none"/>
      </g>
      <text id="Inversión_Adquisición_de_maquinaria_edificio_" data-name="Inversión
Adquisición de maquinaria, edificio
" transform="translate(1131.64 7940.862)" fill="#fff" font-size="20" font-family="Roboto-Black, Roboto" font-weight="800"><tspan x="-42.183" y="0">Inversión</tspan><tspan font-family="Roboto-Regular, Roboto" font-weight="400"><tspan x="-154.878" y="27">Adquisición de maquinaria, edificio</tspan><tspan x="0" y="54"></tspan></tspan></text>
      <text id="Ventas_Comercialización_y_distribución_" data-name="Ventas
Comercialización y distribución
" transform="translate(453.86 7936.387)" fill="#fff" font-size="20" font-family="Roboto-Black, Roboto" font-weight="800"><tspan x="-31.553" y="0">Ventas</tspan><tspan font-family="Roboto-Regular, Roboto" font-weight="400"><tspan x="-138.784" y="27">Comercialización y distribución</tspan><tspan x="0" y="54"></tspan></tspan></text>
      <line id="Línea_333" data-name="Línea 333" x2="173" transform="translate(967.36 7721.546)" fill="none" stroke="#002552" stroke-width="2"/>
      <line id="Línea_334" data-name="Línea 334" y1="138" transform="translate(1139.75 7720.546)" fill="none" stroke="#002552" stroke-width="2"/>
      <path id="Trazado_224592" data-name="Trazado 224592" d="M27.2,11.658a1.21,1.21,0,0,1-.233-.022,1.275,1.275,0,0,1-.981-1.494l1.343-7.259L20.306,4.271a1.236,1.236,0,0,1-1.445-1.014,1.274,1.274,0,0,1,.98-1.493L28.653.023a1.206,1.206,0,0,1,1.106.351,1.3,1.3,0,0,1,.34,1.141l-1.685,9.106A1.246,1.246,0,0,1,27.2,11.658" transform="translate(1161.182 7840.631) rotate(135)" fill="#002552" stroke="#707070" stroke-width="0.5"/>
      <line id="Línea_335" data-name="Línea 335" y1="0.326" x2="162" transform="translate(453.36 7721.22)" fill="none" stroke="#002552" stroke-width="2"/>
      <line id="Línea_336" data-name="Línea 336" y1="138" transform="translate(454.36 7721.22)" fill="none" stroke="#002552" stroke-width="2"/>
      <path id="Trazado_226766" data-name="Trazado 226766" d="M27.2,11.658a1.21,1.21,0,0,1-.233-.022,1.275,1.275,0,0,1-.981-1.494l1.343-7.259L20.306,4.271a1.236,1.236,0,0,1-1.445-1.014,1.274,1.274,0,0,1,.98-1.493L28.653.023a1.206,1.206,0,0,1,1.106.351,1.3,1.3,0,0,1,.34,1.141l-1.685,9.106A1.246,1.246,0,0,1,27.2,11.658" transform="translate(475.792 7842.305) rotate(135)" fill="#002552" stroke="#707070" stroke-width="0.5"/>
      <line id="Línea_337" data-name="Línea 337" y1="0.326" x2="208.5" transform="translate(451.86 8121.22)" fill="none" stroke="#002552" stroke-width="2"/>
      <line id="Línea_338" data-name="Línea 338" y1="106" transform="translate(452.86 8016.046)" fill="none" stroke="#002552" stroke-width="2"/>
      <line id="Línea_339" data-name="Línea 339" x2="209.5" y2="0.855" transform="translate(930.36 8120.546)" fill="none" stroke="#002552" stroke-width="2"/>
      <line id="Línea_340" data-name="Línea 340" y1="107.993" transform="translate(1139.843 8014.052)" fill="none" stroke="#002552" stroke-width="2"/>
      <path id="Trazado_226767" data-name="Trazado 226767" d="M8.363,11.658a1.21,1.21,0,0,1-.233-.022,1.275,1.275,0,0,1-.981-1.494L8.492,2.883,1.467,4.271A1.236,1.236,0,0,1,.022,3.257,1.274,1.274,0,0,1,1,1.764L9.814.024a1.206,1.206,0,0,1,1.106.351,1.3,1.3,0,0,1,.34,1.141L9.574,10.622a1.246,1.246,0,0,1-1.211,1.036" transform="translate(1131.64 8017.769) rotate(-42)" fill="#002552" stroke="#707070" stroke-width="0.5"/>
      <path id="Trazado_226768" data-name="Trazado 226768" d="M8.363,11.658a1.21,1.21,0,0,1-.233-.022,1.275,1.275,0,0,1-.981-1.494L8.492,2.883,1.467,4.271A1.236,1.236,0,0,1,.022,3.257,1.274,1.274,0,0,1,1,1.764L9.814.024a1.206,1.206,0,0,1,1.106.351,1.3,1.3,0,0,1,.34,1.141L9.574,10.622a1.246,1.246,0,0,1-1.211,1.036" transform="translate(445.768 8017.769) rotate(-42)" fill="#002552" stroke="#707070" stroke-width="0.5"/>
      <g id="Rectángulo_52006" data-name="Rectángulo 52006" transform="translate(679.86 8094.528)" fill="#0e8282" stroke="#0e8282" stroke-width="1">
        <rect width="230" height="52" rx="12" stroke="none"/>
        <rect x="0.5" y="0.5" width="229" height="51" rx="11.5" fill="none"/>
      </g>
      <text id="Transformación_" data-name="Transformación
" transform="translate(791.86 8125.528)" fill="#fff" font-size="18" font-family="Roboto-Black, Roboto" font-weight="800"><tspan x="-64.661" y="0">Transformación</tspan><tspan x="0" y="25"></tspan></text>
      <line id="Línea_341" data-name="Línea 341" y1="44" transform="translate(791.86 8043.528)" fill="none" stroke="#002552" stroke-width="2"/>
      <line id="Línea_342" data-name="Línea 342" y1="23.182" x2="0.36" transform="translate(791.5 8150.144)" fill="none" stroke="#002552" stroke-width="2"/>
      <path id="Trazado_226769" data-name="Trazado 226769" d="M27.2,11.658a1.21,1.21,0,0,1-.233-.022,1.275,1.275,0,0,1-.981-1.494l1.343-7.259L20.306,4.271a1.236,1.236,0,0,1-1.445-1.014,1.274,1.274,0,0,1,.98-1.493L28.653.023a1.206,1.206,0,0,1,1.106.351,1.3,1.3,0,0,1,.34,1.141l-1.685,9.106A1.246,1.246,0,0,1,27.2,11.658" transform="translate(813.292 8068.613) rotate(135)" fill="#002552" stroke="#707070" stroke-width="0.5"/>
      <path id="Trazado_226770" data-name="Trazado 226770" d="M27.2,11.658a1.21,1.21,0,0,1-.233-.022,1.275,1.275,0,0,1-.981-1.494l1.343-7.259L20.306,4.271a1.236,1.236,0,0,1-1.445-1.014,1.274,1.274,0,0,1,.98-1.493L28.653.023a1.206,1.206,0,0,1,1.106.351,1.3,1.3,0,0,1,.34,1.141l-1.685,9.106A1.246,1.246,0,0,1,27.2,11.658" transform="translate(813.292 8154.613) rotate(135)" fill="#002552" stroke="#707070" stroke-width="0.5"/>
      <line id="Línea_343" data-name="Línea 343" x2="458" transform="translate(555.36 8249.527)" fill="none" stroke="#002552" stroke-width="2"/>
      <path id="Trazado_226772" data-name="Trazado 226772" d="M0,16.735V0" transform="translate(555.36 8233.763)" fill="none" stroke="#002552" stroke-width="2"/>
      <path id="Trazado_226771" data-name="Trazado 226771" d="M21.718,0a1.253,1.253,0,0,1,.23.021,1.2,1.2,0,0,1,.968,1.4L21.592,8.235l6.931-1.3a1.215,1.215,0,0,1,1.425.951,1.2,1.2,0,0,1-.967,1.4l-8.693,1.634a1.228,1.228,0,0,1-1.091-.33,1.183,1.183,0,0,1-.335-1.071L20.523.972A1.213,1.213,0,0,1,21.718,0" transform="translate(576.485 8223.938) rotate(135)" fill="#002552" stroke="#707070" stroke-width="0.5"/>
      <path id="Trazado_226773" data-name="Trazado 226773" d="M0,15.2V0" transform="translate(1013.36 8235.188)" fill="none" stroke="#002552" stroke-width="2"/>
      <path id="Trazado_226774" data-name="Trazado 226774" d="M2.344,0a1.025,1.025,0,0,1,.187.017A.973.973,0,0,1,3.32,1.154L2.241,6.68,7.885,5.624a.989.989,0,0,1,1.16.772.972.972,0,0,1-.787,1.136L1.179,8.857A1,1,0,0,1,.291,8.59a.957.957,0,0,1-.273-.869L1.371.789A.987.987,0,0,1,2.344,0" transform="translate(1019.702 8238.53) rotate(135)" fill="#002552" stroke="#707070" stroke-width="0.5"/>
      <g id="Rectángulo_52707" data-name="Rectángulo 52707" transform="translate(705 8179.528)" fill="#0e8282" stroke="#0e8282" stroke-width="1">
        <rect width="190" height="42" rx="12" stroke="none"/>
        <rect x="0.5" y="0.5" width="189" height="41" rx="11.5" fill="none"/>
      </g>
      <text id="Costos_" data-name="Costos
" transform="translate(792.36 8206.527)" fill="#fff" font-size="18" font-family="Roboto-Black, Roboto" font-weight="800"><tspan x="-28.191" y="0">Costos</tspan><tspan x="0" y="25"></tspan></text>
      <path id="Trazado_242256" data-name="Trazado 242256" d="M0,18.609v0" transform="translate(792.36 8226.145)" fill="none" stroke="#002552" stroke-width="2"/>
      <path id="Trazado_242255" data-name="Trazado 242255" d="M27.2,11.658a1.21,1.21,0,0,1-.233-.022,1.275,1.275,0,0,1-.981-1.494l1.343-7.259L20.306,4.271a1.236,1.236,0,0,1-1.445-1.014,1.274,1.274,0,0,1,.98-1.493L28.653.023a1.206,1.206,0,0,1,1.106.351,1.3,1.3,0,0,1,.34,1.141l-1.685,9.106A1.246,1.246,0,0,1,27.2,11.658" transform="translate(813.792 8225.34) rotate(135)" fill="#002552" stroke="#707070" stroke-width="0.5"/>
      <g id="Rectángulo_52708" data-name="Rectángulo 52708" transform="translate(631.36 7676.22)" fill="#0e8282" stroke="#0e8282" stroke-width="1">
        <rect width="321" height="105" rx="16" stroke="none"/>
        <rect x="0.5" y="0.5" width="320" height="104" rx="15.5" fill="none"/>
      </g>
      <text id="Financiamiento_Recursos_financieros_" data-name="Financiamiento 
Recursos financieros
" transform="translate(793.86 7715.22)" fill="#fff" font-size="20" font-family="Roboto-Black, Roboto" font-weight="800"><tspan x="-71.895" y="0">Financiamiento </tspan><tspan font-family="Roboto-Regular, Roboto" font-weight="400"><tspan x="-93.193" y="27">Recursos financieros</tspan><tspan x="0" y="54"></tspan></tspan></text>
      <g id="Rectángulo_52709" data-name="Rectángulo 52709" transform="translate(679.86 7867.22)" fill="#0e8282" stroke="#0d7d7d" stroke-width="1">
        <rect width="230" height="52" rx="12" stroke="none"/>
        <rect x="0.5" y="0.5" width="229" height="51" rx="11.5" fill="none"/>
      </g>
      <g id="Rectángulo_52710" data-name="Rectángulo 52710" transform="translate(679.86 7925.72)" fill="#0e8282" stroke="#0e8282" stroke-width="1">
        <rect width="230" height="52" rx="12" stroke="none"/>
        <rect x="0.5" y="0.5" width="229" height="51" rx="11.5" fill="none"/>
      </g>
      <g id="Rectángulo_52711" data-name="Rectángulo 52711" transform="translate(679.86 7984.22)" fill="#0e8282" stroke="#0e8282" stroke-width="1">
        <rect width="230" height="52" rx="12" stroke="none"/>
        <rect x="0.5" y="0.5" width="229" height="51" rx="11.5" fill="none"/>
      </g>
      <text id="Investigación_" data-name="Investigación
" transform="translate(730.906 7899.395)" fill="#fff" font-size="20" font-family="Roboto-Regular, Roboto"><tspan x="0" y="0">Investigación</tspan><tspan x="0" y="27"></tspan></text>
      <text id="Diseño" transform="translate(757.86 7958.72)" fill="#fff" font-size="20" font-family="Roboto-Regular, Roboto"><tspan x="0" y="0">Diseño</tspan></text>
      <text id="Desarrollo_" data-name="Desarrollo
" transform="translate(744.906 8013.03)" fill="#fff" font-size="20" font-family="Roboto-Regular, Roboto"><tspan x="0" y="0">Desarrollo</tspan><tspan x="0" y="27"></tspan></text>
      <g id="Rectángulo_52712" data-name="Rectángulo 52712" transform="translate(455 8179.528)" fill="#0e8282" stroke="#0e8282" stroke-width="1">
        <rect width="230" height="43.029" rx="12" stroke="none"/>
        <rect x="0.5" y="0.5" width="229" height="42.029" rx="11.5" fill="none"/>
      </g>
      <text id="Producto_terminado_" data-name="Producto terminado
" transform="translate(563.47 8207.027)" fill="#fff" font-size="18" font-family="Roboto-Black, Roboto" font-weight="800"><tspan x="-80.824" y="0">Producto terminado</tspan><tspan x="0" y="24"></tspan></text>
      <g id="Rectángulo_52713" data-name="Rectángulo 52713" transform="translate(915 8179.528)" fill="#0e8282" stroke="#0e8282" stroke-width="1">
        <rect width="230" height="44.833" rx="12" stroke="none"/>
        <rect x="0.5" y="0.5" width="229" height="43.833" rx="11.5" fill="none"/>
      </g>
      <text id="Producto_en_proceso_" data-name="Producto en proceso
" transform="translate(1032 8206.597)" fill="#fff" font-size="18" font-family="Roboto-Black, Roboto" font-weight="800"><tspan x="-84.059" y="0">Producto en proceso</tspan><tspan x="0" y="25"></tspan></text>
    </g>
  </g>
</svg>
