<svg xmlns="http://www.w3.org/2000/svg" xmlns:xlink="http://www.w3.org/1999/xlink" width="1240" height="703" viewBox="0 0 1240 703">
  <defs>
    <clipPath id="clip-path">
      <rect id="Rectángulo_50265" data-name="Rectángulo 50265" width="272.094" height="505" fill="none"/>
    </clipPath>
    <clipPath id="clip-path-2">
      <rect id="Rectángulo_50264" data-name="Rectángulo 50264" width="272.093" height="505" fill="none"/>
    </clipPath>
    <clipPath id="clip-path-3">
      <rect id="Rectángulo_50263" data-name="Rectángulo 50263" width="272.094" height="199.065" fill="none"/>
    </clipPath>
  </defs>
  <g id="Grupo_593156" data-name="Grupo 593156" transform="translate(-180 -921)">
    <g id="Trazado_246523" data-name="Trazado 246523" transform="translate(180 921)" fill="#ebeef6">
      <path d="M 1239.5 702.5 L 0.5 702.5 L 0.5 0.5 L 1239.5 0.5 L 1239.5 702.5 Z" stroke="none"/>
      <path d="M 1 1 L 1 702 L 1239 702 L 1239 1 L 1 1 M 0 0 L 1240 0 L 1240 703 L 0 703 L 0 0 Z" stroke="none" fill="#fff"/>
    </g>
    <g id="Grupo_157804" data-name="Grupo 157804" transform="translate(535.746 1385.588) rotate(-90)" clip-path="url(#clip-path)">
      <g id="Grupo_157803" data-name="Grupo 157803" transform="translate(0 -0.001)">
        <g id="Grupo_157802" data-name="Grupo 157802" clip-path="url(#clip-path-2)">
          <g id="Grupo_157801" data-name="Grupo 157801" transform="translate(0 305.936)" opacity="0.3">
            <g id="Grupo_157800" data-name="Grupo 157800">
              <g id="Grupo_157799" data-name="Grupo 157799" clip-path="url(#clip-path-3)">
                <path id="Trazado_222831" data-name="Trazado 222831" d="M272.093,140.735V58.3L192.4,0H79.719L0,58.3l.026,82.433,79.693,58.328,112.68-.053Z" transform="translate(0.002 0.001)"/>
              </g>
            </g>
          </g>
        </g>
      </g>
      <path id="Trazado_222832" data-name="Trazado 222832" d="M239.852,52.271,169.591,0H70.251L0,52.271v71l70.251,51.815h99.34l70.261-51.934Z" transform="translate(16.135 3.443)" fill="#544540"/>
      <path id="Trazado_222833" data-name="Trazado 222833" d="M71.352,313.509,8.916,359.188,0,49.534,67.632,0Z" transform="translate(20.617 6.528)" fill="#403531"/>
      <path id="Trazado_222834" data-name="Trazado 222834" d="M0,313.509l62.363,45.68,9-309.654L3.688,0Z" transform="translate(180.2 6.528)" fill="#685750"/>
      <path id="Trazado_222835" data-name="Trazado 222835" d="M114,0,30.388,53.27,0,215.313,35.767,354.382l65.274-47.709Z" transform="translate(146.461 128.752)" fill="#a39c95"/>
      <path id="Trazado_222836" data-name="Trazado 222836" d="M0,0,83.606,53.27l30.409,162.044L78.227,354.382,12.9,306.672Z" transform="translate(11.664 128.752)" fill="#d8d1c7"/>
      <path id="Trazado_222837" data-name="Trazado 222837" d="M103.081,0H0L5.347,301.112H97.681Z" transform="translate(84.545 182.019)" fill="#b5afa7"/>
      <path id="Trazado_222838" data-name="Trazado 222838" d="M8.957,126.037V56.066L76.589,6.526h95.641L239.9,56.066v69.971l-67.674,49.475H76.589ZM72.885,0,0,53.3v75.452l72.885,53.27H175.966l72.838-53.27V53.3L175.966,0Z" transform="translate(11.66 0)" fill="#e6e1dd"/>
    </g>
    <path id="Trazado_246535" data-name="Trazado 246535" d="M12.949-6.787a8.583,8.583,0,0,1-.742,3.682A5.589,5.589,0,0,1,10.083-.664,5.875,5.875,0,0,1,6.914.2,5.915,5.915,0,0,1,3.76-.654,5.644,5.644,0,0,1,1.611-3.081,8.338,8.338,0,0,1,.84-6.709v-.7a8.538,8.538,0,0,1,.757-3.7A5.635,5.635,0,0,1,3.735-13.56a5.883,5.883,0,0,1,3.159-.854,5.883,5.883,0,0,1,3.159.854,5.635,5.635,0,0,1,2.139,2.451,8.514,8.514,0,0,1,.757,3.687ZM9.98-7.432a5.984,5.984,0,0,0-.8-3.4,2.61,2.61,0,0,0-2.285-1.162,2.611,2.611,0,0,0-2.275,1.147A5.915,5.915,0,0,0,3.809-7.48v.693a6.058,6.058,0,0,0,.8,3.379,2.6,2.6,0,0,0,2.3,1.2A2.579,2.579,0,0,0,9.18-3.364a6.023,6.023,0,0,0,.8-3.374ZM24.4-5.186A6.337,6.337,0,0,1,23.3-1.274,3.554,3.554,0,0,1,20.3.2,3.292,3.292,0,0,1,17.715-.918v4.98H14.893V-10.566H17.51l.1,1.035a3.317,3.317,0,0,1,2.676-1.23A3.578,3.578,0,0,1,23.32-9.316,6.509,6.509,0,0,1,24.4-5.332Zm-2.822-.205a4.159,4.159,0,0,0-.522-2.275,1.7,1.7,0,0,0-1.519-.8,1.848,1.848,0,0,0-1.826,1.016v4.326A1.879,1.879,0,0,0,19.561-2.08Q21.582-2.08,21.582-5.391ZM31.016.2A5.187,5.187,0,0,1,27.231-1.23a5.068,5.068,0,0,1-1.46-3.8V-5.3a6.383,6.383,0,0,1,.615-2.847,4.515,4.515,0,0,1,1.743-1.934,4.893,4.893,0,0,1,2.573-.679,4.385,4.385,0,0,1,3.413,1.367,5.555,5.555,0,0,1,1.245,3.877v1.152H28.633a2.622,2.622,0,0,0,.825,1.66A2.5,2.5,0,0,0,31.2-2.08,3.046,3.046,0,0,0,33.75-3.262l1.387,1.553a4.237,4.237,0,0,1-1.719,1.4A5.639,5.639,0,0,1,31.016.2Zm-.322-8.682a1.764,1.764,0,0,0-1.362.569,2.946,2.946,0,0,0-.669,1.628h3.926v-.226a2.1,2.1,0,0,0-.508-1.457A1.819,1.819,0,0,0,30.693-8.486ZM42.9-7.92A7.667,7.667,0,0,0,41.885-8a2.067,2.067,0,0,0-2.1,1.084V0H36.963V-10.566h2.666l.078,1.26a2.615,2.615,0,0,1,2.354-1.455,2.957,2.957,0,0,1,.879.127ZM50.088,0A3.134,3.134,0,0,1,49.8-.947,3.415,3.415,0,0,1,47.139.2a3.752,3.752,0,0,1-2.573-.9,2.89,2.89,0,0,1-1.021-2.266A2.986,2.986,0,0,1,44.79-5.547a6.144,6.144,0,0,1,3.6-.908h1.3v-.605a1.741,1.741,0,0,0-.376-1.172,1.479,1.479,0,0,0-1.187-.439,1.682,1.682,0,0,0-1.118.342,1.161,1.161,0,0,0-.405.938H43.779a2.835,2.835,0,0,1,.566-1.7,3.744,3.744,0,0,1,1.6-1.226,5.837,5.837,0,0,1,2.324-.444,4.611,4.611,0,0,1,3.1.981A3.433,3.433,0,0,1,52.52-7.021v4.58a5.052,5.052,0,0,0,.42,2.275V0ZM47.754-1.963a2.431,2.431,0,0,0,1.152-.278,1.828,1.828,0,0,0,.781-.747V-4.8H48.633q-2.119,0-2.256,1.465l-.01.166a1.13,1.13,0,0,0,.371.869A1.441,1.441,0,0,0,47.754-1.963ZM59.082-2.08a1.851,1.851,0,0,0,1.27-.43,1.506,1.506,0,0,0,.508-1.143h2.646a3.62,3.62,0,0,1-.586,1.968A3.866,3.866,0,0,1,61.343-.3,4.936,4.936,0,0,1,59.131.2a4.587,4.587,0,0,1-3.574-1.44,5.7,5.7,0,0,1-1.309-3.979V-5.41a5.635,5.635,0,0,1,1.3-3.9,4.534,4.534,0,0,1,3.564-1.455A4.444,4.444,0,0,1,62.29-9.634a3.994,3.994,0,0,1,1.216,3H60.859a1.939,1.939,0,0,0-.508-1.34,1.693,1.693,0,0,0-1.289-.515,1.7,1.7,0,0,0-1.489.719,4.166,4.166,0,0,0-.5,2.333v.293a4.219,4.219,0,0,0,.5,2.347A1.721,1.721,0,0,0,59.082-2.08ZM68.1,0H65.264V-10.566H68.1Zm-3-13.3a1.39,1.39,0,0,1,.425-1.045,1.6,1.6,0,0,1,1.157-.41,1.6,1.6,0,0,1,1.152.41,1.382,1.382,0,0,1,.43,1.045,1.386,1.386,0,0,1-.435,1.055,1.6,1.6,0,0,1-1.147.41,1.6,1.6,0,0,1-1.147-.41A1.386,1.386,0,0,1,65.1-13.3Zm4.883,7.92a6.266,6.266,0,0,1,.605-2.8,4.432,4.432,0,0,1,1.743-1.9,5.086,5.086,0,0,1,2.642-.674,4.812,4.812,0,0,1,3.491,1.309A5.252,5.252,0,0,1,79.971-5.9l.02.723a5.523,5.523,0,0,1-1.357,3.9A4.718,4.718,0,0,1,74.99.2,4.742,4.742,0,0,1,71.343-1.27,5.62,5.62,0,0,1,69.98-5.254Zm2.822.2a3.95,3.95,0,0,0,.566,2.3,1.868,1.868,0,0,0,1.621.8,1.873,1.873,0,0,0,1.6-.787,4.322,4.322,0,0,0,.576-2.518,3.91,3.91,0,0,0-.576-2.289,1.873,1.873,0,0,0-1.621-.812,1.842,1.842,0,0,0-1.6.807A4.395,4.395,0,0,0,72.8-5.181Zm11.523-5.386.088,1.221a3.689,3.689,0,0,1,3.037-1.416,3.066,3.066,0,0,1,2.5.986,4.6,4.6,0,0,1,.84,2.949V0H87.969V-6.758a1.831,1.831,0,0,0-.391-1.3,1.749,1.749,0,0,0-1.3-.405,1.942,1.942,0,0,0-1.787,1.016V0H81.67V-10.566ZM97.793.2A5.187,5.187,0,0,1,94.009-1.23a5.068,5.068,0,0,1-1.46-3.8V-5.3a6.383,6.383,0,0,1,.615-2.847,4.515,4.515,0,0,1,1.743-1.934,4.893,4.893,0,0,1,2.573-.679,4.385,4.385,0,0,1,3.413,1.367,5.555,5.555,0,0,1,1.245,3.877v1.152H95.41a2.622,2.622,0,0,0,.825,1.66,2.5,2.5,0,0,0,1.743.625,3.046,3.046,0,0,0,2.549-1.182l1.387,1.553a4.237,4.237,0,0,1-1.719,1.4A5.639,5.639,0,0,1,97.793.2Zm-.322-8.682a1.764,1.764,0,0,0-1.362.569,2.946,2.946,0,0,0-.669,1.628h3.926v-.226a2.1,2.1,0,0,0-.508-1.457A1.819,1.819,0,0,0,97.471-8.486ZM109.463-2.92a.909.909,0,0,0-.513-.815,5.824,5.824,0,0,0-1.646-.532q-3.77-.791-3.77-3.2A2.9,2.9,0,0,1,104.7-9.819a4.708,4.708,0,0,1,3.052-.942,5.067,5.067,0,0,1,3.218.947,2.985,2.985,0,0,1,1.206,2.461h-2.822a1.366,1.366,0,0,0-.391-1,1.653,1.653,0,0,0-1.221-.4,1.689,1.689,0,0,0-1.1.322,1.017,1.017,0,0,0-.391.82.87.87,0,0,0,.444.757,4.571,4.571,0,0,0,1.5.5,12.244,12.244,0,0,1,1.777.474,2.92,2.92,0,0,1,2.236,2.842A2.756,2.756,0,0,1,110.967-.7a5.35,5.35,0,0,1-3.2.894,5.588,5.588,0,0,1-2.358-.474,3.957,3.957,0,0,1-1.616-1.3,3.018,3.018,0,0,1-.586-1.782h2.676a1.473,1.473,0,0,0,.557,1.152,2.208,2.208,0,0,0,1.387.4,2.044,2.044,0,0,0,1.226-.308A.957.957,0,0,0,109.463-2.92Zm13.486-1.074,1.953-6.572h3.027L123.682,1.641l-.234.557a3.221,3.221,0,0,1-3.125,2.07,4.441,4.441,0,0,1-1.25-.186V1.943l.43.01a2.322,2.322,0,0,0,1.2-.244,1.6,1.6,0,0,0,.62-.811l.332-.869-3.7-10.6h3.037Zm20.586-1.191a6.337,6.337,0,0,1-1.108,3.911A3.554,3.554,0,0,1,139.434.2a3.292,3.292,0,0,1-2.588-1.113v4.98h-2.822V-10.566h2.617l.1,1.035a3.317,3.317,0,0,1,2.676-1.23,3.578,3.578,0,0,1,3.037,1.445,6.509,6.509,0,0,1,1.084,3.984Zm-2.822-.205a4.158,4.158,0,0,0-.522-2.275,1.7,1.7,0,0,0-1.519-.8,1.848,1.848,0,0,0-1.826,1.016v4.326a1.879,1.879,0,0,0,1.846,1.045Q140.713-2.08,140.713-5.391ZM151.221-7.92A7.667,7.667,0,0,0,150.205-8a2.067,2.067,0,0,0-2.1,1.084V0h-2.822V-10.566h2.666l.078,1.26a2.615,2.615,0,0,1,2.354-1.455,2.957,2.957,0,0,1,.879.127Zm.566,2.539a6.267,6.267,0,0,1,.605-2.8,4.432,4.432,0,0,1,1.743-1.9,5.086,5.086,0,0,1,2.642-.674,4.812,4.812,0,0,1,3.491,1.309A5.252,5.252,0,0,1,161.777-5.9l.02.723a5.523,5.523,0,0,1-1.357,3.9A4.718,4.718,0,0,1,156.8.2a4.742,4.742,0,0,1-3.647-1.465,5.62,5.62,0,0,1-1.362-3.984Zm2.822.2a3.95,3.95,0,0,0,.566,2.3,1.868,1.868,0,0,0,1.621.8,1.873,1.873,0,0,0,1.6-.787,4.322,4.322,0,0,0,.576-2.518,3.91,3.91,0,0,0-.576-2.289,1.873,1.873,0,0,0-1.621-.812,1.842,1.842,0,0,0-1.6.807A4.395,4.395,0,0,0,154.609-5.181Zm13.32,3.1a1.851,1.851,0,0,0,1.27-.43,1.506,1.506,0,0,0,.508-1.143h2.646a3.62,3.62,0,0,1-.586,1.968A3.866,3.866,0,0,1,170.19-.3,4.936,4.936,0,0,1,167.979.2a4.587,4.587,0,0,1-3.574-1.44A5.7,5.7,0,0,1,163.1-5.225V-5.41a5.635,5.635,0,0,1,1.3-3.9,4.534,4.534,0,0,1,3.564-1.455,4.444,4.444,0,0,1,3.179,1.128,3.994,3.994,0,0,1,1.216,3h-2.646a1.939,1.939,0,0,0-.508-1.34,1.693,1.693,0,0,0-1.289-.515,1.7,1.7,0,0,0-1.489.719,4.166,4.166,0,0,0-.5,2.333v.293a4.219,4.219,0,0,0,.5,2.347A1.721,1.721,0,0,0,167.93-2.08ZM178.828.2a5.187,5.187,0,0,1-3.784-1.426,5.068,5.068,0,0,1-1.46-3.8V-5.3a6.383,6.383,0,0,1,.615-2.847,4.515,4.515,0,0,1,1.743-1.934,4.893,4.893,0,0,1,2.573-.679,4.385,4.385,0,0,1,3.413,1.367,5.555,5.555,0,0,1,1.245,3.877v1.152h-6.729a2.622,2.622,0,0,0,.825,1.66,2.5,2.5,0,0,0,1.743.625,3.046,3.046,0,0,0,2.549-1.182l1.387,1.553a4.237,4.237,0,0,1-1.719,1.4A5.639,5.639,0,0,1,178.828.2Zm-.322-8.682a1.764,1.764,0,0,0-1.362.569,2.946,2.946,0,0,0-.669,1.628H180.4v-.226a2.1,2.1,0,0,0-.508-1.457A1.819,1.819,0,0,0,178.506-8.486ZM190.5-2.92a.909.909,0,0,0-.513-.815,5.824,5.824,0,0,0-1.646-.532q-3.77-.791-3.77-3.2a2.9,2.9,0,0,1,1.167-2.349,4.708,4.708,0,0,1,3.052-.942,5.067,5.067,0,0,1,3.218.947,2.985,2.985,0,0,1,1.206,2.461h-2.822a1.366,1.366,0,0,0-.391-1,1.653,1.653,0,0,0-1.221-.4,1.689,1.689,0,0,0-1.1.322,1.017,1.017,0,0,0-.391.82.87.87,0,0,0,.444.757,4.571,4.571,0,0,0,1.5.5,12.244,12.244,0,0,1,1.777.474,2.92,2.92,0,0,1,2.236,2.842A2.756,2.756,0,0,1,192-.7,5.35,5.35,0,0,1,188.8.2a5.588,5.588,0,0,1-2.358-.474,3.957,3.957,0,0,1-1.616-1.3,3.018,3.018,0,0,1-.586-1.782h2.676a1.473,1.473,0,0,0,.557,1.152,2.208,2.208,0,0,0,1.387.4,2.044,2.044,0,0,0,1.226-.308A.957.957,0,0,0,190.5-2.92Zm4.121-2.461a6.267,6.267,0,0,1,.605-2.8,4.432,4.432,0,0,1,1.743-1.9,5.086,5.086,0,0,1,2.642-.674A4.812,4.812,0,0,1,203.1-9.453,5.252,5.252,0,0,1,204.609-5.9l.02.723a5.523,5.523,0,0,1-1.357,3.9A4.718,4.718,0,0,1,199.629.2a4.742,4.742,0,0,1-3.647-1.465,5.62,5.62,0,0,1-1.362-3.984Zm2.822.2a3.95,3.95,0,0,0,.566,2.3,1.868,1.868,0,0,0,1.621.8,1.873,1.873,0,0,0,1.6-.787,4.322,4.322,0,0,0,.576-2.518,3.91,3.91,0,0,0-.576-2.289,1.873,1.873,0,0,0-1.621-.812,1.842,1.842,0,0,0-1.6.807A4.395,4.395,0,0,0,197.441-5.181ZM212.09-2.92a.909.909,0,0,0-.513-.815,5.824,5.824,0,0,0-1.646-.532q-3.77-.791-3.77-3.2a2.9,2.9,0,0,1,1.167-2.349,4.708,4.708,0,0,1,3.052-.942,5.067,5.067,0,0,1,3.218.947A2.985,2.985,0,0,1,214.8-7.354h-2.822a1.366,1.366,0,0,0-.391-1,1.653,1.653,0,0,0-1.221-.4,1.689,1.689,0,0,0-1.1.322,1.017,1.017,0,0,0-.391.82.87.87,0,0,0,.444.757,4.571,4.571,0,0,0,1.5.5,12.244,12.244,0,0,1,1.777.474,2.92,2.92,0,0,1,2.236,2.842A2.756,2.756,0,0,1,213.594-.7a5.35,5.35,0,0,1-3.2.894,5.588,5.588,0,0,1-2.358-.474,3.957,3.957,0,0,1-1.616-1.3,3.018,3.018,0,0,1-.586-1.782h2.676a1.473,1.473,0,0,0,.557,1.152,2.208,2.208,0,0,0,1.387.4,2.044,2.044,0,0,0,1.226-.308A.957.957,0,0,0,212.09-2.92Z" transform="translate(739 1177)" fill="#12263f"/>
    <g id="Trazado_222840" data-name="Trazado 222840" transform="translate(839.474 1201.641)" fill="#fff">
      <path d="M 15.32055759429932 29.85937690734863 C 11.3609676361084 29.85937690734863 7.638617515563965 28.33184814453125 4.839207649230957 25.55816841125488 C 2.041027545928955 22.78571701049805 0.4999975860118866 19.09989738464355 0.4999975860118866 15.1796875 C 0.4999975860118866 11.25947761535645 2.041027545928955 7.573657512664795 4.839207649230957 4.801207542419434 C 7.638617515563965 2.027527570724487 11.3609676361084 0.4999974966049194 15.32055759429932 0.4999974966049194 C 19.28014755249023 0.4999974966049194 23.00249671936035 2.027527570724487 25.80190849304199 4.801207542419434 C 28.60008811950684 7.573657512664795 30.14111709594727 11.25947761535645 30.14111709594727 15.1796875 C 30.14111709594727 22.12143707275391 25.2459774017334 28.04117774963379 18.23702812194824 29.5754280090332 C 17.44069671630859 29.75340843200684 16.35122680664062 29.85937690734863 15.32055759429932 29.85937690734863 Z" stroke="none"/>
      <path d="M 15.32055759429932 0.9999980926513672 C 11.4936580657959 0.9999980926513672 7.89628791809082 2.476097106933594 5.191118240356445 5.156387329101562 C 2.488437652587891 7.834226608276367 0.9999980926513672 11.39389801025391 0.9999980926513672 15.1796875 C 0.9999980926513672 18.96547698974609 2.488437652587891 22.525146484375 5.191118240356445 25.20298767089844 C 7.89628791809082 27.88327789306641 11.4936580657959 29.35937690734863 15.32055759429932 29.35937690734863 C 16.3166675567627 29.35937690734863 17.3653678894043 29.25790786743164 18.13011741638184 29.08698654174805 C 24.90761756896973 27.60340690612793 29.64111709594727 21.88451766967773 29.64111709594727 15.1796875 C 29.64111709594727 11.39389801025391 28.15267753601074 7.834226608276367 25.44999694824219 5.156387329101562 C 22.74482727050781 2.476097106933594 19.14745712280273 0.9999980926513672 15.32055759429932 0.9999980926513672 M 15.32055759429932 -1.9073486328125e-06 C 23.78186798095703 -1.9073486328125e-06 30.64111709594727 6.796176910400391 30.64111709594727 15.1796875 C 30.64111709594727 22.43141746520996 25.50885772705078 28.4954776763916 18.34394836425781 30.06385803222656 C 17.5759162902832 30.23551750183105 16.46283721923828 30.35937690734863 15.32055759429932 30.35937690734863 C 6.859247207641602 30.35937690734863 -1.9073486328125e-06 23.56319808959961 -1.9073486328125e-06 15.1796875 C -1.9073486328125e-06 6.796176910400391 6.859247207641602 -1.9073486328125e-06 15.32055759429932 -1.9073486328125e-06 Z" stroke="none" fill="#6d6d6c"/>
    </g>
    <path id="Trazado_246531" data-name="Trazado 246531" d="M3.07-6.687h1.2a1.7,1.7,0,0,0,1.273-.43,1.574,1.574,0,0,0,.414-1.141,1.392,1.392,0,0,0-.41-1.07,1.59,1.59,0,0,0-1.129-.383,1.666,1.666,0,0,0-1.086.355A1.137,1.137,0,0,0,2.9-8.43H.641a2.777,2.777,0,0,1,.48-1.6,3.2,3.2,0,0,1,1.344-1.105,4.485,4.485,0,0,1,1.9-.4,4.253,4.253,0,0,1,2.828.863A2.945,2.945,0,0,1,8.219-8.289a2.394,2.394,0,0,1-.477,1.438,3.1,3.1,0,0,1-1.25,1.008A2.826,2.826,0,0,1,7.926-4.812,2.8,2.8,0,0,1,8.4-3.187,2.994,2.994,0,0,1,7.293-.758,4.445,4.445,0,0,1,4.367.156a4.214,4.214,0,0,1-2.785-.9A2.934,2.934,0,0,1,.5-3.117H2.758a1.308,1.308,0,0,0,.48,1.047,1.771,1.771,0,0,0,1.184.406A1.779,1.779,0,0,0,5.684-2.09a1.47,1.47,0,0,0,.457-1.129q0-1.7-1.875-1.7H3.07Z" transform="translate(850.294 1222.32)" fill="#12263f"/>
    <g id="Trazado_222841" data-name="Trazado 222841" transform="translate(750.179 1201.641)" fill="#fff">
      <path d="M 15.32055759429932 29.85937690734863 C 11.3609676361084 29.85937690734863 7.638617515563965 28.33184814453125 4.839207649230957 25.55816841125488 C 2.041027545928955 22.78571701049805 0.4999975860118866 19.09989738464355 0.4999975860118866 15.1796875 C 0.4999975860118866 11.25947761535645 2.041027545928955 7.573657512664795 4.839207649230957 4.801207542419434 C 7.638617515563965 2.027527570724487 11.3609676361084 0.4999974966049194 15.32055759429932 0.4999974966049194 C 19.28014755249023 0.4999974966049194 23.00249671936035 2.027527570724487 25.80190849304199 4.801207542419434 C 28.60008811950684 7.573657512664795 30.14111709594727 11.25947761535645 30.14111709594727 15.1796875 C 30.14111709594727 19.09989738464355 28.60008811950684 22.78571701049805 25.80190849304199 25.55816841125488 C 23.00249671936035 28.33184814453125 19.28014755249023 29.85937690734863 15.32055759429932 29.85937690734863 Z" stroke="none"/>
      <path d="M 15.32055759429932 0.9999980926513672 C 11.4936580657959 0.9999980926513672 7.89628791809082 2.476097106933594 5.191118240356445 5.156387329101562 C 2.488437652587891 7.834226608276367 0.9999980926513672 11.39389801025391 0.9999980926513672 15.1796875 C 0.9999980926513672 18.96547698974609 2.488437652587891 22.525146484375 5.191118240356445 25.20298767089844 C 7.89628791809082 27.88327789306641 11.4936580657959 29.35937690734863 15.32055759429932 29.35937690734863 C 19.14745712280273 29.35937690734863 22.74482727050781 27.88327789306641 25.44999694824219 25.20298767089844 C 28.15267753601074 22.525146484375 29.64111709594727 18.96547698974609 29.64111709594727 15.1796875 C 29.64111709594727 11.39389801025391 28.15267753601074 7.834226608276367 25.44999694824219 5.156387329101562 C 22.74482727050781 2.476097106933594 19.14745712280273 0.9999980926513672 15.32055759429932 0.9999980926513672 M 15.32055759429932 -1.9073486328125e-06 C 23.78186798095703 -1.9073486328125e-06 30.64111709594727 6.796176910400391 30.64111709594727 15.1796875 C 30.64111709594727 23.56319808959961 23.78186798095703 30.35937690734863 15.32055759429932 30.35937690734863 C 6.859247207641602 30.35937690734863 -1.9073486328125e-06 23.56319808959961 -1.9073486328125e-06 15.1796875 C -1.9073486328125e-06 6.796176910400391 6.859247207641602 -1.9073486328125e-06 15.32055759429932 -1.9073486328125e-06 Z" stroke="none" fill="#6d6d6c"/>
    </g>
    <path id="Trazado_246532" data-name="Trazado 246532" d="M6.258,0H4V-8.7l-2.7.836V-9.7l4.711-1.687h.242Z" transform="translate(761 1222)" fill="#12263f"/>
    <g id="Trazado_222842" data-name="Trazado 222842" transform="translate(749.179 1267.319)" fill="#fff">
      <path d="M 15.32055759429932 29.85937690734863 C 11.3609676361084 29.85937690734863 7.638617515563965 28.33184814453125 4.839207649230957 25.55816841125488 C 2.041027545928955 22.78571701049805 0.4999975860118866 19.09989738464355 0.4999975860118866 15.1796875 C 0.4999975860118866 11.25947761535645 2.041027545928955 7.573657512664795 4.839207649230957 4.801207542419434 C 7.638617515563965 2.027527570724487 11.3609676361084 0.4999974966049194 15.32055759429932 0.4999974966049194 C 19.28014755249023 0.4999974966049194 23.00249671936035 2.027527570724487 25.80190849304199 4.801207542419434 C 28.60008811950684 7.573657512664795 30.14111709594727 11.25947761535645 30.14111709594727 15.1796875 C 30.14111709594727 19.09989738464355 28.60008811950684 22.78571701049805 25.80190849304199 25.55816841125488 C 23.00249671936035 28.33184814453125 19.28014755249023 29.85937690734863 15.32055759429932 29.85937690734863 Z" stroke="none"/>
      <path d="M 15.32055759429932 0.9999980926513672 C 11.4936580657959 0.9999980926513672 7.89628791809082 2.476097106933594 5.191118240356445 5.156387329101562 C 2.488437652587891 7.834226608276367 0.9999980926513672 11.39389801025391 0.9999980926513672 15.1796875 C 0.9999980926513672 18.96547698974609 2.488437652587891 22.525146484375 5.191118240356445 25.20298767089844 C 7.89628791809082 27.88327789306641 11.4936580657959 29.35937690734863 15.32055759429932 29.35937690734863 C 19.14745712280273 29.35937690734863 22.74482727050781 27.88327789306641 25.44999694824219 25.20298767089844 C 28.15267753601074 22.525146484375 29.64111709594727 18.96547698974609 29.64111709594727 15.1796875 C 29.64111709594727 11.39389801025391 28.15267753601074 7.834226608276367 25.44999694824219 5.156387329101562 C 22.74482727050781 2.476097106933594 19.14745712280273 0.9999980926513672 15.32055759429932 0.9999980926513672 M 15.32055759429932 -1.9073486328125e-06 C 23.78186798095703 -1.9073486328125e-06 30.64111709594727 6.796176910400391 30.64111709594727 15.1796875 C 30.64111709594727 23.56319808959961 23.78186798095703 30.35937690734863 15.32055759429932 30.35937690734863 C 6.859247207641602 30.35937690734863 -1.9073486328125e-06 23.56319808959961 -1.9073486328125e-06 15.1796875 C -1.9073486328125e-06 6.796176910400391 6.859247207641602 -1.9073486328125e-06 15.32055759429932 -1.9073486328125e-06 Z" stroke="none" fill="#6d6d6c"/>
    </g>
    <path id="Trazado_246528" data-name="Trazado 246528" d="M8.57,0H.773V-1.547l3.68-3.922A9.078,9.078,0,0,0,5.574-6.914a2.322,2.322,0,0,0,.363-1.172,1.738,1.738,0,0,0-.383-1.191,1.382,1.382,0,0,0-1.094-.434,1.49,1.49,0,0,0-1.207.527A2.089,2.089,0,0,0,2.813-7.8H.547a3.729,3.729,0,0,1,.5-1.9,3.5,3.5,0,0,1,1.4-1.348A4.262,4.262,0,0,1,4.5-11.531a4.036,4.036,0,0,1,2.73.844A2.985,2.985,0,0,1,8.2-8.3a3.825,3.825,0,0,1-.437,1.719,9.551,9.551,0,0,1-1.5,2.039L3.68-1.82H8.57Z" transform="translate(760 1287)" fill="#12263f"/>
    <g id="Trazado_222843" data-name="Trazado 222843" transform="translate(839.474 1268)" fill="#fff">
      <path d="M 15.32055759429932 29.85937690734863 C 11.3609676361084 29.85937690734863 7.638617515563965 28.33184814453125 4.839207649230957 25.55816841125488 C 2.041027545928955 22.78571701049805 0.4999975860118866 19.09989738464355 0.4999975860118866 15.1796875 C 0.4999975860118866 11.25947761535645 2.041027545928955 7.573657512664795 4.839207649230957 4.801207542419434 C 7.638617515563965 2.027527570724487 11.3609676361084 0.4999974966049194 15.32055759429932 0.4999974966049194 C 19.28014755249023 0.4999974966049194 23.00249671936035 2.027527570724487 25.80190849304199 4.801207542419434 C 28.60008811950684 7.573657512664795 30.14111709594727 11.25947761535645 30.14111709594727 15.1796875 C 30.14111709594727 19.09989738464355 28.60008811950684 22.78571701049805 25.80190849304199 25.55816841125488 C 23.00249671936035 28.33184814453125 19.28014755249023 29.85937690734863 15.32055759429932 29.85937690734863 Z" stroke="none"/>
      <path d="M 15.32055759429932 0.9999980926513672 C 11.4936580657959 0.9999980926513672 7.89628791809082 2.476097106933594 5.191118240356445 5.156387329101562 C 2.488437652587891 7.834226608276367 0.9999980926513672 11.39389801025391 0.9999980926513672 15.1796875 C 0.9999980926513672 18.96547698974609 2.488437652587891 22.525146484375 5.191118240356445 25.20298767089844 C 7.89628791809082 27.88327789306641 11.4936580657959 29.35937690734863 15.32055759429932 29.35937690734863 C 19.14745712280273 29.35937690734863 22.74482727050781 27.88327789306641 25.44999694824219 25.20298767089844 C 28.15267753601074 22.525146484375 29.64111709594727 18.96547698974609 29.64111709594727 15.1796875 C 29.64111709594727 11.39389801025391 28.15267753601074 7.834226608276367 25.44999694824219 5.156387329101562 C 22.74482727050781 2.476097106933594 19.14745712280273 0.9999980926513672 15.32055759429932 0.9999980926513672 M 15.32055759429932 -1.9073486328125e-06 C 23.78186798095703 -1.9073486328125e-06 30.64111709594727 6.796176910400391 30.64111709594727 15.1796875 C 30.64111709594727 23.56319808959961 23.78186798095703 30.35937690734863 15.32055759429932 30.35937690734863 C 6.859247207641602 30.35937690734863 -1.9073486328125e-06 23.56319808959961 -1.9073486328125e-06 15.1796875 C -1.9073486328125e-06 6.796176910400391 6.859247207641602 -1.9073486328125e-06 15.32055759429932 -1.9073486328125e-06 Z" stroke="none" fill="#6d6d6c"/>
    </g>
    <path id="Trazado_246527" data-name="Trazado 246527" d="M7.453-4.281H8.742v1.82H7.453V0H5.2V-2.461H.531L.43-3.883l4.742-7.492H7.453Zm-4.773,0H5.2V-8.3l-.148.258Z" transform="translate(850.294 1289.109)" fill="#12263f"/>
    <g id="Trazado_222844" data-name="Trazado 222844" transform="translate(920.884 1232)" fill="#fff">
      <path d="M 15.32055759429932 29.85937690734863 C 11.3609676361084 29.85937690734863 7.638617515563965 28.33184814453125 4.839207649230957 25.55816841125488 C 2.041027545928955 22.78571701049805 0.4999975860118866 19.09989738464355 0.4999975860118866 15.1796875 C 0.4999975860118866 11.25947761535645 2.041027545928955 7.573657512664795 4.839207649230957 4.801207542419434 C 7.638617515563965 2.027527570724487 11.3609676361084 0.4999974966049194 15.32055759429932 0.4999974966049194 C 19.28014755249023 0.4999974966049194 23.00249671936035 2.027527570724487 25.80190849304199 4.801207542419434 C 28.60008811950684 7.573657512664795 30.14111709594727 11.25947761535645 30.14111709594727 15.1796875 C 30.14111709594727 19.09989738464355 28.60008811950684 22.78571701049805 25.80190849304199 25.55816841125488 C 23.00249671936035 28.33184814453125 19.28014755249023 29.85937690734863 15.32055759429932 29.85937690734863 Z" stroke="none"/>
      <path d="M 15.32055759429932 0.9999980926513672 C 11.4936580657959 0.9999980926513672 7.89628791809082 2.476097106933594 5.191118240356445 5.156387329101562 C 2.488437652587891 7.834226608276367 0.9999980926513672 11.39389801025391 0.9999980926513672 15.1796875 C 0.9999980926513672 18.96547698974609 2.488437652587891 22.525146484375 5.191118240356445 25.20298767089844 C 7.89628791809082 27.88327789306641 11.4936580657959 29.35937690734863 15.32055759429932 29.35937690734863 C 19.14745712280273 29.35937690734863 22.74482727050781 27.88327789306641 25.44999694824219 25.20298767089844 C 28.15267753601074 22.525146484375 29.64111709594727 18.96547698974609 29.64111709594727 15.1796875 C 29.64111709594727 11.39389801025391 28.15267753601074 7.834226608276367 25.44999694824219 5.156387329101562 C 22.74482727050781 2.476097106933594 19.14745712280273 0.9999980926513672 15.32055759429932 0.9999980926513672 M 15.32055759429932 -1.9073486328125e-06 C 23.78186798095703 -1.9073486328125e-06 30.64111709594727 6.796176910400391 30.64111709594727 15.1796875 C 30.64111709594727 23.56319808959961 23.78186798095703 30.35937690734863 15.32055759429932 30.35937690734863 C 6.859247207641602 30.35937690734863 -1.9073486328125e-06 23.56319808959961 -1.9073486328125e-06 15.1796875 C -1.9073486328125e-06 6.796176910400391 6.859247207641602 -1.9073486328125e-06 15.32055759429932 -1.9073486328125e-06 Z" stroke="none" fill="#6d6d6c"/>
    </g>
    <path id="Trazado_246529" data-name="Trazado 246529" d="M1.109-5.594l.656-5.781H8.141v1.883H3.617L3.336-7.047a3.58,3.58,0,0,1,1.711-.43A3.279,3.279,0,0,1,7.594-6.469a4.026,4.026,0,0,1,.922,2.82,4.124,4.124,0,0,1-.465,1.973A3.281,3.281,0,0,1,6.719-.324a4.158,4.158,0,0,1-2.047.48A4.416,4.416,0,0,1,2.758-.262,3.4,3.4,0,0,1,1.363-1.437,3.2,3.2,0,0,1,.82-3.164H3.055a1.669,1.669,0,0,0,.5,1.105,1.573,1.573,0,0,0,1.113.395,1.388,1.388,0,0,0,1.18-.551,2.551,2.551,0,0,0,.414-1.559,2.11,2.11,0,0,0-.477-1.484A1.749,1.749,0,0,0,4.43-5.773a1.954,1.954,0,0,0-1.3.422l-.219.2Z" transform="translate(932 1253)" fill="#12263f"/>
    <g id="Grupo_157806" data-name="Grupo 157806" transform="translate(400.219 1017)">
      <path id="Trazado_222854" data-name="Trazado 222854" d="M196.654,0,0,1" transform="translate(8.275 1)" fill="none" stroke="#0c0606" stroke-width="2" stroke-dasharray="4"/>
      <line id="Línea_299" data-name="Línea 299" x2="1" y2="142.118" transform="translate(7.275)" fill="none" stroke="#0c0606" stroke-width="2" stroke-dasharray="4"/>
      <line id="Línea_301" data-name="Línea 301" x1="8" y2="12" transform="translate(7 134.143)" fill="none" stroke="#0c0606" stroke-width="5"/>
      <line id="Línea_302" data-name="Línea 302" x2="9" y2="12" transform="translate(0 134.143)" fill="none" stroke="#0c0606" stroke-width="5"/>
    </g>
    <g id="Trazado_246536" data-name="Trazado 246536" transform="translate(600 991)" fill="#1b3f5e">
      <path d="M 365.5 51.5 L 0.5 51.5 L 0.5 0.5 L 365.5 0.5 L 365.5 51.5 Z" stroke="none"/>
      <path d="M 1 1 L 1 51 L 365 51 L 365 1 L 1 1 M 0 0 L 366 0 L 366 52 L 0 52 L 0 0 Z" stroke="none" fill="#0e8282"/>
    </g>
    <path id="Trazado_246537" data-name="Trazado 246537" d="M-168.525-5.01V0h-2.93V-14.219h5.547a6.418,6.418,0,0,1,2.817.586,4.318,4.318,0,0,1,1.87,1.665,4.643,4.643,0,0,1,.654,2.456A4.083,4.083,0,0,1-162-6.216a5.959,5.959,0,0,1-3.96,1.206Zm0-2.373h2.617a2.573,2.573,0,0,0,1.772-.547,1.989,1.989,0,0,0,.61-1.562,2.345,2.345,0,0,0-.615-1.689,2.3,2.3,0,0,0-1.7-.664h-2.686ZM-152.725,0a3.134,3.134,0,0,1-.283-.947A3.415,3.415,0,0,1-155.674.2a3.752,3.752,0,0,1-2.573-.9,2.889,2.889,0,0,1-1.021-2.266,2.986,2.986,0,0,1,1.245-2.578,6.144,6.144,0,0,1,3.6-.908h1.3v-.605a1.741,1.741,0,0,0-.376-1.172,1.479,1.479,0,0,0-1.187-.439,1.682,1.682,0,0,0-1.118.342,1.161,1.161,0,0,0-.405.938h-2.822a2.835,2.835,0,0,1,.566-1.7,3.744,3.744,0,0,1,1.6-1.226,5.837,5.837,0,0,1,2.324-.444,4.611,4.611,0,0,1,3.1.981,3.433,3.433,0,0,1,1.147,2.759v4.58a5.052,5.052,0,0,0,.42,2.275V0Zm-2.334-1.963a2.431,2.431,0,0,0,1.152-.278,1.828,1.828,0,0,0,.781-.747V-4.8h-1.055q-2.119,0-2.256,1.465l-.01.166a1.13,1.13,0,0,0,.371.869A1.441,1.441,0,0,0-155.059-1.963Zm12.871-5.957A7.667,7.667,0,0,0-143.2-8a2.067,2.067,0,0,0-2.1,1.084V0h-2.822V-10.566h2.666l.078,1.26a2.615,2.615,0,0,1,2.354-1.455,2.957,2.957,0,0,1,.879.127Zm5.225-5.244v2.6h1.807V-8.5h-1.807v5.273a1.259,1.259,0,0,0,.225.84,1.128,1.128,0,0,0,.859.254,4.5,4.5,0,0,0,.83-.068V-.059A5.81,5.81,0,0,1-136.758.2q-2.969,0-3.027-3V-8.5h-1.543v-2.07h1.543v-2.6ZM-130.605,0h-2.832V-10.566h2.832Zm-3-13.3a1.39,1.39,0,0,1,.425-1.045,1.6,1.6,0,0,1,1.157-.41,1.6,1.6,0,0,1,1.152.41,1.382,1.382,0,0,1,.43,1.045,1.386,1.386,0,0,1-.435,1.055,1.6,1.6,0,0,1-1.147.41,1.6,1.6,0,0,1-1.147-.41A1.386,1.386,0,0,1-133.6-13.3Zm9.717,11.221a1.851,1.851,0,0,0,1.27-.43,1.506,1.506,0,0,0,.508-1.143h2.646a3.62,3.62,0,0,1-.586,1.968A3.866,3.866,0,0,1-121.626-.3,4.936,4.936,0,0,1-123.838.2a4.587,4.587,0,0,1-3.574-1.44,5.7,5.7,0,0,1-1.309-3.979V-5.41a5.635,5.635,0,0,1,1.3-3.9,4.534,4.534,0,0,1,3.564-1.455,4.444,4.444,0,0,1,3.179,1.128,3.994,3.994,0,0,1,1.216,3h-2.646a1.939,1.939,0,0,0-.508-1.34,1.693,1.693,0,0,0-1.289-.515,1.7,1.7,0,0,0-1.489.719,4.166,4.166,0,0,0-.5,2.333v.293a4.219,4.219,0,0,0,.5,2.347A1.721,1.721,0,0,0-123.887-2.08ZM-114.873,0h-2.832V-10.566h2.832Zm-3-13.3a1.39,1.39,0,0,1,.425-1.045,1.6,1.6,0,0,1,1.157-.41,1.6,1.6,0,0,1,1.152.41,1.382,1.382,0,0,1,.43,1.045,1.386,1.386,0,0,1-.435,1.055,1.6,1.6,0,0,1-1.147.41,1.6,1.6,0,0,1-1.147-.41A1.386,1.386,0,0,1-117.871-13.3Zm14.834,8.115a6.337,6.337,0,0,1-1.108,3.911A3.554,3.554,0,0,1-107.139.2a3.292,3.292,0,0,1-2.588-1.113v4.98h-2.822V-10.566h2.617l.1,1.035a3.317,3.317,0,0,1,2.676-1.23,3.578,3.578,0,0,1,3.037,1.445,6.509,6.509,0,0,1,1.084,3.984Zm-2.822-.205a4.159,4.159,0,0,0-.522-2.275,1.7,1.7,0,0,0-1.519-.8,1.848,1.848,0,0,0-1.826,1.016v4.326a1.879,1.879,0,0,0,1.846,1.045Q-105.859-2.08-105.859-5.391ZM-95.166,0a3.134,3.134,0,0,1-.283-.947A3.415,3.415,0,0,1-98.115.2a3.752,3.752,0,0,1-2.573-.9,2.89,2.89,0,0,1-1.021-2.266,2.986,2.986,0,0,1,1.245-2.578,6.144,6.144,0,0,1,3.6-.908h1.3v-.605a1.741,1.741,0,0,0-.376-1.172,1.479,1.479,0,0,0-1.187-.439,1.682,1.682,0,0,0-1.118.342,1.161,1.161,0,0,0-.405.938h-2.822a2.835,2.835,0,0,1,.566-1.7,3.744,3.744,0,0,1,1.6-1.226,5.837,5.837,0,0,1,2.324-.444,4.611,4.611,0,0,1,3.1.981,3.433,3.433,0,0,1,1.147,2.759v4.58a5.052,5.052,0,0,0,.42,2.275V0ZM-97.5-1.963a2.431,2.431,0,0,0,1.152-.278,1.828,1.828,0,0,0,.781-.747V-4.8h-1.055q-2.119,0-2.256,1.465l-.01.166a1.13,1.13,0,0,0,.371.869A1.441,1.441,0,0,0-97.5-1.963Zm11.328-.117a1.851,1.851,0,0,0,1.27-.43,1.506,1.506,0,0,0,.508-1.143h2.646a3.62,3.62,0,0,1-.586,1.968A3.866,3.866,0,0,1-83.911-.3,4.936,4.936,0,0,1-86.123.2,4.587,4.587,0,0,1-89.7-1.245a5.7,5.7,0,0,1-1.309-3.979V-5.41a5.635,5.635,0,0,1,1.3-3.9,4.534,4.534,0,0,1,3.564-1.455,4.444,4.444,0,0,1,3.179,1.128,3.994,3.994,0,0,1,1.216,3h-2.646a1.939,1.939,0,0,0-.508-1.34,1.693,1.693,0,0,0-1.289-.515,1.7,1.7,0,0,0-1.489.719,4.166,4.166,0,0,0-.5,2.333v.293a4.219,4.219,0,0,0,.5,2.347A1.721,1.721,0,0,0-86.172-2.08ZM-77.158,0H-79.99V-10.566h2.832Zm-3-13.3a1.39,1.39,0,0,1,.425-1.045,1.6,1.6,0,0,1,1.157-.41,1.6,1.6,0,0,1,1.152.41,1.382,1.382,0,0,1,.43,1.045,1.386,1.386,0,0,1-.435,1.055,1.6,1.6,0,0,1-1.147.41,1.6,1.6,0,0,1-1.147-.41A1.386,1.386,0,0,1-80.156-13.3Zm4.883,7.92a6.266,6.266,0,0,1,.605-2.8,4.432,4.432,0,0,1,1.743-1.9,5.086,5.086,0,0,1,2.642-.674,4.812,4.812,0,0,1,3.491,1.309A5.252,5.252,0,0,1-65.283-5.9l.02.723a5.523,5.523,0,0,1-1.357,3.9A4.718,4.718,0,0,1-70.264.2,4.742,4.742,0,0,1-73.911-1.27a5.62,5.62,0,0,1-1.362-3.984Zm2.822.2a3.95,3.95,0,0,0,.566,2.3,1.868,1.868,0,0,0,1.621.8,1.873,1.873,0,0,0,1.6-.787,4.322,4.322,0,0,0,.576-2.518,3.91,3.91,0,0,0-.576-2.289,1.873,1.873,0,0,0-1.621-.812,1.842,1.842,0,0,0-1.6.807A4.395,4.395,0,0,0-72.451-5.181ZM-69.727-15h3.076l-2.705,3.027H-71.65Zm8.8,4.434.088,1.221A3.689,3.689,0,0,1-57.8-10.762a3.066,3.066,0,0,1,2.5.986,4.6,4.6,0,0,1,.84,2.949V0h-2.822V-6.758a1.831,1.831,0,0,0-.391-1.3,1.749,1.749,0,0,0-1.3-.405,1.942,1.942,0,0,0-1.787,1.016V0h-2.822V-10.566Zm13.145,5.205A6.368,6.368,0,0,1-46.675-9.3a3.6,3.6,0,0,1,3.032-1.465,3.236,3.236,0,0,1,2.549,1.152V-15h2.832V0h-2.549l-.137-1.123A3.321,3.321,0,0,1-43.662.2a3.587,3.587,0,0,1-2.993-1.47A6.573,6.573,0,0,1-47.783-5.361Zm2.822.21a4.171,4.171,0,0,0,.518,2.279,1.686,1.686,0,0,0,1.5.792,1.888,1.888,0,0,0,1.846-1.105V-7.362A1.861,1.861,0,0,0-42.92-8.467Q-44.961-8.467-44.961-5.151ZM-31.211.2A5.187,5.187,0,0,1-35-1.23a5.068,5.068,0,0,1-1.46-3.8V-5.3a6.383,6.383,0,0,1,.615-2.847A4.515,4.515,0,0,1-34.1-10.083a4.893,4.893,0,0,1,2.573-.679A4.385,4.385,0,0,1-28.11-9.395a5.555,5.555,0,0,1,1.245,3.877v1.152h-6.729a2.622,2.622,0,0,0,.825,1.66,2.5,2.5,0,0,0,1.743.625,3.046,3.046,0,0,0,2.549-1.182l1.387,1.553a4.237,4.237,0,0,1-1.719,1.4A5.639,5.639,0,0,1-31.211.2Zm-.322-8.682a1.764,1.764,0,0,0-1.362.569,2.946,2.946,0,0,0-.669,1.628h3.926v-.226a2.1,2.1,0,0,0-.508-1.457A1.819,1.819,0,0,0-31.533-8.486ZM-22.285,0h-2.832V-15h2.832Zm11.7-2.08a1.851,1.851,0,0,0,1.27-.43,1.506,1.506,0,0,0,.508-1.143h2.646a3.62,3.62,0,0,1-.586,1.968A3.866,3.866,0,0,1-8.325-.3,4.936,4.936,0,0,1-10.537.2a4.587,4.587,0,0,1-3.574-1.44A5.7,5.7,0,0,1-15.42-5.225V-5.41a5.635,5.635,0,0,1,1.3-3.9,4.534,4.534,0,0,1,3.564-1.455A4.444,4.444,0,0,1-7.378-9.634a3.994,3.994,0,0,1,1.216,3H-8.809a1.939,1.939,0,0,0-.508-1.34,1.693,1.693,0,0,0-1.289-.515,1.7,1.7,0,0,0-1.489.719,4.166,4.166,0,0,0-.5,2.333v.293a4.219,4.219,0,0,0,.5,2.347A1.721,1.721,0,0,0-10.586-2.08Zm5.6-3.3a6.266,6.266,0,0,1,.605-2.8,4.432,4.432,0,0,1,1.743-1.9A5.086,5.086,0,0,1,0-10.762,4.812,4.812,0,0,1,3.491-9.453,5.252,5.252,0,0,1,5-5.9l.02.723a5.523,5.523,0,0,1-1.357,3.9A4.718,4.718,0,0,1,.02.2,4.742,4.742,0,0,1-3.628-1.27,5.62,5.62,0,0,1-4.99-5.254Zm2.822.2a3.95,3.95,0,0,0,.566,2.3,1.868,1.868,0,0,0,1.621.8,1.873,1.873,0,0,0,1.6-.787A4.322,4.322,0,0,0,2.2-5.386a3.91,3.91,0,0,0-.576-2.289A1.873,1.873,0,0,0,0-8.486a1.842,1.842,0,0,0-1.6.807A4.395,4.395,0,0,0-2.168-5.181ZM9.355-10.566l.088,1.221a3.689,3.689,0,0,1,3.037-1.416,3.066,3.066,0,0,1,2.5.986,4.6,4.6,0,0,1,.84,2.949V0H13V-6.758a1.831,1.831,0,0,0-.391-1.3,1.749,1.749,0,0,0-1.3-.405A1.942,1.942,0,0,0,9.521-7.451V0H6.7V-10.566ZM23.682-2.92a.909.909,0,0,0-.513-.815,5.824,5.824,0,0,0-1.646-.532q-3.77-.791-3.77-3.2a2.9,2.9,0,0,1,1.167-2.349,4.708,4.708,0,0,1,3.052-.942,5.067,5.067,0,0,1,3.218.947A2.985,2.985,0,0,1,26.4-7.354H23.574a1.366,1.366,0,0,0-.391-1,1.653,1.653,0,0,0-1.221-.4,1.689,1.689,0,0,0-1.1.322,1.017,1.017,0,0,0-.391.82.87.87,0,0,0,.444.757,4.571,4.571,0,0,0,1.5.5,12.244,12.244,0,0,1,1.777.474,2.92,2.92,0,0,1,2.236,2.842A2.756,2.756,0,0,1,25.186-.7a5.35,5.35,0,0,1-3.2.894,5.588,5.588,0,0,1-2.358-.474,3.957,3.957,0,0,1-1.616-1.3,3.018,3.018,0,0,1-.586-1.782H20.1a1.473,1.473,0,0,0,.557,1.152,2.208,2.208,0,0,0,1.387.4,2.044,2.044,0,0,0,1.226-.308A.957.957,0,0,0,23.682-2.92ZM34.57-1.074A3.539,3.539,0,0,1,31.68.2a3.338,3.338,0,0,1-2.593-.977,4.169,4.169,0,0,1-.913-2.861v-6.924H31v6.834Q31-2.08,32.5-2.08a2.038,2.038,0,0,0,1.973-1v-7.489H37.3V0H34.648Zm7.51-9.492.088,1.182a3.713,3.713,0,0,1,3.037-1.377,2.818,2.818,0,0,1,2.8,1.611,3.628,3.628,0,0,1,3.174-1.611,3.152,3.152,0,0,1,2.559,1,4.6,4.6,0,0,1,.84,3.013V0H51.748V-6.738A2.012,2.012,0,0,0,51.4-8.052a1.558,1.558,0,0,0-1.24-.415A1.761,1.761,0,0,0,48.4-7.256L48.408,0H45.586V-6.729a1.988,1.988,0,0,0-.361-1.328,1.573,1.573,0,0,0-1.23-.41,1.829,1.829,0,0,0-1.738,1V0H39.434V-10.566ZM59.727,0H56.895V-10.566h2.832Zm-3-13.3a1.39,1.39,0,0,1,.425-1.045,1.6,1.6,0,0,1,1.157-.41,1.6,1.6,0,0,1,1.152.41,1.382,1.382,0,0,1,.43,1.045,1.386,1.386,0,0,1-.435,1.055,1.6,1.6,0,0,1-1.147.41,1.6,1.6,0,0,1-1.147-.41A1.386,1.386,0,0,1,56.729-13.3Zm4.883,7.939A6.368,6.368,0,0,1,62.72-9.3a3.6,3.6,0,0,1,3.032-1.465A3.236,3.236,0,0,1,68.3-9.609V-15h2.832V0H68.584l-.137-1.123A3.321,3.321,0,0,1,65.732.2a3.587,3.587,0,0,1-2.993-1.47A6.573,6.573,0,0,1,61.611-5.361Zm2.822.21a4.171,4.171,0,0,0,.518,2.279,1.686,1.686,0,0,0,1.5.792A1.888,1.888,0,0,0,68.3-3.185V-7.362a1.861,1.861,0,0,0-1.826-1.105Q64.434-8.467,64.434-5.151Zm8.447-.23a6.266,6.266,0,0,1,.605-2.8,4.432,4.432,0,0,1,1.743-1.9,5.086,5.086,0,0,1,2.642-.674,4.812,4.812,0,0,1,3.491,1.309A5.252,5.252,0,0,1,82.871-5.9l.02.723a5.523,5.523,0,0,1-1.357,3.9A4.718,4.718,0,0,1,77.891.2,4.742,4.742,0,0,1,74.243-1.27a5.62,5.62,0,0,1-1.362-3.984Zm2.822.2a3.95,3.95,0,0,0,.566,2.3,1.868,1.868,0,0,0,1.621.8,1.873,1.873,0,0,0,1.6-.787,4.322,4.322,0,0,0,.576-2.518,3.91,3.91,0,0,0-.576-2.289,1.873,1.873,0,0,0-1.621-.812,1.842,1.842,0,0,0-1.6.807A4.395,4.395,0,0,0,75.7-5.181ZM90.566-7.92A7.667,7.667,0,0,0,89.551-8a2.067,2.067,0,0,0-2.1,1.084V0H84.629V-10.566h2.666l.078,1.26a2.615,2.615,0,0,1,2.354-1.455,2.957,2.957,0,0,1,.879.127Zm5.9,2.539a6.266,6.266,0,0,1,.605-2.8,4.432,4.432,0,0,1,1.743-1.9,5.086,5.086,0,0,1,2.642-.674,4.812,4.812,0,0,1,3.491,1.309A5.252,5.252,0,0,1,106.455-5.9l.02.723a5.523,5.523,0,0,1-1.357,3.9A4.718,4.718,0,0,1,101.475.2,4.742,4.742,0,0,1,97.827-1.27a5.62,5.62,0,0,1-1.362-3.984Zm2.822.2a3.95,3.95,0,0,0,.566,2.3,1.868,1.868,0,0,0,1.621.8,1.873,1.873,0,0,0,1.6-.787,4.322,4.322,0,0,0,.576-2.518,3.91,3.91,0,0,0-.576-2.289,1.873,1.873,0,0,0-1.621-.812,1.842,1.842,0,0,0-1.6.807A4.395,4.395,0,0,0,99.287-5.181Zm18.3,3.1a1.851,1.851,0,0,0,1.27-.43,1.506,1.506,0,0,0,.508-1.143h2.646a3.62,3.62,0,0,1-.586,1.968A3.866,3.866,0,0,1,119.849-.3,4.936,4.936,0,0,1,117.637.2a4.587,4.587,0,0,1-3.574-1.44,5.7,5.7,0,0,1-1.309-3.979V-5.41a5.635,5.635,0,0,1,1.3-3.9,4.534,4.534,0,0,1,3.564-1.455A4.444,4.444,0,0,1,120.8-9.634a3.994,3.994,0,0,1,1.216,3h-2.646a1.939,1.939,0,0,0-.508-1.34,1.693,1.693,0,0,0-1.289-.515,1.7,1.7,0,0,0-1.489.719,4.166,4.166,0,0,0-.5,2.333v.293a4.219,4.219,0,0,0,.5,2.347A1.721,1.721,0,0,0,117.588-2.08ZM126.6,0H123.77V-15H126.6Zm5.3,0h-2.832V-10.566H131.9Zm-3-13.3a1.39,1.39,0,0,1,.425-1.045,1.6,1.6,0,0,1,1.157-.41,1.6,1.6,0,0,1,1.152.41,1.382,1.382,0,0,1,.43,1.045,1.386,1.386,0,0,1-.435,1.055,1.6,1.6,0,0,1-1.147.41,1.6,1.6,0,0,1-1.147-.41A1.386,1.386,0,0,1,128.906-13.3ZM139.092.2a5.187,5.187,0,0,1-3.784-1.426,5.068,5.068,0,0,1-1.46-3.8V-5.3a6.383,6.383,0,0,1,.615-2.847,4.515,4.515,0,0,1,1.743-1.934,4.893,4.893,0,0,1,2.573-.679,4.385,4.385,0,0,1,3.413,1.367,5.555,5.555,0,0,1,1.245,3.877v1.152h-6.729a2.622,2.622,0,0,0,.825,1.66,2.5,2.5,0,0,0,1.743.625,3.046,3.046,0,0,0,2.549-1.182l1.387,1.553a4.237,4.237,0,0,1-1.719,1.4A5.639,5.639,0,0,1,139.092.2Zm-.322-8.682a1.764,1.764,0,0,0-1.362.569,2.946,2.946,0,0,0-.669,1.628h3.926v-.226a2.1,2.1,0,0,0-.508-1.457A1.819,1.819,0,0,0,138.77-8.486Zm8.867-2.08.088,1.221a3.689,3.689,0,0,1,3.037-1.416,3.066,3.066,0,0,1,2.5.986,4.6,4.6,0,0,1,.84,2.949V0h-2.822V-6.758a1.831,1.831,0,0,0-.391-1.3,1.749,1.749,0,0,0-1.3-.405A1.942,1.942,0,0,0,147.8-7.451V0H144.98V-10.566Zm11.982-2.6v2.6h1.807V-8.5h-1.807v5.273a1.259,1.259,0,0,0,.225.84,1.128,1.128,0,0,0,.859.254,4.5,4.5,0,0,0,.83-.068V-.059A5.81,5.81,0,0,1,159.824.2q-2.969,0-3.027-3V-8.5h-1.543v-2.07H156.8v-2.6ZM167.861.2a5.187,5.187,0,0,1-3.784-1.426,5.068,5.068,0,0,1-1.46-3.8V-5.3a6.383,6.383,0,0,1,.615-2.847,4.515,4.515,0,0,1,1.743-1.934,4.893,4.893,0,0,1,2.573-.679,4.385,4.385,0,0,1,3.413,1.367,5.555,5.555,0,0,1,1.245,3.877v1.152h-6.729a2.622,2.622,0,0,0,.825,1.66,2.5,2.5,0,0,0,1.743.625A3.046,3.046,0,0,0,170.6-3.262l1.387,1.553a4.237,4.237,0,0,1-1.719,1.4A5.639,5.639,0,0,1,167.861.2Zm-.322-8.682a1.764,1.764,0,0,0-1.362.569,2.946,2.946,0,0,0-.669,1.628h3.926v-.226a2.1,2.1,0,0,0-.508-1.457A1.819,1.819,0,0,0,167.539-8.486Z" transform="translate(783 1024)" fill="#fff"/>
    <g id="Grupo_157807" data-name="Grupo 157807" transform="translate(1202.903 1015.138) rotate(90)">
      <line id="Línea_298" data-name="Línea 298" x1="134.674" y2="1" transform="translate(7.481 0.637)" fill="none" stroke="#0c0606" stroke-width="2" stroke-dasharray="4"/>
      <path id="Trazado_222853" data-name="Trazado 222853" d="M0,0,.594,134.212,1,226.041" transform="translate(7 0)" fill="none" stroke="#0c0606" stroke-width="2" stroke-dasharray="4"/>
      <line id="Línea_301-2" data-name="Línea 301" x1="8" y2="12" transform="translate(7 217.541)" fill="none" stroke="#0c0606" stroke-width="4"/>
      <line id="Línea_302-2" data-name="Línea 302" x2="9" y2="12" transform="translate(0 217.541)" fill="none" stroke="#0c0606" stroke-width="4"/>
    </g>
    <path id="Trazado_222856" data-name="Trazado 222856" d="M2-76,0,120.277" transform="translate(1208 1427.722)" fill="none" stroke="#0c0606" stroke-width="2" stroke-dasharray="4"/>
    <path id="Trazado_222855" data-name="Trazado 222855" d="M105,1-118.771.689" transform="translate(1098.594 1547.646)" fill="none" stroke="#0c0606" stroke-width="2" stroke-dasharray="4"/>
    <g id="Trazado_246524" data-name="Trazado 246524" transform="translate(668 1522)" fill="#1b3f5e">
      <path d="M 294.5 51.5 L 0.5 51.5 L 0.5 0.5 L 294.5 0.5 L 294.5 51.5 Z" stroke="none"/>
      <path d="M 1 1 L 1 51 L 294 51 L 294 1 L 1 1 M 0 0 L 295 0 L 295 52 L 0 52 L 0 0 Z" stroke="none" fill="#0e8282"/>
    </g>
    <path id="Trazado_246525" data-name="Trazado 246525" d="M-123.97,0h-3.076V-12.8h3.076Zm4.729-9.51.1,1.116a3.225,3.225,0,0,1,2.716-1.292,2.713,2.713,0,0,1,2.219.888,4.226,4.226,0,0,1,.76,2.672V0h-2.971V-6a1.6,1.6,0,0,0-.29-1.059,1.342,1.342,0,0,0-1.055-.338,1.413,1.413,0,0,0-1.292.686V0h-2.962V-9.51ZM-111.155,0V-7.453h-1.38V-9.51h1.38v-.756a3.286,3.286,0,0,1,.958-2.522,3.785,3.785,0,0,1,2.689-.9,5.89,5.89,0,0,1,1.389.185l.009,2.18a2.706,2.706,0,0,0-.729-.079q-1.345,0-1.345,1.16v.729h1.854v2.057h-1.854V0Zm5.493-4.843a5.613,5.613,0,0,1,.554-2.536,3.96,3.96,0,0,1,1.591-1.709,4.791,4.791,0,0,1,2.435-.6,4.373,4.373,0,0,1,3.366,1.323,5.076,5.076,0,0,1,1.23,3.6v.105a4.925,4.925,0,0,1-1.235,3.529A4.384,4.384,0,0,1-101.065.176a4.434,4.434,0,0,1-3.261-1.217,4.761,4.761,0,0,1-1.327-3.3Zm2.962.185a3.538,3.538,0,0,0,.413,1.934,1.376,1.376,0,0,0,1.222.615q1.582,0,1.617-2.435v-.3q0-2.558-1.635-2.558-1.485,0-1.608,2.206Zm13.271-2.171L-90.4-6.9a1.752,1.752,0,0,0-1.793.879V0h-2.962V-9.51h2.777l.1,1.222a2.294,2.294,0,0,1,2.083-1.4,2.888,2.888,0,0,1,.826.105Zm3.867-2.681.1,1.116a3.27,3.27,0,0,1,2.716-1.292,2.407,2.407,0,0,1,2.435,1.433A3.165,3.165,0,0,1-77.52-9.686q2.892,0,2.971,3.5V0H-77.52V-6a1.813,1.813,0,0,0-.246-1.063,1.048,1.048,0,0,0-.9-.334,1.4,1.4,0,0,0-1.31.782l.009.123V0h-2.971V-5.985a1.906,1.906,0,0,0-.237-1.081,1.045,1.045,0,0,0-.905-.334,1.42,1.42,0,0,0-1.3.782V0h-2.962V-9.51ZM-67.5,0a3.344,3.344,0,0,1-.281-.853A2.754,2.754,0,0,1-70.066.176a3.374,3.374,0,0,1-2.285-.813,2.588,2.588,0,0,1-.94-2.043,2.66,2.66,0,0,1,1.143-2.338,5.821,5.821,0,0,1,3.322-.791h.914v-.5q0-1.316-1.134-1.316A.927.927,0,0,0-70.1-6.587h-2.962A2.655,2.655,0,0,1-71.89-8.825a4.931,4.931,0,0,1,2.993-.86,4.323,4.323,0,0,1,2.874.888,3.086,3.086,0,0,1,1.081,2.435v4.21a4.311,4.311,0,0,0,.4,2V0Zm-1.854-1.934a1.652,1.652,0,0,0,.918-.237,1.487,1.487,0,0,0,.523-.536V-4.228h-.861q-1.547,0-1.547,1.389a.848.848,0,0,0,.272.655A.986.986,0,0,0-69.354-1.934Zm10.072-.176a1.317,1.317,0,0,0,.967-.338,1.241,1.241,0,0,0,.334-.945H-55.2A3.288,3.288,0,0,1-56.325-.826a4.168,4.168,0,0,1-2.887,1,4.22,4.22,0,0,1-3.27-1.3,5.125,5.125,0,0,1-1.2-3.6v-.123A5.792,5.792,0,0,1-63.145-7.4a3.872,3.872,0,0,1,1.534-1.7,4.573,4.573,0,0,1,2.373-.593,4.116,4.116,0,0,1,2.944,1.028A3.647,3.647,0,0,1-55.2-5.871h-2.777A1.626,1.626,0,0,0-58.342-7a1.244,1.244,0,0,0-.967-.4q-1.151,0-1.345,1.468a10.357,10.357,0,0,0-.062,1.283,4.068,4.068,0,0,0,.343,1.986A1.187,1.187,0,0,0-59.282-2.109ZM-50.827,0H-53.8V-9.51h2.971Zm-3.146-11.962A1.322,1.322,0,0,1-53.517-13a1.724,1.724,0,0,1,1.187-.4,1.724,1.724,0,0,1,1.187.4,1.322,1.322,0,0,1,.457,1.037,1.322,1.322,0,0,1-.457,1.037,1.724,1.724,0,0,1-1.187.4,1.724,1.724,0,0,1-1.187-.4A1.322,1.322,0,0,1-53.974-11.962Zm4.6,7.119a5.613,5.613,0,0,1,.554-2.536,3.96,3.96,0,0,1,1.591-1.709,4.791,4.791,0,0,1,2.435-.6,4.373,4.373,0,0,1,3.366,1.323,5.076,5.076,0,0,1,1.23,3.6v.105a4.925,4.925,0,0,1-1.235,3.529A4.384,4.384,0,0,1-44.78.176a4.434,4.434,0,0,1-3.261-1.217,4.761,4.761,0,0,1-1.327-3.3Zm2.962.185A3.538,3.538,0,0,0-46-2.725a1.376,1.376,0,0,0,1.222.615q1.582,0,1.617-2.435v-.3q0-2.558-1.635-2.558-1.485,0-1.608,2.206Zm2.021-8.842h3.129l-2.443,2.76-2.417,0Zm8.218,3.99.1,1.116a3.225,3.225,0,0,1,2.716-1.292,2.713,2.713,0,0,1,2.219.888,4.226,4.226,0,0,1,.76,2.672V0h-2.971V-6a1.6,1.6,0,0,0-.29-1.059A1.342,1.342,0,0,0-34.7-7.4a1.413,1.413,0,0,0-1.292.686V0h-2.962V-9.51Zm16.893,6.838a.684.684,0,0,0-.4-.606,6.016,6.016,0,0,0-1.5-.475A6.853,6.853,0,0,1-23.01-4.4a3.062,3.062,0,0,1-1.1-.971,2.319,2.319,0,0,1-.378-1.31,2.628,2.628,0,0,1,1.081-2.158,4.453,4.453,0,0,1,2.83-.848,4.934,4.934,0,0,1,3.023.853,2.666,2.666,0,0,1,1.143,2.241H-19.38q0-1.143-1.2-1.143a1.194,1.194,0,0,0-.782.259.8.8,0,0,0-.316.646.737.737,0,0,0,.387.642,3.654,3.654,0,0,0,1.235.4,10.671,10.671,0,0,1,1.49.378A2.706,2.706,0,0,1-16.427-2.76,2.491,2.491,0,0,1-17.583-.642a5.068,5.068,0,0,1-2.993.817,5.172,5.172,0,0,1-2.18-.439,3.645,3.645,0,0,1-1.494-1.2,2.707,2.707,0,0,1-.536-1.591h2.769a1.145,1.145,0,0,0,.439.962,1.808,1.808,0,0,0,1.081.3,1.422,1.422,0,0,0,.91-.246A.787.787,0,0,0-19.283-2.672Zm3.867-2.171a5.613,5.613,0,0,1,.554-2.536,3.96,3.96,0,0,1,1.591-1.709,4.791,4.791,0,0,1,2.435-.6A4.373,4.373,0,0,1-7.471-8.363a5.076,5.076,0,0,1,1.23,3.6v.105A4.925,4.925,0,0,1-7.475-1.129,4.384,4.384,0,0,1-10.819.176,4.434,4.434,0,0,1-14.08-1.042a4.761,4.761,0,0,1-1.327-3.3Zm2.962.185a3.538,3.538,0,0,0,.413,1.934,1.376,1.376,0,0,0,1.222.615q1.582,0,1.617-2.435v-.3Q-9.2-7.4-10.837-7.4q-1.485,0-1.608,2.206ZM3.894-4.676a5.8,5.8,0,0,1-.967,3.595A3.238,3.238,0,0,1,.2.176,2.81,2.81,0,0,1-2.136-.976L-2.259,0H-4.913V-13.5h2.962v4.755a2.711,2.711,0,0,1,2.136-.94A3.239,3.239,0,0,1,2.927-8.411a5.826,5.826,0,0,1,.967,3.586ZM.923-4.865A3.866,3.866,0,0,0,.558-6.817,1.229,1.229,0,0,0-.562-7.4a1.418,1.418,0,0,0-1.389.763v3.773a1.426,1.426,0,0,0,1.406.755A1.258,1.258,0,0,0,.782-3.127,7.309,7.309,0,0,0,.923-4.865ZM10.951-6.829,9.976-6.9a1.752,1.752,0,0,0-1.793.879V0H5.221V-9.51H8l.1,1.222a2.294,2.294,0,0,1,2.083-1.4A2.888,2.888,0,0,1,11-9.58Zm5.669,7a4.889,4.889,0,0,1-3.542-1.305,4.507,4.507,0,0,1-1.354-3.4v-.246a5.84,5.84,0,0,1,.541-2.575,3.955,3.955,0,0,1,1.578-1.727A4.763,4.763,0,0,1,16.3-9.686a4.117,4.117,0,0,1,3.164,1.244,4.887,4.887,0,0,1,1.16,3.467v1.151H14.739a2.135,2.135,0,0,0,.694,1.257,2.066,2.066,0,0,0,1.389.457,2.662,2.662,0,0,0,2.2-.984l1.354,1.6A3.784,3.784,0,0,1,18.8-.277,5.3,5.3,0,0,1,16.62.176ZM16.286-7.4q-1.3,0-1.547,1.723h2.988v-.229a1.467,1.467,0,0,0-.36-1.1A1.434,1.434,0,0,0,16.286-7.4Zm20.25.571-.976-.07a1.752,1.752,0,0,0-1.793.879V0H30.806V-9.51h2.777l.1,1.222a2.294,2.294,0,0,1,2.083-1.4,2.888,2.888,0,0,1,.826.105Zm5.669,7a4.889,4.889,0,0,1-3.542-1.305,4.507,4.507,0,0,1-1.354-3.4v-.246a5.84,5.84,0,0,1,.541-2.575,3.955,3.955,0,0,1,1.578-1.727,4.763,4.763,0,0,1,2.461-.611,4.117,4.117,0,0,1,3.164,1.244,4.887,4.887,0,0,1,1.16,3.467v1.151H40.324a2.135,2.135,0,0,0,.694,1.257,2.066,2.066,0,0,0,1.389.457,2.662,2.662,0,0,0,2.2-.984l1.354,1.6A3.784,3.784,0,0,1,44.389-.277,5.3,5.3,0,0,1,42.205.176ZM41.871-7.4q-1.3,0-1.547,1.723h2.988v-.229a1.467,1.467,0,0,0-.36-1.1A1.434,1.434,0,0,0,41.871-7.4ZM50.124-9.51l.1,1.116a3.225,3.225,0,0,1,2.716-1.292,2.713,2.713,0,0,1,2.219.888,4.226,4.226,0,0,1,.76,2.672V0H52.945V-6a1.6,1.6,0,0,0-.29-1.059A1.342,1.342,0,0,0,51.6-7.4a1.413,1.413,0,0,0-1.292.686V0H47.347V-9.51Zm7.058,4.685a5.809,5.809,0,0,1,.976-3.56,3.211,3.211,0,0,1,2.725-1.3,2.731,2.731,0,0,1,2.145,1V-13.5H66V0H63.334l-.149-1.02a2.8,2.8,0,0,1-2.32,1.2,3.205,3.205,0,0,1-2.689-1.3A5.993,5.993,0,0,1,57.182-4.825Zm2.962.185q0,2.531,1.477,2.531a1.458,1.458,0,0,0,1.406-.826V-6.557A1.419,1.419,0,0,0,61.638-7.4q-1.371,0-1.485,2.215ZM70.8,0H67.834V-9.51H70.8ZM67.658-11.962A1.322,1.322,0,0,1,68.115-13a1.724,1.724,0,0,1,1.187-.4,1.724,1.724,0,0,1,1.187.4,1.322,1.322,0,0,1,.457,1.037,1.322,1.322,0,0,1-.457,1.037,1.724,1.724,0,0,1-1.187.4,1.724,1.724,0,0,1-1.187-.4A1.322,1.322,0,0,1,67.658-11.962Zm7.77,2.452.1,1.116A3.27,3.27,0,0,1,78.24-9.686a2.407,2.407,0,0,1,2.435,1.433A3.165,3.165,0,0,1,83.47-9.686q2.892,0,2.971,3.5V0H83.47V-6a1.813,1.813,0,0,0-.246-1.063,1.048,1.048,0,0,0-.9-.334,1.4,1.4,0,0,0-1.31.782l.009.123V0H78.056V-5.985a1.906,1.906,0,0,0-.237-1.081,1.045,1.045,0,0,0-.905-.334,1.42,1.42,0,0,0-1.3.782V0H72.65V-9.51ZM91.257,0H88.286V-9.51h2.971ZM88.11-11.962A1.322,1.322,0,0,1,88.567-13a1.724,1.724,0,0,1,1.187-.4,1.724,1.724,0,0,1,1.187.4,1.322,1.322,0,0,1,.457,1.037,1.322,1.322,0,0,1-.457,1.037,1.724,1.724,0,0,1-1.187.4,1.724,1.724,0,0,1-1.187-.4A1.322,1.322,0,0,1,88.11-11.962ZM97.682.176A4.889,4.889,0,0,1,94.14-1.129a4.507,4.507,0,0,1-1.354-3.4v-.246a5.84,5.84,0,0,1,.541-2.575A3.955,3.955,0,0,1,94.9-9.075a4.763,4.763,0,0,1,2.461-.611,4.117,4.117,0,0,1,3.164,1.244,4.887,4.887,0,0,1,1.16,3.467v1.151H95.8A2.135,2.135,0,0,0,96.5-2.566a2.066,2.066,0,0,0,1.389.457,2.662,2.662,0,0,0,2.2-.984l1.354,1.6A3.784,3.784,0,0,1,99.866-.277,5.3,5.3,0,0,1,97.682.176ZM97.348-7.4q-1.3,0-1.547,1.723h2.988v-.229a1.467,1.467,0,0,0-.36-1.1A1.434,1.434,0,0,0,97.348-7.4ZM105.6-9.51l.1,1.116a3.225,3.225,0,0,1,2.716-1.292,2.713,2.713,0,0,1,2.219.888,4.226,4.226,0,0,1,.76,2.672V0h-2.971V-6a1.6,1.6,0,0,0-.29-1.059,1.342,1.342,0,0,0-1.055-.338,1.413,1.413,0,0,0-1.292.686V0h-2.962V-9.51Zm10.881-2.364V-9.51h1.564v2.057h-1.564V-3.1a1.111,1.111,0,0,0,.193.747,1.037,1.037,0,0,0,.765.211,4.345,4.345,0,0,0,.738-.053V-.079a5.466,5.466,0,0,1-1.67.255,3.1,3.1,0,0,1-2.259-.721,2.954,2.954,0,0,1-.729-2.188v-4.72h-1.213V-9.51h1.213v-2.364Zm2.092,7.031a5.613,5.613,0,0,1,.554-2.536,3.96,3.96,0,0,1,1.591-1.709,4.791,4.791,0,0,1,2.435-.6,4.373,4.373,0,0,1,3.366,1.323,5.076,5.076,0,0,1,1.23,3.6v.105a4.925,4.925,0,0,1-1.235,3.529A4.384,4.384,0,0,1,123.17.176a4.434,4.434,0,0,1-3.261-1.217,4.761,4.761,0,0,1-1.327-3.3Zm2.962.185a3.538,3.538,0,0,0,.413,1.934,1.376,1.376,0,0,0,1.222.615q1.582,0,1.617-2.435v-.3q0-2.558-1.635-2.558-1.485,0-1.608,2.206Z" transform="translate(816 1554)" fill="#fff"/>
    <g id="Grupo_157808" data-name="Grupo 157808" transform="translate(395.712 1442.412)">
      <line id="Línea_298-2" data-name="Línea 298" x1="256" y1="1" transform="translate(1.288 97.588)" fill="none" stroke="#0c0606" stroke-width="2" stroke-dasharray="4"/>
      <path id="Trazado_222857" data-name="Trazado 222857" d="M0,96.484,1,0" transform="translate(7 2.815)" fill="none" stroke="#0c0606" stroke-width="2" stroke-dasharray="4"/>
      <line id="Línea_301-3" data-name="Línea 301" x1="8" y1="12" transform="translate(7)" fill="none" stroke="#0c0606" stroke-width="5"/>
      <line id="Línea_302-3" data-name="Línea 302" y1="12" x2="9" fill="none" stroke="#0c0606" stroke-width="5"/>
    </g>
    <path id="Trazado_222858" data-name="Trazado 222858" d="M9.2.907.136,23.16c-.568,1.392.753,2.8,1.913,2.042l6.612-4.327V93.187L2.234,100.7v6.5l6.427-7.179v2.423l-6.427,7.513v6.5l8.2-9.165,8.2,9.165v-6.5l-6.427-7.513v-2.423l6.427,7.179v-6.5l-6.427-7.514V20.874L18.828,25.2c1.16.76,2.481-.649,1.914-2.042L11.677.907A1.3,1.3,0,0,0,9.2.907" transform="translate(489.254 1253.098) rotate(90)" stroke="#b5afa7" stroke-width="0.5"/>
    <path id="Trazado_246534" data-name="Trazado 246534" d="M-27.895,0h-1.5V-11.375h1.5Zm3.883-8.453.047,1.063a3.08,3.08,0,0,1,2.531-1.219q2.68,0,2.7,3.023V0h-1.445V-5.594a1.946,1.946,0,0,0-.418-1.352,1.675,1.675,0,0,0-1.277-.437,2.086,2.086,0,0,0-1.234.375,2.546,2.546,0,0,0-.828.984V0h-1.445V-8.453Zm12.383,6.211a1.064,1.064,0,0,0-.441-.91,4.249,4.249,0,0,0-1.539-.559,7.277,7.277,0,0,1-1.742-.562,2.479,2.479,0,0,1-.953-.781,1.869,1.869,0,0,1-.309-1.078,2.193,2.193,0,0,1,.879-1.758,3.432,3.432,0,0,1,2.246-.719,3.532,3.532,0,0,1,2.332.742,2.357,2.357,0,0,1,.895,1.9h-1.453a1.3,1.3,0,0,0-.5-1.023,1.888,1.888,0,0,0-1.27-.43,1.976,1.976,0,0,0-1.234.344,1.082,1.082,0,0,0-.445.9.877.877,0,0,0,.414.789,5.1,5.1,0,0,0,1.5.508A7.8,7.8,0,0,1-11.5-4.3a2.558,2.558,0,0,1,1,.809,1.988,1.988,0,0,1,.324,1.152A2.163,2.163,0,0,1-11.09-.527a3.8,3.8,0,0,1-2.352.684,4.257,4.257,0,0,1-1.8-.359,2.922,2.922,0,0,1-1.223-1A2.42,2.42,0,0,1-16.9-2.6h1.445a1.5,1.5,0,0,0,.582,1.152,2.258,2.258,0,0,0,1.434.426,2.331,2.331,0,0,0,1.316-.332A1.02,1.02,0,0,0-11.629-2.242ZM-3.082-.836A3.07,3.07,0,0,1-5.559.156,2.628,2.628,0,0,1-7.617-.629a3.4,3.4,0,0,1-.715-2.324v-5.5h1.445v5.461q0,1.922,1.563,1.922A2.163,2.163,0,0,0-3.121-2.3V-8.453h1.445V0H-3.051ZM1.879-8.453l.039.938A3.122,3.122,0,0,1,4.426-8.609,2.417,2.417,0,0,1,6.84-7.25a3.2,3.2,0,0,1,1.1-.984,3.242,3.242,0,0,1,1.6-.375q2.781,0,2.828,2.945V0H10.918V-5.578A1.941,1.941,0,0,0,10.5-6.934a1.823,1.823,0,0,0-1.391-.449,1.916,1.916,0,0,0-1.336.48A1.949,1.949,0,0,0,7.16-5.609V0H5.707V-5.539A1.613,1.613,0,0,0,3.9-7.383,1.934,1.934,0,0,0,1.957-6.172V0H.512V-8.453ZM14.16-4.3a4.993,4.993,0,0,1,.488-2.234A3.643,3.643,0,0,1,16.008-8.07,3.7,3.7,0,0,1,18-8.609a3.565,3.565,0,0,1,2.793,1.2,4.6,4.6,0,0,1,1.066,3.18v.1a5.036,5.036,0,0,1-.473,2.215A3.589,3.589,0,0,1,20.031-.391a3.743,3.743,0,0,1-2.02.547,3.556,3.556,0,0,1-2.785-1.2A4.575,4.575,0,0,1,14.16-4.2Zm1.453.172a3.616,3.616,0,0,0,.652,2.258,2.088,2.088,0,0,0,1.746.852,2.075,2.075,0,0,0,1.75-.863A3.955,3.955,0,0,0,20.41-4.3a3.61,3.61,0,0,0-.66-2.254A2.1,2.1,0,0,0,18-7.422a2.075,2.075,0,0,0-1.727.852A3.925,3.925,0,0,0,15.613-4.133ZM28.59-2.242a1.064,1.064,0,0,0-.441-.91,4.249,4.249,0,0,0-1.539-.559,7.277,7.277,0,0,1-1.742-.562,2.479,2.479,0,0,1-.953-.781,1.869,1.869,0,0,1-.309-1.078,2.193,2.193,0,0,1,.879-1.758,3.432,3.432,0,0,1,2.246-.719,3.532,3.532,0,0,1,2.332.742,2.357,2.357,0,0,1,.895,1.9H28.5A1.3,1.3,0,0,0,28-6.992a1.888,1.888,0,0,0-1.27-.43,1.976,1.976,0,0,0-1.234.344,1.082,1.082,0,0,0-.445.9.877.877,0,0,0,.414.789,5.1,5.1,0,0,0,1.5.508,7.8,7.8,0,0,1,1.754.578,2.558,2.558,0,0,1,1,.809,1.988,1.988,0,0,1,.324,1.152,2.163,2.163,0,0,1-.906,1.816,3.8,3.8,0,0,1-2.352.684A4.257,4.257,0,0,1,24.98-.2a2.922,2.922,0,0,1-1.223-1A2.42,2.42,0,0,1,23.316-2.6h1.445a1.5,1.5,0,0,0,.582,1.152,2.258,2.258,0,0,0,1.434.426,2.331,2.331,0,0,0,1.316-.332A1.02,1.02,0,0,0,28.59-2.242Z" transform="translate(421 1241)" fill="#0c0606"/>
    <path id="Trazado_246533" data-name="Trazado 246533" d="M-18.973-5.258H-23.9v4.031h5.727V0H-25.4V-11.375h7.148v1.227H-23.9v3.664h4.93Zm3.8-3.2.047,1.063A3.08,3.08,0,0,1-12.59-8.609q2.68,0,2.7,3.023V0h-1.445V-5.594a1.946,1.946,0,0,0-.418-1.352,1.675,1.675,0,0,0-1.277-.437,2.086,2.086,0,0,0-1.234.375,2.546,2.546,0,0,0-.828.984V0h-1.445V-8.453ZM-4.2.156A3.693,3.693,0,0,1-7-.973a4.19,4.19,0,0,1-1.078-3.02v-.266A5.073,5.073,0,0,1-7.594-6.5,3.748,3.748,0,0,1-6.25-8.051a3.378,3.378,0,0,1,1.871-.559A3.166,3.166,0,0,1-1.816-7.523,4.7,4.7,0,0,1-.9-4.414v.6H-6.629a3,3,0,0,0,.73,2.02,2.3,2.3,0,0,0,1.777.77,2.517,2.517,0,0,0,1.3-.312,3.259,3.259,0,0,0,.93-.828l.883.688A3.55,3.55,0,0,1-4.2.156Zm-.18-7.578a1.928,1.928,0,0,0-1.469.637A3.1,3.1,0,0,0-6.582-5h4.234v-.109a2.753,2.753,0,0,0-.594-1.707A1.815,1.815,0,0,0-4.379-7.422Zm9.234.266a4.331,4.331,0,0,0-.711-.055A1.9,1.9,0,0,0,2.215-6V0H.77V-8.453H2.176l.023.977A2.251,2.251,0,0,1,4.215-8.609a1.477,1.477,0,0,1,.641.109ZM5.84-4.3a4.968,4.968,0,0,1,.914-3.145A2.923,2.923,0,0,1,9.176-8.609,2.908,2.908,0,0,1,11.59-7.516l.07-.937h1.32V-.2a3.439,3.439,0,0,1-.973,2.586,3.589,3.589,0,0,1-2.613.945,4.348,4.348,0,0,1-1.789-.391A3.08,3.08,0,0,1,6.27,1.867L7.02,1A2.826,2.826,0,0,0,9.293,2.148a2.214,2.214,0,0,0,1.645-.594,2.269,2.269,0,0,0,.59-1.672V-.844a2.971,2.971,0,0,1-2.367,1,2.887,2.887,0,0,1-2.4-1.2A5.224,5.224,0,0,1,5.84-4.3Zm1.453.164a3.79,3.79,0,0,0,.586,2.246A1.9,1.9,0,0,0,9.52-1.07a2.117,2.117,0,0,0,2.008-1.242V-6.172A2.142,2.142,0,0,0,9.535-7.383a1.921,1.921,0,0,0-1.648.82A4.128,4.128,0,0,0,7.293-4.133ZM16.73,0H15.277V-8.453H16.73Zm.016-11.992H18.5L16.4-9.7l-1.164,0ZM24.332,0a3.036,3.036,0,0,1-.2-.891A3.225,3.225,0,0,1,21.723.156a2.984,2.984,0,0,1-2.051-.707,2.287,2.287,0,0,1-.8-1.793,2.39,2.39,0,0,1,1-2.051,4.733,4.733,0,0,1,2.824-.73h1.406v-.664A1.623,1.623,0,0,0,23.652-7a1.821,1.821,0,0,0-1.336-.449,2.108,2.108,0,0,0-1.3.391,1.151,1.151,0,0,0-.523.945H19.043a2,2,0,0,1,.449-1.223,3.066,3.066,0,0,1,1.219-.934A4.1,4.1,0,0,1,22.4-8.609a3.342,3.342,0,0,1,2.289.73,2.635,2.635,0,0,1,.859,2.012v3.891a4.757,4.757,0,0,0,.3,1.852V0Zm-2.4-1.1a2.54,2.54,0,0,0,1.289-.352,2.127,2.127,0,0,0,.883-.914V-4.1H22.973q-2.656,0-2.656,1.555a1.316,1.316,0,0,0,.453,1.063A1.742,1.742,0,0,0,21.934-1.1ZM-34.234,12.625l3.719,9.281,3.719-9.281h1.945V24h-1.5V19.57l.141-4.781L-29.945,24h-1.148l-3.727-9.187.148,4.758V24h-1.5V12.625ZM-17.211,24a3.036,3.036,0,0,1-.2-.891,3.225,3.225,0,0,1-2.406,1.047,2.984,2.984,0,0,1-2.051-.707,2.287,2.287,0,0,1-.8-1.793,2.39,2.39,0,0,1,1-2.051,4.733,4.733,0,0,1,2.824-.73h1.406v-.664A1.623,1.623,0,0,0-17.891,17a1.821,1.821,0,0,0-1.336-.449,2.108,2.108,0,0,0-1.3.391,1.151,1.151,0,0,0-.523.945H-22.5a2,2,0,0,1,.449-1.223,3.066,3.066,0,0,1,1.219-.934,4.1,4.1,0,0,1,1.691-.344,3.342,3.342,0,0,1,2.289.73,2.635,2.635,0,0,1,.859,2.012v3.891a4.757,4.757,0,0,0,.3,1.852V24Zm-2.4-1.1a2.54,2.54,0,0,0,1.289-.352,2.127,2.127,0,0,0,.883-.914V19.9H-18.57q-2.656,0-2.656,1.555a1.316,1.316,0,0,0,.453,1.063A1.742,1.742,0,0,0-19.609,22.9Zm7.844-9.4v2.047h1.578v1.117h-1.578v5.249a1.173,1.173,0,0,0,.211.763.888.888,0,0,0,.719.254,3.5,3.5,0,0,0,.688-.094V24a4.215,4.215,0,0,1-1.109.155,1.8,1.8,0,0,1-1.461-.586,2.517,2.517,0,0,1-.492-1.664V16.664H-14.75V15.547h1.539V13.5Zm6.773,10.656a3.693,3.693,0,0,1-2.8-1.129,4.19,4.19,0,0,1-1.078-3.02v-.266a5.073,5.073,0,0,1,.48-2.246,3.748,3.748,0,0,1,1.344-1.547,3.378,3.378,0,0,1,1.871-.559,3.166,3.166,0,0,1,2.563,1.086A4.7,4.7,0,0,1-1.7,19.586v.6H-7.422a3,3,0,0,0,.73,2.02,2.3,2.3,0,0,0,1.777.77,2.517,2.517,0,0,0,1.3-.312,3.259,3.259,0,0,0,.93-.828l.883.688A3.55,3.55,0,0,1-4.992,24.156Zm-.18-7.578a1.928,1.928,0,0,0-1.469.637A3.1,3.1,0,0,0-7.375,19h4.234v-.109a2.753,2.753,0,0,0-.594-1.707A1.815,1.815,0,0,0-5.172,16.578Zm9.234.266a4.331,4.331,0,0,0-.711-.055A1.9,1.9,0,0,0,1.422,18v6H-.023V15.547H1.383l.023.977a2.251,2.251,0,0,1,2.016-1.133,1.477,1.477,0,0,1,.641.109ZM6.961,24H5.516V15.547H6.961ZM5.4,13.3a.863.863,0,0,1,.215-.594.807.807,0,0,1,.637-.242.819.819,0,0,1,.641.242.854.854,0,0,1,.219.594.826.826,0,0,1-.219.586.834.834,0,0,1-.641.234.821.821,0,0,1-.637-.234A.834.834,0,0,1,5.4,13.3ZM14.492,24a3.036,3.036,0,0,1-.2-.891,3.225,3.225,0,0,1-2.406,1.047,2.984,2.984,0,0,1-2.051-.707,2.287,2.287,0,0,1-.8-1.793,2.39,2.39,0,0,1,1-2.051,4.733,4.733,0,0,1,2.824-.73h1.406v-.664A1.623,1.623,0,0,0,13.813,17a1.821,1.821,0,0,0-1.336-.449,2.108,2.108,0,0,0-1.3.391,1.151,1.151,0,0,0-.523.945H9.2a2,2,0,0,1,.449-1.223,3.066,3.066,0,0,1,1.219-.934,4.1,4.1,0,0,1,1.691-.344,3.342,3.342,0,0,1,2.289.73,2.635,2.635,0,0,1,.859,2.012v3.891a4.757,4.757,0,0,0,.3,1.852V24Zm-2.4-1.1a2.54,2.54,0,0,0,1.289-.352,2.127,2.127,0,0,0,.883-.914V19.9H13.133q-2.656,0-2.656,1.555a1.316,1.316,0,0,0,.453,1.063A1.742,1.742,0,0,0,12.094,22.9ZM19.547,24H18.1V12h1.445Zm5.82.156a3.693,3.693,0,0,1-2.8-1.129,4.19,4.19,0,0,1-1.078-3.02v-.266a5.073,5.073,0,0,1,.48-2.246,3.748,3.748,0,0,1,1.344-1.547,3.378,3.378,0,0,1,1.871-.559,3.166,3.166,0,0,1,2.563,1.086,4.7,4.7,0,0,1,.914,3.109v.6H22.938a3,3,0,0,0,.73,2.02,2.3,2.3,0,0,0,1.777.77,2.517,2.517,0,0,0,1.3-.312,3.259,3.259,0,0,0,.93-.828l.883.688A3.55,3.55,0,0,1,25.367,24.156Zm-.18-7.578a1.928,1.928,0,0,0-1.469.637A3.1,3.1,0,0,0,22.984,19h4.234v-.109a2.753,2.753,0,0,0-.594-1.707A1.815,1.815,0,0,0,25.188,16.578Zm10.07,5.18a1.064,1.064,0,0,0-.441-.91,4.249,4.249,0,0,0-1.539-.559,7.277,7.277,0,0,1-1.742-.562,2.479,2.479,0,0,1-.953-.781,1.869,1.869,0,0,1-.309-1.078,2.193,2.193,0,0,1,.879-1.758,3.432,3.432,0,0,1,2.246-.719,3.532,3.532,0,0,1,2.332.742,2.357,2.357,0,0,1,.895,1.9H35.172a1.3,1.3,0,0,0-.5-1.023,1.888,1.888,0,0,0-1.27-.43,1.976,1.976,0,0,0-1.234.344,1.082,1.082,0,0,0-.445.9.877.877,0,0,0,.414.789,5.1,5.1,0,0,0,1.5.508,7.8,7.8,0,0,1,1.754.578,2.558,2.558,0,0,1,1,.809,1.988,1.988,0,0,1,.324,1.152,2.163,2.163,0,0,1-.906,1.816,3.8,3.8,0,0,1-2.352.684,4.257,4.257,0,0,1-1.8-.359,2.922,2.922,0,0,1-1.223-1,2.42,2.42,0,0,1-.441-1.395H31.43a1.5,1.5,0,0,0,.582,1.152,2.258,2.258,0,0,0,1.434.426,2.331,2.331,0,0,0,1.316-.332A1.02,1.02,0,0,0,35.258,21.758ZM-45.719,36.625-42,45.906l3.719-9.281h1.945V48h-1.5V43.57l.141-4.781L-41.43,48h-1.148L-46.3,38.813l.148,4.758V48h-1.5V36.625ZM-28.7,48a3.036,3.036,0,0,1-.2-.891A3.225,3.225,0,0,1-31.3,48.156a2.984,2.984,0,0,1-2.051-.707,2.287,2.287,0,0,1-.8-1.793,2.39,2.39,0,0,1,1-2.051,4.733,4.733,0,0,1,2.824-.73h1.406v-.664A1.623,1.623,0,0,0-29.375,41a1.821,1.821,0,0,0-1.336-.449,2.107,2.107,0,0,0-1.3.391,1.151,1.151,0,0,0-.523.945h-1.453a2,2,0,0,1,.449-1.223,3.066,3.066,0,0,1,1.219-.934,4.1,4.1,0,0,1,1.691-.344,3.342,3.342,0,0,1,2.289.73,2.635,2.635,0,0,1,.859,2.012v3.891a4.757,4.757,0,0,0,.3,1.852V48Zm-2.4-1.1a2.54,2.54,0,0,0,1.289-.352,2.127,2.127,0,0,0,.883-.914V43.9h-1.133q-2.656,0-2.656,1.555a1.316,1.316,0,0,0,.453,1.063A1.742,1.742,0,0,0-31.094,46.9Zm7.25-7.352.047,1.063a3.08,3.08,0,0,1,2.531-1.219q2.68,0,2.7,3.023V48h-1.445V42.406a1.946,1.946,0,0,0-.418-1.352,1.675,1.675,0,0,0-1.277-.437,2.086,2.086,0,0,0-1.234.375,2.546,2.546,0,0,0-.828.984V48h-1.445V39.547Zm7.078,4.148a4.993,4.993,0,0,1,.488-2.234,3.643,3.643,0,0,1,1.359-1.531,3.7,3.7,0,0,1,1.988-.539,3.565,3.565,0,0,1,2.793,1.2,4.6,4.6,0,0,1,1.066,3.18v.1a5.036,5.036,0,0,1-.473,2.215,3.589,3.589,0,0,1-1.352,1.527,3.743,3.743,0,0,1-2.02.547,3.556,3.556,0,0,1-2.785-1.2A4.575,4.575,0,0,1-16.766,43.8Zm1.453.172a3.616,3.616,0,0,0,.652,2.258,2.088,2.088,0,0,0,1.746.852,2.075,2.075,0,0,0,1.75-.863,3.955,3.955,0,0,0,.648-2.418,3.61,3.61,0,0,0-.66-2.254,2.1,2.1,0,0,0-1.754-.863,2.075,2.075,0,0,0-1.727.852A3.925,3.925,0,0,0-15.312,43.867ZM-3.648,43.7a4.952,4.952,0,0,1,.922-3.129A2.915,2.915,0,0,1-.312,39.391a2.932,2.932,0,0,1,2.352,1.016V36H3.484V48H2.156l-.07-.906A2.943,2.943,0,0,1-.328,48.156a2.887,2.887,0,0,1-2.395-1.2,5.008,5.008,0,0,1-.926-3.141Zm1.445.164a3.749,3.749,0,0,0,.594,2.25,1.92,1.92,0,0,0,1.641.813A2.108,2.108,0,0,0,2.039,45.7V41.813a2.125,2.125,0,0,0-1.992-1.2,1.929,1.929,0,0,0-1.656.82A4.128,4.128,0,0,0-2.2,43.867ZM9.234,48.156a3.693,3.693,0,0,1-2.8-1.129,4.19,4.19,0,0,1-1.078-3.02v-.266A5.073,5.073,0,0,1,5.84,41.5a3.748,3.748,0,0,1,1.344-1.547,3.378,3.378,0,0,1,1.871-.559,3.166,3.166,0,0,1,2.563,1.086,4.7,4.7,0,0,1,.914,3.109v.6H6.8a3,3,0,0,0,.73,2.02,2.3,2.3,0,0,0,1.777.77,2.517,2.517,0,0,0,1.3-.312,3.258,3.258,0,0,0,.93-.828l.883.688A3.55,3.55,0,0,1,9.234,48.156Zm-.18-7.578a1.928,1.928,0,0,0-1.469.637A3.1,3.1,0,0,0,6.852,43h4.234v-.109a2.753,2.753,0,0,0-.594-1.707A1.815,1.815,0,0,0,9.055,40.578ZM17.781,43.7a4.993,4.993,0,0,1,.488-2.234,3.643,3.643,0,0,1,1.359-1.531,3.7,3.7,0,0,1,1.988-.539,3.565,3.565,0,0,1,2.793,1.2,4.6,4.6,0,0,1,1.066,3.18v.1A5.036,5.036,0,0,1,25,46.082a3.589,3.589,0,0,1-1.352,1.527,3.743,3.743,0,0,1-2.02.547,3.556,3.556,0,0,1-2.785-1.2A4.575,4.575,0,0,1,17.781,43.8Zm1.453.172a3.616,3.616,0,0,0,.652,2.258,2.211,2.211,0,0,0,3.5-.012,3.955,3.955,0,0,0,.648-2.418,3.61,3.61,0,0,0-.66-2.254,2.1,2.1,0,0,0-1.754-.863,2.075,2.075,0,0,0-1.727.852A3.925,3.925,0,0,0,19.234,43.867Zm15.211,0a5.026,5.026,0,0,1-.891,3.113,2.846,2.846,0,0,1-2.391,1.176,2.947,2.947,0,0,1-2.477-1.133l-.07.977H27.289V36h1.445v4.477a2.93,2.93,0,0,1,2.414-1.086,2.863,2.863,0,0,1,2.418,1.164,5.177,5.177,0,0,1,.879,3.188ZM33,43.7a3.906,3.906,0,0,0-.57-2.281,1.888,1.888,0,0,0-1.641-.8,2.122,2.122,0,0,0-2.055,1.328V45.6A2.181,2.181,0,0,0,30.8,46.93a1.878,1.878,0,0,0,1.617-.8A4.153,4.153,0,0,0,33,43.7Zm7.352-2.859a4.331,4.331,0,0,0-.711-.055A1.9,1.9,0,0,0,37.711,42v6H36.266V39.547h1.406l.023.977a2.251,2.251,0,0,1,2.016-1.133,1.477,1.477,0,0,1,.641.109ZM46.586,48a3.036,3.036,0,0,1-.2-.891,3.225,3.225,0,0,1-2.406,1.047,2.984,2.984,0,0,1-2.051-.707,2.287,2.287,0,0,1-.8-1.793,2.39,2.39,0,0,1,1-2.051,4.733,4.733,0,0,1,2.824-.73h1.406v-.664A1.623,1.623,0,0,0,45.906,41a1.821,1.821,0,0,0-1.336-.449,2.107,2.107,0,0,0-1.3.391,1.151,1.151,0,0,0-.523.945H41.3a2,2,0,0,1,.449-1.223,3.066,3.066,0,0,1,1.219-.934,4.1,4.1,0,0,1,1.691-.344,3.342,3.342,0,0,1,2.289.73,2.635,2.635,0,0,1,.859,2.012v3.891a4.757,4.757,0,0,0,.3,1.852V48Zm-2.4-1.1a2.54,2.54,0,0,0,1.289-.352,2.127,2.127,0,0,0,.883-.914V43.9H45.227q-2.656,0-2.656,1.555a1.316,1.316,0,0,0,.453,1.063A1.742,1.742,0,0,0,44.188,46.9ZM-15.207,68.391a4.185,4.185,0,0,1-1.332,2.785,4.365,4.365,0,0,1-2.98.98,4.008,4.008,0,0,1-3.23-1.445,5.815,5.815,0,0,1-1.215-3.867V65.75a6.481,6.481,0,0,1,.566-2.789,4.231,4.231,0,0,1,1.605-1.848,4.47,4.47,0,0,1,2.406-.645A4.11,4.11,0,0,1-16.48,61.48a4.235,4.235,0,0,1,1.273,2.8h-1.508a3.268,3.268,0,0,0-.848-1.975,2.565,2.565,0,0,0-1.824-.611,2.684,2.684,0,0,0-2.254,1.063,4.882,4.882,0,0,0-.816,3.026v1.1a5.018,5.018,0,0,0,.773,2.948A2.5,2.5,0,0,0-19.52,70.93a2.887,2.887,0,0,0,1.918-.566,3.143,3.143,0,0,0,.887-1.973ZM-8.168,72a3.036,3.036,0,0,1-.2-.891,3.225,3.225,0,0,1-2.406,1.047,2.984,2.984,0,0,1-2.051-.707,2.287,2.287,0,0,1-.8-1.793,2.39,2.39,0,0,1,1-2.051,4.733,4.733,0,0,1,2.824-.73h1.406v-.664A1.623,1.623,0,0,0-8.848,65a1.821,1.821,0,0,0-1.336-.449,2.108,2.108,0,0,0-1.3.391,1.151,1.151,0,0,0-.523.945h-1.453a2,2,0,0,1,.449-1.223,3.066,3.066,0,0,1,1.219-.934,4.1,4.1,0,0,1,1.691-.344,3.342,3.342,0,0,1,2.289.73,2.635,2.635,0,0,1,.859,2.012v3.891a4.757,4.757,0,0,0,.3,1.852V72Zm-2.4-1.1a2.54,2.54,0,0,0,1.289-.352,2.127,2.127,0,0,0,.883-.914V67.9H-9.527q-2.656,0-2.656,1.555a1.316,1.316,0,0,0,.453,1.063A1.742,1.742,0,0,0-10.566,70.9ZM2.457,67.867a5.062,5.062,0,0,1-.883,3.109,2.829,2.829,0,0,1-2.391,1.18,3.1,3.1,0,0,1-2.422-.977v4.07H-4.684v-11.7h1.32l.07.938A2.977,2.977,0,0,1-.84,63.391a2.882,2.882,0,0,1,2.41,1.148,5.117,5.117,0,0,1,.887,3.2ZM1.012,67.7A3.735,3.735,0,0,0,.4,65.445a1.963,1.963,0,0,0-1.672-.828,2.125,2.125,0,0,0-1.969,1.164V69.82a2.129,2.129,0,0,0,1.984,1.156A1.954,1.954,0,0,0,.4,70.152,4.077,4.077,0,0,0,1.012,67.7ZM5.863,72H4.418V63.547H5.863ZM4.3,61.3a.863.863,0,0,1,.215-.594.807.807,0,0,1,.637-.242.819.819,0,0,1,.641.242.854.854,0,0,1,.219.594.826.826,0,0,1-.219.586.834.834,0,0,1-.641.234.821.821,0,0,1-.637-.234A.834.834,0,0,1,4.3,61.3Zm5.836.2v2.047h1.578v1.117H10.137v5.249a1.173,1.173,0,0,0,.211.763.888.888,0,0,0,.719.254,3.5,3.5,0,0,0,.688-.094V72a4.215,4.215,0,0,1-1.109.155,1.8,1.8,0,0,1-1.461-.586,2.517,2.517,0,0,1-.492-1.664V64.664H7.152V63.547H8.691V61.5ZM18.621,72a3.036,3.036,0,0,1-.2-.891,3.225,3.225,0,0,1-2.406,1.047,2.984,2.984,0,0,1-2.051-.707,2.287,2.287,0,0,1-.8-1.793,2.39,2.39,0,0,1,1-2.051,4.733,4.733,0,0,1,2.824-.73h1.406v-.664A1.623,1.623,0,0,0,17.941,65a1.821,1.821,0,0,0-1.336-.449,2.108,2.108,0,0,0-1.3.391,1.151,1.151,0,0,0-.523.945H13.332a2,2,0,0,1,.449-1.223A3.066,3.066,0,0,1,15,63.734a4.1,4.1,0,0,1,1.691-.344,3.342,3.342,0,0,1,2.289.73,2.635,2.635,0,0,1,.859,2.012v3.891a4.757,4.757,0,0,0,.3,1.852V72Zm-2.4-1.1a2.54,2.54,0,0,0,1.289-.352,2.127,2.127,0,0,0,.883-.914V67.9H17.262q-2.656,0-2.656,1.555a1.316,1.316,0,0,0,.453,1.063A1.742,1.742,0,0,0,16.223,70.9ZM23.676,72H22.23V60h1.445ZM-40.176,96h-1.5V84.625h1.5Zm3.883-8.453.047,1.063a3.08,3.08,0,0,1,2.531-1.219q2.68,0,2.7,3.023V96h-1.445V90.406a1.946,1.946,0,0,0-.418-1.352,1.675,1.675,0,0,0-1.277-.437,2.086,2.086,0,0,0-1.234.375,2.546,2.546,0,0,0-.828.984V96H-37.66V87.547ZM-28.121,96V88.664h-1.336V87.547h1.336V86.68a2.878,2.878,0,0,1,.727-2.1,2.745,2.745,0,0,1,2.055-.742,3.816,3.816,0,0,1,.992.132l-.078,1.165a4.151,4.151,0,0,0-.781-.07,1.41,1.41,0,0,0-1.086.411,1.669,1.669,0,0,0-.383,1.18v.893h1.8v1.117h-1.8V96Zm4.461-4.3a4.993,4.993,0,0,1,.488-2.234,3.643,3.643,0,0,1,1.359-1.531,3.7,3.7,0,0,1,1.988-.539,3.565,3.565,0,0,1,2.793,1.2,4.6,4.6,0,0,1,1.066,3.18v.1a5.036,5.036,0,0,1-.473,2.215,3.589,3.589,0,0,1-1.352,1.527,3.743,3.743,0,0,1-2.02.547,3.556,3.556,0,0,1-2.785-1.2A4.575,4.575,0,0,1-23.66,91.8Zm1.453.172a3.616,3.616,0,0,0,.652,2.258,2.088,2.088,0,0,0,1.746.852,2.075,2.075,0,0,0,1.75-.863A3.955,3.955,0,0,0-17.41,91.7a3.61,3.61,0,0,0-.66-2.254,2.1,2.1,0,0,0-1.754-.863,2.075,2.075,0,0,0-1.727.852A3.925,3.925,0,0,0-22.207,91.867Zm12.141-3.023a4.331,4.331,0,0,0-.711-.055A1.9,1.9,0,0,0-12.707,90v6h-1.445V87.547h1.406l.023.977a2.251,2.251,0,0,1,2.016-1.133,1.477,1.477,0,0,1,.641.109Zm2.688-1.3.039.938a3.122,3.122,0,0,1,2.508-1.094A2.417,2.417,0,0,1-2.418,88.75a3.2,3.2,0,0,1,1.1-.984,3.242,3.242,0,0,1,1.6-.375q2.781,0,2.828,2.945V96H1.66V90.422a1.941,1.941,0,0,0-.414-1.355,1.823,1.823,0,0,0-1.391-.449,1.916,1.916,0,0,0-1.336.48A1.949,1.949,0,0,0-2.1,90.391V96H-3.551V90.461a1.613,1.613,0,0,0-1.8-1.844A1.934,1.934,0,0,0-7.3,89.828V96H-8.746V87.547ZM10.5,96a3.036,3.036,0,0,1-.2-.891,3.225,3.225,0,0,1-2.406,1.047,2.984,2.984,0,0,1-2.051-.707,2.287,2.287,0,0,1-.8-1.793,2.39,2.39,0,0,1,1-2.051,4.733,4.733,0,0,1,2.824-.73h1.406v-.664A1.623,1.623,0,0,0,9.824,89a1.821,1.821,0,0,0-1.336-.449,2.108,2.108,0,0,0-1.3.391,1.151,1.151,0,0,0-.523.945H5.215a2,2,0,0,1,.449-1.223,3.066,3.066,0,0,1,1.219-.934,4.1,4.1,0,0,1,1.691-.344,3.342,3.342,0,0,1,2.289.73,2.635,2.635,0,0,1,.859,2.012v3.891a4.757,4.757,0,0,0,.3,1.852V96Zm-2.4-1.1a2.54,2.54,0,0,0,1.289-.352,2.127,2.127,0,0,0,.883-.914V91.9H9.145q-2.656,0-2.656,1.555a1.316,1.316,0,0,0,.453,1.063A1.742,1.742,0,0,0,8.105,94.9Zm9.273.078a2.082,2.082,0,0,0,1.352-.469,1.649,1.649,0,0,0,.641-1.172h1.367a2.621,2.621,0,0,1-.5,1.383,3.293,3.293,0,0,1-1.23,1.047,3.55,3.55,0,0,1-1.629.391A3.482,3.482,0,0,1,14.633,95a4.59,4.59,0,0,1-1.02-3.152v-.242a5.089,5.089,0,0,1,.453-2.2,3.451,3.451,0,0,1,1.3-1.492,3.7,3.7,0,0,1,2-.531,3.39,3.39,0,0,1,2.363.852,3.043,3.043,0,0,1,1,2.211H19.371a1.992,1.992,0,0,0-.621-1.348,1.932,1.932,0,0,0-1.379-.527,2.023,2.023,0,0,0-1.707.793,3.724,3.724,0,0,0-.605,2.293v.273a3.65,3.65,0,0,0,.6,2.25A2.033,2.033,0,0,0,17.379,94.977ZM23.934,96H22.488V87.547h1.445ZM22.371,85.3a.863.863,0,0,1,.215-.594.807.807,0,0,1,.637-.242.819.819,0,0,1,.641.242.854.854,0,0,1,.219.594.826.826,0,0,1-.219.586.834.834,0,0,1-.641.234.821.821,0,0,1-.637-.234A.834.834,0,0,1,22.371,85.3ZM25.863,91.7a4.993,4.993,0,0,1,.488-2.234,3.643,3.643,0,0,1,1.359-1.531,3.7,3.7,0,0,1,1.988-.539,3.565,3.565,0,0,1,2.793,1.2,4.6,4.6,0,0,1,1.066,3.18v.1a5.036,5.036,0,0,1-.473,2.215,3.589,3.589,0,0,1-1.352,1.527,3.743,3.743,0,0,1-2.02.547,3.556,3.556,0,0,1-2.785-1.2A4.575,4.575,0,0,1,25.863,91.8Zm1.453.172a3.616,3.616,0,0,0,.652,2.258,2.211,2.211,0,0,0,3.5-.012,3.955,3.955,0,0,0,.648-2.418,3.61,3.61,0,0,0-.66-2.254,2.1,2.1,0,0,0-1.754-.863,2.075,2.075,0,0,0-1.727.852A3.925,3.925,0,0,0,27.316,91.867Zm9.422-4.32.047,1.063a3.08,3.08,0,0,1,2.531-1.219q2.68,0,2.7,3.023V96H40.574V90.406a1.946,1.946,0,0,0-.418-1.352,1.675,1.675,0,0,0-1.277-.437,2.086,2.086,0,0,0-1.234.375,2.546,2.546,0,0,0-.828.984V96H35.371V87.547Z" transform="translate(423 1316)" fill="#0c0606"/>
    <path id="Trazado_222859" data-name="Trazado 222859" d="M9.2.907.136,23.16c-.568,1.392.753,2.8,1.913,2.042l6.612-4.327V93.187L2.234,100.7v6.5l6.427-7.179v2.423l-6.427,7.513v6.5l8.2-9.165,8.2,9.165v-6.5l-6.427-7.513v-2.423l6.427,7.179v-6.5l-6.427-7.514V20.874L18.828,25.2c1.16.76,2.481-.649,1.914-2.042L11.677.907A1.3,1.3,0,0,0,9.2.907" transform="translate(1264.859 1244.401) rotate(90)" stroke="#b5afa7" stroke-width="0.5"/>
    <path id="Trazado_246530" data-name="Trazado 246530" d="M3.359-4.008V0H1.016V-11.375H5.453a5.134,5.134,0,0,1,2.254.469A3.454,3.454,0,0,1,9.2-9.574a3.714,3.714,0,0,1,.523,1.965A3.266,3.266,0,0,1,8.582-4.973a4.767,4.767,0,0,1-3.168.965Zm0-1.9H5.453a2.059,2.059,0,0,0,1.418-.437,1.591,1.591,0,0,0,.488-1.25,1.876,1.876,0,0,0-.492-1.352,1.839,1.839,0,0,0-1.359-.531H3.359Zm12.578-.43a6.134,6.134,0,0,0-.812-.062,1.654,1.654,0,0,0-1.68.867V0H11.188V-8.453H13.32l.063,1.008a2.092,2.092,0,0,1,1.883-1.164,2.366,2.366,0,0,1,.7.1ZM16.391-4.3a5.013,5.013,0,0,1,.484-2.242A3.546,3.546,0,0,1,18.27-8.07a4.069,4.069,0,0,1,2.113-.539,3.849,3.849,0,0,1,2.793,1.047,4.2,4.2,0,0,1,1.207,2.844l.016.578A4.418,4.418,0,0,1,23.313-1.02,3.775,3.775,0,0,1,20.4.156,3.793,3.793,0,0,1,17.48-1.016,4.5,4.5,0,0,1,16.391-4.2Zm2.258.16A3.16,3.16,0,0,0,19.1-2.3a1.5,1.5,0,0,0,1.3.638,1.5,1.5,0,0,0,1.281-.63,3.457,3.457,0,0,0,.461-2.015A3.128,3.128,0,0,0,21.68-6.14a1.5,1.5,0,0,0-1.3-.649,1.474,1.474,0,0,0-1.281.646A3.516,3.516,0,0,0,18.648-4.144Zm6.789-.145a5.094,5.094,0,0,1,.887-3.148A2.877,2.877,0,0,1,28.75-8.609a2.589,2.589,0,0,1,2.039.922V-12h2.266V0H31.016l-.109-.9A2.657,2.657,0,0,1,28.734.156,2.869,2.869,0,0,1,26.34-1.02,5.258,5.258,0,0,1,25.438-4.289Zm2.258.168A3.337,3.337,0,0,0,28.109-2.3a1.349,1.349,0,0,0,1.2.634,1.511,1.511,0,0,0,1.477-.884V-5.889a1.489,1.489,0,0,0-1.461-.884Q27.7-6.773,27.7-4.121ZM39.867-.859A2.831,2.831,0,0,1,37.555.156,2.67,2.67,0,0,1,35.48-.625a3.335,3.335,0,0,1-.73-2.289V-8.453h2.258v5.467q0,1.322,1.2,1.322a1.63,1.63,0,0,0,1.578-.8V-8.453h2.266V0H39.93Zm7.406-.8a1.481,1.481,0,0,0,1.016-.344,1.2,1.2,0,0,0,.406-.914h2.117a2.9,2.9,0,0,1-.469,1.574A3.093,3.093,0,0,1,49.082-.238a3.949,3.949,0,0,1-1.77.395A3.67,3.67,0,0,1,44.453-1,4.56,4.56,0,0,1,43.406-4.18v-.148a4.508,4.508,0,0,1,1.039-3.117A3.627,3.627,0,0,1,47.3-8.609a3.555,3.555,0,0,1,2.543.9,3.2,3.2,0,0,1,.973,2.4H48.7a1.551,1.551,0,0,0-.406-1.072,1.354,1.354,0,0,0-1.031-.412,1.36,1.36,0,0,0-1.191.575,3.333,3.333,0,0,0-.4,1.866v.235a3.375,3.375,0,0,0,.4,1.878A1.377,1.377,0,0,0,47.273-1.664ZM54.8-10.531v2.078H56.25V-6.8H54.8v4.219a1.007,1.007,0,0,0,.18.672.9.9,0,0,0,.688.2,3.6,3.6,0,0,0,.664-.055V-.047a4.648,4.648,0,0,1-1.367.2,2.156,2.156,0,0,1-2.422-2.4V-6.8H51.313V-8.453h1.234v-2.078ZM56.922-4.3a5.013,5.013,0,0,1,.484-2.242A3.546,3.546,0,0,1,58.8-8.07a4.069,4.069,0,0,1,2.113-.539,3.849,3.849,0,0,1,2.793,1.047,4.2,4.2,0,0,1,1.207,2.844l.016.578A4.418,4.418,0,0,1,63.844-1.02,3.775,3.775,0,0,1,60.93.156a3.793,3.793,0,0,1-2.918-1.172A4.5,4.5,0,0,1,56.922-4.2Zm2.258.16A3.16,3.16,0,0,0,59.633-2.3a1.5,1.5,0,0,0,1.3.638,1.5,1.5,0,0,0,1.281-.63,3.457,3.457,0,0,0,.461-2.015,3.128,3.128,0,0,0-.461-1.831,1.5,1.5,0,0,0-1.3-.649,1.474,1.474,0,0,0-1.281.646A3.516,3.516,0,0,0,59.18-4.144ZM70.9-2.336a.727.727,0,0,0-.41-.652,4.659,4.659,0,0,0-1.316-.426q-3.016-.633-3.016-2.562a2.323,2.323,0,0,1,.934-1.879,3.766,3.766,0,0,1,2.441-.754,4.053,4.053,0,0,1,2.574.758,2.388,2.388,0,0,1,.965,1.969H70.813a1.092,1.092,0,0,0-.312-.8A1.322,1.322,0,0,0,69.523-7a1.351,1.351,0,0,0-.883.258.814.814,0,0,0-.312.656.7.7,0,0,0,.355.605,3.657,3.657,0,0,0,1.2.4A9.8,9.8,0,0,1,71.3-4.7,2.336,2.336,0,0,1,73.094-2.43,2.2,2.2,0,0,1,72.1-.559a4.28,4.28,0,0,1-2.562.715,4.47,4.47,0,0,1-1.887-.379,3.166,3.166,0,0,1-1.293-1.039,2.414,2.414,0,0,1-.469-1.426h2.141a1.179,1.179,0,0,0,.445.922,1.766,1.766,0,0,0,1.109.32,1.635,1.635,0,0,0,.98-.246A.766.766,0,0,0,70.9-2.336Z" transform="translate(1188 1224)" fill="#12263f"/>
    <path id="Trazado_246526" data-name="Trazado 246526" d="M1.016,0V-11.375H5a5.232,5.232,0,0,1,3.141.793,2.712,2.712,0,0,1,1.07,2.324,2.57,2.57,0,0,1-.43,1.473,2.482,2.482,0,0,1-1.2.934,2.4,2.4,0,0,1,1.379.883,2.61,2.61,0,0,1,.5,1.625A3,3,0,0,1,8.422-.859,4.713,4.713,0,0,1,5.438,0ZM3.359-4.953v3.07H5.367A1.938,1.938,0,0,0,6.66-2.277a1.353,1.353,0,0,0,.465-1.09A1.428,1.428,0,0,0,5.508-4.953Zm0-1.656H5.094q1.773-.031,1.773-1.414a1.307,1.307,0,0,0-.449-1.113A2.363,2.363,0,0,0,5-9.477H3.359ZM13.461,0H11.2V-8.453h2.266Zm-2.4-10.641a1.112,1.112,0,0,1,.34-.836,1.277,1.277,0,0,1,.926-.328,1.28,1.28,0,0,1,.922.328,1.105,1.105,0,0,1,.344.836,1.108,1.108,0,0,1-.348.844,1.283,1.283,0,0,1-.918.328A1.283,1.283,0,0,1,11.41-9.8,1.108,1.108,0,0,1,11.063-10.641ZM19.211.156A4.15,4.15,0,0,1,16.184-.984a4.054,4.054,0,0,1-1.168-3.039v-.219a5.106,5.106,0,0,1,.492-2.277A3.612,3.612,0,0,1,16.9-8.066a3.914,3.914,0,0,1,2.059-.543,3.508,3.508,0,0,1,2.73,1.094,4.444,4.444,0,0,1,1,3.1v.922H17.3a2.1,2.1,0,0,0,.66,1.328,2,2,0,0,0,1.395.5A2.437,2.437,0,0,0,21.4-2.609l1.109,1.242A3.389,3.389,0,0,1,21.133-.246,4.511,4.511,0,0,1,19.211.156Zm-.258-6.945a1.411,1.411,0,0,0-1.09.455,2.357,2.357,0,0,0-.535,1.3h3.141v-.181a1.681,1.681,0,0,0-.406-1.165A1.456,1.456,0,0,0,18.953-6.789Zm7.094-1.664.07.977a2.951,2.951,0,0,1,2.43-1.133,2.453,2.453,0,0,1,2,.789,3.682,3.682,0,0,1,.672,2.359V0H28.961V-5.406a1.465,1.465,0,0,0-.312-1.043,1.4,1.4,0,0,0-1.039-.324,1.553,1.553,0,0,0-1.43.813V0H23.922V-8.453ZM36.82.156A4.15,4.15,0,0,1,33.793-.984a4.054,4.054,0,0,1-1.168-3.039v-.219a5.106,5.106,0,0,1,.492-2.277,3.612,3.612,0,0,1,1.395-1.547,3.914,3.914,0,0,1,2.059-.543A3.508,3.508,0,0,1,39.3-7.516a4.444,4.444,0,0,1,1,3.1v.922H34.914a2.1,2.1,0,0,0,.66,1.328,2,2,0,0,0,1.395.5,2.437,2.437,0,0,0,2.039-.945l1.109,1.242A3.389,3.389,0,0,1,38.742-.246,4.511,4.511,0,0,1,36.82.156Zm-.258-6.945a1.411,1.411,0,0,0-1.09.455,2.357,2.357,0,0,0-.535,1.3h3.141v-.181a1.681,1.681,0,0,0-.406-1.165A1.456,1.456,0,0,0,36.563-6.789Zm9.594,4.453a.727.727,0,0,0-.41-.652,4.659,4.659,0,0,0-1.316-.426q-3.016-.633-3.016-2.562a2.323,2.323,0,0,1,.934-1.879,3.766,3.766,0,0,1,2.441-.754,4.053,4.053,0,0,1,2.574.758,2.388,2.388,0,0,1,.965,1.969H46.07a1.092,1.092,0,0,0-.312-.8A1.322,1.322,0,0,0,44.781-7a1.351,1.351,0,0,0-.883.258.814.814,0,0,0-.312.656.7.7,0,0,0,.355.605,3.657,3.657,0,0,0,1.2.4,9.8,9.8,0,0,1,1.422.379A2.336,2.336,0,0,1,48.352-2.43a2.2,2.2,0,0,1-.992,1.871A4.28,4.28,0,0,1,44.8.156,4.47,4.47,0,0,1,42.91-.223a3.166,3.166,0,0,1-1.293-1.039,2.414,2.414,0,0,1-.469-1.426h2.141a1.179,1.179,0,0,0,.445.922,1.766,1.766,0,0,0,1.109.32,1.635,1.635,0,0,0,.98-.246A.766.766,0,0,0,46.156-2.336ZM53.438-4.3a5.013,5.013,0,0,1,.484-2.242A3.546,3.546,0,0,1,55.316-8.07a4.069,4.069,0,0,1,2.113-.539,3.849,3.849,0,0,1,2.793,1.047A4.2,4.2,0,0,1,61.43-4.719l.016.578A4.418,4.418,0,0,1,60.359-1.02,3.775,3.775,0,0,1,57.445.156a3.793,3.793,0,0,1-2.918-1.172A4.5,4.5,0,0,1,53.438-4.2Zm2.258.16A3.16,3.16,0,0,0,56.148-2.3a1.5,1.5,0,0,0,1.3.638,1.5,1.5,0,0,0,1.281-.63,3.457,3.457,0,0,0,.461-2.015,3.128,3.128,0,0,0-.461-1.831,1.5,1.5,0,0,0-1.3-.649,1.474,1.474,0,0,0-1.281.646A3.516,3.516,0,0,0,55.7-4.144ZM5.445,21.664a.727.727,0,0,0-.41-.652,4.659,4.659,0,0,0-1.316-.426Q.7,19.953.7,18.023a2.323,2.323,0,0,1,.934-1.879,3.766,3.766,0,0,1,2.441-.754,4.053,4.053,0,0,1,2.574.758,2.388,2.388,0,0,1,.965,1.969H5.359a1.092,1.092,0,0,0-.312-.8A1.322,1.322,0,0,0,4.07,17a1.351,1.351,0,0,0-.883.258.814.814,0,0,0-.312.656.7.7,0,0,0,.355.605,3.657,3.657,0,0,0,1.2.4,9.8,9.8,0,0,1,1.422.379A2.336,2.336,0,0,1,7.641,21.57a2.2,2.2,0,0,1-.992,1.871,4.28,4.28,0,0,1-2.562.715A4.47,4.47,0,0,1,2.2,23.777,3.166,3.166,0,0,1,.906,22.738a2.414,2.414,0,0,1-.469-1.426H2.578a1.179,1.179,0,0,0,.445.922,1.766,1.766,0,0,0,1.109.32,1.635,1.635,0,0,0,.98-.246A.766.766,0,0,0,5.445,21.664Zm7.539,2.492a4.15,4.15,0,0,1-3.027-1.141,4.054,4.054,0,0,1-1.168-3.039v-.219a5.106,5.106,0,0,1,.492-2.277,3.612,3.612,0,0,1,1.395-1.547,3.914,3.914,0,0,1,2.059-.543,3.508,3.508,0,0,1,2.73,1.094,4.444,4.444,0,0,1,1,3.1v.922H11.078a2.1,2.1,0,0,0,.66,1.328,2,2,0,0,0,1.395.5,2.437,2.437,0,0,0,2.039-.945l1.109,1.242a3.389,3.389,0,0,1-1.375,1.121A4.511,4.511,0,0,1,12.984,24.156Zm-.258-6.945a1.411,1.411,0,0,0-1.09.455,2.357,2.357,0,0,0-.535,1.3h3.141v-.181a1.681,1.681,0,0,0-.406-1.165A1.456,1.456,0,0,0,12.727,17.211Zm9.766.453a6.134,6.134,0,0,0-.812-.062,1.654,1.654,0,0,0-1.68.867V24H17.742V15.547h2.133l.063,1.008a2.092,2.092,0,0,1,1.883-1.164,2.366,2.366,0,0,1,.7.1Zm4.391,3.578,1.57-5.7h2.359L27.961,24H25.8l-2.852-8.453h2.359ZM34.188,24H31.922V15.547h2.266Zm-2.4-10.641a1.112,1.112,0,0,1,.34-.836,1.465,1.465,0,0,1,1.848,0,1.193,1.193,0,0,1,0,1.68,1.448,1.448,0,0,1-1.836,0A1.108,1.108,0,0,1,31.789,13.359Zm7.773,8.977a1.481,1.481,0,0,0,1.016-.344,1.2,1.2,0,0,0,.406-.914H43.1a2.9,2.9,0,0,1-.469,1.574,3.093,3.093,0,0,1-1.262,1.109,3.949,3.949,0,0,1-1.77.395A3.67,3.67,0,0,1,36.742,23,4.56,4.56,0,0,1,35.7,19.82v-.148a4.508,4.508,0,0,1,1.039-3.117,3.627,3.627,0,0,1,2.852-1.164,3.555,3.555,0,0,1,2.543.9,3.2,3.2,0,0,1,.973,2.4H40.984a1.551,1.551,0,0,0-.406-1.072,1.51,1.51,0,0,0-2.223.163,3.333,3.333,0,0,0-.4,1.866v.235a3.375,3.375,0,0,0,.4,1.878A1.377,1.377,0,0,0,39.563,22.336ZM46.773,24H44.508V15.547h2.266Zm-2.4-10.641a1.112,1.112,0,0,1,.34-.836,1.465,1.465,0,0,1,1.848,0,1.193,1.193,0,0,1,0,1.68,1.448,1.448,0,0,1-1.836,0A1.108,1.108,0,0,1,44.375,13.359ZM48.281,19.7a5.013,5.013,0,0,1,.484-2.242A3.546,3.546,0,0,1,50.16,15.93a4.069,4.069,0,0,1,2.113-.539,3.849,3.849,0,0,1,2.793,1.047,4.2,4.2,0,0,1,1.207,2.844l.016.578A4.418,4.418,0,0,1,55.2,22.98a4.209,4.209,0,0,1-5.832,0,4.5,4.5,0,0,1-1.09-3.187Zm2.258.16a3.16,3.16,0,0,0,.453,1.843,1.628,1.628,0,0,0,2.578.008,3.457,3.457,0,0,0,.461-2.015,3.128,3.128,0,0,0-.461-1.831,1.5,1.5,0,0,0-1.3-.649,1.474,1.474,0,0,0-1.281.646A3.516,3.516,0,0,0,50.539,19.856Zm11.719,1.808a.727.727,0,0,0-.41-.652,4.659,4.659,0,0,0-1.316-.426q-3.016-.633-3.016-2.562a2.323,2.323,0,0,1,.934-1.879,3.766,3.766,0,0,1,2.441-.754,4.053,4.053,0,0,1,2.574.758,2.388,2.388,0,0,1,.965,1.969H62.172a1.092,1.092,0,0,0-.312-.8A1.322,1.322,0,0,0,60.883,17a1.351,1.351,0,0,0-.883.258.814.814,0,0,0-.312.656.7.7,0,0,0,.355.605,3.657,3.657,0,0,0,1.2.4,9.8,9.8,0,0,1,1.422.379,2.336,2.336,0,0,1,1.789,2.273,2.2,2.2,0,0,1-.992,1.871,4.28,4.28,0,0,1-2.562.715,4.47,4.47,0,0,1-1.887-.379,3.166,3.166,0,0,1-1.293-1.039,2.414,2.414,0,0,1-.469-1.426h2.141a1.179,1.179,0,0,0,.445.922,1.766,1.766,0,0,0,1.109.32,1.635,1.635,0,0,0,.98-.246A.766.766,0,0,0,62.258,21.664Z" transform="translate(1197 1302)" fill="#12263f"/>
    <path id="Trazado_226475" data-name="Trazado 226475" d="M5.1.35.775,6.243c-.271.369.324.734.862.529L4.7,5.606,4.151,24.632l-3.006,2L1.1,28.347l3-1.916-.019.638-3.006,2-.05,1.711,3.834-2.446,3.694,2.377L8.6,29l-2.891-1.95.019-.638,2.894,1.862.05-1.711-2.891-1.95L6.335,5.591l3,1.111c.527.2,1.143-.181.894-.545L6.24.339A.8.8,0,0,0,5.1.35" transform="translate(770.31 1264.588) rotate(179)" stroke="#b5afa7" stroke-width="0.5"/>
    <path id="Trazado_226476" data-name="Trazado 226476" d="M5.017.524.774,10.641c-.266.633.317,1.26.845.908l3.006-2L4.083,42.209l-2.947,3.44-.049,2.936L4.032,45.3l-.018,1.095-2.947,3.44-.049,2.937,3.759-4.2L8.4,52.65l.049-2.937L5.613,46.366l.018-1.095,2.837,3.2.049-2.936L5.682,42.183,6.224,9.522l2.941,1.907c.516.335,1.12-.311.876-.936L6.131.507A.583.583,0,0,0,5.017.524" transform="translate(826.709 1230.76) rotate(51)" stroke="#b5afa7" stroke-width="0.5"/>
    <path id="Trazado_226478" data-name="Trazado 226478" d="M5.1.35.775,6.243c-.271.369.324.734.862.529L4.7,5.606,4.151,24.632l-3.006,2L1.1,28.347l3-1.916-.019.638-3.006,2-.05,1.711,3.834-2.446,3.694,2.377L8.6,29l-2.891-1.95.019-.638,2.894,1.862.05-1.711-2.891-1.95L6.335,5.591l3,1.111c.527.2,1.143-.181.894-.545L6.24.339A.8.8,0,0,0,5.1.35" transform="translate(860.003 1264.249) rotate(179)" stroke="#b5afa7" stroke-width="0.5"/>
    <path id="Trazado_226479" data-name="Trazado 226479" d="M5.017.524.774,10.641c-.266.633.317,1.26.845.908l3.006-2L4.083,42.209l-2.947,3.44-.049,2.936L4.032,45.3l-.018,1.095-2.947,3.44-.049,2.937,3.759-4.2L8.4,52.65l.049-2.937L5.613,46.366l.018-1.095,2.837,3.2.049-2.936L5.682,42.183,6.224,9.522l2.941,1.907c.516.335,1.12-.311.876-.936L6.131.507A.583.583,0,0,0,5.017.524" transform="matrix(-0.602, 0.799, -0.799, -0.602, 834.365, 1263.191)" stroke="#b5afa7" stroke-width="0.5"/>
    <path id="Trazado_226480" data-name="Trazado 226480" d="M5.017.524.774,10.641c-.266.633.317,1.26.845.908l3.006-2L4.083,42.209l-2.947,3.44-.049,2.936L4.032,45.3l-.018,1.095-2.947,3.44-.049,2.937,3.759-4.2L8.4,52.65l.049-2.937L5.613,46.366l.018-1.095,2.837,3.2.049-2.936L5.682,42.183,6.224,9.522l2.941,1.907c.516.335,1.12-.311.876-.936L6.131.507A.583.583,0,0,0,5.017.524" transform="translate(913.984 1245.292) rotate(57)" stroke="#b5afa7" stroke-width="0.5"/>
    <path id="Trazado_226481" data-name="Trazado 226481" d="M5.017.524.774,10.641c-.266.633.317,1.26.845.908l3.006-2L4.083,42.209l-2.947,3.44-.049,2.936L4.032,45.3l-.018,1.095-2.947,3.44-.049,2.937,3.759-4.2L8.4,52.65l.049-2.937L5.613,46.366l.018-1.095,2.837,3.2.049-2.936L5.682,42.183,6.224,9.522l2.941,1.907c.516.335,1.12-.311.876-.936L6.131.507A.583.583,0,0,0,5.017.524" transform="translate(920.32 1237.221) rotate(119)" stroke="#b5afa7" stroke-width="0.5"/>
    <path id="Trazado_246538" data-name="Trazado 246538" d="M-114.586-4.25H-122.1L-123.414,0h-5.859l8.344-22.75h5.156L-107.367,0h-5.891Zm-6.2-4.234h4.891l-2.453-7.891Zm19.813-8.422.172,1.984a5.813,5.813,0,0,1,4.828-2.3,4.279,4.279,0,0,1,4.328,2.547,5.626,5.626,0,0,1,4.969-2.547q5.141,0,5.281,6.219V0H-86.68V-10.672a3.223,3.223,0,0,0-.437-1.891,1.862,1.862,0,0,0-1.594-.594,2.5,2.5,0,0,0-2.328,1.391l.016.219V0H-96.3V-10.641a3.388,3.388,0,0,0-.422-1.922,1.857,1.857,0,0,0-1.609-.594,2.525,2.525,0,0,0-2.312,1.391V0h-5.266V-16.906ZM-62.7-8.312a10.3,10.3,0,0,1-1.719,6.391A5.757,5.757,0,0,1-69.258.313a5,5,0,0,1-4.156-2.047L-73.633,0h-4.719V-24h5.266v8.453a4.82,4.82,0,0,1,3.8-1.672,5.759,5.759,0,0,1,4.875,2.266A10.357,10.357,0,0,1-62.7-8.578Zm-5.281-.336a6.873,6.873,0,0,0-.648-3.471,2.186,2.186,0,0,0-1.992-1.037A2.521,2.521,0,0,0-73.086-11.8v6.708a2.535,2.535,0,0,0,2.5,1.342,2.236,2.236,0,0,0,2.359-1.81A12.994,12.994,0,0,0-67.977-8.648ZM-54.82,0H-60.1V-16.906h5.281Zm-5.594-21.266a2.35,2.35,0,0,1,.813-1.844,3.066,3.066,0,0,1,2.109-.719,3.066,3.066,0,0,1,2.109.719,2.35,2.35,0,0,1,.813,1.844,2.35,2.35,0,0,1-.812,1.844,3.066,3.066,0,0,1-2.109.719,3.066,3.066,0,0,1-2.109-.719A2.35,2.35,0,0,1-60.414-21.266ZM-43.4.313a8.691,8.691,0,0,1-6.3-2.32A8.013,8.013,0,0,1-52.1-8.047v-.437a10.383,10.383,0,0,1,.961-4.578,7.031,7.031,0,0,1,2.8-3.07,8.467,8.467,0,0,1,4.375-1.086,7.318,7.318,0,0,1,5.625,2.211,8.688,8.688,0,0,1,2.063,6.164V-6.8H-46.742a3.8,3.8,0,0,0,1.234,2.234,3.673,3.673,0,0,0,2.469.813A4.732,4.732,0,0,0-39.133-5.5l2.406,2.844A6.726,6.726,0,0,1-39.516-.492,9.425,9.425,0,0,1-43.4.313Zm-.594-13.469q-2.313,0-2.75,3.063h5.313V-10.5a2.608,2.608,0,0,0-.641-1.961A2.549,2.549,0,0,0-43.992-13.156Zm14.672-3.75.172,1.984a5.733,5.733,0,0,1,4.828-2.3,4.823,4.823,0,0,1,3.945,1.578,7.513,7.513,0,0,1,1.352,4.75V0H-24.3V-10.672a2.853,2.853,0,0,0-.516-1.883,2.385,2.385,0,0,0-1.875-.6,2.511,2.511,0,0,0-2.3,1.219V0h-5.266V-16.906Zm19.344-4.2v4.2H-7.2v3.656H-9.977v7.734a1.975,1.975,0,0,0,.344,1.328,1.844,1.844,0,0,0,1.359.375,7.725,7.725,0,0,0,1.313-.094V-.141A9.718,9.718,0,0,1-9.93.313,5.516,5.516,0,0,1-13.945-.969a5.252,5.252,0,0,1-1.3-3.891V-13.25H-17.4v-3.656h2.156v-4.2ZM3.055.313a8.691,8.691,0,0,1-6.3-2.32A8.013,8.013,0,0,1-5.648-8.047v-.437a10.383,10.383,0,0,1,.961-4.578,7.031,7.031,0,0,1,2.8-3.07,8.467,8.467,0,0,1,4.375-1.086,7.318,7.318,0,0,1,5.625,2.211A8.688,8.688,0,0,1,10.18-8.844V-6.8H-.289A3.8,3.8,0,0,0,.945-4.562a3.673,3.673,0,0,0,2.469.813A4.732,4.732,0,0,0,7.32-5.5L9.727-2.656A6.726,6.726,0,0,1,6.938-.492,9.425,9.425,0,0,1,3.055.313ZM2.461-13.156q-2.313,0-2.75,3.063H5.023V-10.5a2.608,2.608,0,0,0-.641-1.961A2.549,2.549,0,0,0,2.461-13.156ZM28.445.313a8.691,8.691,0,0,1-6.3-2.32,8.013,8.013,0,0,1-2.406-6.039v-.437a10.383,10.383,0,0,1,.961-4.578,7.031,7.031,0,0,1,2.8-3.07,8.467,8.467,0,0,1,4.375-1.086,7.318,7.318,0,0,1,5.625,2.211A8.688,8.688,0,0,1,35.57-8.844V-6.8H25.1a3.8,3.8,0,0,0,1.234,2.234A3.673,3.673,0,0,0,28.8-3.75,4.732,4.732,0,0,0,32.711-5.5l2.406,2.844A6.726,6.726,0,0,1,32.328-.492,9.425,9.425,0,0,1,28.445.313Zm-.594-13.469q-2.312,0-2.75,3.063h5.313V-10.5a2.608,2.608,0,0,0-.641-1.961A2.549,2.549,0,0,0,27.852-13.156Zm16.688.906,2.453-4.656h5.469L48.008-8.672,52.68,0h-5.5L44.523-5,41.914,0H36.383L41.07-8.672l-4.437-8.234h5.531Zm15.75-8.859v4.2H63.07v3.656H60.289v7.734a1.975,1.975,0,0,0,.344,1.328,1.844,1.844,0,0,0,1.359.375A7.725,7.725,0,0,0,63.3-3.906V-.141a9.718,9.718,0,0,1-2.969.453A5.516,5.516,0,0,1,56.32-.969a5.252,5.252,0,0,1-1.3-3.891V-13.25H52.867v-3.656h2.156v-4.2ZM73.32.313a8.691,8.691,0,0,1-6.3-2.32,8.013,8.013,0,0,1-2.406-6.039v-.437a10.383,10.383,0,0,1,.961-4.578,7.031,7.031,0,0,1,2.8-3.07,8.467,8.467,0,0,1,4.375-1.086,7.318,7.318,0,0,1,5.625,2.211,8.688,8.688,0,0,1,2.063,6.164V-6.8H69.977a3.8,3.8,0,0,0,1.234,2.234,3.673,3.673,0,0,0,2.469.813A4.732,4.732,0,0,0,77.586-5.5l2.406,2.844A6.726,6.726,0,0,1,77.2-.492,9.425,9.425,0,0,1,73.32.313Zm-.594-13.469q-2.312,0-2.75,3.063h5.313V-10.5a2.608,2.608,0,0,0-.641-1.961A2.549,2.549,0,0,0,72.727-13.156Zm20.063,1.016-1.734-.125q-2.484,0-3.187,1.563V0H82.6V-16.906h4.938l.172,2.172a4.077,4.077,0,0,1,3.7-2.484,5.135,5.135,0,0,1,1.469.188Zm6.734-4.766.172,1.984a5.733,5.733,0,0,1,4.828-2.3,4.823,4.823,0,0,1,3.945,1.578,7.513,7.513,0,0,1,1.352,4.75V0h-5.281V-10.672a2.853,2.853,0,0,0-.516-1.883,2.385,2.385,0,0,0-1.875-.6,2.511,2.511,0,0,0-2.3,1.219V0H94.586V-16.906Zm12.547,8.3a9.978,9.978,0,0,1,.984-4.508,7.04,7.04,0,0,1,2.828-3.039,8.518,8.518,0,0,1,4.328-1.062,7.774,7.774,0,0,1,5.984,2.352,9.024,9.024,0,0,1,2.188,6.4v.188a8.755,8.755,0,0,1-2.2,6.273,7.794,7.794,0,0,1-5.945,2.32,7.883,7.883,0,0,1-5.8-2.164,8.464,8.464,0,0,1-2.359-5.867Zm5.266.328a6.291,6.291,0,0,0,.734,3.438,2.447,2.447,0,0,0,2.172,1.094q2.813,0,2.875-4.328v-.531q0-4.547-2.906-4.547-2.641,0-2.859,3.922Z" transform="translate(786 962)" fill="#12263f"/>
  </g>
</svg>
