<svg xmlns="http://www.w3.org/2000/svg" xmlns:xlink="http://www.w3.org/1999/xlink" width="1240" height="739.998" viewBox="0 0 1240 739.998">
  <defs>
    <clipPath id="clip-path">
      <rect id="Rectángulo_51988" data-name="Rectángulo 51988" width="174.969" height="93" fill="none"/>
    </clipPath>
    <clipPath id="clip-path-3">
      <rect id="Rectángulo_51988-3" data-name="Rectángulo 51988" width="181.551" height="93" fill="none"/>
    </clipPath>
    <clipPath id="clip-path-4">
      <rect id="Rectángulo_51988-4" data-name="Rectángulo 51988" width="187.341" height="93" fill="none"/>
    </clipPath>
    <clipPath id="clip-path-5">
      <rect id="Rectángulo_51993" data-name="Rectángulo 51993" width="85" height="126" transform="translate(0.238 -0.46)" fill="none"/>
    </clipPath>
    <clipPath id="clip-path-11">
      <rect id="Rectángulo_51988-9" data-name="Rectángulo 51988" width="183.287" height="93" fill="none"/>
    </clipPath>
  </defs>
  <g id="Grupo_593158" data-name="Grupo 593158" transform="translate(-180 -4659)">
    <rect id="Rectángulo_51986" data-name="Rectángulo 51986" width="1240" height="739.998" transform="translate(180 4659)" fill="#f5f5f5"/>
    <g id="Grupo_593157" data-name="Grupo 593157">
      <g id="Grupo_158781" data-name="Grupo 158781" transform="translate(66.031)">
        <g id="Grupo_158780" data-name="Grupo 158780" transform="translate(654 4710)">
          <g id="Grupo_158779" data-name="Grupo 158779" transform="translate(0)" clip-path="url(#clip-path)">
            <path id="Trazado_226409" data-name="Trazado 226409" d="M1.973,0H173.119c1.089,0,1.977,1.6,1.977,3.553v85.42c0,1.956-.887,3.553-1.977,3.553H1.973C.887,92.527,0,90.93,0,88.974V3.553C0,1.6.887,0,1.973,0" transform="translate(0.099 0.473)" fill="#bbbabb" fill-rule="evenodd"/>
            <path id="Trazado_226410" data-name="Trazado 226410" d="M1.9,0H171.016c1.046,0,1.905,1.539,1.905,3.424V85.732c0,1.883-.86,3.424-1.905,3.424H1.9c-1.046,0-1.9-1.542-1.9-3.424V3.424C0,1.539.855,0,1.9,0" transform="translate(0.099 0.473)" fill="#fff" fill-rule="evenodd"/>
            <rect id="Rectángulo_51987" data-name="Rectángulo 51987" width="41.517" height="11.964" transform="translate(0.099 0.473)" fill="#0e8282"/>
          </g>
        </g>
        <text id="Expertos_en_finanzas_Y_contabilidad_" data-name="Expertos en finanzas
Y contabilidad
" transform="translate(741.484 4749)" fill="#1b3f5e" font-size="15" font-family="Roboto-Black, Roboto" font-weight="800"><tspan x="-70.844" y="0">Expertos en finanzas</tspan><tspan x="-48.296" y="21">Y contabilidad</tspan><tspan x="0" y="42"></tspan></text>
      </g>
      <g id="Grupo_158782" data-name="Grupo 158782" transform="translate(66.031 136)">
        <g id="Grupo_158780-2" data-name="Grupo 158780" transform="translate(654 4710)">
          <g id="Grupo_158779-2" data-name="Grupo 158779" transform="translate(0)" clip-path="url(#clip-path)">
            <path id="Trazado_226409-2" data-name="Trazado 226409" d="M1.973,0H173.119c1.089,0,1.977,1.6,1.977,3.553v85.42c0,1.956-.887,3.553-1.977,3.553H1.973C.887,92.527,0,90.93,0,88.974V3.553C0,1.6.887,0,1.973,0" transform="translate(0.099 0.473)" fill="#bbbabb" fill-rule="evenodd"/>
            <path id="Trazado_226410-2" data-name="Trazado 226410" d="M1.9,0H171.016c1.046,0,1.905,1.539,1.905,3.424V85.732c0,1.883-.86,3.424-1.905,3.424H1.9c-1.046,0-1.9-1.542-1.9-3.424V3.424C0,1.539.855,0,1.9,0" transform="translate(0.099 0.473)" fill="#fff" fill-rule="evenodd"/>
            <rect id="Rectángulo_51987-2" data-name="Rectángulo 51987" width="41.517" height="11.964" transform="translate(0.099 0.473)" fill="#0e8282"/>
          </g>
        </g>
        <text id="Financiera" transform="translate(737.665 4764)" fill="#1b3f5e" font-size="18" font-family="Roboto-Black, Roboto" font-weight="800"><tspan x="-42.429" y="0">Financiera</tspan></text>
      </g>
      <g id="Grupo_158785" data-name="Grupo 158785" transform="translate(45.758 544)">
        <g id="Grupo_158780-3" data-name="Grupo 158780" transform="translate(674.409 4710.473)">
          <g id="Grupo_158779-3" data-name="Grupo 158779" transform="translate(-0.136 -0.473)" clip-path="url(#clip-path-3)">
            <path id="Trazado_226409-3" data-name="Trazado 226409" d="M2.048,0H179.632c1.13,0,2.051,1.6,2.051,3.553v85.42c0,1.956-.921,3.553-2.051,3.553H2.048C.921,92.527,0,90.93,0,88.974V3.553C0,1.6.921,0,2.048,0" transform="translate(0.102 0.473)" fill="#bbbabb" fill-rule="evenodd"/>
            <path id="Trazado_226410-3" data-name="Trazado 226410" d="M1.973,0H177.45c1.085,0,1.977,1.539,1.977,3.424V85.732c0,1.883-.892,3.424-1.977,3.424H1.973C.888,89.156,0,87.615,0,85.732V3.424C0,1.539.888,0,1.973,0" transform="translate(0.102 0.473)" fill="#fff" fill-rule="evenodd"/>
            <rect id="Rectángulo_51987-3" data-name="Rectángulo 51987" width="43.079" height="11.964" transform="translate(0.102 0.473)" fill="#0e8282"/>
          </g>
        </g>
        <text id="Experto_en_marketing" data-name="Experto en
marketing" transform="translate(765 4751)" fill="#1b3f5e" font-size="18" font-family="Roboto-Black, Roboto" font-weight="800"><tspan x="-43.493" y="0">Experto en</tspan><tspan x="-41.577" y="25">marketing</tspan></text>
      </g>
      <g id="Grupo_158787" data-name="Grupo 158787" transform="translate(-411.148 279)">
        <g id="Grupo_158780-4" data-name="Grupo 158780" transform="translate(654 4710)">
          <g id="Grupo_158779-4" data-name="Grupo 158779" transform="translate(0)" clip-path="url(#clip-path-4)">
            <path id="Trazado_226409-4" data-name="Trazado 226409" d="M2.113,0H185.36c1.166,0,2.116,1.6,2.116,3.553v85.42c0,1.956-.95,3.553-2.116,3.553H2.113C.95,92.527,0,90.93,0,88.974V3.553C0,1.6.95,0,2.113,0" transform="translate(0.106 0.473)" fill="#bbbabb" fill-rule="evenodd"/>
            <path id="Trazado_226410-4" data-name="Trazado 226410" d="M2.036,0H183.108c1.12,0,2.04,1.539,2.04,3.424V85.732c0,1.883-.92,3.424-2.04,3.424H2.036C.916,89.156,0,87.615,0,85.732V3.424C0,1.539.916,0,2.036,0" transform="translate(0.106 0.473)" fill="#fff" fill-rule="evenodd"/>
            <rect id="Rectángulo_51987-4" data-name="Rectángulo 51987" width="44.453" height="11.964" transform="translate(0.106 0.473)" fill="#0e8282"/>
          </g>
        </g>
        <text id="Jefe_de_talento_humano_" data-name="Jefe de talento
humano  
" transform="translate(747.67 4757)" fill="#1b3f5e" font-size="18" font-family="Roboto-Black, Roboto" font-weight="800"><tspan x="-60.891" y="0">Jefe de talento</tspan><tspan x="-37.296" y="25" xml:space="preserve">humano  </tspan><tspan x="0" y="50"></tspan></text>
      </g>
      <g id="Grupo_158800" data-name="Grupo 158800" transform="translate(1606.17 9646.211) rotate(180)">
        <path id="Trazado_226411" data-name="Trazado 226411" d="M16.055,83.569H9.823L27.843,97.7,45.863,83.569H16.055Z" transform="translate(771.068 4716.641)" fill="#0e8282" fill-rule="evenodd"/>
      </g>
      <g id="Grupo_158802" data-name="Grupo 158802" transform="translate(1605.891 9788.567) rotate(180)">
        <path id="Trazado_226411-2" data-name="Trazado 226411" d="M16.055,83.569H9.823L27.843,97.7,45.863,83.569H16.055Z" transform="translate(771.068 4716.641)" fill="#0e8282" fill-rule="evenodd"/>
      </g>
      <g id="Grupo_158803" data-name="Grupo 158803" transform="translate(8.068 281.149)">
        <path id="Trazado_226411-3" data-name="Trazado 226411" d="M16.055,83.569H9.823L27.843,97.7,45.863,83.569H16.055Z" transform="translate(771.068 4716.641)" fill="#0e8282" fill-rule="evenodd"/>
      </g>
      <g id="Grupo_158805" data-name="Grupo 158805" transform="translate(8.347 410.79)">
        <path id="Trazado_226411-4" data-name="Trazado 226411" d="M16.055,83.569H9.823L27.843,97.7,45.863,83.569H16.055Z" transform="translate(771.068 4716.641)" fill="#0e8282" fill-rule="evenodd"/>
      </g>
      <g id="Grupo_158808" data-name="Grupo 158808" transform="matrix(-0.017, 1, -1, -0.017, 5532.866, 4314.107)">
        <path id="Trazado_226411-5" data-name="Trazado 226411" d="M16.055,83.569H9.823L27.843,97.7,45.863,83.569H16.055Z" transform="translate(771.068 4716.641)" fill="#0e8282" fill-rule="evenodd"/>
      </g>
      <path id="Trazado_226412" data-name="Trazado 226412" d="M16.055,83.569H9.823L27.843,97.7,45.863,83.569H16.055Z" transform="matrix(-0.017, 1, -1, -0.017, 558.728, 5007.601)" fill="#0e8282" fill-rule="evenodd"/>
      <g id="Grupo_158810" data-name="Grupo 158810" transform="matrix(0.017, -1, 1, 0.017, -3905.866, 5741.638)">
        <path id="Trazado_226411-6" data-name="Trazado 226411" d="M16.055,83.569H9.823L27.843,97.7,45.863,83.569H16.055Z" transform="translate(771.068 4716.641)" fill="#0e8282" fill-rule="evenodd"/>
      </g>
      <g id="Grupo_158812" data-name="Grupo 158812" transform="matrix(0.017, -1, 1, 0.017, -3672.179, 5752.891)">
        <path id="Trazado_226411-7" data-name="Trazado 226411" d="M16.055,83.569H9.823L27.843,97.7,45.863,83.569H16.055Z" transform="translate(771.068 4716.641)" fill="#0e8282" fill-rule="evenodd"/>
      </g>
      <g id="Grupo_591529" data-name="Grupo 591529" transform="translate(-173.178 278.001)">
        <g id="Grupo_158780-5" data-name="Grupo 158780" transform="translate(654 4710)">
          <g id="Grupo_158779-5" data-name="Grupo 158779" transform="translate(0)" clip-path="url(#clip-path-4)">
            <path id="Trazado_226409-5" data-name="Trazado 226409" d="M2.113,0H185.36c1.166,0,2.116,1.6,2.116,3.553v85.42c0,1.956-.95,3.553-2.116,3.553H2.113C.95,92.527,0,90.93,0,88.974V3.553C0,1.6.95,0,2.113,0" transform="translate(0.106 0.473)" fill="#bbbabb" fill-rule="evenodd"/>
            <path id="Trazado_226410-5" data-name="Trazado 226410" d="M2.036,0H183.108c1.12,0,2.04,1.539,2.04,3.424V85.732c0,1.883-.92,3.424-2.04,3.424H2.036C.916,89.156,0,87.615,0,85.732V3.424C0,1.539.916,0,2.036,0" transform="translate(0.106 0.473)" fill="#fff" fill-rule="evenodd"/>
            <rect id="Rectángulo_51987-5" data-name="Rectángulo 51987" width="44.453" height="11.964" transform="translate(0.106 0.473)" fill="#0e8282"/>
          </g>
        </g>
      </g>
      <text id="Administración_y_recursos_humanos" data-name="Administración y 
recursos humanos" transform="translate(575.083 5032.107)" fill="#1b3f5e" font-size="18" font-family="Roboto-Black, Roboto" font-weight="800"><tspan x="-71.147" y="0">Administración y </tspan><tspan x="-75.41" y="25">recursos humanos</tspan></text>
      <g id="Grupo_591530" data-name="Grupo 591530" transform="translate(299.589 279.247)">
        <g id="Grupo_158780-6" data-name="Grupo 158780" transform="translate(654 4710)">
          <g id="Grupo_158779-6" data-name="Grupo 158779" transform="translate(0)" clip-path="url(#clip-path-4)">
            <path id="Trazado_226409-6" data-name="Trazado 226409" d="M2.113,0H185.36c1.166,0,2.116,1.6,2.116,3.553v85.42c0,1.956-.95,3.553-2.116,3.553H2.113C.95,92.527,0,90.93,0,88.974V3.553C0,1.6.95,0,2.113,0" transform="translate(0.106 0.473)" fill="#bbbabb" fill-rule="evenodd"/>
            <path id="Trazado_226410-6" data-name="Trazado 226410" d="M2.036,0H183.108c1.12,0,2.04,1.539,2.04,3.424V85.732c0,1.883-.92,3.424-2.04,3.424H2.036C.916,89.156,0,87.615,0,85.732V3.424C0,1.539.916,0,2.036,0" transform="translate(0.106 0.473)" fill="#fff" fill-rule="evenodd"/>
            <rect id="Rectángulo_51987-6" data-name="Rectángulo 51987" width="44.453" height="11.964" transform="translate(0.106 0.473)" fill="#0e8282"/>
          </g>
        </g>
      </g>
      <g id="Grupo_591531" data-name="Grupo 591531" transform="translate(533.276 281.5)">
        <g id="Grupo_158780-7" data-name="Grupo 158780" transform="translate(654 4710)">
          <g id="Grupo_158779-7" data-name="Grupo 158779" transform="translate(0)" clip-path="url(#clip-path-4)">
            <path id="Trazado_226409-7" data-name="Trazado 226409" d="M2.113,0H185.36c1.166,0,2.116,1.6,2.116,3.553v85.42c0,1.956-.95,3.553-2.116,3.553H2.113C.95,92.527,0,90.93,0,88.974V3.553C0,1.6.95,0,2.113,0" transform="translate(0.106 0.473)" fill="#bbbabb" fill-rule="evenodd"/>
            <path id="Trazado_226410-7" data-name="Trazado 226410" d="M2.036,0H183.108c1.12,0,2.04,1.539,2.04,3.424V85.732c0,1.883-.92,3.424-2.04,3.424H2.036C.916,89.156,0,87.615,0,85.732V3.424C0,1.539.916,0,2.036,0" transform="translate(0.106 0.473)" fill="#fff" fill-rule="evenodd"/>
            <rect id="Rectángulo_51987-7" data-name="Rectángulo 51987" width="44.453" height="11.964" transform="translate(0.106 0.473)" fill="#0e8282"/>
          </g>
        </g>
      </g>
      <text id="Producción_" data-name="Producción " transform="translate(1054.313 5040.858)" fill="#1b3f5e" font-size="18" font-family="Roboto-Black, Roboto" font-weight="800"><tspan x="-48.498" y="0">Producción </tspan></text>
      <text id="Director_de_producción_" data-name="Director de
producción " transform="translate(1297.5 5030.247)" fill="#1b3f5e" font-size="18" font-family="Roboto-Black, Roboto" font-weight="800"><tspan x="-44.903" y="0">Director de</tspan><tspan x="-47.707" y="25">producción </tspan></text>
      <g id="Grupo_591532" data-name="Grupo 591532" transform="translate(65.901 278.358)">
        <g id="Grupo_158780-8" data-name="Grupo 158780" transform="translate(654 4710)">
          <g id="Grupo_158779-8" data-name="Grupo 158779" transform="translate(0)" clip-path="url(#clip-path-4)">
            <path id="Trazado_226409-8" data-name="Trazado 226409" d="M2.113,0H185.36c1.166,0,2.116,1.6,2.116,3.553v85.42c0,1.956-.95,3.553-2.116,3.553H2.113C.95,92.527,0,90.93,0,88.974V3.553C0,1.6.95,0,2.113,0" transform="translate(0.106 0.473)" fill="#bbbabb" fill-rule="evenodd"/>
            <path id="Trazado_226410-8" data-name="Trazado 226410" d="M2.036,0H183.108c1.12,0,2.04,1.539,2.04,3.424V85.732c0,1.883-.92,3.424-2.04,3.424H2.036C.916,89.156,0,87.615,0,85.732V3.424C0,1.539.916,0,2.036,0" transform="translate(0.106 0.473)" fill="#fff" fill-rule="evenodd"/>
            <rect id="Rectángulo_51987-8" data-name="Rectángulo 51987" width="44.453" height="11.964" transform="translate(0.106 0.473)" fill="#0e8282"/>
          </g>
        </g>
      </g>
      <text id="DIRECCION_GENERAL" data-name="DIRECCION
GENERAL" transform="translate(813.572 5028.45)" fill="#1b3f5e" font-size="18" font-family="Roboto-Black, Roboto" font-weight="800"><tspan x="-46.503" y="0">DIRECCION</tspan><tspan x="-39.406" y="25">GENERAL</tspan></text>
      <g id="Grupo_591533" data-name="Grupo 591533" transform="translate(65.901 408.001)">
        <g id="Grupo_158780-9" data-name="Grupo 158780" transform="translate(654 4710)">
          <g id="Grupo_158779-9" data-name="Grupo 158779" transform="translate(0)" clip-path="url(#clip-path-11)">
            <path id="Trazado_226409-9" data-name="Trazado 226409" d="M2.067,0H181.349c1.141,0,2.071,1.6,2.071,3.553v85.42c0,1.956-.93,3.553-2.071,3.553H2.067C.93,92.527,0,90.93,0,88.974V3.553C0,1.6.93,0,2.067,0" transform="translate(0.103 0.473)" fill="#bbbabb" fill-rule="evenodd"/>
            <path id="Trazado_226410-9" data-name="Trazado 226410" d="M1.992,0H179.146c1.1,0,2,1.539,2,3.424V85.732c0,1.883-.9,3.424-2,3.424H1.992C.9,89.156,0,87.615,0,85.732V3.424C0,1.539.9,0,1.992,0" transform="translate(0.103 0.473)" fill="#fff" fill-rule="evenodd"/>
            <rect id="Rectángulo_51987-9" data-name="Rectángulo 51987" width="43.491" height="11.964" transform="translate(0.103 0.473)" fill="#0e8282"/>
          </g>
        </g>
      </g>
      <text id="Comercialización_" data-name="Comercialización " transform="translate(813.572 5166)" fill="#1b3f5e" font-size="18" font-family="Roboto-Black, Roboto" font-weight="800"><tspan x="-72.743" y="0">Comercialización </tspan></text>
    </g>
  </g>
</svg>
