<svg xmlns="http://www.w3.org/2000/svg" xmlns:xlink="http://www.w3.org/1999/xlink" width="505" height="243.794" viewBox="0 0 505 243.794">
  <defs>
    <clipPath id="clip-path">
      <rect id="Rectángulo_43514" data-name="Rectángulo 43514" width="324.9" height="232.778" fill="none"/>
    </clipPath>
  </defs>
  <g id="Grupo_593159" data-name="Grupo 593159" transform="translate(-180 -5803.742)">
    <g id="Rectángulo_50261" data-name="Rectángulo 50261" transform="translate(180 5803.742)" fill="#aad3d3" stroke="#aad3d3" stroke-width="1">
      <rect width="505" height="243.794" rx="15" stroke="none"/>
      <rect x="0.5" y="0.5" width="504" height="242.794" rx="14.5" fill="none"/>
    </g>
    <g id="Grupo_157796" data-name="Grupo 157796" transform="translate(263.173 5774.413)">
      <g id="Grupo_154251" data-name="Grupo 154251" transform="translate(1.827 40)" clip-path="url(#clip-path)">
        <path id="Trazado_214778" data-name="Trazado 214778" d="M25.675,232.063s-39.756-58.6-20.326-118.927c12.665-39.323,60.172-60.87,86.983-39.323,11.419,9.177,48.031,16.163,67.592-21.831C179.576,13.811,222.288,6.869,255.9,30.388c30.97,21.671,54.054,54.819,42.389,109.57-11.688,54.857,43.755,37.386,19.675,92.221Z" transform="translate(0 0.004)" fill="#ebf3fa"/>
        <path id="Trazado_214779" data-name="Trazado 214779" d="M452.3,867.476s-4.01-5.724-.247-9.359c0,0,2.748-2.036,4.989-1.871,0,0-3.175,6.515-2.148,7.163s3.11-7.572,3.11-7.572,6.254-.742,8.266.442c0,0-5.346,5.353-4.22,5.672s6.9-4.936,6.9-4.936,5.821,1.212,5.51,5.557-2.316,5.686-3.2,5.571-6.038-2.524-6.15-1.64,2.992,3.772,5.165,3.907c0,0-4.1,5.538-6.831,3.939s-2.96-4.132-4.66-5.082-3.151-.948-2.45.021,3.779,1.911,4.751,4.015,1.844,3.524-.977,3-7.408-3.046-7.61-5.939Z" transform="translate(-397.198 -731.852)" fill="#c8dbf4"/>
        <path id="Trazado_214780" data-name="Trazado 214780" d="M459.213,904.368s-15.809-.745-19.3,4.787a14.54,14.54,0,0,1-3.148,5.406l-.37,1.235s2.74-3.534,3.72-3.748c0,0-1.533-6.854,19.1-7.68" transform="translate(-384.809 -773.531)" fill="#c8dbf4"/>
        <path id="Trazado_214781" data-name="Trazado 214781" d="M412.456,972.158a12.89,12.89,0,0,0-3.629,8.557l.616.067s1.084-5.673,3.043-7.892-.029-.733-.029-.733" transform="translate(-360.501 -831.128)" fill="#c8dbf4"/>
        <path id="Trazado_214782" data-name="Trazado 214782" d="M173.042,768.377s6.378-4.371,3.4-10.3c0,0-2.381-3.642-4.932-4.578,0,0,1.361,8.845,0,9.053s-.935-9.99-.935-9.99-6.718-3.954-9.355-3.642c0,0,4.167,8.637,2.806,8.429s-6.038-8.949-6.038-8.949-6.889-1.561-7.994,3.434.68,7.492,1.7,7.8,7.569.208,7.4,1.249-4.592,2.705-7.059,1.769c0,0,2.721,8.221,6.293,7.8s4.677-3.122,6.888-3.33,3.827.52,2.721,1.249-4.847.239-6.633,2.1-3.232,3,.085,3.835,9.27.312,10.46-2.81Z" transform="translate(-131.958 -639.951)" fill="#c8dbf4"/>
        <path id="Trazado_214783" data-name="Trazado 214783" d="M179.217,784.3s17.859,7.076,19.9,14.984a19.682,19.682,0,0,0,1.7,7.6v1.561s-1.871-5.307-2.891-6.035c0,0,4-6.868-18.709-18.106" transform="translate(-158.032 -670.855)" fill="#c8dbf4"/>
        <path id="Trazado_214784" data-name="Trazado 214784" d="M355.587,934.669a17.122,17.122,0,0,1,1.184,11.347l-.709-.233s.688-6.861-.753-10.312.278-.8.278-.8" transform="translate(-312.802 -798.647)" fill="#c8dbf4"/>
        <path id="Trazado_214785" data-name="Trazado 214785" d="M392.174,688.676s-8.408-5.761-4.484-13.58c0,0,3.139-4.8,6.5-6.036,0,0-1.794,11.659,0,11.934s1.233-13.168,1.233-13.168,8.856-5.213,12.331-4.8c0,0-5.493,11.385-3.7,11.111s7.959-11.8,7.959-11.8,9.08-2.057,10.538,4.527-.9,9.876-2.242,10.288-9.977.274-9.753,1.646,6.053,3.566,9.3,2.332c0,0-3.587,10.836-8.3,10.287s-6.166-4.115-9.08-4.389-5.045.686-3.587,1.646,6.39.314,8.744,2.764,4.26,3.958-.112,5.055-12.219.411-13.788-3.7Z" transform="translate(-340.942 -566.277)" fill="#d4e4f8"/>
        <path id="Trazado_214786" data-name="Trazado 214786" d="M442.913,709.66s-23.541,9.328-26.232,19.752a25.942,25.942,0,0,1-2.242,10.013v2.057s2.466-7,3.811-7.956c0,0-5.269-9.053,24.662-23.867" transform="translate(-365.449 -607.014)" fill="#d4e4f8"/>
        <path id="Trazado_214787" data-name="Trazado 214787" d="M398.039,907.879a22.569,22.569,0,0,0-1.561,14.957l.934-.307s-.907-9.044.993-13.593-.366-1.057-.366-1.057" transform="translate(-349.049 -775.468)" fill="#d4e4f8"/>
        <path id="Trazado_214788" data-name="Trazado 214788" d="M308.153,1022.8c9.1,0,16.469-9.022,16.469-20.152H291.684c0,11.13,7.374,20.152,16.469,20.152" transform="translate(-257.205 -857.627)" fill="#d4e4f8"/>
        <path id="Trazado_214789" data-name="Trazado 214789" d="M323.154,1134.363H289.761a2.294,2.294,0,0,1,2.032-2.486h29.33a2.294,2.294,0,0,1,2.032,2.486Z" transform="translate(-255.509 -968.162)" fill="#d4e4f8"/>
        <rect id="Rectángulo_43507" data-name="Rectángulo 43507" width="33.854" height="0.618" transform="translate(33.938 145.024)" fill="#9fc1f4"/>
        <path id="Trazado_214790" data-name="Trazado 214790" d="M1096.853,1272.163l.081,0a1.266,1.266,0,0,0,1.117-1.446l-4.44-54.25-3.874.423,6.375,54.542a.774.774,0,0,0,.741.733" transform="translate(-960.923 -1040.515)" fill="#8cb4f4"/>
        <path id="Trazado_214791" data-name="Trazado 214791" d="M779.327,1272.163l-.081,0a1.266,1.266,0,0,1-1.117-1.446l4.439-54.25,3.874.423-6.375,54.542a.774.774,0,0,1-.74.733" transform="translate(-686.143 -1040.515)" fill="#8cb4f4"/>
        <path id="Trazado_214792" data-name="Trazado 214792" d="M1361.8,1272.163l.081,0a1.266,1.266,0,0,0,1.117-1.446l-4.439-54.25-3.874.423,6.375,54.542a.775.775,0,0,0,.741.733" transform="translate(-1194.554 -1040.515)" fill="#8cb4f4"/>
        <path id="Trazado_214793" data-name="Trazado 214793" d="M739.612,808.249l-7.88-47.616c-1.011-6.447,3.354-12.342,9.023-12.183l15.2.424c5.243.147,9.8,4.44,11.258,10.6l11.529,48.771Z" transform="translate(-645.107 -640.191)" fill="#8cb4f4"/>
        <path id="Trazado_214794" data-name="Trazado 214794" d="M779.943,808.249l-7.88-47.616c-1.012-6.447,3.354-12.342,9.023-12.183l15.2.424c5.243.147,9.8,4.44,11.258,10.6l11.529,48.771Z" transform="translate(-680.67 -640.191)" fill="#8cb4f4"/>
        <path id="Trazado_214795" data-name="Trazado 214795" d="M801.684,1170.591h60.127a2.487,2.487,0,0,0,2.2-2.688v-3.309a2.487,2.487,0,0,0-2.2-2.688H799.487v6a2.487,2.487,0,0,0,2.2,2.688" transform="translate(-704.982 -993.848)" fill="#8cb4f4"/>
        <path id="Trazado_214796" data-name="Trazado 214796" d="M1043.568,1170.591H1081.9a2,2,0,0,0,1.77-2.165v-4.354a2,2,0,0,0-1.77-2.165h-38.329a2,2,0,0,0-1.769,2.165v4.354a2,2,0,0,0,1.769,2.165" transform="translate(-918.651 -993.848)" fill="#8cb4f4"/>
        <path id="Trazado_214797" data-name="Trazado 214797" d="M281.323,1151.509v1.625c0,.569-.151,1.033-.334,1.033H232.541c-.184,0-.334-.465-.334-1.033v-1.625c0-.568.15-1.033.334-1.033h48.448c.184,0,.334.465.334,1.033" transform="translate(-204.758 -984.071)" fill="#9abfe2"/>
        <path id="Trazado_214798" data-name="Trazado 214798" d="M356.222,1151.509v1.625c0,.569-.138,1.033-.307,1.033H317.453c-.168,0-.307-.465-.307-1.033v-1.625c0-.568.138-1.033.307-1.033h38.463c.168,0,.307.465.307,1.033" transform="translate(-279.657 -984.071)" fill="#bad4f4"/>
        <rect id="Rectángulo_43508" data-name="Rectángulo 43508" width="34.395" height="61.343" transform="translate(29.908 170.097)" fill="#c8dbf4"/>
        <rect id="Rectángulo_43509" data-name="Rectángulo 43509" width="34.395" height="61.343" transform="translate(39.546 170.097)" fill="#dfebfd"/>
        <path id="Trazado_214799" data-name="Trazado 214799" d="M380.888,1244.2h-30.7v-56.223h30.7Zm-30.367-.405h30.036v-55.412H350.521Z" transform="translate(-308.794 -1016.147)" fill="#b7d3f3"/>
        <rect id="Rectángulo_43510" data-name="Rectángulo 43510" width="30.367" height="0.406" transform="translate(41.561 190.428)" fill="#b7d3f3"/>
        <rect id="Rectángulo_43511" data-name="Rectángulo 43511" width="30.367" height="0.406" transform="translate(41.561 209.39)" fill="#b7d3f3"/>
        <path id="Trazado_214800" data-name="Trazado 214800" d="M460.619,1205.85h-5.635a.621.621,0,0,1,0-1.217h5.635a.621.621,0,0,1,0,1.217" transform="translate(-400.763 -1030.395)" fill="#b7d3f3"/>
        <path id="Trazado_214801" data-name="Trazado 214801" d="M460.619,1334.046h-5.635a.621.621,0,0,1,0-1.217h5.635a.621.621,0,0,1,0,1.217" transform="translate(-400.763 -1140.048)" fill="#b7d3f3"/>
        <path id="Trazado_214802" data-name="Trazado 214802" d="M460.619,1467.683h-5.635a.621.621,0,0,1,0-1.217h5.635a.621.621,0,0,1,0,1.217" transform="translate(-400.763 -1254.356)" fill="#b7d3f3"/>
        <path id="Trazado_214803" data-name="Trazado 214803" d="M1613.782,234.85h-21.8a2.06,2.06,0,0,1-1.82-2.227V206.876a2.06,2.06,0,0,1,1.82-2.227h21.8a2.061,2.061,0,0,1,1.82,2.227v25.748a2.061,2.061,0,0,1-1.82,2.227" transform="translate(-1402.192 -175.048)" fill="#c0d8fb"/>
        <path id="Trazado_214804" data-name="Trazado 214804" d="M1621.059,241.279h-19.912a1.882,1.882,0,0,1-1.662-2.034V215.729a1.882,1.882,0,0,1,1.662-2.034h19.912a1.882,1.882,0,0,1,1.662,2.034v23.517a1.882,1.882,0,0,1-1.662,2.034" transform="translate(-1410.414 -182.786)" fill="#dfebfd"/>
        <path id="Trazado_214805" data-name="Trazado 214805" d="M1693.315,228.938a.538.538,0,1,1,.527.645.595.595,0,0,1-.527-.645" transform="translate(-1493.153 -195.272)" fill="#b7d3f3"/>
        <path id="Trazado_214806" data-name="Trazado 214806" d="M1728.792,237.091a.481.481,0,0,1,.717-.25.725.725,0,0,1,.2.877.48.48,0,0,1-.717.25.726.726,0,0,1-.2-.877" transform="translate(-1524.377 -202.514)" fill="#b7d3f3"/>
        <path id="Trazado_214807" data-name="Trazado 214807" d="M1758.308,262.929a.473.473,0,0,1,.728.192.736.736,0,0,1-.157.891.473.473,0,0,1-.729-.192.736.736,0,0,1,.157-.891" transform="translate(-1550.25 -224.81)" fill="#b7d3f3"/>
        <path id="Trazado_214808" data-name="Trazado 214808" d="M1771.442,301.436a.658.658,0,1,1-.527.645.595.595,0,0,1,.527-.645" transform="translate(-1561.58 -257.836)" fill="#b7d3f3"/>
        <path id="Trazado_214809" data-name="Trazado 214809" d="M1760.868,344.3a.751.751,0,0,1,0,.912.462.462,0,0,1-.745,0,.751.751,0,0,1,0-.912.462.462,0,0,1,.745,0" transform="translate(-1551.927 -294.339)" fill="#b7d3f3"/>
        <path id="Trazado_214810" data-name="Trazado 214810" d="M1732.872,372.369a.751.751,0,0,1,0,.912.462.462,0,0,1-.745,0,.751.751,0,0,1,0-.912.462.462,0,0,1,.745,0" transform="translate(-1527.24 -318.348)" fill="#b7d3f3"/>
        <path id="Trazado_214811" data-name="Trazado 214811" d="M1693.315,384.14a.538.538,0,1,1,.527.645.6.6,0,0,1-.527-.645" transform="translate(-1493.153 -328.026)" fill="#b7d3f3"/>
        <path id="Trazado_214812" data-name="Trazado 214812" d="M1658.746,237.091a.481.481,0,0,0-.717-.25.726.726,0,0,0-.205.877.481.481,0,0,0,.717.25.726.726,0,0,0,.2-.877" transform="translate(-1461.799 -202.514)" fill="#b7d3f3"/>
        <path id="Trazado_214813" data-name="Trazado 214813" d="M1629.232,262.929a.473.473,0,0,0-.728.192.736.736,0,0,0,.157.891.473.473,0,0,0,.728-.192.736.736,0,0,0-.157-.891" transform="translate(-1435.928 -224.81)" fill="#b7d3f3"/>
        <path id="Trazado_214814" data-name="Trazado 214814" d="M1616.1,301.436a.658.658,0,1,0,.527.645.6.6,0,0,0-.527-.645" transform="translate(-1424.598 -257.836)" fill="#b7d3f3"/>
        <path id="Trazado_214815" data-name="Trazado 214815" d="M1626.672,344.3a.751.751,0,0,0,0,.912.462.462,0,0,0,.746,0,.751.751,0,0,0,0-.912.462.462,0,0,0-.746,0" transform="translate(-1434.251 -294.339)" fill="#b7d3f3"/>
        <path id="Trazado_214816" data-name="Trazado 214816" d="M1654.668,372.369a.751.751,0,0,0,0,.912.462.462,0,0,0,.745,0,.751.751,0,0,0,0-.912.462.462,0,0,0-.745,0" transform="translate(-1458.937 -318.348)" fill="#b7d3f3"/>
        <path id="Trazado_214817" data-name="Trazado 214817" d="M1696.571,302.081a.538.538,0,1,1,.527.645.595.595,0,0,1-.527-.645" transform="translate(-1496.024 -257.836)" fill="#b7d3f3"/>
        <rect id="Rectángulo_43512" data-name="Rectángulo 43512" width="0.144" height="8.056" transform="translate(201.002 36.189)" fill="#b7d3f3"/>
        <path id="Trazado_214867" data-name="Trazado 214867" d="M.03.386,4.845-.1,4.8.4-.017.878Z" transform="translate(200.613 43.74) rotate(-38.129)" fill="#b7d3f3"/>
        <path id="Trazado_214818" data-name="Trazado 214818" d="M1060.854,1086.3c-3.253,6.927-7.344,9.6-7.344,9.6h-17.021s26.846-14.886,24.365-9.6" transform="translate(-913.968 -928.207)" fill="#233862"/>
        <path id="Trazado_214819" data-name="Trazado 214819" d="M1413.852,1477.1c-.184,2.185,2.3,2.749,5.181,2.963s2,.924,5.946,1.852,5.537-.374,5.828-1.024c.26-.576-1.569-1.506-3.517-2.556-.245-.131-.491-.266-.736-.4-2.192-1.214-3.407-3.648-5.1-5.911-1.608-2.144-3.093-8.961-3.093-8.961l-5.355-1.473s1.453,6.137,1.954,8.755a9.709,9.709,0,0,1-.59,4.553,10.121,10.121,0,0,0-.513,2.2" transform="translate(-1245.974 -1250.186)" fill="#ffb27d"/>
        <path id="Trazado_214820" data-name="Trazado 214820" d="M1425.312,1558.766c2.881.213,2,.924,5.946,1.852s5.537-.375,5.828-1.024c.26-.576-1.569-1.506-3.517-2.556l-.031.041a9.289,9.289,0,0,1-5.984.009c-2.606-.9-5.115-2.847-6.91-3.487a10.12,10.12,0,0,0-.513,2.2c-.184,2.185,2.3,2.749,5.18,2.963" transform="translate(-1252.253 -1328.886)" fill="#0f2549"/>
        <path id="Trazado_214821" data-name="Trazado 214821" d="M966.284,928.121c-2.882-2.476-21.943-6.89-31.671-8.167l-10.752-11.421s-9.152,16.587-9.224,29.275c-.034,5.917,2.193,6.5,2.194,6.505s34.468.313,35.978.5c2.473.312,5.735,7.85,6.55,14.717s15.188,34.792,15.188,34.792a15.222,15.222,0,0,0,4.384,1.076,3.846,3.846,0,0,0,2.181-.718s-8.329-60.979-14.828-66.563" transform="translate(-806.519 -777.123)" fill="#233862"/>
        <path id="Trazado_214822" data-name="Trazado 214822" d="M1338.432,1477.1c-.184,2.185,2.3,2.749,5.181,2.963s2,.924,5.946,1.852,5.536-.374,5.828-1.024c.26-.576-1.569-1.506-3.517-2.556-.245-.131-.491-.266-.736-.4-2.192-1.214-3.407-3.648-5.1-5.911-1.608-2.144-3.093-8.961-3.093-8.961l-5.355-1.473s1.453,6.137,1.954,8.755a9.706,9.706,0,0,1-.589,4.553,10.114,10.114,0,0,0-.513,2.2" transform="translate(-1179.468 -1250.186)" fill="#ffb27d"/>
        <path id="Trazado_214823" data-name="Trazado 214823" d="M1349.891,1558.766c2.881.213,2,.924,5.945,1.852s5.537-.375,5.829-1.024c.26-.576-1.569-1.506-3.517-2.556l-.031.041a9.289,9.289,0,0,1-5.984.009c-2.605-.9-5.115-2.847-6.91-3.487a10.12,10.12,0,0,0-.513,2.2c-.184,2.185,2.3,2.749,5.181,2.963" transform="translate(-1185.747 -1328.886)" fill="#233862"/>
        <path id="Trazado_214824" data-name="Trazado 214824" d="M890.2,928.121c-2.5-2.151-10.033-3.819-18.345-5.056-2.3-.342-4.185-2.387-4.746-5.135l-19.333-9.4s-9.152,16.587-9.224,29.275c-.034,5.917,2.193,6.5,2.194,6.505s34.468.313,35.979.5c2.473.312,5.735,7.85,6.55,14.717s15.188,34.792,15.188,34.792a15.22,15.22,0,0,0,4.383,1.076,3.846,3.846,0,0,0,2.181-.718S896.695,933.7,890.2,928.121" transform="translate(-739.425 -777.123)" fill="#2b478b"/>
        <path id="Trazado_214825" data-name="Trazado 214825" d="M794.4,419.49c-2.657-1.707-6.7-1.938-7.356-2.046-7.858-1.292-12.588,12.681-12.867,16.914-.513,7.8-3.887,8.994-8.635,13.881-9.522,9.8-6.73,21.187-1.523,25.418,3.124,2.539,8.631,0,8.631,0,.078.067,15.059-10.248,22.444-15.223,11.071-1.926,6.076-34.594-.694-38.944" transform="translate(-669.496 -356.993)" fill="#233862"/>
        <path id="Trazado_214826" data-name="Trazado 214826" d="M964.376,589.436c.034.022-3.492,1.984-6.037.955-2.395-.965-4.5-5.377-4.47-5.383,1.039-.184,2.1-1.439,2.391-8.873l.46.142,7.739,2.393s-.306,3-.432,5.836c-.107,2.381-.085,4.648.35,4.931" transform="translate(-841.113 -492.801)" fill="#ffb27d"/>
        <path id="Trazado_214827" data-name="Trazado 214827" d="M984.1,583.307s0,.617-.289,3.408c-4.377-1.351-6.307-3.127-7.668-5.159Z" transform="translate(-860.758 -497.439)" fill="#ed975d"/>
        <path id="Trazado_214828" data-name="Trazado 214828" d="M966.445,473.732s-10.234,2.039-11.173-5.779-2.893-12.819,3.6-14.452,8.125,1.122,8.957,3.638,1.253,15.861-1.385,16.593" transform="translate(-841.45 -387.487)" fill="#ffb27d"/>
        <path id="Trazado_214829" data-name="Trazado 214829" d="M945.74,445.869s-4.647,8.976-8.8,11.1-6.187,1.047-6.187,1.047a24.416,24.416,0,0,0,2.379-8.2,3.823,3.823,0,0,1,1.943-3.094c2.977-1.459,8.736-3.76,10.661-.852" transform="translate(-820.735 -380.182)" fill="#233862"/>
        <path id="Trazado_214830" data-name="Trazado 214830" d="M1022.974,445.94a16.521,16.521,0,0,1,3.846,3.31,17.486,17.486,0,0,1,2.244,7.622s1.344-9.025-1.455-12.127c-2.968-3.29-4.635,1.2-4.635,1.2" transform="translate(-902.051 -379.385)" fill="#233862"/>
        <path id="Trazado_214831" data-name="Trazado 214831" d="M906.312,655.326c-.311,25.453-.085,20.134-2.361,22.55-.548.581-2.09.928-4.118,1.092-6.378.518-17.591-.768-18.017-2.21-1.471-4.991-.433-6.541-1.66-14.182-.128-.812-.286-1.692-.472-2.65-1.023-5.248-2.02-7.033,1.611-15.464,3.293-7.637,7.165-13.841,7.473-13.618,8.687,6.31,8.985,1.021,8.985,1.021s8.712,11.046,8.56,23.461" transform="translate(-774.862 -539.593)" fill="#fff"/>
        <path id="Trazado_214832" data-name="Trazado 214832" d="M1039.608,637.935s8.891,1.844,9.941,6.554,7.227,32.394,7.227,32.394-4.544,1-6.644-1.57-7.3-23.832-7.3-23.832Z" transform="translate(-916.719 -545.664)" fill="#fff"/>
        <path id="Trazado_214833" data-name="Trazado 214833" d="M910.423,803.967c-6.378.518-17.591-.768-18.017-2.21-1.471-4.991-.432-6.541-1.66-14.182l3.076-10.6s-.509,11.8,2.336,14.909,11.648,5.993,13.031,8.588a10.718,10.718,0,0,1,1.234,3.5" transform="translate(-785.452 -664.593)" fill="#ebf3ff"/>
        <path id="Trazado_214834" data-name="Trazado 214834" d="M995.386,922.219s6.293-1.714,7.308-1.031a16.188,16.188,0,0,1,3.807,4.038c.311.866-2.26-.657-3.1-.932-.542-.178-1.967.429-2.673.717a7.35,7.35,0,0,1-4.79.588Z" transform="translate(-877.724 -787.809)" fill="#ffb27d"/>
        <path id="Trazado_214835" data-name="Trazado 214835" d="M808.128,630.879s-8.906.637-11.831,5.629c-4.117,7.027-12.286,36.975-7.6,40.968,5.272,4.5,23.993,1.177,23.993,1.177s.623-3.563-.244-5.287-14.953-4.508-15.6-5.3,8.127-15.512,8.127-17.9,3.163-19.285,3.163-19.285" transform="translate(-694.223 -539.628)" fill="#fff"/>
        <path id="Trazado_214836" data-name="Trazado 214836" d="M1059.788,936.957a14.25,14.25,0,0,0,1.751,2.33,1.087,1.087,0,0,0,.712.186l-.888-1.957Z" transform="translate(-934.513 -801.435)" fill="#ffb27d"/>
        <path id="Trazado_214837" data-name="Trazado 214837" d="M1057.211,922.139l3.833,2.278a.647.647,0,0,1-.635.3,7.885,7.885,0,0,1-1.663-.559Z" transform="translate(-932.241 -788.76)" fill="#ffb27d"/>
        <path id="Trazado_214838" data-name="Trazado 214838" d="M1043.862,949.2h-17.8a1.6,1.6,0,0,1,1.419-1.737h16.385Z" transform="translate(-904.77 -810.424)" fill="#ed7d2b"/>
        <path id="Trazado_214839" data-name="Trazado 214839" d="M1125.658,795.437h27.526l-6.6,23.726h-27.705Z" transform="translate(-986.618 -680.384)" fill="#ed7d2b"/>
        <path id="Trazado_214840" data-name="Trazado 214840" d="M1156.613,795.434l-6.6,23.727h-27.705l6.781-23.727Z" transform="translate(-989.64 -680.382)" fill="#f99746"/>
        <path id="Trazado_214841" data-name="Trazado 214841" d="M1266.711,866.231a1.918,1.918,0,0,1-1.651,1.641c-.741,0-1.2-.735-1.032-1.641a1.917,1.917,0,0,1,1.651-1.641c.741,0,1.2.735,1.032,1.641" transform="translate(-1114.58 -739.534)" fill="#fff"/>
        <path id="Trazado_214842" data-name="Trazado 214842" d="M967.145,964.812h120.63a1.037,1.037,0,0,0,.919-1.124V960.6a1.037,1.037,0,0,0-.919-1.124H967.145a1.037,1.037,0,0,0-.918,1.124v3.09a1.037,1.037,0,0,0,.918,1.124" transform="translate(-852.012 -820.695)" fill="#182d4f"/>
        <path id="Trazado_214843" data-name="Trazado 214843" d="M1917.6,1068.8l.052-.008a1.322,1.322,0,0,0,.977-1.507l-10.75-89.035-3.936.138,12.648,89.516a.946.946,0,0,0,1.008.9" transform="translate(-1678.886 -836.756)" fill="#182d4f"/>
        <path id="Trazado_214844" data-name="Trazado 214844" d="M932.079,1068.8l-.052-.008a1.322,1.322,0,0,1-.978-1.507L941.8,978.25l3.935.138L933.087,1067.9a.946.946,0,0,1-1.008.9" transform="translate(-820.985 -836.756)" fill="#182d4f"/>
        <path id="Trazado_214845" data-name="Trazado 214845" d="M1142.605,1068.8l-.052-.008a1.322,1.322,0,0,1-.978-1.507l10.75-89.035,3.936.138-12.648,89.516a.946.946,0,0,1-1.008.9" transform="translate(-1006.625 -836.756)" fill="#182d4f"/>
        <path id="Trazado_214847" data-name="Trazado 214847" d="M1686.85,1524.859h21.331c1.026-1.532.648-7.185.493-9.031-.032-.372-.054-.588-.054-.588s-7.284-7.129-8.285-1.671c-.03.172-.067.339-.108.5-1.26,5.106-6.915,7.426-10.179,8.073a3.888,3.888,0,0,0-3.2,2.713" transform="translate(-1487.452 -1292.887)" fill="#233862"/>
        <path id="Trazado_214848" data-name="Trazado 214848" d="M1837.213,1017.428c-.77,0-36.539,8.218-42.456,17.179-2.956,4.477-3.4,56.18-3.4,56.18s3.657,5.547,11.554,2.326c0,0,5.79-35.374,5.363-46.1-.118-2.967,24.439-.43,28.934-1.853s15.477-13.387,13.057-19.216-13.057-8.513-13.057-8.513" transform="translate(-1579.61 -870.267)" fill="#233862"/>
        <path id="Trazado_214849" data-name="Trazado 214849" d="M1722.037,929.9s-7.215.119-8.922,1.014-5.167,2.949-4.241,3.264,5.346-.13,6.3.049a13.181,13.181,0,0,0,2.718-.049h3.314Z" transform="translate(-1506.736 -795.395)" fill="#ffb27d"/>
        <path id="Trazado_214850" data-name="Trazado 214850" d="M1640.847,713.891a12.234,12.234,0,0,0-4.849-2.569,17.723,17.723,0,0,1-3.488-.88c-2.2-.951-6.614-5.8-6.28-6.372,1.069-1.824,6.218,2.036,7.117,1.622s-1.727-2.7-.814-3.5c.477-.42,1.593,1.684,2.505,1.9,1.234.286,2.2,2.418,2.571,2.53.723.217,3.891,3.1,3.891,3.1Z" transform="translate(-1433.982 -600.577)" fill="#ffb27d"/>
        <path id="Trazado_214851" data-name="Trazado 214851" d="M1853.93,609.758s-5.492,2.083-10.9,20.316-7.466,19.218-9.434,19.934-19.232,4.922-19.232,4.922v5.411h26.6s9.976-11.611,12.966-19.428,0-31.155,0-31.155" transform="translate(-1599.89 -521.562)" fill="#ed7d2b"/>
        <path id="Trazado_214852" data-name="Trazado 214852" d="M1607.1,1524.859h21.331c1.026-1.532.648-7.185.493-9.031-.032-.372-.054-.588-.054-.588s-7.284-7.129-8.285-1.671c-.031.172-.068.339-.108.5-1.26,5.106-6.915,7.426-10.179,8.073a3.888,3.888,0,0,0-3.2,2.713" transform="translate(-1417.126 -1292.887)" fill="#1b3051"/>
        <path id="Trazado_214853" data-name="Trazado 214853" d="M1748.043,1017.428c-.77,0-36.539,8.218-42.456,17.179-2.956,4.477-3.4,56.18-3.4,56.18s3.657,5.547,11.554,2.326c0,0,5.79-35.374,5.363-46.1-.118-2.967,24.439-.43,28.934-1.853s15.477-13.387,13.057-19.216-13.057-8.513-13.057-8.513" transform="translate(-1500.98 -870.267)" fill="#2b478b"/>
        <path id="Trazado_214854" data-name="Trazado 214854" d="M2092.314,511.274a29.369,29.369,0,0,0,7.6-2.025c2.915-1.157,5.264-2.849,3.75-6.109-1.4-3-3.654-9.716-3.5-15.276l-5.424,5.348-3.684,3.632s.015,2.142.418,5.895q.111,1.026.261,2.212a1.76,1.76,0,0,1-.605,1.615l-.083.064c-1.831,1.408-.889,4.861,1.266,4.643" transform="translate(-1843.013 -417.3)" fill="#ffb27d"/>
        <path id="Trazado_214855" data-name="Trazado 214855" d="M2097.979,527.331a13.367,13.367,0,0,0,.135,3.649c3.285-.656,6.355-3.861,6.355-3.861-1.672-.562-2.281-2.773-3.526-2.567Z" transform="translate(-1849.934 -448.669)" fill="#ed975d"/>
        <path id="Trazado_214856" data-name="Trazado 214856" d="M2054.295,397.12s12.635,2.568,13.821-7.084,3.616-15.821-4.4-17.869-10.04,1.346-11.076,4.45-1.6,19.586,1.657,20.5" transform="translate(-1809.288 -317.803)" fill="#ffb27d"/>
        <path id="Trazado_214857" data-name="Trazado 214857" d="M2042.1,360.2a5.513,5.513,0,0,0,3.347,6.087c3.618,1.384,2.818,6.814,4.447,6.74s2.284-3.121,3.739-.686c1.24,2.077-1.033,4.539-.876,5.678.268,1.955,2.771,5.956,5.027,5.755s6.477-13.319,5.633-17.377-4.221-8.338-7.417-8.928-7.634,1.1-8.659,1.1-4.947.376-5.24,1.632" transform="translate(-1800.609 -305.661)" fill="#2b478b"/>
        <path id="Trazado_214858" data-name="Trazado 214858" d="M2055.568,593.429c-1.826-8.994-6.873-18.43-10.286-18.422-5.815.014-14.175,1.891-17.551,12.08-2.486,7.5-5.8,50.669-2.054,53.738,8.567,7.018,28.425,21.343,31.952,6.734,3.232-13.386,1.109-38.521-2.061-54.13" transform="translate(-1784.74 -491.838)" fill="#f99746"/>
        <path id="Trazado_214859" data-name="Trazado 214859" d="M1767.643,608.5c-1.659-5.28-7.01-7.106-10.659-3.632a72.614,72.614,0,0,0-7.31,8.359c-10.853,14.141-13.058,14.053-15.1,13.761s-19.259-4.764-19.259-4.764a6.173,6.173,0,0,0-1.4,2.082,4.724,4.724,0,0,0-.344,2.89c-.675-.533,6.1,5.184,9.478,7.464a83.9,83.9,0,0,0,13.845,6.9,2.96,2.96,0,0,0,2.326-.043c3.969-1.75,17.3-8.13,28.15-19.2,2.859-2.917,1.809-8.927.27-13.823" transform="translate(-1510.939 -515.857)" fill="#f99746"/>
        <path id="Trazado_214860" data-name="Trazado 214860" d="M2096.55,554.143l-1.317-3.629s-11.785,1.176-13.766,9.383c0,0,9.135-5.578,15.083-5.754" transform="translate(-1835.422 -470.887)" fill="#fff"/>
        <path id="Trazado_214861" data-name="Trazado 214861" d="M2398.041,1272.163l.081,0a1.266,1.266,0,0,0,1.116-1.446l-4.439-54.25-3.874.423,6.375,54.542a.775.775,0,0,0,.741.733" transform="translate(-2108.3 -1040.515)" fill="#8cb4f4"/>
        <path id="Trazado_214862" data-name="Trazado 214862" d="M2204.736,1272.163l.081,0a1.266,1.266,0,0,0,1.116-1.446l-4.439-54.25-3.874.423L2204,1271.43a.775.775,0,0,0,.741.733" transform="translate(-1937.846 -1040.515)" fill="#8cb4f4"/>
        <path id="Trazado_214863" data-name="Trazado 214863" d="M1885.934,1272.163l-.082,0a1.266,1.266,0,0,1-1.117-1.446l4.439-54.25,3.874.423-6.374,54.542a.775.775,0,0,1-.74.733" transform="translate(-1661.941 -1040.515)" fill="#73a2e5"/>
        <path id="Trazado_214864" data-name="Trazado 214864" d="M2149.713,809.972l4.213-45.31c.553-6.53-1.233-12.923-8.934-13.418l-13.548-1.01c-8.03-.405-11.655,7.772-12.671,14.067l-8.043,49.807Z" transform="translate(-1861.228 -641.707)" fill="#8cb4f4"/>
        <path id="Trazado_214865" data-name="Trazado 214865" d="M1956.437,1170.591h-60.127a2.487,2.487,0,0,1-2.2-2.688v-3.309a2.487,2.487,0,0,1,2.2-2.688h62.323v6a2.487,2.487,0,0,1-2.2,2.688" transform="translate(-1670.215 -993.848)" fill="#73a2e5"/>
        <path id="Trazado_214866" data-name="Trazado 214866" d="M2147.94,1170.591h-35.5a1.932,1.932,0,0,1-1.706-2.087v-4.51a1.931,1.931,0,0,1,1.706-2.087h37.208v6.6a1.931,1.931,0,0,1-1.706,2.087" transform="translate(-1861.227 -993.848)" fill="#8cb4f4"/>
      </g>
    </g>
  </g>
</svg>
