<svg xmlns="http://www.w3.org/2000/svg" width="1241" height="1170.048" viewBox="0 0 1241 1170.048">
  <g id="Grupo_593156" data-name="Grupo 593156" transform="translate(-180 -576.26)">
    <path id="Trazado_222384" data-name="Trazado 222384" d="M504.919.136l545-.14V73.328h-545Z" transform="translate(14.992 577.265)" fill="#0e8282" stroke="#fff" stroke-width="2"/>
    <text id="Sistemas_de_procesos_productivos_" data-name="Sistemas de procesos productivos
" transform="translate(798.893 623.64)" fill="#fff" font-size="30" font-family="Roboto-Black, Roboto" font-weight="800"><tspan x="-232.917" y="0">Sistemas de procesos productivos</tspan><tspan x="0" y="35"></tspan></text>
    <line id="Línea_390" data-name="Línea 390" y1="121.767" x2="0.5" transform="translate(449 614.5)" fill="none" stroke="#090101" stroke-width="2"/>
    <line id="Línea_391" data-name="Línea 391" x1="71" y2="1" transform="translate(448.5 613.5)" fill="none" stroke="#070101" stroke-width="2"/>
    <line id="Línea_392" data-name="Línea 392" x1="223.5" y1="0.14" transform="translate(1079.5 629.5)" fill="none" stroke="#070101" stroke-width="2"/>
    <line id="Línea_393" data-name="Línea 393" y1="112" transform="translate(1303 629.64)" fill="none" stroke="#090101" stroke-width="2"/>
    <path id="Trazado_222411" data-name="Trazado 222411" d="M0,87V0" transform="translate(839.231 651.64)" fill="none" stroke="#090101" stroke-width="2"/>
    <path id="Trazado_222408" data-name="Trazado 222408" d="M504.919.078,665.694,0V40.017H504.919Z" transform="translate(-145.782 714.133)" fill="#2c53a0" stroke="#fff" stroke-width="2"/>
    <text id="La_organización_" data-name="La organización
" transform="translate(438 739.64)" fill="#fff" font-size="17" font-family="Roboto-Regular, Roboto"><tspan x="-60.056" y="0">La organización</tspan><tspan x="0" y="29"></tspan></text>
    <path id="Trazado_222410" data-name="Trazado 222410" d="M504.919.076,794.014,0V39H504.919Z" transform="translate(625.986 716.768)" fill="#2c53a0" stroke="#fff" stroke-width="2"/>
    <text id="Normatividad_Producción_sostenible_" data-name="Normatividad Producción sostenible
" transform="translate(1276.33 741.14)" fill="#f3f9ff" font-size="17" font-family="Roboto-Regular, Roboto"><tspan x="-137.258" y="0">Normatividad Producción sostenible</tspan><tspan x="0" y="24"></tspan></text>
    <path id="Trazado_222409" data-name="Trazado 222409" d="M504.919.07,667.686,0V39H504.919Z" transform="translate(259.719 716.768)" fill="#2c53a0" stroke="#fff" stroke-width="2"/>
    <text id="Proceso_productivo_" data-name="Proceso productivo
" transform="translate(847.945 740.14)" fill="#fff" font-size="17" font-family="Roboto-Regular, Roboto"><tspan x="-73.371" y="0">Proceso productivo</tspan><tspan x="0" y="24"></tspan></text>
    <line id="Línea_395" data-name="Línea 395" y1="48" transform="translate(449 755.771)" fill="none" stroke="#090101" stroke-width="2"/>
    <line id="Línea_396" data-name="Línea 396" y1="241" transform="translate(475.5 838.5)" fill="none" stroke="#090101" stroke-width="2"/>
    <line id="Línea_398" data-name="Línea 398" x2="56" transform="translate(300.5 811.5)" fill="none" stroke="#090101" stroke-width="2"/>
    <line id="Línea_399" data-name="Línea 399" x1="41" transform="translate(537.5 811.5)" fill="none" stroke="#090101" stroke-width="2"/>
    <g id="Elipse_4727" data-name="Elipse 4727" transform="translate(351.5 777.5)" fill="#1eb8b8" stroke="#fff" stroke-width="2">
      <ellipse cx="97.5" cy="34" rx="97.5" ry="34" stroke="none"/>
      <ellipse cx="97.5" cy="34" rx="96.5" ry="33" fill="none"/>
    </g>
    <text id="Relacionada_con_" data-name="Relacionada con
" transform="translate(453 819)" fill="#fff" font-size="17" font-family="Roboto-Regular, Roboto"><tspan x="-62.604" y="0">Relacionada con</tspan><tspan x="0" y="29"></tspan></text>
    <line id="Línea_400" data-name="Línea 400" y1="73" x2="32.268" transform="translate(215.232 940.5)" fill="none" stroke="#090101" stroke-width="2"/>
    <g id="Trazado_222388" data-name="Trazado 222388" transform="translate(180.232 980.701)" fill="#1f2041">
      <path d="M 88.15882110595703 38.71582412719727 L 87.19133758544922 38.71582412719727 L 1.000006198883057 38.71582412719727 L 1.000006198883057 0.9999958872795105 L 88.15882110595703 0.9999958872795105 L 88.15882110595703 38.71582412719727 Z" stroke="none"/>
      <path d="M 2 2.000003814697266 L 2 37.71581649780273 L 87.1588134765625 37.71581649780273 L 87.1588134765625 2.000003814697266 L 2 2.000003814697266 M 0 3.814697265625e-06 L 89.1588134765625 3.814697265625e-06 L 89.1588134765625 39.71581649780273 C 88.54356384277344 39.71581649780273 87.88789367675781 39.71581649780273 87.19133758544922 39.71581649780273 C 64.90164184570312 39.71581649780273 0 39.71581649780273 0 39.71581649780273 L 0 3.814697265625e-06 Z M 89.1588134765625 39.71581649780273 C 95.51676940917969 39.71581649780273 97.635009765625 39.71581649780273 97.635009765625 39.71581649780273 L 89.1588134765625 39.71581649780273 Z" stroke="none" fill="#f6f6f6"/>
    </g>
    <g id="Trazado_222390" data-name="Trazado 222390" transform="translate(384.213 980.794)" fill="#1f2041">
      <path d="M 81.90585327148438 39.44141006469727 L 81.07636260986328 39.44141006469727 L 1.000003457069397 39.44141006469727 L 1.000003457069397 0.9999964833259583 L 81.90585327148438 0.9999964833259583 L 81.90585327148438 39.44141006469727 Z" stroke="none"/>
      <path d="M 2 2.000003814697266 L 2 38.44140243530273 L 80.90584564208984 38.44140243530273 L 80.90584564208984 2.000003814697266 L 2 2.000003814697266 M 0 3.814697265625e-06 L 82.90584564208984 3.814697265625e-06 L 82.90584564208984 40.44140243530273 C 82.33374786376953 40.44140243530273 81.72406005859375 40.44140243530273 81.07635498046875 40.44140243530273 C 60.34990310668945 40.44140243530273 0 40.44140243530273 0 40.44140243530273 L 0 3.814697265625e-06 Z M 82.90584564208984 40.44140243530273 C 88.81790161132812 40.44140243530273 90.78759002685547 40.44140243530273 90.78759002685547 40.44140243530273 L 82.90584564208984 40.44140243530273 Z" stroke="none" fill="#fff"/>
    </g>
    <text id="Primaria_" data-name="Primaria
" transform="translate(222.515 1005.535)" fill="#fff" font-size="17" font-family="Roboto-Regular, Roboto"><tspan x="-31.937" y="0">Primaria</tspan><tspan x="0" y="27"></tspan></text>
    <text id="Terciaria_" data-name="Terciaria
" transform="translate(425 1005.535)" fill="#fff" font-size="17" font-family="Roboto-Regular, Roboto"><tspan x="-33.07" y="0">Terciaria</tspan><tspan x="0" y="27"></tspan></text>
    <line id="Línea_401" data-name="Línea 401" y1="61.86" transform="translate(323 951.175)" fill="none" stroke="#090101" stroke-width="2"/>
    <line id="Línea_402" data-name="Línea 402" x1="37" y1="43" transform="translate(384.5 937.5)" fill="none" stroke="#090101" stroke-width="2"/>
    <g id="Trazado_225602" data-name="Trazado 225602" transform="translate(237.287 892.262)" fill="#0e8282">
      <path d="M 164.6752777099609 63.9287223815918 L 162.0193023681641 63.9287223815918 L 1.000010132789612 63.9287223815918 L 1.000010132789612 1.00001335144043 L 164.6752777099609 1.00001335144043 L 164.6752777099609 63.9287223815918 Z" stroke="none"/>
      <path d="M 2 1.999996185302734 L 2 62.92871475219727 L 163.67529296875 62.92871475219727 L 163.67529296875 1.999996185302734 L 2 1.999996185302734 M 0 -7.62939453125e-06 L 165.67529296875 -7.62939453125e-06 L 165.67529296875 64.92871856689453 C 164.5320281982422 64.92871856689453 163.3136291503906 64.92871856689453 162.019287109375 64.92871856689453 C 120.6005096435547 64.92871856689453 0 64.92871856689453 0 64.92871856689453 L 0 -7.62939453125e-06 Z M 165.67529296875 64.92871856689453 C 177.4896697998047 64.92871856689453 181.42578125 64.92871856689453 181.42578125 64.92871856689453 L 165.67529296875 64.92871856689453 Z" stroke="none" fill="#f6f6f6"/>
    </g>
    <text id="Tipos_de_actividad_económica_" data-name="Tipos de actividad
económica
" transform="translate(321.515 919.081)" fill="#fff" font-size="17" font-family="Roboto-Regular, Roboto"><tspan x="-68.942" y="0">Tipos de actividad</tspan><tspan x="-41.923" y="27">económica</tspan><tspan x="0" y="54"></tspan></text>
    <g id="Trazado_225603" data-name="Trazado 225603" transform="translate(274.305 980.701)" fill="#1f2041">
      <path d="M 104.6507568359375 39.53417205810547 L 103.3193511962891 39.53417205810547 L 1.000003576278687 39.53417205810547 L 1.000003576278687 1.000006556510925 L 104.6507568359375 1.000006556510925 L 104.6507568359375 39.53417205810547 Z" stroke="none"/>
      <path d="M 2 2 L 2 38.5341796875 L 103.650749206543 38.5341796875 L 103.650749206543 2 L 2 2 M 0 0 L 105.650749206543 0 L 105.650749206543 40.5341796875 C 104.9216918945312 40.5341796875 104.1447448730469 40.5341796875 103.3193511962891 40.5341796875 C 76.90667724609375 40.5341796875 0 40.5341796875 0 40.5341796875 L 0 0 Z M 105.650749206543 40.5341796875 C 113.1847534179688 40.5341796875 115.6948165893555 40.5341796875 115.6948165893555 40.5341796875 L 105.650749206543 40.5341796875 Z" stroke="none" fill="#f6f6f6"/>
    </g>
    <text id="Secundaria_" data-name="Secundaria
" transform="translate(328 1005.535)" fill="#fff" font-size="17" font-family="Roboto-Regular, Roboto"><tspan x="-42.351" y="0">Secundaria</tspan><tspan x="0" y="27"></tspan></text>
    <line id="Línea_401-2" data-name="Línea 401" x1="0.281" y1="64.133" transform="translate(298.506 1114.796)" fill="none" stroke="#090101" stroke-width="2"/>
    <line id="Línea_402-2" data-name="Línea 402" x1="40.905" y1="63" transform="translate(361.787 1111.929)" fill="none" stroke="#090101" stroke-width="2"/>
    <line id="Línea_403" data-name="Línea 403" y1="27" x2="22" transform="translate(247.572 1168.073)" fill="none" stroke="#090101" stroke-width="2"/>
    <line id="Línea_404" data-name="Línea 404" x1="1" y2="74" transform="translate(294.787 1174.929)" fill="none" stroke="#090101" stroke-width="2"/>
    <g id="Trazado_225604" data-name="Trazado 225604" transform="translate(263.854 1141.857)" fill="#ffd947">
      <path d="M 75.58847808837891 38.71582412719727 L 74.89839172363281 38.71582412719727 L 1.000004649162292 38.71582412719727 L 1.000004649162292 0.9999976754188538 L 75.58847808837891 0.9999976754188538 L 75.58847808837891 38.71582412719727 Z" stroke="none"/>
      <path d="M 1.999992370605469 2.000003814697266 L 1.999992370605469 37.71581649780273 L 74.58847045898438 37.71581649780273 L 74.58847045898438 2.000003814697266 L 1.999992370605469 2.000003814697266 M -7.62939453125e-06 3.814697265625e-06 L 76.58847045898438 3.814697265625e-06 L 76.58847045898438 39.71581649780273 C 76.05996704101562 39.71581649780273 75.49674224853516 39.71581649780273 74.89839172363281 39.71581649780273 C 55.75127410888672 39.71581649780273 -7.62939453125e-06 39.71581649780273 -7.62939453125e-06 39.71581649780273 L -7.62939453125e-06 3.814697265625e-06 Z M 76.58847045898438 39.71581649780273 C 82.05003356933594 39.71581649780273 83.86962890625 39.71581649780273 83.86962890625 39.71581649780273 L 76.58847045898438 39.71581649780273 Z" stroke="none" fill="#fff"/>
    </g>
    <text id="Básicas_" data-name="Básicas
" transform="translate(302.506 1166.796)" fill="#12263f" font-size="17" font-family="Roboto-Regular, Roboto"><tspan x="-29.816" y="0">Básicas</tspan><tspan x="0" y="27"></tspan></text>
    <g id="Trazado_225605" data-name="Trazado 225605" transform="translate(180 1195.604)" fill="#1f2041">
      <path d="M 103.7212982177734 38.71582794189453 L 102.4104156494141 38.71582794189453 L 0.9999977350234985 38.71582794189453 L 0.9999977350234985 0.9999935030937195 L 103.7212982177734 0.9999935030937195 L 103.7212982177734 38.71582794189453 Z" stroke="none"/>
      <path d="M 2 2 L 2 37.7158203125 L 102.7212905883789 37.7158203125 L 102.7212905883789 2 L 2 2 M 0 0 L 104.7212905883789 0 L 104.7212905883789 39.7158203125 C 103.9986572265625 39.7158203125 103.2285385131836 39.7158203125 102.410400390625 39.7158203125 C 76.23007202148438 39.7158203125 0 39.7158203125 0 39.7158203125 L 0 0 Z M 104.7212905883789 39.7158203125 C 112.1890182495117 39.7158203125 114.6769943237305 39.7158203125 114.6769943237305 39.7158203125 L 104.7212905883789 39.7158203125 Z" stroke="none" fill="#fff"/>
    </g>
    <text id="Producción_" data-name="Producción
" transform="translate(233.246 1220.715)" fill="#fff" font-size="17" font-family="Roboto-Regular, Roboto"><tspan x="-42.981" y="0">Producción</tspan><tspan x="0" y="27"></tspan></text>
    <g id="Trazado_225606" data-name="Trazado 225606" transform="translate(190.894 1243.604)" fill="#1f2041">
      <path d="M 150.5280456542969 40.6161994934082 L 148.1842498779297 40.6161994934082 L 0.9999915957450867 40.6161994934082 L 0.9999915957450867 1.000010251998901 L 150.5280456542969 1.000010251998901 L 150.5280456542969 40.6161994934082 Z" stroke="none"/>
      <path d="M 1.999984741210938 2.000003814697266 L 1.999984741210938 39.61620712280273 L 149.5280303955078 39.61620712280273 L 149.5280303955078 2.000003814697266 L 1.999984741210938 2.000003814697266 M -1.52587890625e-05 3.814697265625e-06 L 151.5280303955078 3.814697265625e-06 L 151.5280303955078 41.61620712280273 C 150.4824066162109 41.61620712280273 149.3680419921875 41.61620712280273 148.1842346191406 41.61620712280273 C 110.3022613525391 41.61620712280273 -1.52587890625e-05 41.61620712280273 -1.52587890625e-05 41.61620712280273 L -1.52587890625e-05 3.814697265625e-06 Z M 151.5280303955078 41.61620712280273 C 162.3335723876953 41.61620712280273 165.9335784912109 41.61620712280273 165.9335784912109 41.61620712280273 L 151.5280303955078 41.61620712280273 Z" stroke="none" fill="#fff"/>
    </g>
    <text id="Comercialización_" data-name="Comercialización
" transform="translate(266.287 1270.796)" fill="#fff" font-size="17" font-family="Roboto-Regular, Roboto"><tspan x="-65.277" y="0">Comercialización</tspan><tspan x="0" y="27"></tspan></text>
    <line id="Línea_405" data-name="Línea 405" y1="27" x2="22" transform="translate(348.098 1172.439)" fill="none" stroke="#090101" stroke-width="2"/>
    <line id="Línea_406" data-name="Línea 406" y1="75" transform="translate(431.787 1173.929)" fill="none" stroke="#090101" stroke-width="2"/>
    <g id="Trazado_225607" data-name="Trazado 225607" transform="translate(353.287 1141.948)" fill="#ffd947">
      <path d="M 87.56733703613281 38.71582412719727 L 86.61292266845703 38.71582412719727 L 1.000005125999451 38.71582412719727 L 1.000005125999451 0.9999958872795105 L 87.56733703613281 0.9999958872795105 L 87.56733703613281 38.71582412719727 Z" stroke="none"/>
      <path d="M 1.999992370605469 2.000003814697266 L 1.999992370605469 37.71581649780273 L 86.56732940673828 37.71581649780273 L 86.56732940673828 2.000003814697266 L 1.999992370605469 2.000003814697266 M -7.62939453125e-06 3.814697265625e-06 L 88.56732940673828 3.814697265625e-06 L 88.56732940673828 39.71581649780273 C 87.95616149902344 39.71581649780273 87.30484771728516 39.71581649780273 86.6129150390625 39.71581649780273 C 64.47108459472656 39.71581649780273 -7.62939453125e-06 39.71581649780273 -7.62939453125e-06 39.71581649780273 L -7.62939453125e-06 3.814697265625e-06 Z M 88.56732940673828 39.71581649780273 C 94.88311004638672 39.71581649780273 96.9873046875 39.71581649780273 96.9873046875 39.71581649780273 L 88.56732940673828 39.71581649780273 Z" stroke="none" fill="#fff"/>
    </g>
    <text id="De_apoyo_" data-name="De apoyo
" transform="translate(397.287 1167.439)" fill="#12263f" font-size="17" font-family="Roboto-Regular, Roboto"><tspan x="-35.291" y="0">De apoyo</tspan><tspan x="0" y="27"></tspan></text>
    <g id="Trazado_225608" data-name="Trazado 225608" transform="translate(315.071 1195.604)" fill="#1f2041">
      <path d="M 105.4948425292969 38.7158203125 L 104.1448059082031 38.7158203125 L 1.000007510185242 38.7158203125 L 1.000007510185242 1.000001072883606 L 105.4948425292969 1.000001072883606 L 105.4948425292969 18.20736503601074 L 105.4948425292969 38.7158203125 Z" stroke="none"/>
      <path d="M 1.999984741210938 2 L 1.999984741210938 37.7158203125 L 104.4948272705078 37.7158203125 L 104.4948272705078 2 L 1.999984741210938 2 M -1.52587890625e-05 0 L 106.4948272705078 0 L 106.4948272705078 39.7158203125 C 105.7599487304688 39.7158203125 104.9767990112305 39.7158203125 104.1448059082031 39.7158203125 C 77.52110290527344 39.7158203125 -1.52587890625e-05 39.7158203125 -1.52587890625e-05 39.7158203125 L -1.52587890625e-05 0 Z M 106.4948272705078 39.7158203125 C 114.0890197753906 39.7158203125 116.619140625 39.7158203125 116.619140625 39.7158203125 L 106.4948272705078 39.7158203125 Z" stroke="none" fill="#fff"/>
    </g>
    <text id="Informática_" data-name="Informática
" transform="translate(367.287 1219.787)" fill="#fff" font-size="17" font-family="Roboto-Regular, Roboto"><tspan x="-43.662" y="0">Informática</tspan><tspan x="0" y="27"></tspan></text>
    <g id="Trazado_225609" data-name="Trazado 225609" transform="translate(361.287 1243.604)" fill="#1f2041">
      <path d="M 136.6581878662109 56.93944549560547 L 134.6204681396484 56.93944549560547 L 1.000008344650269 56.93944549560547 L 1.000008344650269 1.000009179115295 L 136.6581878662109 1.000009179115295 L 136.6581878662109 56.93944549560547 Z" stroke="none"/>
      <path d="M 1.999984741210938 2 L 1.999984741210938 55.939453125 L 135.6581726074219 55.939453125 L 135.6581726074219 2 L 1.999984741210938 2 M -1.52587890625e-05 0 L 137.6581726074219 0 L 137.6581726074219 57.939453125 C 136.708251953125 57.939453125 135.6958923339844 57.939453125 134.6204376220703 57.939453125 C 100.2059173583984 57.939453125 -1.52587890625e-05 57.939453125 -1.52587890625e-05 57.939453125 L -1.52587890625e-05 0 Z M 137.6581726074219 57.939453125 C 147.4746398925781 57.939453125 150.7451171875 57.939453125 150.7451171875 57.939453125 L 137.6581726074219 57.939453125 Z" stroke="none" fill="#fff"/>
    </g>
    <text id="Administración_y_RRHH" data-name="Administración
y RRHH" transform="translate(431.787 1265.073)" fill="#fff" font-size="17" font-family="Roboto-Regular, Roboto"><tspan x="-57.147" y="0">Administración</tspan><tspan x="-28.712" y="27">y RRHH</tspan></text>
    <g id="Trazado_225610" data-name="Trazado 225610" transform="translate(237.338 1054.5)" fill="#0e8282">
      <path d="M 165.9949035644531 63.9287223815918 L 163.309814453125 63.9287223815918 L 1.000003218650818 63.9287223815918 L 1.000003218650818 1.00001335144043 L 165.9949035644531 1.00001335144043 L 165.9949035644531 63.9287223815918 Z" stroke="none"/>
      <path d="M 1.999984741210938 1.999996185302734 L 1.999984741210938 62.92871475219727 L 164.9949035644531 62.92871475219727 L 164.9949035644531 1.999996185302734 L 1.999984741210938 1.999996185302734 M -1.52587890625e-05 -7.62939453125e-06 L 166.9949035644531 -7.62939453125e-06 L 166.9949035644531 64.92871856689453 C 165.8425445556641 64.92871856689453 164.6144714355469 64.92871856689453 163.309814453125 64.92871856689453 C 121.5610961914062 64.92871856689453 -1.52587890625e-05 64.92871856689453 -1.52587890625e-05 64.92871856689453 L -1.52587890625e-05 -7.62939453125e-06 Z M 166.9949035644531 64.92871856689453 C 178.9033813476562 64.92871856689453 182.870849609375 64.92871856689453 182.870849609375 64.92871856689453 L 166.9949035644531 64.92871856689453 Z" stroke="none" fill="#f6f6f6"/>
    </g>
    <text id="Áreas_funcionales_de_la_organización_" data-name="Áreas funcionales
de la organización
" transform="translate(321.572 1079.51)" fill="#fff" font-size="17" font-family="Roboto-Regular, Roboto"><tspan x="-67.983" y="0">Áreas funcionales</tspan><tspan x="-68.946" y="27">de la organización</tspan><tspan x="0" y="54"></tspan></text>
    <line id="Línea_403-2" data-name="Línea 403" x1="0.5" y1="65.248" transform="translate(419.984 1381.304)" fill="none" stroke="#090101" stroke-width="2"/>
    <line id="Línea_404-2" data-name="Línea 404" y1="48.742" x2="68.657" transform="translate(288.355 1440.929)" fill="none" stroke="#090101" stroke-width="2"/>
    <g id="Trazado_225611" data-name="Trazado 225611" transform="translate(332.513 1329.796)" fill="#0e8282">
      <path d="M 166.1128387451172 63.9287223815918 L 163.4251556396484 63.9287223815918 L 0.9999927282333374 63.9287223815918 L 0.9999927282333374 1.00001335144043 L 166.1128387451172 1.00001335144043 L 166.1128387451172 63.9287223815918 Z" stroke="none"/>
      <path d="M 2.000015258789062 1.999996185302734 L 2.000015258789062 62.92871475219727 L 165.1128234863281 62.92871475219727 L 165.1128234863281 1.999996185302734 L 2.000015258789062 1.999996185302734 M 1.52587890625e-05 -7.62939453125e-06 L 167.1128234863281 -7.62939453125e-06 L 167.1128234863281 64.92871856689453 C 165.9596405029297 64.92871856689453 164.730712890625 64.92871856689453 163.4251403808594 64.92871856689453 C 121.6469268798828 64.92871856689453 1.52587890625e-05 64.92871856689453 1.52587890625e-05 64.92871856689453 L 1.52587890625e-05 -7.62939453125e-06 Z M 167.1128234863281 64.92871856689453 C 179.0297088623047 64.92871856689453 183 64.92871856689453 183 64.92871856689453 L 167.1128234863281 64.92871856689453 Z" stroke="none" fill="#fff"/>
    </g>
    <text id="Grupos_de_interés_" data-name="Grupos de interés
" transform="translate(414.287 1369.034)" fill="#fff" font-size="17" font-family="Roboto-Regular, Roboto"><tspan x="-66.651" y="0">Grupos de interés</tspan><tspan x="0" y="29"></tspan></text>
    <line id="Línea_407" data-name="Línea 407" y1="86.633" x2="0.5" transform="translate(459.407 1431.927)" fill="none" stroke="#090101" stroke-width="2"/>
    <line id="Línea_408" data-name="Línea 408" y1="48.633" transform="translate(378.355 1450.182)" fill="none" stroke="#090101" stroke-width="2"/>
    <g id="Trazado_225614" data-name="Trazado 225614" transform="translate(353.589 1411.557)" fill="#ef6f6c">
      <path d="M 130.0627746582031 45.00586700439453 L 128.1706085205078 45.00586700439453 L 1.000001430511475 45.00586700439453 L 1.000001430511475 0.9999921917915344 L 130.0627746582031 0.9999921917915344 L 130.0627746582031 45.00586700439453 Z" stroke="none"/>
      <path d="M 2 1.999996185302734 L 2 44.00586318969727 L 129.0627593994141 44.00586318969727 L 129.0627593994141 1.999996185302734 L 2 1.999996185302734 M 0 -3.814697265625e-06 L 131.0627593994141 -3.814697265625e-06 L 131.0627593994141 46.00586318969727 C 130.1583404541016 46.00586318969727 129.1945190429688 46.00586318969727 128.1705780029297 46.00586318969727 C 95.4049072265625 46.00586318969727 0 46.00586318969727 0 46.00586318969727 L 0 -3.814697265625e-06 Z M 131.0627593994141 46.00586318969727 C 140.4089050292969 46.00586318969727 143.522705078125 46.00586318969727 143.522705078125 46.00586318969727 L 131.0627593994141 46.00586318969727 Z" stroke="none" fill="#fff"/>
    </g>
    <text id="Dimensiones_" data-name="Dimensiones
" transform="translate(415.935 1442.182)" fill="#fff" font-size="17" font-family="Roboto-Regular, Roboto"><tspan x="-49.149" y="0">Dimensiones</tspan><tspan x="0" y="29"></tspan></text>
    <line id="Línea_409" data-name="Línea 409" y1="47" x2="0.624" transform="translate(335.728 1515.192)" fill="none" stroke="#090101" stroke-width="2"/>
    <line id="Línea_410" data-name="Línea 410" y1="86.633" x2="0.5" transform="translate(388.069 1518.56)" fill="none" stroke="#090101" stroke-width="2"/>
    <g id="Trazado_225616" data-name="Trazado 225616" transform="translate(282.77 1536.059)" fill="#1f2041">
      <path d="M 100.1575164794922 38.71582794189453 L 98.92527008056641 38.71582794189453 L 1.000002264976501 38.71582794189453 L 1.000002264976501 0.9999935030937195 L 100.1575164794922 0.9999935030937195 L 100.1575164794922 38.71582794189453 Z" stroke="none"/>
      <path d="M 1.999992370605469 2 L 1.999992370605469 37.7158203125 L 99.15750122070312 37.7158203125 L 99.15750122070312 2 L 1.999992370605469 2 M -7.62939453125e-06 0 L 101.1575012207031 0 L 101.1575012207031 39.7158203125 C 100.4594573974609 39.7158203125 99.71556091308594 39.7158203125 98.92526245117188 39.7158203125 C 73.63587951660156 39.7158203125 -7.62939453125e-06 39.7158203125 -7.62939453125e-06 39.7158203125 L -7.62939453125e-06 0 Z M 101.1575012207031 39.7158203125 C 108.3710861206055 39.7158203125 110.7743988037109 39.7158203125 110.7743988037109 39.7158203125 L 101.1575012207031 39.7158203125 Z" stroke="none" fill="#fff"/>
    </g>
    <text id="Empleados_" data-name="Empleados
" transform="translate(333.355 1561.998)" fill="#fff" font-size="17" font-family="Roboto-Regular, Roboto"><tspan x="-42.263" y="0">Empleados</tspan><tspan x="0" y="27"></tspan></text>
    <g id="Trazado_225617" data-name="Trazado 225617" transform="translate(321.228 1481.867)" fill="#ffd947">
      <path d="M 69.69290161132812 37.71581649780273 L 69.13291168212891 37.71581649780273 L 1.000005602836609 37.71581649780273 L 1.000005602836609 1.000004291534424 L 69.69290161132812 1.000004291534424 L 69.69290161132812 37.71581649780273 Z" stroke="none"/>
      <path d="M 2 1.999996185302734 L 2 36.71582412719727 L 68.69288635253906 36.71582412719727 L 68.69288635253906 1.999996185302734 L 2 1.999996185302734 M 0 -3.814697265625e-06 L 70.69288635253906 -3.814697265625e-06 L 70.69288635253906 38.71582412719727 C 70.20506286621094 38.71582412719727 69.68520355224609 38.71582412719727 69.13291168212891 38.71582412719727 C 51.45969009399414 38.71582412719727 0 38.71582412719727 0 38.71582412719727 L 0 -3.814697265625e-06 Z M 70.69288635253906 38.71582412719727 C 75.73403930664062 38.71582412719727 77.41357421875 38.71582412719727 77.41357421875 38.71582412719727 L 70.69288635253906 38.71582412719727 Z" stroke="none" fill="#fff"/>
    </g>
    <text id="Social_" data-name="Social
" transform="translate(356.697 1507.928)" fill="#12263f" font-size="17" font-family="Roboto-Regular, Roboto"><tspan x="-23.089" y="0">Social</tspan><tspan x="0" y="27"></tspan></text>
    <g id="Trazado_225618" data-name="Trazado 225618" transform="translate(331.697 1593.998)" fill="#1f2041">
      <path d="M 104.3560409545898 38.71582794189453 L 103.0311431884766 38.71582794189453 L 1.000007152557373 38.71582794189453 L 1.000007152557373 0.9999935030937195 L 104.3560409545898 0.9999935030937195 L 104.3560409545898 38.71582794189453 Z" stroke="none"/>
      <path d="M 2 2 L 2 37.7158203125 L 103.3560333251953 37.7158203125 L 103.3560333251953 2 L 2 2 M 0 0 L 105.3560333251953 0 L 105.3560333251953 39.7158203125 C 104.629020690918 39.7158203125 103.8542251586914 39.7158203125 103.0311279296875 39.7158203125 C 76.69212341308594 39.7158203125 0 39.7158203125 0 39.7158203125 L 0 0 Z M 105.3560333251953 39.7158203125 C 112.869026184082 39.7158203125 115.3720779418945 39.7158203125 115.3720779418945 39.7158203125 L 105.3560333251953 39.7158203125 Z" stroke="none" fill="#fff"/>
    </g>
    <text id="Comunidad_" data-name="Comunidad
" transform="translate(384.156 1619.324)" fill="#fff" font-size="17" font-family="Roboto-Regular, Roboto"><tspan x="-43.479" y="0">Comunidad</tspan><tspan x="0" y="27"></tspan></text>
    <line id="Línea_411" data-name="Línea 411" x1="0.158" y1="33.633" transform="translate(484.569 1518.56)" fill="none" stroke="#090101" stroke-width="2"/>
    <g id="Trazado_225619" data-name="Trazado 225619" transform="translate(403.285 1532.622)" fill="#1f2041">
      <path d="M 182.3461608886719 38.7158203125 L 179.3002471923828 38.7158203125 L 1.000015139579773 38.7158203125 L 1.000015139579773 0.9999983906745911 L 182.3461608886719 0.9999983906745911 L 182.3461608886719 38.7158203125 Z" stroke="none"/>
      <path d="M 1.999984741210938 2 L 1.999984741210938 37.7158203125 L 181.3461608886719 37.7158203125 L 181.3461608886719 2 L 1.999984741210938 2 M -1.52587890625e-05 0 L 183.3461608886719 0 L 183.3461608886719 39.7158203125 C 182.0809631347656 39.7158203125 180.7326354980469 39.7158203125 179.3002471923828 39.7158203125 C 133.4637145996094 39.7158203125 -1.52587890625e-05 39.7158203125 -1.52587890625e-05 39.7158203125 L -1.52587890625e-05 0 Z M 183.3461608886719 39.7158203125 C 196.420654296875 39.7158203125 200.776611328125 39.7158203125 200.776611328125 39.7158203125 L 183.3461608886719 39.7158203125 Z" stroke="none" fill="#fff"/>
    </g>
    <text id="Gobierno_corporativo_" data-name="Gobierno corporativo
" transform="translate(494.674 1558.692)" fill="#fff" font-size="17" font-family="Roboto-Regular, Roboto"><tspan x="-79.355" y="0">Gobierno corporativo</tspan><tspan x="0" y="27"></tspan></text>
    <line id="Línea_412" data-name="Línea 412" x1="84" transform="translate(511.728 1511.192)" fill="none" stroke="#090101" stroke-width="2"/>
    <line id="Línea_413" data-name="Línea 413" y1="91" transform="translate(595.728 1510.416)" fill="none" stroke="#090101" stroke-width="2"/>
    <g id="Trazado_225620" data-name="Trazado 225620" transform="translate(451.408 1593.998)" fill="#1f2041">
      <path d="M 167.7748718261719 40.6162109375 L 165.0505065917969 40.6162109375 L 1.000010848045349 40.6162109375 L 1.000010848045349 1.000000238418579 L 167.7748718261719 1.000000238418579 L 167.7748718261719 40.6162109375 Z" stroke="none"/>
      <path d="M 2 1.999996185302734 L 2 39.61621475219727 L 166.7748718261719 39.61621475219727 L 166.7748718261719 1.999996185302734 L 2 1.999996185302734 M 0 -3.814697265625e-06 L 168.7748718261719 -3.814697265625e-06 L 168.7748718261719 41.61621475219727 C 167.6102294921875 41.61621475219727 166.3690643310547 41.61621475219727 165.0505065917969 41.61621475219727 C 122.8567810058594 41.61621475219727 0 41.61621475219727 0 41.61621475219727 L 0 -3.814697265625e-06 Z M 168.7748718261719 41.61621475219727 C 180.8102874755859 41.61621475219727 184.8200531005859 41.61621475219727 184.8200531005859 41.61621475219727 L 168.7748718261719 41.61621475219727 Z" stroke="none" fill="#fff"/>
    </g>
    <text id="Clientes_y_usuarios_" data-name="Clientes y usuarios
" transform="translate(536.408 1621.176)" fill="#fff" font-size="17" font-family="Roboto-Regular, Roboto"><tspan x="-71.291" y="0">Clientes y usuarios</tspan><tspan x="0" y="27"></tspan></text>
    <line id="Línea_414" data-name="Línea 414" y1="173.146" transform="translate(625.728 1489.201)" fill="none" stroke="#090101" stroke-width="2"/>
    <g id="Trazado_225621" data-name="Trazado 225621" transform="translate(500.408 1651.324)" fill="#1f2041">
      <path d="M 137.8950500488281 61.96582412719727 L 135.8300476074219 61.96582412719727 L 1.000003457069397 61.96582412719727 L 1.000003457069397 0.9999971389770508 L 137.8950500488281 0.9999971389770508 L 137.8950500488281 61.96582412719727 Z" stroke="none"/>
      <path d="M 2 2 L 2 60.9658203125 L 136.8950500488281 60.9658203125 L 136.8950500488281 2 L 2 2 M 0 0 L 138.8950500488281 0 L 138.8950500488281 62.9658203125 C 137.9365997314453 62.9658203125 136.9151763916016 62.9658203125 135.8300476074219 62.9658203125 C 101.1062774658203 62.9658203125 0 62.9658203125 0 62.9658203125 L 0 0 Z M 138.8950500488281 62.9658203125 C 148.7997283935547 62.9658203125 152.099609375 62.9658203125 152.099609375 62.9658203125 L 138.8950500488281 62.9658203125 Z" stroke="none" fill="#fff"/>
    </g>
    <text id="Proveedores_y_contratistas_" data-name="Proveedores y
contratistas
" transform="translate(568.228 1676.715)" fill="#fff" font-size="17" font-family="Roboto-Regular, Roboto"><tspan x="-53.594" y="0">Proveedores y</tspan><tspan x="-45.102" y="27">contratistas</tspan><tspan x="0" y="54"></tspan></text>
    <line id="Línea_415" data-name="Línea 415" x1="114.5" transform="translate(511.228 1489.763)" fill="none" stroke="#090101" stroke-width="2"/>
    <g id="Trazado_225622" data-name="Trazado 225622" transform="translate(406.228 1481.867)" fill="#ffd947">
      <path d="M 103.179328918457 37.71582794189453 L 101.8804016113281 37.71582794189453 L 0.9999992847442627 37.71582794189453 L 0.9999992847442627 0.9999935030937195 L 103.179328918457 0.9999935030937195 L 103.179328918457 37.71582794189453 Z" stroke="none"/>
      <path d="M 2 2 L 2 36.7158203125 L 102.1793212890625 36.7158203125 L 102.1793212890625 2 L 2 2 M 0 0 L 104.1793212890625 0 L 104.1793212890625 38.7158203125 C 103.4604263305664 38.7158203125 102.6942977905273 38.7158203125 101.8804016113281 38.7158203125 C 75.83555603027344 38.7158203125 0 38.7158203125 0 38.7158203125 L 0 0 Z M 104.1793212890625 38.7158203125 C 111.6083984375 38.7158203125 114.0835113525391 38.7158203125 114.0835113525391 38.7158203125 L 104.1793212890625 38.7158203125 Z" stroke="none" fill="#fff"/>
    </g>
    <text id="Económica_" data-name="Económica
" transform="translate(458.674 1506.692)" fill="#12263f" font-size="17" font-family="Roboto-Regular, Roboto"><tspan x="-42.172" y="0">Económica</tspan><tspan x="0" y="27"></tspan></text>
    <line id="Línea_416" data-name="Línea 416" y1="86.633" x2="0.5" transform="translate(264.5 1513.764)" fill="none" stroke="#090101" stroke-width="2"/>
    <g id="Trazado_225623" data-name="Trazado 225623" transform="translate(214.874 1481.867)" fill="#ffd947">
      <path d="M 96.12042236328125 38.71581649780273 L 94.97725677490234 38.71581649780273 L 1.000008106231689 38.71581649780273 L 1.000008106231689 1.000002503395081 L 96.12042236328125 1.000002503395081 L 96.12042236328125 38.71581649780273 Z" stroke="none"/>
      <path d="M 2 1.999992370605469 L 2 37.71582794189453 L 95.12042236328125 37.71582794189453 L 95.12042236328125 1.999992370605469 L 2 1.999992370605469 M 0 -7.62939453125e-06 L 97.12042236328125 -7.62939453125e-06 L 97.12042236328125 39.71582794189453 C 96.45023345947266 39.71582794189453 95.73600769042969 39.71582794189453 94.97724914550781 39.71582794189453 C 70.69715118408203 39.71582794189453 0 39.71582794189453 0 39.71582794189453 L 0 -7.62939453125e-06 Z M 97.12042236328125 39.71582794189453 C 104.0461273193359 39.71582794189453 106.353515625 39.71582794189453 106.353515625 39.71582794189453 L 97.12042236328125 39.71582794189453 Z" stroke="none" fill="#fff"/>
    </g>
    <text id="Ambiental_" data-name="Ambiental
" transform="translate(262.788 1507.928)" fill="#12263f" font-size="17" font-family="Roboto-Regular, Roboto"><tspan x="-38.482" y="0">Ambiental</tspan><tspan x="0" y="27"></tspan></text>
    <g id="Trazado_225624" data-name="Trazado 225624" transform="translate(180 1593.998)" fill="#1f2041">
      <path d="M 145.5251312255859 38.7158203125 L 143.2917785644531 38.7158203125 L 1.000002264976501 38.7158203125 L 1.000002264976501 1.000001072883606 L 145.5251312255859 1.000001072883606 L 145.5251312255859 38.7158203125 Z" stroke="none"/>
      <path d="M 2 2.000003814697266 L 2 37.71581649780273 L 144.525146484375 37.71581649780273 L 144.525146484375 2.000003814697266 L 2 2.000003814697266 M 0 3.814697265625e-06 L 146.525146484375 3.814697265625e-06 L 146.525146484375 39.71581649780273 C 145.5140380859375 39.71581649780273 144.4364929199219 39.71581649780273 143.2917633056641 39.71581649780273 C 106.6604766845703 39.71581649780273 0 39.71581649780273 0 39.71581649780273 L 0 3.814697265625e-06 Z M 146.525146484375 39.71581649780273 C 156.9739227294922 39.71581649780273 160.455078125 39.71581649780273 160.455078125 39.71581649780273 L 146.525146484375 39.71581649780273 Z" stroke="none" fill="#fff"/>
    </g>
    <text id="Medio_ambiente_" data-name="Medio ambiente
" transform="translate(254.186 1619.324)" fill="#fff" font-size="17" font-family="Roboto-Regular, Roboto"><tspan x="-61.11" y="0">Medio ambiente</tspan><tspan x="0" y="27"></tspan></text>
    <line id="Línea_417" data-name="Línea 417" y2="550" transform="translate(580 811.5)" fill="none" stroke="#090101" stroke-width="2"/>
    <line id="Línea_418" data-name="Línea 418" x1="80.092" transform="translate(500.408 1361.929)" fill="none" stroke="#090101" stroke-width="2"/>
    <line id="Línea_419" data-name="Línea 419" y2="81" transform="translate(300.5 811.5)" fill="none" stroke="#090101" stroke-width="2"/>
    <line id="Línea_420" data-name="Línea 420" x1="72" transform="translate(403.5 1079.5)" fill="none" stroke="#090101" stroke-width="2"/>
    <line id="Línea_405-2" data-name="Línea 405" y1="34" transform="translate(835.18 756.721)" fill="none" stroke="#090101" stroke-width="2"/>
    <line id="Línea_406-2" data-name="Línea 406" x1="0.32" y1="106.549" transform="translate(835.076 779.771)" fill="none" stroke="#090101" stroke-width="2"/>
    <line id="Línea_407-2" data-name="Línea 407" y1="42.789" x2="84.972" transform="translate(722.182 816.025)" fill="none" stroke="#090101" stroke-width="2"/>
    <path id="Trazado_222445" data-name="Trazado 222445" d="M0-25.439V-83.477" transform="translate(678.002 977.717)" fill="none" stroke="#090101" stroke-width="2"/>
    <g id="Trazado_222415" data-name="Trazado 222415" transform="translate(598.105 920.809)" fill="#1f2041">
      <path d="M 146.5078887939453 61.93847274780273 L 144.2528228759766 61.93847274780273 L 1.000014662742615 61.93847274780273 L 1.000014662742615 0.9999982714653015 L 146.5078887939453 0.9999982714653015 L 146.5078887939453 61.93847274780273 Z" stroke="none"/>
      <path d="M 1.999984741210938 2 L 1.999984741210938 60.93847274780273 L 145.5079040527344 60.93847274780273 L 145.5079040527344 2 L 1.999984741210938 2 M -1.52587890625e-05 0 L 147.5079040527344 0 L 147.5079040527344 62.93847274780273 C 146.4900054931641 62.93847274780273 145.4052276611328 62.93847274780273 144.2528228759766 62.93847274780273 C 107.375846862793 62.93847274780273 -1.52587890625e-05 62.93847274780273 -1.52587890625e-05 62.93847274780273 L -1.52587890625e-05 0 Z M 147.5079040527344 62.93847274780273 C 158.0267486572266 62.93847274780273 161.53125 62.93847274780273 161.53125 62.93847274780273 L 147.5079040527344 62.93847274780273 Z" stroke="none" fill="#f6f6f6"/>
    </g>
    <g id="Trazado_222416" data-name="Trazado 222416" transform="translate(596.926 1001.67)" fill="#1f2041">
      <path d="M 164.8119506835938 91.37206268310547 L 162.1529388427734 91.37206268310547 L 0.9999971985816956 91.37206268310547 L 0.9999971985816956 1.000008821487427 L 164.8119506835938 1.000008821487427 L 164.8119506835938 91.37206268310547 Z" stroke="none"/>
      <path d="M 2 2.000007629394531 L 2 90.37206268310547 L 163.8119506835938 90.37206268310547 L 163.8119506835938 2.000007629394531 L 2 2.000007629394531 M 0 7.62939453125e-06 L 165.8119506835938 7.62939453125e-06 L 165.8119506835938 92.37206268310547 C 164.6677398681641 92.37206268310547 163.4483489990234 92.37206268310547 162.1529388427734 92.37206268310547 C 120.6999740600586 92.37206268310547 0 92.37206268310547 0 92.37206268310547 L 0 7.62939453125e-06 Z M 165.8119506835938 92.37206268310547 C 177.6360778808594 92.37206268310547 181.575439453125 92.37206268310547 181.575439453125 92.37206268310547 L 165.8119506835938 92.37206268310547 Z" stroke="none" fill="#f6f6f6"/>
    </g>
    <text id="Acopio_etapa_analítica_" data-name="Acopio
(etapa analítica)
" transform="translate(672.002 942.67)" fill="#fff" font-size="17" font-family="Roboto-Regular, Roboto"><tspan x="-26.521" y="0">Acopio</tspan><tspan x="-61.272" y="27">(etapa analítica)</tspan><tspan x="0" y="54"></tspan></text>
    <text id="Producción_etapa_de_síntesis_o_montaje_" data-name="Producción
(etapa de síntesis
o montaje)
" transform="translate(680.002 1025.723)" fill="#fff" font-size="17" font-family="Roboto-Regular, Roboto"><tspan x="-42.981" y="0">Producción</tspan><tspan x="-66.987" y="27">(etapa de síntesis</tspan><tspan x="-40.827" y="54">o montaje)</tspan><tspan x="0" y="81"></tspan></text>
    <line id="Línea_412-2" data-name="Línea 412" y1="42.523" transform="translate(1015.193 883.977)" fill="none" stroke="#090101" stroke-width="2"/>
    <g id="Trazado_222424" data-name="Trazado 222424" transform="translate(931.397 911.881)" fill="#ffd947">
      <path d="M 152.0431976318359 27.38085746765137 L 149.6659851074219 27.38085746765137 L 1.000005602836609 27.38085746765137 L 1.000005602836609 1.000001072883606 L 152.0431976318359 1.000001072883606 L 152.0431976318359 27.38085746765137 Z" stroke="none"/>
      <path d="M 1.999984741210938 2.000003814697266 L 1.999984741210938 26.38085556030273 L 151.0431823730469 26.38085556030273 L 151.0431823730469 2.000003814697266 L 1.999984741210938 2.000003814697266 M -1.52587890625e-05 3.814697265625e-06 L 153.0431823730469 3.814697265625e-06 L 153.0431823730469 28.38085556030273 C 151.9870910644531 28.38085556030273 150.8616027832031 28.38085556030273 149.6659545898438 28.38085556030273 C 111.405158996582 28.38085556030273 -1.52587890625e-05 28.38085556030273 -1.52587890625e-05 28.38085556030273 L -1.52587890625e-05 3.814697265625e-06 Z M 153.0431823730469 28.38085556030273 C 163.9567718505859 28.38085556030273 167.5927734375 28.38085556030273 167.5927734375 28.38085556030273 L 153.0431823730469 28.38085556030273 Z" stroke="none" fill="#fff"/>
    </g>
    <text id="Inicio_del_proceso_" data-name="Inicio del proceso
" transform="translate(1008 932.762)" fill="#12263f" font-size="17" font-family="Roboto-Regular, Roboto"><tspan x="-66.585" y="0">Inicio del proceso</tspan><tspan x="0" y="27"></tspan></text>
    <line id="Línea_415-2" data-name="Línea 415" x1="382" transform="translate(1000.5 1110.5)" fill="none" stroke="#090101" stroke-width="2"/>
    <line id="Línea_416-2" data-name="Línea 416" x1="360" transform="translate(870.5 800)" fill="none" stroke="#090101" stroke-width="2"/>
    <g id="Trazado_225625" data-name="Trazado 225625" transform="translate(623.099 858.814)" fill="#0e8282">
      <path d="M 169.6755065917969 37.22069549560547 L 166.9091949462891 37.22069549560547 L 1.000005722045898 37.22069549560547 L 1.000005722045898 1.000011324882507 L 169.6755065917969 1.000011324882507 L 169.6755065917969 37.22069549560547 Z" stroke="none"/>
      <path d="M 2 1.999992370605469 L 2 36.2207145690918 L 168.6754760742188 36.2207145690918 L 168.6754760742188 1.999992370605469 L 2 1.999992370605469 M 0 -7.62939453125e-06 L 170.6754760742188 -7.62939453125e-06 L 170.6754760742188 38.2207145690918 C 169.4977111816406 38.2207145690918 168.2425994873047 38.2207145690918 166.9091949462891 38.2207145690918 C 124.2403106689453 38.2207145690918 0 38.2207145690918 0 38.2207145690918 L 0 -7.62939453125e-06 Z M 170.6754760742188 38.2207145690918 C 182.8464202880859 38.2207145690918 186.9013671875 38.2207145690918 186.9013671875 38.2207145690918 L 170.6754760742188 38.2207145690918 Z" stroke="none" fill="#f6f6f6"/>
    </g>
    <text id="Etapas_del_proceso_" data-name="Etapas del proceso
" transform="translate(713 883.762)" fill="#fff" font-size="17" font-family="Roboto-Regular, Roboto"><tspan x="-72.167" y="0">Etapas del proceso</tspan><tspan x="0" y="27"></tspan></text>
    <path id="Trazado_225626" data-name="Trazado 225626" d="M0,22.486V-83.477" transform="translate(752.002 979.184)" fill="none" stroke="#090101" stroke-width="2"/>
    <path id="Trazado_225627" data-name="Trazado 225627" d="M0,130.251V-83.477" transform="translate(778.502 979.184)" fill="none" stroke="#090101" stroke-width="2"/>
    <g id="Trazado_225628" data-name="Trazado 225628" transform="translate(615.721 1101.883)" fill="#1f2041">
      <path d="M 171.8471984863281 92.2109375 L 169.0329742431641 92.2109375 L 1.000001907348633 92.2109375 L 1.000001907348633 0.999996542930603 L 171.8471984863281 0.999996542930603 L 171.8471984863281 92.2109375 Z" stroke="none"/>
      <path d="M 2 2 L 2 91.2109375 L 170.8471984863281 91.2109375 L 170.8471984863281 2 L 2 2 M 0 0 L 172.8471984863281 0 L 172.8471984863281 93.2109375 C 171.6544494628906 93.2109375 170.3833465576172 93.2109375 169.0329742431641 93.2109375 C 125.8211669921875 93.2109375 0 93.2109375 0 93.2109375 L 0 0 Z M 172.8471984863281 93.2109375 C 185.1730194091797 93.2109375 189.279541015625 93.2109375 189.279541015625 93.2109375 L 172.8471984863281 93.2109375 Z" stroke="none" fill="#fff"/>
    </g>
    <text id="Procesamiento_etapa_de_acondicionamiento_" data-name="Procesamiento
(etapa de
acondicionamiento)
" transform="translate(702.926 1125.779)" fill="#fff" font-size="17" font-family="Roboto-Regular, Roboto"><tspan x="-57.209" y="0">Procesamiento</tspan><tspan x="-35.602" y="27">(etapa de</tspan><tspan x="-75.342" y="54">acondicionamiento)</tspan><tspan x="0" y="81"></tspan></text>
    <line id="Línea_421" data-name="Línea 421" y1="37.238" transform="translate(810 893.262)" fill="none" stroke="#090101" stroke-width="2"/>
    <line id="Línea_422" data-name="Línea 422" x1="20.243" y1="0.181" transform="translate(907.258 886.319)" fill="none" stroke="#090101" stroke-width="2"/>
    <g id="Trazado_222420" data-name="Trazado 222420" transform="translate(790 919.225)" fill="#1f2041">
      <path d="M 76.29743957519531 28.57617378234863 L 75.59171295166016 28.57617378234863 L 1.000000834465027 28.57617378234863 L 1.000000834465027 0.9999984502792358 L 76.29743957519531 0.9999984502792358 L 76.29743957519531 28.57617378234863 Z" stroke="none"/>
      <path d="M 1.999992370605469 2 L 1.999992370605469 27.576171875 L 75.29743957519531 27.576171875 L 75.29743957519531 2 L 1.999992370605469 2 M -7.62939453125e-06 0 L 77.29743957519531 0 L 77.29743957519531 29.576171875 C 76.7640380859375 29.576171875 76.19559478759766 29.576171875 75.59170532226562 29.576171875 C 56.26735305786133 29.576171875 -7.62939453125e-06 29.576171875 -7.62939453125e-06 29.576171875 L -7.62939453125e-06 0 Z M 77.29743957519531 29.576171875 C 82.80955505371094 29.576171875 84.64599609375 29.576171875 84.64599609375 29.576171875 L 77.29743957519531 29.576171875 Z" stroke="none" fill="#fff"/>
    </g>
    <g id="Trazado_222421" data-name="Trazado 222421" transform="translate(797.961 948.801)" fill="#1f2041">
      <path d="M 90.29174041748047 27.6777286529541 L 89.27719879150391 27.6777286529541 L 1.000002503395081 27.6777286529541 L 1.000002503395081 1.000005602836609 L 90.29174041748047 1.000005602836609 L 90.29174041748047 27.6777286529541 Z" stroke="none"/>
      <path d="M 2 2 L 2 26.677734375 L 89.29173278808594 26.677734375 L 89.29173278808594 2 L 2 2 M 0 0 L 91.29173278808594 0 L 91.29173278808594 28.677734375 C 90.66176605224609 28.677734375 89.99041748046875 28.677734375 89.27719879150391 28.677734375 C 66.45426940917969 28.677734375 0 28.677734375 0 28.677734375 L 0 0 Z M 91.29173278808594 28.677734375 C 97.80178833007812 28.677734375 99.97071075439453 28.677734375 99.97071075439453 28.677734375 L 91.29173278808594 28.677734375 Z" stroke="none" fill="#fff"/>
    </g>
    <text id="Artesanal_" data-name="Artesanal
" transform="translate(843.567 969.979)" fill="#fff" font-size="17" font-family="Roboto-Regular, Roboto"><tspan x="-36.291" y="0">Artesanal</tspan><tspan x="0" y="27"></tspan></text>
    <g id="Trazado_222422" data-name="Trazado 222422" transform="translate(790.555 979.995)" fill="#1f2041">
      <path d="M 124.0138168334961 27.72754859924316 L 122.2551193237305 27.72754859924316 L 1.00000011920929 27.72754859924316 L 1.00000011920929 1.000009536743164 L 124.0138168334961 1.000009536743164 L 124.0138168334961 27.72754859924316 Z" stroke="none"/>
      <path d="M 1.999984741210938 1.999998092651367 L 1.999984741210938 26.72754096984863 L 123.0138244628906 26.72754096984863 L 123.0138244628906 1.999998092651367 L 1.999984741210938 1.999998092651367 M -1.52587890625e-05 -1.9073486328125e-06 L 125.0138244628906 -1.9073486328125e-06 L 125.0138244628906 28.72754096984863 C 124.1511535644531 28.72754096984863 123.2317810058594 28.72754096984863 122.2551116943359 28.72754096984863 C 91.00165557861328 28.72754096984863 -1.52587890625e-05 28.72754096984863 -1.52587890625e-05 28.72754096984863 L -1.52587890625e-05 -1.9073486328125e-06 Z M 125.0138244628906 28.72754096984863 C 133.9286193847656 28.72754096984863 136.898681640625 28.72754096984863 136.898681640625 28.72754096984863 L 125.0138244628906 28.72754096984863 Z" stroke="none" fill="#fff"/>
    </g>
    <text id="Por_lote_" data-name="Por lote
" transform="translate(828.682 941.301)" fill="#fff" font-size="17" font-family="Roboto-Regular, Roboto"><tspan x="-29.327" y="0">Por lote</tspan><tspan x="0" y="27"></tspan></text>
    <line id="Línea_423" data-name="Línea 423" y1="52.793" transform="translate(873 895.707)" fill="none" stroke="#090101" stroke-width="2"/>
    <text id="Por_proyectos_" data-name="Por proyectos
" transform="translate(853.682 1000.17)" fill="#fff" font-size="17" font-family="Roboto-Regular, Roboto"><tspan x="-52.444" y="0">Por proyectos</tspan><tspan x="0" y="15"></tspan></text>
    <line id="Línea_424" data-name="Línea 424" x1="0.5" y1="85.26" transform="translate(895 894.24)" fill="none" stroke="#090101" stroke-width="2"/>
    <g id="Trazado_225629" data-name="Trazado 225629" transform="translate(796.607 858.814)" fill="#0e8282">
      <path d="M 117.6221771240234 35.89257049560547 L 116.0045394897461 35.89257049560547 L 1 35.89257049560547 L 1 1.000009059906006 L 117.6221771240234 1.000009059906006 L 117.6221771240234 35.89257049560547 Z" stroke="none"/>
      <path d="M 2 2.000007629394531 L 2 34.89257049560547 L 116.6221771240234 34.89257049560547 L 116.6221771240234 2.000007629394531 L 2 2.000007629394531 M 0 7.62939453125e-06 L 118.6221771240234 7.62939453125e-06 L 118.6221771240234 36.89257049560547 C 117.8036193847656 36.89257049560547 116.9312744140625 36.89257049560547 116.0045394897461 36.89257049560547 C 86.3489990234375 36.89257049560547 0 36.89257049560547 0 36.89257049560547 L 0 7.62939453125e-06 Z M 118.6221771240234 36.89257049560547 C 127.081184387207 36.89257049560547 129.8994140625 36.89257049560547 129.8994140625 36.89257049560547 L 118.6221771240234 36.89257049560547 Z" stroke="none" fill="#f6f6f6"/>
    </g>
    <text id="Clasificación_" data-name="Clasificación
" transform="translate(857.002 883.762)" fill="#fff" font-size="17" font-family="Roboto-Regular, Roboto"><tspan x="-48.493" y="0">Clasificación</tspan><tspan x="0" y="27"></tspan></text>
    <line id="Línea_425" data-name="Línea 425" y2="129" transform="translate(927.5 886.5)" fill="none" stroke="#090101" stroke-width="2"/>
    <line id="Línea_426" data-name="Línea 426" x1="20.243" y1="0.181" transform="translate(908.258 1016.319)" fill="none" stroke="#090101" stroke-width="2"/>
    <g id="Trazado_222423" data-name="Trazado 222423" transform="translate(847.945 1009.614)" fill="#1f2041">
      <path d="M 75.20724487304688 25.1083984375 L 74.52556610107422 25.1083984375 L 1.000005006790161 25.1083984375 L 1.000005006790161 0.9999992251396179 L 75.20724487304688 0.9999992251396179 L 75.20724487304688 25.1083984375 Z" stroke="none"/>
      <path d="M 2 2 L 2 24.1083984375 L 74.20723724365234 24.1083984375 L 74.20723724365234 2 L 2 2 M 0 0 L 76.20723724365234 0 L 76.20723724365234 26.1083984375 C 75.68136596679688 26.1083984375 75.12092590332031 26.1083984375 74.52555847167969 26.1083984375 C 55.47375869750977 26.1083984375 0 26.1083984375 0 26.1083984375 L 0 0 Z M 76.20723724365234 26.1083984375 C 81.64161682128906 26.1083984375 83.4521484375 26.1083984375 83.4521484375 26.1083984375 L 76.20723724365234 26.1083984375 Z" stroke="none" fill="#fff"/>
    </g>
    <text id="En_serie_" data-name="En serie
" transform="translate(886.494 1028.223)" fill="#fff" font-size="17" font-family="Roboto-Regular, Roboto"><tspan x="-29.953" y="0">En serie</tspan><tspan x="0" y="27"></tspan></text>
    <line id="Línea_427" data-name="Línea 427" x1="112.028" y1="56.169" transform="translate(860.473 808.331)" fill="none" stroke="#090101" stroke-width="2"/>
    <g id="Elipse_4753" data-name="Elipse 4753" transform="translate(767.18 779.721)" fill="#1eb8b8" stroke="#fff" stroke-width="2">
      <ellipse cx="63.91" cy="25" rx="63.91" ry="25" stroke="none"/>
      <ellipse cx="63.91" cy="25" rx="62.91" ry="24" fill="none"/>
    </g>
    <text id="Involucra_" data-name="Involucra
" transform="translate(829.18 809.721)" fill="#fff" font-size="17" font-family="Roboto-Regular, Roboto"><tspan x="-34.436" y="0">Involucra</tspan><tspan x="0" y="26"></tspan></text>
    <line id="Línea_428" data-name="Línea 428" y2="22" transform="translate(980.5 936.5)" fill="none" stroke="#090101" stroke-width="2"/>
    <line id="Línea_429" data-name="Línea 429" y2="50.699" transform="translate(1057.5 937.801)" fill="none" stroke="#090101" stroke-width="2"/>
    <g id="Trazado_225631" data-name="Trazado 225631" transform="translate(954 986.247)" fill="#1f2041">
      <path d="M 144.5279235839844 60.60840606689453 L 142.3165588378906 60.60840606689453 L 1.000008463859558 60.60840606689453 L 1.000008463859558 0.9999966025352478 L 144.5279235839844 0.9999966025352478 L 144.5279235839844 60.60840606689453 Z" stroke="none"/>
      <path d="M 2 1.999988555908203 L 2 59.60839080810547 L 143.5279235839844 59.60839080810547 L 143.5279235839844 1.999988555908203 L 2 1.999988555908203 M 0 -1.1444091796875e-05 L 145.5279235839844 -1.1444091796875e-05 L 145.5279235839844 61.60839080810547 C 144.5236968994141 61.60839080810547 143.4534759521484 61.60839080810547 142.3165435791016 61.60839080810547 C 105.9345703125 61.60839080810547 0 61.60839080810547 0 61.60839080810547 L 0 -1.1444091796875e-05 Z M 145.5279235839844 61.60839080810547 C 155.9055938720703 61.60839080810547 159.3630523681641 61.60839080810547 159.3630523681641 61.60839080810547 L 145.5279235839844 61.60839080810547 Z" stroke="none" fill="#fff"/>
    </g>
    <text id="Asignación_de_materias_primas_" data-name="Asignación de
materias primas
" transform="translate(1027 1008.359)" fill="#fff" font-size="17" font-family="Roboto-Regular, Roboto"><tspan x="-53.523" y="0">Asignación de</tspan><tspan x="-61.567" y="27">materias primas</tspan><tspan x="0" y="54"></tspan></text>
    <g id="Trazado_225632" data-name="Trazado 225632" transform="translate(931.397 955.532)" fill="#1f2041">
      <path d="M 106.4383392333984 26.63770294189453 L 105.0674819946289 26.63770294189453 L 0.9999936819076538 26.63770294189453 L 0.9999936819076538 0.9999930858612061 L 106.4383392333984 0.9999930858612061 L 106.4383392333984 26.63770294189453 Z" stroke="none"/>
      <path d="M 2 1.999992370605469 L 2 25.63770294189453 L 105.4383392333984 25.63770294189453 L 105.4383392333984 1.999992370605469 L 2 1.999992370605469 M 0 -7.62939453125e-06 L 107.4383392333984 -7.62939453125e-06 L 107.4383392333984 27.63770294189453 C 106.6969528198242 27.63770294189453 105.9068450927734 27.63770294189453 105.0674819946289 27.63770294189453 C 78.20790100097656 27.63770294189453 0 27.63770294189453 0 27.63770294189453 L 0 -7.62939453125e-06 Z M 107.4383392333984 27.63770294189453 C 115.0998229980469 27.63770294189453 117.6523513793945 27.63770294189453 117.6523513793945 27.63770294189453 L 107.4383392333984 27.63770294189453 Z" stroke="none" fill="#fff"/>
    </g>
    <text id="Planeación_" data-name="Planeación
" transform="translate(985.346 975.67)" fill="#fff" font-size="17" font-family="Roboto-Regular, Roboto"><tspan x="-41.915" y="0">Planeación</tspan><tspan x="0" y="27"></tspan></text>
    <line id="Línea_430" data-name="Línea 430" x2="0.5" y2="61.938" transform="translate(1115 889.563)" fill="none" stroke="#090101" stroke-width="2"/>
    <g id="Trazado_225633" data-name="Trazado 225633" transform="translate(1088.082 911.881)" fill="#ffd947">
      <path d="M 117.4959869384766 26.8837947845459 L 115.8811264038086 26.8837947845459 L 1.000003457069397 26.8837947845459 L 1.000003457069397 0.9999954700469971 L 117.4959869384766 0.9999954700469971 L 117.4959869384766 26.8837947845459 Z" stroke="none"/>
      <path d="M 2 1.999996185302734 L 2 25.8837947845459 L 116.4959869384766 25.8837947845459 L 116.4959869384766 1.999996185302734 L 2 1.999996185302734 M 0 -3.814697265625e-06 L 118.4959869384766 -3.814697265625e-06 L 118.4959869384766 27.8837947845459 C 117.6782913208008 27.8837947845459 116.8068695068359 27.8837947845459 115.8811187744141 27.8837947845459 C 86.25712585449219 27.8837947845459 0 27.8837947845459 0 27.8837947845459 L 0 -3.814697265625e-06 Z M 118.4959869384766 27.8837947845459 C 126.9459915161133 27.8837947845459 129.76123046875 27.8837947845459 129.76123046875 27.8837947845459 L 118.4959869384766 27.8837947845459 Z" stroke="none" fill="#fff"/>
    </g>
    <text id="Producto_final_" data-name="Producto final
" transform="translate(1148 932.765)" fill="#12263f" font-size="17" font-family="Roboto-Regular, Roboto"><tspan x="-52.66" y="0">Producto final</tspan><tspan x="0" y="26"></tspan></text>
    <g id="Trazado_225634" data-name="Trazado 225634" transform="translate(1105 947.5)" fill="#1f2041">
      <path d="M 104.1562728881836 61.96582794189453 L 102.8357925415039 61.96582794189453 L 1.000007033348083 61.96582794189453 L 1.000007033348083 0.9999935030937195 L 104.1562728881836 0.9999935030937195 L 104.1562728881836 61.96582794189453 Z" stroke="none"/>
      <path d="M 2.000007629394531 2 L 2.000007629394531 60.9658203125 L 103.1562576293945 60.9658203125 L 103.1562576293945 2 L 2.000007629394531 2 M 0 0 L 105.1562576293945 0 L 105.1562576293945 62.9658203125 C 104.4306182861328 62.9658203125 103.6573181152344 62.9658203125 102.8357849121094 62.9658203125 C 76.54671478271484 62.9658203125 0 62.9658203125 0 62.9658203125 L 0 0 Z M 105.1562576293945 62.9658203125 C 112.6549987792969 62.9658203125 115.1533203125 62.9658203125 115.1533203125 62.9658203125 L 105.1562576293945 62.9658203125 Z" stroke="none" fill="#fff"/>
    </g>
    <text id="Beneficio_económico_" data-name="Beneficio
económico
" transform="translate(1157.473 972.094)" fill="#fff" font-size="17" font-family="Roboto-Regular, Roboto"><tspan x="-35.054" y="0">Beneficio</tspan><tspan x="-42.147" y="27">económico</tspan><tspan x="0" y="54"></tspan></text>
    <g id="Trazado_225635" data-name="Trazado 225635" transform="translate(931.397 861.093)" fill="#0e8282">
      <path d="M 189.1992797851562 32.14746475219727 L 186.0021667480469 32.14746475219727 L 1.000015139579773 32.14746475219727 L 1.000015139579773 0.9999951720237732 L 189.1992797851562 0.9999951720237732 L 189.1992797851562 32.14746475219727 Z" stroke="none"/>
      <path d="M 1.999984741210938 2.000011444091797 L 1.999984741210938 31.1474494934082 L 188.1992645263672 31.1474494934082 L 188.1992645263672 2.000011444091797 L 1.999984741210938 2.000011444091797 M -1.52587890625e-05 1.1444091796875e-05 L 190.1992645263672 1.1444091796875e-05 L 190.1992645263672 33.1474494934082 C 188.8867797851562 33.1474494934082 187.4880676269531 33.1474494934082 186.0021362304688 33.1474494934082 C 138.4523315429688 33.1474494934082 -1.52587890625e-05 33.1474494934082 -1.52587890625e-05 33.1474494934082 L -1.52587890625e-05 1.1444091796875e-05 Z M 190.1992645263672 33.1474494934082 C 203.7624664306641 33.1474494934082 208.28125 33.1474494934082 208.28125 33.1474494934082 L 190.1992645263672 33.1474494934082 Z" stroke="none" fill="#fff"/>
    </g>
    <text id="Ciclos_de_producción_" data-name="Ciclos de producción
" transform="translate(1026 883.262)" fill="#fff" font-size="17" font-family="Roboto-Regular, Roboto"><tspan x="-79.231" y="0">Ciclos de producción</tspan><tspan x="0" y="29"></tspan></text>
    <line id="Línea_431" data-name="Línea 431" y1="72.045" transform="translate(919 1128.574)" fill="none" stroke="#090101" stroke-width="2"/>
    <g id="Trazado_225637" data-name="Trazado 225637" transform="translate(805.176 1150.457)" fill="#ffd947">
      <path d="M 125.7819900512695 21.36915016174316 L 123.9842910766602 21.36915016174316 L 1.000009536743164 21.36915016174316 L 1.000009536743164 1.000010371208191 L 125.7819900512695 1.000010371208191 L 125.7819900512695 21.36915016174316 Z" stroke="none"/>
      <path d="M 2 2.000007629394531 L 2 20.36913299560547 L 124.7819976806641 20.36913299560547 L 124.7819976806641 2.000007629394531 L 2 2.000007629394531 M 0 7.62939453125e-06 L 126.7819976806641 7.62939453125e-06 L 126.7819976806641 22.36913299560547 C 125.9071273803711 22.36913299560547 124.9747695922852 22.36913299560547 123.9842834472656 22.36913299560547 C 92.28878784179688 22.36913299560547 0 22.36913299560547 0 22.36913299560547 L 0 7.62939453125e-06 Z M 126.7819976806641 22.36913299560547 C 135.8228759765625 22.36913299560547 138.8349761962891 22.36913299560547 138.8349761962891 22.36913299560547 L 126.7819976806641 22.36913299560547 Z" stroke="none" fill="#fff"/>
    </g>
    <g id="Trazado_225638" data-name="Trazado 225638" transform="translate(801.307 1183.789)" fill="#1f2041">
      <path d="M 151.0822906494141 25.42967796325684 L 148.7262573242188 25.42967796325684 L 0.9999997615814209 25.42967796325684 L 0.9999997615814209 1.000010371208191 L 151.0822906494141 1.000010371208191 L 151.0822906494141 25.42967796325684 Z" stroke="none"/>
      <path d="M 2 1.999994277954102 L 2 24.4296932220459 L 150.082275390625 24.4296932220459 L 150.082275390625 1.999994277954102 L 2 1.999994277954102 M 0 -5.7220458984375e-06 L 152.082275390625 -5.7220458984375e-06 L 152.082275390625 26.4296932220459 C 151.0328216552734 26.4296932220459 149.9143981933594 26.4296932220459 148.7262573242188 26.4296932220459 C 110.7057037353516 26.4296932220459 0 26.4296932220459 0 26.4296932220459 L 0 -5.7220458984375e-06 Z M 152.082275390625 26.4296932220459 C 162.9273376464844 26.4296932220459 166.54052734375 26.4296932220459 166.54052734375 26.4296932220459 L 152.082275390625 26.4296932220459 Z" stroke="none" fill="#fff"/>
    </g>
    <text id="Definir_proceso_" data-name="Definir proceso
" transform="translate(869 1168.061)" fill="#12263f" font-size="17" font-family="Roboto-Regular, Roboto"><tspan x="-57.109" y="0">Definir proceso</tspan><tspan x="0" y="26"></tspan></text>
    <text id="Entradas_y_salidas_" data-name="Entradas y salidas
" transform="translate(877.463 1204.154)" fill="#fff" font-size="17" font-family="Roboto-Regular, Roboto"><tspan x="-68.594" y="0">Entradas y salidas</tspan><tspan x="0" y="27"></tspan></text>
    <line id="Línea_432" data-name="Línea 432" y2="260.5" transform="translate(1230.5 800)" fill="none" stroke="#090101" stroke-width="2"/>
    <line id="Línea_433" data-name="Línea 433" x2="262.5" transform="translate(967.5 1060.223)" fill="none" stroke="#090101" stroke-width="2"/>
    <line id="Línea_434" data-name="Línea 434" y1="72.045" transform="translate(1000 1126.016)" fill="none" stroke="#090101" stroke-width="2"/>
    <g id="Trazado_225640" data-name="Trazado 225640" transform="translate(943.66 1150.457)" fill="#ffd947">
      <path d="M 100.4223861694336 21.36913681030273 L 99.18428802490234 21.36913681030273 L 1.000002264976501 21.36913681030273 L 1.000002264976501 1.000003695487976 L 100.4223861694336 1.000003695487976 L 100.4223861694336 21.36913681030273 Z" stroke="none"/>
      <path d="M 1.999992370605469 2.000007629394531 L 1.999992370605469 20.36913299560547 L 99.42237091064453 20.36913299560547 L 99.42237091064453 2.000007629394531 L 1.999992370605469 2.000007629394531 M -7.62939453125e-06 7.62939453125e-06 L 101.4223709106445 7.62939453125e-06 L 101.4223709106445 22.36913299560547 C 100.7225036621094 22.36913299560547 99.97663879394531 22.36913299560547 99.18428039550781 22.36913299560547 C 73.82868194580078 22.36913299560547 -7.62939453125e-06 22.36913299560547 -7.62939453125e-06 22.36913299560547 L -7.62939453125e-06 7.62939453125e-06 Z M 101.4223709106445 22.36913299560547 C 108.6548461914062 22.36913299560547 111.0644454956055 22.36913299560547 111.0644454956055 22.36913299560547 L 101.4223709106445 22.36913299560547 Z" stroke="none" fill="#fff"/>
    </g>
    <text id="Tipificación_" data-name="Tipificación

" transform="translate(994.938 1168.061)" fill="#12263f" font-size="17" font-family="Roboto-Regular, Roboto"><tspan x="-43.795" y="0">Tipificación</tspan><tspan x="0" y="27"></tspan><tspan x="0" y="54"></tspan></text>
    <g id="Trazado_225641" data-name="Trazado 225641" transform="translate(957 1183.789)" fill="#1f2041">
      <path d="M 157.3862762451172 26.86524391174316 L 154.8911743164062 26.86524391174316 L 0.9999985694885254 26.86524391174316 L 0.9999985694885254 0.9999931454658508 L 157.3862762451172 0.9999931454658508 L 157.3862762451172 26.86524391174316 Z" stroke="none"/>
      <path d="M 2 1.99998664855957 L 2 25.8652229309082 L 156.3862609863281 25.8652229309082 L 156.3862609863281 1.99998664855957 L 2 1.99998664855957 M 0 -1.33514404296875e-05 L 158.3862609863281 -1.33514404296875e-05 L 158.3862609863281 27.8652229309082 C 157.2933044433594 27.8652229309082 156.1285552978516 27.8652229309082 154.8911590576172 27.8652229309082 C 115.2946090698242 27.8652229309082 0 27.8652229309082 0 27.8652229309082 L 0 -1.33514404296875e-05 Z M 158.3862609863281 27.8652229309082 C 169.6808776855469 27.8652229309082 173.4438323974609 27.8652229309082 173.4438323974609 27.8652229309082 L 158.3862609863281 27.8652229309082 Z" stroke="none" fill="#fff"/>
    </g>
    <text id="Mapa_de_procesos_" data-name="Mapa de procesos

" transform="translate(1037 1203.879)" fill="#fff" font-size="17" font-family="Roboto-Regular, Roboto"><tspan x="-69.917" y="0">Mapa de procesos</tspan><tspan x="0" y="27"></tspan><tspan x="0" y="54"></tspan></text>
    <line id="Línea_435" data-name="Línea 435" y1="72.045" transform="translate(967.847 1060.223)" fill="none" stroke="#090101" stroke-width="2"/>
    <g id="Trazado_225643" data-name="Trazado 225643" transform="translate(910.338 1090.404)" fill="#0e8282">
      <path d="M 108.1336059570312 51.4189453125 L 106.7253494262695 51.4189453125 L 1.000005125999451 51.4189453125 L 1.000005125999451 0.9999999403953552 L 108.1336059570312 0.9999999403953552 L 108.1336059570312 51.4189453125 Z" stroke="none"/>
      <path d="M 2 2 L 2 50.4189453125 L 107.1336059570312 50.4189453125 L 107.1336059570312 2 L 2 2 M 0 0 L 109.1336059570312 0 L 109.1336059570312 52.4189453125 C 108.3805236816406 52.4189453125 107.5779571533203 52.4189453125 106.7253494262695 52.4189453125 C 79.44195556640625 52.4189453125 0 52.4189453125 0 52.4189453125 L 0 0 Z M 109.1336059570312 52.4189453125 C 116.9159774780273 52.4189453125 119.5087890625 52.4189453125 119.5087890625 52.4189453125 L 109.1336059570312 52.4189453125 Z" stroke="none" fill="#fff"/>
    </g>
    <text id="Gestión_de_los_procesos_" data-name="Gestión de
los procesos
" transform="translate(967.847 1110.074)" fill="#fff" font-size="17" font-family="Roboto-Regular, Roboto"><tspan x="-40.454" y="0">Gestión de</tspan><tspan x="-48.373" y="24">los procesos</tspan><tspan x="0" y="48"></tspan></text>
    <line id="Línea_436" data-name="Línea 436" y1="50" transform="translate(1105.5 1110.5)" fill="none" stroke="#090101" stroke-width="2"/>
    <g id="Trazado_225644" data-name="Trazado 225644" transform="translate(1049.01 1150.457)" fill="#ffd947">
      <path d="M 167.6315307617188 21.36915016174316 L 164.9103393554688 21.36915016174316 L 0.999998152256012 21.36915016174316 L 0.999998152256012 0.999992311000824 L 167.6315307617188 0.999992311000824 L 167.6315307617188 21.36915016174316 Z" stroke="none"/>
      <path d="M 1.999984741210938 1.999988555908203 L 1.999984741210938 20.36915397644043 L 166.6315155029297 20.36915397644043 L 166.6315155029297 1.999988555908203 L 1.999984741210938 1.999988555908203 M -1.52587890625e-05 -1.1444091796875e-05 L 168.6315155029297 -1.1444091796875e-05 L 168.6315155029297 22.36915397644043 C 167.4678649902344 22.36915397644043 166.2277526855469 22.36915397644043 164.9103240966797 22.36915397644043 C 122.7524642944336 22.36915397644043 -1.52587890625e-05 22.36915397644043 -1.52587890625e-05 22.36915397644043 L -1.52587890625e-05 -1.1444091796875e-05 Z M 168.6315155029297 22.36915397644043 C 180.6567077636719 22.36915397644043 184.6630859375 22.36915397644043 184.6630859375 22.36915397644043 L 168.6315155029297 22.36915397644043 Z" stroke="none" fill="#fff"/>
    </g>
    <text id="Supervisión_y_mejora_" data-name="Supervisión y mejora
" transform="translate(1134.01 1168.061)" fill="#12263f" font-size="17" font-family="Roboto-Regular, Roboto"><tspan x="-78.509" y="0">Supervisión y mejora</tspan><tspan x="0" y="27"></tspan></text>
    <line id="Línea_437" data-name="Línea 437" y1="77" x2="1" transform="translate(1252.5 1110.5)" fill="none" stroke="#090101" stroke-width="2"/>
    <g id="Trazado_225645" data-name="Trazado 225645" transform="translate(1220.164 1150.457)" fill="#ffd947">
      <path d="M 150.1713409423828 21.36914253234863 L 147.83544921875 21.36914253234863 L 1.000013589859009 21.36914253234863 L 1.000013589859009 0.9999988675117493 L 150.1713409423828 0.9999988675117493 L 150.1713409423828 21.36914253234863 Z" stroke="none"/>
      <path d="M 2.000015258789062 1.999996185302734 L 2.000015258789062 20.36914443969727 L 149.1713256835938 20.36914443969727 L 149.1713256835938 1.999996185302734 L 2.000015258789062 1.999996185302734 M 1.52587890625e-05 -3.814697265625e-06 L 151.1713256835938 -3.814697265625e-06 L 151.1713256835938 22.36914443969727 C 150.1281585693359 22.36914443969727 149.0164489746094 22.36914443969727 147.8354339599609 22.36914443969727 C 110.0425796508789 22.36914443969727 1.52587890625e-05 22.36914443969727 1.52587890625e-05 22.36914443969727 L 1.52587890625e-05 -3.814697265625e-06 Z M 151.1713256835938 22.36914443969727 C 161.9514312744141 22.36914443969727 165.54296875 22.36914443969727 165.54296875 22.36914443969727 L 151.1713256835938 22.36914443969727 Z" stroke="none" fill="#fff"/>
    </g>
    <text id="Identificar_proceso_" data-name="Identificar proceso
" transform="translate(1294.936 1168.061)" fill="#12263f" font-size="17" font-family="Roboto-Regular, Roboto"><tspan x="-70.49" y="0">Identificar proceso</tspan><tspan x="0" y="27"></tspan></text>
    <g id="Trazado_225647" data-name="Trazado 225647" transform="translate(1220.164 1183.789)" fill="#1f2041">
      <path d="M 150.1713104248047 26.86523628234863 L 147.8354034423828 26.86523628234863 L 1.000005960464478 26.86523628234863 L 1.000005960464478 0.9999991059303284 L 150.1713104248047 0.9999991059303284 L 150.1713104248047 26.86523628234863 Z" stroke="none"/>
      <path d="M 2 1.999992370605469 L 2 25.86524391174316 L 149.1712951660156 25.86524391174316 L 149.1712951660156 1.999992370605469 L 2 1.999992370605469 M 0 -7.62939453125e-06 L 151.1712951660156 -7.62939453125e-06 L 151.1712951660156 27.86524391174316 C 150.1281280517578 27.86524391174316 149.0164489746094 27.86524391174316 147.8354187011719 27.86524391174316 C 110.0425720214844 27.86524391174316 0 27.86524391174316 0 27.86524391174316 L 0 -7.62939453125e-06 Z M 151.1712951660156 27.86524391174316 C 161.9514007568359 27.86524391174316 165.5429534912109 27.86524391174316 165.5429534912109 27.86524391174316 L 151.1712951660156 27.86524391174316 Z" stroke="none" fill="#fff"/>
    </g>
    <text id="Diagrama_de_flujo_" data-name="Diagrama de flujo
" transform="translate(1297 1204.154)" fill="#fff" font-size="17" font-family="Roboto-Regular, Roboto"><tspan x="-66.332" y="0">Diagrama de flujo</tspan><tspan x="0" y="27"></tspan></text>
    <line id="Línea_438" data-name="Línea 438" y2="151" transform="translate(1382.5 1110.5)" fill="none" stroke="#090101" stroke-width="2"/>
    <line id="Línea_439" data-name="Línea 439" x2="382" transform="translate(1000.5 1261.5)" fill="none" stroke="#090101" stroke-width="2"/>
    <line id="Línea_440" data-name="Línea 440" x1="0.5" y1="21.621" transform="translate(1000 1260.879)" fill="none" stroke="#090101" stroke-width="2"/>
    <line id="Línea_441" data-name="Línea 441" x1="0.5" y1="21.621" transform="translate(1104.5 1259.879)" fill="none" stroke="#090101" stroke-width="2"/>
    <line id="Línea_442" data-name="Línea 442" y1="60.621" transform="translate(1209.5 1259.879)" fill="none" stroke="#090101" stroke-width="2"/>
    <g id="Trazado_225648" data-name="Trazado 225648" transform="translate(943.66 1279.029)" fill="#ffd947">
      <path d="M 125.7819900512695 57.30956649780273 L 123.9842910766602 57.30956649780273 L 1.000009536743164 57.30956649780273 L 1.000009536743164 1.000007033348083 L 125.7819900512695 1.000007033348083 L 125.7819900512695 57.30956649780273 Z" stroke="none"/>
      <path d="M 2 1.999996185302734 L 2 56.30957794189453 L 124.7819976806641 56.30957794189453 L 124.7819976806641 1.999996185302734 L 2 1.999996185302734 M 0 -3.814697265625e-06 L 126.7819976806641 -3.814697265625e-06 L 126.7819976806641 58.30957794189453 C 125.9071273803711 58.30957794189453 124.9747695922852 58.30957794189453 123.9842834472656 58.30957794189453 C 92.28878784179688 58.30957794189453 0 58.30957794189453 0 58.30957794189453 L 0 -3.814697265625e-06 Z M 126.7819976806641 58.30957794189453 C 135.8228759765625 58.30957794189453 138.8349761962891 58.30957794189453 138.8349761962891 58.30957794189453 L 126.7819976806641 58.30957794189453 Z" stroke="none" fill="#fff"/>
    </g>
    <g id="Trazado_225649" data-name="Trazado 225649" transform="translate(1075.496 1279.029)" fill="#ffd947">
      <path d="M 76.14851379394531 21.36914443969727 L 75.44607543945312 21.36914443969727 L 1.000003814697266 21.36914443969727 L 1.000003814697266 0.9999952912330627 L 76.14851379394531 0.9999952912330627 L 76.14851379394531 21.36914443969727 Z" stroke="none"/>
      <path d="M 2.000007629394531 1.999998092651367 L 2.000007629394531 20.36914253234863 L 75.14851379394531 20.36914253234863 L 75.14851379394531 1.999998092651367 L 2.000007629394531 1.999998092651367 M 7.62939453125e-06 -1.9073486328125e-06 L 77.14851379394531 -1.9073486328125e-06 L 77.14851379394531 22.36914253234863 C 76.61614990234375 22.36914253234863 76.04879760742188 22.36914253234863 75.44607543945312 22.36914253234863 C 56.1589469909668 22.36914253234863 7.62939453125e-06 22.36914253234863 7.62939453125e-06 22.36914253234863 L 7.62939453125e-06 -1.9073486328125e-06 Z M 77.14851379394531 22.36914253234863 C 82.65001678466797 22.36914253234863 84.48291015625 22.36914253234863 84.48291015625 22.36914253234863 L 77.14851379394531 22.36914253234863 Z" stroke="none" fill="#fff"/>
    </g>
    <g id="Trazado_225650" data-name="Trazado 225650" transform="translate(1164.66 1279.029)" fill="#ffd947">
      <path d="M 80.75904083251953 21.36914443969727 L 79.95484924316406 21.36914443969727 L 0.999997079372406 21.36914443969727 L 0.999997079372406 0.9999969601631165 L 80.75904083251953 0.9999969601631165 L 80.75904083251953 21.36914443969727 Z" stroke="none"/>
      <path d="M 2 1.999998092651367 L 2 20.36914253234863 L 79.759033203125 20.36914253234863 L 79.759033203125 1.999998092651367 L 2 1.999998092651367 M 0 -1.9073486328125e-06 L 81.759033203125 -1.9073486328125e-06 L 81.759033203125 22.36914253234863 C 81.19484710693359 22.36914253234863 80.59358978271484 22.36914253234863 79.95484924316406 22.36914253234863 C 59.51509094238281 22.36914253234863 0 22.36914253234863 0 22.36914253234863 L 0 -1.9073486328125e-06 Z M 81.759033203125 22.36914253234863 C 87.58930969238281 22.36914253234863 89.53173828125 22.36914253234863 89.53173828125 22.36914253234863 L 81.759033203125 22.36914253234863 Z" stroke="none" fill="#fff"/>
    </g>
    <text id="Proyección_y_Rediseño_" data-name="Proyección y
Rediseño
" transform="translate(1009 1299.5)" fill="#12263f" font-size="17" font-family="Roboto-Regular, Roboto"><tspan x="-48.153" y="0">Proyección y</tspan><tspan x="-35.017" y="27">Rediseño</tspan><tspan x="0" y="54"></tspan></text>
    <text id="Calidad_" data-name="Calidad
" transform="translate(1113.18 1297.5)" fill="#12263f" font-size="17" font-family="Roboto-Regular, Roboto"><tspan x="-28.492" y="0">Calidad</tspan><tspan x="0" y="27"></tspan></text>
    <text id="Auditoría_" data-name="Auditoría
" transform="translate(1206 1296.029)" fill="#12263f" font-size="17" font-family="Roboto-Regular, Roboto"><tspan x="-34.183" y="0">Auditoría</tspan><tspan x="0" y="27"></tspan></text>
    <g id="Trazado_225651" data-name="Trazado 225651" transform="translate(1147.137 1309.474)" fill="#1f2041">
      <path d="M 104.3974761962891 26.865234375 L 103.0716934204102 26.865234375 L 1.000008821487427 26.865234375 L 1.000008821487427 1.000001430511475 L 104.3974761962891 1.000001430511475 L 104.3974761962891 26.865234375 Z" stroke="none"/>
      <path d="M 2 2 L 2 25.86523628234863 L 103.3974685668945 25.86523628234863 L 103.3974685668945 2 L 2 2 M 0 0 L 105.3974685668945 0 L 105.3974685668945 27.86523628234863 C 104.670166015625 27.86523628234863 103.8951110839844 27.86523628234863 103.0716857910156 27.86523628234863 C 76.72230529785156 27.86523628234863 0 27.86523628234863 0 27.86523628234863 L 0 0 Z M 105.3974685668945 27.86523628234863 C 112.9134140014648 27.86523628234863 115.4174728393555 27.86523628234863 115.4174728393555 27.86523628234863 L 105.3974685668945 27.86523628234863 Z" stroke="none" fill="#fff"/>
    </g>
    <text id="Indicadores_" data-name="Indicadores
" transform="translate(1199.826 1329.838)" fill="#fff" font-size="17" font-family="Roboto-Regular, Roboto"><tspan x="-44.334" y="0">Indicadores</tspan><tspan x="0" y="27"></tspan></text>
    <line id="Línea_443" data-name="Línea 443" y2="722.729" transform="translate(1405.5 755.771)" fill="none" stroke="#090101" stroke-width="2"/>
    <line id="Línea_444" data-name="Línea 444" x2="490" transform="translate(915.5 1478.5)" fill="none" stroke="#090101" stroke-width="2"/>
    <g id="Elipse_4728" data-name="Elipse 4728" transform="translate(821.5 1450.898)" fill="#1eb8b8" stroke="#fff" stroke-width="2">
      <ellipse cx="97.5" cy="34" rx="97.5" ry="34" stroke="none"/>
      <ellipse cx="97.5" cy="34" rx="96.5" ry="33" fill="none"/>
    </g>
    <text id="Abarca_" data-name="Abarca
" transform="translate(919.5 1488.898)" fill="#fff" font-size="17" font-family="Roboto-Regular, Roboto"><tspan x="-26.807" y="0">Abarca</tspan><tspan x="0" y="29"></tspan></text>
    <line id="Línea_421-2" data-name="Línea 421" x1="58.5" y1="45.72" transform="translate(1000 1501.78)" fill="none" stroke="#090101" stroke-width="2"/>
    <line id="Línea_422-2" data-name="Línea 422" y1="39" x2="33" transform="translate(839.699 1513.122)" fill="none" stroke="#090101" stroke-width="2"/>
    <line id="Línea_423-2" data-name="Línea 423" y2="112.261" transform="translate(846.544 1568.239)" fill="none" stroke="#090101" stroke-width="2"/>
    <g id="Trazado_225652" data-name="Trazado 225652" transform="translate(786.32 1542.742)" fill="#0e8282">
      <path d="M 106.1797180175781 35.06836318969727 L 104.8145751953125 35.06836318969727 L 1.00001072883606 35.06836318969727 L 1.00001072883606 0.9999978542327881 L 106.1797180175781 0.9999978542327881 L 106.1797180175781 35.06836318969727 Z" stroke="none"/>
      <path d="M 2 1.999996185302734 L 2 34.06836318969727 L 105.1797180175781 34.06836318969727 L 105.1797180175781 1.999996185302734 L 2 1.999996185302734 M 0 -3.814697265625e-06 L 107.1797180175781 -3.814697265625e-06 L 107.1797180175781 36.06836318969727 C 106.4401168823242 36.06836318969727 105.6519165039062 36.06836318969727 104.8145751953125 36.06836318969727 C 78.01964569091797 36.06836318969727 0 36.06836318969727 0 36.06836318969727 L 0 -3.814697265625e-06 Z M 107.1797180175781 36.06836318969727 C 114.82275390625 36.06836318969727 117.369140625 36.06836318969727 117.369140625 36.06836318969727 L 107.1797180175781 36.06836318969727 Z" stroke="none" fill="#f6f6f6"/>
    </g>
    <text id="Convenios_" data-name="Convenios
" transform="translate(840 1564.396)" fill="#fff" font-size="17" font-family="Roboto-Regular, Roboto"><tspan x="-39.674" y="0">Convenios</tspan><tspan x="0" y="27"></tspan></text>
    <g id="Trazado_225653" data-name="Trazado 225653" transform="translate(1020 1541.742)" fill="#0e8282">
      <path d="M 63.52444839477539 35.06835556030273 L 63.10058212280273 35.06835556030273 L 1.000004053115845 35.06835556030273 L 1.000004053115845 1.000001907348633 L 63.52444839477539 1.000001907348633 L 63.52444839477539 35.06835556030273 Z" stroke="none"/>
      <path d="M 2 2.000003814697266 L 2 34.06835556030273 L 62.52444839477539 34.06835556030273 L 62.52444839477539 2.000003814697266 L 2 2.000003814697266 M 0 3.814697265625e-06 L 64.52444458007812 3.814697265625e-06 L 64.52444458007812 36.06835556030273 C 64.07919311523438 36.06835556030273 63.60467529296875 36.06835556030273 63.10057830810547 36.06835556030273 C 46.9694709777832 36.06835556030273 0 36.06835556030273 0 36.06835556030273 L 0 3.814697265625e-06 Z M 64.52444458007812 36.06835556030273 C 69.12571716308594 36.06835556030273 70.65869140625 36.06835556030273 70.65869140625 36.06835556030273 L 64.52444458007812 36.06835556030273 Z" stroke="none" fill="#f6f6f6"/>
    </g>
    <text id="Leyes_" data-name="Leyes
" transform="translate(1052.25 1564.5)" fill="#fff" font-size="18" font-family="Roboto-Regular, Roboto"><tspan x="-23.278" y="0">Leyes</tspan><tspan x="0" y="27"></tspan></text>
    <line id="Línea_445" data-name="Línea 445" x2="32" transform="translate(830.5 1618.5)" fill="none" stroke="#090101" stroke-width="2"/>
    <line id="Línea_446" data-name="Línea 446" x2="32" transform="translate(830.544 1680.5)" fill="none" stroke="#090101" stroke-width="2"/>
    <g id="Trazado_225654" data-name="Trazado 225654" transform="translate(711.52 1595.396)" fill="#ffd947">
      <path d="M 122.3022537231445 58.59326934814453 L 120.5813293457031 58.59326934814453 L 0.9999930858612061 58.59326934814453 L 0.9999930858612061 1.000010848045349 L 122.3022537231445 1.000010848045349 L 122.3022537231445 58.59326934814453 Z" stroke="none"/>
      <path d="M 2 2.000007629394531 L 2 57.59325408935547 L 121.30224609375 57.59325408935547 L 121.30224609375 2.000007629394531 L 2 2.000007629394531 M 0 7.62939453125e-06 L 123.30224609375 7.62939453125e-06 L 123.30224609375 59.59325408935547 C 122.4513854980469 59.59325408935547 121.5446319580078 59.59325408935547 120.5813293457031 59.59325408935547 C 89.75578308105469 59.59325408935547 0 59.59325408935547 0 59.59325408935547 L 0 7.62939453125e-06 Z M 123.30224609375 59.59325408935547 C 132.0949859619141 59.59325408935547 135.0244140625 59.59325408935547 135.0244140625 59.59325408935547 L 123.30224609375 59.59325408935547 Z" stroke="none" fill="#fff"/>
    </g>
    <text id="Por_el_cambio_climático_" data-name="Por el cambio
climático
" transform="translate(773.175 1618.894)" fill="#12263f" font-size="17" font-family="Roboto-Regular, Roboto"><tspan x="-52.009" y="0">Por el cambio</tspan><tspan x="-34.784" y="27">climático</tspan><tspan x="0" y="54"></tspan></text>
    <g id="Trazado_225655" data-name="Trazado 225655" transform="translate(736.451 1662.816)" fill="#ffd947">
      <path d="M 98.12915802001953 34.3681640625 L 96.94168853759766 34.3681640625 L 1.000004768371582 34.3681640625 L 1.000004768371582 0.9999986886978149 L 98.12915802001953 0.9999986886978149 L 98.12915802001953 34.3681640625 Z" stroke="none"/>
      <path d="M 2.000007629394531 2 L 2.000007629394531 33.3681640625 L 97.129150390625 33.3681640625 L 97.129150390625 2 L 2.000007629394531 2 M 7.62939453125e-06 0 L 99.129150390625 0 L 99.129150390625 35.3681640625 C 98.44510650634766 35.3681640625 97.71611785888672 35.3681640625 96.94167327880859 35.3681640625 C 72.15939331054688 35.3681640625 7.62939453125e-06 35.3681640625 7.62939453125e-06 35.3681640625 L 7.62939453125e-06 0 Z M 99.129150390625 35.3681640625 C 106.1981048583984 35.3681640625 108.5532302856445 35.3681640625 108.5532302856445 35.3681640625 L 99.129150390625 35.3681640625 Z" stroke="none" fill="#fff"/>
    </g>
    <g id="Trazado_225656" data-name="Trazado 225656" transform="translate(858.18 1596.5)" fill="#ffd947">
      <path d="M 128.5081787109375 31.90038299560547 L 126.6502990722656 31.90038299560547 L 1.00000524520874 31.90038299560547 L 1.00000524520874 1.00000786781311 L 128.5081787109375 1.00000786781311 L 128.5081787109375 31.90038299560547 Z" stroke="none"/>
      <path d="M 2 2 L 2 30.900390625 L 127.5081481933594 30.900390625 L 127.5081481933594 2 L 2 2 M 0 0 L 129.5081481933594 0 L 129.5081481933594 32.900390625 C 128.6144714355469 32.900390625 127.6620864868164 32.900390625 126.6502990722656 32.900390625 C 94.27326202392578 32.900390625 0 32.900390625 0 32.900390625 L 0 0 Z M 129.5081481933594 32.900390625 C 138.7434387207031 32.900390625 141.8203125 32.900390625 141.8203125 32.900390625 L 129.5081481933594 32.900390625 Z" stroke="none" fill="#fff"/>
    </g>
    <g id="Trazado_225657" data-name="Trazado 225657" transform="translate(856.259 1660.715)" fill="#ffd947">
      <path d="M 155.2388763427734 58.59325408935547 L 152.7911682128906 58.59325408935547 L 0.9999955296516418 58.59325408935547 L 0.9999955296516418 1.000005841255188 L 155.2388763427734 1.000005841255188 L 155.2388763427734 58.59325408935547 Z" stroke="none"/>
      <path d="M 2 2 L 2 57.59326171875 L 154.2388610839844 57.59326171875 L 154.2388610839844 2 L 2 2 M 0 0 L 156.2388610839844 0 L 156.2388610839844 59.59326171875 C 155.1607360839844 59.59326171875 154.0117797851562 59.59326171875 152.7911529541016 59.59326171875 C 113.7314453125 59.59326171875 0 59.59326171875 0 59.59326171875 L 0 0 Z M 156.2388610839844 59.59326171875 C 167.3803405761719 59.59326171875 171.0923004150391 59.59326171875 171.0923004150391 59.59326171875 L 156.2388610839844 59.59326171875 Z" stroke="none" fill="#fff"/>
    </g>
    <text id="De_Basilea_" data-name="De Basilea

" transform="translate(785.175 1687.309)" fill="#12263f" font-size="17" font-family="Roboto-Regular, Roboto"><tspan x="-39.732" y="0">De Basilea</tspan><tspan x="0" y="27"></tspan><tspan x="0" y="54"></tspan></text>
    <text id="Capa_de_Ozono_" data-name="Capa de Ozono
" transform="translate(920.5 1618.894)" fill="#12263f" font-size="17" font-family="Roboto-Regular, Roboto"><tspan x="-57.429" y="0">Capa de Ozono</tspan><tspan x="0" y="27"></tspan></text>
    <text id="Para_la_Protección_de_la_Biodiversidad_" data-name="Para la Protección
de la Biodiversidad
" transform="translate(934.5 1683.492)" fill="#12263f" font-size="17" font-family="Roboto-Regular, Roboto"><tspan x="-68.95" y="0">Para la Protección</tspan><tspan x="-71.403" y="27">de la Biodiversidad</tspan><tspan x="0" y="54"></tspan></text>
    <line id="Línea_447" data-name="Línea 447" y2="37.206" transform="translate(1075.25 1575.294)" fill="none" stroke="#090101" stroke-width="2"/>
    <line id="Línea_448" data-name="Línea 448" x2="179.25" transform="translate(1079.25 1560.776)" fill="none" stroke="#090101" stroke-width="2"/>
    <line id="Línea_449" data-name="Línea 449" y2="96.724" transform="translate(1171.25 1560.776)" fill="none" stroke="#090101" stroke-width="2"/>
    <line id="Línea_450" data-name="Línea 450" y2="49.724" transform="translate(1258.25 1559.776)" fill="none" stroke="#090101" stroke-width="2"/>
    <g id="Trazado_225661" data-name="Trazado 225661" transform="translate(1197.239 1593.924)" fill="#ffd947">
      <path d="M 124.8010330200195 31.90039443969727 L 123.0249710083008 31.90039443969727 L 1.000009894371033 31.90039443969727 L 1.000009894371033 0.9999952912330627 L 124.8010330200195 0.9999952912330627 L 124.8010330200195 31.90039443969727 Z" stroke="none"/>
      <path d="M 2 2.000007629394531 L 2 30.90038299560547 L 123.801025390625 30.90038299560547 L 123.801025390625 2.000007629394531 L 2 2.000007629394531 M 0 7.62939453125e-06 L 125.801025390625 7.62939453125e-06 L 125.801025390625 32.90038299560547 C 124.9329223632812 32.90038299560547 124.0077819824219 32.90038299560547 123.0249633789062 32.90038299560547 C 91.57471466064453 32.90038299560547 0 32.90038299560547 0 32.90038299560547 L 0 7.62939453125e-06 Z M 125.801025390625 32.90038299560547 C 134.7719573974609 32.90038299560547 137.7607421875 32.90038299560547 137.7607421875 32.90038299560547 L 125.801025390625 32.90038299560547 Z" stroke="none" fill="#fff"/>
    </g>
    <text id="_1950_de_2019_" data-name="1950 de 2019
" transform="translate(1262 1618.894)" fill="#12263f" font-size="17" font-family="Roboto-Regular, Roboto"><tspan x="-51.689" y="0">1950 de 2019</tspan><tspan x="0" y="27"></tspan></text>
    <g id="Trazado_225662" data-name="Trazado 225662" transform="translate(1105 1649.894)" fill="#ffd947">
      <path d="M 128.5081787109375 31.90038299560547 L 126.6502990722656 31.90038299560547 L 1.00000524520874 31.90038299560547 L 1.00000524520874 1.00000786781311 L 128.5081787109375 1.00000786781311 L 128.5081787109375 31.90038299560547 Z" stroke="none"/>
      <path d="M 2 2 L 2 30.900390625 L 127.5081481933594 30.900390625 L 127.5081481933594 2 L 2 2 M 0 0 L 129.5081481933594 0 L 129.5081481933594 32.900390625 C 128.6144714355469 32.900390625 127.6620864868164 32.900390625 126.6502990722656 32.900390625 C 94.27326202392578 32.900390625 0 32.900390625 0 32.900390625 L 0 0 Z M 129.5081481933594 32.900390625 C 138.7434387207031 32.900390625 141.8203125 32.900390625 141.8203125 32.900390625 L 129.5081481933594 32.900390625 Z" stroke="none" fill="#fff"/>
    </g>
    <text id="_1954_de_2019_" data-name="1954 de 2019
" transform="translate(1169 1673.492)" fill="#12263f" font-size="17" font-family="Roboto-Regular, Roboto"><tspan x="-51.689" y="0">1954 de 2019</tspan><tspan x="0" y="27"></tspan></text>
    <g id="Trazado_225663" data-name="Trazado 225663" transform="translate(1020 1595.396)" fill="#ffd947">
      <path d="M 128.5081787109375 31.90038299560547 L 126.6502990722656 31.90038299560547 L 1.00000524520874 31.90038299560547 L 1.00000524520874 1.00000786781311 L 128.5081787109375 1.00000786781311 L 128.5081787109375 31.90038299560547 Z" stroke="none"/>
      <path d="M 2 2 L 2 30.900390625 L 127.5081481933594 30.900390625 L 127.5081481933594 2 L 2 2 M 0 0 L 129.5081481933594 0 L 129.5081481933594 32.900390625 C 128.6144714355469 32.900390625 127.6620864868164 32.900390625 126.6502990722656 32.900390625 C 94.27326202392578 32.900390625 0 32.900390625 0 32.900390625 L 0 0 Z M 129.5081481933594 32.900390625 C 138.7434387207031 32.900390625 141.8203125 32.900390625 141.8203125 32.900390625 L 129.5081481933594 32.900390625 Z" stroke="none" fill="#fff"/>
    </g>
    <text id="_1964_de_2019_" data-name="1964 de 2019
" transform="translate(1084.25 1618.894)" fill="#12263f" font-size="17" font-family="Roboto-Regular, Roboto"><tspan x="-51.689" y="0">1964 de 2019</tspan><tspan x="0" y="27"></tspan></text>
  </g>
</svg>
