<svg xmlns="http://www.w3.org/2000/svg" xmlns:xlink="http://www.w3.org/1999/xlink" width="820" height="444.477" viewBox="0 0 820 444.477">
  <defs>
    <clipPath id="clip-path">
      <rect id="Rectángulo_49664" data-name="Rectángulo 49664" width="820" height="444.477" transform="translate(0 0.5)" fill="none"/>
    </clipPath>
    <clipPath id="clip-path-2">
      <rect id="Rectángulo_49663" data-name="Rectángulo 49663" width="820" height="444.477" transform="translate(0 0)" fill="none"/>
    </clipPath>
    <clipPath id="clip-path-3">
      <rect id="Rectángulo_49659" data-name="Rectángulo 49659" width="37.234" height="70.993" fill="none"/>
    </clipPath>
    <clipPath id="clip-path-4">
      <rect id="Rectángulo_49661" data-name="Rectángulo 49661" width="113.776" height="100.434" fill="none"/>
    </clipPath>
  </defs>
  <g id="Grupo_599799" data-name="Grupo 599799" transform="translate(-0.198 41.947)">
    <g id="Grupo_156765" data-name="Grupo 156765" transform="translate(0.198 -42.447)" clip-path="url(#clip-path)">
      <g id="Grupo_156764" data-name="Grupo 156764" transform="translate(0 0.5)">
        <g id="Grupo_156763" data-name="Grupo 156763" transform="translate(0 0)" clip-path="url(#clip-path-2)">
          <path id="Trazado_220790" data-name="Trazado 220790" d="M729.629,407.756c-.449-.889-.945-1.792-1.473-2.68l1.493-.813c.546.92,1.06,1.854,1.526,2.776Zm-3.122-5.27c-.568-.836-1.175-1.676-1.8-2.5l1.384-.974c.649.846,1.274,1.712,1.859,2.573ZM555.966,420.623c-1.086.112-2.178.2-3.246.259l-.1-1.642c1.041-.059,2.105-.144,3.163-.254Zm3.228-.407-.263-1.626c1.033-.154,2.086-.333,3.13-.534l.337,1.613c-1.069.2-2.147.389-3.2.546m-9.732.771c-1.092.008-2.189-.012-3.261-.059l.079-1.643c1.041.046,2.107.065,3.169.058Zm16.112-1.994-.407-1.6c1.017-.238,2.052-.5,3.075-.783l.474,1.581c-1.045.288-2.1.557-3.142.8m-22.628,1.7c-1.086-.106-2.175-.245-3.238-.41l.276-1.623c1.029.161,2.085.294,3.137.4Zm28.875-3.419-.535-1.563c1-.314,2.008-.651,3.008-1.005l.594,1.544c-1.019.36-2.051.705-3.067,1.025m6.092-2.152-.649-1.523c.972-.381,1.958-.785,2.931-1.2l.7,1.5c-.99.424-1.994.836-2.983,1.224M536.5,419.69c-1.068-.232-2.134-.5-3.165-.79l.487-1.578c1,.282,2.026.539,3.058.764Zm186.255-22.1c-.665-.777-1.363-1.551-2.075-2.3l1.27-1.107c.731.771,1.449,1.566,2.133,2.365Zm-138.921,15-.75-1.48c.945-.439,1.9-.9,2.85-1.377l.8,1.458c-.961.481-1.936.952-2.9,1.4m-53.606,5.324c-1.026-.363-2.045-.763-3.03-1.189l.706-1.5c.949.41,1.932.8,2.92,1.146Zm59.353-8.2-.838-1.436c.918-.492,1.848-1.008,2.766-1.531l.878,1.413c-.93.531-1.874,1.053-2.806,1.553m128.905-16.625c-.746-.712-1.521-1.416-2.3-2.094l1.151-1.221c.8.7,1.6,1.419,2.365,2.149ZM524.262,415.33c-.961-.5-1.912-1.034-2.825-1.594l.925-1.385c.878.538,1.791,1.054,2.716,1.533Zm70.886-8.794-.917-1.391c.888-.537,1.789-1.1,2.681-1.667l.952,1.369c-.9.577-1.817,1.145-2.716,1.689m5.388-3.441-.986-1.347c.862-.579,1.735-1.181,2.6-1.788l1.017,1.325c-.871.615-1.755,1.224-2.627,1.81m-81.793,8.847c-.873-.63-1.728-1.3-2.543-1.988l1.136-1.234c.782.661,1.6,1.3,2.44,1.907Zm195.03-22.934c-.814-.639-1.656-1.268-2.5-1.872l1.024-1.321c.869.619,1.734,1.265,2.569,1.921ZM605.749,399.419l-1.048-1.3.255-.188q1.158-.859,2.313-1.687l1.029,1.317q-1.142.82-2.293,1.673ZM708.676,385.38c-.874-.562-1.776-1.113-2.678-1.636l.888-1.408c.927.536,1.851,1.1,2.748,1.678Zm-194.846,22.4c-.758-.751-1.494-1.54-2.186-2.345l1.325-1.046c.663.772,1.368,1.528,2.1,2.247Zm97.048-12.041-1-1.335c.877-.6,1.766-1.2,2.643-1.785l.975,1.354c-.868.574-1.748,1.169-2.615,1.766m92.363-13.511c-.926-.481-1.877-.947-2.827-1.385l.745-1.483c.974.45,1.951.928,2.9,1.421Zm-87.1,10.029-.946-1.373c.905-.573,1.82-1.138,2.719-1.68l.915,1.392c-.888.536-1.792,1.094-2.688,1.661M509.66,402.934c-.623-.856-1.219-1.748-1.771-2.651l1.482-.831c.528.866,1.1,1.72,1.7,2.54ZM621.557,389l-.882-1.412c.925-.531,1.866-1.057,2.8-1.563l.848,1.431c-.919.5-1.848,1.019-2.761,1.544m75.963-9.4c-.972-.4-1.965-.772-2.952-1.121l.595-1.544c1.013.358,2.031.745,3.027,1.15Zm-70.4,6.382-.811-1.45c.95-.488,1.917-.969,2.874-1.431l.772,1.47c-.944.455-1.9.93-2.835,1.411m64.448-8.489c-1-.3-2.03-.589-3.05-.847l.44-1.591c1.045.265,2.1.557,3.128.869Zm-58.741,5.739-.73-1.489c.98-.441,1.973-.872,2.952-1.282l.686,1.509c-.964.4-1.942.827-2.908,1.262M506.344,397.5c-.473-.939-.914-1.909-1.31-2.884l1.6-.6c.38.935.8,1.865,1.256,2.766Zm179.083-21.575c-1.027-.211-2.077-.4-3.12-.569l.282-1.623c1.069.171,2.145.367,3.2.584Zm-46.752,4.851-.64-1.527c1.006-.387,2.024-.762,3.028-1.114l.591,1.545c-.987.347-1.989.716-2.979,1.1m40.489-5.851c-1.046-.12-2.11-.218-3.162-.292l.126-1.641c1.078.076,2.168.176,3.239.3Zm-34.5,3.748-.539-1.562c1.031-.326,2.073-.638,3.1-.927l.485,1.578c-1.007.284-2.03.59-3.043.911m28.164-4.2c-1.048-.029-2.117-.036-3.178-.021l-.026-1.645c1.086-.016,2.18-.008,3.253.021Zm-22.049,2.473-.427-1.593c1.047-.258,2.11-.5,3.159-.72l.367,1.606c-1.029.216-2.072.454-3.1.707m15.695-2.383c-1.05.058-2.117.138-3.17.238l-.169-1.637c1.077-.1,2.167-.184,3.241-.243ZM657,375.653l-.3-1.619c1.068-.184,2.148-.35,3.209-.492l.238,1.629c-1.039.139-2.1.3-3.143.481m-153.039,16c-.315-.992-.594-2.015-.833-3.04l1.676-.358c.229.985.5,1.967.8,2.92Zm-1.428-6.127q-.087-.566-.159-1.137c-.083-.658-.151-1.326-.2-1.985l1.712-.124c.05.635.116,1.278.2,1.912q.069.549.154,1.093Zm1.22-6.27-1.717.013c-.008-1.033.02-2.088.084-3.136l1.714.1c-.061,1.012-.088,2.031-.081,3.028m.364-6.047-1.7-.2c.128-1.01.29-2.037.483-3.053l1.7.248-.013.064c-.183.967-.34,1.961-.464,2.939m1.111-5.986-1.675-.362c.239-1.012.5-2.03.784-3.024l1.657.431c-.276.972-.534,1.967-.767,2.956m58.732-8.324a24.693,24.693,0,0,1-3.335.082l.081-1.643a22.984,22.984,0,0,0,3.092-.077Zm3.28-.5-.369-1.607a29.842,29.842,0,0,0,3.009-.8l.548,1.559a31.716,31.716,0,0,1-3.188.852m-9.943.167a17.61,17.61,0,0,1-3.217-.994l.69-1.507a15.892,15.892,0,0,0,2.894.893Zm16.2-2.179-.708-1.5c.943-.409,1.882-.869,2.791-1.368l.853,1.428c-.956.524-1.943,1.008-2.937,1.439m5.717-3.133-.987-1.346c.855-.576,1.689-1.2,2.477-1.84l1.115,1.251c-.829.678-1.706,1.33-2.6,1.935M506.9,361.343l-1.635-.5c.329-.989.686-1.98,1.059-2.948l1.61.571c-.364.944-.711,1.912-1.034,2.878m44.239-5.4a14.457,14.457,0,0,1-2.48-2.238l1.314-1.059a12.8,12.8,0,0,0,2.19,1.977Zm33.091-6.786-1.235-1.143a30.324,30.324,0,0,0,2.06-2.257l1.349,1.019a32.188,32.188,0,0,1-2.174,2.381M509.1,355.634l-1.582-.639c.421-.956.87-1.913,1.334-2.845l1.549.709c-.453.91-.891,1.843-1.3,2.776M546.771,351a17.352,17.352,0,0,1-1.278-2.983l1.639-.488a15.774,15.774,0,0,0,1.158,2.707Zm41.537-6.813-1.453-.876a26.49,26.49,0,0,0,1.511-2.612l1.546.715a28.059,28.059,0,0,1-1.6,2.774m-76.474,5.958-1.514-.776c.51-.913,1.049-1.827,1.6-2.716l1.475.842c-.54.868-1.065,1.759-1.563,2.65m32.912-5.246c-.046-.286-.089-.577-.126-.873-.093-.735-.156-1.5-.187-2.288l1.716-.064c.03.738.089,1.463.176,2.155.034.277.074.549.118.817Zm46.431-6.423-1.623-.536a23.742,23.742,0,0,0,.833-2.87l1.679.342a25.2,25.2,0,0,1-.888,3.063m-76.091,6.442-1.432-.907c.593-.861,1.218-1.723,1.857-2.562l1.387.969c-.623.819-1.233,1.659-1.812,2.5m31.075-6.262-1.715-.064c.043-1.051.123-2.1.24-3.127l1.706.178c-.112.986-.19,2-.231,3.013m46.395-6.389-1.711-.141a23.522,23.522,0,0,0,.077-2.976l1.716-.06a25.1,25.1,0,0,1-.082,3.178M518.827,340l-1.339-1.029c.675-.806,1.379-1.61,2.093-2.388l1.289,1.087c-.7.76-1.385,1.544-2.044,2.331m4.2-4.571-1.236-1.141c.75-.746,1.528-1.485,2.31-2.2l1.182,1.194c-.764.695-1.524,1.417-2.256,2.145m23.824-2.767-1.688-.3c.2-1.031.441-2.061.721-3.062l1.659.424c-.267.96-.5,1.948-.691,2.937m43.693-6.406a12.1,12.1,0,0,0-1.013-2.712l1.537-.733a13.7,13.7,0,0,1,1.148,3.071Zm-62.908,4.98-1.126-1.242c.814-.677,1.657-1.347,2.5-1.992l1.067,1.289c-.828.629-1.651,1.284-2.446,1.945m20.836-4.385-1.618-.551c.366-.986.777-1.967,1.223-2.916l1.566.676c-.427.908-.821,1.847-1.171,2.791m39.409-5.709a13.848,13.848,0,0,0-2.191-2l1.046-1.3a15.584,15.584,0,0,1,2.458,2.24Zm-55.266,6.308-1.007-1.332c.877-.608,1.777-1.205,2.677-1.774l.945,1.373c-.879.556-1.759,1.14-2.615,1.734m5.307-3.357-.883-1.411c.927-.532,1.878-1.052,2.828-1.545l.818,1.447c-.927.481-1.857.989-2.762,1.509m13.125-2.725-1.5-.795c.464-.806.965-1.607,1.494-2.389-.565.19-1.131.387-1.69.59l-.609-1.538c1.015-.369,2.048-.719,3.072-1.04l.534,1.564q-.431.135-.862.276l1.192.755c-.579.839-1.127,1.706-1.628,2.576m32.055-3.782a21.855,21.855,0,0,0-2.845-1.153l.557-1.557a23.7,23.7,0,0,1,3.074,1.247Zm-39.589,3.606-.751-1.479c.973-.454,1.969-.892,2.959-1.3l.681,1.51c-.967.4-1.939.829-2.889,1.271m33.743-5.553c-.986-.2-2.026-.367-3.091-.485l.2-1.634c1.121.123,2.216.3,3.256.51Zm-21.87,1.245-.34-1.186q-.273.322-.536.646l-1.355-1.01c.661-.814,1.368-1.623,2.1-2.405l1.275,1.1q-.517.549-1.012,1.114c.859-.218,1.723-.419,2.575-.6l.37,1.606c-1.02.216-2.057.461-3.081.731m15.642-1.947c-1.024-.031-2.085-.027-3.155.015L567.8,313.3c1.11-.042,2.213-.048,3.278-.015Zm-9.447.641-.278-1.623c1.089-.171,2.178-.312,3.239-.419l.179,1.636c-1.029.1-2.083.24-3.139.406m-2.853-3.721-1.193-1.183c.769-.713,1.584-1.42,2.419-2.1l1.113,1.253c-.808.658-1.594,1.342-2.339,2.031m4.807-3.925-1.034-1.313c.852-.616,1.745-1.225,2.655-1.811l.958,1.365c-.885.57-1.753,1.161-2.579,1.76m5.253-3.39-.886-1.409c.913-.527,1.864-1.048,2.83-1.549l.818,1.447c-.942.489-1.871,1-2.761,1.511m5.593-2.906-.753-1.478c.956-.447,1.95-.888,2.952-1.311l.692,1.505c-.982.414-1.955.846-2.891,1.284m5.834-2.464-.634-1.529c.989-.377,2.013-.747,3.041-1.1l.58,1.549c-1.01.347-2.015.711-2.987,1.081m6.011-2.068-.528-1.566c1.019-.315,2.065-.621,3.106-.911l.478,1.58c-1.026.285-2.054.587-3.057.9m6.142-1.707-.43-1.593c1.038-.257,2.1-.505,3.156-.737l.383,1.6c-1.041.228-2.088.472-3.11.726m6.24-1.368-.336-1.613c1.068-.2,2.143-.4,3.2-.567l.288,1.622c-1.037.17-2.1.357-3.149.559m9.466-1.382c-.008,0-1.178.092-3.154.354l-.236-1.629c2.039-.271,3.216-.362,3.252-.365Z" transform="translate(-341.094 -200.866)" fill="#ffd947"/>
          <rect id="Rectángulo_49534" data-name="Rectángulo 49534" width="68.296" height="168.062" transform="translate(207.025 272.969)" fill="#0e8282"/>
          <rect id="Rectángulo_49535" data-name="Rectángulo 49535" width="68.296" height="222.994" transform="translate(313.273 218.037)" fill="#3e9a9a"/>
          <rect id="Rectángulo_49536" data-name="Rectángulo 49536" width="74.783" height="282.279" transform="translate(409.878 158.752)" fill="#0e8282"/>
          <rect id="Rectángulo_49537" data-name="Rectángulo 49537" width="68.296" height="321.358" transform="translate(511.305 119.673)" fill="#3e9a9a"/>
          <path id="Trazado_220791" data-name="Trazado 220791" d="M1510.3,669.933l143.541-66.588-64.016,130.76L1579,674.779Z" transform="translate(-1025.64 -417.11)" fill="#ef6f6c"/>
          <path id="Trazado_220792" data-name="Trazado 220792" d="M1405.82,603.162c-3.512-13.831,5.341-27.771,19.775-31.137s28.98,5.118,32.492,18.949-5.341,27.771-19.774,31.137-28.981-5.118-32.493-18.949" transform="translate(-954.182 -394.916)" fill="#ffb93e"/>
          <path id="Trazado_220793" data-name="Trazado 220793" d="M1443.031,626a25.257,25.257,0,0,1-18.534-2.757,23.423,23.423,0,0,1-11.071-14.508,22.5,22.5,0,0,1,2.877-17.76,24.3,24.3,0,0,1,15.139-10.609,25.258,25.258,0,0,1,18.534,2.757,23.425,23.425,0,0,1,11.071,14.507,22.5,22.5,0,0,1-2.877,17.76A24.3,24.3,0,0,1,1443.031,626m-11.243-44.273c-12.346,2.879-19.946,14.846-16.942,26.677s15.493,19.114,27.839,16.235,19.946-14.847,16.942-26.677-15.493-19.114-27.839-16.235" transform="translate(-959.39 -400.731)" fill="#ffa412"/>
          <path id="Trazado_220794" data-name="Trazado 220794" d="M1473.45,622.491a3.749,3.749,0,0,0-.393-1.312,2.864,2.864,0,0,0-.864-.964,5.673,5.673,0,0,0-1.42-.716,15.152,15.152,0,0,0-2.058-.55q-2.075-.438-3.792-.981a12.437,12.437,0,0,1-3-1.368,7.026,7.026,0,0,1-2.081-2.033,6.887,6.887,0,0,1-1.026-2.981,6.779,6.779,0,0,1,.215-2.869,6.44,6.44,0,0,1,1.346-2.394,8.441,8.441,0,0,1,2.335-1.822,11.664,11.664,0,0,1,3.206-1.133l-.49-3.869,3.251-.377.5,3.923a10.577,10.577,0,0,1,3.281.518,7.992,7.992,0,0,1,2.637,1.455,7.6,7.6,0,0,1,1.853,2.344,9.488,9.488,0,0,1,.951,3.2l-5.871.682a4.684,4.684,0,0,0-1.416-3.129,3.568,3.568,0,0,0-2.827-.763,4.546,4.546,0,0,0-1.543.427,2.947,2.947,0,0,0-1,.795,2.6,2.6,0,0,0-.5,1.077,3.775,3.775,0,0,0-.045,1.271,3.478,3.478,0,0,0,.356,1.188,2.693,2.693,0,0,0,.828.922,5.681,5.681,0,0,0,1.43.714,19.7,19.7,0,0,0,2.148.6q2.059.476,3.768,1.03a12.546,12.546,0,0,1,2.989,1.386,7.124,7.124,0,0,1,2.082,2.042,7.509,7.509,0,0,1,.807,5.888,6.37,6.37,0,0,1-1.359,2.378,8.162,8.162,0,0,1-2.361,1.779,12.584,12.584,0,0,1-3.229,1.108l.455,3.6-3.229.375-.453-3.58a14.3,14.3,0,0,1-3.349-.326,8.9,8.9,0,0,1-2.991-1.239,7.6,7.6,0,0,1-2.276-2.351,8.814,8.814,0,0,1-1.2-3.64l5.87-.681a5.414,5.414,0,0,0,.647,2.1,3.668,3.668,0,0,0,1.179,1.258,3.764,3.764,0,0,0,1.523.557,6.536,6.536,0,0,0,1.662.018,5.422,5.422,0,0,0,1.646-.429,3.493,3.493,0,0,0,1.126-.792,2.638,2.638,0,0,0,.607-1.07,3.127,3.127,0,0,0,.087-1.267" transform="translate(-990.644 -414.186)" fill="#ffa412"/>
          <path id="Trazado_220795" data-name="Trazado 220795" d="M1848.126,378.724c-.568-13.852,10.69-25.523,25.146-26.068s26.635,10.244,27.2,24.1-10.689,25.523-25.145,26.068-26.635-10.244-27.2-24.1" transform="translate(-1254.988 -243.536)" fill="#ffb93e"/>
          <path id="Trazado_220796" data-name="Trazado 220796" d="M1880.2,406.575a24.318,24.318,0,0,1-17.137-6.058,22.2,22.2,0,0,1-1.326-32.318,24.6,24.6,0,0,1,33.725-1.271,22.206,22.206,0,0,1,1.326,32.318,24.159,24.159,0,0,1-16.588,7.329m-1.819-44.341c-12.365.466-22.029,10.485-21.544,22.334s10.942,21.11,23.306,20.645,22.03-10.485,21.544-22.334-10.941-21.11-23.306-20.644" transform="translate(-1259.937 -249.224)" fill="#ffa412"/>
          <path id="Trazado_220797" data-name="Trazado 220797" d="M1911.625,403.615a3.605,3.605,0,0,0-.111-1.325,2.729,2.729,0,0,0-.63-1.08,5.412,5.412,0,0,0-1.211-.946,14.7,14.7,0,0,0-1.854-.905q-1.893-.8-3.423-1.638a11.868,11.868,0,0,1-2.585-1.859,6.891,6.891,0,0,1-1.174-8.061,6.431,6.431,0,0,1,1.767-2.037,8.4,8.4,0,0,1,2.6-1.306,11.468,11.468,0,0,1,3.289-.49l.311-3.784,3.178.241-.316,3.837a10.178,10.178,0,0,1,3.027,1.1,7.59,7.59,0,0,1,2.224,1.876,7.247,7.247,0,0,1,1.3,2.581,9.162,9.162,0,0,1,.263,3.231l-5.741-.435a4.5,4.5,0,0,0-.722-3.248,3.418,3.418,0,0,0-2.545-1.251,4.478,4.478,0,0,0-1.56.122,2.95,2.95,0,0,0-1.116.574,2.6,2.6,0,0,0-.7.935,3.684,3.684,0,0,0-.3,1.205,3.362,3.362,0,0,0,.1,1.2,2.56,2.56,0,0,0,.6,1.034,5.412,5.412,0,0,0,1.221.946,18.8,18.8,0,0,0,1.929.973q1.869.835,3.39,1.68a11.968,11.968,0,0,1,2.573,1.876,6.788,6.788,0,0,1,1.577,2.335,6.592,6.592,0,0,1,.381,3.019,6.7,6.7,0,0,1-.8,2.751,6.355,6.355,0,0,1-1.776,2.019,8.119,8.119,0,0,1-2.613,1.261,12.366,12.366,0,0,1-3.306.461l-.29,3.519-3.158-.239.288-3.5a13.828,13.828,0,0,1-3.131-.931,8.479,8.479,0,0,1-2.6-1.736,7.216,7.216,0,0,1-1.7-2.664,8.5,8.5,0,0,1-.415-3.7l5.741.435a5.221,5.221,0,0,0,.2,2.123,3.492,3.492,0,0,0,.872,1.419,3.59,3.59,0,0,0,1.342.813,6.346,6.346,0,0,0,1.583.325,5.335,5.335,0,0,0,1.659-.106,3.48,3.48,0,0,0,1.234-.547,2.645,2.645,0,0,0,.795-.91,3.077,3.077,0,0,0,.338-1.193" transform="translate(-1288.745 -262.608)" fill="#ffa412"/>
          <path id="Trazado_220798" data-name="Trazado 220798" d="M1733.044,542.5c-.177-9.561,7.769-17.448,17.745-17.617s18.208,7.445,18.384,17.005-7.768,17.448-17.745,17.617-18.208-7.444-18.384-17.005" transform="translate(-1176.866 -362.787)" fill="#ffb93e"/>
          <path id="Trazado_220799" data-name="Trazado 220799" d="M1754.807,562.1a16.746,16.746,0,0,1-11.724-4.422,15.314,15.314,0,0,1-.411-22.305,16.972,16.972,0,0,1,23.277-.394,15.314,15.314,0,0,1,.411,22.3,16.7,16.7,0,0,1-11.553,4.817m-.565-30.6c-8.534.145-15.354,6.915-15.2,15.094s7.217,14.714,15.751,14.569,15.355-6.915,15.2-15.094-7.217-14.714-15.751-14.569" transform="translate(-1180.27 -366.711)" fill="#ffa412"/>
          <path id="Trazado_220800" data-name="Trazado 220800" d="M1776.569,560.116a2.5,2.5,0,0,0-.056-.915,1.877,1.877,0,0,0-.418-.754,3.709,3.709,0,0,0-.821-.669,10.162,10.162,0,0,0-1.265-.651q-1.293-.58-2.335-1.178a8.151,8.151,0,0,1-1.754-1.32,4.754,4.754,0,0,1-.685-5.575,4.45,4.45,0,0,1,1.25-1.379,5.812,5.812,0,0,1,1.811-.864,7.921,7.921,0,0,1,2.275-.291l.275-2.605,2.187.211-.278,2.642a7,7,0,0,1,2.071.8,5.246,5.246,0,0,1,1.5,1.326,4.988,4.988,0,0,1,.854,1.8,6.32,6.32,0,0,1,.131,2.232l-3.953-.381a3.1,3.1,0,0,0-.447-2.251,2.352,2.352,0,0,0-1.735-.9,3.1,3.1,0,0,0-1.078.062,2.03,2.03,0,0,0-.779.38,1.79,1.79,0,0,0-.5.635,2.556,2.556,0,0,0-.225.827,2.32,2.32,0,0,0,.051.829,1.759,1.759,0,0,0,.4.721,3.732,3.732,0,0,0,.828.67,12.867,12.867,0,0,0,1.315.7q1.276.6,2.312,1.207a8.263,8.263,0,0,1,1.745,1.331,4.671,4.671,0,0,1,1.051,1.633,4.539,4.539,0,0,1,.215,2.087,4.631,4.631,0,0,1-.592,1.885,4.4,4.4,0,0,1-1.256,1.367,5.621,5.621,0,0,1-1.821.832,8.572,8.572,0,0,1-2.287.271l-.255,2.423-2.174-.21.254-2.411a9.46,9.46,0,0,1-2.145-.686,5.849,5.849,0,0,1-1.77-1.235,4.968,4.968,0,0,1-1.13-1.861,5.861,5.861,0,0,1-.229-2.555l3.953.381a3.627,3.627,0,0,0,.1,1.467,2.415,2.415,0,0,0,.58.991,2.47,2.47,0,0,0,.913.58,4.378,4.378,0,0,0,1.086.246,3.67,3.67,0,0,0,1.145-.049,2.4,2.4,0,0,0,.86-.36,1.821,1.821,0,0,0,.562-.616,2.129,2.129,0,0,0,.252-.818" transform="translate(-1199.972 -375.965)" fill="#ffa412"/>
          <path id="Trazado_220801" data-name="Trazado 220801" d="M1491.323,283.471c-7.654-22.151,4.88-46.052,27.995-53.387s48.058,4.676,55.712,26.827-4.88,46.052-28,53.387-48.057-4.676-55.711-26.826" transform="translate(-1011.23 -157.199)" fill="#ffb93e"/>
          <path id="Trazado_220802" data-name="Trazado 220802" d="M1554.583,316.706a41.487,41.487,0,0,1-30.662-2.147,38.768,38.768,0,0,1-20.1-22.3,36.8,36.8,0,0,1,2.241-29.383,39.459,39.459,0,0,1,23.266-19.258,41.487,41.487,0,0,1,30.662,2.147,38.767,38.767,0,0,1,20.1,22.295,36.8,36.8,0,0,1-2.24,29.383,39.459,39.459,0,0,1-23.266,19.258m-24.5-70.9c-19.772,6.274-30.531,26.792-23.985,45.739s27.959,29.257,47.731,22.984,30.531-26.792,23.984-45.739-27.959-29.258-47.731-22.984" transform="translate(-1019.846 -166.698)" fill="#ffa412"/>
          <path id="Trazado_220803" data-name="Trazado 220803" d="M1600.374,311.328a6.2,6.2,0,0,0-.823-2.093,4.747,4.747,0,0,0-1.545-1.465,9.346,9.346,0,0,0-2.419-.989,25.1,25.1,0,0,0-3.439-.637q-3.452-.451-6.333-1.121a20.557,20.557,0,0,1-5.086-1.853,11.637,11.637,0,0,1-3.682-3.057,11.376,11.376,0,0,1-2.09-4.741,11.122,11.122,0,0,1-.047-4.714,10.482,10.482,0,0,1,1.868-4.083,13.688,13.688,0,0,1,3.564-3.273,18.959,18.959,0,0,1,5.081-2.259l-1.336-6.26,5.258-1.03,1.354,6.347a17.375,17.375,0,0,1,5.432.429,13.21,13.21,0,0,1,4.51,2.042,12.593,12.593,0,0,1,3.352,3.595,15.668,15.668,0,0,1,2,5.109l-9.5,1.86a7.743,7.743,0,0,0-2.747-4.932,5.871,5.871,0,0,0-4.725-.888,7.4,7.4,0,0,0-2.462.895,4.793,4.793,0,0,0-1.528,1.426,4.245,4.245,0,0,0-.672,1.823,6.173,6.173,0,0,0,.1,2.083,5.737,5.737,0,0,0,.747,1.9,4.449,4.449,0,0,0,1.48,1.4,9.377,9.377,0,0,0,2.435.985,32.217,32.217,0,0,0,3.593.714q3.43.516,6.3,1.2a20.735,20.735,0,0,1,5.075,1.886,11.807,11.807,0,0,1,3.686,3.071,11.3,11.3,0,0,1,2.083,4.712,11.155,11.155,0,0,1,.049,4.8,10.364,10.364,0,0,1-1.89,4.057,13.273,13.273,0,0,1-3.612,3.207,20.517,20.517,0,0,1-5.123,2.223l1.242,5.82-5.225,1.024-1.235-5.792a23.489,23.489,0,0,1-5.518-.107,14.68,14.68,0,0,1-5.058-1.645,12.585,12.585,0,0,1-4.044-3.55,14.557,14.557,0,0,1-2.469-5.794l9.5-1.86a8.955,8.955,0,0,0,1.347,3.346,6.087,6.087,0,0,0,2.1,1.9,6.2,6.2,0,0,0,2.566.716,10.723,10.723,0,0,0,2.717-.182,8.817,8.817,0,0,0,2.63-.911,5.674,5.674,0,0,0,1.731-1.436,4.292,4.292,0,0,0,.843-1.826,5.121,5.121,0,0,0-.033-2.081" transform="translate(-1069.349 -188.922)" fill="#ffa412"/>
          <path id="Trazado_220804" data-name="Trazado 220804" d="M1007.384,238.785c-3.962.948-7.746,1.854-11.284,2.434-11.459,1.878-20.311.329-24.127-14.309s3.237-19.995,14.271-23.5c3.408-1.082,7.191-1.988,11.153-2.936a49.229,49.229,0,0,1,25.31,1.217c7.345,2.313,12.84,6.033,13.814,9.771,1.109,4.256-1.915,10.02-7.3,15.24a48.792,48.792,0,0,1-21.843,12.084" transform="translate(-659.44 -137.409)" fill="#3e9a9a"/>
          <path id="Trazado_220805" data-name="Trazado 220805" d="M947.662,194.222l-13.015-8.145-20.547,4.2,21.341,14.368Z" transform="translate(-620.858 -128.222)" fill="#163560"/>
          <path id="Trazado_220806" data-name="Trazado 220806" d="M990.694,326.755l-7.49,13.053-20.193,5.555,11.785-22.3Z" transform="translate(-654.065 -223.064)" fill="#163560"/>
          <path id="Trazado_220807" data-name="Trazado 220807" d="M996.1,250.36c-11.458,1.878-20.311.329-24.127-14.309s3.238-20,14.271-23.5Z" transform="translate(-659.441 -146.55)" fill="#163560"/>
          <path id="Trazado_220808" data-name="Trazado 220808" d="M890.856,284.97s5.72-12.771,15.732-10.8c10.214,2.006,8.927,12.552,1.262,13.519s-12.523-3.786-16.995-2.715" transform="translate(-605.077 -189.066)" fill="#ef6f6c"/>
          <path id="Trazado_220809" data-name="Trazado 220809" d="M1064.741,228.066a9.912,9.912,0,0,1,11.975,6.888,9.444,9.444,0,0,1-7.188,11.475,9.913,9.913,0,0,1-11.975-6.888,9.444,9.444,0,0,1,7.188-11.475" transform="translate(-718.052 -157.095)" fill="#163560"/>
          <path id="Trazado_220810" data-name="Trazado 220810" d="M1065.745,245.926a10.482,10.482,0,0,1-10.221-7.649,10.085,10.085,0,0,1,7.668-12.24,10.585,10.585,0,0,1,12.773,7.348,9.668,9.668,0,0,1-1.188,7.642,10.441,10.441,0,0,1-6.479,4.6,10.96,10.96,0,0,1-2.552.3m0-18.929a9.564,9.564,0,0,0-2.232.265,9.136,9.136,0,0,0-5.67,4.023,8.462,8.462,0,0,0-1.039,6.687,9.261,9.261,0,0,0,11.176,6.429,9.13,9.13,0,0,0,5.669-4.023,8.458,8.458,0,0,0,1.04-6.687,9.172,9.172,0,0,0-8.944-6.693" transform="translate(-716.661 -155.678)" fill="#bdd1f9"/>
          <path id="Trazado_220811" data-name="Trazado 220811" d="M1138.724,231.972l-6.519-25.011c7.344,2.313,12.84,6.033,13.814,9.771,1.11,4.256-1.914,10.02-7.295,15.24" transform="translate(-768.937 -142.681)" fill="#ef6f6c"/>
          <path id="Trazado_220812" data-name="Trazado 220812" d="M2072.35,734.637s19.955,19.827,20.9,27.289-9.559,19.112-9.559,19.112Z" transform="translate(-1407.235 -508.008)" fill="#ed7d2b"/>
          <path id="Trazado_220813" data-name="Trazado 220813" d="M1987.2,1394.854s-.7,10.517-2.828,10.663c-.282.02-10.77,0-10.77,0l-13.388-.1s.094-3.091,4.01-3.737,10.471-3.267,12.853-8.219c2.505-5.209,10.124,1.4,10.124,1.4" transform="translate(-1331.099 -962.746)" fill="#2e5a99"/>
          <path id="Trazado_220814" data-name="Trazado 220814" d="M2080.078,1395.056s-.7,10.517-2.829,10.663c-.282.019-10.771,0-10.771,0l-13.388-.1s.095-3.091,4.01-3.736,10.472-3.267,12.854-8.219c2.505-5.209,10.124,1.4,10.124,1.4" transform="translate(-1394.16 -962.885)" fill="#18417c"/>
          <path id="Trazado_220815" data-name="Trazado 220815" d="M1998.882,998.975s3.453,21.468,16.429,59.592,14.719,54.624,14.719,54.624l14.014-.347s.214-41.635-5.763-60.8-1.143-69.067-1.143-69.067Z" transform="translate(-1357.354 -679.939)" fill="#163560"/>
          <path id="Trazado_220816" data-name="Trazado 220816" d="M1977.715,986.489a499.379,499.379,0,0,0,5.18,72.059c5.749,39.719,3.732,56.571,3.732,56.571l13.984.474s8.447-39.705,6.1-59.585,11.6-68.175,11.6-68.175Z" transform="translate(-1342.973 -682.374)" fill="#1c468a"/>
          <path id="Trazado_220817" data-name="Trazado 220817" d="M2024.062,704.706l-7.461,4.666-10.765-1.946c.151-.833.869-4.284,1.524-7.41.04-.184.079-.369.116-.549.561-2.66,1.045-4.945,1.045-4.945l10.067-4.232,3.754-1.577c-.01.056-.3,2.952-.338,3.375a23.7,23.7,0,0,0,2.057,12.617" transform="translate(-1362.076 -476.214)" fill="#ffb27d"/>
          <path id="Trazado_220818" data-name="Trazado 220818" d="M2005.332,725.571c.209-.084,12.976-3.665,14.361-3.224s2.2,3.013,2.2,3.013l-20.879,4.478s1.649-3.2,4.318-4.267" transform="translate(-1358.803 -499.474)" fill="#ed7d2b"/>
          <path id="Trazado_220819" data-name="Trazado 220819" d="M2018.622,814.3c-2.185,9.45-38.179,10.5-47.438,1.895-1.052-.98-1.094-5.531-.682-11.667.806-11.987,3.346-30.016,3.464-39.229a70.034,70.034,0,0,1,1.565-13.129,103.2,103.2,0,0,1,4.6-15.709s17.592-5.409,20.879-4.476c15.838,4.5,19.794,72.867,17.611,82.317" transform="translate(-1337.922 -506.095)" fill="#f99746"/>
          <path id="Trazado_220820" data-name="Trazado 220820" d="M1971.015,846.218c.806-11.987,3.347-30.016,3.465-39.229a70,70,0,0,1,1.565-13.13l10.579-1.766s10.248,40.492-15.609,54.125" transform="translate(-1338.435 -547.787)" fill="#ed7d2b"/>
          <path id="Trazado_220821" data-name="Trazado 220821" d="M1982.57,910.2a2.316,2.316,0,0,1-.8,2.758c-1.517,1.105-2.5,2.9-2.159,4.213s3.66,3.461,4.811,3.119,3.5-2.067,3.249-2.759,1.589-6.072-1.213-8.151-3.89.821-3.89.821" transform="translate(-1344.225 -628.472)" fill="#ffb27d"/>
          <path id="Trazado_220822" data-name="Trazado 220822" d="M1960.672,738.946s-10.318,1.828-18.562,13.416-13.671,20.2-12.166,24.391,15.27,18.721,17.649,18.726,6.222-1.645,6.446-5.375c0,0-9.683-13.973-7.765-16.059.82-.891,12.635-10.043,14.31-5.894,2.771,6.863.087-29.2.087-29.2" transform="translate(-1310.38 -510.992)" fill="#f99746"/>
          <path id="Trazado_220823" data-name="Trazado 220823" d="M2024.472,695.767c-2.216,3.581-10.454,6.664-13.889,7.8.04-.185.079-.369.116-.549.561-2.66,1.045-4.945,1.045-4.945l10.067-4.232c2.223-.024,3.575.456,2.661,1.929" transform="translate(-1365.299 -479.761)" fill="#fca56b"/>
          <path id="Trazado_220824" data-name="Trazado 220824" d="M1998.142,648.2s16.19,4.877,19.2-4.832,7.134-15.617-3.075-19.141-13.377-.395-15.206,2.611-5.057,19.844-.922,21.363" transform="translate(-1355.486 -430.49)" fill="#ffb27d"/>
          <path id="Trazado_220825" data-name="Trazado 220825" d="M2004.054,613.975s1.007,11.306,3.448,10.821,4.655-.845,4.29,2.562-3.758,7.335,3.76,7.953,18.368-17.94,16.311-21.462c-5.937-10.163-36.394-12.275-27.808.126" transform="translate(-1359.838 -418.557)" fill="#163560"/>
          <path id="Trazado_220826" data-name="Trazado 220826" d="M1584.275,1412.427v4.068a1.353,1.353,0,0,1-.335.875,2.128,2.128,0,0,1-1.27.667,2.314,2.314,0,0,1-.344.024h-80.5a1.876,1.876,0,0,1-1.929-1.333c-.007-.051-.015-.1-.017-.154,0-.027,0-.053,0-.08v-4.068c0-.026,0-.053,0-.079,0-.053.01-.1.017-.154a1.876,1.876,0,0,1,1.929-1.332h80.5a2.3,2.3,0,0,1,.344.024,2.177,2.177,0,0,1,.357.082,1.947,1.947,0,0,1,.912.585,1.353,1.353,0,0,1,.335.875" transform="translate(-1018.565 -976.181)" fill="#ffb93e"/>
          <path id="Trazado_220827" data-name="Trazado 220827" d="M1544.747,1418.061h-43.126a1.72,1.72,0,0,1-1.673-1.16,1.29,1.29,0,0,1-.047-.173c-.007-.05-.015-.1-.017-.154,0-.026,0-.053,0-.079v-4.068c0-.026,0-.053,0-.079,0-.053.01-.1.017-.154a1.29,1.29,0,0,1,.047-.173,1.72,1.72,0,0,1,1.673-1.16h37.83a12.621,12.621,0,0,0,5.3,7.2" transform="translate(-1018.565 -976.181)" fill="#ffa412"/>
          <rect id="Rectángulo_49538" data-name="Rectángulo 49538" width="0.915" height="7.201" transform="translate(554.999 434.68)" fill="#ffa412"/>
          <rect id="Rectángulo_49539" data-name="Rectángulo 49539" width="0.915" height="7.201" transform="translate(551.902 434.68)" fill="#ffa412"/>
          <rect id="Rectángulo_49540" data-name="Rectángulo 49540" width="0.915" height="7.201" transform="translate(548.188 434.68)" fill="#ffa412"/>
          <rect id="Rectángulo_49541" data-name="Rectángulo 49541" width="0.915" height="7.201" transform="translate(542.496 434.68)" fill="#ffa412"/>
          <rect id="Rectángulo_49542" data-name="Rectángulo 49542" width="0.915" height="7.201" transform="translate(536.476 434.68)" fill="#ffa412"/>
          <rect id="Rectángulo_49543" data-name="Rectángulo 49543" width="0.915" height="7.201" transform="translate(527.248 434.68)" fill="#ffa412"/>
          <rect id="Rectángulo_49544" data-name="Rectángulo 49544" width="0.915" height="7.201" transform="translate(518.608 434.68)" fill="#ffa412"/>
          <rect id="Rectángulo_49545" data-name="Rectángulo 49545" width="0.915" height="7.201" transform="translate(510.892 434.68)" fill="#ffa412"/>
          <rect id="Rectángulo_49546" data-name="Rectángulo 49546" width="0.915" height="7.201" transform="translate(557.947 434.68)" fill="#ffa412"/>
          <rect id="Rectángulo_49547" data-name="Rectángulo 49547" width="0.915" height="7.201" transform="translate(559.894 434.68)" fill="#ffa412"/>
          <rect id="Rectángulo_49548" data-name="Rectángulo 49548" width="0.915" height="7.201" transform="translate(561.775 434.68)" fill="#ffa412"/>
          <path id="Trazado_220828" data-name="Trazado 220828" d="M1755.8,1410.884v7.151a2.354,2.354,0,0,1-.344.025h-.572v-7.2h.572a2.337,2.337,0,0,1,.344.025" transform="translate(-1191.699 -976.179)" fill="#ffa412"/>
          <path id="Trazado_220829" data-name="Trazado 220829" d="M1759.763,1411.79v5.817a1.94,1.94,0,0,1-.914.586V1411.2a1.947,1.947,0,0,1,.914.586" transform="translate(-1194.388 -976.418)" fill="#ffa412"/>
          <path id="Trazado_220830" data-name="Trazado 220830" d="M1557.469,1389.019v4.065a1.368,1.368,0,0,1-.332.877,1.866,1.866,0,0,1-.184.185,2.048,2.048,0,0,1-.732.4,2.148,2.148,0,0,1-.357.08,2.357,2.357,0,0,1-.342.026h-80.5a1.877,1.877,0,0,1-1.926-1.335,1.521,1.521,0,0,1-.018-.152.82.82,0,0,1,0-.082v-4.065c0-.026,0-.055,0-.082a1.525,1.525,0,0,1,.018-.152,1.877,1.877,0,0,1,1.926-1.335h80.5c.05,0,.1,0,.153.008a.436.436,0,0,1,.056,0,.007.007,0,0,1,.009,0,.377.377,0,0,1,.073.007l.051.007a2.21,2.21,0,0,1,.357.079c.068.022.133.046.2.073h0l.126.058.07.039a.548.548,0,0,1,.066.038,1.493,1.493,0,0,1,.236.166c.025.019.045.041.068.06s.027.024.04.036a.17.17,0,0,1,.02.022l.018.016a.8.8,0,0,1,.073.08,1.36,1.36,0,0,1,.332.874" transform="translate(-1000.367 -959.972)" fill="#ffb93e"/>
          <path id="Trazado_220831" data-name="Trazado 220831" d="M1517.942,1394.653h-43.126a1.718,1.718,0,0,1-1.671-1.164,1.2,1.2,0,0,1-.047-.172c-.007-.051-.015-.1-.018-.152,0-.027,0-.053,0-.082v-4.065c0-.026,0-.055,0-.082,0-.051.01-.1.018-.152a1.188,1.188,0,0,1,.047-.172,1.718,1.718,0,0,1,1.671-1.163h37.83c.015.06.032.119.053.179a12.612,12.612,0,0,0,5.243,7.025" transform="translate(-1000.368 -959.972)" fill="#ffa412"/>
          <rect id="Rectángulo_49549" data-name="Rectángulo 49549" width="0.915" height="7.201" transform="translate(546.392 427.478)" fill="#ffa412"/>
          <rect id="Rectángulo_49550" data-name="Rectángulo 49550" width="0.915" height="7.201" transform="translate(543.295 427.478)" fill="#ffa412"/>
          <rect id="Rectángulo_49551" data-name="Rectángulo 49551" width="0.915" height="7.201" transform="translate(539.582 427.478)" fill="#ffa412"/>
          <rect id="Rectángulo_49552" data-name="Rectángulo 49552" width="0.915" height="7.201" transform="translate(533.889 427.478)" fill="#ffa412"/>
          <rect id="Rectángulo_49553" data-name="Rectángulo 49553" width="0.915" height="7.201" transform="translate(527.87 427.478)" fill="#ffa412"/>
          <rect id="Rectángulo_49554" data-name="Rectángulo 49554" width="0.915" height="7.201" transform="translate(518.642 427.478)" fill="#ffa412"/>
          <rect id="Rectángulo_49555" data-name="Rectángulo 49555" width="0.915" height="7.201" transform="translate(510.001 427.478)" fill="#ffa412"/>
          <rect id="Rectángulo_49556" data-name="Rectángulo 49556" width="0.915" height="7.201" transform="translate(502.286 427.478)" fill="#ffa412"/>
          <rect id="Rectángulo_49557" data-name="Rectángulo 49557" width="0.915" height="7.201" transform="translate(549.34 427.478)" fill="#ffa412"/>
          <rect id="Rectángulo_49558" data-name="Rectángulo 49558" width="0.915" height="7.201" transform="translate(551.288 427.478)" fill="#ffa412"/>
          <rect id="Rectángulo_49559" data-name="Rectángulo 49559" width="0.915" height="7.201" transform="translate(553.168 427.478)" fill="#ffa412"/>
          <path id="Trazado_220832" data-name="Trazado 220832" d="M1729,1387.477v7.151a2.375,2.375,0,0,1-.344.025h-.572v-7.2h.572a2.341,2.341,0,0,1,.344.025" transform="translate(-1173.498 -959.974)" fill="#ffa412"/>
          <path id="Trazado_220833" data-name="Trazado 220833" d="M1732.956,1388.383v5.816a1.941,1.941,0,0,1-.914.587v-6.99a1.946,1.946,0,0,1,.914.587" transform="translate(-1176.188 -960.212)" fill="#ffa412"/>
          <path id="Trazado_220834" data-name="Trazado 220834" d="M1570.424,1366.193v4.068a1.35,1.35,0,0,1-.335.874,1.931,1.931,0,0,1-.913.586,2.3,2.3,0,0,1-.357.082,2.616,2.616,0,0,1-.342.024h-80.5a2.313,2.313,0,0,1-.9-.178,1.648,1.648,0,0,1-1.026-1.137c-.008-.034-.01-.068-.015-.1a.549.549,0,0,1-.005-.07.693.693,0,0,1,0-.079v-4.068a.688.688,0,0,1,0-.079.985.985,0,0,1,.018-.152,1.874,1.874,0,0,1,1.926-1.335h80.5a2.283,2.283,0,0,1,.342.024,2.138,2.138,0,0,1,.357.079,1.963,1.963,0,0,1,.913.588,1.351,1.351,0,0,1,.335.875" transform="translate(-1009.162 -944.171)" fill="#ffb93e"/>
          <path id="Trazado_220835" data-name="Trazado 220835" d="M1530.9,1371.827H1487.77a1.86,1.86,0,0,1-.8-.178,1.591,1.591,0,0,1-.916-1.137c-.007-.034-.01-.068-.015-.1s0-.046,0-.07,0-.053,0-.079v-4.068c0-.026,0-.053,0-.079a.942.942,0,0,1,.018-.152,1.234,1.234,0,0,1,.044-.168,1.715,1.715,0,0,1,1.673-1.167h37.83a12.626,12.626,0,0,0,5.032,7.022c.085.06.173.121.264.178" transform="translate(-1009.163 -944.171)" fill="#ffa412"/>
          <rect id="Rectángulo_49560" data-name="Rectángulo 49560" width="0.915" height="7.201" transform="translate(550.551 420.455)" fill="#ffa412"/>
          <rect id="Rectángulo_49561" data-name="Rectángulo 49561" width="0.915" height="7.201" transform="translate(547.455 420.455)" fill="#ffa412"/>
          <rect id="Rectángulo_49562" data-name="Rectángulo 49562" width="0.915" height="7.201" transform="translate(543.741 420.455)" fill="#ffa412"/>
          <rect id="Rectángulo_49563" data-name="Rectángulo 49563" width="0.915" height="7.201" transform="translate(538.048 420.455)" fill="#ffa412"/>
          <rect id="Rectángulo_49564" data-name="Rectángulo 49564" width="0.915" height="7.201" transform="translate(532.029 420.455)" fill="#ffa412"/>
          <rect id="Rectángulo_49565" data-name="Rectángulo 49565" width="0.915" height="7.201" transform="translate(522.801 420.455)" fill="#ffa412"/>
          <rect id="Rectángulo_49566" data-name="Rectángulo 49566" width="0.915" height="7.201" transform="translate(514.16 420.455)" fill="#ffa412"/>
          <rect id="Rectángulo_49567" data-name="Rectángulo 49567" width="0.915" height="7.201" transform="translate(506.445 420.455)" fill="#ffa412"/>
          <rect id="Rectángulo_49568" data-name="Rectángulo 49568" width="0.915" height="7.201" transform="translate(553.499 420.455)" fill="#ffa412"/>
          <rect id="Rectángulo_49569" data-name="Rectángulo 49569" width="0.915" height="7.201" transform="translate(555.447 420.455)" fill="#ffa412"/>
          <rect id="Rectángulo_49570" data-name="Rectángulo 49570" width="0.915" height="7.201" transform="translate(557.327 420.455)" fill="#ffa412"/>
          <path id="Trazado_220836" data-name="Trazado 220836" d="M1741.952,1364.649v7.151a2.347,2.347,0,0,1-.344.025h-.572v-7.2h.572a2.33,2.33,0,0,1,.344.025" transform="translate(-1182.294 -944.169)" fill="#ffa412"/>
          <path id="Trazado_220837" data-name="Trazado 220837" d="M1745.91,1365.553v5.817a1.937,1.937,0,0,1-.914.587v-6.99a1.948,1.948,0,0,1,.914.586" transform="translate(-1184.983 -944.407)" fill="#ffa412"/>
          <path id="Trazado_220838" data-name="Trazado 220838" d="M1576.432,1342.785v4.065a1.347,1.347,0,0,1-.335.875c-.027.033-.058.065-.088.1a1.9,1.9,0,0,1-.556.388,2.354,2.354,0,0,1-.269.1,2.223,2.223,0,0,1-.357.079c-.055.007-.111.014-.168.019s-.119.007-.176.007h-80.5a1.878,1.878,0,0,1-1.929-1.335,1.5,1.5,0,0,1-.018-.152V1342.7a1.769,1.769,0,0,1,1.715-1.475c.075-.007.153-.012.231-.012h80.5c.057,0,.118,0,.176.007s.113.01.168.019a2.249,2.249,0,0,1,.357.079,1.951,1.951,0,0,1,.913.586,1.352,1.352,0,0,1,.335.877" transform="translate(-1013.242 -927.963)" fill="#ffb93e"/>
          <path id="Trazado_220839" data-name="Trazado 220839" d="M1536.9,1348.42h-43.126a1.722,1.722,0,0,1-1.673-1.162,1.283,1.283,0,0,1-.047-.172,1.344,1.344,0,0,1-.017-.152V1342.7a1.656,1.656,0,0,1,1.531-1.475,2.02,2.02,0,0,1,.207-.011h37.83s0,.007,0,.011a12.634,12.634,0,0,0,5.293,7.191" transform="translate(-1013.243 -927.964)" fill="#ffa412"/>
          <rect id="Rectángulo_49571" data-name="Rectángulo 49571" width="0.915" height="7.201" transform="translate(552.48 413.253)" fill="#ffa412"/>
          <rect id="Rectángulo_49572" data-name="Rectángulo 49572" width="0.915" height="7.201" transform="translate(549.383 413.253)" fill="#ffa412"/>
          <rect id="Rectángulo_49573" data-name="Rectángulo 49573" width="0.915" height="7.201" transform="translate(545.669 413.253)" fill="#ffa412"/>
          <rect id="Rectángulo_49574" data-name="Rectángulo 49574" width="0.915" height="7.201" transform="translate(539.976 413.253)" fill="#ffa412"/>
          <rect id="Rectángulo_49575" data-name="Rectángulo 49575" width="0.915" height="7.201" transform="translate(533.957 413.253)" fill="#ffa412"/>
          <rect id="Rectángulo_49576" data-name="Rectángulo 49576" width="0.915" height="7.201" transform="translate(524.729 413.253)" fill="#ffa412"/>
          <rect id="Rectángulo_49577" data-name="Rectángulo 49577" width="0.915" height="7.201" transform="translate(516.088 413.253)" fill="#ffa412"/>
          <rect id="Rectángulo_49578" data-name="Rectángulo 49578" width="0.915" height="7.201" transform="translate(508.373 413.253)" fill="#ffa412"/>
          <rect id="Rectángulo_49579" data-name="Rectángulo 49579" width="0.915" height="7.201" transform="translate(555.427 413.253)" fill="#ffa412"/>
          <rect id="Rectángulo_49580" data-name="Rectángulo 49580" width="0.915" height="7.201" transform="translate(557.375 413.253)" fill="#ffa412"/>
          <rect id="Rectángulo_49581" data-name="Rectángulo 49581" width="0.915" height="7.201" transform="translate(559.256 413.253)" fill="#ffa412"/>
          <path id="Trazado_220840" data-name="Trazado 220840" d="M1747.958,1341.242v7.151a2.343,2.343,0,0,1-.344.025h-.572v-7.2h.572a2.31,2.31,0,0,1,.344.025" transform="translate(-1186.372 -927.964)" fill="#ffa412"/>
          <path id="Trazado_220841" data-name="Trazado 220841" d="M1751.917,1342.147v5.817a1.943,1.943,0,0,1-.914.586v-6.99a1.949,1.949,0,0,1,.914.587" transform="translate(-1189.061 -928.201)" fill="#ffa412"/>
          <path id="Trazado_220842" data-name="Trazado 220842" d="M1557.994,1319.413v4.065a1.346,1.346,0,0,1-.332.875,1.933,1.933,0,0,1-.915.588,2.115,2.115,0,0,1-.355.08.9.9,0,0,1-.113.015h-.015a.584.584,0,0,1-.06,0l-.052,0-.1,0h-80.5a1.821,1.821,0,0,1-1.946-1.487.664.664,0,0,1,0-.082v-4.065a.682.682,0,0,1,0-.082.565.565,0,0,1,0-.065,1.728,1.728,0,0,1,1.461-1.371.541.541,0,0,1,.058-.012,2.4,2.4,0,0,1,.422-.039h80.5c.06,0,.116,0,.174.008l.073.007h.008c.03,0,.06.007.09.012a2.177,2.177,0,0,1,.355.08,1.934,1.934,0,0,1,.915.588,1.346,1.346,0,0,1,.332.875" transform="translate(-1000.724 -911.782)" fill="#ffb93e"/>
          <path id="Trazado_220843" data-name="Trazado 220843" d="M1518.467,1325.048h-43.124a1.677,1.677,0,0,1-1.738-1.487c0-.026,0-.053,0-.082v-4.065c0-.027,0-.056,0-.082a.584.584,0,0,1,.005-.065,1.636,1.636,0,0,1,1.35-1.38.344.344,0,0,1,.072-.015,1.874,1.874,0,0,1,.309-.026h37.828c.005.019.01.034.015.053a12.63,12.63,0,0,0,5.263,7.137c.005,0,.013.007.018.012" transform="translate(-1000.724 -911.783)" fill="#ffa412"/>
          <rect id="Rectángulo_49582" data-name="Rectángulo 49582" width="0.915" height="7.201" transform="translate(546.561 406.064)" fill="#ffa412"/>
          <rect id="Rectángulo_49583" data-name="Rectángulo 49583" width="0.915" height="7.201" transform="translate(543.464 406.064)" fill="#ffa412"/>
          <rect id="Rectángulo_49584" data-name="Rectángulo 49584" width="0.915" height="7.201" transform="translate(539.751 406.064)" fill="#ffa412"/>
          <rect id="Rectángulo_49585" data-name="Rectángulo 49585" width="0.915" height="7.201" transform="translate(534.058 406.064)" fill="#ffa412"/>
          <rect id="Rectángulo_49586" data-name="Rectángulo 49586" width="0.915" height="7.201" transform="translate(528.039 406.064)" fill="#ffa412"/>
          <rect id="Rectángulo_49587" data-name="Rectángulo 49587" width="0.915" height="7.201" transform="translate(518.81 406.064)" fill="#ffa412"/>
          <rect id="Rectángulo_49588" data-name="Rectángulo 49588" width="0.915" height="7.201" transform="translate(510.17 406.064)" fill="#ffa412"/>
          <rect id="Rectángulo_49589" data-name="Rectángulo 49589" width="0.915" height="7.201" transform="translate(502.455 406.064)" fill="#ffa412"/>
          <rect id="Rectángulo_49590" data-name="Rectángulo 49590" width="0.915" height="7.201" transform="translate(549.51 406.064)" fill="#ffa412"/>
          <rect id="Rectángulo_49591" data-name="Rectángulo 49591" width="0.915" height="7.201" transform="translate(551.457 406.064)" fill="#ffa412"/>
          <rect id="Rectángulo_49592" data-name="Rectángulo 49592" width="0.915" height="7.201" transform="translate(553.337 406.064)" fill="#ffa412"/>
          <path id="Trazado_220844" data-name="Trazado 220844" d="M1729.525,1317.873v7.151a2.347,2.347,0,0,1-.343.025h-.572v-7.2h.572a2.33,2.33,0,0,1,.343.025" transform="translate(-1173.858 -911.785)" fill="#ffa412"/>
          <path id="Trazado_220845" data-name="Trazado 220845" d="M1733.484,1318.776v5.817a1.942,1.942,0,0,1-.914.586v-6.99a1.951,1.951,0,0,1,.914.586" transform="translate(-1176.546 -912.021)" fill="#ffa412"/>
          <path id="Trazado_220846" data-name="Trazado 220846" d="M1557.469,1296.175v4.066a1.36,1.36,0,0,1-.332.874,2.1,2.1,0,0,1-.184.188,2.045,2.045,0,0,1-.732.4,2.12,2.12,0,0,1-.277.067h-.007c-.025,0-.048.01-.073.012a2.34,2.34,0,0,1-.342.026h-80.5a2.22,2.22,0,0,1-.251-.014c-.033,0-.066-.007-.1-.012a1.786,1.786,0,0,1-1.582-1.325c-.007-.046-.012-.089-.015-.135,0-.029,0-.055,0-.082v-4.066a.813.813,0,0,1,0-.082,1.512,1.512,0,0,1,.018-.151,1.876,1.876,0,0,1,1.926-1.336h80.5c.05,0,.1,0,.153.005l.02,0a.306.306,0,0,0,.045,0c.023,0,.048.005.073.01a.193.193,0,0,1,.051.007,2.185,2.185,0,0,1,.357.079c.068.022.133.047.2.072h0a1.969,1.969,0,0,1,.644.434c.025.026.05.053.073.079a1.367,1.367,0,0,1,.332.877" transform="translate(-1000.367 -895.693)" fill="#ffb93e"/>
          <path id="Trazado_220847" data-name="Trazado 220847" d="M1517.942,1301.809h-43.126l-.1,0-.11-.009a1.673,1.673,0,0,1-1.51-1.34c-.007-.046-.012-.089-.015-.135,0-.029,0-.055,0-.082v-4.065c0-.029,0-.055,0-.082,0-.05.01-.1.018-.151a1.212,1.212,0,0,1,.047-.173,1.718,1.718,0,0,1,1.671-1.163h37.83c.015.061.032.119.053.178a12.6,12.6,0,0,0,5.165,6.972c.025.019.052.034.077.053" transform="translate(-1000.368 -895.693)" fill="#ffa412"/>
          <rect id="Rectángulo_49593" data-name="Rectángulo 49593" width="0.915" height="7.201" transform="translate(546.392 398.913)" fill="#ffa412"/>
          <rect id="Rectángulo_49594" data-name="Rectángulo 49594" width="0.915" height="7.201" transform="translate(543.295 398.913)" fill="#ffa412"/>
          <rect id="Rectángulo_49595" data-name="Rectángulo 49595" width="0.915" height="7.201" transform="translate(539.582 398.913)" fill="#ffa412"/>
          <rect id="Rectángulo_49596" data-name="Rectángulo 49596" width="0.915" height="7.201" transform="translate(533.889 398.913)" fill="#ffa412"/>
          <rect id="Rectángulo_49597" data-name="Rectángulo 49597" width="0.915" height="7.201" transform="translate(527.87 398.913)" fill="#ffa412"/>
          <rect id="Rectángulo_49598" data-name="Rectángulo 49598" width="0.915" height="7.201" transform="translate(518.642 398.913)" fill="#ffa412"/>
          <rect id="Rectángulo_49599" data-name="Rectángulo 49599" width="0.915" height="7.201" transform="translate(510.001 398.913)" fill="#ffa412"/>
          <rect id="Rectángulo_49600" data-name="Rectángulo 49600" width="0.915" height="7.201" transform="translate(502.286 398.913)" fill="#ffa412"/>
          <rect id="Rectángulo_49601" data-name="Rectángulo 49601" width="0.915" height="7.201" transform="translate(549.34 398.913)" fill="#ffa412"/>
          <rect id="Rectángulo_49602" data-name="Rectángulo 49602" width="0.915" height="7.201" transform="translate(551.288 398.913)" fill="#ffa412"/>
          <rect id="Rectángulo_49603" data-name="Rectángulo 49603" width="0.915" height="7.201" transform="translate(553.168 398.913)" fill="#ffa412"/>
          <path id="Trazado_220848" data-name="Trazado 220848" d="M1729,1294.633v7.151a2.358,2.358,0,0,1-.344.026h-.572v-7.2h.572a2.341,2.341,0,0,1,.344.025" transform="translate(-1173.498 -895.695)" fill="#ffa412"/>
          <path id="Trazado_220849" data-name="Trazado 220849" d="M1732.956,1295.538v5.817a1.939,1.939,0,0,1-.914.586v-6.99a1.944,1.944,0,0,1,.914.587" transform="translate(-1176.188 -895.932)" fill="#ffa412"/>
          <path id="Trazado_220850" data-name="Trazado 220850" d="M1570.424,1273.344v4.066a1.353,1.353,0,0,1-.335.877,1.934,1.934,0,0,1-.913.585,2.126,2.126,0,0,1-.357.08,2.348,2.348,0,0,1-.342.026h-80.5a2.319,2.319,0,0,1-.9-.178,1.649,1.649,0,0,1-1.026-1.137c-.008-.034-.01-.067-.015-.1a.586.586,0,0,1-.005-.07.7.7,0,0,1,0-.082v-4.066a.738.738,0,0,1,0-.082,1.017,1.017,0,0,1,.018-.152,1.876,1.876,0,0,1,1.926-1.335h80.5a2.3,2.3,0,0,1,.342.027,2.15,2.15,0,0,1,.357.079,1.923,1.923,0,0,1,.913.588,1.347,1.347,0,0,1,.335.875" transform="translate(-1009.162 -879.887)" fill="#ffb93e"/>
          <path id="Trazado_220851" data-name="Trazado 220851" d="M1530.9,1278.978H1487.77a1.864,1.864,0,0,1-.8-.178,1.592,1.592,0,0,1-.916-1.137c-.007-.034-.01-.067-.015-.1s0-.046,0-.07,0-.053,0-.082v-4.065c0-.026,0-.055,0-.082a.972.972,0,0,1,.018-.152,1.247,1.247,0,0,1,.044-.167,1.718,1.718,0,0,1,1.673-1.168h37.83a12.621,12.621,0,0,0,5.032,7.024c.085.06.173.118.264.178" transform="translate(-1009.163 -879.887)" fill="#ffa412"/>
          <rect id="Rectángulo_49604" data-name="Rectángulo 49604" width="0.915" height="7.201" transform="translate(550.551 391.89)" fill="#ffa412"/>
          <rect id="Rectángulo_49605" data-name="Rectángulo 49605" width="0.915" height="7.201" transform="translate(547.455 391.89)" fill="#ffa412"/>
          <rect id="Rectángulo_49606" data-name="Rectángulo 49606" width="0.915" height="7.201" transform="translate(543.741 391.89)" fill="#ffa412"/>
          <rect id="Rectángulo_49607" data-name="Rectángulo 49607" width="0.915" height="7.201" transform="translate(538.048 391.89)" fill="#ffa412"/>
          <rect id="Rectángulo_49608" data-name="Rectángulo 49608" width="0.915" height="7.201" transform="translate(532.029 391.89)" fill="#ffa412"/>
          <rect id="Rectángulo_49609" data-name="Rectángulo 49609" width="0.915" height="7.201" transform="translate(522.801 391.89)" fill="#ffa412"/>
          <rect id="Rectángulo_49610" data-name="Rectángulo 49610" width="0.915" height="7.201" transform="translate(514.16 391.89)" fill="#ffa412"/>
          <rect id="Rectángulo_49611" data-name="Rectángulo 49611" width="0.915" height="7.201" transform="translate(506.445 391.89)" fill="#ffa412"/>
          <rect id="Rectángulo_49612" data-name="Rectángulo 49612" width="0.915" height="7.201" transform="translate(553.499 391.89)" fill="#ffa412"/>
          <rect id="Rectángulo_49613" data-name="Rectángulo 49613" width="0.915" height="7.201" transform="translate(555.447 391.89)" fill="#ffa412"/>
          <rect id="Rectángulo_49614" data-name="Rectángulo 49614" width="0.915" height="7.201" transform="translate(557.327 391.89)" fill="#ffa412"/>
          <path id="Trazado_220852" data-name="Trazado 220852" d="M1741.952,1271.8v7.151a2.382,2.382,0,0,1-.344.025h-.572v-7.2h.572a2.33,2.33,0,0,1,.344.025" transform="translate(-1182.294 -879.89)" fill="#ffa412"/>
          <path id="Trazado_220853" data-name="Trazado 220853" d="M1745.91,1272.709v5.817a1.941,1.941,0,0,1-.914.586v-6.99a1.95,1.95,0,0,1,.914.586" transform="translate(-1184.983 -880.128)" fill="#ffa412"/>
          <path id="Trazado_220854" data-name="Trazado 220854" d="M1590.913,1249.94v4.067a1.358,1.358,0,0,1-.332.872l0,0c-.028.034-.058.065-.088.1a1.818,1.818,0,0,1-.43.323,2.165,2.165,0,0,1-.256.118s0,0,0,0c-.043.017-.088.034-.135.049a2.125,2.125,0,0,1-.357.079,2.236,2.236,0,0,1-.342.025h-80.5a1.875,1.875,0,0,1-1.927-1.333.98.98,0,0,1-.017-.154.789.789,0,0,1,0-.08v-4.067a.787.787,0,0,1,0-.08,1.766,1.766,0,0,1,1.715-1.475,1.849,1.849,0,0,1,.229-.012h80.5a2.638,2.638,0,0,1,.342.024,2.4,2.4,0,0,1,.357.082,1.99,1.99,0,0,1,.825.489c.03.031.061.063.088.1l0,0a1.357,1.357,0,0,1,.332.873" transform="translate(-1023.074 -863.685)" fill="#ffb93e"/>
          <path id="Trazado_220855" data-name="Trazado 220855" d="M1551.385,1255.573h-43.127a1.715,1.715,0,0,1-1.672-1.165,1.441,1.441,0,0,1-.045-.167.98.98,0,0,1-.017-.154.787.787,0,0,1,0-.08v-4.067a.783.783,0,0,1,0-.079,1.652,1.652,0,0,1,1.529-1.475,1.436,1.436,0,0,1,.206-.012h37.83a.076.076,0,0,1,0,.012,12.615,12.615,0,0,0,5.293,7.188" transform="translate(-1023.074 -863.685)" fill="#ffa412"/>
          <rect id="Rectángulo_49615" data-name="Rectángulo 49615" width="0.915" height="7.201" transform="translate(557.13 384.688)" fill="#ffa412"/>
          <rect id="Rectángulo_49616" data-name="Rectángulo 49616" width="0.915" height="7.201" transform="translate(554.033 384.688)" fill="#ffa412"/>
          <rect id="Rectángulo_49617" data-name="Rectángulo 49617" width="0.915" height="7.201" transform="translate(550.319 384.688)" fill="#ffa412"/>
          <rect id="Rectángulo_49618" data-name="Rectángulo 49618" width="0.915" height="7.201" transform="translate(544.627 384.688)" fill="#ffa412"/>
          <rect id="Rectángulo_49619" data-name="Rectángulo 49619" width="0.915" height="7.201" transform="translate(538.607 384.688)" fill="#ffa412"/>
          <rect id="Rectángulo_49620" data-name="Rectángulo 49620" width="0.915" height="7.201" transform="translate(529.379 384.688)" fill="#ffa412"/>
          <rect id="Rectángulo_49621" data-name="Rectángulo 49621" width="0.915" height="7.201" transform="translate(520.739 384.688)" fill="#ffa412"/>
          <rect id="Rectángulo_49622" data-name="Rectángulo 49622" width="0.915" height="7.201" transform="translate(513.024 384.688)" fill="#ffa412"/>
          <rect id="Rectángulo_49623" data-name="Rectángulo 49623" width="0.915" height="7.201" transform="translate(560.078 384.688)" fill="#ffa412"/>
          <rect id="Rectángulo_49624" data-name="Rectángulo 49624" width="0.915" height="7.201" transform="translate(562.025 384.688)" fill="#ffa412"/>
          <rect id="Rectángulo_49625" data-name="Rectángulo 49625" width="0.915" height="7.201" transform="translate(563.906 384.688)" fill="#ffa412"/>
          <path id="Trazado_220856" data-name="Trazado 220856" d="M1762.443,1248.4v7.151a2.4,2.4,0,0,1-.344.025h-.572v-7.2h.572a2.327,2.327,0,0,1,.344.025" transform="translate(-1196.206 -863.684)" fill="#ffa412"/>
          <path id="Trazado_220857" data-name="Trazado 220857" d="M1766.4,1249.3v5.816a1.94,1.94,0,0,1-.914.587v-6.99a1.945,1.945,0,0,1,.914.587" transform="translate(-1198.895 -863.923)" fill="#ffa412"/>
          <path id="Trazado_220858" data-name="Trazado 220858" d="M1557.994,1226.57v4.065a1.346,1.346,0,0,1-.332.875,1.931,1.931,0,0,1-.915.588,2.164,2.164,0,0,1-.355.08l-.113.014h-.015c-.025.005-.05.005-.075.008l-.046,0-.095,0h-80.5a2.082,2.082,0,0,1-1.657-.747,1.346,1.346,0,0,1-.289-.74.7.7,0,0,1,0-.082v-4.065a.657.657,0,0,1,0-.082,1.682,1.682,0,0,1,1.381-1.417,2.255,2.255,0,0,1,.566-.07h80.5l.1,0a.29.29,0,0,1,.05.005,1.705,1.705,0,0,1,.191.019,2.242,2.242,0,0,1,.355.08,1.235,1.235,0,0,1,.166.06h0a1.92,1.92,0,0,1,.563.34.031.031,0,0,1,.008.01c.007.008.015.012.022.02a1.487,1.487,0,0,1,.154.156,1.352,1.352,0,0,1,.332.877" transform="translate(-1000.724 -847.504)" fill="#ffb93e"/>
          <path id="Trazado_220859" data-name="Trazado 220859" d="M1518.467,1232.2h-43.124a1.792,1.792,0,0,1-1.453-.711,1.436,1.436,0,0,1-.284-.776c0-.029,0-.055,0-.082v-4.065c0-.028,0-.055,0-.081a1.635,1.635,0,0,1,1.386-1.453,1.891,1.891,0,0,1,.352-.033h37.828c.015.055.033.111.05.166a12.609,12.609,0,0,0,5.228,7.024.058.058,0,0,1,.018.012" transform="translate(-1000.724 -847.504)" fill="#ffa412"/>
          <rect id="Rectángulo_49626" data-name="Rectángulo 49626" width="0.915" height="7.201" transform="translate(546.561 377.498)" fill="#ffa412"/>
          <rect id="Rectángulo_49627" data-name="Rectángulo 49627" width="0.915" height="7.201" transform="translate(543.464 377.498)" fill="#ffa412"/>
          <rect id="Rectángulo_49628" data-name="Rectángulo 49628" width="0.915" height="7.201" transform="translate(539.751 377.498)" fill="#ffa412"/>
          <rect id="Rectángulo_49629" data-name="Rectángulo 49629" width="0.915" height="7.201" transform="translate(534.058 377.498)" fill="#ffa412"/>
          <rect id="Rectángulo_49630" data-name="Rectángulo 49630" width="0.915" height="7.201" transform="translate(528.039 377.498)" fill="#ffa412"/>
          <rect id="Rectángulo_49631" data-name="Rectángulo 49631" width="0.915" height="7.201" transform="translate(518.81 377.498)" fill="#ffa412"/>
          <rect id="Rectángulo_49632" data-name="Rectángulo 49632" width="0.915" height="7.201" transform="translate(510.17 377.498)" fill="#ffa412"/>
          <rect id="Rectángulo_49633" data-name="Rectángulo 49633" width="0.915" height="7.201" transform="translate(502.455 377.498)" fill="#ffa412"/>
          <rect id="Rectángulo_49634" data-name="Rectángulo 49634" width="0.915" height="7.201" transform="translate(549.51 377.498)" fill="#ffa412"/>
          <rect id="Rectángulo_49635" data-name="Rectángulo 49635" width="0.915" height="7.201" transform="translate(551.457 377.498)" fill="#ffa412"/>
          <rect id="Rectángulo_49636" data-name="Rectángulo 49636" width="0.915" height="7.201" transform="translate(553.337 377.498)" fill="#ffa412"/>
          <path id="Trazado_220860" data-name="Trazado 220860" d="M1729.525,1225.028v7.151a2.33,2.33,0,0,1-.343.026h-.572V1225h.572a2.265,2.265,0,0,1,.343.025" transform="translate(-1173.858 -847.505)" fill="#ffa412"/>
          <path id="Trazado_220861" data-name="Trazado 220861" d="M1733.484,1225.933v5.817a1.94,1.94,0,0,1-.914.586v-6.99a1.954,1.954,0,0,1,.914.587" transform="translate(-1176.546 -847.742)" fill="#ffa412"/>
          <path id="Trazado_220862" data-name="Trazado 220862" d="M1576.429,1203.7v4.067a1.349,1.349,0,0,1-.334.875,1.941,1.941,0,0,1-.914.587,2.159,2.159,0,0,1-.356.08,2.331,2.331,0,0,1-.344.025h-80.5a2.3,2.3,0,0,1-.87-.167,1.618,1.618,0,0,1-1.07-1.256c0-.021,0-.042-.006-.064s0-.054,0-.081V1203.7c0-.027,0-.054,0-.081a1.767,1.767,0,0,1,1.716-1.476c.075-.007.151-.011.23-.011h80.5a2.331,2.331,0,0,1,.344.025,2.123,2.123,0,0,1,.356.08,1.945,1.945,0,0,1,.914.586,1.35,1.35,0,0,1,.334.875" transform="translate(-1013.239 -831.674)" fill="#ffb93e"/>
          <path id="Trazado_220863" data-name="Trazado 220863" d="M1536.9,1209.339h-43.125a1.861,1.861,0,0,1-.776-.166,1.585,1.585,0,0,1-.955-1.256c0-.021,0-.042-.005-.064s0-.054,0-.081v-4.066c0-.027,0-.054,0-.081a1.652,1.652,0,0,1,1.531-1.476,1.8,1.8,0,0,1,.206-.011h37.829a.06.06,0,0,1,0,.011,12.619,12.619,0,0,0,5.045,7.024c.081.057.163.112.248.166" transform="translate(-1013.24 -831.675)" fill="#ffa412"/>
          <rect id="Rectángulo_49637" data-name="Rectángulo 49637" width="0.915" height="7.201" transform="translate(552.48 370.463)" fill="#ffa412"/>
          <rect id="Rectángulo_49638" data-name="Rectángulo 49638" width="0.915" height="7.201" transform="translate(549.383 370.463)" fill="#ffa412"/>
          <rect id="Rectángulo_49639" data-name="Rectángulo 49639" width="0.915" height="7.201" transform="translate(545.669 370.463)" fill="#ffa412"/>
          <rect id="Rectángulo_49640" data-name="Rectángulo 49640" width="0.915" height="7.201" transform="translate(539.976 370.463)" fill="#ffa412"/>
          <rect id="Rectángulo_49641" data-name="Rectángulo 49641" width="0.915" height="7.201" transform="translate(533.957 370.463)" fill="#ffa412"/>
          <rect id="Rectángulo_49642" data-name="Rectángulo 49642" width="0.915" height="7.201" transform="translate(524.729 370.463)" fill="#ffa412"/>
          <rect id="Rectángulo_49643" data-name="Rectángulo 49643" width="0.915" height="7.201" transform="translate(516.088 370.463)" fill="#ffa412"/>
          <rect id="Rectángulo_49644" data-name="Rectángulo 49644" width="0.915" height="7.201" transform="translate(508.373 370.463)" fill="#ffa412"/>
          <rect id="Rectángulo_49645" data-name="Rectángulo 49645" width="0.915" height="7.201" transform="translate(555.427 370.463)" fill="#ffa412"/>
          <rect id="Rectángulo_49646" data-name="Rectángulo 49646" width="0.915" height="7.201" transform="translate(557.375 370.463)" fill="#ffa412"/>
          <rect id="Rectángulo_49647" data-name="Rectángulo 49647" width="0.915" height="7.201" transform="translate(559.256 370.463)" fill="#ffa412"/>
          <path id="Trazado_220864" data-name="Trazado 220864" d="M1747.958,1202.162v7.151a2.343,2.343,0,0,1-.344.025h-.572v-7.2h.572a2.278,2.278,0,0,1,.344.025" transform="translate(-1186.372 -831.674)" fill="#ffa412"/>
          <path id="Trazado_220865" data-name="Trazado 220865" d="M1751.917,1203.067v5.817a1.941,1.941,0,0,1-.914.586v-6.99a1.944,1.944,0,0,1,.914.587" transform="translate(-1189.061 -831.912)" fill="#ffa412"/>
          <path id="Trazado_220866" data-name="Trazado 220866" d="M1584.276,1180.334v4.067a1.349,1.349,0,0,1-.334.875,1.942,1.942,0,0,1-.914.587,2.142,2.142,0,0,1-.356.081c-.038.005-.075.01-.114.014l-.063.005-.063,0-.1,0h-80.5a1.82,1.82,0,0,1-1.946-1.487c0-.026,0-.053,0-.081v-4.067c0-.026,0-.054,0-.081a1.82,1.82,0,0,1,1.946-1.487h80.5a2.375,2.375,0,0,1,.344.025,2.245,2.245,0,0,1,.356.081,1.945,1.945,0,0,1,.914.587,1.349,1.349,0,0,1,.334.875" transform="translate(-1018.567 -815.494)" fill="#ffb93e"/>
          <path id="Trazado_220867" data-name="Trazado 220867" d="M1544.748,1185.97h-43.126a1.677,1.677,0,0,1-1.736-1.487c0-.027,0-.053,0-.081v-4.067c0-.027,0-.053,0-.08a1.677,1.677,0,0,1,1.736-1.487h37.829a12.626,12.626,0,0,0,5.279,7.19l.018.012" transform="translate(-1018.568 -815.495)" fill="#ffa412"/>
          <rect id="Rectángulo_49648" data-name="Rectángulo 49648" width="0.915" height="7.201" transform="translate(554.999 363.273)" fill="#ffa412"/>
          <rect id="Rectángulo_49649" data-name="Rectángulo 49649" width="0.915" height="7.201" transform="translate(551.902 363.273)" fill="#ffa412"/>
          <rect id="Rectángulo_49650" data-name="Rectángulo 49650" width="0.915" height="7.201" transform="translate(548.188 363.273)" fill="#ffa412"/>
          <rect id="Rectángulo_49651" data-name="Rectángulo 49651" width="0.915" height="7.201" transform="translate(542.496 363.273)" fill="#ffa412"/>
          <rect id="Rectángulo_49652" data-name="Rectángulo 49652" width="0.915" height="7.201" transform="translate(536.476 363.273)" fill="#ffa412"/>
          <rect id="Rectángulo_49653" data-name="Rectángulo 49653" width="0.915" height="7.201" transform="translate(527.248 363.273)" fill="#ffa412"/>
          <rect id="Rectángulo_49654" data-name="Rectángulo 49654" width="0.915" height="7.201" transform="translate(518.608 363.273)" fill="#ffa412"/>
          <rect id="Rectángulo_49655" data-name="Rectángulo 49655" width="0.915" height="7.201" transform="translate(510.892 363.273)" fill="#ffa412"/>
          <rect id="Rectángulo_49656" data-name="Rectángulo 49656" width="0.915" height="7.201" transform="translate(557.947 363.273)" fill="#ffa412"/>
          <rect id="Rectángulo_49657" data-name="Rectángulo 49657" width="0.915" height="7.201" transform="translate(559.894 363.273)" fill="#ffa412"/>
          <rect id="Rectángulo_49658" data-name="Rectángulo 49658" width="0.915" height="7.201" transform="translate(561.775 363.273)" fill="#ffa412"/>
          <path id="Trazado_220868" data-name="Trazado 220868" d="M1755.805,1178.792v7.151a2.337,2.337,0,0,1-.343.025h-.572v-7.2h.572a2.32,2.32,0,0,1,.343.025" transform="translate(-1191.7 -815.494)" fill="#ffa412"/>
          <path id="Trazado_220869" data-name="Trazado 220869" d="M1759.763,1179.7v5.817a1.945,1.945,0,0,1-.915.586v-6.99a1.951,1.951,0,0,1,.915.587" transform="translate(-1194.388 -815.732)" fill="#ffa412"/>
          <path id="Trazado_220870" data-name="Trazado 220870" d="M1641.261,1028s-4.228,5.7-8.1,5.783-9.773-2.644-9.773-2.644-3.56-7.6-1.145-10.575a5.374,5.374,0,0,1,4.952.78,7.49,7.49,0,0,1,1.311,1.2,4.164,4.164,0,0,0,2.034,1.322c2.766.807,6.049-1.09,7.277.74a12.552,12.552,0,0,0,2.138,2.426,9.753,9.753,0,0,0,1.31.965" transform="translate(-1101.068 -705.77)" fill="#ffeddc"/>
          <path id="Trazado_220871" data-name="Trazado 220871" d="M1511.582,1099.539s14.944-34.7,41.844-35.36c0,0,24.83,2.644,26.21,35.36Z" transform="translate(-1026.51 -736.161)" fill="#ffeddc"/>
          <path id="Trazado_220872" data-name="Trazado 220872" d="M1618.846,1057.518s10.782,2.3,14.109.947c0,0,.5-4.32-4.038-3.714-3.108.414-5.132-1.016-6.323-1.6-1.685-.822-4.2,2.557-3.748,4.365" transform="translate(-1099.299 -728.44)" fill="#db6a1d"/>
          <path id="Trazado_220873" data-name="Trazado 220873" d="M1642.246,1030.735c-.69.5-2.807-6.986-2.807-6.986a7.5,7.5,0,0,1,1.311,1.2,4.17,4.17,0,0,0,2.034,1.322c.007.218.131,3.979-.538,4.462" transform="translate(-1113.316 -708.17)" fill="#e5c1a1"/>
          <path id="Trazado_220874" data-name="Trazado 220874" d="M1666.729,1036.787c-.152.085-5.138,2.948-5.814,2.948s3.676-5.374,3.676-5.374a12.578,12.578,0,0,0,2.138,2.426" transform="translate(-1127.847 -715.517)" fill="#e5c1a1"/>
          <path id="Trazado_220875" data-name="Trazado 220875" d="M1557.042,1112.893c-.277-.226,10.576-15.312,13.565-15.422s9.7,3.3,14.565,3.745,9.575-.881,10.495,1.873,3.449,12.518,1.9,14.08-34.554.609-40.521-4.276" transform="translate(-1057.371 -759.209)" fill="#f9ddbf"/>
          <g id="Grupo_156759" data-name="Grupo 156759" transform="translate(472.711 368.42)" opacity="0.5">
            <g id="Grupo_156758" data-name="Grupo 156758">
              <g id="Grupo_156757" data-name="Grupo 156757" clip-path="url(#clip-path-3)">
                <path id="Trazado_220876" data-name="Trazado 220876" d="M1510.259,1233.14c0,.019,0,.036-.006.053a33.191,33.191,0,0,1-1.206,7.138.109.109,0,0,0,0,.011q-.143.506-.3,1.01a34.468,34.468,0,0,1-2.653,6.181,35.827,35.827,0,0,1-5.057,7.022c-.053.06-.109.121-.164.178a38.446,38.446,0,0,1-8.843,7.024q-1.071.625-2.2,1.193c-.508.255-1.017.5-1.531.73-.49.272-1.008.506-1.5.793a21.422,21.422,0,0,1-5.115,2.017v-3.166c0-.026,0-.053,0-.079,0-.053.01-.1.017-.154a1.272,1.272,0,0,1,.047-.173,1.721,1.721,0,0,1,1.673-1.16h-8.608a1.718,1.718,0,0,1-1.671-1.163,1.277,1.277,0,0,1-.047-.172c-.007-.05-.015-.1-.017-.152a.817.817,0,0,1,0-.082v-4.065c0-.027,0-.055,0-.082,0-.051.01-.1.017-.152a1.284,1.284,0,0,1,.047-.172,1.719,1.719,0,0,1,1.671-1.163h3.36a1.591,1.591,0,0,1-.915-1.138c-.008-.034-.01-.067-.015-.1a.679.679,0,0,1-.005-.07.793.793,0,0,1,0-.079V1249.1a.786.786,0,0,1,0-.08,1.093,1.093,0,0,1,.018-.152,1.4,1.4,0,0,1,.045-.168,1.715,1.715,0,0,1,1.673-1.167h1.928a1.722,1.722,0,0,1-1.673-1.162,1.316,1.316,0,0,1-.047-.173c-.007-.051-.015-.1-.018-.152v-4.229a1.657,1.657,0,0,1,1.531-1.475h-5.711a1.677,1.677,0,0,1-1.737-1.486.694.694,0,0,1,0-.082v-4.065a.711.711,0,0,1,0-.082c0-.021,0-.043,0-.065a1.637,1.637,0,0,1,1.351-1.381,1.673,1.673,0,0,1-1.509-1.34c-.007-.046-.012-.089-.015-.135,0-.029,0-.055,0-.082v-4.066a.805.805,0,0,1,0-.082c0-.05.01-.1.017-.152a1.3,1.3,0,0,1,.047-.172,1.718,1.718,0,0,1,1.671-1.163h3.36a1.591,1.591,0,0,1-.915-1.138c-.008-.033-.01-.067-.015-.1s-.005-.046-.005-.07a.815.815,0,0,1,0-.082v-4.065c0-.026,0-.055,0-.082a1.119,1.119,0,0,1,.018-.152,1.344,1.344,0,0,1,.045-.167,1.716,1.716,0,0,1,1.673-1.168h6.578a1.716,1.716,0,0,1-1.673-1.165,1.354,1.354,0,0,1-.045-.167,1.123,1.123,0,0,1-.018-.155c0-.026,0-.053,0-.08v-4.067c0-.027,0-.053,0-.08a1.653,1.653,0,0,1,1.529-1.475h-10.361a1.792,1.792,0,0,1-1.454-.711l.005-.036,1.091-6.385,0-.036,1.554-9.112a43.056,43.056,0,0,1,5.333,1.029l.307.079.02.007q1.528.408,3.015.928a.154.154,0,0,1,.028.01,40.3,40.3,0,0,1,12.5,7.024c.065.053.13.109.193.167a36.777,36.777,0,0,1,5.241,5.41q.471.593.913,1.208c.1.135.2.27.289.407a.013.013,0,0,1,.007.012q.713,1.009,1.353,2.07a34.807,34.807,0,0,1,2.547,5.118,33.123,33.123,0,0,1,1.951,7.024c.013.06.021.119.03.178a32.977,32.977,0,0,1,.344,6.971" transform="translate(-1473.078 -1195.498)" fill="#e2810e"/>
              </g>
            </g>
          </g>
          <path id="Trazado_220877" data-name="Trazado 220877" d="M1319.483,1238.687c-10.557-18.351-3.59-41.429,15.561-51.545s43.233-3.441,53.789,14.911,3.591,41.429-15.561,51.545-43.233,3.44-53.789-14.911" transform="translate(-892.742 -818.024)" fill="#e2810e"/>
          <path id="Trazado_220878" data-name="Trazado 220878" d="M1365.338,1257.964q-.732.428-1.488.827c-.171.09-.341.179-.512.265-.39.2-.781.391-1.174.578-18.855,8.874-41.853,2.063-52.1-15.755-9.777-16.995-4.522-38.045,11.52-49.1a40.042,40.042,0,0,1,4.04-2.446q.762-.4,1.533-.769.749-.358,1.51-.681a40.824,40.824,0,0,1,11.884-3.062,41.246,41.246,0,0,1,21.616,3.668,38.748,38.748,0,0,1,17.247,15.755c10.278,17.869,3.945,40.216-14.073,50.719" transform="translate(-886.344 -821.619)" fill="#ffb93e"/>
          <path id="Trazado_220879" data-name="Trazado 220879" d="M1354.178,1269.758a37.063,37.063,0,0,1-9.909-1.355,35,35,0,0,1-21.211-16.245,32.526,32.526,0,0,1-3.01-25.86A34.083,34.083,0,0,1,1337,1205.973c17.132-9.051,38.753-3.056,48.2,13.36s3.189,37.136-13.942,46.185a36.5,36.5,0,0,1-17.077,4.24m-.109-67.088a35.491,35.491,0,0,0-16.608,4.105,33.161,33.161,0,0,0-16.495,19.777,31.643,31.643,0,0,0,2.929,25.162,34.059,34.059,0,0,0,20.638,15.808,35.624,35.624,0,0,0,26.258-2.807c16.669-8.806,22.755-28.966,13.566-44.939a34.825,34.825,0,0,0-30.289-17.1" transform="translate(-895.51 -831.409)" fill="#ffa412"/>
          <path id="Trazado_220880" data-name="Trazado 220880" d="M1411.474,1259.394c-.078-.187-.161-.368-.245-.545a9.956,9.956,0,0,0-2.4-3.288,10.833,10.833,0,0,0-3.78-2.132,18.791,18.791,0,0,0-4.8-.865q-2.651-.156-5.769-.072a28.948,28.948,0,0,1-3.295-.064,8.549,8.549,0,0,1-2.318-.486,4.073,4.073,0,0,1-1.548-1,5.244,5.244,0,0,1-.984-1.555,5.558,5.558,0,0,1-.447-1.823,3.775,3.775,0,0,1,.281-1.715,4.2,4.2,0,0,1,1.1-1.5,6.5,6.5,0,0,1,2.019-1.177,5.3,5.3,0,0,1,4.325.039,7.1,7.1,0,0,1,3.27,3.921l8.067-3.138a14.375,14.375,0,0,0-2.641-4.2,11.549,11.549,0,0,0-3.576-2.646,12.013,12.013,0,0,0-4.332-1.092,15.55,15.55,0,0,0-4.868.476l-2.285-5.391-4.465,1.737,2.252,5.317a16.746,16.746,0,0,0-4.1,2.8,12.014,12.014,0,0,0-2.583,3.451,9.289,9.289,0,0,0-.95,3.9,10.015,10.015,0,0,0,.85,4.154,10.411,10.411,0,0,0,2.659,3.857,10.677,10.677,0,0,0,3.775,2.119,18.6,18.6,0,0,0,4.806.835q2.659.138,5.784-.006a22.385,22.385,0,0,1,3.147.02,8.54,8.54,0,0,1,2.306.491,4.367,4.367,0,0,1,1.615,1.05,5.657,5.657,0,0,1,1.086,1.718,4.578,4.578,0,0,1,.385,1.833,3.761,3.761,0,0,1-.43,1.745,4.955,4.955,0,0,1-1.282,1.541,7.8,7.8,0,0,1-2.166,1.219,9.617,9.617,0,0,1-2.367.589,5.454,5.454,0,0,1-4.569-1.58,8.145,8.145,0,0,1-1.764-2.742l-8.065,3.139a13.3,13.3,0,0,0,3.172,4.726,11.545,11.545,0,0,0,4.179,2.5,13.3,13.3,0,0,0,4.748.656,20.934,20.934,0,0,0,4.891-.775l2.083,4.92,4.437-1.727-2.094-4.942a18.045,18.045,0,0,0,4.141-2.771,11.769,11.769,0,0,0,2.5-3.127c.049-.09.1-.181.141-.273a9.183,9.183,0,0,0,.973-3.88,10.07,10.07,0,0,0-.869-4.234" transform="translate(-935.409 -851.755)" fill="#ffa412"/>
          <g id="Grupo_156762" data-name="Grupo 156762" transform="translate(690.062 340.728)" opacity="0.7">
            <g id="Grupo_156761" data-name="Grupo 156761">
              <g id="Grupo_156760" data-name="Grupo 156760" clip-path="url(#clip-path-4)">
                <path id="Trazado_220881" data-name="Trazado 220881" d="M2220.466,1258.373s7.609-8.506.47-13.909c0,0-5.216-3.026-9.468-2.78,0,0,6.026,9.683,4.076,10.646s-5.9-11.253-5.9-11.253-11.868-1.1-15.685.656c0,0,10.145,7.956,8.008,8.43s-13.1-7.335-13.1-7.335-11.045,1.8-10.456,8.258,4.4,8.451,6.068,8.279,11.457-3.751,11.67-2.438-5.676,5.606-9.8,5.806c0,0,7.788,8.23,12.963,5.855s5.617-6.14,8.843-7.552,5.98-1.408,4.649.032-7.171,2.839-9.017,5.967-3.5,5.237,1.854,4.465,14.059-4.527,14.441-8.826Z" transform="translate(-2169.291 -1199.125)" fill="#0e8282"/>
                <path id="Trazado_220882" data-name="Trazado 220882" d="M2195.365,1274.829s30-1.108,36.626,7.114a20.755,20.755,0,0,0,5.974,8.034l.7,1.836s-5.2-5.252-7.059-5.57c0,0,2.909-10.186-36.244-11.413" transform="translate(-2180.816 -1222.695)" fill="#1b3f5e"/>
                <path id="Trazado_220883" data-name="Trazado 220883" d="M2324.466,1322.55s6.44,4.564,6.887,12.718l-1.169.1s-2.057-8.431-5.773-11.728.055-1.09.055-1.09" transform="translate(-2267.318 -1255.267)" fill="#1b3f5e"/>
                <path id="Trazado_220884" data-name="Trazado 220884" d="M2367.686,1215.861s-10.67-5.726-5.691-13.5c0,0,3.983-4.772,8.251-6,0,0-2.276,11.588,0,11.861s1.565-13.088,1.565-13.088,11.238-5.18,15.649-4.771c0,0-6.971,11.315-4.694,11.042s10.1-11.724,10.1-11.724,11.523-2.045,13.373,4.5-1.139,9.816-2.846,10.225-12.661.273-12.376,1.636,7.682,3.545,11.807,2.317c0,0-4.552,10.77-10.527,10.224s-7.825-4.089-11.524-4.362-6.4.682-4.552,1.636,8.109.313,11.1,2.747,5.406,3.934-.142,5.024-15.507.409-17.5-3.681Z" transform="translate(-2293.048 -1163.573)" fill="#3e9a9a"/>
                <path id="Trazado_220885" data-name="Trazado 220885" d="M2409.791,1211.636s-29.875,9.27-33.29,19.631a21.012,21.012,0,0,1-2.845,9.952v2.045s3.13-6.953,4.837-7.907c0,0-6.687-9,31.3-23.721" transform="translate(-2301.864 -1178.979)" fill="#1b3f5e"/>
                <path id="Trazado_220886" data-name="Trazado 220886" d="M2367.757,1304.924a18.232,18.232,0,0,0-1.98,14.865l1.185-.305s-1.15-8.989,1.26-13.51-.465-1.05-.465-1.05" transform="translate(-2295.965 -1242.685)" fill="#1b3f5e"/>
                <path id="Trazado_220887" data-name="Trazado 220887" d="M2208.569,1145.085s15.955-8.562,8.51-20.182c0,0-5.957-7.135-12.338-8.97,0,0,3.4,17.328,0,17.736s-2.34-19.57-2.34-19.57-16.806-7.747-23.4-7.135c0,0,10.423,16.92,7.02,16.512s-15.1-17.532-15.1-17.532-17.231-3.058-20,6.727,1.7,14.677,4.255,15.29,18.933.407,18.508,2.446-11.487,5.3-17.657,3.466c0,0,6.808,16.1,15.742,15.289s11.7-6.115,17.231-6.523,9.574,1.019,6.808,2.446-12.125.467-16.593,4.107-8.083,5.882.213,7.513,23.188.612,26.166-5.5Z" transform="translate(-2150.047 -1105.492)" fill="#0e8282"/>
                <path id="Trazado_220888" data-name="Trazado 220888" d="M2177.281,1138.766s44.674,13.862,49.78,29.355a31.415,31.415,0,0,0,4.255,14.881v3.058s-4.68-10.4-7.233-11.824c0,0,10-13.454-46.8-35.47" transform="translate(-2168.538 -1128.529)" fill="#1b3f5e"/>
                <path id="Trazado_220889" data-name="Trazado 220889" d="M2341.063,1278.265s6.89,10.026,2.962,22.229l-1.773-.456s1.721-13.441-1.884-20.2.695-1.571.695-1.571" transform="translate(-2278.287 -1223.791)" fill="#1b3f5e"/>
                <path id="Trazado_220890" data-name="Trazado 220890" d="M2272.865,1372.521c-15.217,0-27.551-11.82-27.551-26.4h55.1c0,14.581-12.335,26.4-27.551,26.4" transform="translate(-2214.729 -1272.086)" fill="#3e9a9a"/>
                <rect id="Rectángulo_49660" data-name="Rectángulo 49660" width="56.634" height="0.81" transform="translate(29.959 74.033)" fill="#1b3f5e"/>
                <path id="Trazado_220891" data-name="Trazado 220891" d="M2313.223,1427.166h-25.8a2.165,2.165,0,0,1,2.209-2.117h21.376a2.165,2.165,0,0,1,2.21,2.117" transform="translate(-2243.32 -1326.732)" fill="#1b3f5e"/>
              </g>
            </g>
          </g>
          <path id="Trazado_220892" data-name="Trazado 220892" d="M1051.207,791.636c-35.45,27.659-77.919,48.92-126.232,63.193-39.243,11.59-82.721,18.692-129.233,21.111-12.683.66-25.037.948-36.928.948-24.045,0-46.216-1.171-65.539-2.8l7.818-35.445a719.589,719.589,0,0,0,92.841,1.385c43.771-2.272,84.535-8.912,121.154-19.726,44.064-13.019,82.6-32.254,114.541-57.178Z" transform="translate(-470.932 -527.729)" fill="#ef6f6c"/>
          <path id="Trazado_220893" data-name="Trazado 220893" d="M901.845,622.95a11.677,11.677,0,0,0-8.88-.91c-15.082-1.7-19.483,15.159-19.278,20.959s.895,12.029-5.841,19.564c-19.457,21.765,21.293,22.725,21.293,22.725.344-17.389,22.1-11.044,21.144-9.282,27.885,6.413,2.773-47.481-8.438-53.055" transform="translate(-585.881 -429.723)" fill="#163560"/>
          <path id="Trazado_220894" data-name="Trazado 220894" d="M769.913,851.36s-2.653-3.87-4.79-3.945-6.1-1.138-5.78-.38,2.772.835,3.009,1.29-3.642,1.138-4.751,1.214-3.721,0-3.642.531,4.709,2.732,7.976,2.428a23.052,23.052,0,0,1,7.3.91Z" transform="translate(-512.131 -585.637)" fill="#ffb27d"/>
          <path id="Trazado_220895" data-name="Trazado 220895" d="M838.608,796.242a37.974,37.974,0,0,1-4.057,5.879c-3.152,3.783-8.012,8.153-14.114,9.016a15.735,15.735,0,0,1-8.385-1.3l-.009,0c-7.411-3.152-12.983-10.4-12.983-10.4a5.658,5.658,0,0,1,.832-5.729s14.964,3.225,16.389,2.543,9.739-23.633,11.717-26.517,8.727-4.382,8.727-4.382Z" transform="translate(-542.466 -529.267)" fill="#f99746"/>
          <path id="Trazado_220896" data-name="Trazado 220896" d="M862.921,867.781c-3.152,3.783-8.012,8.154-14.114,9.016a15.735,15.735,0,0,1-8.384-1.3c.289.036,7.691.913,10.641-4.145,3.009-5.16,6.263-13.354,10.734-10.623,1.929,1.179,1.843,4.108,1.123,7.056" transform="translate(-570.836 -594.927)" fill="#ed7d2b"/>
          <path id="Trazado_220897" data-name="Trazado 220897" d="M1062.038,1364.625s4.566,3.994,3.675,6.831-5.011,4.728-5.568,8.2-2.784,5.359-4.789,5.359H1045.8s-1.476-2.44,2.088-3.176,4.907-4.81,4.685-8.593a63.933,63.933,0,0,1,.333-8.828l7.573-1.681Z" transform="translate(-710.067 -942.861)" fill="#36599e"/>
          <path id="Trazado_220898" data-name="Trazado 220898" d="M921.63,1374.392s1.642,16.916-.362,17.862l-25.655-.05s0-2.838,4.121-3.468,11.359-2.942,12.585-8.092,9.311-6.252,9.311-6.252" transform="translate(-608.306 -950.932)" fill="#2b478b"/>
          <path id="Trazado_220899" data-name="Trazado 220899" d="M942.3,795.762c-5.279-11.345-8.51-14.6-7.893-18.123.459-2.621-1.4-48.866-1.4-48.866-.626-.186-1.882-.353-2.568-.5a6.363,6.363,0,0,1-4.7-3.92,30.264,30.264,0,0,1-1.6-10.434l-.676.127L912.1,716.2s.259,3.43.266,6.66c0,.027,0,.053,0,.08a6.309,6.309,0,0,1-4.72,6.06c-1.436.4-2.686.736-2.686.736a96.365,96.365,0,0,0-4.973,23.159c-.8,11.735,7.593,16.833-.063,40.284-7.816,23.951,45.3,8.848,42.382,2.578" transform="translate(-610.698 -493.664)" fill="#ffb27d"/>
          <path id="Trazado_220900" data-name="Trazado 220900" d="M939.506,716.491s.259,3.429.266,6.66c6.363-.172,9.727-5.735,11.1-8.818Z" transform="translate(-638.107 -493.951)" fill="#e8945b"/>
          <path id="Trazado_220901" data-name="Trazado 220901" d="M922.283,676.511s15.055.238,15.065-8.749,1.961-15.008-7.651-15.54-11.483,2.9-12.248,5.894.919,18.1,4.834,18.395" transform="translate(-623.009 -450.912)" fill="#ffb27d"/>
          <path id="Trazado_220902" data-name="Trazado 220902" d="M934.623,647.52s4.122,10.543,10.448,12.1,9.07-.066,9.07-.066a17.072,17.072,0,0,1-5.859-10.142s-10.549-6.913-13.659-1.895" transform="translate(-634.792 -446.43)" fill="#163560"/>
          <path id="Trazado_220903" data-name="Trazado 220903" d="M921.685,650.544s-3.057,1.1-4.314,3.231a14.047,14.047,0,0,0-2.035,8.25s-3.106-7.166.385-11.219c3.7-4.3,5.965-.262,5.965-.262" transform="translate(-620.832 -448.598)" fill="#163560"/>
          <path id="Trazado_220904" data-name="Trazado 220904" d="M931.593,712.036a3.846,3.846,0,0,1-3.117,1.216,2.755,2.755,0,0,1-2.32-1.468,10.538,10.538,0,0,1,5.437.252" transform="translate(-629.043 -492.012)" fill="#ebf3fa"/>
          <path id="Trazado_220905" data-name="Trazado 220905" d="M940.1,782.65a93.9,93.9,0,0,1,0,11.364c-.255,4.108-4.591,9.611-5.207,10.973-1.544,3.414-3.285,3.969-3.285,3.969l-13.47,3.164L913.4,813.23l-14.936-4.275s-6.8-18.2-4.071-28.438a76.856,76.856,0,0,1,6.9-17.355s12.187,11.435,28.056-.97Z" transform="translate(-607.038 -527.085)" fill="#f99746"/>
          <path id="Trazado_220906" data-name="Trazado 220906" d="M894.729,923.163s-7.4,22.062-7.872,29.573S901,1059.441,901.584,1062.9c.554,3.262,4.782,5.342,4.782,5.342a6.645,6.645,0,0,0,4.719.348c3.85-1.042,5.067-2.289,5.067-2.289s5.757-70.744,2.194-96.015a383.763,383.763,0,0,1-3.6-47.125Z" transform="translate(-602.354 -638.531)" fill="#233862"/>
          <path id="Trazado_220907" data-name="Trazado 220907" d="M947.886,921.025s11.283,14.506,12.334,24.313,1.65,44.252,3.891,53.812,10.474,27.956,10.474,57.774a6.136,6.136,0,0,1-3.5,2.619,29.919,29.919,0,0,1-3.076.815,4.9,4.9,0,0,1-5.409-2.461c-5.567-10.739-23.3-45.377-24.206-52.567-.643-5.089-6.242-38.764-18.454-58.525-2.931-4.744,1.8-23.61,1.8-23.61Z" transform="translate(-624.173 -637.051)" fill="#2b478b"/>
          <path id="Trazado_220908" data-name="Trazado 220908" d="M930.949,712.427s-.26,1.059-3.01.9c0,0-2.308-.137-2.238-1.3a7.726,7.726,0,0,1,5.247.4" transform="translate(-628.734 -492.163)" fill="#fff"/>
          <path id="Trazado_220909" data-name="Trazado 220909" d="M906.831,912.094s2.969,2.251,8.868,2.364c7.046.136,24.5-1.721,24.5-1.721a13.337,13.337,0,0,1,.745,4.27s-21.323,5.154-33.678.753a7.207,7.207,0,0,1-.439-5.666" transform="translate(-615.638 -630.868)" fill="#233862"/>
          <path id="Trazado_220910" data-name="Trazado 220910" d="M923.276,923a3.5,3.5,0,1,1,3.215-3.487A3.363,3.363,0,0,1,923.276,923m0-5.953a2.489,2.489,0,1,0,2.149,2.466,2.327,2.327,0,0,0-2.149-2.466" transform="translate(-624.905 -633.589)" fill="#fff"/>
          <path id="Trazado_220946" data-name="Trazado 220946" d="M0,0,28.446.6l.819,38.711-28.446-.6Z" transform="matrix(0.754, -0.657, 0.657, 0.754, 299.636, 274.79)" fill="#b5453c"/>
          <path id="Trazado_220911" data-name="Trazado 220911" d="M979.443,925.282s-8,.9-7.979,2.718,1.994,5.561,2.983,5.727,6.515-5.058,6.515-5.058Z" transform="translate(-659.804 -639.998)" fill="#ffb27d"/>
          <path id="Trazado_220912" data-name="Trazado 220912" d="M994.4,762.192s10.687.718,14.783,10.261,11.869,25.565,11.869,28.26-4.342,11-27.659,15.782c0,0-2.412-2.431-2.265-4.354,0,0,14.555-11.98,14.515-13.38-.074-2.649-2.386-6.145-15.165-18.395-3.475-3.33,3.921-18.174,3.921-18.174" transform="translate(-672.082 -527.085)" fill="#f99746"/>
          <path id="Trazado_220913" data-name="Trazado 220913" d="M282.086,1274.313h-.106a1.084,1.084,0,0,1-1.108-1.086l1.68-69.8,4.95-.553-4.221,70.357a1.177,1.177,0,0,1-1.2,1.082" transform="translate(-190.937 -832.185)" fill="#95c0f4"/>
          <path id="Trazado_220914" data-name="Trazado 220914" d="M521.127,1274.313h.106a1.085,1.085,0,0,0,1.108-1.086l-1.68-69.8-4.951-.553,4.222,70.357a1.177,1.177,0,0,0,1.2,1.082" transform="translate(-350.377 -832.185)" fill="#b0d4ff"/>
          <path id="Trazado_220915" data-name="Trazado 220915" d="M274.437,1048.683v-47.829c0-8.416,7.12-15.238,15.9-15.238H326.3c8.782,0,15.9,6.823,15.9,15.238v49.657Z" transform="translate(-186.568 -681.769)" fill="#b0d4ff"/>
          <path id="Trazado_220916" data-name="Trazado 220916" d="M348.645,1198.153H279.212a4.678,4.678,0,0,1-4.774-4.575V1190.6h74.208Z" transform="translate(-186.568 -823.688)" fill="#95c0f4"/>
          <path id="Trazado_220917" data-name="Trazado 220917" d="M412.936,1198.153H360.408a3.459,3.459,0,0,1-3.531-3.383v-.784a3.459,3.459,0,0,1,3.531-3.383h52.528a3.46,3.46,0,0,1,3.531,3.383v.784a3.459,3.459,0,0,1-3.531,3.383" transform="translate(-242.539 -823.688)" fill="#b0d4ff"/>
          <path id="Trazado_220918" data-name="Trazado 220918" d="M443.531,1148.7c-5.152,8.592-11.631,11.909-11.631,11.909H404.944s42.517-18.464,38.587-11.909" transform="translate(-275.174 -793.703)" fill="#233862"/>
          <path id="Trazado_220919" data-name="Trazado 220919" d="M459.289,1319.723a2.313,2.313,0,0,0-.444,2.554.02.02,0,0,0,.007.012c.643,1.7,2.767,3.6,5.234,5.5.316.245.6.466.84.671.064.054.129.108.189.162s.1.085.145.125c2.3,2.032,1.434,2.5,5.568,6.622,4.713,4.7,7.958,4.784,8.881,4.356.781-.365-.806-2.858-2.564-5.659-.085-.135-.168-.271-.256-.409-.234-.372-.466-.75-.7-1.124-2.06-3.371-1.531-4.954-1.043-9.971.4-4.077,6.619-22.778,6.619-22.778l-9.032-1.491s-2.72,14.892-5.717,17.185c-1.6,1.222-3.4,1.238-4.936,2.144q-.164.1-.321.194a11.792,11.792,0,0,0-2.471,1.9" transform="translate(-311.635 -898.249)" fill="#ffb27d"/>
          <path id="Trazado_220920" data-name="Trazado 220920" d="M459.289,1363.218a2.312,2.312,0,0,0-.444,2.554.021.021,0,0,0,.007.013c.787,1.7,2.858,3.593,5.243,5.485.312.248.587.476.831.689.064.054.129.108.189.162s.1.085.145.125c2.3,2.032,1.434,2.5,5.568,6.622,4.713,4.7,7.958,4.784,8.881,4.356.781-.365-.806-2.858-2.564-5.659a20.121,20.121,0,0,1-8.4-5.932c-2.838-3.471-4.73-7.93-6.663-10.513-.109.063-.216.128-.321.194a11.75,11.75,0,0,0-2.471,1.9" transform="translate(-311.635 -941.744)" fill="#233862"/>
          <path id="Trazado_220921" data-name="Trazado 220921" d="M672.208,1308.391c.557,2.672,4.532,2.226,8.972,1.186s3.385.2,9.7-.474,8.233-2.928,8.426-3.828c.173-.8-2.95-1.08-6.3-1.45-.421-.045-.844-.1-1.267-.145-3.781-.455-6.55-2.792-9.985-4.713-3.253-1.819-8.108-9.229-8.108-9.229l-8.666.657s4.547,6.619,6.307,9.5c1.035,1.693.979,3.931.851,5.659a10.218,10.218,0,0,0,.067,2.841" transform="translate(-451.724 -892.323)" fill="#ffb27d"/>
          <path id="Trazado_220922" data-name="Trazado 220922" d="M696.175,1341.278c4.44-1.04,3.385.2,9.7-.474s8.233-2.929,8.426-3.829c.173-.8-2.95-1.08-6.3-1.45l-.031.061a18.316,18.316,0,0,1-9.05,2.7c-4.287.1-8.828-1.077-11.788-1.032a10.2,10.2,0,0,0,.067,2.841c.557,2.672,4.531,2.226,8.971,1.186" transform="translate(-466.719 -924.023)" fill="#233862"/>
          <path id="Trazado_220923" data-name="Trazado 220923" d="M521.177,1147.822l-8.1,20.889L502.5,1195.988a17.88,17.88,0,0,1-5.619-.492,24.792,24.792,0,0,1-5.434-2.535s2.937-29.286,8.415-46.1c1.4-4.315,2.978-7.805,4.714-9.771,8.492-9.618,16.6,10.73,16.6,10.73" transform="translate(-333.903 -784.854)" fill="#233862"/>
          <path id="Trazado_220924" data-name="Trazado 220924" d="M392.69,1060.561c-5.307-1.64-20.445.466-35.651,3.319l-3.184-5.032-32.844-2.458s-10.838,23.032-4.9,37.707a5.55,5.55,0,0,0,5.559,3.586s.478,0,.48,0,19.548-.011,25.9-.011c16.334,0,34.568-10.759,36.927-11.211,3.862-.74,5.405,6.66,9.267,14.429s36.293,34.408,36.293,34.408,4.985.047,7.044-.693a6.954,6.954,0,0,0,3.025-1.829s-35.937-68.514-47.905-72.214" transform="translate(-213.654 -730.768)" fill="#2b478b"/>
          <path id="Trazado_220925" data-name="Trazado 220925" d="M315.685,760.561c-4.208-2.117-10.609-2.4-11.65-2.538C291.59,756.42,284.1,773.751,283.658,779c-.812,9.679-6.155,11.155-13.676,17.216-15.08,12.154-10.658,26.278-2.412,31.526,4.947,3.149,13.668,0,13.668,0,.124.083,23.85-12.71,35.546-18.881,17.533-2.388,9.622-42.906-1.1-48.3" transform="translate(-176.775 -524.127)" fill="#b5453c"/>
          <path id="Trazado_220926" data-name="Trazado 220926" d="M372.464,866.772c.051.032-5.754,1.931-9.636.284-3.653-1.547-6.419-7.3-6.365-7.308,1.661-.073,3.485-1.465,4.89-10.6l.708.244,11.9,4.1s-.862,3.657-1.42,7.14c-.469,2.924-.721,5.725-.072,6.138" transform="translate(-242.257 -587.289)" fill="#ffb27d"/>
          <path id="Trazado_220927" data-name="Trazado 220927" d="M385.793,854.04s-.862,3.658-1.419,7.14c-6.832-1.178-9.514-7.7-10.476-11.241Z" transform="translate(-254.096 -587.836)" fill="#ed975d"/>
          <path id="Trazado_220928" data-name="Trazado 220928" d="M385.045,813.337s-16.275-2.093-14.758-11.785.437-16.49,10.892-15.563,11.891,4.914,12.206,8.267-4.067,19.376-8.34,19.081" transform="translate(-251.576 -543.503)" fill="#ffb27d"/>
          <path id="Trazado_220929" data-name="Trazado 220929" d="M382.917,787.016s-10.418,8.6-17.5,9.3-9.769-1.486-9.769-1.486a26.717,26.717,0,0,0,6.691-8.687,4.974,4.974,0,0,1,4.108-2.815c5.06-.418,14.653-.61,16.476,3.69" transform="translate(-241.702 -541.575)" fill="#b5453c"/>
          <path id="Trazado_220930" data-name="Trazado 220930" d="M420.306,789.081s3.486,3.229,4.583,5.625c1.059,2.312,1.377,7.84.534,10.035,0,0,5.43-10.118,2.356-15.034-3.26-5.213-7.472-.625-7.472-.625" transform="translate(-285.604 -544.41)" fill="#b5453c"/>
          <path id="Trazado_220931" data-name="Trazado 220931" d="M356.634,912.767c-.492,31.569-.135,24.973-3.739,27.968-.869.721-3.309,1.151-6.522,1.355-10.1.643-27.859-.953-28.535-2.741-2.33-6.19-.685-8.113-2.629-17.59-.2-1.008-.454-2.1-.748-3.287-1.62-6.509-3.2-8.723,2.552-19.18,5.215-9.472,10.632-17.16,11.12-16.883,13.758,7.827,14.868,1.248,14.868,1.248s13.874,13.711,13.633,29.11" transform="translate(-212.723 -610.31)" fill="#8c9df4"/>
          <path id="Trazado_220932" data-name="Trazado 220932" d="M513.075,1196.509,502.5,1223.785a17.865,17.865,0,0,1-5.619-.492,24.8,24.8,0,0,1-5.434-2.535s2.937-29.287,8.415-46.1Z" transform="translate(-333.903 -812.651)" fill="#2b478b"/>
          <path id="Trazado_220933" data-name="Trazado 220933" d="M406.526,886.476s14.157,2.3,15.819,8.141S433.791,934.8,433.791,934.8s-7.2,1.239-10.522-1.947S411.7,903.29,411.7,903.29Z" transform="translate(-276.248 -613.132)" fill="#8c9df4"/>
          <path id="Trazado_220934" data-name="Trazado 220934" d="M351.127,1001.068c-10.1.643-27.859-.953-28.535-2.741-2.33-6.19-.685-8.113-2.629-17.59l4.872-13.147s-.806,14.64,3.7,18.491,18.448,7.434,20.637,10.651a11.519,11.519,0,0,1,1.954,4.336" transform="translate(-217.477 -669.29)" fill="#6980e2"/>
          <path id="Trazado_220935" data-name="Trazado 220935" d="M380.978,1053.062s9.966-2.127,11.574-1.279,5.538,3.934,6.03,5.008-3.58-.816-4.9-1.156c-.858-.22-3.116.531-4.234.889-4.7,1.5-7.586.729-7.586.729Z" transform="translate(-258.902 -727.441)" fill="#ffb27d"/>
          <path id="Trazado_220936" data-name="Trazado 220936" d="M291.921,882.4s-13.382.79-18.014,6.981c-6.521,8.716-19.457,45.859-12.043,50.813,8.349,5.579,38,1.459,38,1.459s.987-4.419-.386-6.557-23.681-5.591-24.711-6.578,12.87-19.24,12.87-22.2,4.286-23.919,4.286-23.919" transform="translate(-176.52 -610.312)" fill="#8c9df4"/>
          <path id="Trazado_220937" data-name="Trazado 220937" d="M418.53,1060.873a18.789,18.789,0,0,0,2.773,2.889,2.121,2.121,0,0,0,1.127.231l-1.407-2.427Z" transform="translate(-284.398 -733.872)" fill="#ffb27d"/>
          <path id="Trazado_220938" data-name="Trazado 220938" d="M417.027,1052.233l6.071,2.825a1.1,1.1,0,0,1-1.006.373,15.006,15.006,0,0,1-2.633-.694Z" transform="translate(-283.377 -727.89)" fill="#ffb27d"/>
          <path id="Trazado_220939" data-name="Trazado 220939" d="M420.326,1005.647h51.221l15.408-34.426H435.813Z" transform="translate(-285.617 -671.803)" fill="#ef6f6c"/>
          <path id="Trazado_220940" data-name="Trazado 220940" d="M438.7,1075.865H371.063v2.174H438.1Z" transform="translate(-252.171 -744.252)" fill="#f77d48"/>
          <path id="Trazado_220941" data-name="Trazado 220941" d="M529.065,1022.238a1.631,1.631,0,0,0-1.739-2.191,3.455,3.455,0,0,0-3.139,2.191,1.632,1.632,0,0,0,1.74,2.191,3.454,3.454,0,0,0,3.138-2.191" transform="translate(-356.065 -705.607)" fill="#ebf3fa"/>
          <path id="Trazado_220942" data-name="Trazado 220942" d="M800.6,1203.63h.14a1.512,1.512,0,0,0,1.466-1.585L799.98,1100.2l-6.546-.808,5.583,102.656a1.625,1.625,0,0,0,1.581,1.578" transform="translate(-538.934 -760.543)" fill="#233862"/>
          <path id="Trazado_220943" data-name="Trazado 220943" d="M382.539,1203.63h-.14a1.512,1.512,0,0,1-1.465-1.585l2.222-101.842,6.547-.808-5.583,102.656a1.625,1.625,0,0,1-1.581,1.578" transform="translate(-258.872 -760.543)" fill="#233862"/>
          <path id="Trazado_220944" data-name="Trazado 220944" d="M503.378,1090.4H354.249a2.337,2.337,0,0,1-2.385-2.286V1085.4a2.337,2.337,0,0,1,2.385-2.286H503.378a2.337,2.337,0,0,1,2.386,2.286v2.715a2.337,2.337,0,0,1-2.386,2.286" transform="translate(-239.136 -749.272)" fill="#233862"/>
        </g>
      </g>
    </g>
  </g>
</svg>
