<svg id="Grupo_593036" data-name="Grupo 593036" xmlns="http://www.w3.org/2000/svg" xmlns:xlink="http://www.w3.org/1999/xlink" width="264.411" height="166.876" viewBox="0 0 264.411 166.876">
  <defs>
    <clipPath id="clip-path">
      <rect id="Rectángulo_54210" data-name="Rectángulo 54210" width="264.411" height="166.876" fill="none"/>
    </clipPath>
    <clipPath id="clip-path-2">
      <rect id="Rectángulo_54198" data-name="Rectángulo 54198" width="264.41" height="166.876" fill="none"/>
    </clipPath>
    <clipPath id="clip-path-3">
      <rect id="Rectángulo_54179" data-name="Rectángulo 54179" width="17.877" height="156.671" fill="#e9bcba"/>
    </clipPath>
    <clipPath id="clip-path-4">
      <rect id="Rectángulo_54181" data-name="Rectángulo 54181" width="17.877" height="108.882" fill="#e9bcba"/>
    </clipPath>
    <clipPath id="clip-path-5">
      <rect id="Rectángulo_54183" data-name="Rectángulo 54183" width="17.877" height="122.726" fill="#e9bcba"/>
    </clipPath>
    <clipPath id="clip-path-6">
      <rect id="Rectángulo_54185" data-name="Rectángulo 54185" width="17.876" height="127.553" fill="#e9bcba"/>
    </clipPath>
    <clipPath id="clip-path-7">
      <rect id="Rectángulo_54187" data-name="Rectángulo 54187" width="17.877" height="89.734" fill="#e9bcba"/>
    </clipPath>
    <clipPath id="clip-path-8">
      <rect id="Rectángulo_54189" data-name="Rectángulo 54189" width="17.877" height="120.563" fill="none"/>
    </clipPath>
    <clipPath id="clip-path-9">
      <rect id="Rectángulo_54191" data-name="Rectángulo 54191" width="17.877" height="83.788" fill="none"/>
    </clipPath>
    <clipPath id="clip-path-10">
      <rect id="Rectángulo_54193" data-name="Rectángulo 54193" width="17.877" height="94.441" fill="none"/>
    </clipPath>
    <clipPath id="clip-path-11">
      <rect id="Rectángulo_54195" data-name="Rectángulo 54195" width="17.876" height="98.155" fill="none"/>
    </clipPath>
    <clipPath id="clip-path-12">
      <rect id="Rectángulo_54197" data-name="Rectángulo 54197" width="17.877" height="69.053" fill="none"/>
    </clipPath>
  </defs>
  <g id="Grupo_593035" data-name="Grupo 593035" clip-path="url(#clip-path)">
    <g id="Grupo_593023" data-name="Grupo 593023" transform="translate(0 0)">
      <g id="Grupo_593022" data-name="Grupo 593022" clip-path="url(#clip-path-2)">
        <g id="Grupo_592994" data-name="Grupo 592994" transform="translate(182.865 8.957)" opacity="0.6">
          <g id="Grupo_592993" data-name="Grupo 592993">
            <g id="Grupo_592992" data-name="Grupo 592992" clip-path="url(#clip-path-3)">
              <rect id="Rectángulo_54178" data-name="Rectángulo 54178" width="17.877" height="156.67" transform="translate(0 0.001)" fill="#e9bcba"/>
            </g>
          </g>
        </g>
        <g id="Grupo_592997" data-name="Grupo 592997" transform="translate(157.899 56.746)" opacity="0.6">
          <g id="Grupo_592996" data-name="Grupo 592996">
            <g id="Grupo_592995" data-name="Grupo 592995" clip-path="url(#clip-path-4)">
              <rect id="Rectángulo_54180" data-name="Rectángulo 54180" width="17.877" height="108.882" transform="translate(0 0)" fill="#e9bcba"/>
            </g>
          </g>
        </g>
        <g id="Grupo_593000" data-name="Grupo 593000" transform="translate(208.19 42.902)" opacity="0.6">
          <g id="Grupo_592999" data-name="Grupo 592999">
            <g id="Grupo_592998" data-name="Grupo 592998" clip-path="url(#clip-path-5)">
              <rect id="Rectángulo_54182" data-name="Rectángulo 54182" width="17.877" height="122.726" transform="translate(0 0)" fill="#e9bcba"/>
            </g>
          </g>
        </g>
        <g id="Grupo_593003" data-name="Grupo 593003" transform="translate(132.933 38.075)" opacity="0.6">
          <g id="Grupo_593002" data-name="Grupo 593002">
            <g id="Grupo_593001" data-name="Grupo 593001" clip-path="url(#clip-path-6)">
              <rect id="Rectángulo_54184" data-name="Rectángulo 54184" width="17.877" height="127.553" transform="translate(0 0.001)" fill="#e9bcba"/>
            </g>
          </g>
        </g>
        <g id="Grupo_593006" data-name="Grupo 593006" transform="translate(107.967 75.894)" opacity="0.6">
          <g id="Grupo_593005" data-name="Grupo 593005">
            <g id="Grupo_593004" data-name="Grupo 593004" clip-path="url(#clip-path-7)">
              <rect id="Rectángulo_54186" data-name="Rectángulo 54186" width="17.877" height="89.734" transform="translate(0)" fill="#e9bcba"/>
            </g>
          </g>
        </g>
        <g id="Grupo_593009" data-name="Grupo 593009" transform="translate(182.865 45.066)" opacity="0.3" style="mix-blend-mode: multiply;isolation: isolate">
          <g id="Grupo_593008" data-name="Grupo 593008">
            <g id="Grupo_593007" data-name="Grupo 593007" clip-path="url(#clip-path-8)">
              <rect id="Rectángulo_54188" data-name="Rectángulo 54188" width="17.877" height="120.562" transform="translate(0 0.001)" fill="#9bc1f9"/>
            </g>
          </g>
        </g>
        <g id="Grupo_593012" data-name="Grupo 593012" transform="translate(157.899 81.84)" opacity="0.3" style="mix-blend-mode: multiply;isolation: isolate">
          <g id="Grupo_593011" data-name="Grupo 593011">
            <g id="Grupo_593010" data-name="Grupo 593010" clip-path="url(#clip-path-9)">
              <rect id="Rectángulo_54190" data-name="Rectángulo 54190" width="17.877" height="83.788" transform="translate(0 0)" fill="#9bc1f9"/>
            </g>
          </g>
        </g>
        <g id="Grupo_593015" data-name="Grupo 593015" transform="translate(208.19 71.187)" opacity="0.3" style="mix-blend-mode: multiply;isolation: isolate">
          <g id="Grupo_593014" data-name="Grupo 593014">
            <g id="Grupo_593013" data-name="Grupo 593013" clip-path="url(#clip-path-10)">
              <rect id="Rectángulo_54192" data-name="Rectángulo 54192" width="17.877" height="94.441" transform="translate(0 0)" fill="#9bc1f9"/>
            </g>
          </g>
        </g>
        <g id="Grupo_593018" data-name="Grupo 593018" transform="translate(132.933 67.473)" opacity="0.3" style="mix-blend-mode: multiply;isolation: isolate">
          <g id="Grupo_593017" data-name="Grupo 593017">
            <g id="Grupo_593016" data-name="Grupo 593016" clip-path="url(#clip-path-11)">
              <rect id="Rectángulo_54194" data-name="Rectángulo 54194" width="17.877" height="98.155" transform="translate(0)" fill="#9bc1f9"/>
            </g>
          </g>
        </g>
        <g id="Grupo_593021" data-name="Grupo 593021" transform="translate(107.967 96.575)" opacity="0.3" style="mix-blend-mode: multiply;isolation: isolate">
          <g id="Grupo_593020" data-name="Grupo 593020">
            <g id="Grupo_593019" data-name="Grupo 593019" clip-path="url(#clip-path-12)">
              <rect id="Rectángulo_54196" data-name="Rectángulo 54196" width="17.877" height="69.053" transform="translate(0 0)" fill="#9bc1f9"/>
            </g>
          </g>
        </g>
      </g>
    </g>
    <path id="Trazado_245918" data-name="Trazado 245918" d="M1337.354,100.553l-14.245,12.2,5.434.392-34,67.762-18.828-31.961-26.634,70.341-17.132-27.551-21.353,34.175,1.344,6.117,20-31.855,18.109,29.123,26.537-70.083,18.268,31.01L1332.5,115.2l3.495,4.256Z" transform="translate(-1102.597 -90.397)" fill="#ef6f6c"/>
    <g id="Grupo_593034" data-name="Grupo 593034" transform="translate(0 0)">
      <g id="Grupo_593033" data-name="Grupo 593033" clip-path="url(#clip-path-2)">
        <path id="Trazado_245919" data-name="Trazado 245919" d="M224.117,565.931c-20.442-18.431-37.618-42.27-50.623-70.261l-28.116,25.573c15.037,32.364,34.9,59.928,58.531,81.238l20.208-36.549" transform="translate(-132.409 -445.605)" fill="#3c8f7c"/>
        <path id="Trazado_245920" data-name="Trazado 245920" d="M220.82,561.841,203.355,577.98c1.386,2.926.883,6.874-1.182,8.877,13.218,26.463,29.784,49.456,49.075,68.113,1.577-2.68,4.55-3.2,6.686-1.238l12.742-22.694c-1.966-1.806-2.247-5.5-.67-8.176-16.94-16.384-31.488-36.575-43.1-59.814-2.064,2-4.815,1.485-6.091-1.208" transform="translate(-184.138 -505.092)" fill="#96d9c9"/>
        <path id="Trazado_245921" data-name="Trazado 245921" d="M472.952,931.576c4.365-6.377,4.323-15.786.206-21.414s-11.182-5.878-16.061-.2-5.337,15.731-.7,22.052,12.2,5.933,16.551-.435" transform="translate(-412.742 -814.332)" fill="#50bfa5"/>
        <path id="Trazado_245922" data-name="Trazado 245922" d="M522.726,961.169l-1.646,2.068a7.054,7.054,0,0,1-.38,7.376c-1.428,1.851-3.027,2.023-5.465.387-1.77-1.133-2.621-1.467-3.161-.8-.457.559-.608,1.573.36,2.958a7.082,7.082,0,0,0,1.516,1.607,2.02,2.02,0,0,1,.434,2.357,1.116,1.116,0,0,1-1.746.573,9.872,9.872,0,0,1-1.6-1.677l-1.424,1.779q-.745-1.058-1.482-2.128l1.55-1.9c-1.253-2.741-1-5.465.45-7.193,1.606-1.909,3.462-1.323,5.59.189,1.476,1.043,2.331,1.207,2.943.437.644-.813.435-2.053-.377-3.224a7.631,7.631,0,0,0-1.841-1.873,1.935,1.935,0,0,1-.375-2.355l.046-.089a1.118,1.118,0,0,1,1.669-.581,10.338,10.338,0,0,1,2.02,2.035l1.545-1.908q.682.99,1.372,1.971" transform="translate(-462.805 -862.023)" fill="#3c8f7c"/>
        <path id="Trazado_245923" data-name="Trazado 245923" d="M695.468,1195.587q-6.988-6.775-13.456-14.344L679.8,1184.5q6.554,7.668,13.645,14.545l2.027-3.463" transform="translate(-619.153 -1061.932)" fill="#50bfa5"/>
        <path id="Trazado_245924" data-name="Trazado 245924" d="M87.54,862.563c-25.676-3.687-50.857-13.414-74.217-28.668L0,869.237c27.009,17.637,56.124,28.884,85.812,33.147q.864-19.91,1.728-39.821" transform="translate(0 -749.667)" fill="#3c8f7c"/>
        <path id="Trazado_245925" data-name="Trazado 245925" d="M55.557,889.255,47.391,911.41a6.914,6.914,0,0,1,2.81,7.678,210.644,210.644,0,0,0,71.948,27.792,4.639,4.639,0,0,1,5.26-4.561l1.242-24.83c-2.484-.382-4.322-3.161-4.112-6.13a184.979,184.979,0,0,1-63.181-24.405c-.924,2.693-3.531,3.755-5.8,2.3" transform="translate(-43.163 -797.367)" fill="#96d9c9"/>
        <path id="Trazado_245926" data-name="Trazado 245926" d="M420.423,1102.2c1.028-7.4-3.071-14.842-9.07-17.105-6-2.246-12.229,1.319-14.007,8.435s2.169,15.341,8.921,17.873,13.132-1.818,14.157-9.2" transform="translate(-361.513 -974.898)" fill="#50bfa5"/>
        <path id="Trazado_245927" data-name="Trazado 245927" d="M480.963,1112.342q-.266,1.261-.533,2.522a5.84,5.84,0,0,1,2.856,6.057c-.438,2.233-1.75,3.225-4.569,3.232-2.023.049-2.905.239-3.087,1.053-.154.688.153,1.573,1.589,2.155a6.268,6.268,0,0,0,2.007.464,1.636,1.636,0,0,1,1.394,1.638,1.236,1.236,0,0,1-1.266,1.39,8.75,8.75,0,0,1-2.108-.477l-.466,2.173q-1.1-.441-2.2-.9l.522-2.338a5.6,5.6,0,0,1-2.716-5.949c.567-2.375,2.429-2.9,4.926-2.842,1.729.038,2.542-.289,2.739-1.228.207-.99-.51-1.861-1.719-2.357a6.8,6.8,0,0,0-2.4-.5,1.572,1.572,0,0,1-1.343-1.669c0-.032,0-.064,0-.1a1.245,1.245,0,0,1,1.2-1.354,9.221,9.221,0,0,1,2.629.534l.515-2.341q1.019.421,2.041.83" transform="translate(-430.119 -999.244)" fill="#3c8f7c"/>
        <path id="Trazado_245928" data-name="Trazado 245928" d="M731.719,520.968a14.811,14.811,0,0,1-1.828-.826,8.548,8.548,0,0,0-2.084-.886,4.619,4.619,0,0,0-4.228,1.272c-1.363,1.668-3.785.3-3.3,9.038.552,9.889,5.425,8.8,5.544,8.637s4.346-6.327,4.346-6.327,1.478,3.649,1.478,3.515,7.548-11.581.068-14.423" transform="translate(-655.969 -466.741)" fill="#0e2e35"/>
        <path id="Trazado_245929" data-name="Trazado 245929" d="M236,1182.347a144.887,144.887,0,0,1-65.693,12.176l4.62,33.536a167.513,167.513,0,0,0,75.956-14.078L236,1182.347" transform="translate(-155.112 -1062.924)" fill="#3c8f7c"/>
        <path id="Trazado_245930" data-name="Trazado 245930" d="M197.526,1233.85l3.031,20.937a5.676,5.676,0,0,1,5.159,4.644,166.116,166.116,0,0,0,63.685-11.8,4.429,4.429,0,0,1,1.984-5.968l-9.16-19.8c-1.964.855-4.43-.446-5.481-2.842a145.873,145.873,0,0,1-55.925,10.365c.418,2.513-1.051,4.543-3.293,4.468" transform="translate(-179.905 -1095.89)" fill="#96d9c9"/>
        <path id="Trazado_245931" data-name="Trazado 245931" d="M526.567,1342.141c-2.249-6.2-8.254-10.07-13.542-9.043s-8.375,6.685-6.786,13.018,7.8,10.874,13.744,9.708,8.83-7.49,6.584-13.682" transform="translate(-460.698 -1198.3)" fill="#50bfa5"/>
        <path id="Trazado_245932" data-name="Trazado 245932" d="M568.425,1352.165l.634,2.2a4.718,4.718,0,0,1,4.536,3.367c.586,1.932.032,3.308-2.019,4.619-1.454.975-2.02,1.53-1.822,2.245.166.6.749,1.148,2.031.932a5.092,5.092,0,0,0,1.651-.571,1.283,1.283,0,0,1,1.68.623,1.184,1.184,0,0,1-.359,1.662,7.094,7.094,0,0,1-1.729.607l.542,1.9q-.983.169-1.969.327l-.568-2.052a4.537,4.537,0,0,1-4.391-3.349c-.55-2.1.593-3.373,2.437-4.482,1.275-.772,1.734-1.4,1.5-2.219-.25-.862-1.126-1.205-2.208-1.029a5.546,5.546,0,0,0-1.955.726,1.238,1.238,0,0,1-1.655-.67l-.038-.075a1.2,1.2,0,0,1,.322-1.6,7.529,7.529,0,0,1,2.132-.8q-.286-1.026-.573-2.051.913-.146,1.823-.3" transform="translate(-514.193 -1215.59)" fill="#3c8f7c"/>
        <path id="Trazado_245933" data-name="Trazado 245933" d="M780.133,1361.366a149.991,149.991,0,0,1-14.705,5.032l1.158,3.16a152.308,152.308,0,0,0,14.911-5.1l-1.364-3.089" transform="translate(-697.146 -1223.862)" fill="#50bfa5"/>
        <path id="Trazado_245934" data-name="Trazado 245934" d="M533.087,1547.35v8.189c0,1.324,13.044,2.4,29.135,2.4s29.135-1.073,29.135-2.4v-8.189Z" transform="translate(-485.531 -1391.06)" fill="#e59f39"/>
        <path id="Trazado_245935" data-name="Trazado 245935" d="M554.171,1557.844V1547.35H533.087v8.189c0,1.094,8.909,2.017,21.084,2.3" transform="translate(-485.531 -1391.06)" fill="#eab054"/>
        <path id="Trazado_245936" data-name="Trazado 245936" d="M780.438,1557.866c2.263.047,4.631.071,7.069.071,3.633,0,7.11-.054,10.317-.154v-10.432H780.438Z" transform="translate(-710.817 -1391.061)" fill="#eab054"/>
        <path id="Trazado_245937" data-name="Trazado 245937" d="M988.419,1557.743c10.38-.367,17.65-1.215,17.65-2.2v-8.189h-17.65Z" transform="translate(-900.244 -1391.06)" fill="#eab054"/>
        <path id="Trazado_245938" data-name="Trazado 245938" d="M591.357,1525.154c0,1.324-13.044,2.4-29.135,2.4s-29.135-1.073-29.135-2.4,13.044-2.4,29.135-2.4,29.135,1.073,29.135,2.4" transform="translate(-485.531 -1368.951)" fill="#e59f39"/>
        <path id="Trazado_245939" data-name="Trazado 245939" d="M638.723,1531.7c0,.918-10.742,1.662-23.992,1.662s-23.992-.744-23.992-1.662,10.741-1.662,23.992-1.662,23.992.744,23.992,1.662" transform="translate(-538.04 -1375.494)" fill="#f7cc7f"/>
        <path id="Trazado_245940" data-name="Trazado 245940" d="M477.211,1461.556v8.189c0,1.324,13.044,2.4,29.135,2.4s29.135-1.073,29.135-2.4v-8.189Z" transform="translate(-434.64 -1313.932)" fill="#e59f39"/>
        <path id="Trazado_245941" data-name="Trazado 245941" d="M498.294,1472.049v-10.494H477.21v8.189c0,1.094,8.909,2.017,21.084,2.3" transform="translate(-434.639 -1313.931)" fill="#eab054"/>
        <path id="Trazado_245942" data-name="Trazado 245942" d="M724.561,1472.07c2.263.046,4.631.071,7.069.071,3.633,0,7.11-.055,10.317-.155v-10.432H724.561Z" transform="translate(-659.925 -1313.931)" fill="#eab054"/>
        <path id="Trazado_245943" data-name="Trazado 245943" d="M932.542,1471.948c10.38-.367,17.65-1.215,17.65-2.2v-8.189h-17.65Z" transform="translate(-849.352 -1313.931)" fill="#eab054"/>
        <path id="Trazado_245944" data-name="Trazado 245944" d="M535.48,1439.36c0,1.324-13.044,2.4-29.135,2.4s-29.135-1.073-29.135-2.4,13.044-2.4,29.135-2.4,29.135,1.073,29.135,2.4" transform="translate(-434.639 -1291.823)" fill="#e59f39"/>
        <path id="Trazado_245945" data-name="Trazado 245945" d="M582.845,1445.9c0,.918-10.742,1.662-23.992,1.662s-23.992-.744-23.992-1.662,10.742-1.662,23.992-1.662,23.992.744,23.992,1.662" transform="translate(-487.147 -1298.365)" fill="#f7cc7f"/>
        <path id="Trazado_245946" data-name="Trazado 245946" d="M514.44,1373.481v8.189c0,1.324,13.044,2.4,29.135,2.4s29.135-1.073,29.135-2.4v-8.189Z" transform="translate(-468.548 -1234.753)" fill="#e59f39"/>
        <path id="Trazado_245947" data-name="Trazado 245947" d="M535.523,1383.974v-10.494H514.439v8.189c0,1.094,8.909,2.017,21.084,2.3" transform="translate(-468.547 -1234.753)" fill="#eab054"/>
        <path id="Trazado_245948" data-name="Trazado 245948" d="M761.79,1384c2.263.046,4.631.071,7.069.071,3.633,0,7.11-.055,10.317-.155v-10.432H761.79Z" transform="translate(-693.832 -1234.753)" fill="#eab054"/>
        <path id="Trazado_245949" data-name="Trazado 245949" d="M969.771,1383.874c10.38-.367,17.65-1.215,17.65-2.2v-8.189h-17.65Z" transform="translate(-883.26 -1234.753)" fill="#eab054"/>
        <path id="Trazado_245950" data-name="Trazado 245950" d="M572.709,1351.285c0,1.324-13.044,2.4-29.135,2.4s-29.135-1.073-29.135-2.4,13.044-2.4,29.135-2.4,29.135,1.073,29.135,2.4" transform="translate(-468.548 -1212.644)" fill="#e59f39"/>
        <path id="Trazado_245951" data-name="Trazado 245951" d="M620.075,1357.827c0,.918-10.741,1.662-23.992,1.662s-23.992-.744-23.992-1.662,10.742-1.662,23.992-1.662,23.992.744,23.992,1.662" transform="translate(-521.056 -1219.186)" fill="#f7cc7f"/>
        <path id="Trazado_245952" data-name="Trazado 245952" d="M477.211,1286.613v8.189c0,1.324,13.044,2.4,29.135,2.4s29.135-1.073,29.135-2.4v-8.189Z" transform="translate(-434.64 -1156.659)" fill="#e59f39"/>
        <path id="Trazado_245953" data-name="Trazado 245953" d="M498.294,1297.107v-10.494H477.21v8.189c0,1.094,8.909,2.017,21.084,2.3" transform="translate(-434.639 -1156.659)" fill="#eab054"/>
        <path id="Trazado_245954" data-name="Trazado 245954" d="M724.561,1297.129c2.263.046,4.631.071,7.069.071,3.633,0,7.11-.055,10.317-.155v-10.432H724.561Z" transform="translate(-659.925 -1156.66)" fill="#eab054"/>
        <path id="Trazado_245955" data-name="Trazado 245955" d="M932.542,1297.006c10.38-.367,17.65-1.215,17.65-2.2v-8.189h-17.65Z" transform="translate(-849.352 -1156.659)" fill="#eab054"/>
        <path id="Trazado_245956" data-name="Trazado 245956" d="M535.48,1264.417c0,1.324-13.044,2.4-29.135,2.4s-29.135-1.073-29.135-2.4,13.044-2.4,29.135-2.4,29.135,1.073,29.135,2.4" transform="translate(-434.639 -1134.55)" fill="#e59f39"/>
        <path id="Trazado_245957" data-name="Trazado 245957" d="M582.845,1270.96c0,.918-10.742,1.662-23.992,1.662s-23.992-.744-23.992-1.662,10.742-1.662,23.992-1.662,23.992.744,23.992,1.662" transform="translate(-487.147 -1141.093)" fill="#f7cc7f"/>
        <path id="Trazado_245958" data-name="Trazado 245958" d="M2191.744,1540.423v7.875c0,1.273-12.544,2.305-28.018,2.305s-28.017-1.032-28.017-2.305v-7.875Z" transform="translate(-1945.187 -1384.833)" fill="#e59f39"/>
        <path id="Trazado_245959" data-name="Trazado 245959" d="M2536.563,1550.514v-10.091h20.275v7.875c0,1.052-8.568,1.94-20.275,2.216" transform="translate(-2310.282 -1384.833)" fill="#eab054"/>
        <path id="Trazado_245960" data-name="Trazado 245960" d="M2355.281,1550.535c-2.177.045-4.454.068-6.8.068-3.494,0-6.838-.053-9.922-.149v-10.031h16.719Z" transform="translate(-2129.943 -1384.833)" fill="#eab054"/>
        <path id="Trazado_245961" data-name="Trazado 245961" d="M2152.682,1550.417c-9.982-.352-16.973-1.169-16.973-2.119v-7.875h16.973Z" transform="translate(-1945.187 -1384.833)" fill="#eab054"/>
        <path id="Trazado_245962" data-name="Trazado 245962" d="M2135.709,1519.078c0,1.273,12.544,2.305,28.018,2.305s28.018-1.032,28.018-2.305-12.544-2.305-28.018-2.305-28.018,1.032-28.018,2.305" transform="translate(-1945.187 -1363.572)" fill="#e59f39"/>
        <path id="Trazado_245963" data-name="Trazado 245963" d="M2191.149,1525.37c0,.883,10.33,1.6,23.072,1.6s23.072-.715,23.072-1.6-10.33-1.6-23.072-1.6-23.072.715-23.072,1.6" transform="translate(-1995.681 -1369.864)" fill="#f7cc7f"/>
        <path id="Trazado_245964" data-name="Trazado 245964" d="M2245.478,1457.918v7.875c0,1.273-12.544,2.305-28.018,2.305s-28.017-1.032-28.017-2.305v-7.875Z" transform="translate(-1994.128 -1310.661)" fill="#e59f39"/>
        <path id="Trazado_245965" data-name="Trazado 245965" d="M2590.3,1468.009v-10.091h20.276v7.875c0,1.052-8.568,1.94-20.276,2.216" transform="translate(-2359.223 -1310.661)" fill="#eab054"/>
        <path id="Trazado_245966" data-name="Trazado 245966" d="M2409.016,1468.03c-2.177.044-4.454.068-6.8.068-3.494,0-6.838-.053-9.922-.149v-10.031h16.72Z" transform="translate(-2178.884 -1310.661)" fill="#eab054"/>
        <path id="Trazado_245967" data-name="Trazado 245967" d="M2206.417,1467.912c-9.982-.353-16.973-1.169-16.973-2.119v-7.875h16.973Z" transform="translate(-1994.128 -1310.661)" fill="#eab054"/>
        <path id="Trazado_245968" data-name="Trazado 245968" d="M2189.443,1436.573c0,1.273,12.543,2.3,28.017,2.3s28.018-1.032,28.018-2.3-12.544-2.305-28.018-2.305-28.017,1.032-28.017,2.305" transform="translate(-1994.128 -1289.4)" fill="#e59f39"/>
        <path id="Trazado_245969" data-name="Trazado 245969" d="M2244.884,1442.865c0,.883,10.329,1.6,23.072,1.6s23.073-.716,23.073-1.6-10.33-1.6-23.073-1.6-23.072.716-23.072,1.6" transform="translate(-2044.623 -1295.692)" fill="#f7cc7f"/>
        <path id="Trazado_245970" data-name="Trazado 245970" d="M2209.677,1373.22v7.875c0,1.273-12.545,2.305-28.018,2.305s-28.018-1.032-28.018-2.305v-7.875Z" transform="translate(-1961.519 -1234.518)" fill="#e59f39"/>
        <path id="Trazado_245971" data-name="Trazado 245971" d="M2554.5,1383.311V1373.22h20.277v7.875c0,1.052-8.568,1.94-20.277,2.216" transform="translate(-2326.615 -1234.518)" fill="#eab054"/>
        <path id="Trazado_245972" data-name="Trazado 245972" d="M2373.214,1383.332c-2.176.045-4.454.068-6.8.068-3.493,0-6.838-.052-9.922-.149V1373.22h16.719Z" transform="translate(-2146.277 -1234.518)" fill="#eab054"/>
        <path id="Trazado_245973" data-name="Trazado 245973" d="M2170.615,1383.214c-9.982-.353-16.974-1.169-16.974-2.119v-7.875h16.974Z" transform="translate(-1961.519 -1234.518)" fill="#eab054"/>
        <path id="Trazado_245974" data-name="Trazado 245974" d="M2153.642,1351.875c0,1.273,12.544,2.305,28.018,2.305s28.018-1.032,28.018-2.305-12.545-2.3-28.018-2.3-28.018,1.032-28.018,2.3" transform="translate(-1961.52 -1213.257)" fill="#e59f39"/>
        <path id="Trazado_245975" data-name="Trazado 245975" d="M2209.083,1358.167c0,.883,10.329,1.6,23.071,1.6s23.072-.715,23.072-1.6-10.329-1.6-23.072-1.6-23.071.715-23.071,1.6" transform="translate(-2012.015 -1219.549)" fill="#f7cc7f"/>
        <path id="Trazado_245976" data-name="Trazado 245976" d="M2245.478,1289.683v7.875c0,1.273-12.544,2.305-28.018,2.305s-28.017-1.032-28.017-2.305v-7.875Z" transform="translate(-1994.128 -1159.419)" fill="#e59f39"/>
        <path id="Trazado_245977" data-name="Trazado 245977" d="M2590.3,1299.774v-10.091h20.276v7.875c0,1.052-8.568,1.94-20.276,2.216" transform="translate(-2359.223 -1159.419)" fill="#eab054"/>
        <path id="Trazado_245978" data-name="Trazado 245978" d="M2409.016,1299.795c-2.177.045-4.454.068-6.8.068-3.494,0-6.838-.053-9.922-.149v-10.031h16.72Z" transform="translate(-2178.884 -1159.419)" fill="#eab054"/>
        <path id="Trazado_245979" data-name="Trazado 245979" d="M2206.417,1299.677c-9.982-.353-16.973-1.169-16.973-2.119v-7.875h16.973Z" transform="translate(-1994.128 -1159.419)" fill="#eab054"/>
        <path id="Trazado_245980" data-name="Trazado 245980" d="M2189.443,1268.337c0,1.273,12.543,2.305,28.017,2.305s28.018-1.032,28.018-2.305-12.544-2.305-28.018-2.305-28.017,1.032-28.017,2.305" transform="translate(-1994.128 -1138.157)" fill="#e59f39"/>
        <path id="Trazado_245981" data-name="Trazado 245981" d="M2244.884,1274.629c0,.883,10.329,1.6,23.072,1.6s23.073-.716,23.073-1.6-10.33-1.6-23.073-1.6-23.072.715-23.072,1.6" transform="translate(-2044.623 -1144.449)" fill="#f7cc7f"/>
        <path id="Trazado_245982" data-name="Trazado 245982" d="M2463.171,1058.294l-1.683,6.653c-.272,1.076-11.089-1.489-24.162-5.729s-23.448-8.548-23.176-9.624l1.684-6.653Z" transform="translate(-2198.784 -937.6)" fill="#e59f39"/>
        <path id="Trazado_245983" data-name="Trazado 245983" d="M2747.533,1148.465l2.156-8.525,17.129,5.555-1.683,6.653c-.225.889-7.652-.709-17.6-3.683" transform="translate(-2502.431 -1024.801)" fill="#eab054"/>
        <path id="Trazado_245984" data-name="Trazado 245984" d="M2594.513,1105.15c-1.849-.558-3.777-1.162-5.758-1.8-2.951-.957-5.765-1.918-8.349-2.844l2.144-8.474,14.125,4.581Z" transform="translate(-2350.212 -981.727)" fill="#eab054"/>
        <path id="Trazado_245985" data-name="Trazado 245985" d="M2428.036,1056.035c-8.357-3.033-14.089-5.637-13.886-6.441l1.684-6.653,14.338,4.65Z" transform="translate(-2198.784 -937.6)" fill="#eab054"/>
        <path id="Trazado_245986" data-name="Trazado 245986" d="M2433.218,1040.061c-.273,1.076,10.1,5.384,23.176,9.624s23.89,6.8,24.162,5.729-10.1-5.384-23.177-9.623-23.889-6.8-24.161-5.729" transform="translate(-2216.151 -934.79)" fill="#e59f39"/>
        <path id="Trazado_245987" data-name="Trazado 245987" d="M2480.075,1054.376c-.189.746,8.385,4.18,19.149,7.671s19.644,5.717,19.832,4.971-8.384-4.18-19.149-7.671-19.644-5.717-19.833-4.971" transform="translate(-2258.83 -947.75)" fill="#f7cc7f"/>
        <path id="Trazado_245988" data-name="Trazado 245988" d="M2311.463,741.61l1.792,6.616c.29,1.07-10.014,5.6-23.014,10.11s-23.774,7.306-24.064,6.237l-1.792-6.616Z" transform="translate(-2062.384 -666.704)" fill="#e59f39"/>
        <path id="Trazado_245989" data-name="Trazado 245989" d="M2603.457,756l-2.3-8.478,17.035-5.915,1.792,6.616c.24.884-6.757,4.129-16.53,7.777" transform="translate(-2369.116 -666.704)" fill="#eab054"/>
        <path id="Trazado_245990" data-name="Trazado 245990" d="M2451.158,811.393c-1.818.672-3.727,1.357-5.7,2.04-2.935,1.019-5.757,1.951-8.369,2.769l-2.283-8.428,14.047-4.878Z" transform="translate(-2217.605 -721.8)" fill="#eab054"/>
        <path id="Trazado_245991" data-name="Trazado 245991" d="M2280.92,862.825c-8.466,2.616-14.526,3.97-14.742,3.171l-1.792-6.616,14.26-4.952Z" transform="translate(-2062.384 -768.126)" fill="#eab054"/>
        <path id="Trazado_245992" data-name="Trazado 245992" d="M2264.112,755.23c.29,1.07,11.064-1.723,24.063-6.237s23.3-9.04,23.014-10.11-11.063,1.723-24.063,6.237-23.3,9.04-23.014,10.11" transform="translate(-2062.13 -664.047)" fill="#e59f39"/>
        <path id="Trazado_245993" data-name="Trazado 245993" d="M2310.714,767.468c.2.742,9.043-1.671,19.748-5.388s19.221-7.332,19.02-8.073-9.042,1.671-19.748,5.388-19.221,7.332-19.02,8.073" transform="translate(-2104.577 -677.728)" fill="#f7cc7f"/>
        <path id="Trazado_245994" data-name="Trazado 245994" d="M1070.1,1547.93s.692,4.161.693,4.169c.039.542.024,1.913.128,2.386.389,1.779,7-2.545,5.264-2.893a7.821,7.821,0,0,1-1.555-1.886,18.02,18.02,0,0,1-.87-2.749Z" transform="translate(-974.638 -1390.708)" fill="#f7a491"/>
        <path id="Trazado_245995" data-name="Trazado 245995" d="M1070.942,1584.937a23.175,23.175,0,0,1-2.575.576c-.868.1-1.982-1.429-2.605-1.14-.685.318-1.059,5.163-1.059,5.163s10.9.562,13.479-.244c1.021-.319-3.848-2.885-7.24-4.356" transform="translate(-969.723 -1424.311)" fill="#f47458"/>
        <path id="Trazado_245996" data-name="Trazado 245996" d="M1240.508,1546.051s.693,4.161.693,4.17c.039.542.024,1.913.128,2.386.389,1.779,6.877-2.26,5.143-2.608a11.074,11.074,0,0,1-1.433-2.171,18.056,18.056,0,0,1-.87-2.749Z" transform="translate(-1129.845 -1389.019)" fill="#f7a491"/>
        <path id="Trazado_245997" data-name="Trazado 245997" d="M1239.471,1584.937a23.178,23.178,0,0,1-2.574.576c-.868.1-1.983-1.429-2.605-1.14-.685.318-1.059,5.163-1.059,5.163s10.9.562,13.479-.244c1.021-.319-3.848-2.885-7.24-4.356" transform="translate(-1123.218 -1424.311)" fill="#f47458"/>
        <path id="Trazado_245998" data-name="Trazado 245998" d="M813.183,1086.563l19.833-5.209s8.895-2.662,11.042.463,11.264,46.259,11.264,46.259-4.7.463-5.01.231L839.3,1106.184a21.073,21.073,0,0,1-2.031-6.8l-.781-6.335-8.076,2.662s-9.3,2.315-13.086-.347-2.147-8.8-2.147-8.8" transform="translate(-740.32 -971.181)" fill="#0e2e35"/>
        <path id="Trazado_245999" data-name="Trazado 245999" d="M871.537,759.035c.313.015,1.172.339,2.427,3.016,1.6,3.419,3.946,13.746,3.946,13.746l-6.994,2.939-.9-2.156-1.48-16.594s2.912-.954,3-.95" transform="translate(-791.058 -682.369)" fill="#eab054"/>
        <path id="Trazado_246000" data-name="Trazado 246000" d="M671.884,744.3a38.2,38.2,0,0,1,9.245,1.489s1.687,16.363-1.519,28.8c-.718,2.783.594,11.538.594,11.538l-20.723-.309s2.455-21.164,1.53-24.583-.947-15.333-.947-15.333.142-.025,4.656-.905a41.718,41.718,0,0,1,7.165-.694" transform="translate(-600.649 -669.12)" fill="#f7cc7f"/>
        <path id="Trazado_246001" data-name="Trazado 246001" d="M630.5,777.919c1.938-.82,2.885,18.879,3.147,26.988a74.832,74.832,0,0,0,10.9-.124c.7-.059,2.315-.727,3.012-.83a6.194,6.194,0,0,1,1.712-.092,30.66,30.66,0,0,1,4.011,2.038c.38.449,1.405,1.581,1.232,2.071s-1.973-1.364-1.973-1.364l-.88-.557c1.1,1.207,3.183,2.8,2.883,3.375s-2.177-1.049-3.52-2.148c1.152,1.174,2.582,3.274,2.253,3.6-.3.294-1.924-2.137-3.663-2.837-.644-.26-1.287.459-1.794.546a3.243,3.243,0,0,1-1.314.083l-1.747-.191a8.129,8.129,0,0,0-1.442.237c-.752.181-1.986.371-2.944.635-5.515,1.521-7.354,2.227-9.043,2.226-5.114,0-5.411-31.719-.832-33.657" transform="translate(-571.309 -699.323)" fill="#f7a491"/>
        <path id="Trazado_246002" data-name="Trazado 246002" d="M620.84,780.03c-.363-8.306-.31-18.542,3.816-20.289,1.628-.689,4.5,3.454,3.982,20.458a27.518,27.518,0,0,1-7.8-.169" transform="translate(-565.328 -682.939)" fill="#eab054"/>
        <path id="Trazado_246003" data-name="Trazado 246003" d="M759.893,910.964l-19.524,1.444a1.313,1.313,0,0,0-1.126.982l-5.054,17.046-10.764.8a.6.6,0,0,0-.509.657.574.574,0,0,0,.581.576l30.634-2.266A2.194,2.194,0,0,0,756,928.625l5.172-15.715a1.418,1.418,0,0,0-1.279-1.946" transform="translate(-658.425 -818.95)" fill="#f47458"/>
        <path id="Trazado_246004" data-name="Trazado 246004" d="M1006.6,1002.381c-.039.761-.547,1.347-1.136,1.308a1.275,1.275,0,0,1-1-1.447c.039-.761.548-1.346,1.136-1.308a1.275,1.275,0,0,1,1,1.447" transform="translate(-914.862 -899.833)" fill="#fff"/>
        <path id="Trazado_246005" data-name="Trazado 246005" d="M657.787,1108.729,679.4,1104.5s9.345-1.612,11.491,1.513,8.383,43.639,8.383,43.639-4.7.463-5.01.232c-.238-.179-5.931-13.686-8.489-19.771a25.382,25.382,0,0,1-1.7-6.089l-.822-5.514-2.72,1.06a29.563,29.563,0,0,1-14.888,1.8,12.8,12.8,0,0,1-5.276-1.659c-3.783-2.662-2.588-10.99-2.588-10.99" transform="translate(-598.944 -992.57)" fill="#184655"/>
        <path id="Trazado_246006" data-name="Trazado 246006" d="M756.562,665.2l.421,3.534s.942,5.091-.27,6.072-5.156-6.218-5.156-6.218l.417-8.954Z" transform="translate(-684.512 -593.012)" fill="#f7a491"/>
        <path id="Trazado_246007" data-name="Trazado 246007" d="M754.718,662.541a9.576,9.576,0,0,0,5.08,5.66l-.357-3-4.589-5.566Z" transform="translate(-687.391 -593.012)" fill="#f47458"/>
        <path id="Trazado_246008" data-name="Trazado 246008" d="M750.813,562.633c2.569-.468,4.873,1.863,4.809,4.765a40.309,40.309,0,0,1-.352,4.532c-.558,4.079-3.025,7.671-4.656,7.35s-5.734-3.839-5.012-9.645c.446-3.584,2.515-6.512,5.21-7" transform="translate(-679.012 -505.751)" fill="#f7a491"/>
        <path id="Trazado_246009" data-name="Trazado 246009" d="M734.927,622.71c-.138.9-.774,1.521-1.422,1.393a1.549,1.549,0,0,1-.924-1.855c.138-.9.774-1.521,1.422-1.394a1.549,1.549,0,0,1,.924,1.855" transform="translate(-667.205 -558.131)" fill="#f7a491"/>
        <path id="Trazado_246010" data-name="Trazado 246010" d="M742.438,556.426s1.972.553,2.7-.878,3.348-4.519,6.674-3.239-2.927-3.113-3.193-3.113-3.459-.025-3.459-.025-2.461,2.285-2.55,2.536-.8,2.988-.8,2.988Z" transform="translate(-675.639 -493.702)" fill="#0e2e35"/>
        <rect id="Rectángulo_54199" data-name="Rectángulo 54199" width="49.083" height="20.226" transform="translate(163.42 145.185)" fill="#50bfa5"/>
        <rect id="Rectángulo_54200" data-name="Rectángulo 54200" width="49.083" height="2.602" transform="translate(163.42 148.133)" fill="#96d9c9"/>
        <rect id="Rectángulo_54201" data-name="Rectángulo 54201" width="49.083" height="2.602" transform="translate(163.42 153.215)" fill="#96d9c9"/>
        <rect id="Rectángulo_54202" data-name="Rectángulo 54202" width="49.083" height="2.602" transform="translate(163.42 158.298)" fill="#96d9c9"/>
        <rect id="Rectángulo_54203" data-name="Rectángulo 54203" width="49.083" height="2.602" transform="translate(163.42 162.809)" fill="#96d9c9"/>
        <rect id="Rectángulo_54204" data-name="Rectángulo 54204" width="10.208" height="20.226" transform="translate(181.691 145.185)" fill="#f7cc7f"/>
        <rect id="Rectángulo_54205" data-name="Rectángulo 54205" width="7.412" height="20.226" transform="translate(211.907 145.185)" fill="#3c8f7c"/>
        <path id="Trazado_246014" data-name="Trazado 246014" d="M1129.712,540.762l.348,4.792,2.458-3.135,7.952-7.374-6.781,2.419s-3.339,1.836-3.492,2.079a10.576,10.576,0,0,0-.486,1.219" transform="translate(-1028.933 -481.004)" fill="#50bfa5"/>
        <path id="Trazado_246015" data-name="Trazado 246015" d="M1089.322,538.7l14.361-3.657-10.758,5.716Z" transform="translate(-992.145 -481.004)" fill="#96d9c9"/>
        <path id="Trazado_246016" data-name="Trazado 246016" d="M1146.43,544.311l-4.426-2.5,9.662-6.764Z" transform="translate(-1040.127 -481.004)" fill="#96d9c9"/>
        <path id="Trazado_246017" data-name="Trazado 246017" d="M1109.807,611.822a4.758,4.758,0,0,1,1.157-.344l-.032-.348a4.953,4.953,0,0,0-1.233.364Z" transform="translate(-1010.704 -549.403)" fill="#3c8f7c"/>
        <path id="Trazado_246018" data-name="Trazado 246018" d="M1031.469,656.018a13.751,13.751,0,0,0,1.557-1.928l.247.211a14.1,14.1,0,0,1-1.6,1.976Zm2.753-4.158c.152-.361.291-.736.415-1.117.14-.431.264-.881.368-1.339l.3.088c-.107.469-.234.93-.377,1.372-.127.391-.27.776-.426,1.147Zm1.25-7.662.309-.008a25.6,25.6,0,0,1-.076,2.667l-.308-.033a25.359,25.359,0,0,0,.075-2.626m-.441-5.252.306-.049c.13,1.025.222,1.863.291,2.636l-.308.035c-.069-.768-.161-1.6-.29-2.622m-.347-2.638a14.613,14.613,0,0,1-.117-2.66l.309.022a14.2,14.2,0,0,0,.114,2.586l0,.02-.307.048Zm.389-5.292a6.45,6.45,0,0,1,1.343-2.234l.213.255a6.1,6.1,0,0,0-1.269,2.112Z" transform="translate(-939.454 -565.273)" fill="#3c8f7c"/>
      </g>
    </g>
  </g>
</svg>
