<svg id="Grupo_593129" data-name="Grupo 593129" xmlns="http://www.w3.org/2000/svg" xmlns:xlink="http://www.w3.org/1999/xlink" width="168.867" height="160.441" viewBox="0 0 168.867 160.441">
  <defs>
    <clipPath id="clip-path">
      <rect id="Rectángulo_54421" data-name="Rectángulo 54421" width="168.867" height="160.441" fill="none"/>
    </clipPath>
    <clipPath id="clip-path-2">
      <path id="Trazado_246502" data-name="Trazado 246502" d="M151.686,188.421c1.541,1.183,3.8.132,3.8.132l.393-3.31-3.258-.511Z" transform="translate(-151.686 -184.732)" fill="none"/>
    </clipPath>
    <linearGradient id="linear-gradient" x1="-29.3" y1="2.213" x2="-29.107" y2="2.213" gradientUnits="objectBoundingBox">
      <stop offset="0" stop-color="#febbba"/>
      <stop offset="1" stop-color="#ff928e"/>
    </linearGradient>
    <clipPath id="clip-path-4">
      <path id="Trazado_246505" data-name="Trazado 246505" d="M171.051,189.042a3.24,3.24,0,0,0,2.7-.185l.918-5.006-3.183-.194Z" transform="translate(-171.051 -183.656)" fill="none"/>
    </clipPath>
    <linearGradient id="linear-gradient-2" x1="-38.258" y1="1.988" x2="-38.034" y2="1.988" xlink:href="#linear-gradient"/>
    <clipPath id="clip-path-6">
      <path id="Trazado_246508" data-name="Trazado 246508" d="M166.72,45.905,164.882,55.6a1.728,1.728,0,0,0,.972,1.1,8.284,8.284,0,0,0,8.582-.714.366.366,0,0,0,.1-.462l-1.3-11.182Z" transform="translate(-164.882 -44.34)" fill="none"/>
    </clipPath>
    <linearGradient id="linear-gradient-3" x1="-10.639" y1="7.827" x2="-10.573" y2="7.827" xlink:href="#linear-gradient"/>
    <clipPath id="clip-path-7">
      <path id="Trazado_246509" data-name="Trazado 246509" d="M161.783,47.9c1.308,2.682,5.848,1.125,9.19-2.351l.585-8.371-9.428-.041s-1.654,8.081-.347,10.763" transform="translate(-161.28 -37.141)" fill="none"/>
    </clipPath>
    <linearGradient id="linear-gradient-4" x1="-7.277" y1="7.676" x2="-7.23" y2="7.676" xlink:href="#linear-gradient"/>
    <clipPath id="clip-path-9">
      <path id="Trazado_246511" data-name="Trazado 246511" d="M171.219,43.338l-.419,1.6c1.442.194,3.814-1.249,3.171-2.719a.64.64,0,0,0-.6-.452c-.87,0-2.149,1.573-2.149,1.573" transform="translate(-170.8 -41.765)" fill="none"/>
    </clipPath>
    <linearGradient id="linear-gradient-5" x1="-27.24" y1="25.068" x2="-27.08" y2="25.068" xlink:href="#linear-gradient"/>
    <clipPath id="clip-path-10">
      <path id="Trazado_246512" data-name="Trazado 246512" d="M176.011,103.607s-4.175-.383-5.987,1.041a3.21,3.21,0,0,0-.935,3.616l7.859-.959s11.24,1.872,18-16.942l-8.037-2.191s-1.159,14.8-10.9,15.436" transform="translate(-168.876 -88.171)" fill="none"/>
    </clipPath>
    <linearGradient id="linear-gradient-6" x1="-6.406" y1="3.384" x2="-6.369" y2="3.384" xlink:href="#linear-gradient"/>
    <clipPath id="clip-path-12">
      <path id="Trazado_246514" data-name="Trazado 246514" d="M112.126,61.744c-.99,2.192,1.378,2.009,2.2,2.009s.929-2.385,2.384-2.059,1.028-.11,1.119,1.351,7.917,17.963,17.6,9.926l-.172-6.349s-6.4,2.977-13.892-4.969c-2.05-2.175-3.782-2.944-5.184-2.945-2.1,0-3.462,1.722-4.055,3.037" transform="translate(-111.888 -58.707)" fill="none"/>
    </clipPath>
    <linearGradient id="linear-gradient-7" x1="-3.959" y1="4.6" x2="-3.923" y2="4.6" xlink:href="#linear-gradient"/>
  </defs>
  <g id="Grupo_593130" data-name="Grupo 593130">
    <g id="Grupo_593129-2" data-name="Grupo 593129" clip-path="url(#clip-path)">
      <path id="Trazado_246489" data-name="Trazado 246489" d="M162.1,36.949a.526.526,0,0,1-.525-.505c-.009-.236-1.035-23.673-11.255-32.094a12.877,12.877,0,0,0-10.575-2.805c-8.457,1.309-14.308,7.538-17.392,18.515a61.583,61.583,0,0,0-2.106,16.348.525.525,0,1,1-1.05.032A62.749,62.749,0,0,1,121.335,19.8a33.21,33.21,0,0,1,5.974-12.207A19.321,19.321,0,0,1,139.585.506a13.887,13.887,0,0,1,11.4,3.033c4.457,3.674,7.771,10.33,9.848,19.785A83.9,83.9,0,0,1,162.625,36.4a.525.525,0,0,1-.5.545H162.1" transform="translate(-22.668 -0.059)" fill="#8f4240"/>
      <path id="Trazado_246490" data-name="Trazado 246490" d="M87.532,36.524a1.112,1.112,0,0,1,1.081-.949L148,34.593,167.44,150.509H73.612c-3.223,0,13.92-113.986,13.92-113.986" transform="translate(-13.923 -6.579)" fill="#ef6f6c"/>
      <path id="Trazado_246491" data-name="Trazado 246491" d="M175.944,35.478l-10.384-.884L185,150.509h11.631a3.718,3.718,0,0,0,3.64-4.476L177.548,36.9a1.794,1.794,0,0,0-1.6-1.421" transform="translate(-31.487 -6.579)" fill="#bf5856"/>
      <path id="Trazado_246492" data-name="Trazado 246492" d="M146.093,36.641a.526.526,0,0,1-.525-.505c-.009-.236-1.035-23.673-11.255-32.094a12.877,12.877,0,0,0-10.575-2.805c-8.457,1.309-14.308,7.538-17.392,18.515A61.583,61.583,0,0,0,104.241,36.1a.526.526,0,0,1-.509.542.533.533,0,0,1-.541-.509,62.749,62.749,0,0,1,2.138-16.642A33.211,33.211,0,0,1,111.3,7.283,19.321,19.321,0,0,1,123.578.2a13.884,13.884,0,0,1,11.4,3.033c4.457,3.674,7.771,10.33,9.848,19.785A83.91,83.91,0,0,1,146.618,36.1a.525.525,0,0,1-.5.545h-.021" transform="translate(-19.624 0)" fill="#8f4240"/>
      <path id="Trazado_246493" data-name="Trazado 246493" d="M101.131,90.094c-.008-.218-.955-21.866-10.414-29.66a11.982,11.982,0,0,0-9.841-2.611c-7.845,1.214-13.27,6.985-16.125,17.152a56.919,56.919,0,0,0-1.944,15.094l-.721.023a57.645,57.645,0,0,1,1.965-15.3,30.478,30.478,0,0,1,5.48-11.2A17.684,17.684,0,0,1,80.766,57.11a12.68,12.68,0,0,1,10.411,2.768c4.085,3.366,7.123,9.476,9.031,18.159a77.183,77.183,0,0,1,1.645,12.029Z" transform="translate(-11.807 -10.827)" fill="#8f4240"/>
      <path id="Trazado_246494" data-name="Trazado 246494" d="M25.5,156.842l9.588-63.2A1.25,1.25,0,0,1,36.3,92.578l55.4-.916,11.984,71.35H30.213c-3.117,0-5.171-3.087-4.716-6.17" transform="translate(-4.837 -17.433)" fill="#e6d2d2"/>
      <path id="Trazado_246495" data-name="Trazado 246495" d="M117.945,92.571l-10.681-.909,11.984,71.35,11.831-.305a1.872,1.872,0,0,0,1.783-2.255l-14.088-67.2a.945.945,0,0,0-.828-.679" transform="translate(-20.4 -17.433)" fill="#e9bcba"/>
      <path id="Trazado_246496" data-name="Trazado 246496" d="M86.383,89.81c-.008-.218-.955-21.866-10.414-29.66a11.984,11.984,0,0,0-9.841-2.611C58.283,58.753,52.858,64.524,50,74.691a56.919,56.919,0,0,0-1.944,15.094l-.721.023a57.644,57.644,0,0,1,1.965-15.3,30.484,30.484,0,0,1,5.48-11.2,17.684,17.684,0,0,1,11.234-6.483,12.679,12.679,0,0,1,10.411,2.768c4.085,3.366,7.123,9.476,9.031,18.159A77.177,77.177,0,0,1,87.1,89.783Z" transform="translate(-9.002 -10.773)" fill="#8f4240"/>
      <path id="Trazado_246497" data-name="Trazado 246497" d="M41.023,119.327c0-.117-.513-11.729-5.572-15.9a6.355,6.355,0,0,0-5.219-1.384c-10.015,1.55-9.65,17.1-9.644,17.261l-.589.018a31.194,31.194,0,0,1,1.062-8.266c1.57-5.6,4.711-8.918,9.08-9.595a6.924,6.924,0,0,1,5.684,1.512c5.261,4.337,5.766,15.841,5.785,16.328Z" transform="translate(-3.803 -19.278)" fill="#102538"/>
      <path id="Trazado_246498" data-name="Trazado 246498" d="M6.482,117.464l31.022-.513L46.612,168.6H.251c-1.584,0,4.8-45.052,5.593-50.573a.655.655,0,0,1,.637-.561" transform="translate(0 -22.242)" fill="#c6cbd0"/>
      <path id="Trazado_246499" data-name="Trazado 246499" d="M51.773,117.416l-5.46-.465L55.421,168.6h6.1a1.124,1.124,0,0,0,1.1-1.349L52.582,118.136a.9.9,0,0,0-.809-.72" transform="translate(-8.808 -22.242)" fill="#9eabb6"/>
      <path id="Trazado_246500" data-name="Trazado 246500" d="M33.083,119.174c0-.117-.513-11.729-5.572-15.9a6.355,6.355,0,0,0-5.219-1.384c-10.015,1.55-9.65,17.1-9.644,17.261l-.589.018a31.194,31.194,0,0,1,1.062-8.266c1.57-5.6,4.711-8.919,9.08-9.595a6.924,6.924,0,0,1,5.684,1.512c5.261,4.337,5.766,15.841,5.785,16.328Z" transform="translate(-2.293 -19.249)" fill="#102538"/>
      <path id="Trazado_246501" data-name="Trazado 246501" d="M152.631,187.371s.489,2.767.729,5.507a1.888,1.888,0,0,1-1.806,2.045c-3.648.152-11.451.447-14.251.322a.614.614,0,0,1-.54-.841,1.373,1.373,0,0,1,.7-.74l12.889-5.925Z" transform="translate(-26.002 -35.635)"/>
    </g>
  </g>
  <g id="Grupo_593132" data-name="Grupo 593132" transform="translate(122.838 149.599)">
    <g id="Grupo_593131" data-name="Grupo 593131" clip-path="url(#clip-path-2)">
      <rect id="Rectángulo_54422" data-name="Rectángulo 54422" width="4.192" height="4.872" transform="translate(0)" fill="url(#linear-gradient)"/>
    </g>
  </g>
  <g id="Grupo_593134" data-name="Grupo 593134">
    <g id="Grupo_593133" data-name="Grupo 593133" clip-path="url(#clip-path)">
      <path id="Trazado_246503" data-name="Trazado 246503" d="M155.646,108.519c.169.864.91,43.136-3.608,62.079a.643.643,0,0,0,.377.747,11.2,11.2,0,0,0,3.681.748,1.107,1.107,0,0,0,1.1-.8c1.292-4.395,7.481-26.415,8.288-47.451.9-23.506,0-.8,0-.8l-.53-14.53Z" transform="translate(-28.912 -20.638)" fill="#084e4e"/>
      <path id="Trazado_246504" data-name="Trazado 246504" d="M173.464,189.154a19.887,19.887,0,0,1,1.531,5.109,1.151,1.151,0,0,1-1.012,1.379c-1.206.118-3.059.27-4.545.261a1.148,1.148,0,0,1-1.136-1.281,9.683,9.683,0,0,1,2.259-5.311Z" transform="translate(-32.007 -35.974)"/>
    </g>
  </g>
  <g id="Grupo_593136" data-name="Grupo 593136" transform="translate(138.52 148.727)">
    <g id="Grupo_593135" data-name="Grupo 593135" clip-path="url(#clip-path-4)">
      <rect id="Rectángulo_54424" data-name="Rectángulo 54424" width="3.621" height="5.875" transform="translate(0 0)" fill="url(#linear-gradient-2)"/>
    </g>
  </g>
  <g id="Grupo_593138" data-name="Grupo 593138">
    <g id="Grupo_593137" data-name="Grupo 593137" clip-path="url(#clip-path)">
      <path id="Trazado_246506" data-name="Trazado 246506" d="M174.3,109.571c3.7,22.3-.8,55.122-2.318,61.546a1,1,0,0,1-.809.762,6.725,6.725,0,0,1-2.89-.117.917.917,0,0,1-.66-.845c-.2-5.193.163-37.075-3.281-49.674a2.855,2.855,0,0,0-1.1-1.579l-6.683-4.752-.513-7.68Z" transform="translate(-29.676 -20.394)" fill="#084e4e"/>
      <path id="Trazado_246507" data-name="Trazado 246507" d="M151.686,58.592s16.977-4.23,28.85,2.057l-7.068,39.406s-11.245.907-18.258-1.324Z" transform="translate(-28.848 -10.879)" fill="#99c2c2"/>
    </g>
  </g>
  <g id="Grupo_593140" data-name="Grupo 593140" transform="translate(133.524 35.907)">
    <g id="Grupo_593139" data-name="Grupo 593139" clip-path="url(#clip-path-6)">
      <rect id="Rectángulo_54426" data-name="Rectángulo 54426" width="12.424" height="16.015" transform="matrix(0.98, -0.201, 0.201, 0.98, -2.829, 0.581)" fill="url(#linear-gradient-3)"/>
    </g>
  </g>
  <g id="Grupo_593142" data-name="Grupo 593142" transform="translate(130.607 30.077)">
    <g id="Grupo_593141" data-name="Grupo 593141" clip-path="url(#clip-path-7)">
      <rect id="Rectángulo_54427" data-name="Rectángulo 54427" width="17.404" height="17.241" transform="matrix(0.672, -0.741, 0.741, 0.672, -7.495, 7.376)" fill="url(#linear-gradient-4)"/>
    </g>
  </g>
  <g id="Grupo_593144" data-name="Grupo 593144">
    <g id="Grupo_593143" data-name="Grupo 593143" clip-path="url(#clip-path)">
      <path id="Trazado_246510" data-name="Trazado 246510" d="M169.3,40.321a.3.3,0,0,1-.25-.385,7.823,7.823,0,0,0,.387-2.5s.542-.624-1.991-.493-6.319.291-7.654-1.5c-1.3-1.75-.855-7.247,3.334-4.205a.3.3,0,0,0,.457-.131,3.1,3.1,0,0,1,3.27-2.24,2.838,2.838,0,0,1,2.64,2.082.3.3,0,0,0,.426.194,3.461,3.461,0,0,1,4.41.666c1.3,1.506,1.079,2.642.753,3.262a.3.3,0,0,0,.263.441,1.8,1.8,0,0,1,1.8,1.613c.437,1.856-1.652,2.3-2.258,2.384a.3.3,0,0,0-.229.166c-.336.7-1.892,3.7-4.239,4.7a.3.3,0,0,1-.418-.294l.151-3.367a.3.3,0,0,0-.262-.313Z" transform="translate(-30.266 -5.484)"/>
    </g>
  </g>
  <g id="Grupo_593146" data-name="Grupo 593146" transform="translate(138.316 33.822)">
    <g id="Grupo_593145" data-name="Grupo 593145" clip-path="url(#clip-path-9)">
      <rect id="Rectángulo_54429" data-name="Rectángulo 54429" width="5.055" height="5.086" transform="matrix(0.672, -0.741, 0.741, 0.672, -1.674, 1.846)" fill="url(#linear-gradient-5)"/>
    </g>
  </g>
  <g id="Grupo_593148" data-name="Grupo 593148" transform="translate(136.758 71.402)">
    <g id="Grupo_593147" data-name="Grupo 593147" clip-path="url(#clip-path-10)">
      <rect id="Rectángulo_54430" data-name="Rectángulo 54430" width="21.642" height="27.234" transform="translate(-1.17 20.994) rotate(-88.623)" fill="url(#linear-gradient-6)"/>
    </g>
  </g>
  <g id="Grupo_593150" data-name="Grupo 593150">
    <g id="Grupo_593149" data-name="Grupo 593149" clip-path="url(#clip-path)">
      <path id="Trazado_246513" data-name="Trazado 246513" d="M185.985,61.459s13.334,7.932,11.142,23.823c0,0-4.763,2.064-8.227-.7,0,0-2.7-10.324-8.561-10.839Z" transform="translate(-34.298 -11.689)" fill="#99c2c2"/>
    </g>
  </g>
  <g id="Grupo_593152" data-name="Grupo 593152" transform="translate(90.609 47.542)">
    <g id="Grupo_593151" data-name="Grupo 593151" clip-path="url(#clip-path-12)">
      <rect id="Rectángulo_54432" data-name="Rectángulo 54432" width="22.878" height="24.823" transform="translate(-1.288 22.288) rotate(-88.623)" fill="url(#linear-gradient-7)"/>
    </g>
  </g>
  <g id="Grupo_593154" data-name="Grupo 593154">
    <g id="Grupo_593153" data-name="Grupo 593153" clip-path="url(#clip-path)">
      <path id="Trazado_246515" data-name="Trazado 246515" d="M103.126,71.037l22-1.234a3.724,3.724,0,0,1,4.023,2.954l4.927,34.059a3.559,3.559,0,0,1-3.783,3.828h-28.71a3.6,3.6,0,0,1-3.809-3.558l1.78-32.824a3.616,3.616,0,0,1,3.57-3.225" transform="translate(-18.595 -13.274)" fill="#eee1ad"/>
      <path id="Trazado_246516" data-name="Trazado 246516" d="M108.822,72.657a.634.634,0,0,1-.633-.607c-.019-.437-.363-10.725,6.878-11.857a4.957,4.957,0,0,1,4.085,1.082c3.525,2.913,3.822,10.409,3.834,10.726a.634.634,0,1,1-1.267.044c0-.072-.29-7.245-3.375-9.793a3.7,3.7,0,0,0-3.081-.806c-6.134.959-5.81,10.455-5.806,10.55a.635.635,0,0,1-.607.661h-.027" transform="translate(-20.574 -11.434)" fill="#99822a"/>
      <path id="Trazado_246517" data-name="Trazado 246517" d="M149.258,58.919l-10.331,7.743s-.182,5.8,1.187,8.544l11.507-2.828Z" transform="translate(-26.42 -11.205)" fill="#99c2c2"/>
      <path id="Trazado_246518" data-name="Trazado 246518" d="M70.544,130.031V139.2a17.894,17.894,0,0,0,3.136,9.575l1.752,2.242a10.9,10.9,0,0,0,9.24,4.937h38.38l.291-.986,9.408-34.465,7.893-4.256-1.175-2.15-8.82,4.782-3.024,11.149Zm2.739,2.739h53.671l-3.786,13.966-2,7.4h-36.5A8.788,8.788,0,0,1,77.484,150l-1.6-2.544a15.336,15.336,0,0,1-2.606-8.256Z" transform="translate(-13.416 -21.7)" fill="#15324b"/>
      <path id="Trazado_246519" data-name="Trazado 246519" d="M77.089,176.088a1.357,1.357,0,0,0,1.236,1.368h45.032c.683,0,1.2-.964,1.2-1.644V154.577c0-.234-.046-.21-.16-.4l-1.98,7.573h-.6v12.964H78.325a1.358,1.358,0,0,0-1.236,1.371" transform="translate(-14.661 -29.323)" fill="#15324b"/>
      <rect id="Rectángulo_54433" data-name="Rectángulo 54433" width="1.644" height="23.116" transform="translate(85.785 109.62)" fill="#15324b"/>
      <rect id="Rectángulo_54434" data-name="Rectángulo 54434" width="1.644" height="23.116" transform="translate(100.305 109.62)" fill="#15324b"/>
      <rect id="Rectángulo_54435" data-name="Rectángulo 54435" width="1.644" height="23.116" transform="translate(71.607 109.62)" fill="#15324b"/>
      <rect id="Rectángulo_54436" data-name="Rectángulo 54436" width="53.466" height="1.47" transform="translate(59.446 116.42)" fill="#15324b"/>
      <rect id="Rectángulo_54437" data-name="Rectángulo 54437" width="49.793" height="1.47" transform="translate(60.786 124.466)" fill="#15324b"/>
      <path id="Trazado_246520" data-name="Trazado 246520" d="M120.544,190.316a5.31,5.31,0,1,0,5.309-5.31,5.31,5.31,0,0,0-5.309,5.31m2.1,0a3.2,3.2,0,1,1,3.2,3.2,3.2,3.2,0,0,1-3.2-3.2" transform="translate(-22.926 -35.185)" fill="#15324b"/>
      <path id="Trazado_246521" data-name="Trazado 246521" d="M79.8,190.316a5.31,5.31,0,1,0,5.309-5.31,5.31,5.31,0,0,0-5.309,5.31m2.1,0a3.2,3.2,0,1,1,3.2,3.2,3.2,3.2,0,0,1-3.2-3.2" transform="translate(-15.177 -35.185)" fill="#15324b"/>
      <path id="Trazado_246522" data-name="Trazado 246522" d="M148.9,116.167a2.494,2.494,0,0,0,2.494,2.494h8.3a2.494,2.494,0,1,0,0-4.988h-8.3a2.494,2.494,0,0,0-2.494,2.494" transform="translate(-28.319 -21.619)" fill="#15324b"/>
    </g>
  </g>
</svg>
