<svg id="Grupo_592468" data-name="Grupo 592468" xmlns="http://www.w3.org/2000/svg" xmlns:xlink="http://www.w3.org/1999/xlink" width="268.32" height="179.37" viewBox="0 0 268.32 179.37">
  <defs>
    <clipPath id="clip-path">
      <rect id="Rectángulo_53784" data-name="Rectángulo 53784" width="268.32" height="179.37" fill="none"/>
    </clipPath>
    <clipPath id="clip-path-3">
      <rect id="Rectángulo_53778" data-name="Rectángulo 53778" width="211.106" height="5.998" fill="none"/>
    </clipPath>
  </defs>
  <g id="Grupo_592467" data-name="Grupo 592467" clip-path="url(#clip-path)">
    <g id="Grupo_592464" data-name="Grupo 592464" transform="translate(0 0)">
      <g id="Grupo_592463" data-name="Grupo 592463" clip-path="url(#clip-path)">
        <path id="Trazado_245284" data-name="Trazado 245284" d="M523.717,416.966v-7.373c0-3.348,3.12-6.063,6.971-6.063h74.219c3.851,0,6.972,2.714,6.972,6.063V539.926H419.9V416.966Z" transform="translate(-369.425 -361.355)" fill="#fff"/>
        <path id="Trazado_245285" data-name="Trazado 245285" d="M518.586,416.966v-7.373c0-3.348,3.12-6.063,6.971-6.063h74.219c3.851,0,6.972,2.714,6.972,6.063V539.926H414.765V416.966Z" transform="translate(-364.911 -361.355)" fill="#1b3f5e"/>
        <path id="Trazado_245286" data-name="Trazado 245286" d="M656.737,575.866V693.732H478.892V575.287Z" transform="translate(-421.33 -515.161)" fill="#bae2ff"/>
        <path id="Trazado_245287" data-name="Trazado 245287" d="M575.5,575.866V693.732H397.66V575.287Z" transform="translate(-349.861 -515.161)" fill="#e9bcba"/>
        <path id="Trazado_245288" data-name="Trazado 245288" d="M270.094,532.091h175.7c3.606,0,6.262,2.122,6.78,5.056v117.9H260.815V540.138c-.044-4.235,4.352-8.047,9.279-8.047" transform="translate(-229.465 -476.479)" fill="#fff"/>
        <path id="Trazado_245355" data-name="Trazado 245355" d="M0,0,67.871.018l.025,102.7L.025,102.7Z" transform="translate(105.076 99.38) rotate(-89.84)" fill="#ebf3ff"/>
        <path id="Trazado_245356" data-name="Trazado 245356" d="M0,0,62.4.016l.023,97.446-62.4-.016Z" transform="translate(107.766 96.126) rotate(-89.84)" fill="#e9bcba"/>
        <path id="Trazado_245289" data-name="Trazado 245289" d="M1180.533,627.9l-62.616-.152,34.236-28.559Z" transform="translate(-983.544 -536.565)" fill="#e3eeff"/>
        <path id="Trazado_245290" data-name="Trazado 245290" d="M1016.89,669.906l-52.611-.128,28.548-23.6Z" transform="translate(-848.373 -578.64)" fill="#e3eeff"/>
        <path id="Trazado_245291" data-name="Trazado 245291" d="M1179.72,484.365c-.011,3.482,3.226,6.313,7.231,6.323s7.26-2.805,7.271-6.288-3.226-6.313-7.231-6.323-7.26,2.805-7.272,6.287" transform="translate(-1037.918 -428.112)" fill="#e3eeff"/>
        <path id="Trazado_245357" data-name="Trazado 245357" d="M0,0,72,.022l.026,95.214-72-.022Z" transform="matrix(0.003, -1, 1, 0.003, 91.398, 91.252)" fill="#ebf3ff"/>
        <path id="Trazado_245358" data-name="Trazado 245358" d="M0,0,66.192.02l.025,89.807L.025,89.807Z" transform="translate(94.167 87.799) rotate(-89.815)" fill="#e9bcba"/>
        <rect id="Rectángulo_53774" data-name="Rectángulo 53774" width="35.762" height="2.732" transform="translate(139.625 31.008)" fill="#8f4240"/>
        <rect id="Rectángulo_53775" data-name="Rectángulo 53775" width="72.759" height="2.732" transform="translate(102.628 38.385)" fill="#8f4240"/>
        <rect id="Rectángulo_53776" data-name="Rectángulo 53776" width="72.759" height="2.732" transform="translate(102.628 45.896)" fill="#8f4240"/>
        <path id="Trazado_245292" data-name="Trazado 245292" d="M263.055,532.091h175.7c3.607,0,6.262,2.122,6.78,5.056V655.473H253.776V540.138c-.044-4.235,4.352-8.047,9.279-8.047" transform="translate(-223.273 -476.479)" fill="#2a6192"/>
        <rect id="Rectángulo_53777" data-name="Rectángulo 53777" width="19.348" height="0.678" transform="translate(223.107 177.893)" fill="#fff"/>
        <g id="Grupo_592462" data-name="Grupo 592462" transform="translate(31.35 105.481)" opacity="0.5" style="mix-blend-mode: darken;isolation: isolate">
          <g id="Grupo_592461" data-name="Grupo 592461">
            <g id="Grupo_592460" data-name="Grupo 592460" clip-path="url(#clip-path-3)">
              <path id="Trazado_245293" data-name="Trazado 245293" d="M471.92,1009.239l-7.048,4h-9.312l-2.989,2v-1.9H260.815v-4.1Z" transform="translate(-260.815 -1009.239)"/>
            </g>
          </g>
        </g>
        <rect id="Rectángulo_53779" data-name="Rectángulo 53779" width="217.736" height="21.391" transform="translate(27.443 85.918)" fill="#224f77"/>
        <rect id="Rectángulo_53780" data-name="Rectángulo 53780" width="198.135" height="21.391" transform="translate(27.443 85.918)" fill="#1b3f5e"/>
        <path id="Trazado_245294" data-name="Trazado 245294" d="M1294.985,822.068v21.384h-17.216l12.071-21.384Z" transform="translate(-1124.182 -736.15)" fill="#0e0e0e"/>
        <path id="Trazado_245295" data-name="Trazado 245295" d="M1371.495,832.8a16.848,16.848,0,0,0,1.594,7.564c.975,1.973,2.331,3.147,3.83,3.147h4.572V822.137h-4.572c-3,0-5.424,4.792-5.424,10.665m4.33,3.524c-.856-.235-1.522-1.691-1.522-3.524,0-1.785.666-3.241,1.522-3.477.857.235,1.523,1.692,1.523,3.477,0,1.833-.666,3.288-1.523,3.524" transform="translate(-1206.642 -736.211)" fill="#427bac"/>
        <path id="Trazado_245296" data-name="Trazado 245296" d="M1390.872,832.8a16.232,16.232,0,0,0,1.668,7.564c1.021,1.973,2.439,3.147,4.008,3.147h1.991V822.138h-1.991c-3.136,0-5.675,4.792-5.675,10.665m2.191,0a3.781,3.781,0,0,1,2.19-3.477c.9.235,1.593,1.692,1.593,3.477,0,1.833-.7,3.288-1.593,3.524a3.8,3.8,0,0,1-2.19-3.524" transform="translate(-1223.69 -736.212)" fill="#3f9ee6"/>
        <path id="Trazado_245297" data-name="Trazado 245297" d="M1389.717,832.8a16.853,16.853,0,0,0,1.594,7.564c.975,1.973,2.332,3.147,3.83,3.147h4.572V822.137h-4.572c-3,0-5.424,4.792-5.424,10.665m4.33,3.524c-.856-.235-1.522-1.691-1.522-3.524,0-1.785.666-3.241,1.522-3.477.857.235,1.523,1.692,1.523,3.477,0,1.833-.666,3.288-1.523,3.524" transform="translate(-1222.674 -736.211)" fill="#427bac"/>
        <path id="Trazado_245298" data-name="Trazado 245298" d="M1409.094,832.8a16.233,16.233,0,0,0,1.668,7.564c1.021,1.973,2.439,3.147,4.008,3.147h1.991V822.138h-1.991c-3.136,0-5.675,4.792-5.675,10.665m2.191,0c0-1.785.7-3.241,1.593-3.477.9.235,1.593,1.692,1.593,3.477,0,1.833-.7,3.288-1.593,3.524-.9-.235-1.593-1.691-1.593-3.524" transform="translate(-1239.722 -736.212)" fill="#224f77"/>
        <path id="Trazado_245299" data-name="Trazado 245299" d="M1395.012,842.462a4.078,4.078,0,0,1-2.487-1.028c-1.337-1.116-2.931-3.638-2.931-9.31,0-5.4,1.453-8.186,2.672-9.568a5.022,5.022,0,0,1,2.739-1.747.16.16,0,0,1,.185.113.142.142,0,0,1-.13.161,4.821,4.821,0,0,0-2.562,1.666c-1.179,1.35-2.585,4.072-2.585,9.374,0,5.562,1.534,8.018,2.82,9.1a3.752,3.752,0,0,0,2.293.961.152.152,0,0,1,.166.134.148.148,0,0,1-.153.144h-.028" transform="translate(-1222.566 -735.02)" fill="#1a5380"/>
        <path id="Trazado_245300" data-name="Trazado 245300" d="M1429.127,902.287c.216.047.377.094.594.141-.054.047-.054.047,0,.047,8.7,2.255,15.129,9.208,15.129,17.524v17.858h6.916V920c0-11.557-9.347-21.236-21.829-23.679a4.938,4.938,0,0,0-.81-.187c-2-.376-2.162,5.873,0,6.154" transform="translate(-1255.974 -802.459)" fill="#e6e6e6"/>
        <path id="Trazado_245301" data-name="Trazado 245301" d="M1186.708,893.211v5.98c-8.915,1-16.113,6.749-18.027,14.264a1.765,1.765,0,0,0-.108.469,9.623,9.623,0,0,0-.216,1.221,15.816,15.816,0,0,0-.162,2.255v17.858h-6.862V917.4c0-12.63,11.162-22.978,25.376-24.19" transform="translate(-1021.741 -799.857)" fill="#e6e6e6"/>
        <path id="Trazado_245302" data-name="Trazado 245302" d="M1432.25,936.806c16.217,2.473,18.306,17.826,18.306,17.826v19.513h-2.433V956.287c0-8.491-6.7-15.589-15.708-17.7-.689-.194-1.118-1.948-1.118-1.948s.426.083.953.171" transform="translate(-1259.256 -838.742)" fill="#999"/>
        <path id="Trazado_245303" data-name="Trazado 245303" d="M1240.5,938.272v1.271c-8.915,1-16.113,6.749-18.027,14.264.388-4.387,4.571-13.973,18.027-15.535" transform="translate(-1075.53 -840.208)" fill="gray"/>
        <path id="Trazado_245304" data-name="Trazado 245304" d="M1429.127,902.287c.216.047.377.094.594.141a5.835,5.835,0,0,1-1.149-3.015c-.108-1.833.607-3.072,1.365-3.093a4.938,4.938,0,0,0-.81-.187c-2-.376-2.162,5.873,0,6.154" transform="translate(-1255.974 -802.459)" fill="#666"/>
        <rect id="Rectángulo_53781" data-name="Rectángulo 53781" width="68.134" height="48.428" transform="translate(133.593 130.529)" fill="#f7af0c"/>
        <path id="Trazado_245305" data-name="Trazado 245305" d="M1336.933,1362.953a2.991,2.991,0,0,0-.649-.047c-4.646,0-8.429,3.272-8.429,7.352a7.472,7.472,0,0,0,4.972,6.734v12.473a3.29,3.29,0,0,0,3.457,3.036,2.083,2.083,0,0,0,.541-.048h.161a3.181,3.181,0,0,0,2.757-2.988v-12.473a7.423,7.423,0,0,0,4.97-6.734c0-3.889-3.4-7.019-7.78-7.3" transform="translate(-1168.248 -1220.462)" fill="#cc840a"/>
        <path id="Trazado_245306" data-name="Trazado 245306" d="M1346.029,1363.36c-4.377.236-7.836,3.415-7.836,7.3a7.471,7.471,0,0,0,4.972,6.734v12.473a3.18,3.18,0,0,0,2.756,2.989h.161a3.182,3.182,0,0,0,2.757-2.989V1377.4a7.422,7.422,0,0,0,4.97-6.734c0-3.889-3.4-7.019-7.78-7.3" transform="translate(-1177.343 -1220.868)" fill="#803d00"/>
        <path id="Trazado_245307" data-name="Trazado 245307" d="M1133.05,1297.328h-21.621V1248.9h6s-1.593,35.732,15.622,48.428" transform="translate(-977.836 -1118.371)" fill="#e6950b"/>
        <path id="Trazado_245308" data-name="Trazado 245308" d="M1556.571,1297.328c5.164-9.607,4.2-35.436,4.2-48.428h6.862v48.428Z" transform="translate(-1369.472 -1118.371)" fill="#f7e4ad"/>
      </g>
    </g>
    <g id="Grupo_592466" data-name="Grupo 592466" transform="translate(0 0)">
      <g id="Grupo_592465" data-name="Grupo 592465" clip-path="url(#clip-path)">
        <path id="Trazado_245309" data-name="Trazado 245309" d="M324.71,424.071s-6.991-.2-13.879.089c-7.155.3-14.208,1.126-13.2,3.272a2.006,2.006,0,0,1,.144,1.413c-1.439,5.739-27.532,10.03-33.289,6.508-4.3-2.628-16.141.751-20.993,2.574-9.241-53.787-9.5-108.772-1.316-112.6,8.183-3.808,30.863,1.019,30.863,1.019s11.494,2.646,16.182,29.982c4.709,27.318,35.489,67.741,35.489,67.741" transform="translate(-207.886 -290.016)" fill="#8f4240"/>
        <path id="Trazado_245310" data-name="Trazado 245310" d="M608.766,810.921a2.006,2.006,0,0,1,.144,1.412C601.836,793.578,585.182,740,591.227,754.6c5.8,14.088,23.995,42.622,30.739,53.045-7.155.3-14.208,1.126-13.2,3.272" transform="translate(-519.02 -673.505)" fill="#e9bcba"/>
        <path id="Trazado_245311" data-name="Trazado 245311" d="M92.544,353.894c-6.723,7.151-7.957,8.885-14.249,9.261a10.016,10.016,0,0,1,4.236,4.434h.021c1.851,3.522,2.118,7.634,5.346,9.94l-3.866,3.308-.987.858s-.144-.107-.391-.3c-1.686-1.359-8.389-6.848-12.378-11.889-2.344-2.932-3.763-5.7-2.776-7.437,1.6-5.042,5.716-15.393,16.182-18.486,6.868-6.49,13.591-3,15.976-.3,3.187,3.612-.021,11.335-7.114,10.62" transform="translate(-59.107 -304.36)" fill="#ef6f6c"/>
        <path id="Trazado_245312" data-name="Trazado 245312" d="M110.541,614.915l-3.866,3.308-1.378.554A95.291,95.291,0,0,1,93.64,607.764c-.247-.286-.493-.59-.72-.876,1.994-.018,8.409-.161,12.254-1.913h.021a9.1,9.1,0,0,1,.432.911c1.48,3.29,1.953,6.919,4.914,9.029" transform="translate(-81.751 -541.746)" fill="#231f20"/>
        <path id="Trazado_245313" data-name="Trazado 245313" d="M105.627,605.886c-4.256,2.253-9.129,2.182-11.987,1.877-.247-.286-.494-.59-.72-.876,1.994-.018,8.41-.161,12.254-1.913h.021a9.1,9.1,0,0,1,.432.911" transform="translate(-81.751 -541.746)" fill="#66b8ff"/>
        <path id="Trazado_245314" data-name="Trazado 245314" d="M180.153,670.879s4.4.356,5.737,1.364a1.39,1.39,0,0,1,.434,1.894c2.37,1.159,0,5.654-4.138,6.763s-6.85-5.669-6.85-5.669a5.223,5.223,0,0,1,4.817-4.352" transform="translate(-154.261 -600.762)" fill="#231f20"/>
        <path id="Trazado_245315" data-name="Trazado 245315" d="M549.689,1584.275h-14.94a1.718,1.718,0,0,1-.67-.522,105.326,105.326,0,0,0-1.878-14.314l10.406-.368,2.356,7.188c3.486,2.072,7.642,6.516,4.727,8.016" transform="translate(-468.231 -1405.079)" fill="#231f20"/>
        <path id="Trazado_245316" data-name="Trazado 245316" d="M541.263,1697.858h17.713c.449,0,.3-2.142-.151-2.142l-17.607.086c-.462,0-.417,2.056.045,2.056" transform="translate(-475.878 -1518.488)" fill="#231f20"/>
        <path id="Trazado_245317" data-name="Trazado 245317" d="M341.552,639.132c2.418,5.656,12.7,31.569,9.768,50.226,4.04,12.407,2.772,22.915,6.414,41.035l-10.6.486c-4.31-22.108-9.053-17.889-10.426-39.783a154.36,154.36,0,0,1-15.594-50.172c-2.261-12.622,15.561-19.25,20.442-1.791" transform="translate(-282.339 -562.841)" fill="#ef6f6c"/>
        <path id="Trazado_245318" data-name="Trazado 245318" d="M473.345,1267.538s-.794-6.579-5.783-19.147a79.472,79.472,0,0,1-2.825-7.992,14.869,14.869,0,0,1-.491-2.2,65.823,65.823,0,0,0,8.932-11.424c3.245,4.416,7.107,8.832,7.107,8.832s.1,1.037.274,2.735c.782,7.116,2.886,25.924,4.154,29.91,1.567,4.935-8.292,7.742-11.369-.715" transform="translate(-408.444 -1098.559)" fill="#231f20"/>
        <path id="Trazado_245319" data-name="Trazado 245319" d="M480.559,1238.342a74.827,74.827,0,0,1-7.294-8.117c-1.156,3.647-6.013,8.064-8.528,10.173a14.869,14.869,0,0,1-.491-2.2,65.823,65.823,0,0,0,8.932-11.424c3.245,4.416,7.107,8.832,7.107,8.832s.1,1.037.274,2.735" transform="translate(-408.444 -1098.559)" fill="#66b8ff"/>
        <path id="Trazado_245320" data-name="Trazado 245320" d="M203.455,650.407a249.893,249.893,0,0,1-5.8,45.56c2.138,16.808-2.724,19.94-4.921,43.985l-9.584-.111c-.024-9.759-.675-21.846-1.357-41.414-6.034-20.451-3.128-35.514-.878-47.74,2.4-13.886,24.072-18.482,22.539-.281" transform="translate(-156.784 -571.719)" fill="#ef6f6c"/>
        <path id="Trazado_245321" data-name="Trazado 245321" d="M130.974,1608.711c.855,3.981,1.468,7.087,1.109,10.69l-23.212.393s-2.3-1.946.591-4.865,8.375-1.23,11.927-6.329Z" transform="translate(-95.023 -1440.477)" fill="#231f20"/>
        <path id="Trazado_245322" data-name="Trazado 245322" d="M103.855,1697.858h24.662c.449,0,.331-2.142-.118-2.142l-24.557.086c-.462,0-.449,2.056.013,2.056" transform="translate(-91.06 -1518.488)" fill="#231f20"/>
        <path id="Trazado_245323" data-name="Trazado 245323" d="M214.182,1256.463l-.449,1.931c-1.168,5.31-4.3,20.131-3.933,26.8-4.357,4.523-10.021-.5-10.021-.5L197.5,1248.06l-.156-2.467a52.843,52.843,0,0,0,16.842,10.87" transform="translate(-173.62 -1115.41)" fill="#231f20"/>
        <path id="Trazado_245324" data-name="Trazado 245324" d="M214.182,1256.463l-.449,1.931A30.616,30.616,0,0,1,197.5,1248.06l-.156-2.467a52.843,52.843,0,0,0,16.842,10.87" transform="translate(-173.62 -1115.41)" fill="#66b8ff"/>
        <path id="Trazado_245325" data-name="Trazado 245325" d="M202.082,368.522c0,4.26,34.793,3.027,34.793-1.233a54.313,54.313,0,0,1,2.519-17.595c10.431-8.886,9.809-15.784,7.166-19.526-4.558-6.453-27.584-6.087-35.874-3.313-3.292,1.1-7.713,5.589-9.127,12.742-.727,3.678,2.388,7.96,2.88,10.933,1.139,6.88-2.125,17-2.357,17.992" transform="translate(-177.235 -290.998)" fill="#ef6f6c"/>
        <path id="Trazado_245326" data-name="Trazado 245326" d="M355.049,240.7c1.717-1.186,8.565-3.015,10.386-4.312l-.411-10.336-6.733-.57a22.551,22.551,0,0,0-5.585,1.124l-1.516,6.806-.334,1.476c-.762,1.453.748,3.2,4.193,5.812" transform="translate(-308.513 -201.918)" fill="#f7a594"/>
        <path id="Trazado_245327" data-name="Trazado 245327" d="M366.622,245.89a15.768,15.768,0,0,1-11.568,5.02l1.311-5.888Z" transform="translate(-312.377 -219.414)" fill="#e6836f"/>
        <path id="Trazado_245328" data-name="Trazado 245328" d="M316.643,58.449c-.528,2.036-1.616,6.507-1.438,8.566.271,3.135,3.638,6.611,6.574,7.068,3.4.3,7.982-.579,10.47-2.438a29.387,29.387,0,0,0,5.3-7.688c2.573-6.111-2.394-11.471-8.695-12.708s-10.564.852-12.21,7.2" transform="translate(-277.3 -45.588)" fill="#f7a594"/>
        <path id="Trazado_245329" data-name="Trazado 245329" d="M357.435,60.854c1.314-2.011-.432-2.825-2.346-1.264.327-1.517,2.317-5.963.554-7.437-1.99-1.71-10.749-.966-15.454-5.232,0,0,3.507-6.686,15.018-2.738,13,5.994,2.227,16.671,2.227,16.671" transform="translate(-299.299 -38.448)" fill="#73382a"/>
        <path id="Trazado_245330" data-name="Trazado 245330" d="M464.437,187.124c-1,1.052-1.037,2.449-.094,3.118a2.843,2.843,0,0,0,3.51-.693c1-1.052,1.037-2.449.094-3.119a2.843,2.843,0,0,0-3.51.693" transform="translate(-407.93 -166.63)" fill="#f7a594"/>
        <path id="Trazado_245331" data-name="Trazado 245331" d="M340.427,290.147c1.151,1.787,12.988.858,14.057-.643l.658,5.718-11.015,5.432-5.754-5.5Z" transform="translate(-297.7 -259.247)" fill="#bf5856"/>
        <path id="Trazado_245332" data-name="Trazado 245332" d="M349.063,28.315c-.324-5.005-11.465-12.068-19.457-9.446-5.39,1.769-4.126,6.744.567,7.684,4.138.828,15.6-3.485,18.89,1.762" transform="translate(-286.883 -16.39)" fill="#231f20"/>
        <path id="Trazado_245333" data-name="Trazado 245333" d="M326.786,2.5A5.926,5.926,0,0,1,327.909,0c-6.253,3.562-3.141,7.821-3.068,8,2.48-6.548,8.4-6.247,10.5-6.224-5.406-2.213-8.5.52-8.554.716" transform="translate(-285.058 -0.001)" fill="#231f20"/>
        <path id="Trazado_245334" data-name="Trazado 245334" d="M194.7,755.579c9.077,3.4,30.045,2.654,36.312.047l1.6,4.616c-13.634,2.794-26.678,2.873-39.061-.087Z" transform="translate(-170.289 -676.61)" fill="#66b8ff"/>
        <path id="Trazado_245335" data-name="Trazado 245335" d="M496.022,389.234c-6,5.6-18.67,11.978-18.67,11.978l-3.886-4.863c4.03-1.931,6.251-6.937,10.1-10.37a13.8,13.8,0,0,1,4.626-2.807c-6.127-1.377-9.212-2.7-14.311-10.8-7.135-.429-8.677-8.545-4.791-11.567,2.92-2.271,10.281-4.648,15.668,2.825,9.623,4.7,13.735,14.964,14.249,20.185.473,1.484-.823,3.4-2.981,5.417" transform="translate(-410.874 -321.089)" fill="#ef6f6c"/>
        <path id="Trazado_245336" data-name="Trazado 245336" d="M490.7,695.067s-4.4-.35-5.927.429a1.43,1.43,0,0,0-.824,1.793c-2.574.763-1.189,5.558,2.647,7.307s7.926-4.484,7.926-4.484a4.9,4.9,0,0,0-3.821-5.045" transform="translate(-424.626 -622.352)" fill="#231f20"/>
        <path id="Trazado_245337" data-name="Trazado 245337" d="M543.3,624.136c-.37.34-.761.7-1.172,1.037-6.333,5.328-17.5,10.942-17.5,10.942l-3.886-4.863c3.475-1.663,5.593-5.6,8.574-8.85a18.96,18.96,0,0,1,1.521-1.519,32.569,32.569,0,0,0,12.46,3.254" transform="translate(-458.147 -555.99)" fill="#231f20"/>
        <path id="Trazado_245338" data-name="Trazado 245338" d="M606.055,624.136c-.37.34-.761.7-1.172,1.037a44.4,44.4,0,0,1-12.81-2.771,18.98,18.98,0,0,1,1.521-1.519,32.569,32.569,0,0,0,12.46,3.254" transform="translate(-520.906 -555.99)" fill="#66b8ff"/>
        <path id="Trazado_245339" data-name="Trazado 245339" d="M415.052,452.309h0l0-.027,0,.027" transform="translate(-365.163 -405.012)" fill="#d9ffff"/>
        <path id="Trazado_245340" data-name="Trazado 245340" d="M415.052,452.309h0l0-.027,0,.027" transform="translate(-365.163 -405.012)" fill="#d9ffff"/>
        <path id="Trazado_245341" data-name="Trazado 245341" d="M324.63,439.338l0-.027,0,.027" transform="translate(-285.61 -393.396)" fill="#d9ffff"/>
        <path id="Trazado_245342" data-name="Trazado 245342" d="M324.63,439.338l0-.027,0,.027" transform="translate(-285.61 -393.396)" fill="#d9ffff"/>
        <path id="Trazado_245343" data-name="Trazado 245343" d="M325.566,418.553a10.877,10.877,0,0,0,5.048,3.557l-.608,4.5c-.646,4.775-5.652,6.5-6.428,6.767-.66-.405-5.073-3.346-4.428-8.121l.608-4.5a11.091,11.091,0,0,0,5.808-2.2" transform="translate(-280.731 -374.808)" fill="#fff"/>
        <path id="Trazado_245344" data-name="Trazado 245344" d="M336.338,442.821l-.009.006a8.948,8.948,0,0,1-3.893,1.4l-.413,3.054a5.079,5.079,0,0,0,1.21,3.964,8.078,8.078,0,0,0,1.7,1.566l.051.034a8.313,8.313,0,0,0,2.117-1.118,5.191,5.191,0,0,0,2.224-3.536l.413-3.054a8.724,8.724,0,0,1-3.4-2.317" transform="translate(-292.075 -396.54)" fill="#f7af0c"/>
        <path id="Trazado_245345" data-name="Trazado 245345" d="M293.059,328.918c.59,1.32,2.56,2.482,4.781,3.615a34.71,34.71,0,0,0,11.357-3.579c3.33-.013,5.727,1.1,8.192,1.923l-19.667,2.783-11.552-3.792a27.629,27.629,0,0,1,6.889-.95" transform="translate(-251.773 -294.541)" fill="#8f4240" stroke="#bf5856" stroke-width="1"/>
        <path id="Trazado_245346" data-name="Trazado 245346" d="M905.6,667.362h0l0-.13c0,.016,0,.13,0,.13" transform="translate(-796.746 -597.496)" fill="#d9ffff"/>
        <path id="Trazado_245347" data-name="Trazado 245347" d="M905.6,667.362h0l0-.13c0,.016,0,.13,0,.13" transform="translate(-796.746 -597.496)" fill="#d9ffff"/>
        <path id="Trazado_245348" data-name="Trazado 245348" d="M422.874,672.677s0-.114,0-.13c0,.008,0,.046,0,.13" transform="translate(-372.043 -602.256)" fill="#d9ffff"/>
        <path id="Trazado_245349" data-name="Trazado 245349" d="M422.874,672.677s0-.114,0-.13c0,.008,0,.046,0,.13" transform="translate(-372.043 -602.256)" fill="#d9ffff"/>
        <path id="Trazado_245350" data-name="Trazado 245350" d="M451.929,540.241c6.81,6.231,17.638,11.307,29.2,13.43.009.667.056,4.365.274,21.408.291,22.735-24.624,33.988-28.493,35.715-3.772-1.477-29.172-12.425-29.462-35.16-.218-17.043-.265-20.741-.274-21.408,11.505-2.344,22.105-7.625,28.754-13.985" transform="translate(-372.31 -483.778)" fill="#fff"/>
        <path id="Trazado_245351" data-name="Trazado 245351" d="M662.809,579.554c6.662,5.22,15.867,9.3,25.971,11.494l.246,19.263c.113,8.814-3.872,16.811-11.845,23.77a57.962,57.962,0,0,1-13.564,8.7l-.386-.17-.48-63.015.057-.045" transform="translate(-583.09 -518.982)" fill="#ef6f6c"/>
        <path id="Trazado_245352" data-name="Trazado 245352" d="M475.276,579.987l.48,63.015a58.388,58.388,0,0,1-13.4-8.272c-8.148-6.8-12.336-14.723-12.449-23.537l-.246-19.263c10.017-2.38,19.091-6.619,25.613-11.943" transform="translate(-395.614 -519.37)" fill="#bf5856"/>
        <path id="Trazado_245353" data-name="Trazado 245353" d="M567,845.139l.114,14.924c.013,1.661,23.455,1.528,23.442-.134l-.114-14.923Zm8.868,5.583a2.927,2.927,0,0,1,5.792-.033,2.518,2.518,0,0,1-1.693,2.292l.032,4.239a1.2,1.2,0,0,1-2.372.014l-.032-4.23a2.517,2.517,0,0,1-1.727-2.282" transform="translate(-498.846 -756.689)" fill="#fff"/>
        <path id="Trazado_245354" data-name="Trazado 245354" d="M583.944,755.211l2.373-.013-.008-1c-.027-3.482,3.225-6.333,7.247-6.356s7.317,2.791,7.344,6.273l.008,1,2.373-.013-.008-1c-.035-4.614-4.4-8.344-9.732-8.313s-9.639,3.809-9.6,8.424Z" transform="translate(-513.747 -667.837)" fill="#fff"/>
      </g>
    </g>
  </g>
</svg>
