<svg xmlns="http://www.w3.org/2000/svg" xmlns:xlink="http://www.w3.org/1999/xlink" width="1077.141" height="402" viewBox="0 0 1077.141 402">
  <defs>
    <clipPath id="clip-path">
      <rect id="Rectángulo_50061" data-name="Rectángulo 50061" width="597.377" height="137.538" fill="none"/>
    </clipPath>
  </defs>
  <g id="Grupo_593156" data-name="Grupo 593156" transform="translate(696.141 2875)">
    <path id="Trazado_226782" data-name="Trazado 226782" d="M28.623,0H1048.517c15.808,0,28.623,8.507,28.623,19V383c0,10.493-12.815,19-28.623,19H28.623C12.815,402,0,393.493,0,383V19C0,8.507,12.815,0,28.623,0Z" transform="translate(-696.141 -2875)" fill="#7cbbbb"/>
    <path id="Trazado_246536" data-name="Trazado 246536" d="M-125.049-4.824V0h-3.428V-14.219h5.674a6.608,6.608,0,0,1,2.886.6,4.526,4.526,0,0,1,1.943,1.709,4.667,4.667,0,0,1,.688,2.515,4.114,4.114,0,0,1-1.489,3.325,6.179,6.179,0,0,1-4.087,1.245Zm0-2.646h2.246a2.118,2.118,0,0,0,1.519-.5,1.85,1.85,0,0,0,.522-1.406,2.287,2.287,0,0,0-.537-1.592,1.9,1.9,0,0,0-1.465-.605h-2.285Zm15.83-.117-1.084-.078a1.947,1.947,0,0,0-1.992.977V0h-3.291V-10.566h3.086l.107,1.357a2.548,2.548,0,0,1,2.314-1.553,3.209,3.209,0,0,1,.918.117Zm.42,2.207a6.236,6.236,0,0,1,.615-2.817,4.4,4.4,0,0,1,1.768-1.9,5.323,5.323,0,0,1,2.705-.664,4.858,4.858,0,0,1,3.74,1.47,5.64,5.64,0,0,1,1.367,4v.117a5.472,5.472,0,0,1-1.372,3.921A4.871,4.871,0,0,1-103.691.2a4.927,4.927,0,0,1-3.623-1.353,5.29,5.29,0,0,1-1.475-3.667Zm3.291.205a3.932,3.932,0,0,0,.459,2.148,1.529,1.529,0,0,0,1.357.684q1.758,0,1.8-2.705v-.332q0-2.842-1.816-2.842-1.65,0-1.787,2.451Zm12.822,2.832a1.464,1.464,0,0,0,1.074-.376,1.379,1.379,0,0,0,.371-1.05h3.086A3.653,3.653,0,0,1-89.4-.918,4.631,4.631,0,0,1-92.607.2,4.689,4.689,0,0,1-96.24-1.25a5.7,5.7,0,0,1-1.328-4v-.137a6.436,6.436,0,0,1,.591-2.827,4.3,4.3,0,0,1,1.7-1.885,5.081,5.081,0,0,1,2.637-.659,4.573,4.573,0,0,1,3.271,1.143,4.053,4.053,0,0,1,1.211,3.1H-91.24a1.806,1.806,0,0,0-.4-1.26,1.382,1.382,0,0,0-1.074-.439q-1.279,0-1.494,1.631a11.508,11.508,0,0,0-.068,1.426A4.52,4.52,0,0,0-93.9-2.959,1.319,1.319,0,0,0-92.686-2.344ZM-81.65.2a5.432,5.432,0,0,1-3.936-1.45,5.008,5.008,0,0,1-1.5-3.774V-5.3a6.489,6.489,0,0,1,.6-2.861,4.395,4.395,0,0,1,1.753-1.919A5.292,5.292,0,0,1-82-10.762,4.574,4.574,0,0,1-78.486-9.38,5.43,5.43,0,0,1-77.2-5.527v1.279H-83.74a2.372,2.372,0,0,0,.771,1.4,2.3,2.3,0,0,0,1.543.508,2.958,2.958,0,0,0,2.441-1.094l1.5,1.777A4.2,4.2,0,0,1-79.224-.308,5.891,5.891,0,0,1-81.65.2Zm-.371-8.418q-1.445,0-1.719,1.914h3.32v-.254a1.63,1.63,0,0,0-.4-1.226A1.593,1.593,0,0,0-82.021-8.223Zm11.68,5.254a.76.76,0,0,0-.439-.674,6.685,6.685,0,0,0-1.67-.527,7.615,7.615,0,0,1-2.031-.718A3.4,3.4,0,0,1-75.7-5.967a2.577,2.577,0,0,1-.42-1.455,2.92,2.92,0,0,1,1.2-2.4,4.948,4.948,0,0,1,3.145-.942,5.482,5.482,0,0,1,3.359.947,2.962,2.962,0,0,1,1.27,2.49h-3.3q0-1.27-1.338-1.27a1.326,1.326,0,0,0-.869.288.892.892,0,0,0-.352.718.819.819,0,0,0,.43.713,4.06,4.06,0,0,0,1.372.449,11.857,11.857,0,0,1,1.655.42,3.007,3.007,0,0,1,2.383,2.939A2.767,2.767,0,0,1-68.452-.713,5.631,5.631,0,0,1-71.777.2,5.747,5.747,0,0,1-74.2-.293a4.05,4.05,0,0,1-1.66-1.328,3.007,3.007,0,0,1-.6-1.768h3.076a1.272,1.272,0,0,0,.488,1.069,2.009,2.009,0,0,0,1.2.337,1.58,1.58,0,0,0,1.011-.273A.875.875,0,0,0-70.342-2.969Zm4.3-2.412A6.236,6.236,0,0,1-65.43-8.2a4.4,4.4,0,0,1,1.768-1.9,5.323,5.323,0,0,1,2.705-.664,4.858,4.858,0,0,1,3.74,1.47,5.64,5.64,0,0,1,1.367,4v.117a5.472,5.472,0,0,1-1.372,3.921A4.871,4.871,0,0,1-60.937.2a4.927,4.927,0,0,1-3.623-1.353,5.29,5.29,0,0,1-1.475-3.667Zm3.291.205a3.932,3.932,0,0,0,.459,2.148,1.529,1.529,0,0,0,1.357.684q1.758,0,1.8-2.705v-.332q0-2.842-1.816-2.842-1.65,0-1.787,2.451Zm13.887,2.207a.76.76,0,0,0-.439-.674,6.685,6.685,0,0,0-1.67-.527,7.615,7.615,0,0,1-2.031-.718,3.4,3.4,0,0,1-1.221-1.079,2.577,2.577,0,0,1-.42-1.455,2.92,2.92,0,0,1,1.2-2.4,4.948,4.948,0,0,1,3.145-.942,5.482,5.482,0,0,1,3.359.947,2.962,2.962,0,0,1,1.27,2.49h-3.3q0-1.27-1.338-1.27a1.326,1.326,0,0,0-.869.288.892.892,0,0,0-.352.718.819.819,0,0,0,.43.713,4.06,4.06,0,0,0,1.372.449,11.857,11.857,0,0,1,1.655.42,3.007,3.007,0,0,1,2.383,2.939A2.767,2.767,0,0,1-46.978-.713,5.632,5.632,0,0,1-50.3.2a5.747,5.747,0,0,1-2.422-.488,4.05,4.05,0,0,1-1.66-1.328,3.007,3.007,0,0,1-.6-1.768H-51.9a1.272,1.272,0,0,0,.488,1.069,2.009,2.009,0,0,0,1.2.337A1.58,1.58,0,0,0-49.2-2.256.875.875,0,0,0-48.867-2.969Zm9.277-2.393a6.455,6.455,0,0,1,1.084-3.955,3.568,3.568,0,0,1,3.027-1.445A3.035,3.035,0,0,1-33.1-9.648V-15h3.3V0h-2.959l-.166-1.133A3.116,3.116,0,0,1-35.5.2,3.562,3.562,0,0,1-38.486-1.25,6.659,6.659,0,0,1-39.59-5.361Zm3.291.205q0,2.813,1.641,2.813A1.62,1.62,0,0,0-33.1-3.262V-7.285a1.576,1.576,0,0,0-1.543-.937q-1.523,0-1.65,2.461ZM-22.812.2a5.432,5.432,0,0,1-3.936-1.45,5.008,5.008,0,0,1-1.5-3.774V-5.3a6.489,6.489,0,0,1,.6-2.861A4.395,4.395,0,0,1-25.9-10.083a5.292,5.292,0,0,1,2.734-.679A4.574,4.574,0,0,1-19.648-9.38a5.43,5.43,0,0,1,1.289,3.853v1.279H-24.9a2.372,2.372,0,0,0,.771,1.4,2.3,2.3,0,0,0,1.543.508,2.958,2.958,0,0,0,2.441-1.094l1.5,1.777A4.2,4.2,0,0,1-20.386-.308,5.891,5.891,0,0,1-22.812.2Zm-.371-8.418q-1.445,0-1.719,1.914h3.32v-.254a1.63,1.63,0,0,0-.4-1.226A1.593,1.593,0,0,0-23.184-8.223ZM-6.1,0a3.716,3.716,0,0,1-.312-.947A3.06,3.06,0,0,1-8.955.2a3.749,3.749,0,0,1-2.539-.9,2.875,2.875,0,0,1-1.045-2.271,2.955,2.955,0,0,1,1.27-2.6,6.468,6.468,0,0,1,3.691-.879h1.016v-.559q0-1.462-1.26-1.462A1.03,1.03,0,0,0-8.994-7.319h-3.291a2.95,2.95,0,0,1,1.3-2.487,5.479,5.479,0,0,1,3.325-.956,4.8,4.8,0,0,1,3.193.986,3.429,3.429,0,0,1,1.2,2.705v4.678A4.79,4.79,0,0,0-2.812-.166V0ZM-8.164-2.148a1.836,1.836,0,0,0,1.021-.264,1.653,1.653,0,0,0,.581-.6V-4.7H-7.52q-1.719,0-1.719,1.543a.942.942,0,0,0,.3.728A1.1,1.1,0,0,0-8.164-2.148ZM8.369-5.205A6.372,6.372,0,0,1,7.261-1.274,3.554,3.554,0,0,1,4.268.2,3.046,3.046,0,0,1,1.875-.869V4.063H-1.416V-10.566H1.66l.1.977a3.046,3.046,0,0,1,2.49-1.172,3.582,3.582,0,0,1,3.037,1.44,6.45,6.45,0,0,1,1.084,3.96ZM5.078-5.41q0-2.812-1.641-2.812a1.549,1.549,0,0,0-1.562.84v4.16a1.6,1.6,0,0,0,1.582.879q1.572,0,1.621-2.715ZM9.4-5.381A6.236,6.236,0,0,1,10.02-8.2a4.4,4.4,0,0,1,1.768-1.9,5.323,5.323,0,0,1,2.705-.664,4.858,4.858,0,0,1,3.74,1.47,5.64,5.64,0,0,1,1.367,4v.117a5.472,5.472,0,0,1-1.372,3.921A4.871,4.871,0,0,1,14.512.2a4.927,4.927,0,0,1-3.623-1.353A5.29,5.29,0,0,1,9.414-4.824Zm3.291.205a3.932,3.932,0,0,0,.459,2.148,1.529,1.529,0,0,0,1.357.684q1.758,0,1.8-2.705v-.332q0-2.842-1.816-2.842-1.65,0-1.787,2.451Zm12.578.566,1.758-5.957h3.525L26.25,1.768l-.186.449a3.272,3.272,0,0,1-3.242,2.051,5.158,5.158,0,0,1-1.357-.195V1.729h.43a2.251,2.251,0,0,0,1.06-.2A1.216,1.216,0,0,0,23.5.81l.264-.7L20.088-10.566H23.6ZM31-5.381A6.236,6.236,0,0,1,31.611-8.2a4.4,4.4,0,0,1,1.768-1.9,5.323,5.323,0,0,1,2.705-.664,4.858,4.858,0,0,1,3.74,1.47,5.64,5.64,0,0,1,1.367,4v.117a5.472,5.472,0,0,1-1.372,3.921A4.871,4.871,0,0,1,36.1.2,4.927,4.927,0,0,1,32.48-1.157a5.29,5.29,0,0,1-1.475-3.667Zm3.291.205a3.932,3.932,0,0,0,.459,2.148,1.529,1.529,0,0,0,1.357.684q1.758,0,1.8-2.705v-.332q0-2.842-1.816-2.842-1.65,0-1.787,2.451Zm17.559.566L53.6-10.566h3.525L52.822,1.768l-.186.449a3.272,3.272,0,0,1-3.242,2.051,5.158,5.158,0,0,1-1.357-.195V1.729h.43a2.251,2.251,0,0,0,1.06-.2A1.216,1.216,0,0,0,50.068.81l.264-.7L46.66-10.566h3.516Zm10.732-.752a7.134,7.134,0,0,1,.527-2.832,4.245,4.245,0,0,1,1.514-1.9,3.99,3.99,0,0,1,2.295-.669,3.173,3.173,0,0,1,2.578,1.113l.117-.918H72.6V-.4a4.455,4.455,0,0,1-.649,2.427,4.167,4.167,0,0,1-1.88,1.582,6.91,6.91,0,0,1-2.852.552,5.961,5.961,0,0,1-2.251-.439A4.063,4.063,0,0,1,63.3,2.578L64.678.645A3.018,3.018,0,0,0,67.1,1.729,1.96,1.96,0,0,0,69.287-.518V-.85A3.09,3.09,0,0,1,66.895.2,3.819,3.819,0,0,1,63.77-1.284a6.13,6.13,0,0,1-1.191-3.96Zm3.3.205A3.759,3.759,0,0,0,66.367-3.1a1.541,1.541,0,0,0,1.367.757,1.748,1.748,0,0,0,1.553-.713V-7.5a1.7,1.7,0,0,0-1.533-.723,1.551,1.551,0,0,0-1.377.786A4.287,4.287,0,0,0,65.879-5.156ZM79.58.2a5.432,5.432,0,0,1-3.936-1.45,5.008,5.008,0,0,1-1.5-3.774V-5.3a6.489,6.489,0,0,1,.6-2.861,4.395,4.395,0,0,1,1.753-1.919,5.292,5.292,0,0,1,2.734-.679A4.574,4.574,0,0,1,82.744-9.38a5.43,5.43,0,0,1,1.289,3.853v1.279H77.49a2.372,2.372,0,0,0,.771,1.4,2.3,2.3,0,0,0,1.543.508,2.958,2.958,0,0,0,2.441-1.094l1.5,1.777A4.2,4.2,0,0,1,82.007-.308,5.891,5.891,0,0,1,79.58.2Zm-.371-8.418q-1.445,0-1.719,1.914h3.32v-.254a1.63,1.63,0,0,0-.4-1.226A1.593,1.593,0,0,0,79.209-8.223Zm11.68,5.254a.76.76,0,0,0-.439-.674,6.685,6.685,0,0,0-1.67-.527,7.615,7.615,0,0,1-2.031-.718,3.4,3.4,0,0,1-1.221-1.079,2.577,2.577,0,0,1-.42-1.455,2.92,2.92,0,0,1,1.2-2.4,4.948,4.948,0,0,1,3.145-.942,5.482,5.482,0,0,1,3.359.947,2.962,2.962,0,0,1,1.27,2.49h-3.3q0-1.27-1.338-1.27a1.326,1.326,0,0,0-.869.288.892.892,0,0,0-.352.718.819.819,0,0,0,.43.713,4.06,4.06,0,0,0,1.372.449,11.857,11.857,0,0,1,1.655.42,3.007,3.007,0,0,1,2.383,2.939A2.767,2.767,0,0,1,92.778-.713,5.631,5.631,0,0,1,89.453.2a5.747,5.747,0,0,1-2.422-.488,4.05,4.05,0,0,1-1.66-1.328,3.007,3.007,0,0,1-.6-1.768h3.076a1.272,1.272,0,0,0,.488,1.069,2.009,2.009,0,0,0,1.2.337,1.58,1.58,0,0,0,1.011-.273A.875.875,0,0,0,90.889-2.969Zm8.545-10.225v2.627h1.738v2.285H99.434v4.834a1.234,1.234,0,0,0,.215.83,1.152,1.152,0,0,0,.85.234,4.828,4.828,0,0,0,.82-.059V-.088A6.074,6.074,0,0,1,99.463.2a3.448,3.448,0,0,1-2.51-.8,3.282,3.282,0,0,1-.811-2.432V-8.281H94.795v-2.285h1.348v-2.627ZM105.938,0h-3.3V-10.566h3.3Zm-3.5-13.291a1.469,1.469,0,0,1,.508-1.152,1.916,1.916,0,0,1,1.318-.449,1.916,1.916,0,0,1,1.318.449,1.469,1.469,0,0,1,.508,1.152,1.469,1.469,0,0,1-.508,1.152,1.916,1.916,0,0,1-1.318.449,1.916,1.916,0,0,1-1.318-.449A1.469,1.469,0,0,1,102.441-13.291Zm5.107,7.91a6.236,6.236,0,0,1,.615-2.817,4.4,4.4,0,0,1,1.768-1.9,5.323,5.323,0,0,1,2.705-.664,4.858,4.858,0,0,1,3.74,1.47,5.64,5.64,0,0,1,1.367,4v.117a5.472,5.472,0,0,1-1.372,3.921A4.871,4.871,0,0,1,112.656.2a4.927,4.927,0,0,1-3.623-1.353,5.29,5.29,0,0,1-1.475-3.667Zm3.291.205a3.932,3.932,0,0,0,.459,2.148,1.529,1.529,0,0,0,1.357.684q1.758,0,1.8-2.705v-.332q0-2.842-1.816-2.842-1.65,0-1.787,2.451ZM113.086-15h3.477l-2.715,3.066-2.686,0Zm9.131,4.434.107,1.24a3.583,3.583,0,0,1,3.018-1.436,3.015,3.015,0,0,1,2.466.986,4.7,4.7,0,0,1,.845,2.969V0h-3.3V-6.67a1.783,1.783,0,0,0-.322-1.177,1.491,1.491,0,0,0-1.172-.376,1.569,1.569,0,0,0-1.436.762V0h-3.291V-10.566Z" transform="translate(-527 -2831)" fill="#12263f"/>
    <g id="Trazado_246534" data-name="Trazado 246534" transform="translate(-301 -2811)" fill="#0e8282">
      <path d="M 326.5 37.5 L 0.5 37.5 L 0.5 0.5 L 326.5 0.5 L 326.5 37.5 Z" stroke="none"/>
      <path d="M 1 1 L 1 37 L 326 37 L 326 1 L 1 1 M 0 0 L 327 0 L 327 38 L 0 38 L 0 0 Z" stroke="none" fill="#fff"/>
    </g>
    <path id="Trazado_246535" data-name="Trazado 246535" d="M-94.568-7.355a2.311,2.311,0,0,1-.393,1.326,2.674,2.674,0,0,1-1.063.909,2.853,2.853,0,0,1,1.234.978,2.46,2.46,0,0,1,.455,1.456,2.6,2.6,0,0,1-.872,2.058A3.349,3.349,0,0,1-97.5.137a3.334,3.334,0,0,1-2.3-.769,2.613,2.613,0,0,1-.865-2.054,2.533,2.533,0,0,1,.441-1.456A2.744,2.744,0,0,1-99-5.127a2.608,2.608,0,0,1-1.046-.909,2.344,2.344,0,0,1-.383-1.319,2.573,2.573,0,0,1,.807-2A3.026,3.026,0,0,1-97.5-10.09a3.029,3.029,0,0,1,2.123.738A2.567,2.567,0,0,1-94.568-7.355ZM-95.6-2.714a1.834,1.834,0,0,0-.53-1.36A1.879,1.879,0,0,0-97.515-4.6a1.846,1.846,0,0,0-1.371.52A1.855,1.855,0,0,0-99.4-2.714a1.767,1.767,0,0,0,.5,1.333A1.929,1.929,0,0,0-97.5-.9a1.923,1.923,0,0,0,1.395-.489A1.763,1.763,0,0,0-95.6-2.714Zm-1.9-6.337a1.632,1.632,0,0,0-1.207.461,1.7,1.7,0,0,0-.461,1.254,1.687,1.687,0,0,0,.455,1.227A1.613,1.613,0,0,0-97.5-5.64a1.613,1.613,0,0,0,1.213-.468,1.687,1.687,0,0,0,.455-1.227A1.687,1.687,0,0,0-96.3-8.572,1.609,1.609,0,0,0-97.5-9.051ZM-88.949,0V-9.953h2.81a4.523,4.523,0,0,1,2.3.574A3.884,3.884,0,0,1-82.3-7.745a5.318,5.318,0,0,1,.55,2.434v.636a5.336,5.336,0,0,1-.543,2.468A3.823,3.823,0,0,1-83.846-.581,4.811,4.811,0,0,1-86.194,0Zm1.313-8.88v7.807h1.381a3,3,0,0,0,2.362-.944,3.9,3.9,0,0,0,.844-2.689v-.582a3.963,3.963,0,0,0-.8-2.637,2.834,2.834,0,0,0-2.259-.954ZM-76.9.137a3.232,3.232,0,0,1-2.447-.988,3.666,3.666,0,0,1-.943-2.642v-.232a4.438,4.438,0,0,1,.42-1.965,3.28,3.28,0,0,1,1.176-1.354,2.956,2.956,0,0,1,1.637-.489,2.77,2.77,0,0,1,2.242.95,4.114,4.114,0,0,1,.8,2.721v.526h-5.011a2.629,2.629,0,0,0,.639,1.767A2.009,2.009,0,0,0-76.829-.9a2.2,2.2,0,0,0,1.135-.273,2.851,2.851,0,0,0,.813-.725l.772.6A3.106,3.106,0,0,1-76.9.137Zm-.157-6.631a1.687,1.687,0,0,0-1.285.557,2.708,2.708,0,0,0-.643,1.562h3.705v-.1a2.409,2.409,0,0,0-.52-1.494A1.588,1.588,0,0,0-77.055-6.494Zm8.812,4.532a.931.931,0,0,0-.386-.8,3.718,3.718,0,0,0-1.347-.489A6.367,6.367,0,0,1-71.5-3.739a2.169,2.169,0,0,1-.834-.684,1.635,1.635,0,0,1-.27-.943A1.919,1.919,0,0,1-71.835-6.9a3,3,0,0,1,1.965-.629,3.091,3.091,0,0,1,2.041.649,2.063,2.063,0,0,1,.783,1.661h-1.271a1.142,1.142,0,0,0-.441-.9,1.652,1.652,0,0,0-1.111-.376,1.729,1.729,0,0,0-1.08.3.947.947,0,0,0-.39.786.767.767,0,0,0,.362.69,4.458,4.458,0,0,0,1.309.444,6.821,6.821,0,0,1,1.535.506,2.239,2.239,0,0,1,.872.708,1.74,1.74,0,0,1,.284,1.008,1.893,1.893,0,0,1-.793,1.589,3.326,3.326,0,0,1-2.058.6A3.725,3.725,0,0,1-71.4-.178a2.557,2.557,0,0,1-1.07-.878,2.117,2.117,0,0,1-.386-1.22h1.265a1.309,1.309,0,0,0,.509,1.008A1.976,1.976,0,0,0-69.829-.9a2.039,2.039,0,0,0,1.152-.291A.893.893,0,0,0-68.243-1.962ZM-60.765,0a2.657,2.657,0,0,1-.178-.779,2.822,2.822,0,0,1-2.105.916,2.611,2.611,0,0,1-1.794-.619,2,2,0,0,1-.7-1.569,2.091,2.091,0,0,1,.878-1.794,4.142,4.142,0,0,1,2.471-.639h1.23v-.581a1.42,1.42,0,0,0-.4-1.056,1.593,1.593,0,0,0-1.169-.393,1.844,1.844,0,0,0-1.135.342,1.007,1.007,0,0,0-.458.827h-1.271A1.745,1.745,0,0,1-65-6.416a2.683,2.683,0,0,1,1.066-.817,3.588,3.588,0,0,1,1.48-.3,2.924,2.924,0,0,1,2,.639,2.306,2.306,0,0,1,.752,1.76v3.4a4.162,4.162,0,0,0,.26,1.62V0Zm-2.1-.964a2.223,2.223,0,0,0,1.128-.308,1.861,1.861,0,0,0,.772-.8V-3.589h-.991q-2.324,0-2.324,1.36a1.151,1.151,0,0,0,.4.93A1.524,1.524,0,0,0-62.863-.964Zm8.723-5.3a3.79,3.79,0,0,0-.622-.048,1.667,1.667,0,0,0-1.688,1.06V0h-1.265V-7.4h1.23l.021.854A1.969,1.969,0,0,1-54.7-7.533a1.292,1.292,0,0,1,.561.1Zm4.737,0a3.79,3.79,0,0,0-.622-.048,1.667,1.667,0,0,0-1.688,1.06V0h-1.265V-7.4h1.23l.021.854a1.969,1.969,0,0,1,1.764-.991,1.292,1.292,0,0,1,.561.1Zm.69,2.5a4.369,4.369,0,0,1,.427-1.955A3.187,3.187,0,0,1-47.1-7.062a3.238,3.238,0,0,1,1.74-.472,3.119,3.119,0,0,1,2.444,1.046,4.024,4.024,0,0,1,.933,2.782v.089a4.407,4.407,0,0,1-.414,1.938A3.14,3.14,0,0,1-43.576-.342a3.275,3.275,0,0,1-1.767.479A3.111,3.111,0,0,1-47.78-.909a4,4,0,0,1-.933-2.769Zm1.271.15a3.164,3.164,0,0,0,.571,1.976A1.827,1.827,0,0,0-45.343-.9a1.816,1.816,0,0,0,1.531-.755,3.46,3.46,0,0,0,.567-2.116,3.159,3.159,0,0,0-.578-1.972,1.836,1.836,0,0,0-1.535-.755,1.816,1.816,0,0,0-1.511.745A3.434,3.434,0,0,0-47.441-3.616ZM-39.02,0h-1.265V-10.5h1.265Zm3.4,0h-1.265V-10.5h1.265Zm1.688-3.767a4.369,4.369,0,0,1,.427-1.955,3.187,3.187,0,0,1,1.189-1.34,3.238,3.238,0,0,1,1.74-.472,3.119,3.119,0,0,1,2.444,1.046A4.024,4.024,0,0,1-27.2-3.705v.089a4.407,4.407,0,0,1-.414,1.938A3.14,3.14,0,0,1-28.8-.342a3.275,3.275,0,0,1-1.767.479A3.111,3.111,0,0,1-33-.909a4,4,0,0,1-.933-2.769Zm1.271.15a3.164,3.164,0,0,0,.571,1.976A1.827,1.827,0,0,0-30.563-.9a1.816,1.816,0,0,0,1.531-.755,3.46,3.46,0,0,0,.567-2.116,3.159,3.159,0,0,0-.578-1.972,1.836,1.836,0,0,0-1.535-.755,1.816,1.816,0,0,0-1.511.745A3.434,3.434,0,0,0-32.662-3.616Zm12.934,1.764L-18.006-7.4h1.354l-2.974,8.538q-.69,1.846-2.194,1.846l-.239-.021-.472-.089V1.853l.342.027a1.683,1.683,0,0,0,1-.26A1.88,1.88,0,0,0-20.6.67l.28-.752L-22.955-7.4h1.381Zm15.217.547A3.032,3.032,0,0,1-5.923-.222,5.7,5.7,0,0,1-8.032.137a4.09,4.09,0,0,1-2.16-.571,3.8,3.8,0,0,1-1.459-1.624,5.607,5.607,0,0,1-.53-2.44v-.868a5.234,5.234,0,0,1,1.049-3.486,3.656,3.656,0,0,1,2.95-1.237,3.777,3.777,0,0,1,2.509.8A3.469,3.469,0,0,1-4.512-7.034H-5.824A2.17,2.17,0,0,0-8.176-9.017a2.323,2.323,0,0,0-2,.927A4.526,4.526,0,0,0-10.862-5.4v.814A4.242,4.242,0,0,0-10.1-1.925a2.482,2.482,0,0,0,2.071.989A4.575,4.575,0,0,0-6.733-1.1a2,2,0,0,0,.916-.552v-2.23h-2.3V-4.956h3.609ZM.547.137A3.232,3.232,0,0,1-1.9-.851a3.666,3.666,0,0,1-.943-2.642v-.232a4.438,4.438,0,0,1,.42-1.965A3.28,3.28,0,0,1-1.248-7.044,2.956,2.956,0,0,1,.39-7.533a2.77,2.77,0,0,1,2.242.95,4.114,4.114,0,0,1,.8,2.721v.526H-1.579A2.629,2.629,0,0,0-.94-1.569,2.009,2.009,0,0,0,.615-.9,2.2,2.2,0,0,0,1.75-1.169a2.851,2.851,0,0,0,.813-.725l.772.6A3.106,3.106,0,0,1,.547.137ZM.39-6.494A1.687,1.687,0,0,0-.9-5.937a2.708,2.708,0,0,0-.643,1.562H2.167v-.1a2.409,2.409,0,0,0-.52-1.494A1.588,1.588,0,0,0,.39-6.494ZM9.2-1.962a.931.931,0,0,0-.386-.8,3.718,3.718,0,0,0-1.347-.489,6.367,6.367,0,0,1-1.524-.492,2.169,2.169,0,0,1-.834-.684,1.635,1.635,0,0,1-.27-.943A1.919,1.919,0,0,1,5.609-6.9a3,3,0,0,1,1.965-.629,3.091,3.091,0,0,1,2.041.649A2.063,2.063,0,0,1,10.4-5.223H9.126a1.142,1.142,0,0,0-.441-.9,1.652,1.652,0,0,0-1.111-.376,1.729,1.729,0,0,0-1.08.3.947.947,0,0,0-.39.786.767.767,0,0,0,.362.69,4.458,4.458,0,0,0,1.309.444,6.821,6.821,0,0,1,1.535.506,2.239,2.239,0,0,1,.872.708,1.74,1.74,0,0,1,.284,1.008A1.893,1.893,0,0,1,9.673-.461a3.326,3.326,0,0,1-2.058.6A3.725,3.725,0,0,1,6.043-.178a2.557,2.557,0,0,1-1.07-.878,2.117,2.117,0,0,1-.386-1.22H5.852a1.309,1.309,0,0,0,.509,1.008A1.976,1.976,0,0,0,7.615-.9a2.039,2.039,0,0,0,1.152-.291A.893.893,0,0,0,9.2-1.962Zm4.628-7.226V-7.4H15.21v.978H13.829v4.593a1.027,1.027,0,0,0,.185.667.777.777,0,0,0,.629.222,3.062,3.062,0,0,0,.6-.082V0a3.688,3.688,0,0,1-.971.136A1.575,1.575,0,0,1,13-.376a2.2,2.2,0,0,1-.431-1.456V-6.419H11.218V-7.4h1.347V-9.187ZM18.061,0H16.8V-7.4h1.265ZM16.693-9.358a.755.755,0,0,1,.188-.52.706.706,0,0,1,.557-.212A.717.717,0,0,1,18-9.878a.747.747,0,0,1,.191.52A.722.722,0,0,1,18-8.846a.73.73,0,0,1-.561.205.718.718,0,0,1-.557-.205A.73.73,0,0,1,16.693-9.358Zm3.056,5.592a4.369,4.369,0,0,1,.427-1.955,3.187,3.187,0,0,1,1.189-1.34,3.238,3.238,0,0,1,1.74-.472,3.119,3.119,0,0,1,2.444,1.046,4.024,4.024,0,0,1,.933,2.782v.089a4.407,4.407,0,0,1-.414,1.938A3.14,3.14,0,0,1,24.886-.342a3.275,3.275,0,0,1-1.767.479A3.111,3.111,0,0,1,20.682-.909a4,4,0,0,1-.933-2.769Zm1.271.15a3.164,3.164,0,0,0,.571,1.976A1.827,1.827,0,0,0,23.119-.9a1.816,1.816,0,0,0,1.531-.755,3.46,3.46,0,0,0,.567-2.116,3.159,3.159,0,0,0-.578-1.972,1.836,1.836,0,0,0-1.535-.755,1.816,1.816,0,0,0-1.511.745A3.434,3.434,0,0,0,21.021-3.616ZM23.68-10.5h1.531L23.379-8.49l-1.019,0Zm5.585,3.1.041.93a2.7,2.7,0,0,1,2.215-1.066q2.345,0,2.365,2.646V0H32.621V-4.895a1.7,1.7,0,0,0-.366-1.183,1.466,1.466,0,0,0-1.118-.383,1.825,1.825,0,0,0-1.08.328,2.228,2.228,0,0,0-.725.861V0H28.068V-7.4ZM38.951-3.76A4.333,4.333,0,0,1,39.758-6.5,2.551,2.551,0,0,1,41.87-7.533a2.565,2.565,0,0,1,2.058.889V-10.5h1.265V0H44.03l-.062-.793a2.575,2.575,0,0,1-2.112.93,2.526,2.526,0,0,1-2.1-1.053,4.382,4.382,0,0,1-.81-2.748Zm1.265.144a3.281,3.281,0,0,0,.52,1.969,1.68,1.68,0,0,0,1.436.711,1.845,1.845,0,0,0,1.757-1.08v-3.4A1.859,1.859,0,0,0,42.185-6.46a1.687,1.687,0,0,0-1.449.718A3.612,3.612,0,0,0,40.216-3.616ZM50.224.137a3.232,3.232,0,0,1-2.447-.988,3.666,3.666,0,0,1-.943-2.642v-.232a4.438,4.438,0,0,1,.42-1.965,3.28,3.28,0,0,1,1.176-1.354,2.956,2.956,0,0,1,1.637-.489,2.77,2.77,0,0,1,2.242.95,4.114,4.114,0,0,1,.8,2.721v.526H48.1a2.629,2.629,0,0,0,.639,1.767A2.009,2.009,0,0,0,50.292-.9a2.2,2.2,0,0,0,1.135-.273,2.851,2.851,0,0,0,.813-.725l.772.6A3.106,3.106,0,0,1,50.224.137Zm-.157-6.631a1.687,1.687,0,0,0-1.285.557,2.708,2.708,0,0,0-.643,1.562h3.705v-.1a2.409,2.409,0,0,0-.52-1.494A1.588,1.588,0,0,0,50.066-6.494ZM61.886-4.026H59.548V0H58.229V-9.953h3.295a3.9,3.9,0,0,1,2.587.766,2.755,2.755,0,0,1,.906,2.229,2.68,2.68,0,0,1-.5,1.62,3,3,0,0,1-1.4,1.032L65.454-.082V0H64.046ZM59.548-5.1h2.017a2.275,2.275,0,0,0,1.555-.507A1.714,1.714,0,0,0,63.7-6.962a1.8,1.8,0,0,0-.55-1.418,2.33,2.33,0,0,0-1.589-.5h-2.01ZM70.506-4.026H68.168V0H66.849V-9.953h3.295a3.9,3.9,0,0,1,2.587.766,2.755,2.755,0,0,1,.906,2.229,2.68,2.68,0,0,1-.5,1.62,3,3,0,0,1-1.4,1.032L74.074-.082V0H72.666ZM68.168-5.1h2.017a2.275,2.275,0,0,0,1.555-.507,1.714,1.714,0,0,0,.578-1.356,1.8,1.8,0,0,0-.55-1.418,2.33,2.33,0,0,0-1.589-.5h-2.01ZM75.3-.663A.792.792,0,0,1,75.5-1.21a.742.742,0,0,1,.584-.219.765.765,0,0,1,.591.219.776.776,0,0,1,.2.547.734.734,0,0,1-.2.526.778.778,0,0,1-.591.212A.755.755,0,0,1,75.5-.137.748.748,0,0,1,75.3-.663ZM90.275,0H88.956V-4.6H83.938V0H82.626V-9.953h1.313v4.279h5.018V-9.953h1.319Zm9.98,0H98.937V-4.6H93.919V0H92.606V-9.953h1.313v4.279h5.018V-9.953h1.319Z" transform="translate(-139.5 -2786)" fill="#f3f9ff"/>
    <path id="Trazado_246527" data-name="Trazado 246527" d="M0,0V227" transform="translate(-134.5 -2735.5)" fill="none" stroke="#fff" stroke-width="3"/>
    <g id="Trazado_246530" data-name="Trazado 246530" transform="translate(-301 -2700)" fill="#0e8282">
      <path d="M 327.5 37.5 L 0.5 37.5 L 0.5 0.5 L 327.5 0.5 L 327.5 37.5 Z" stroke="none"/>
      <path d="M 1 1 L 1 37 L 327 37 L 327 1 L 1 1 M 0 0 L 328 0 L 328 38 L 0 38 L 0 0 Z" stroke="none" fill="#fff"/>
    </g>
    <g id="Trazado_246528" data-name="Trazado 246528" transform="translate(-301 -2642.734)" fill="#0e8282">
      <path d="M 327.5 37.5 L 0.5 37.5 L 0.5 0.5 L 327.5 0.5 L 327.5 37.5 Z" stroke="none"/>
      <path d="M 1 1 L 1 37 L 327 37 L 327 1 L 1 1 M 0 0 L 328 0 L 328 38 L 0 38 L 0 0 Z" stroke="none" fill="#fff"/>
    </g>
    <g id="Trazado_246523" data-name="Trazado 246523" transform="translate(-301 -2588)" fill="#0e8282">
      <path d="M 327.5 37.5 L 0.5 37.5 L 0.5 0.5 L 327.5 0.5 L 327.5 37.5 Z" stroke="none"/>
      <path d="M 1 1 L 1 37 L 327 37 L 327 1 L 1 1 M 0 0 L 328 0 L 328 38 L 0 38 L 0 0 Z" stroke="none" fill="#fff"/>
    </g>
    <g id="Trazado_246524" data-name="Trazado 246524" transform="translate(-301 -2533)" fill="#0e8282">
      <path d="M 325.5 37.5 L 0.5 37.5 L 0.5 0.5 L 325.5 0.5 L 325.5 37.5 Z" stroke="none"/>
      <path d="M 1 1 L 1 37 L 325 37 L 325 1 L 1 1 M 0 0 L 326 0 L 326 38 L 0 38 L 0 0 Z" stroke="none" fill="#fff"/>
    </g>
    <g id="Trazado_246532" data-name="Trazado 246532" transform="translate(-302 -2754.734)" fill="#0e8282">
      <path d="M 326.5 37.5 L 0.5 37.5 L 0.5 0.5 L 326.5 0.5 L 326.5 37.5 Z" stroke="none"/>
      <path d="M 1 1 L 1 37 L 326 37 L 326 1 L 1 1 M 0 0 L 327 0 L 327 38 L 0 38 L 0 0 Z" stroke="none" fill="#fff"/>
    </g>
    <path id="Trazado_246533" data-name="Trazado 246533" d="M-81.522-4.375a3.094,3.094,0,0,1-.947.759,2.569,2.569,0,0,1-1.207.287,2.652,2.652,0,0,1-1.5-.424,2.755,2.755,0,0,1-.988-1.193,4.067,4.067,0,0,1-.349-1.7,4.143,4.143,0,0,1,.379-1.8,2.787,2.787,0,0,1,1.077-1.224,3.07,3.07,0,0,1,1.627-.424,2.78,2.78,0,0,1,2.328,1.1,4.815,4.815,0,0,1,.851,3.011v.369A6.434,6.434,0,0,1-81.4-1.364,4.412,4.412,0,0,1-84.865.007h-.246V-1.066h.267a3.482,3.482,0,0,0,2.406-.815A3.5,3.5,0,0,0-81.522-4.375Zm-1.948,0a1.953,1.953,0,0,0,1.172-.39,2.3,2.3,0,0,0,.783-.964v-.506a3.48,3.48,0,0,0-.54-2.023,1.611,1.611,0,0,0-1.367-.779,1.624,1.624,0,0,0-1.34.639,2.637,2.637,0,0,0-.506,1.685,2.744,2.744,0,0,0,.489,1.678A1.548,1.548,0,0,0-83.47-4.375ZM-63.9-1.306A3.032,3.032,0,0,1-65.311-.222a5.7,5.7,0,0,1-2.109.359,4.09,4.09,0,0,1-2.16-.571,3.8,3.8,0,0,1-1.459-1.624,5.607,5.607,0,0,1-.53-2.44v-.868A5.234,5.234,0,0,1-70.52-8.853a3.656,3.656,0,0,1,2.95-1.237,3.777,3.777,0,0,1,2.509.8A3.469,3.469,0,0,1-63.9-7.034h-1.312a2.17,2.17,0,0,0-2.352-1.982,2.323,2.323,0,0,0-2,.927A4.526,4.526,0,0,0-70.25-5.4v.814a4.242,4.242,0,0,0,.766,2.665,2.482,2.482,0,0,0,2.071.989A4.575,4.575,0,0,0-66.121-1.1a2,2,0,0,0,.916-.552v-2.23h-2.3V-4.956H-63.9ZM-58.84.137a3.232,3.232,0,0,1-2.447-.988,3.666,3.666,0,0,1-.943-2.642v-.232a4.438,4.438,0,0,1,.42-1.965,3.28,3.28,0,0,1,1.176-1.354A2.956,2.956,0,0,1-59-7.533a2.77,2.77,0,0,1,2.242.95,4.114,4.114,0,0,1,.8,2.721v.526h-5.011a2.629,2.629,0,0,0,.639,1.767A2.009,2.009,0,0,0-58.772-.9a2.2,2.2,0,0,0,1.135-.273,2.851,2.851,0,0,0,.813-.725l.772.6A3.106,3.106,0,0,1-58.84.137ZM-59-6.494a1.687,1.687,0,0,0-1.285.557,2.708,2.708,0,0,0-.643,1.562h3.705v-.1a2.409,2.409,0,0,0-.52-1.494A1.588,1.588,0,0,0-59-6.494Zm8.812,4.532a.931.931,0,0,0-.386-.8,3.718,3.718,0,0,0-1.347-.489,6.367,6.367,0,0,1-1.524-.492,2.169,2.169,0,0,1-.834-.684,1.635,1.635,0,0,1-.27-.943A1.919,1.919,0,0,1-53.778-6.9a3,3,0,0,1,1.965-.629,3.091,3.091,0,0,1,2.041.649,2.063,2.063,0,0,1,.783,1.661h-1.271a1.142,1.142,0,0,0-.441-.9,1.652,1.652,0,0,0-1.111-.376,1.729,1.729,0,0,0-1.08.3.947.947,0,0,0-.39.786.767.767,0,0,0,.362.69,4.458,4.458,0,0,0,1.309.444,6.821,6.821,0,0,1,1.535.506,2.239,2.239,0,0,1,.872.708,1.74,1.74,0,0,1,.284,1.008,1.893,1.893,0,0,1-.793,1.589,3.326,3.326,0,0,1-2.058.6,3.725,3.725,0,0,1-1.572-.314,2.557,2.557,0,0,1-1.07-.878,2.117,2.117,0,0,1-.386-1.22h1.265a1.309,1.309,0,0,0,.509,1.008A1.976,1.976,0,0,0-51.772-.9a2.039,2.039,0,0,0,1.152-.291A.893.893,0,0,0-50.186-1.962Zm4.628-7.226V-7.4h1.381v.978h-1.381v4.593a1.027,1.027,0,0,0,.185.667.777.777,0,0,0,.629.222,3.062,3.062,0,0,0,.6-.082V0a3.688,3.688,0,0,1-.971.136,1.575,1.575,0,0,1-1.278-.513,2.2,2.2,0,0,1-.431-1.456V-6.419h-1.347V-7.4h1.347V-9.187ZM-41.327,0h-1.265V-7.4h1.265Zm-1.367-9.358a.755.755,0,0,1,.188-.52.706.706,0,0,1,.557-.212.717.717,0,0,1,.561.212.747.747,0,0,1,.191.52.722.722,0,0,1-.191.513.73.73,0,0,1-.561.205.718.718,0,0,1-.557-.205A.73.73,0,0,1-42.694-9.358Zm3.056,5.592a4.369,4.369,0,0,1,.427-1.955,3.187,3.187,0,0,1,1.189-1.34,3.238,3.238,0,0,1,1.74-.472,3.119,3.119,0,0,1,2.444,1.046A4.024,4.024,0,0,1-32.9-3.705v.089a4.407,4.407,0,0,1-.414,1.938A3.14,3.14,0,0,1-34.5-.342a3.275,3.275,0,0,1-1.767.479A3.111,3.111,0,0,1-38.705-.909a4,4,0,0,1-.933-2.769Zm1.271.15A3.164,3.164,0,0,0-37.8-1.641,1.827,1.827,0,0,0-36.268-.9a1.816,1.816,0,0,0,1.531-.755,3.46,3.46,0,0,0,.567-2.116,3.159,3.159,0,0,0-.578-1.972,1.836,1.836,0,0,0-1.535-.755,1.816,1.816,0,0,0-1.511.745A3.434,3.434,0,0,0-38.367-3.616Zm2.659-6.884h1.531l-1.832,2.01-1.019,0Zm5.585,3.1.041.93a2.7,2.7,0,0,1,2.215-1.066q2.345,0,2.365,2.646V0h-1.265V-4.895a1.7,1.7,0,0,0-.366-1.183A1.466,1.466,0,0,0-28.25-6.46a1.825,1.825,0,0,0-1.08.328,2.228,2.228,0,0,0-.725.861V0h-1.265V-7.4Zm9.687,3.637A4.333,4.333,0,0,1-19.629-6.5a2.551,2.551,0,0,1,2.112-1.036,2.565,2.565,0,0,1,2.058.889V-10.5h1.265V0h-1.162l-.062-.793a2.575,2.575,0,0,1-2.112.93,2.526,2.526,0,0,1-2.1-1.053,4.382,4.382,0,0,1-.81-2.748Zm1.265.144a3.281,3.281,0,0,0,.52,1.969,1.68,1.68,0,0,0,1.436.711,1.845,1.845,0,0,0,1.757-1.08v-3.4A1.859,1.859,0,0,0-17.2-6.46a1.687,1.687,0,0,0-1.449.718A3.612,3.612,0,0,0-19.171-3.616ZM-9.164.137a3.232,3.232,0,0,1-2.447-.988,3.666,3.666,0,0,1-.943-2.642v-.232a4.438,4.438,0,0,1,.42-1.965,3.28,3.28,0,0,1,1.176-1.354,2.956,2.956,0,0,1,1.637-.489,2.77,2.77,0,0,1,2.242.95,4.114,4.114,0,0,1,.8,2.721v.526H-11.29a2.629,2.629,0,0,0,.639,1.767A2.009,2.009,0,0,0-9.1-.9,2.2,2.2,0,0,0-7.96-1.169a2.851,2.851,0,0,0,.813-.725l.772.6A3.106,3.106,0,0,1-9.164.137Zm-.157-6.631a1.687,1.687,0,0,0-1.285.557,2.708,2.708,0,0,0-.643,1.562h3.705v-.1a2.409,2.409,0,0,0-.52-1.494A1.588,1.588,0,0,0-9.321-6.494ZM.024,0H-1.241V-10.5H.024Zm6.59,0a2.657,2.657,0,0,1-.178-.779A2.822,2.822,0,0,1,4.331.137,2.611,2.611,0,0,1,2.536-.482a2,2,0,0,1-.7-1.569,2.091,2.091,0,0,1,.878-1.794,4.142,4.142,0,0,1,2.471-.639h1.23v-.581a1.42,1.42,0,0,0-.4-1.056A1.593,1.593,0,0,0,4.85-6.515a1.844,1.844,0,0,0-1.135.342,1.007,1.007,0,0,0-.458.827H1.986a1.745,1.745,0,0,1,.393-1.07,2.683,2.683,0,0,1,1.066-.817,3.588,3.588,0,0,1,1.48-.3,2.924,2.924,0,0,1,2,.639,2.306,2.306,0,0,1,.752,1.76v3.4a4.162,4.162,0,0,0,.26,1.62V0Zm-2.1-.964a2.223,2.223,0,0,0,1.128-.308,1.861,1.861,0,0,0,.772-.8V-3.589H5.424Q3.1-3.589,3.1-2.229a1.151,1.151,0,0,0,.4.93A1.524,1.524,0,0,0,4.515-.964ZM14.5,0H13.238V-7.4H14.5ZM13.135-9.358a.755.755,0,0,1,.188-.52.706.706,0,0,1,.557-.212.717.717,0,0,1,.561.212.747.747,0,0,1,.191.52.722.722,0,0,1-.191.513.73.73,0,0,1-.561.205.718.718,0,0,1-.557-.205A.73.73,0,0,1,13.135-9.358ZM17.722-7.4l.041.93a2.7,2.7,0,0,1,2.215-1.066q2.345,0,2.365,2.646V0H21.079V-4.895a1.7,1.7,0,0,0-.366-1.183A1.466,1.466,0,0,0,19.6-6.46a1.825,1.825,0,0,0-1.08.328,2.228,2.228,0,0,0-.725.861V0H16.526V-7.4ZM24.873,0V-6.419H23.7V-7.4h1.169v-.759a2.519,2.519,0,0,1,.636-1.839,2.4,2.4,0,0,1,1.8-.649,3.339,3.339,0,0,1,.868.115l-.068,1.019a3.632,3.632,0,0,0-.684-.062,1.234,1.234,0,0,0-.95.36,1.46,1.46,0,0,0-.335,1.032V-7.4h1.579v.978H26.137V0Zm3.9-3.767A4.369,4.369,0,0,1,29.2-5.722a3.187,3.187,0,0,1,1.189-1.34,3.238,3.238,0,0,1,1.74-.472,3.119,3.119,0,0,1,2.444,1.046,4.024,4.024,0,0,1,.933,2.782v.089A4.407,4.407,0,0,1,35.1-1.678,3.14,3.14,0,0,1,33.913-.342a3.275,3.275,0,0,1-1.767.479A3.111,3.111,0,0,1,29.709-.909a4,4,0,0,1-.933-2.769Zm1.271.15a3.164,3.164,0,0,0,.571,1.976A1.827,1.827,0,0,0,32.146-.9a1.816,1.816,0,0,0,1.531-.755,3.46,3.46,0,0,0,.567-2.116,3.159,3.159,0,0,0-.578-1.972,1.836,1.836,0,0,0-1.535-.755,1.816,1.816,0,0,0-1.511.745A3.434,3.434,0,0,0,30.047-3.616ZM40.67-6.262a3.79,3.79,0,0,0-.622-.048A1.667,1.667,0,0,0,38.36-5.25V0H37.1V-7.4h1.23l.021.854a1.969,1.969,0,0,1,1.764-.991,1.292,1.292,0,0,1,.561.1ZM43.022-7.4l.034.82a2.732,2.732,0,0,1,2.194-.957,2.115,2.115,0,0,1,2.112,1.189,2.8,2.8,0,0,1,.96-.861,2.837,2.837,0,0,1,1.4-.328q2.434,0,2.475,2.577V0H50.931V-4.881a1.7,1.7,0,0,0-.362-1.186,1.6,1.6,0,0,0-1.217-.393,1.677,1.677,0,0,0-1.169.42,1.706,1.706,0,0,0-.54,1.131V0H46.372V-4.847A1.411,1.411,0,0,0,44.792-6.46a1.692,1.692,0,0,0-1.7,1.06V0H41.826V-7.4ZM58.669,0a2.657,2.657,0,0,1-.178-.779,2.822,2.822,0,0,1-2.105.916,2.611,2.611,0,0,1-1.794-.619,2,2,0,0,1-.7-1.569,2.091,2.091,0,0,1,.878-1.794,4.142,4.142,0,0,1,2.471-.639h1.23v-.581a1.42,1.42,0,0,0-.4-1.056,1.593,1.593,0,0,0-1.169-.393,1.844,1.844,0,0,0-1.135.342,1.007,1.007,0,0,0-.458.827H54.042a1.745,1.745,0,0,1,.393-1.07A2.683,2.683,0,0,1,55.5-7.232a3.588,3.588,0,0,1,1.48-.3,2.924,2.924,0,0,1,2,.639,2.306,2.306,0,0,1,.752,1.76v3.4A4.162,4.162,0,0,0,60-.109V0Zm-2.1-.964A2.223,2.223,0,0,0,57.7-1.271a1.861,1.861,0,0,0,.772-.8V-3.589H57.48q-2.324,0-2.324,1.36a1.151,1.151,0,0,0,.4.93A1.524,1.524,0,0,0,56.571-.964ZM64.685-.9a1.822,1.822,0,0,0,1.183-.41,1.443,1.443,0,0,0,.561-1.025h1.2a2.293,2.293,0,0,1-.437,1.21,2.882,2.882,0,0,1-1.077.916,3.107,3.107,0,0,1-1.425.342,3.047,3.047,0,0,1-2.4-1.008A4.016,4.016,0,0,1,61.39-3.63v-.212a4.453,4.453,0,0,1,.4-1.921,3.02,3.02,0,0,1,1.138-1.306,3.233,3.233,0,0,1,1.753-.465,2.966,2.966,0,0,1,2.068.745,2.663,2.663,0,0,1,.878,1.935h-1.2a1.743,1.743,0,0,0-.543-1.179,1.691,1.691,0,0,0-1.207-.461,1.77,1.77,0,0,0-1.494.694,3.259,3.259,0,0,0-.53,2.006v.239a3.194,3.194,0,0,0,.526,1.969A1.779,1.779,0,0,0,64.685-.9ZM70.42,0H69.156V-7.4H70.42ZM69.053-9.358a.755.755,0,0,1,.188-.52.706.706,0,0,1,.557-.212.717.717,0,0,1,.561.212.747.747,0,0,1,.191.52.722.722,0,0,1-.191.513.73.73,0,0,1-.561.205.718.718,0,0,1-.557-.205A.73.73,0,0,1,69.053-9.358Zm3.056,5.592a4.369,4.369,0,0,1,.427-1.955,3.187,3.187,0,0,1,1.189-1.34,3.238,3.238,0,0,1,1.74-.472,3.119,3.119,0,0,1,2.444,1.046,4.024,4.024,0,0,1,.933,2.782v.089a4.407,4.407,0,0,1-.414,1.938A3.14,3.14,0,0,1,77.246-.342a3.275,3.275,0,0,1-1.767.479A3.111,3.111,0,0,1,73.042-.909a4,4,0,0,1-.933-2.769Zm1.271.15a3.164,3.164,0,0,0,.571,1.976A1.827,1.827,0,0,0,75.479-.9a1.816,1.816,0,0,0,1.531-.755,3.46,3.46,0,0,0,.567-2.116A3.159,3.159,0,0,0,77-5.739a1.836,1.836,0,0,0-1.535-.755,1.816,1.816,0,0,0-1.511.745A3.434,3.434,0,0,0,73.38-3.616ZM76.04-10.5h1.531L75.739-8.49l-1.019,0Zm5.585,3.1.041.93A2.7,2.7,0,0,1,83.88-7.533q2.345,0,2.365,2.646V0H84.981V-4.895a1.7,1.7,0,0,0-.366-1.183A1.466,1.466,0,0,0,83.5-6.46a1.825,1.825,0,0,0-1.08.328,2.228,2.228,0,0,0-.725.861V0H80.428V-7.4Z" transform="translate(-137.5 -2731.234)" fill="#f3f9ff"/>
    <path id="Trazado_246531" data-name="Trazado 246531" d="M-140.431,0H-141.7V-8.429l-2.55.937V-8.641l3.623-1.36h.2Zm9.946-4.245a5.784,5.784,0,0,1-.759,3.3,2.7,2.7,0,0,1-2.372,1.08,2.718,2.718,0,0,1-2.358-1.056,5.49,5.49,0,0,1-.793-3.155V-5.763a5.655,5.655,0,0,1,.759-3.261,2.719,2.719,0,0,1,2.379-1.066,2.744,2.744,0,0,1,2.365,1.029,5.458,5.458,0,0,1,.779,3.175Zm-1.265-1.729a4.634,4.634,0,0,0-.451-2.341,1.553,1.553,0,0,0-1.429-.735,1.532,1.532,0,0,0-1.415.731A4.525,4.525,0,0,0-135.5-6.07v2.023a4.708,4.708,0,0,0,.468,2.382,1.55,1.55,0,0,0,1.418.769,1.529,1.529,0,0,0,1.391-.725,4.538,4.538,0,0,0,.475-2.283Zm17.493,4.669a3.032,3.032,0,0,1-1.412,1.083,5.7,5.7,0,0,1-2.109.359,4.09,4.09,0,0,1-2.16-.571A3.8,3.8,0,0,1-121.4-2.058a5.607,5.607,0,0,1-.53-2.44v-.868a5.234,5.234,0,0,1,1.049-3.486,3.656,3.656,0,0,1,2.95-1.237,3.777,3.777,0,0,1,2.509.8,3.469,3.469,0,0,1,1.162,2.259h-1.312a2.17,2.17,0,0,0-2.352-1.982,2.323,2.323,0,0,0-2,.927,4.526,4.526,0,0,0-.687,2.685v.814a4.242,4.242,0,0,0,.766,2.665,2.482,2.482,0,0,0,2.071.989,4.575,4.575,0,0,0,1.292-.164,2,2,0,0,0,.916-.552v-2.23h-2.3V-4.956h3.609ZM-109.2.137a3.232,3.232,0,0,1-2.447-.988,3.666,3.666,0,0,1-.943-2.642v-.232a4.438,4.438,0,0,1,.42-1.965,3.28,3.28,0,0,1,1.176-1.354,2.956,2.956,0,0,1,1.637-.489,2.77,2.77,0,0,1,2.242.95,4.114,4.114,0,0,1,.8,2.721v.526h-5.011a2.629,2.629,0,0,0,.639,1.767,2.009,2.009,0,0,0,1.555.673,2.2,2.2,0,0,0,1.135-.273,2.851,2.851,0,0,0,.813-.725l.772.6A3.106,3.106,0,0,1-109.2.137Zm-.157-6.631a1.687,1.687,0,0,0-1.285.557,2.708,2.708,0,0,0-.643,1.562h3.705v-.1a2.409,2.409,0,0,0-.52-1.494A1.588,1.588,0,0,0-109.354-6.494Zm8.812,4.532a.931.931,0,0,0-.386-.8,3.718,3.718,0,0,0-1.347-.489,6.367,6.367,0,0,1-1.524-.492,2.169,2.169,0,0,1-.834-.684,1.635,1.635,0,0,1-.27-.943,1.919,1.919,0,0,1,.769-1.538,3,3,0,0,1,1.965-.629,3.091,3.091,0,0,1,2.041.649,2.063,2.063,0,0,1,.783,1.661h-1.271a1.142,1.142,0,0,0-.441-.9,1.652,1.652,0,0,0-1.111-.376,1.729,1.729,0,0,0-1.08.3.947.947,0,0,0-.39.786.767.767,0,0,0,.362.69,4.458,4.458,0,0,0,1.309.444,6.821,6.821,0,0,1,1.535.506,2.239,2.239,0,0,1,.872.708,1.74,1.74,0,0,1,.284,1.008,1.893,1.893,0,0,1-.793,1.589,3.326,3.326,0,0,1-2.058.6A3.725,3.725,0,0,1-103.7-.178a2.557,2.557,0,0,1-1.07-.878,2.117,2.117,0,0,1-.386-1.22h1.265a1.309,1.309,0,0,0,.509,1.008,1.976,1.976,0,0,0,1.254.373,2.039,2.039,0,0,0,1.152-.291A.893.893,0,0,0-100.543-1.962Zm4.628-7.226V-7.4h1.381v.978h-1.381v4.593a1.027,1.027,0,0,0,.185.667.777.777,0,0,0,.629.222,3.062,3.062,0,0,0,.6-.082V0a3.688,3.688,0,0,1-.971.136,1.575,1.575,0,0,1-1.278-.513,2.2,2.2,0,0,1-.431-1.456V-6.419h-1.347V-7.4h1.347V-9.187ZM-91.684,0h-1.265V-7.4h1.265Zm-1.367-9.358a.755.755,0,0,1,.188-.52.706.706,0,0,1,.557-.212.717.717,0,0,1,.561.212.747.747,0,0,1,.191.52.722.722,0,0,1-.191.513.73.73,0,0,1-.561.205.718.718,0,0,1-.557-.205A.73.73,0,0,1-93.051-9.358ZM-90-3.767a4.369,4.369,0,0,1,.427-1.955,3.187,3.187,0,0,1,1.189-1.34,3.238,3.238,0,0,1,1.74-.472,3.119,3.119,0,0,1,2.444,1.046,4.024,4.024,0,0,1,.933,2.782v.089a4.407,4.407,0,0,1-.414,1.938A3.14,3.14,0,0,1-84.858-.342a3.275,3.275,0,0,1-1.767.479A3.111,3.111,0,0,1-89.062-.909,4,4,0,0,1-90-3.678Zm1.271.15a3.164,3.164,0,0,0,.571,1.976A1.827,1.827,0,0,0-86.625-.9a1.816,1.816,0,0,0,1.531-.755,3.46,3.46,0,0,0,.567-2.116A3.159,3.159,0,0,0-85.1-5.739a1.836,1.836,0,0,0-1.535-.755,1.816,1.816,0,0,0-1.511.745A3.434,3.434,0,0,0-88.724-3.616Zm2.659-6.884h1.531l-1.832,2.01-1.019,0Zm5.585,3.1.041.93a2.7,2.7,0,0,1,2.215-1.066q2.345,0,2.365,2.646V0h-1.265V-4.895a1.7,1.7,0,0,0-.366-1.183,1.466,1.466,0,0,0-1.118-.383,1.825,1.825,0,0,0-1.08.328,2.228,2.228,0,0,0-.725.861V0h-1.265V-7.4ZM-70.062,0V-6.419H-71.23V-7.4h1.169v-.629a2.57,2.57,0,0,1,.708-1.928,2.744,2.744,0,0,1,2-.69,6.021,6.021,0,0,1,1.935.417l-.212,1.066A4.382,4.382,0,0,0-67.259-9.5a1.592,1.592,0,0,0-1.172.366,1.508,1.508,0,0,0-.359,1.1V-7.4h1.511v.978H-68.79V0Zm5.271,0h-1.271V-7.4h1.271Zm3.254-7.4.041.93a2.7,2.7,0,0,1,2.215-1.066q2.345,0,2.365,2.646V0h-1.265V-4.895a1.7,1.7,0,0,0-.366-1.183,1.466,1.466,0,0,0-1.118-.383,1.825,1.825,0,0,0-1.08.328,2.228,2.228,0,0,0-.725.861V0h-1.265V-7.4ZM-50.442,0a2.657,2.657,0,0,1-.178-.779,2.822,2.822,0,0,1-2.105.916A2.611,2.611,0,0,1-54.52-.482a2,2,0,0,1-.7-1.569,2.091,2.091,0,0,1,.878-1.794,4.142,4.142,0,0,1,2.471-.639h1.23v-.581a1.42,1.42,0,0,0-.4-1.056,1.593,1.593,0,0,0-1.169-.393,1.844,1.844,0,0,0-1.135.342,1.007,1.007,0,0,0-.458.827H-55.07a1.745,1.745,0,0,1,.393-1.07,2.683,2.683,0,0,1,1.066-.817,3.588,3.588,0,0,1,1.48-.3,2.924,2.924,0,0,1,2,.639,2.306,2.306,0,0,1,.752,1.76v3.4a4.162,4.162,0,0,0,.26,1.62V0Zm-2.1-.964a2.223,2.223,0,0,0,1.128-.308,1.861,1.861,0,0,0,.772-.8V-3.589h-.991q-2.324,0-2.324,1.36a1.151,1.151,0,0,0,.4.93A1.524,1.524,0,0,0-52.541-.964ZM-46.2-7.4l.041.93a2.7,2.7,0,0,1,2.215-1.066q2.345,0,2.365,2.646V0h-1.265V-4.895a1.7,1.7,0,0,0-.366-1.183,1.466,1.466,0,0,0-1.118-.383,1.825,1.825,0,0,0-1.08.328,2.228,2.228,0,0,0-.725.861V0h-1.265V-7.4Zm9.5,6.5a1.822,1.822,0,0,0,1.183-.41,1.443,1.443,0,0,0,.561-1.025h1.2a2.293,2.293,0,0,1-.437,1.21,2.881,2.881,0,0,1-1.077.916A3.107,3.107,0,0,1-36.7.137,3.047,3.047,0,0,1-39.1-.872,4.016,4.016,0,0,1-40-3.63v-.212a4.453,4.453,0,0,1,.4-1.921,3.02,3.02,0,0,1,1.138-1.306,3.233,3.233,0,0,1,1.753-.465,2.966,2.966,0,0,1,2.068.745,2.663,2.663,0,0,1,.878,1.935h-1.2A1.743,1.743,0,0,0-35.5-6.033a1.691,1.691,0,0,0-1.207-.461A1.77,1.77,0,0,0-38.2-5.8a3.259,3.259,0,0,0-.53,2.006v.239a3.194,3.194,0,0,0,.526,1.969A1.779,1.779,0,0,0-36.7-.9Zm5.735.9h-1.265V-7.4h1.265Zm-1.367-9.358a.755.755,0,0,1,.188-.52.706.706,0,0,1,.557-.212.717.717,0,0,1,.561.212.747.747,0,0,1,.191.52.722.722,0,0,1-.191.513.73.73,0,0,1-.561.205.718.718,0,0,1-.557-.205A.73.73,0,0,1-32.334-9.358Zm6.46,9.5a3.232,3.232,0,0,1-2.447-.988,3.666,3.666,0,0,1-.943-2.642v-.232a4.438,4.438,0,0,1,.42-1.965,3.28,3.28,0,0,1,1.176-1.354,2.956,2.956,0,0,1,1.637-.489,2.77,2.77,0,0,1,2.242.95,4.114,4.114,0,0,1,.8,2.721v.526H-28a2.629,2.629,0,0,0,.639,1.767A2.009,2.009,0,0,0-25.806-.9a2.2,2.2,0,0,0,1.135-.273,2.851,2.851,0,0,0,.813-.725l.772.6A3.106,3.106,0,0,1-25.874.137Zm-.157-6.631a1.687,1.687,0,0,0-1.285.557,2.708,2.708,0,0,0-.643,1.562h3.705v-.1a2.409,2.409,0,0,0-.52-1.494A1.588,1.588,0,0,0-26.031-6.494Zm8.08.232a3.79,3.79,0,0,0-.622-.048,1.667,1.667,0,0,0-1.688,1.06V0h-1.265V-7.4h1.23l.021.854a1.969,1.969,0,0,1,1.764-.991,1.292,1.292,0,0,1,.561.1ZM-12.5,0a2.657,2.657,0,0,1-.178-.779,2.822,2.822,0,0,1-2.105.916,2.611,2.611,0,0,1-1.794-.619,2,2,0,0,1-.7-1.569A2.091,2.091,0,0,1-16.4-3.845a4.142,4.142,0,0,1,2.471-.639h1.23v-.581a1.42,1.42,0,0,0-.4-1.056,1.593,1.593,0,0,0-1.169-.393,1.844,1.844,0,0,0-1.135.342,1.007,1.007,0,0,0-.458.827h-1.271a1.745,1.745,0,0,1,.393-1.07,2.683,2.683,0,0,1,1.066-.817,3.588,3.588,0,0,1,1.48-.3,2.924,2.924,0,0,1,2,.639,2.306,2.306,0,0,1,.752,1.76v3.4a4.162,4.162,0,0,0,.26,1.62V0Zm-2.1-.964a2.223,2.223,0,0,0,1.128-.308,1.861,1.861,0,0,0,.772-.8V-3.589h-.991q-2.324,0-2.324,1.36a1.151,1.151,0,0,0,.4.93A1.524,1.524,0,0,0-14.595-.964Zm11.033-.889L-1.839-7.4H-.485L-3.459,1.142q-.69,1.846-2.194,1.846l-.239-.021-.472-.089V1.853l.342.027a1.683,1.683,0,0,0,1-.26A1.88,1.88,0,0,0-4.43.67l.28-.752L-6.788-7.4h1.381ZM3.8-3.76A4.333,4.333,0,0,1,4.607-6.5,2.551,2.551,0,0,1,6.72-7.533a2.565,2.565,0,0,1,2.058.889V-10.5h1.265V0H8.88L8.818-.793a2.575,2.575,0,0,1-2.112.93,2.526,2.526,0,0,1-2.1-1.053A4.382,4.382,0,0,1,3.8-3.664Zm1.265.144a3.281,3.281,0,0,0,.52,1.969,1.68,1.68,0,0,0,1.436.711,1.845,1.845,0,0,0,1.757-1.08v-3.4A1.859,1.859,0,0,0,7.034-6.46a1.687,1.687,0,0,0-1.449.718A3.612,3.612,0,0,0,5.065-3.616ZM15.073.137a3.232,3.232,0,0,1-2.447-.988,3.666,3.666,0,0,1-.943-2.642v-.232a4.438,4.438,0,0,1,.42-1.965,3.28,3.28,0,0,1,1.176-1.354,2.956,2.956,0,0,1,1.637-.489,2.77,2.77,0,0,1,2.242.95,4.114,4.114,0,0,1,.8,2.721v.526H12.947a2.629,2.629,0,0,0,.639,1.767A2.009,2.009,0,0,0,15.142-.9a2.2,2.2,0,0,0,1.135-.273,2.851,2.851,0,0,0,.813-.725l.772.6A3.106,3.106,0,0,1,15.073.137Zm-.157-6.631a1.687,1.687,0,0,0-1.285.557,2.708,2.708,0,0,0-.643,1.562h3.705v-.1a2.409,2.409,0,0,0-.52-1.494A1.588,1.588,0,0,0,14.916-6.494Zm11.546.232a3.79,3.79,0,0,0-.622-.048,1.667,1.667,0,0,0-1.688,1.06V0H22.887V-7.4h1.23l.021.854A1.969,1.969,0,0,1,25.9-7.533a1.292,1.292,0,0,1,.561.1Zm4.231,6.4a3.232,3.232,0,0,1-2.447-.988A3.666,3.666,0,0,1,27.3-3.493v-.232a4.438,4.438,0,0,1,.42-1.965A3.28,3.28,0,0,1,28.9-7.044a2.956,2.956,0,0,1,1.637-.489,2.77,2.77,0,0,1,2.242.95,4.114,4.114,0,0,1,.8,2.721v.526H28.567a2.629,2.629,0,0,0,.639,1.767A2.009,2.009,0,0,0,30.762-.9,2.2,2.2,0,0,0,31.9-1.169a2.851,2.851,0,0,0,.813-.725l.772.6A3.106,3.106,0,0,1,30.693.137Zm-.157-6.631a1.687,1.687,0,0,0-1.285.557,2.708,2.708,0,0,0-.643,1.562h3.705v-.1a2.409,2.409,0,0,0-.52-1.494A1.588,1.588,0,0,0,30.536-6.494ZM38.008-.9a1.822,1.822,0,0,0,1.183-.41,1.443,1.443,0,0,0,.561-1.025h1.2a2.293,2.293,0,0,1-.437,1.21,2.881,2.881,0,0,1-1.077.916,3.107,3.107,0,0,1-1.425.342A3.047,3.047,0,0,1,35.6-.872a4.016,4.016,0,0,1-.892-2.758v-.212a4.453,4.453,0,0,1,.4-1.921,3.02,3.02,0,0,1,1.138-1.306A3.233,3.233,0,0,1,38-7.533a2.966,2.966,0,0,1,2.068.745,2.663,2.663,0,0,1,.878,1.935h-1.2a1.743,1.743,0,0,0-.543-1.179A1.691,1.691,0,0,0,38-6.494a1.77,1.77,0,0,0-1.494.694,3.259,3.259,0,0,0-.53,2.006v.239A3.194,3.194,0,0,0,36.5-1.586,1.779,1.779,0,0,0,38.008-.9Zm8.928.164a2.686,2.686,0,0,1-2.167.868,2.3,2.3,0,0,1-1.8-.687,2.974,2.974,0,0,1-.625-2.034V-7.4h1.265v4.778q0,1.682,1.367,1.682A1.893,1.893,0,0,0,46.9-2.017V-7.4h1.265V0h-1.2Zm6.727-5.53a3.79,3.79,0,0,0-.622-.048,1.667,1.667,0,0,0-1.688,1.06V0H50.087V-7.4h1.23l.021.854A1.969,1.969,0,0,1,53.1-7.533a1.292,1.292,0,0,1,.561.1Zm5.469,4.3a.931.931,0,0,0-.386-.8A3.718,3.718,0,0,0,57.4-3.247a6.367,6.367,0,0,1-1.524-.492,2.169,2.169,0,0,1-.834-.684,1.635,1.635,0,0,1-.27-.943A1.919,1.919,0,0,1,55.539-6.9,3,3,0,0,1,57.5-7.533a3.091,3.091,0,0,1,2.041.649,2.063,2.063,0,0,1,.783,1.661H59.056a1.142,1.142,0,0,0-.441-.9A1.652,1.652,0,0,0,57.5-6.494a1.729,1.729,0,0,0-1.08.3.947.947,0,0,0-.39.786.767.767,0,0,0,.362.69,4.458,4.458,0,0,0,1.309.444,6.821,6.821,0,0,1,1.535.506,2.239,2.239,0,0,1,.872.708A1.74,1.74,0,0,1,60.4-2.051,1.893,1.893,0,0,1,59.6-.461a3.326,3.326,0,0,1-2.058.6,3.725,3.725,0,0,1-1.572-.314,2.557,2.557,0,0,1-1.07-.878,2.117,2.117,0,0,1-.386-1.22h1.265a1.309,1.309,0,0,0,.509,1.008A1.976,1.976,0,0,0,57.545-.9,2.039,2.039,0,0,0,58.7-1.186.893.893,0,0,0,59.131-1.962Zm2.577-1.8a4.369,4.369,0,0,1,.427-1.955,3.187,3.187,0,0,1,1.189-1.34,3.238,3.238,0,0,1,1.74-.472,3.119,3.119,0,0,1,2.444,1.046,4.024,4.024,0,0,1,.933,2.782v.089a4.407,4.407,0,0,1-.414,1.938A3.14,3.14,0,0,1,66.845-.342a3.275,3.275,0,0,1-1.767.479A3.111,3.111,0,0,1,62.641-.909a4,4,0,0,1-.933-2.769Zm1.271.15a3.164,3.164,0,0,0,.571,1.976A1.827,1.827,0,0,0,65.078-.9a1.816,1.816,0,0,0,1.531-.755,3.46,3.46,0,0,0,.567-2.116A3.159,3.159,0,0,0,66.6-5.739a1.836,1.836,0,0,0-1.535-.755,1.816,1.816,0,0,0-1.511.745A3.434,3.434,0,0,0,62.979-3.616ZM74.334-1.962a.931.931,0,0,0-.386-.8A3.718,3.718,0,0,0,72.6-3.247a6.367,6.367,0,0,1-1.524-.492,2.169,2.169,0,0,1-.834-.684,1.635,1.635,0,0,1-.27-.943A1.919,1.919,0,0,1,70.742-6.9a3,3,0,0,1,1.965-.629,3.091,3.091,0,0,1,2.041.649,2.063,2.063,0,0,1,.783,1.661H74.259a1.142,1.142,0,0,0-.441-.9,1.652,1.652,0,0,0-1.111-.376,1.729,1.729,0,0,0-1.08.3.947.947,0,0,0-.39.786.767.767,0,0,0,.362.69,4.458,4.458,0,0,0,1.309.444,6.821,6.821,0,0,1,1.535.506,2.239,2.239,0,0,1,.872.708A1.74,1.74,0,0,1,75.6-2.051a1.893,1.893,0,0,1-.793,1.589,3.326,3.326,0,0,1-2.058.6,3.725,3.725,0,0,1-1.572-.314,2.557,2.557,0,0,1-1.07-.878,2.117,2.117,0,0,1-.386-1.22h1.265a1.309,1.309,0,0,0,.509,1.008A1.976,1.976,0,0,0,72.748-.9,2.039,2.039,0,0,0,73.9-1.186.893.893,0,0,0,74.334-1.962ZM81.9-7.4l.034.82a2.732,2.732,0,0,1,2.194-.957,2.115,2.115,0,0,1,2.112,1.189,2.8,2.8,0,0,1,.96-.861,2.837,2.837,0,0,1,1.4-.328q2.434,0,2.475,2.577V0H89.811V-4.881a1.7,1.7,0,0,0-.362-1.186,1.6,1.6,0,0,0-1.217-.393,1.677,1.677,0,0,0-1.169.42,1.706,1.706,0,0,0-.54,1.131V0H85.251V-4.847A1.411,1.411,0,0,0,83.672-6.46a1.692,1.692,0,0,0-1.7,1.06V0H80.705V-7.4ZM97.549,0a2.657,2.657,0,0,1-.178-.779,2.822,2.822,0,0,1-2.105.916,2.611,2.611,0,0,1-1.794-.619,2,2,0,0,1-.7-1.569,2.091,2.091,0,0,1,.878-1.794,4.141,4.141,0,0,1,2.471-.639h1.23v-.581a1.42,1.42,0,0,0-.4-1.056,1.593,1.593,0,0,0-1.169-.393,1.844,1.844,0,0,0-1.135.342,1.007,1.007,0,0,0-.458.827H92.921a1.745,1.745,0,0,1,.393-1.07,2.683,2.683,0,0,1,1.066-.817,3.588,3.588,0,0,1,1.48-.3,2.924,2.924,0,0,1,2,.639,2.306,2.306,0,0,1,.752,1.76v3.4a4.162,4.162,0,0,0,.26,1.62V0Zm-2.1-.964a2.223,2.223,0,0,0,1.128-.308,1.861,1.861,0,0,0,.772-.8V-3.589h-.991q-2.324,0-2.324,1.36a1.151,1.151,0,0,0,.4.93A1.524,1.524,0,0,0,95.45-.964Zm6.863-8.224V-7.4h1.381v.978h-1.381v4.593a1.027,1.027,0,0,0,.185.667.777.777,0,0,0,.629.222,3.062,3.062,0,0,0,.6-.082V0a3.688,3.688,0,0,1-.971.136,1.575,1.575,0,0,1-1.278-.513,2.2,2.2,0,0,1-.431-1.456V-6.419H99.7V-7.4h1.347V-9.187ZM108.24.137a3.232,3.232,0,0,1-2.447-.988,3.666,3.666,0,0,1-.943-2.642v-.232a4.438,4.438,0,0,1,.42-1.965,3.28,3.28,0,0,1,1.176-1.354,2.956,2.956,0,0,1,1.637-.489,2.77,2.77,0,0,1,2.242.95,4.114,4.114,0,0,1,.8,2.721v.526h-5.011a2.629,2.629,0,0,0,.639,1.767,2.009,2.009,0,0,0,1.555.673,2.2,2.2,0,0,0,1.135-.273,2.851,2.851,0,0,0,.813-.725l.772.6A3.106,3.106,0,0,1,108.24.137Zm-.157-6.631a1.687,1.687,0,0,0-1.285.557,2.708,2.708,0,0,0-.643,1.562h3.705v-.1a2.409,2.409,0,0,0-.52-1.494A1.588,1.588,0,0,0,108.083-6.494Zm8.08.232a3.79,3.79,0,0,0-.622-.048,1.667,1.667,0,0,0-1.688,1.06V0h-1.265V-7.4h1.23l.021.854a1.969,1.969,0,0,1,1.764-.991,1.292,1.292,0,0,1,.561.1ZM118.7,0h-1.265V-7.4H118.7Zm-1.367-9.358a.755.755,0,0,1,.188-.52.706.706,0,0,1,.557-.212.717.717,0,0,1,.561.212.747.747,0,0,1,.191.52.722.722,0,0,1-.191.513.73.73,0,0,1-.561.205.718.718,0,0,1-.557-.205A.73.73,0,0,1,117.332-9.358ZM125.289,0a2.657,2.657,0,0,1-.178-.779,2.822,2.822,0,0,1-2.105.916,2.611,2.611,0,0,1-1.794-.619,2,2,0,0,1-.7-1.569,2.091,2.091,0,0,1,.878-1.794,4.141,4.141,0,0,1,2.471-.639h1.23v-.581a1.42,1.42,0,0,0-.4-1.056,1.593,1.593,0,0,0-1.169-.393,1.844,1.844,0,0,0-1.135.342,1.007,1.007,0,0,0-.458.827h-1.271a1.745,1.745,0,0,1,.393-1.07,2.683,2.683,0,0,1,1.066-.817,3.588,3.588,0,0,1,1.48-.3,2.924,2.924,0,0,1,2,.639,2.306,2.306,0,0,1,.752,1.76v3.4a4.162,4.162,0,0,0,.26,1.62V0Zm-2.1-.964a2.223,2.223,0,0,0,1.128-.308,1.861,1.861,0,0,0,.772-.8V-3.589H124.1q-2.324,0-2.324,1.36a1.151,1.151,0,0,0,.4.93A1.524,1.524,0,0,0,123.19-.964ZM129.712,0h-1.265V-10.5h1.265ZM134.8.137a3.232,3.232,0,0,1-2.447-.988,3.666,3.666,0,0,1-.943-2.642v-.232a4.438,4.438,0,0,1,.42-1.965,3.279,3.279,0,0,1,1.176-1.354,2.956,2.956,0,0,1,1.637-.489,2.77,2.77,0,0,1,2.242.95,4.114,4.114,0,0,1,.8,2.721v.526h-5.011a2.629,2.629,0,0,0,.639,1.767,2.009,2.009,0,0,0,1.555.673,2.2,2.2,0,0,0,1.135-.273,2.851,2.851,0,0,0,.813-.725l.772.6A3.106,3.106,0,0,1,134.8.137Zm-.157-6.631a1.687,1.687,0,0,0-1.285.557,2.708,2.708,0,0,0-.643,1.562h3.705v-.1a2.409,2.409,0,0,0-.52-1.494A1.588,1.588,0,0,0,134.647-6.494Zm8.812,4.532a.931.931,0,0,0-.386-.8,3.718,3.718,0,0,0-1.347-.489,6.367,6.367,0,0,1-1.524-.492,2.169,2.169,0,0,1-.834-.684,1.635,1.635,0,0,1-.27-.943,1.919,1.919,0,0,1,.769-1.538,3,3,0,0,1,1.965-.629,3.091,3.091,0,0,1,2.041.649,2.063,2.063,0,0,1,.783,1.661h-1.271a1.142,1.142,0,0,0-.441-.9,1.652,1.652,0,0,0-1.111-.376,1.729,1.729,0,0,0-1.08.3.947.947,0,0,0-.39.786.767.767,0,0,0,.362.69,4.458,4.458,0,0,0,1.309.444,6.821,6.821,0,0,1,1.535.506,2.239,2.239,0,0,1,.872.708,1.74,1.74,0,0,1,.284,1.008,1.893,1.893,0,0,1-.793,1.589,3.326,3.326,0,0,1-2.058.6A3.725,3.725,0,0,1,140.3-.178a2.557,2.557,0,0,1-1.07-.878,2.117,2.117,0,0,1-.386-1.22h1.265a1.309,1.309,0,0,0,.509,1.008,1.976,1.976,0,0,0,1.254.373,2.039,2.039,0,0,0,1.152-.291A.893.893,0,0,0,143.459-1.962Z" transform="translate(-137 -2676.5)" fill="#f3f9ff"/>
    <path id="Trazado_246529" data-name="Trazado 246529" d="M-146.265,0h-1.271V-8.429l-2.55.937V-8.641l3.623-1.36h.2Zm7.861,0h-1.271V-8.429l-2.55.937V-8.641L-138.6-10h.2Zm16.591-4.6h-4.313v3.527h5.011V0h-6.323V-9.953h6.255V-8.88h-4.942v3.206h4.313Zm3.438-2.8V.854q0,2.133-1.935,2.133a2.36,2.36,0,0,1-.772-.122V1.859a2.445,2.445,0,0,0,.574.055.859.859,0,0,0,.646-.229,1.133,1.133,0,0,0,.222-.8V-7.4Zm-1.395-1.962a.758.758,0,0,1,.188-.516.691.691,0,0,1,.55-.215.717.717,0,0,1,.561.212.747.747,0,0,1,.191.52.722.722,0,0,1-.191.513.73.73,0,0,1-.561.205.707.707,0,0,1-.554-.205A.738.738,0,0,1-119.769-9.358Zm6.5,9.5a3.232,3.232,0,0,1-2.447-.988,3.666,3.666,0,0,1-.943-2.642v-.232a4.438,4.438,0,0,1,.42-1.965,3.28,3.28,0,0,1,1.176-1.354,2.956,2.956,0,0,1,1.637-.489,2.77,2.77,0,0,1,2.242.95,4.114,4.114,0,0,1,.8,2.721v.526h-5.011a2.629,2.629,0,0,0,.639,1.767A2.009,2.009,0,0,0-113.2-.9a2.2,2.2,0,0,0,1.135-.273,2.851,2.851,0,0,0,.813-.725l.772.6A3.106,3.106,0,0,1-113.268.137Zm-.157-6.631a1.687,1.687,0,0,0-1.285.557,2.708,2.708,0,0,0-.643,1.562h3.705v-.1a2.409,2.409,0,0,0-.52-1.494A1.588,1.588,0,0,0-113.425-6.494Zm7.472,5.6a1.822,1.822,0,0,0,1.183-.41,1.443,1.443,0,0,0,.561-1.025h1.2a2.293,2.293,0,0,1-.437,1.21,2.882,2.882,0,0,1-1.077.916,3.107,3.107,0,0,1-1.425.342,3.047,3.047,0,0,1-2.4-1.008,4.016,4.016,0,0,1-.892-2.758v-.212a4.453,4.453,0,0,1,.4-1.921,3.02,3.02,0,0,1,1.138-1.306,3.233,3.233,0,0,1,1.753-.465,2.966,2.966,0,0,1,2.068.745,2.663,2.663,0,0,1,.878,1.935h-1.2a1.743,1.743,0,0,0-.543-1.179,1.691,1.691,0,0,0-1.207-.461,1.77,1.77,0,0,0-1.494.694,3.259,3.259,0,0,0-.53,2.006v.239a3.194,3.194,0,0,0,.526,1.969A1.779,1.779,0,0,0-105.954-.9Zm8.928.164a2.686,2.686,0,0,1-2.167.868,2.3,2.3,0,0,1-1.8-.687,2.974,2.974,0,0,1-.625-2.034V-7.4h1.265v4.778q0,1.682,1.367,1.682a1.893,1.893,0,0,0,1.928-1.08V-7.4H-95.8V0H-97ZM-90.908-.9a1.822,1.822,0,0,0,1.183-.41,1.443,1.443,0,0,0,.561-1.025h1.2a2.293,2.293,0,0,1-.437,1.21,2.882,2.882,0,0,1-1.077.916,3.107,3.107,0,0,1-1.425.342,3.047,3.047,0,0,1-2.4-1.008A4.016,4.016,0,0,1-94.2-3.63v-.212a4.453,4.453,0,0,1,.4-1.921,3.02,3.02,0,0,1,1.138-1.306,3.233,3.233,0,0,1,1.753-.465,2.966,2.966,0,0,1,2.068.745,2.663,2.663,0,0,1,.878,1.935h-1.2a1.743,1.743,0,0,0-.543-1.179,1.691,1.691,0,0,0-1.207-.461,1.77,1.77,0,0,0-1.494.694,3.259,3.259,0,0,0-.53,2.006v.239a3.194,3.194,0,0,0,.526,1.969A1.779,1.779,0,0,0-90.908-.9Zm5.735.9h-1.265V-7.4h1.265ZM-86.54-9.358a.755.755,0,0,1,.188-.52.706.706,0,0,1,.557-.212.717.717,0,0,1,.561.212.747.747,0,0,1,.191.52.722.722,0,0,1-.191.513.73.73,0,0,1-.561.205.718.718,0,0,1-.557-.205A.73.73,0,0,1-86.54-9.358Zm3.056,5.592a4.369,4.369,0,0,1,.427-1.955,3.187,3.187,0,0,1,1.189-1.34,3.238,3.238,0,0,1,1.74-.472,3.119,3.119,0,0,1,2.444,1.046,4.024,4.024,0,0,1,.933,2.782v.089a4.407,4.407,0,0,1-.414,1.938A3.14,3.14,0,0,1-78.347-.342a3.275,3.275,0,0,1-1.767.479A3.111,3.111,0,0,1-82.551-.909a4,4,0,0,1-.933-2.769Zm1.271.15a3.164,3.164,0,0,0,.571,1.976A1.827,1.827,0,0,0-80.114-.9a1.816,1.816,0,0,0,1.531-.755,3.46,3.46,0,0,0,.567-2.116,3.159,3.159,0,0,0-.578-1.972,1.836,1.836,0,0,0-1.535-.755,1.816,1.816,0,0,0-1.511.745A3.434,3.434,0,0,0-82.212-3.616Zm2.659-6.884h1.531l-1.832,2.01-1.019,0Zm5.585,3.1.041.93a2.7,2.7,0,0,1,2.215-1.066q2.345,0,2.365,2.646V0h-1.265V-4.895a1.7,1.7,0,0,0-.366-1.183A1.466,1.466,0,0,0-72.1-6.46a1.825,1.825,0,0,0-1.08.328,2.228,2.228,0,0,0-.725.861V0h-1.265V-7.4Zm9.687,3.637A4.333,4.333,0,0,1-63.475-6.5a2.551,2.551,0,0,1,2.112-1.036,2.565,2.565,0,0,1,2.058.889V-10.5h1.265V0H-59.2l-.062-.793a2.575,2.575,0,0,1-2.112.93,2.526,2.526,0,0,1-2.1-1.053,4.382,4.382,0,0,1-.81-2.748Zm1.265.144a3.281,3.281,0,0,0,.52,1.969,1.68,1.68,0,0,0,1.436.711,1.845,1.845,0,0,0,1.757-1.08v-3.4A1.859,1.859,0,0,0-61.048-6.46a1.687,1.687,0,0,0-1.449.718A3.612,3.612,0,0,0-63.017-3.616ZM-53.009.137a3.232,3.232,0,0,1-2.447-.988A3.666,3.666,0,0,1-56.4-3.493v-.232a4.438,4.438,0,0,1,.42-1.965A3.28,3.28,0,0,1-54.8-7.044a2.956,2.956,0,0,1,1.637-.489,2.77,2.77,0,0,1,2.242.95,4.114,4.114,0,0,1,.8,2.721v.526h-5.011A2.629,2.629,0,0,0-54.5-1.569,2.009,2.009,0,0,0-52.941-.9a2.2,2.2,0,0,0,1.135-.273,2.851,2.851,0,0,0,.813-.725l.772.6A3.106,3.106,0,0,1-53.009.137Zm-.157-6.631a1.687,1.687,0,0,0-1.285.557,2.708,2.708,0,0,0-.643,1.562h3.705v-.1a2.409,2.409,0,0,0-.52-1.494A1.588,1.588,0,0,0-53.167-6.494ZM-47.288,0h-1.265V-10.5h1.265ZM-35.55-3.616A4.429,4.429,0,0,1-36.323-.9,2.476,2.476,0,0,1-38.415.137a2.713,2.713,0,0,1-2.119-.854V2.844H-41.8V-7.4h1.155l.062.82a2.605,2.605,0,0,1,2.146-.957,2.522,2.522,0,0,1,2.109,1,4.477,4.477,0,0,1,.776,2.8Zm-1.265-.144a3.268,3.268,0,0,0-.533-1.976,1.718,1.718,0,0,0-1.463-.725,1.859,1.859,0,0,0-1.723,1.019v3.534A1.863,1.863,0,0,0-38.8-.9a1.71,1.71,0,0,0,1.446-.721A3.567,3.567,0,0,0-36.815-3.76Zm6.446-2.5a3.79,3.79,0,0,0-.622-.048,1.667,1.667,0,0,0-1.688,1.06V0h-1.265V-7.4h1.23l.021.854a1.969,1.969,0,0,1,1.764-.991,1.292,1.292,0,0,1,.561.1Zm.69,2.5a4.369,4.369,0,0,1,.427-1.955,3.187,3.187,0,0,1,1.189-1.34,3.238,3.238,0,0,1,1.74-.472,3.119,3.119,0,0,1,2.444,1.046,4.024,4.024,0,0,1,.933,2.782v.089a4.407,4.407,0,0,1-.414,1.938A3.14,3.14,0,0,1-24.541-.342a3.275,3.275,0,0,1-1.767.479A3.111,3.111,0,0,1-28.745-.909a4,4,0,0,1-.933-2.769Zm1.271.15a3.164,3.164,0,0,0,.571,1.976A1.827,1.827,0,0,0-26.308-.9a1.816,1.816,0,0,0,1.531-.755,3.46,3.46,0,0,0,.567-2.116,3.159,3.159,0,0,0-.578-1.972,1.836,1.836,0,0,0-1.535-.755,1.816,1.816,0,0,0-1.511.745A3.434,3.434,0,0,0-28.407-3.616Zm6.747-.144a4.347,4.347,0,0,1,.8-2.751,2.558,2.558,0,0,1,2.119-1.022,2.544,2.544,0,0,1,2.112.957l.062-.82h1.155V-.178a3.009,3.009,0,0,1-.851,2.263,3.141,3.141,0,0,1-2.287.827,3.8,3.8,0,0,1-1.565-.342,2.7,2.7,0,0,1-1.169-.937l.656-.759a2.473,2.473,0,0,0,1.989,1A1.938,1.938,0,0,0-17.2,1.36,1.986,1.986,0,0,0-16.683-.1V-.738a2.6,2.6,0,0,1-2.071.875,2.527,2.527,0,0,1-2.1-1.046A4.571,4.571,0,0,1-21.66-3.76Zm1.271.144a3.316,3.316,0,0,0,.513,1.965,1.666,1.666,0,0,0,1.436.714,1.852,1.852,0,0,0,1.757-1.087V-5.4a1.874,1.874,0,0,0-1.743-1.06,1.681,1.681,0,0,0-1.442.718A3.612,3.612,0,0,0-20.388-3.616ZM-9.929-6.262a3.79,3.79,0,0,0-.622-.048A1.667,1.667,0,0,0-12.24-5.25V0H-13.5V-7.4h1.23l.021.854a1.969,1.969,0,0,1,1.764-.991,1.292,1.292,0,0,1,.561.1ZM-4.474,0a2.657,2.657,0,0,1-.178-.779A2.822,2.822,0,0,1-6.757.137,2.611,2.611,0,0,1-8.552-.482a2,2,0,0,1-.7-1.569,2.091,2.091,0,0,1,.878-1.794A4.142,4.142,0,0,1-5.9-4.484h1.23v-.581a1.42,1.42,0,0,0-.4-1.056,1.593,1.593,0,0,0-1.169-.393,1.844,1.844,0,0,0-1.135.342,1.007,1.007,0,0,0-.458.827H-9.1a1.745,1.745,0,0,1,.393-1.07,2.683,2.683,0,0,1,1.066-.817,3.588,3.588,0,0,1,1.48-.3,2.924,2.924,0,0,1,2,.639,2.306,2.306,0,0,1,.752,1.76v3.4a4.162,4.162,0,0,0,.26,1.62V0Zm-2.1-.964a2.223,2.223,0,0,0,1.128-.308,1.861,1.861,0,0,0,.772-.8V-3.589h-.991q-2.324,0-2.324,1.36a1.151,1.151,0,0,0,.4.93A1.524,1.524,0,0,0-6.573-.964ZM-.236-7.4l.034.82a2.732,2.732,0,0,1,2.194-.957A2.115,2.115,0,0,1,4.1-6.344a2.8,2.8,0,0,1,.96-.861,2.837,2.837,0,0,1,1.4-.328q2.434,0,2.475,2.577V0H7.673V-4.881a1.7,1.7,0,0,0-.362-1.186A1.6,1.6,0,0,0,6.094-6.46a1.677,1.677,0,0,0-1.169.42,1.706,1.706,0,0,0-.54,1.131V0H3.114V-4.847A1.411,1.411,0,0,0,1.535-6.46,1.692,1.692,0,0,0-.167-5.4V0H-1.432V-7.4ZM15.412,0a2.657,2.657,0,0,1-.178-.779,2.822,2.822,0,0,1-2.105.916,2.611,2.611,0,0,1-1.794-.619,2,2,0,0,1-.7-1.569,2.091,2.091,0,0,1,.878-1.794,4.142,4.142,0,0,1,2.471-.639h1.23v-.581a1.42,1.42,0,0,0-.4-1.056,1.593,1.593,0,0,0-1.169-.393,1.844,1.844,0,0,0-1.135.342,1.007,1.007,0,0,0-.458.827H10.784a1.745,1.745,0,0,1,.393-1.07,2.683,2.683,0,0,1,1.066-.817,3.588,3.588,0,0,1,1.48-.3,2.924,2.924,0,0,1,2,.639,2.306,2.306,0,0,1,.752,1.76v3.4a4.162,4.162,0,0,0,.26,1.62V0Zm-2.1-.964a2.223,2.223,0,0,0,1.128-.308,1.861,1.861,0,0,0,.772-.8V-3.589h-.991q-2.324,0-2.324,1.36a1.151,1.151,0,0,0,.4.93A1.524,1.524,0,0,0,13.313-.964Zm8.306-2.8A4.333,4.333,0,0,1,22.425-6.5a2.551,2.551,0,0,1,2.112-1.036,2.565,2.565,0,0,1,2.058.889V-10.5H27.86V0H26.7l-.062-.793a2.575,2.575,0,0,1-2.112.93,2.526,2.526,0,0,1-2.1-1.053,4.382,4.382,0,0,1-.81-2.748Zm1.265.144a3.281,3.281,0,0,0,.52,1.969,1.68,1.68,0,0,0,1.436.711A1.845,1.845,0,0,0,26.6-2.017v-3.4A1.859,1.859,0,0,0,24.852-6.46a1.687,1.687,0,0,0-1.449.718A3.612,3.612,0,0,0,22.883-3.616ZM32.891.137a3.232,3.232,0,0,1-2.447-.988A3.666,3.666,0,0,1,29.5-3.493v-.232a4.438,4.438,0,0,1,.42-1.965A3.28,3.28,0,0,1,31.1-7.044a2.956,2.956,0,0,1,1.637-.489,2.77,2.77,0,0,1,2.242.95,4.114,4.114,0,0,1,.8,2.721v.526H30.765A2.629,2.629,0,0,0,31.4-1.569,2.009,2.009,0,0,0,32.959-.9a2.2,2.2,0,0,0,1.135-.273,2.851,2.851,0,0,0,.813-.725l.772.6A3.106,3.106,0,0,1,32.891.137Zm-.157-6.631a1.687,1.687,0,0,0-1.285.557,2.708,2.708,0,0,0-.643,1.562h3.705v-.1a2.409,2.409,0,0,0-.52-1.494A1.588,1.588,0,0,0,32.734-6.494ZM40.4-3.76a4.347,4.347,0,0,1,.8-2.751,2.558,2.558,0,0,1,2.119-1.022,2.544,2.544,0,0,1,2.112.957L45.5-7.4h1.155V-.178A3.009,3.009,0,0,1,45.8,2.085a3.141,3.141,0,0,1-2.287.827,3.8,3.8,0,0,1-1.565-.342,2.7,2.7,0,0,1-1.169-.937l.656-.759a2.473,2.473,0,0,0,1.989,1,1.938,1.938,0,0,0,1.439-.52A1.986,1.986,0,0,0,45.38-.1V-.738a2.6,2.6,0,0,1-2.071.875,2.526,2.526,0,0,1-2.1-1.046A4.571,4.571,0,0,1,40.4-3.76Zm1.271.144a3.316,3.316,0,0,0,.513,1.965,1.666,1.666,0,0,0,1.436.714A1.852,1.852,0,0,0,45.38-2.023V-5.4a1.874,1.874,0,0,0-1.743-1.06,1.681,1.681,0,0,0-1.442.718A3.612,3.612,0,0,0,41.675-3.616ZM51.628.137a3.232,3.232,0,0,1-2.447-.988,3.666,3.666,0,0,1-.943-2.642v-.232a4.438,4.438,0,0,1,.42-1.965,3.28,3.28,0,0,1,1.176-1.354,2.956,2.956,0,0,1,1.637-.489,2.77,2.77,0,0,1,2.242.95,4.114,4.114,0,0,1,.8,2.721v.526H49.5a2.629,2.629,0,0,0,.639,1.767A2.009,2.009,0,0,0,51.7-.9a2.2,2.2,0,0,0,1.135-.273,2.851,2.851,0,0,0,.813-.725l.772.6A3.106,3.106,0,0,1,51.628.137Zm-.157-6.631a1.687,1.687,0,0,0-1.285.557,2.708,2.708,0,0,0-.643,1.562h3.705v-.1a2.409,2.409,0,0,0-.52-1.494A1.588,1.588,0,0,0,51.471-6.494Zm8.812,4.532a.931.931,0,0,0-.386-.8,3.718,3.718,0,0,0-1.347-.489,6.367,6.367,0,0,1-1.524-.492,2.169,2.169,0,0,1-.834-.684,1.635,1.635,0,0,1-.27-.943A1.919,1.919,0,0,1,56.69-6.9a3,3,0,0,1,1.965-.629,3.091,3.091,0,0,1,2.041.649,2.063,2.063,0,0,1,.783,1.661H60.208a1.142,1.142,0,0,0-.441-.9,1.652,1.652,0,0,0-1.111-.376,1.729,1.729,0,0,0-1.08.3.947.947,0,0,0-.39.786.767.767,0,0,0,.362.69,4.458,4.458,0,0,0,1.309.444,6.821,6.821,0,0,1,1.535.506,2.239,2.239,0,0,1,.872.708,1.74,1.74,0,0,1,.284,1.008,1.893,1.893,0,0,1-.793,1.589,3.326,3.326,0,0,1-2.058.6,3.725,3.725,0,0,1-1.572-.314,2.557,2.557,0,0,1-1.07-.878,2.117,2.117,0,0,1-.386-1.22h1.265a1.309,1.309,0,0,0,.509,1.008A1.976,1.976,0,0,0,58.7-.9a2.039,2.039,0,0,0,1.152-.291A.893.893,0,0,0,60.283-1.962Zm4.628-7.226V-7.4h1.381v.978H64.911v4.593a1.027,1.027,0,0,0,.185.667.777.777,0,0,0,.629.222,3.062,3.062,0,0,0,.6-.082V0a3.688,3.688,0,0,1-.971.136,1.575,1.575,0,0,1-1.278-.513,2.2,2.2,0,0,1-.431-1.456V-6.419H62.3V-7.4h1.347V-9.187ZM69.142,0H67.877V-7.4h1.265ZM67.775-9.358a.755.755,0,0,1,.188-.52.706.706,0,0,1,.557-.212.717.717,0,0,1,.561.212.747.747,0,0,1,.191.52.722.722,0,0,1-.191.513.73.73,0,0,1-.561.205.718.718,0,0,1-.557-.205A.73.73,0,0,1,67.775-9.358Zm3.056,5.592a4.369,4.369,0,0,1,.427-1.955,3.187,3.187,0,0,1,1.189-1.34,3.238,3.238,0,0,1,1.74-.472,3.119,3.119,0,0,1,2.444,1.046,4.024,4.024,0,0,1,.933,2.782v.089a4.407,4.407,0,0,1-.414,1.938A3.14,3.14,0,0,1,75.968-.342,3.275,3.275,0,0,1,74.2.137,3.111,3.111,0,0,1,71.764-.909a4,4,0,0,1-.933-2.769Zm1.271.15a3.164,3.164,0,0,0,.571,1.976A1.827,1.827,0,0,0,74.2-.9a1.816,1.816,0,0,0,1.531-.755A3.46,3.46,0,0,0,76.3-3.767a3.159,3.159,0,0,0-.578-1.972,1.836,1.836,0,0,0-1.535-.755,1.816,1.816,0,0,0-1.511.745A3.434,3.434,0,0,0,72.1-3.616ZM74.761-10.5h1.531L74.46-8.49l-1.019,0Zm5.585,3.1.041.93A2.7,2.7,0,0,1,82.6-7.533q2.345,0,2.365,2.646V0H83.7V-4.895a1.7,1.7,0,0,0-.366-1.183,1.466,1.466,0,0,0-1.118-.383,1.825,1.825,0,0,0-1.08.328,2.228,2.228,0,0,0-.725.861V0H79.15V-7.4ZM94.907,0a2.657,2.657,0,0,1-.178-.779,2.822,2.822,0,0,1-2.105.916,2.611,2.611,0,0,1-1.794-.619,2,2,0,0,1-.7-1.569,2.091,2.091,0,0,1,.878-1.794,4.141,4.141,0,0,1,2.471-.639h1.23v-.581a1.42,1.42,0,0,0-.4-1.056,1.593,1.593,0,0,0-1.169-.393,1.844,1.844,0,0,0-1.135.342,1.007,1.007,0,0,0-.458.827H90.279a1.745,1.745,0,0,1,.393-1.07,2.683,2.683,0,0,1,1.066-.817,3.588,3.588,0,0,1,1.48-.3,2.924,2.924,0,0,1,2,.639,2.306,2.306,0,0,1,.752,1.76v3.4a4.162,4.162,0,0,0,.26,1.62V0Zm-2.1-.964a2.223,2.223,0,0,0,1.128-.308,1.861,1.861,0,0,0,.772-.8V-3.589h-.991q-2.324,0-2.324,1.36a1.151,1.151,0,0,0,.4.93A1.524,1.524,0,0,0,92.808-.964ZM99.145-7.4l.034.82a2.732,2.732,0,0,1,2.194-.957,2.115,2.115,0,0,1,2.112,1.189,2.8,2.8,0,0,1,.96-.861,2.837,2.837,0,0,1,1.4-.328q2.434,0,2.475,2.577V0h-1.265V-4.881a1.7,1.7,0,0,0-.362-1.186,1.6,1.6,0,0,0-1.217-.393,1.677,1.677,0,0,0-1.169.42,1.706,1.706,0,0,0-.54,1.131V0h-1.271V-4.847a1.411,1.411,0,0,0-1.579-1.613,1.692,1.692,0,0,0-1.7,1.06V0H97.949V-7.4Zm17.343,3.78a4.4,4.4,0,0,1-.779,2.724A2.49,2.49,0,0,1,113.617.137a2.578,2.578,0,0,1-2.167-.991L111.388,0h-1.162V-10.5h1.265v3.917a2.564,2.564,0,0,1,2.112-.95,2.505,2.505,0,0,1,2.116,1.019,4.53,4.53,0,0,1,.769,2.789Zm-1.265-.144a3.417,3.417,0,0,0-.5-2,1.652,1.652,0,0,0-1.436-.7,1.857,1.857,0,0,0-1.8,1.162v3.2A1.909,1.909,0,0,0,113.3-.937a1.643,1.643,0,0,0,1.415-.7A3.634,3.634,0,0,0,115.223-3.76ZM119.455,0H118.19V-7.4h1.265Zm-1.367-9.358a.755.755,0,0,1,.188-.52.706.706,0,0,1,.557-.212.717.717,0,0,1,.561.212.747.747,0,0,1,.191.52.722.722,0,0,1-.191.513.73.73,0,0,1-.561.205.718.718,0,0,1-.557-.205A.73.73,0,0,1,118.087-9.358Zm6.46,9.5A3.232,3.232,0,0,1,122.1-.851a3.666,3.666,0,0,1-.943-2.642v-.232a4.438,4.438,0,0,1,.42-1.965,3.28,3.28,0,0,1,1.176-1.354,2.956,2.956,0,0,1,1.637-.489,2.77,2.77,0,0,1,2.242.95,4.114,4.114,0,0,1,.8,2.721v.526h-5.011a2.629,2.629,0,0,0,.639,1.767,2.009,2.009,0,0,0,1.555.673,2.2,2.2,0,0,0,1.135-.273,2.851,2.851,0,0,0,.813-.725l.772.6A3.106,3.106,0,0,1,124.547.137Zm-.157-6.631a1.687,1.687,0,0,0-1.285.557,2.708,2.708,0,0,0-.643,1.562h3.705v-.1a2.409,2.409,0,0,0-.52-1.494A1.588,1.588,0,0,0,124.39-6.494Zm5.7-.9.041.93a2.7,2.7,0,0,1,2.215-1.066q2.345,0,2.365,2.646V0h-1.265V-4.895a1.7,1.7,0,0,0-.366-1.183,1.466,1.466,0,0,0-1.118-.383,1.825,1.825,0,0,0-1.08.328,2.228,2.228,0,0,0-.725.861V0H128.9V-7.4Zm8.244-1.791V-7.4h1.381v.978h-1.381v4.593a1.027,1.027,0,0,0,.185.667.777.777,0,0,0,.629.222,3.062,3.062,0,0,0,.6-.082V0a3.688,3.688,0,0,1-.971.136A1.575,1.575,0,0,1,137.5-.376a2.2,2.2,0,0,1-.431-1.456V-6.419h-1.347V-7.4h1.347V-9.187ZM145.759,0a2.657,2.657,0,0,1-.178-.779,2.822,2.822,0,0,1-2.105.916,2.611,2.611,0,0,1-1.794-.619,2,2,0,0,1-.7-1.569,2.091,2.091,0,0,1,.878-1.794,4.142,4.142,0,0,1,2.471-.639h1.23v-.581a1.42,1.42,0,0,0-.4-1.056A1.593,1.593,0,0,0,144-6.515a1.844,1.844,0,0,0-1.135.342,1.007,1.007,0,0,0-.458.827h-1.271a1.745,1.745,0,0,1,.393-1.07,2.683,2.683,0,0,1,1.066-.817,3.588,3.588,0,0,1,1.48-.3,2.924,2.924,0,0,1,2,.639,2.306,2.306,0,0,1,.752,1.76v3.4a4.162,4.162,0,0,0,.26,1.62V0Zm-2.1-.964a2.223,2.223,0,0,0,1.128-.308,1.861,1.861,0,0,0,.772-.8V-3.589h-.991q-2.324,0-2.324,1.36a1.151,1.151,0,0,0,.4.93A1.524,1.524,0,0,0,143.661-.964ZM150.182,0h-1.265V-10.5h1.265Z" transform="translate(-134.548 -2619.234)" fill="#f3f9ff"/>
    <path id="Trazado_246525" data-name="Trazado 246525" d="M-113.022,0h-1.271V-8.429l-2.55.937V-8.641L-113.22-10h.2ZM-102.8,0h-6.521V-.909l3.445-3.828a8.185,8.185,0,0,0,1.056-1.412,2.356,2.356,0,0,0,.291-1.125A1.786,1.786,0,0,0-105-8.552a1.649,1.649,0,0,0-1.258-.5,1.953,1.953,0,0,0-1.466.537,2.05,2.05,0,0,0-.523,1.494h-1.265a2.936,2.936,0,0,1,.885-2.222,3.282,3.282,0,0,1,2.369-.848,3.153,3.153,0,0,1,2.194.728,2.483,2.483,0,0,1,.807,1.938q0,1.47-1.873,3.5l-2.666,2.892h5Zm1.5-.663a.792.792,0,0,1,.195-.547.742.742,0,0,1,.584-.219.765.765,0,0,1,.591.219.776.776,0,0,1,.2.547.734.734,0,0,1-.2.526.778.778,0,0,1-.591.212.755.755,0,0,1-.584-.212A.748.748,0,0,1-101.3-.663Zm14.67-.643A3.032,3.032,0,0,1-88.04-.222a5.7,5.7,0,0,1-2.109.359,4.09,4.09,0,0,1-2.16-.571,3.8,3.8,0,0,1-1.459-1.624A5.607,5.607,0,0,1-94.3-4.5v-.868a5.234,5.234,0,0,1,1.049-3.486A3.656,3.656,0,0,1-90.3-10.09a3.777,3.777,0,0,1,2.509.8,3.469,3.469,0,0,1,1.162,2.259h-1.312a2.17,2.17,0,0,0-2.352-1.982,2.323,2.323,0,0,0-2,.927A4.526,4.526,0,0,0-92.979-5.4v.814a4.242,4.242,0,0,0,.766,2.665,2.482,2.482,0,0,0,2.071.989A4.575,4.575,0,0,0-88.85-1.1a2,2,0,0,0,.916-.552v-2.23h-2.3V-4.956h3.609ZM-81.57.137a3.232,3.232,0,0,1-2.447-.988,3.666,3.666,0,0,1-.943-2.642v-.232a4.438,4.438,0,0,1,.42-1.965,3.28,3.28,0,0,1,1.176-1.354,2.956,2.956,0,0,1,1.637-.489,2.77,2.77,0,0,1,2.242.95,4.114,4.114,0,0,1,.8,2.721v.526H-83.7a2.629,2.629,0,0,0,.639,1.767A2.009,2.009,0,0,0-81.5-.9a2.2,2.2,0,0,0,1.135-.273,2.851,2.851,0,0,0,.813-.725l.772.6A3.106,3.106,0,0,1-81.57.137Zm-.157-6.631a1.687,1.687,0,0,0-1.285.557,2.708,2.708,0,0,0-.643,1.562h3.705v-.1a2.409,2.409,0,0,0-.52-1.494A1.588,1.588,0,0,0-81.727-6.494Zm8.812,4.532a.931.931,0,0,0-.386-.8,3.718,3.718,0,0,0-1.347-.489,6.367,6.367,0,0,1-1.524-.492,2.169,2.169,0,0,1-.834-.684,1.635,1.635,0,0,1-.27-.943A1.919,1.919,0,0,1-76.508-6.9a3,3,0,0,1,1.965-.629,3.091,3.091,0,0,1,2.041.649,2.063,2.063,0,0,1,.783,1.661h-1.271a1.142,1.142,0,0,0-.441-.9,1.652,1.652,0,0,0-1.111-.376,1.729,1.729,0,0,0-1.08.3.947.947,0,0,0-.39.786.767.767,0,0,0,.362.69,4.458,4.458,0,0,0,1.309.444,6.821,6.821,0,0,1,1.535.506,2.239,2.239,0,0,1,.872.708,1.74,1.74,0,0,1,.284,1.008,1.893,1.893,0,0,1-.793,1.589,3.326,3.326,0,0,1-2.058.6,3.725,3.725,0,0,1-1.572-.314,2.557,2.557,0,0,1-1.07-.878,2.117,2.117,0,0,1-.386-1.22h1.265a1.309,1.309,0,0,0,.509,1.008A1.976,1.976,0,0,0-74.5-.9a2.039,2.039,0,0,0,1.152-.291A.893.893,0,0,0-72.916-1.962Zm4.628-7.226V-7.4h1.381v.978h-1.381v4.593a1.027,1.027,0,0,0,.185.667.777.777,0,0,0,.629.222,3.062,3.062,0,0,0,.6-.082V0a3.688,3.688,0,0,1-.971.136,1.575,1.575,0,0,1-1.278-.513,2.2,2.2,0,0,1-.431-1.456V-6.419H-70.9V-7.4h1.347V-9.187ZM-64.056,0h-1.265V-7.4h1.265Zm-1.367-9.358a.755.755,0,0,1,.188-.52.706.706,0,0,1,.557-.212.717.717,0,0,1,.561.212.747.747,0,0,1,.191.52.722.722,0,0,1-.191.513.73.73,0,0,1-.561.205.718.718,0,0,1-.557-.205A.73.73,0,0,1-65.423-9.358Zm3.056,5.592a4.369,4.369,0,0,1,.427-1.955,3.187,3.187,0,0,1,1.189-1.34,3.238,3.238,0,0,1,1.74-.472,3.119,3.119,0,0,1,2.444,1.046,4.024,4.024,0,0,1,.933,2.782v.089a4.407,4.407,0,0,1-.414,1.938A3.14,3.14,0,0,1-57.23-.342,3.275,3.275,0,0,1-59,.137,3.111,3.111,0,0,1-61.435-.909a4,4,0,0,1-.933-2.769Zm1.271.15a3.164,3.164,0,0,0,.571,1.976A1.827,1.827,0,0,0-59-.9a1.816,1.816,0,0,0,1.531-.755A3.46,3.46,0,0,0-56.9-3.767a3.159,3.159,0,0,0-.578-1.972,1.836,1.836,0,0,0-1.535-.755,1.816,1.816,0,0,0-1.511.745A3.434,3.434,0,0,0-61.1-3.616Zm2.659-6.884h1.531l-1.832,2.01-1.019,0Zm5.585,3.1.041.93A2.7,2.7,0,0,1-50.6-7.533q2.345,0,2.365,2.646V0H-49.5V-4.895a1.7,1.7,0,0,0-.366-1.183,1.466,1.466,0,0,0-1.118-.383,1.825,1.825,0,0,0-1.08.328,2.228,2.228,0,0,0-.725.861V0h-1.265V-7.4Zm9.687,3.637A4.333,4.333,0,0,1-42.359-6.5a2.551,2.551,0,0,1,2.112-1.036,2.565,2.565,0,0,1,2.058.889V-10.5h1.265V0h-1.162l-.062-.793a2.575,2.575,0,0,1-2.112.93,2.526,2.526,0,0,1-2.1-1.053,4.382,4.382,0,0,1-.81-2.748Zm1.265.144a3.281,3.281,0,0,0,.52,1.969,1.68,1.68,0,0,0,1.436.711,1.845,1.845,0,0,0,1.757-1.08v-3.4A1.859,1.859,0,0,0-39.932-6.46a1.687,1.687,0,0,0-1.449.718A3.612,3.612,0,0,0-41.9-3.616ZM-31.893.137A3.232,3.232,0,0,1-34.34-.851a3.666,3.666,0,0,1-.943-2.642v-.232a4.438,4.438,0,0,1,.42-1.965,3.28,3.28,0,0,1,1.176-1.354,2.956,2.956,0,0,1,1.637-.489,2.77,2.77,0,0,1,2.242.95,4.114,4.114,0,0,1,.8,2.721v.526h-5.011a2.629,2.629,0,0,0,.639,1.767A2.009,2.009,0,0,0-31.825-.9a2.2,2.2,0,0,0,1.135-.273,2.851,2.851,0,0,0,.813-.725l.772.6A3.106,3.106,0,0,1-31.893.137Zm-.157-6.631a1.687,1.687,0,0,0-1.285.557,2.708,2.708,0,0,0-.643,1.562h3.705v-.1a2.409,2.409,0,0,0-.52-1.494A1.588,1.588,0,0,0-32.05-6.494ZM-22.706,0H-23.97V-10.5h1.265Zm6.59,0a2.657,2.657,0,0,1-.178-.779A2.822,2.822,0,0,1-18.4.137a2.611,2.611,0,0,1-1.794-.619,2,2,0,0,1-.7-1.569,2.091,2.091,0,0,1,.878-1.794,4.142,4.142,0,0,1,2.471-.639h1.23v-.581a1.42,1.42,0,0,0-.4-1.056,1.593,1.593,0,0,0-1.169-.393,1.844,1.844,0,0,0-1.135.342,1.007,1.007,0,0,0-.458.827h-1.271a1.745,1.745,0,0,1,.393-1.07,2.683,2.683,0,0,1,1.066-.817,3.588,3.588,0,0,1,1.48-.3,2.924,2.924,0,0,1,2,.639,2.306,2.306,0,0,1,.752,1.76v3.4a4.162,4.162,0,0,0,.26,1.62V0Zm-2.1-.964a2.223,2.223,0,0,0,1.128-.308,1.861,1.861,0,0,0,.772-.8V-3.589h-.991q-2.324,0-2.324,1.36a1.151,1.151,0,0,0,.4.93A1.524,1.524,0,0,0-18.214-.964Zm9.454-1a.931.931,0,0,0-.386-.8,3.718,3.718,0,0,0-1.347-.489,6.367,6.367,0,0,1-1.524-.492,2.169,2.169,0,0,1-.834-.684,1.635,1.635,0,0,1-.27-.943A1.919,1.919,0,0,1-12.353-6.9a3,3,0,0,1,1.965-.629,3.091,3.091,0,0,1,2.041.649,2.063,2.063,0,0,1,.783,1.661H-8.835a1.142,1.142,0,0,0-.441-.9,1.652,1.652,0,0,0-1.111-.376,1.729,1.729,0,0,0-1.08.3.947.947,0,0,0-.39.786.767.767,0,0,0,.362.69,4.458,4.458,0,0,0,1.309.444,6.821,6.821,0,0,1,1.535.506,2.239,2.239,0,0,1,.872.708A1.74,1.74,0,0,1-7.5-2.051,1.893,1.893,0,0,1-8.289-.461a3.326,3.326,0,0,1-2.058.6,3.725,3.725,0,0,1-1.572-.314,2.557,2.557,0,0,1-1.07-.878,2.117,2.117,0,0,1-.386-1.22h1.265A1.309,1.309,0,0,0-11.6-1.268,1.976,1.976,0,0,0-10.346-.9a2.039,2.039,0,0,0,1.152-.291A.893.893,0,0,0-8.76-1.962Zm9.953-4.3A3.79,3.79,0,0,0,.571-6.31,1.667,1.667,0,0,0-1.118-5.25V0H-2.382V-7.4h1.23l.021.854A1.969,1.969,0,0,1,.632-7.533a1.292,1.292,0,0,1,.561.1ZM5.424.137A3.232,3.232,0,0,1,2.977-.851a3.666,3.666,0,0,1-.943-2.642v-.232a4.438,4.438,0,0,1,.42-1.965A3.28,3.28,0,0,1,3.63-7.044a2.956,2.956,0,0,1,1.637-.489,2.77,2.77,0,0,1,2.242.95,4.114,4.114,0,0,1,.8,2.721v.526H3.3a2.629,2.629,0,0,0,.639,1.767A2.009,2.009,0,0,0,5.493-.9a2.2,2.2,0,0,0,1.135-.273,2.851,2.851,0,0,0,.813-.725l.772.6A3.106,3.106,0,0,1,5.424.137ZM5.267-6.494a1.687,1.687,0,0,0-1.285.557,2.708,2.708,0,0,0-.643,1.562H7.044v-.1a2.409,2.409,0,0,0-.52-1.494A1.588,1.588,0,0,0,5.267-6.494ZM11.146,0H9.881V-10.5h1.265Zm6.59,0a2.657,2.657,0,0,1-.178-.779,2.822,2.822,0,0,1-2.105.916,2.611,2.611,0,0,1-1.794-.619,2,2,0,0,1-.7-1.569,2.091,2.091,0,0,1,.878-1.794,4.142,4.142,0,0,1,2.471-.639h1.23v-.581a1.42,1.42,0,0,0-.4-1.056,1.593,1.593,0,0,0-1.169-.393,1.844,1.844,0,0,0-1.135.342,1.007,1.007,0,0,0-.458.827H13.108a1.745,1.745,0,0,1,.393-1.07,2.683,2.683,0,0,1,1.066-.817,3.588,3.588,0,0,1,1.48-.3,2.924,2.924,0,0,1,2,.639,2.306,2.306,0,0,1,.752,1.76v3.4a4.162,4.162,0,0,0,.26,1.62V0Zm-2.1-.964a2.223,2.223,0,0,0,1.128-.308,1.861,1.861,0,0,0,.772-.8V-3.589h-.991q-2.324,0-2.324,1.36a1.151,1.151,0,0,0,.4.93A1.524,1.524,0,0,0,15.637-.964ZM23.751-.9a1.822,1.822,0,0,0,1.183-.41,1.443,1.443,0,0,0,.561-1.025h1.2a2.293,2.293,0,0,1-.437,1.21,2.881,2.881,0,0,1-1.077.916,3.107,3.107,0,0,1-1.425.342,3.047,3.047,0,0,1-2.4-1.008,4.016,4.016,0,0,1-.892-2.758v-.212a4.453,4.453,0,0,1,.4-1.921,3.02,3.02,0,0,1,1.138-1.306,3.233,3.233,0,0,1,1.753-.465,2.966,2.966,0,0,1,2.068.745,2.663,2.663,0,0,1,.878,1.935h-1.2a1.743,1.743,0,0,0-.543-1.179,1.691,1.691,0,0,0-1.207-.461,1.77,1.77,0,0,0-1.494.694,3.259,3.259,0,0,0-.53,2.006v.239a3.194,3.194,0,0,0,.526,1.969A1.779,1.779,0,0,0,23.751-.9Zm5.735.9H28.222V-7.4h1.265ZM28.12-9.358a.755.755,0,0,1,.188-.52.706.706,0,0,1,.557-.212.717.717,0,0,1,.561.212.747.747,0,0,1,.191.52.722.722,0,0,1-.191.513.73.73,0,0,1-.561.205.718.718,0,0,1-.557-.205A.73.73,0,0,1,28.12-9.358Zm3.056,5.592A4.369,4.369,0,0,1,31.6-5.722a3.187,3.187,0,0,1,1.189-1.34,3.238,3.238,0,0,1,1.74-.472,3.119,3.119,0,0,1,2.444,1.046,4.024,4.024,0,0,1,.933,2.782v.089A4.407,4.407,0,0,1,37.5-1.678,3.14,3.14,0,0,1,36.313-.342a3.275,3.275,0,0,1-1.767.479A3.111,3.111,0,0,1,32.108-.909a4,4,0,0,1-.933-2.769Zm1.271.15a3.164,3.164,0,0,0,.571,1.976A1.827,1.827,0,0,0,34.545-.9a1.816,1.816,0,0,0,1.531-.755,3.46,3.46,0,0,0,.567-2.116,3.159,3.159,0,0,0-.578-1.972,1.836,1.836,0,0,0-1.535-.755,1.816,1.816,0,0,0-1.511.745A3.434,3.434,0,0,0,32.447-3.616ZM40.691-7.4l.041.93a2.7,2.7,0,0,1,2.215-1.066q2.345,0,2.365,2.646V0H44.047V-4.895a1.7,1.7,0,0,0-.366-1.183,1.466,1.466,0,0,0-1.118-.383,1.825,1.825,0,0,0-1.08.328,2.228,2.228,0,0,0-.725.861V0H39.495V-7.4Zm9.6,7.533a3.232,3.232,0,0,1-2.447-.988A3.666,3.666,0,0,1,46.9-3.493v-.232a4.438,4.438,0,0,1,.42-1.965,3.28,3.28,0,0,1,1.176-1.354,2.956,2.956,0,0,1,1.637-.489,2.77,2.77,0,0,1,2.242.95,4.114,4.114,0,0,1,.8,2.721v.526H48.163A2.629,2.629,0,0,0,48.8-1.569,2.009,2.009,0,0,0,50.357-.9a2.2,2.2,0,0,0,1.135-.273,2.851,2.851,0,0,0,.813-.725l.772.6A3.106,3.106,0,0,1,50.289.137Zm-.157-6.631a1.687,1.687,0,0,0-1.285.557A2.708,2.708,0,0,0,48.2-4.375h3.705v-.1a2.409,2.409,0,0,0-.52-1.494A1.588,1.588,0,0,0,50.131-6.494Zm8.812,4.532a.931.931,0,0,0-.386-.8,3.718,3.718,0,0,0-1.347-.489,6.367,6.367,0,0,1-1.524-.492,2.169,2.169,0,0,1-.834-.684,1.635,1.635,0,0,1-.27-.943A1.919,1.919,0,0,1,55.351-6.9a3,3,0,0,1,1.965-.629,3.091,3.091,0,0,1,2.041.649,2.063,2.063,0,0,1,.783,1.661H58.868a1.142,1.142,0,0,0-.441-.9,1.652,1.652,0,0,0-1.111-.376,1.729,1.729,0,0,0-1.08.3.947.947,0,0,0-.39.786.767.767,0,0,0,.362.69,4.458,4.458,0,0,0,1.309.444,6.821,6.821,0,0,1,1.535.506,2.239,2.239,0,0,1,.872.708,1.74,1.74,0,0,1,.284,1.008,1.893,1.893,0,0,1-.793,1.589,3.326,3.326,0,0,1-2.058.6,3.725,3.725,0,0,1-1.572-.314,2.557,2.557,0,0,1-1.07-.878,2.117,2.117,0,0,1-.386-1.22h1.265A1.309,1.309,0,0,0,56.1-1.268,1.976,1.976,0,0,0,57.357-.9a2.039,2.039,0,0,0,1.152-.291A.893.893,0,0,0,58.943-1.962ZM68.39.137a3.232,3.232,0,0,1-2.447-.988A3.666,3.666,0,0,1,65-3.493v-.232a4.438,4.438,0,0,1,.42-1.965A3.28,3.28,0,0,1,66.6-7.044a2.956,2.956,0,0,1,1.637-.489,2.77,2.77,0,0,1,2.242.95,4.114,4.114,0,0,1,.8,2.721v.526H66.264A2.629,2.629,0,0,0,66.9-1.569,2.009,2.009,0,0,0,68.458-.9a2.2,2.2,0,0,0,1.135-.273,2.851,2.851,0,0,0,.813-.725l.772.6A3.106,3.106,0,0,1,68.39.137Zm-.157-6.631a1.687,1.687,0,0,0-1.285.557,2.708,2.708,0,0,0-.643,1.562H70.01v-.1a2.409,2.409,0,0,0-.52-1.494A1.588,1.588,0,0,0,68.233-6.494Zm6.986,1.8L76.86-7.4h1.477l-2.42,3.657L78.412,0H76.949L75.24-2.769,73.531,0h-1.47l2.5-3.739L72.136-7.4H73.6Zm6.173-4.491V-7.4h1.381v.978H81.392v4.593a1.027,1.027,0,0,0,.185.667.777.777,0,0,0,.629.222,3.062,3.062,0,0,0,.6-.082V0a3.688,3.688,0,0,1-.971.136,1.575,1.575,0,0,1-1.278-.513,2.2,2.2,0,0,1-.431-1.456V-6.419H78.781V-7.4h1.347V-9.187ZM87.319.137a3.232,3.232,0,0,1-2.447-.988,3.666,3.666,0,0,1-.943-2.642v-.232a4.438,4.438,0,0,1,.42-1.965,3.28,3.28,0,0,1,1.176-1.354,2.956,2.956,0,0,1,1.637-.489,2.77,2.77,0,0,1,2.242.95,4.114,4.114,0,0,1,.8,2.721v.526H85.193a2.629,2.629,0,0,0,.639,1.767A2.009,2.009,0,0,0,87.387-.9a2.2,2.2,0,0,0,1.135-.273,2.851,2.851,0,0,0,.813-.725l.772.6A3.106,3.106,0,0,1,87.319.137Zm-.157-6.631a1.687,1.687,0,0,0-1.285.557,2.708,2.708,0,0,0-.643,1.562h3.705v-.1a2.409,2.409,0,0,0-.52-1.494A1.588,1.588,0,0,0,87.162-6.494Zm8.08.232a3.79,3.79,0,0,0-.622-.048,1.667,1.667,0,0,0-1.688,1.06V0H91.667V-7.4H92.9l.021.854a1.969,1.969,0,0,1,1.764-.991,1.292,1.292,0,0,1,.561.1ZM97.6-7.4l.041.93a2.7,2.7,0,0,1,2.215-1.066q2.345,0,2.365,2.646V0h-1.265V-4.895a1.7,1.7,0,0,0-.366-1.183,1.466,1.466,0,0,0-1.118-.383,1.825,1.825,0,0,0-1.08.328,2.228,2.228,0,0,0-.725.861V0H96.4V-7.4ZM108.695,0a2.657,2.657,0,0,1-.178-.779,2.822,2.822,0,0,1-2.105.916,2.611,2.611,0,0,1-1.794-.619,2,2,0,0,1-.7-1.569,2.091,2.091,0,0,1,.878-1.794,4.141,4.141,0,0,1,2.471-.639h1.23v-.581a1.42,1.42,0,0,0-.4-1.056,1.593,1.593,0,0,0-1.169-.393,1.844,1.844,0,0,0-1.135.342,1.007,1.007,0,0,0-.458.827h-1.271a1.745,1.745,0,0,1,.393-1.07,2.683,2.683,0,0,1,1.066-.817,3.588,3.588,0,0,1,1.48-.3,2.924,2.924,0,0,1,2,.639,2.306,2.306,0,0,1,.752,1.76v3.4a4.162,4.162,0,0,0,.26,1.62V0Zm-2.1-.964a2.223,2.223,0,0,0,1.128-.308,1.861,1.861,0,0,0,.772-.8V-3.589h-.991q-2.324,0-2.324,1.36a1.151,1.151,0,0,0,.4.93A1.524,1.524,0,0,0,106.6-.964Zm9.454-1a.931.931,0,0,0-.386-.8,3.718,3.718,0,0,0-1.347-.489,6.367,6.367,0,0,1-1.524-.492,2.169,2.169,0,0,1-.834-.684,1.635,1.635,0,0,1-.27-.943,1.919,1.919,0,0,1,.769-1.538,3,3,0,0,1,1.965-.629,3.091,3.091,0,0,1,2.041.649,2.063,2.063,0,0,1,.783,1.661h-1.271a1.142,1.142,0,0,0-.441-.9,1.652,1.652,0,0,0-1.111-.376,1.729,1.729,0,0,0-1.08.3.947.947,0,0,0-.39.786.767.767,0,0,0,.362.69,4.458,4.458,0,0,0,1.309.444,6.821,6.821,0,0,1,1.535.506,2.239,2.239,0,0,1,.872.708,1.74,1.74,0,0,1,.284,1.008,1.893,1.893,0,0,1-.793,1.589,3.326,3.326,0,0,1-2.058.6,3.725,3.725,0,0,1-1.572-.314,2.557,2.557,0,0,1-1.07-.878,2.117,2.117,0,0,1-.386-1.22H112.7a1.309,1.309,0,0,0,.509,1.008,1.976,1.976,0,0,0,1.254.373,2.039,2.039,0,0,0,1.152-.291A.893.893,0,0,0,116.05-1.962Z" transform="translate(-137 -2564.5)" fill="#f3f9ff"/>
    <path id="Trazado_246526" data-name="Trazado 246526" d="M-107.321,0h-1.271V-8.429l-2.55.937V-8.641l3.623-1.36h.2Zm5.544-5.592h.95a2.088,2.088,0,0,0,1.408-.472A1.576,1.576,0,0,0-98.906-7.3a1.544,1.544,0,0,0-1.743-1.75,1.813,1.813,0,0,0-1.309.468,1.639,1.639,0,0,0-.489,1.241h-1.265a2.539,2.539,0,0,1,.865-1.965,3.15,3.15,0,0,1,2.2-.783,3.113,3.113,0,0,1,2.208.745,2.692,2.692,0,0,1,.8,2.071,2.185,2.185,0,0,1-.42,1.258,2.538,2.538,0,0,1-1.145.909,2.446,2.446,0,0,1,1.268.861,2.392,2.392,0,0,1,.448,1.47,2.715,2.715,0,0,1-.875,2.126,3.277,3.277,0,0,1-2.276.786,3.363,3.363,0,0,1-2.28-.759,2.517,2.517,0,0,1-.878-2h1.271a1.627,1.627,0,0,0,.513,1.258,1.95,1.95,0,0,0,1.374.472,1.914,1.914,0,0,0,1.4-.479,1.844,1.844,0,0,0,.485-1.374,1.673,1.673,0,0,0-.533-1.333,2.323,2.323,0,0,0-1.538-.479h-.95Zm20.631,4.286A3.032,3.032,0,0,1-82.558-.222a5.7,5.7,0,0,1-2.109.359,4.09,4.09,0,0,1-2.16-.571,3.8,3.8,0,0,1-1.459-1.624,5.607,5.607,0,0,1-.53-2.44v-.868a5.234,5.234,0,0,1,1.049-3.486,3.656,3.656,0,0,1,2.95-1.237,3.777,3.777,0,0,1,2.509.8,3.469,3.469,0,0,1,1.162,2.259h-1.312A2.17,2.17,0,0,0-84.81-9.017a2.323,2.323,0,0,0-2,.927A4.526,4.526,0,0,0-87.5-5.4v.814a4.242,4.242,0,0,0,.766,2.665,2.482,2.482,0,0,0,2.071.989A4.575,4.575,0,0,0-83.368-1.1a2,2,0,0,0,.916-.552v-2.23h-2.3V-4.956h3.609ZM-76.087.137a3.232,3.232,0,0,1-2.447-.988,3.666,3.666,0,0,1-.943-2.642v-.232a4.438,4.438,0,0,1,.42-1.965,3.28,3.28,0,0,1,1.176-1.354,2.956,2.956,0,0,1,1.637-.489A2.77,2.77,0,0,1-74-6.583a4.114,4.114,0,0,1,.8,2.721v.526h-5.011a2.629,2.629,0,0,0,.639,1.767A2.009,2.009,0,0,0-76.019-.9a2.2,2.2,0,0,0,1.135-.273,2.851,2.851,0,0,0,.813-.725l.772.6A3.106,3.106,0,0,1-76.087.137Zm-.157-6.631a1.687,1.687,0,0,0-1.285.557,2.708,2.708,0,0,0-.643,1.562h3.705v-.1a2.409,2.409,0,0,0-.52-1.494A1.588,1.588,0,0,0-76.245-6.494Zm8.812,4.532a.931.931,0,0,0-.386-.8,3.718,3.718,0,0,0-1.347-.489,6.367,6.367,0,0,1-1.524-.492,2.169,2.169,0,0,1-.834-.684,1.635,1.635,0,0,1-.27-.943A1.919,1.919,0,0,1-71.025-6.9a3,3,0,0,1,1.965-.629,3.091,3.091,0,0,1,2.041.649,2.063,2.063,0,0,1,.783,1.661h-1.271a1.142,1.142,0,0,0-.441-.9,1.652,1.652,0,0,0-1.111-.376,1.729,1.729,0,0,0-1.08.3.947.947,0,0,0-.39.786.767.767,0,0,0,.362.69,4.458,4.458,0,0,0,1.309.444,6.821,6.821,0,0,1,1.535.506,2.239,2.239,0,0,1,.872.708,1.74,1.74,0,0,1,.284,1.008,1.893,1.893,0,0,1-.793,1.589,3.326,3.326,0,0,1-2.058.6,3.725,3.725,0,0,1-1.572-.314,2.557,2.557,0,0,1-1.07-.878,2.117,2.117,0,0,1-.386-1.22h1.265a1.309,1.309,0,0,0,.509,1.008A1.976,1.976,0,0,0-69.019-.9a2.039,2.039,0,0,0,1.152-.291A.893.893,0,0,0-67.433-1.962Zm4.628-7.226V-7.4h1.381v.978h-1.381v4.593a1.027,1.027,0,0,0,.185.667.777.777,0,0,0,.629.222,3.062,3.062,0,0,0,.6-.082V0a3.688,3.688,0,0,1-.971.136,1.575,1.575,0,0,1-1.278-.513,2.2,2.2,0,0,1-.431-1.456V-6.419h-1.347V-7.4h1.347V-9.187ZM-58.574,0h-1.265V-7.4h1.265Zm-1.367-9.358a.755.755,0,0,1,.188-.52.706.706,0,0,1,.557-.212.717.717,0,0,1,.561.212.747.747,0,0,1,.191.52.722.722,0,0,1-.191.513.73.73,0,0,1-.561.205.718.718,0,0,1-.557-.205A.73.73,0,0,1-59.941-9.358Zm3.056,5.592a4.369,4.369,0,0,1,.427-1.955,3.187,3.187,0,0,1,1.189-1.34,3.238,3.238,0,0,1,1.74-.472,3.119,3.119,0,0,1,2.444,1.046,4.024,4.024,0,0,1,.933,2.782v.089a4.407,4.407,0,0,1-.414,1.938A3.14,3.14,0,0,1-51.748-.342a3.275,3.275,0,0,1-1.767.479A3.111,3.111,0,0,1-55.952-.909a4,4,0,0,1-.933-2.769Zm1.271.15a3.164,3.164,0,0,0,.571,1.976A1.827,1.827,0,0,0-53.515-.9a1.816,1.816,0,0,0,1.531-.755,3.46,3.46,0,0,0,.567-2.116,3.159,3.159,0,0,0-.578-1.972,1.836,1.836,0,0,0-1.535-.755,1.816,1.816,0,0,0-1.511.745A3.434,3.434,0,0,0-55.614-3.616Zm2.659-6.884h1.531l-1.832,2.01-1.019,0Zm5.585,3.1.041.93a2.7,2.7,0,0,1,2.215-1.066q2.345,0,2.365,2.646V0h-1.265V-4.895a1.7,1.7,0,0,0-.366-1.183A1.466,1.466,0,0,0-45.5-6.46a1.825,1.825,0,0,0-1.08.328,2.228,2.228,0,0,0-.725.861V0h-1.265V-7.4Zm9.687,3.637A4.333,4.333,0,0,1-36.876-6.5a2.551,2.551,0,0,1,2.112-1.036,2.565,2.565,0,0,1,2.058.889V-10.5h1.265V0H-32.6l-.062-.793a2.575,2.575,0,0,1-2.112.93,2.526,2.526,0,0,1-2.1-1.053,4.382,4.382,0,0,1-.81-2.748Zm1.265.144a3.281,3.281,0,0,0,.52,1.969,1.68,1.68,0,0,0,1.436.711,1.845,1.845,0,0,0,1.757-1.08v-3.4A1.859,1.859,0,0,0-34.45-6.46a1.687,1.687,0,0,0-1.449.718A3.612,3.612,0,0,0-36.418-3.616ZM-26.411.137a3.232,3.232,0,0,1-2.447-.988A3.666,3.666,0,0,1-29.8-3.493v-.232a4.438,4.438,0,0,1,.42-1.965,3.28,3.28,0,0,1,1.176-1.354,2.956,2.956,0,0,1,1.637-.489,2.77,2.77,0,0,1,2.242.95,4.114,4.114,0,0,1,.8,2.721v.526h-5.011A2.629,2.629,0,0,0-27.9-1.569,2.009,2.009,0,0,0-26.342-.9a2.2,2.2,0,0,0,1.135-.273,2.851,2.851,0,0,0,.813-.725l.772.6A3.106,3.106,0,0,1-26.411.137Zm-.157-6.631a1.687,1.687,0,0,0-1.285.557A2.708,2.708,0,0,0-28.5-4.375h3.705v-.1a2.409,2.409,0,0,0-.52-1.494A1.588,1.588,0,0,0-26.568-6.494ZM-17.223,0h-1.265V-10.5h1.265Zm6.59,0a2.657,2.657,0,0,1-.178-.779,2.822,2.822,0,0,1-2.105.916,2.611,2.611,0,0,1-1.794-.619,2,2,0,0,1-.7-1.569,2.091,2.091,0,0,1,.878-1.794,4.142,4.142,0,0,1,2.471-.639h1.23v-.581a1.42,1.42,0,0,0-.4-1.056A1.593,1.593,0,0,0-12.4-6.515a1.844,1.844,0,0,0-1.135.342,1.007,1.007,0,0,0-.458.827h-1.271a1.745,1.745,0,0,1,.393-1.07A2.683,2.683,0,0,1-13.8-7.232a3.588,3.588,0,0,1,1.48-.3,2.924,2.924,0,0,1,2,.639,2.306,2.306,0,0,1,.752,1.76v3.4a4.162,4.162,0,0,0,.26,1.62V0Zm-2.1-.964A2.223,2.223,0,0,0-11.6-1.271a1.861,1.861,0,0,0,.772-.8V-3.589h-.991q-2.324,0-2.324,1.36a1.151,1.151,0,0,0,.4.93A1.524,1.524,0,0,0-12.732-.964Zm9.8-6.433.034.82A2.732,2.732,0,0,1-.7-7.533,2.115,2.115,0,0,1,1.412-6.344a2.8,2.8,0,0,1,.96-.861,2.837,2.837,0,0,1,1.4-.328q2.434,0,2.475,2.577V0H4.98V-4.881a1.7,1.7,0,0,0-.362-1.186A1.6,1.6,0,0,0,3.4-6.46a1.677,1.677,0,0,0-1.169.42,1.706,1.706,0,0,0-.54,1.131V0H.42V-4.847A1.411,1.411,0,0,0-1.159-6.46a1.692,1.692,0,0,0-1.7,1.06V0H-4.125V-7.4ZM11.221.137A3.232,3.232,0,0,1,8.774-.851a3.666,3.666,0,0,1-.943-2.642v-.232a4.438,4.438,0,0,1,.42-1.965A3.28,3.28,0,0,1,9.427-7.044a2.956,2.956,0,0,1,1.637-.489,2.77,2.77,0,0,1,2.242.95,4.114,4.114,0,0,1,.8,2.721v.526H9.1a2.629,2.629,0,0,0,.639,1.767A2.009,2.009,0,0,0,11.29-.9a2.2,2.2,0,0,0,1.135-.273,2.851,2.851,0,0,0,.813-.725l.772.6A3.106,3.106,0,0,1,11.221.137Zm-.157-6.631a1.687,1.687,0,0,0-1.285.557,2.708,2.708,0,0,0-.643,1.562h3.705v-.1a2.409,2.409,0,0,0-.52-1.494A1.588,1.588,0,0,0,11.064-6.494Zm5.811-.9V.854q0,2.133-1.935,2.133a2.36,2.36,0,0,1-.772-.122V1.859a2.445,2.445,0,0,0,.574.055.859.859,0,0,0,.646-.229,1.133,1.133,0,0,0,.222-.8V-7.4ZM15.48-9.358a.758.758,0,0,1,.188-.516.691.691,0,0,1,.55-.215.717.717,0,0,1,.561.212.747.747,0,0,1,.191.52.722.722,0,0,1-.191.513.73.73,0,0,1-.561.205.707.707,0,0,1-.554-.205A.738.738,0,0,1,15.48-9.358Zm3.1,5.592A4.369,4.369,0,0,1,19-5.722a3.187,3.187,0,0,1,1.189-1.34,3.238,3.238,0,0,1,1.74-.472,3.119,3.119,0,0,1,2.444,1.046,4.024,4.024,0,0,1,.933,2.782v.089A4.407,4.407,0,0,1,24.9-1.678,3.14,3.14,0,0,1,23.714-.342a3.275,3.275,0,0,1-1.767.479A3.111,3.111,0,0,1,19.51-.909a4,4,0,0,1-.933-2.769Zm1.271.15a3.164,3.164,0,0,0,.571,1.976A1.827,1.827,0,0,0,21.947-.9a1.816,1.816,0,0,0,1.531-.755,3.46,3.46,0,0,0,.567-2.116,3.159,3.159,0,0,0-.578-1.972,1.836,1.836,0,0,0-1.535-.755,1.816,1.816,0,0,0-1.511.745A3.434,3.434,0,0,0,19.848-3.616ZM30.471-6.262a3.79,3.79,0,0,0-.622-.048,1.667,1.667,0,0,0-1.688,1.06V0H26.9V-7.4h1.23l.021.854a1.969,1.969,0,0,1,1.764-.991,1.292,1.292,0,0,1,.561.1ZM35.926,0a2.657,2.657,0,0,1-.178-.779,2.822,2.822,0,0,1-2.105.916,2.611,2.611,0,0,1-1.794-.619,2,2,0,0,1-.7-1.569,2.091,2.091,0,0,1,.878-1.794A4.142,4.142,0,0,1,34.5-4.484h1.23v-.581a1.42,1.42,0,0,0-.4-1.056,1.593,1.593,0,0,0-1.169-.393,1.844,1.844,0,0,0-1.135.342,1.007,1.007,0,0,0-.458.827H31.3a1.745,1.745,0,0,1,.393-1.07,2.683,2.683,0,0,1,1.066-.817,3.588,3.588,0,0,1,1.48-.3,2.924,2.924,0,0,1,2,.639,2.306,2.306,0,0,1,.752,1.76v3.4a4.162,4.162,0,0,0,.26,1.62V0Zm-2.1-.964a2.223,2.223,0,0,0,1.128-.308,1.861,1.861,0,0,0,.772-.8V-3.589h-.991q-2.324,0-2.324,1.36a1.151,1.151,0,0,0,.4.93A1.524,1.524,0,0,0,33.828-.964Zm11.033-.889L46.583-7.4h1.354L44.963,1.142q-.69,1.846-2.194,1.846l-.239-.021-.472-.089V1.853l.342.027a1.683,1.683,0,0,0,1-.26,1.88,1.88,0,0,0,.591-.95l.28-.752L41.634-7.4h1.381ZM55.6.137a3.232,3.232,0,0,1-2.447-.988,3.666,3.666,0,0,1-.943-2.642v-.232a4.438,4.438,0,0,1,.42-1.965,3.28,3.28,0,0,1,1.176-1.354,2.956,2.956,0,0,1,1.637-.489,2.77,2.77,0,0,1,2.242.95,4.114,4.114,0,0,1,.8,2.721v.526H53.474a2.629,2.629,0,0,0,.639,1.767A2.009,2.009,0,0,0,55.668-.9,2.2,2.2,0,0,0,56.8-1.169a2.851,2.851,0,0,0,.813-.725l.772.6A3.106,3.106,0,0,1,55.6.137Zm-.157-6.631a1.687,1.687,0,0,0-1.285.557,2.708,2.708,0,0,0-.643,1.562H57.22v-.1a2.409,2.409,0,0,0-.52-1.494A1.588,1.588,0,0,0,55.443-6.494ZM61.322,0H60.057V-10.5h1.265Zm8.456-.9a1.822,1.822,0,0,0,1.183-.41,1.443,1.443,0,0,0,.561-1.025h1.2a2.293,2.293,0,0,1-.437,1.21A2.882,2.882,0,0,1,71.2-.205a3.107,3.107,0,0,1-1.425.342,3.047,3.047,0,0,1-2.4-1.008,4.016,4.016,0,0,1-.892-2.758v-.212a4.453,4.453,0,0,1,.4-1.921,3.02,3.02,0,0,1,1.138-1.306,3.233,3.233,0,0,1,1.753-.465,2.966,2.966,0,0,1,2.068.745,2.663,2.663,0,0,1,.878,1.935h-1.2a1.743,1.743,0,0,0-.543-1.179,1.691,1.691,0,0,0-1.207-.461,1.77,1.77,0,0,0-1.494.694,3.259,3.259,0,0,0-.53,2.006v.239a3.194,3.194,0,0,0,.526,1.969A1.779,1.779,0,0,0,69.778-.9Zm8.928.9a2.657,2.657,0,0,1-.178-.779,2.822,2.822,0,0,1-2.105.916,2.611,2.611,0,0,1-1.794-.619,2,2,0,0,1-.7-1.569,2.091,2.091,0,0,1,.878-1.794,4.141,4.141,0,0,1,2.471-.639h1.23v-.581a1.42,1.42,0,0,0-.4-1.056,1.593,1.593,0,0,0-1.169-.393,1.844,1.844,0,0,0-1.135.342,1.007,1.007,0,0,0-.458.827H74.078a1.745,1.745,0,0,1,.393-1.07,2.683,2.683,0,0,1,1.066-.817,3.588,3.588,0,0,1,1.48-.3,2.924,2.924,0,0,1,2,.639,2.306,2.306,0,0,1,.752,1.76v3.4a4.162,4.162,0,0,0,.26,1.62V0Zm-2.1-.964a2.223,2.223,0,0,0,1.128-.308,1.861,1.861,0,0,0,.772-.8V-3.589h-.991q-2.324,0-2.324,1.36a1.151,1.151,0,0,0,.4.93A1.524,1.524,0,0,0,76.607-.964ZM82.944-7.4l.034.82a2.732,2.732,0,0,1,2.194-.957,2.115,2.115,0,0,1,2.112,1.189,2.8,2.8,0,0,1,.96-.861,2.837,2.837,0,0,1,1.4-.328q2.434,0,2.475,2.577V0H90.853V-4.881a1.7,1.7,0,0,0-.362-1.186,1.6,1.6,0,0,0-1.217-.393,1.677,1.677,0,0,0-1.169.42,1.706,1.706,0,0,0-.54,1.131V0H86.293V-4.847A1.411,1.411,0,0,0,84.714-6.46a1.692,1.692,0,0,0-1.7,1.06V0H81.748V-7.4Zm17.343,3.78a4.4,4.4,0,0,1-.779,2.724A2.49,2.49,0,0,1,97.416.137a2.578,2.578,0,0,1-2.167-.991L95.187,0H94.025V-10.5H95.29v3.917a2.564,2.564,0,0,1,2.112-.95,2.505,2.505,0,0,1,2.116,1.019,4.53,4.53,0,0,1,.769,2.789ZM99.022-3.76a3.417,3.417,0,0,0-.5-2,1.652,1.652,0,0,0-1.436-.7A1.857,1.857,0,0,0,95.29-5.3v3.2A1.909,1.909,0,0,0,97.1-.937a1.643,1.643,0,0,0,1.415-.7A3.634,3.634,0,0,0,99.022-3.76ZM103.253,0h-1.265V-7.4h1.265Zm-1.367-9.358a.755.755,0,0,1,.188-.52.706.706,0,0,1,.557-.212.717.717,0,0,1,.561.212.747.747,0,0,1,.191.52.722.722,0,0,1-.191.513.73.73,0,0,1-.561.205.718.718,0,0,1-.557-.205A.73.73,0,0,1,101.886-9.358Zm3.056,5.592a4.369,4.369,0,0,1,.427-1.955,3.187,3.187,0,0,1,1.189-1.34,3.238,3.238,0,0,1,1.74-.472,3.119,3.119,0,0,1,2.444,1.046,4.024,4.024,0,0,1,.933,2.782v.089a4.407,4.407,0,0,1-.414,1.938,3.14,3.14,0,0,1-1.183,1.336,3.275,3.275,0,0,1-1.767.479,3.111,3.111,0,0,1-2.437-1.046,4,4,0,0,1-.933-2.769Zm1.271.15a3.164,3.164,0,0,0,.571,1.976,1.827,1.827,0,0,0,1.528.745,1.816,1.816,0,0,0,1.531-.755,3.46,3.46,0,0,0,.567-2.116,3.159,3.159,0,0,0-.578-1.972,1.836,1.836,0,0,0-1.535-.755,1.816,1.816,0,0,0-1.511.745A3.434,3.434,0,0,0,106.213-3.616Z" transform="translate(-143 -2509.5)" fill="#f3f9ff"/>
  </g>
</svg>
