<svg xmlns="http://www.w3.org/2000/svg" xmlns:xlink="http://www.w3.org/1999/xlink" width="719.752" height="385.817" viewBox="0 0 719.752 385.817">
  <defs>
    <clipPath id="clip-path">
      <rect id="Rectángulo_55865" data-name="Rectángulo 55865" width="719.752" height="385.817" fill="none"/>
    </clipPath>
    <clipPath id="clip-path-3">
      <path id="Rectángulo_55809" data-name="Rectángulo 55809" d="M6.859,0H176.477a6.859,6.859,0,0,1,6.859,6.859V25.615a6.86,6.86,0,0,1-6.86,6.86H6.859A6.859,6.859,0,0,1,0,25.616V6.859A6.859,6.859,0,0,1,6.859,0Z" fill="none"/>
    </clipPath>
    <linearGradient id="linear-gradient" x1="-1.509" y1="2.434" x2="-1.504" y2="2.434" gradientUnits="objectBoundingBox">
      <stop offset="0" stop-color="#d5e4ff"/>
      <stop offset="1" stop-color="#edfffe"/>
    </linearGradient>
    <clipPath id="clip-path-4">
      <path id="Rectángulo_55811" data-name="Rectángulo 55811" d="M14.049,0H309.631a14.05,14.05,0,0,1,14.05,14.05V277.78a14.05,14.05,0,0,1-14.05,14.05H14.05A14.05,14.05,0,0,1,0,277.78V14.049A14.049,14.049,0,0,1,14.049,0Z" fill="none"/>
    </clipPath>
    <linearGradient id="linear-gradient-2" x1="-0.372" y1="1.006" x2="-0.37" y2="1.006" xlink:href="#linear-gradient"/>
    <clipPath id="clip-path-6">
      <rect id="Rectángulo_55849" data-name="Rectángulo 55849" width="101.085" height="136.761" fill="none"/>
    </clipPath>
    <clipPath id="clip-path-7">
      <path id="Trazado_247118" data-name="Trazado 247118" d="M267.941,134.774a38.846,38.846,0,1,1,32.107,0,38.964,38.964,0,0,1-32.107,0M242.983,99.389a41.122,41.122,0,0,0,24.061,37.356,41.123,41.123,0,0,0,33.9,0,41.016,41.016,0,1,0-57.96-37.356" transform="translate(-242.983 -58.377)" fill="none"/>
    </clipPath>
    <linearGradient id="linear-gradient-3" x1="-2.746" y1="4.044" x2="-2.735" y2="4.044" gradientUnits="objectBoundingBox">
      <stop offset="0" stop-color="#d3dae0"/>
      <stop offset="1" stop-color="#fff"/>
    </linearGradient>
    <clipPath id="clip-path-9">
      <rect id="Rectángulo_55862" data-name="Rectángulo 55862" width="127.248" height="127.249" fill="none"/>
    </clipPath>
    <clipPath id="clip-path-10">
      <rect id="Rectángulo_55863" data-name="Rectángulo 55863" width="102.152" height="89.703" fill="none"/>
    </clipPath>
  </defs>
  <g id="Grupo_599865" data-name="Grupo 599865" transform="translate(562.702 881.408)">
    <g id="Grupo_599853" data-name="Grupo 599853" transform="translate(-562.702 -881.408)">
      <g id="Grupo_599852" data-name="Grupo 599852" clip-path="url(#clip-path)">
        <g id="Grupo_599832" data-name="Grupo 599832">
          <g id="Grupo_599831" data-name="Grupo 599831" clip-path="url(#clip-path)">
            <path id="Trazado_247100" data-name="Trazado 247100" d="M98.081,384.389s-85.458-61.37-46.515-141.462S161,285.08,210.129,172.034,270.268-27.552,401.066,8.146,478.248,137.527,546.7,146.936s122.542,43.337,91.172,116.7S684.39,385.175,684.39,385.175Z" transform="translate(-3.018 0)" fill="#e6d2d2"/>
          </g>
        </g>
        <g id="Grupo_599834" data-name="Grupo 599834" transform="translate(276.588 306.757)">
          <g id="Grupo_599833" data-name="Grupo 599833" clip-path="url(#clip-path-3)">
            <rect id="Rectángulo_55808" data-name="Rectángulo 55808" width="183.336" height="32.475" fill="url(#linear-gradient)"/>
          </g>
        </g>
        <g id="Grupo_599836" data-name="Grupo 599836" transform="translate(206.415 32.94)">
          <g id="Grupo_599835" data-name="Grupo 599835" clip-path="url(#clip-path-4)">
            <rect id="Rectángulo_55810" data-name="Rectángulo 55810" width="422.104" height="408.655" transform="translate(-119.9 62.758) rotate(-27.628)" fill="url(#linear-gradient-2)"/>
          </g>
        </g>
        <g id="Grupo_599841" data-name="Grupo 599841">
          <g id="Grupo_599840" data-name="Grupo 599840" clip-path="url(#clip-path)">
            <path id="Trazado_247101" data-name="Trazado 247101" d="M293.694,239.435a27.191,27.191,0,1,0-51.131-18.523c-.209.575-.4,1.154-.565,1.733a27.192,27.192,0,0,0,51.7,16.79m-32.51,9.906a20.364,20.364,0,0,1-12.647-24.812c.126-.434.267-.869.423-1.3a20.387,20.387,0,1,1,12.224,26.112" transform="translate(-17.564 -14.797)" fill="#fff"/>
            <path id="Trazado_247102" data-name="Trazado 247102" d="M257.976,213.089l-3.713-5.7a27.23,27.23,0,0,1,31.538,1.32l-4.179,5.372a20.418,20.418,0,0,0-23.646-.988" transform="translate(-18.536 -14.797)" fill="#bf5856"/>
            <path id="Trazado_247103" data-name="Trazado 247103" d="M248.622,224.876l-6.54-1.884c.167-.579.356-1.159.565-1.733a27.07,27.07,0,0,1,10.727-13.528l3.714,5.7a20.3,20.3,0,0,0-8.044,10.142q-.234.647-.423,1.3" transform="translate(-17.648 -15.143)" fill="#bf5856"/>
            <path id="Trazado_247104" data-name="Trazado 247104" d="M240.933,232.095a27.063,27.063,0,0,1,1.065-7.9l6.541,1.884a20.275,20.275,0,0,0-.8,5.924Z" transform="translate(-17.564 -16.344)" fill="#bf5856"/>
            <path id="Trazado_247105" data-name="Trazado 247105" d="M375.88,235.207a27.192,27.192,0,1,0-53.444-10.066c-.113.6-.207,1.2-.279,1.8a27.193,27.193,0,0,0,53.723,8.264m-30.5,15a20.364,20.364,0,0,1-16.469-22.458c.054-.45.123-.9.208-1.352a20.387,20.387,0,1,1,16.261,23.81" transform="translate(-23.471 -14.797)" fill="#fff"/>
            <path id="Trazado_247106" data-name="Trazado 247106" d="M336.133,215.1l-4.581-5.033a27.231,27.231,0,0,1,31.34-3.764l-3.262,5.974a20.416,20.416,0,0,0-23.5,2.823" transform="translate(-24.17 -14.797)" fill="#8f4240"/>
            <path id="Trazado_247107" data-name="Trazado 247107" d="M328.932,228.308l-6.759-.808c.073-.6.166-1.2.279-1.8a27.078,27.078,0,0,1,8.415-15.077l4.582,5.033a20.293,20.293,0,0,0-6.309,11.3c-.085.452-.154.9-.209,1.352" transform="translate(-23.486 -15.354)" fill="#8f4240"/>
            <path id="Trazado_247108" data-name="Trazado 247108" d="M322.376,236.8a27.015,27.015,0,0,1-.218-7.97l6.758.808a20.294,20.294,0,0,0,.162,5.977Z" transform="translate(-23.471 -16.681)" fill="#8f4240"/>
            <path id="Trazado_247109" data-name="Trazado 247109" d="M442.96,206.168a27.191,27.191,0,1,0-25.543,48.011q.809.431,1.636.8a27.193,27.193,0,0,0,23.907-48.815m5.227,33.581a20.365,20.365,0,0,1-26.347,9.023q-.619-.278-1.227-.6a20.387,20.387,0,1,1,27.575-8.422" transform="translate(-29.378 -14.797)" fill="#fff"/>
            <path id="Trazado_247110" data-name="Trazado 247110" d="M411.706,239.38l-6.17,2.873a27.227,27.227,0,0,1,5.752-31.037l4.729,4.894a20.42,20.42,0,0,0-4.311,23.27" transform="translate(-29.378 -15.397)" fill="#e9bcba"/>
            <path id="Trazado_247111" data-name="Trazado 247111" d="M422.04,251.589l-2.787,6.209q-.826-.37-1.636-.8a27.068,27.068,0,0,1-11.881-12.528l6.17-2.872a20.3,20.3,0,0,0,8.907,9.392q.608.323,1.227.6" transform="translate(-29.578 -17.612)" fill="#e9bcba"/>
            <path id="Trazado_247112" data-name="Trazado 247112" d="M427.989,260.753a27.017,27.017,0,0,1-7.673-2.169l2.786-6.209A20.3,20.3,0,0,0,428.855,254Z" transform="translate(-30.641 -18.398)" fill="#e9bcba"/>
            <rect id="Rectángulo_55812" data-name="Rectángulo 55812" width="54.399" height="4.195" transform="translate(223.365 255.496)" fill="#c4c4c4"/>
            <rect id="Rectángulo_55813" data-name="Rectángulo 55813" width="40.709" height="4.195" transform="translate(223.365 264.412)" fill="#c4c4c4"/>
            <rect id="Rectángulo_55814" data-name="Rectángulo 55814" width="29.996" height="4.195" transform="translate(298.488 255.496)" fill="#c4c4c4"/>
            <rect id="Rectángulo_55815" data-name="Rectángulo 55815" width="44.525" height="4.195" transform="translate(298.489 264.412)" fill="#c4c4c4"/>
            <rect id="Rectángulo_55816" data-name="Rectángulo 55816" width="33.338" height="4.195" transform="translate(378.548 255.496)" fill="#c4c4c4"/>
            <rect id="Rectángulo_55817" data-name="Rectángulo 55817" width="38.615" height="4.195" transform="translate(378.548 264.412)" fill="#c4c4c4"/>
            <rect id="Rectángulo_55818" data-name="Rectángulo 55818" width="39.558" height="3.969" transform="translate(462.934 77.238)" fill="#b8d6ff"/>
            <rect id="Rectángulo_55819" data-name="Rectángulo 55819" width="45.467" height="3.969" transform="translate(462.935 89.524)" fill="#b8d6ff"/>
            <rect id="Rectángulo_55820" data-name="Rectángulo 55820" width="23.522" height="3.969" transform="translate(462.867 101.742)" fill="#b8d6ff"/>
            <rect id="Rectángulo_55821" data-name="Rectángulo 55821" width="36.242" height="3.97" transform="translate(462.867 113.96)" fill="#b8d6ff"/>
            <rect id="Rectángulo_55822" data-name="Rectángulo 55822" width="173.095" height="4.059" transform="translate(223.365 284.454)" fill="#fff"/>
            <rect id="Rectángulo_55823" data-name="Rectángulo 55823" width="187.032" height="4.06" transform="translate(223.365 293.926)" fill="#fff"/>
            <rect id="Rectángulo_55824" data-name="Rectángulo 55824" width="121.358" height="4.06" transform="translate(223.365 303.398)" fill="#fff"/>
            <rect id="Rectángulo_55825" data-name="Rectángulo 55825" width="90.129" height="4.059" transform="translate(223.365 284.454)" fill="#ef6f6c"/>
            <rect id="Rectángulo_55826" data-name="Rectángulo 55826" width="97.386" height="4.06" transform="translate(223.365 293.926)" fill="#ef6f6c"/>
            <rect id="Rectángulo_55827" data-name="Rectángulo 55827" width="63.19" height="4.06" transform="translate(223.365 303.398)" fill="#ef6f6c"/>
            <rect id="Rectángulo_55828" data-name="Rectángulo 55828" width="35.258" height="4.343" transform="translate(248.652 151.875)" fill="#d6d6d6"/>
            <rect id="Rectángulo_55829" data-name="Rectángulo 55829" width="52.366" height="4.343" transform="translate(240.098 144.139)" fill="#d6d6d6"/>
            <path id="Trazado_247113" data-name="Trazado 247113" d="M295.693,90.441a9.1,9.1,0,1,1-9.1-9.1,9.1,9.1,0,0,1,9.1,9.1" transform="translate(-20.229 -5.929)" fill="#ef6f6c"/>
            <path id="Trazado_247114" data-name="Trazado 247114" d="M302.424,121.871v17.314a40.045,40.045,0,0,1-33,0V121.871a16.5,16.5,0,0,1,33,0" transform="translate(-19.641 -7.681)" fill="#ef6f6c"/>
            <rect id="Rectángulo_55830" data-name="Rectángulo 55830" width="84.799" height="5.466" transform="translate(323.252 71.049)" fill="#fff"/>
            <rect id="Rectángulo_55831" data-name="Rectángulo 55831" width="32.955" height="5.466" transform="translate(417.163 71.049)" fill="#fff"/>
            <rect id="Rectángulo_55832" data-name="Rectángulo 55832" width="39.82" height="5.466" transform="translate(323.253 58.599)" fill="#fff"/>
            <rect id="Rectángulo_55833" data-name="Rectángulo 55833" width="0.712" height="64.781" transform="translate(323.779 92.351)" fill="#bde1ff"/>
            <rect id="Rectángulo_55834" data-name="Rectángulo 55834" width="0.713" height="64.781" transform="translate(341.827 92.351)" fill="#bde1ff"/>
            <rect id="Rectángulo_55835" data-name="Rectángulo 55835" width="0.712" height="64.781" transform="translate(359.875 92.351)" fill="#bde1ff"/>
            <rect id="Rectángulo_55836" data-name="Rectángulo 55836" width="0.712" height="64.781" transform="translate(377.924 92.351)" fill="#bde1ff"/>
            <rect id="Rectángulo_55837" data-name="Rectángulo 55837" width="0.713" height="64.781" transform="translate(395.971 92.351)" fill="#bde1ff"/>
            <rect id="Rectángulo_55838" data-name="Rectángulo 55838" width="0.712" height="64.781" transform="translate(414.02 92.351)" fill="#bde1ff"/>
            <rect id="Rectángulo_55839" data-name="Rectángulo 55839" width="0.712" height="64.781" transform="translate(432.069 92.351)" fill="#bde1ff"/>
            <rect id="Rectángulo_55840" data-name="Rectángulo 55840" width="0.711" height="64.781" transform="translate(450.119 92.351)" fill="#bde1ff"/>
            <path id="Trazado_247115" data-name="Trazado 247115" d="M349.622,143.493,361.914,131.2l5.983,5.983,13.079-13.079,10.362,10.362L404.6,121.206l9.087,9.086,23.136-23.136L454.16,124.5l10.5-10.5,11.3,11.3v39.647H349.622Z" transform="translate(-25.487 -7.812)" fill="#ef6f6c"/>
            <path id="Trazado_247116" data-name="Trazado 247116" d="M349.622,151.77l9.826-9.826,6.209,6.211,7.189-7.19,13.546,13.545,16.934-16.935,6.074,6.074,17.472-17.473,15.957,15.957,33.1-33.1v56.05H349.622Z" transform="translate(-25.487 -7.948)" fill="#8f4240"/>
            <rect id="Rectángulo_55841" data-name="Rectángulo 55841" width="7.563" height="1.602" transform="translate(323.779 86.893)" fill="#bde1ff"/>
            <rect id="Rectángulo_55842" data-name="Rectángulo 55842" width="5.177" height="1.602" transform="translate(341.828 86.893)" fill="#bde1ff"/>
            <rect id="Rectángulo_55843" data-name="Rectángulo 55843" width="6.394" height="1.602" transform="translate(359.875 86.893)" fill="#bde1ff"/>
            <rect id="Rectángulo_55844" data-name="Rectángulo 55844" width="4.763" height="1.602" transform="translate(377.924 86.893)" fill="#bde1ff"/>
            <rect id="Rectángulo_55845" data-name="Rectángulo 55845" width="3.978" height="1.602" transform="translate(395.972 86.893)" fill="#bde1ff"/>
            <rect id="Rectángulo_55846" data-name="Rectángulo 55846" width="7.731" height="1.602" transform="translate(414.021 86.893)" fill="#bde1ff"/>
            <rect id="Rectángulo_55847" data-name="Rectángulo 55847" width="5.387" height="1.602" transform="translate(432.07 86.893)" fill="#bde1ff"/>
            <rect id="Rectángulo_55848" data-name="Rectángulo 55848" width="3.401" height="1.602" transform="translate(450.118 86.893)" fill="#bde1ff"/>
            <g id="Grupo_599839" data-name="Grupo 599839" transform="translate(460.261 178.426)" opacity="0.73">
              <g id="Grupo_599838" data-name="Grupo 599838">
                <g id="Grupo_599837" data-name="Grupo 599837" clip-path="url(#clip-path-6)">
                  <path id="Trazado_247117" data-name="Trazado 247117" d="M587.962,329.216H506.026a9.574,9.574,0,0,1-9.574-9.573V202.03a9.575,9.575,0,0,1,9.574-9.575h81.936a9.574,9.574,0,0,1,9.574,9.575V319.643a9.573,9.573,0,0,1-9.574,9.573" transform="translate(-496.452 -192.456)" fill="#fff"/>
                </g>
              </g>
            </g>
            <rect id="Rectángulo_55850" data-name="Rectángulo 55850" width="2.978" height="92.017" transform="translate(484.145 200.799)" fill="#d6d6d6"/>
            <rect id="Rectángulo_55851" data-name="Rectángulo 55851" width="2.977" height="92.017" transform="translate(500.926 200.799)" fill="#d6d6d6"/>
            <rect id="Rectángulo_55852" data-name="Rectángulo 55852" width="2.977" height="92.017" transform="translate(517.705 200.799)" fill="#d6d6d6"/>
            <rect id="Rectángulo_55853" data-name="Rectángulo 55853" width="2.977" height="92.017" transform="translate(534.484 200.799)" fill="#d6d6d6"/>
            <rect id="Rectángulo_55854" data-name="Rectángulo 55854" width="5.592" height="37.347" transform="translate(482.838 246.807)" fill="#ef6f6c"/>
            <rect id="Rectángulo_55855" data-name="Rectángulo 55855" width="5.593" height="37.347" transform="translate(499.617 215.414)" fill="#ef6f6c"/>
            <rect id="Rectángulo_55856" data-name="Rectángulo 55856" width="5.593" height="37.347" transform="translate(516.397 236.387)" fill="#ef6f6c"/>
            <rect id="Rectángulo_55857" data-name="Rectángulo 55857" width="5.593" height="37.348" transform="translate(533.176 232.057)" fill="#ef6f6c"/>
          </g>
        </g>
        <g id="Grupo_599843" data-name="Grupo 599843" transform="translate(225.27 54.121)">
          <g id="Grupo_599842" data-name="Grupo 599842" clip-path="url(#clip-path-7)">
            <rect id="Rectángulo_55859" data-name="Rectángulo 55859" width="82.023" height="82.023" transform="translate(0 0)" fill="url(#linear-gradient-3)"/>
          </g>
        </g>
        <g id="Grupo_599851" data-name="Grupo 599851">
          <g id="Grupo_599850" data-name="Grupo 599850" clip-path="url(#clip-path)">
            <path id="Trazado_247119" data-name="Trazado 247119" d="M167.066,252.992s7.6-17.209-1.216-15.785a32.107,32.107,0,0,0-6.079,7.533c-2.333,3.827-7.181,13.955-7,17.382s2.616,5.98,5.247,11.48c0,0,5.469,10.212,5.7,11.442l5.782-3s-4.9-9.762-8.353-18.346Z" transform="translate(-11.136 -17.286)" fill="#6f5be0"/>
            <rect id="Rectángulo_55860" data-name="Rectángulo 55860" width="118.068" height="20.073" transform="translate(108.06 267.519) rotate(-9.663)" fill="#8f4240"/>
            <rect id="Rectángulo_55861" data-name="Rectángulo 55861" width="6.307" height="15.236" transform="matrix(0.986, -0.168, 0.168, 0.986, 224.857, 250.085)" fill="#2d3038"/>
            <path id="Trazado_247120" data-name="Trazado 247120" d="M215.482,410.18h1.433s-.477-5.414.849-5.466,4.617,4.4,6.581,5.1,12.046,1.272,12.1-.585-3.873-2.6-5.094-3.131-7.165-6.316-8.226-7.005-2.873-5.488-2.873-5.488l-5.628-.249s-.319,4.483-.659,6.857a20.9,20.9,0,0,0-.233,2.224c-.053,2.016,1.75,7.748,1.75,7.748" transform="translate(-15.581 -28.675)" fill="#eea886"/>
            <path id="Trazado_247121" data-name="Trazado 247121" d="M176.388,409.056h1.2v-5.04c.994.084,4.339,3.249,5.373,4.165s2.453.874,6.813,1.151,4.769-2.332,4.079-3.22-2.919-1.278-4.079-1.831-5.739-5.718-6.96-6.94-1.964-4.718-1.964-4.718l-5.1.444a31.14,31.14,0,0,1-.548,5.884h0l0,.02q-.074.344-.163.672c-.757,2.79,1.353,9.411,1.353,9.411" transform="translate(-12.748 -28.622)" fill="#eea886"/>
            <path id="Trazado_247122" data-name="Trazado 247122" d="M195.164,286.872a50.888,50.888,0,0,1,2.1,5.7c.171,1.151,4.678,12.046,5.982,19.391.781,4.4,2.934,18.164,3.109,19.914.3,2.995,1.71,9.608,1.927,12.667.121,1.71,8.545,27.963,10.584,41.669a25.266,25.266,0,0,1-8.484-.244,143.592,143.592,0,0,1-11.5-34.26,138.143,138.143,0,0,0-6.576-23.537c-1.916-4.984-12.767-19.1-13.9-20.686s-8.23-10.35-1.509-19.845,18.274-.772,18.274-.772" transform="translate(-12.687 -20.646)" fill="#1d3b54"/>
            <path id="Trazado_247123" data-name="Trazado 247123" d="M170.353,327.027c.615,4.088-.032,9.457-1.316,24.4s2.247,33.043,2.247,33.043c4.436,1.519,9.545,0,9.545,0-.118-1.051,0-36.429,0-39.582s.9-6.73,1.138-10.349c.159-2.466,1.307-7.012,2.6-11.654.388-1.391.786-2.788,1.176-4.142h0c.219-.759.432-1.506.641-2.227,1.818-6.305,4.263-30.65,4.263-30.65s-13.55-10.916-20.148-.64-3.211,17.747-2.978,19.031,2.219,18.682,2.834,22.768" transform="translate(-12.134 -20.472)" fill="#1d3b54"/>
            <path id="Trazado_247124" data-name="Trazado 247124" d="M176.72,306.976c.1.234,6.857,15.22,8.594,17.819.387-1.391.786-2.788,1.175-4.142h0s-9.543-13.347-9.769-13.676" transform="translate(-12.883 -22.378)" fill="#122536"/>
            <path id="Trazado_247125" data-name="Trazado 247125" d="M176.388,409.478h1.2v-5.04c.994.084,4.339,3.249,5.373,4.165s2.453.874,6.813,1.151,4.769-2.332,4.079-3.22-2.919-1.278-4.079-1.831c-4.663.248-10.353-6.306-13.084-6.293-1.452.007-1.438.811-1.482.963h0l0,.02q-.074.344-.163.672c-.757,2.79,1.353,9.411,1.353,9.411" transform="translate(-12.748 -29.044)" fill="#172f42"/>
            <path id="Trazado_247126" data-name="Trazado 247126" d="M215.482,410.706h1.433s-.477-5.414.849-5.466,4.617,4.4,6.581,5.1,12.046,1.272,12.1-.585-3.873-2.6-5.094-3.131c-4.159-.01-10.923-4.586-13.02-5.514a7.572,7.572,0,0,0-4.367-.371,20.9,20.9,0,0,0-.233,2.224c-.053,2.016,1.75,7.748,1.75,7.748" transform="translate(-15.581 -29.201)" fill="#172f42"/>
            <path id="Trazado_247127" data-name="Trazado 247127" d="M183.17,225.2s-2.162,5.722-.48,10.142c0,0-7.929-.515-8.229-1.441s.319-9.5-.771-12.03,9.481,3.328,9.481,3.328" transform="translate(-12.656 -16.128)" fill="#eea886"/>
            <path id="Trazado_247128" data-name="Trazado 247128" d="M183.21,234.312s4.685,1.666,6.8,2.13S196.559,239,196.2,246.9a164.871,164.871,0,0,1-2.162,18.141,71.573,71.573,0,0,0,.6,16.229,59.373,59.373,0,0,1-24.445,0s2.342-7.157,2.283-9.009-7.808-17.093-8.169-19.5-1.922-13.02,1.622-15.365,6.427-2.036,7.929-3.085,7.163-.753,9.354,0" transform="translate(-11.93 -17.032)" fill="#6f5be0"/>
            <path id="Trazado_247129" data-name="Trazado 247129" d="M165.1,294.259a65.679,65.679,0,0,0,34.459.02,47.594,47.594,0,0,1-3.16-8.482v0a50.872,50.872,0,0,1-1.181-5.692,51.56,51.56,0,0,1,.475-18.46c-2.216-18.229-29.8-23.67-32.007-17.891s4.281,30.611,4.61,32.741-3.195,17.767-3.195,17.767" transform="translate(-11.899 -17.608)" fill="#6f5be0"/>
            <path id="Trazado_247130" data-name="Trazado 247130" d="M175.893,200.708c3.187-1.093,11.8-2.257,14.009,10.967s-2.6,13.451-7.538,13.075-12.663-9.3-13.254-12.015-2.311-8.907,6.783-12.026" transform="translate(-12.29 -14.586)" fill="#eea886"/>
            <path id="Trazado_247131" data-name="Trazado 247131" d="M188.06,205.7s-2.631,5.629-6.084,7.592c0,0-2.163,5.982-6.845,8.4,0,0-12.428-8.233-5.216-18.014s17.33-1.992,18.144,2.021" transform="translate(-12.223 -14.504)" fill="#e8734d"/>
            <path id="Trazado_247132" data-name="Trazado 247132" d="M183.186,212.242c-.28-.688-2.143-1.807-2.978.081s2.164,5.212,2.986,5.033,1.052-2.5-.008-5.114" transform="translate(-13.127 -15.402)" fill="#eea886"/>
            <path id="Trazado_247133" data-name="Trazado 247133" d="M169.725,205.584c-.272-.425-8.5-4.233-10.213,3.727s6.628,17.216,8.089,21.2-.66,13.309-.66,13.309,5.018-4.744,6.535-9.709c1.667-5.452,2.227-19.2-3.751-28.524" transform="translate(-11.612 -14.894)" fill="#e8734d"/>
            <path id="Trazado_247134" data-name="Trazado 247134" d="M170.1,205.39a8.3,8.3,0,0,1,2.843,5.137s.473-2.452-.543-3.951a2.272,2.272,0,0,0-2.3-1.186" transform="translate(-12.4 -14.971)" fill="#e54242"/>
            <path id="Trazado_247135" data-name="Trazado 247135" d="M198.457,287.17a50.879,50.879,0,0,1-1.181-5.692h0s-1.265-2.69-1.692-3.975-3.6-17.087-3.6-17.087-3.361,14.841,6.477,26.756" transform="translate(-13.955 -18.984)" fill="#1d3b54"/>
            <path id="Trazado_247136" data-name="Trazado 247136" d="M213.945,290.264s2.474,2.456,3.275,2.7,2.343-1.115,8.024-1.537c.5-.037,1.376.412,1.169,1.071s-2.678,2.452-3.737,2.727-6.052,2.257-8.486,1.283-4.089-4.07-4.089-4.07Z" transform="translate(-15.316 -21.16)" fill="#eea886"/>
            <path id="Trazado_247137" data-name="Trazado 247137" d="M193.219,237.129s6.571,2.6,6.96,11.736.746,13.9,1.1,15.311,1.038,7.075,2.692,10.484c1.6,3.308,12.133,13.775,12.133,13.775l-5.1,4.792S196.334,278.5,195.442,275.8s-4.561-21.433-4.853-24.593c-.235-2.548-3.594-13.894,2.631-14.083" transform="translate(-13.812 -17.287)" fill="#6f5be0"/>
            <g id="Grupo_599846" data-name="Grupo 599846" transform="translate(238.678 177.209)" opacity="0.1">
              <g id="Grupo_599845" data-name="Grupo 599845">
                <g id="Grupo_599844" data-name="Grupo 599844" clip-path="url(#clip-path-9)">
                  <path id="Trazado_247138" data-name="Trazado 247138" d="M384.694,254.767a63.624,63.624,0,1,1-63.624-63.624,63.625,63.625,0,0,1,63.624,63.624" transform="translate(-257.446 -191.143)" fill="#b8b8b8"/>
                </g>
              </g>
            </g>
            <g id="Grupo_599849" data-name="Grupo 599849" transform="translate(261.211 179.774)" opacity="0.3">
              <g id="Grupo_599848" data-name="Grupo 599848">
                <g id="Grupo_599847" data-name="Grupo 599847" clip-path="url(#clip-path-10)">
                  <path id="Trazado_247139" data-name="Trazado 247139" d="M281.75,209.805s79.239-9.821,95.029,73.807h0a61.066,61.066,0,0,0-95.03-73.807" transform="translate(-281.75 -193.91)" fill="#869ac2"/>
                </g>
              </g>
            </g>
            <path id="Trazado_247140" data-name="Trazado 247140" d="M320.332,180.975a73.054,73.054,0,1,0,73.053,73.051,73.054,73.054,0,0,0-73.053-73.051m0,134.211a61.159,61.159,0,1,1,61.158-61.16,61.157,61.157,0,0,1-61.158,61.16" transform="translate(-18.026 -13.193)" fill="#3f444f"/>
            <path id="Trazado_247141" data-name="Trazado 247141" d="M622.3,396.729s.593,4,.668,4.6,6.6-.354,6.6-.354l.528-4.766s-6.978-.048-7.794.516" transform="translate(-45.365 -28.884)" fill="#5c544d"/>
            <path id="Trazado_247142" data-name="Trazado 247142" d="M622.054,401.166a17.426,17.426,0,0,1-4.067,3.464c-2,1.051-5.142,1.469-6.324,2.557-.853.785-3.109,4.168,5.2,4.1s12.307.478,13.2-.82-1.288-9.571-1.288-9.571-1.966.688-6.715.271" transform="translate(-44.522 -29.225)" fill="#1c1e26"/>
            <path id="Trazado_247143" data-name="Trazado 247143" d="M571.874,396.729s.593,4,.667,4.6,6.6-.354,6.6-.354l.528-4.766s-6.978-.048-7.794.516" transform="translate(-41.689 -28.884)" fill="#5c544d"/>
            <path id="Trazado_247144" data-name="Trazado 247144" d="M571.326,401.166a17.414,17.414,0,0,1-4.066,3.464c-2,1.051-9.357,1.916-10.539,3-.854.786-2.272,3.949,9.412,3.653,8.3-.21,12.307.478,13.2-.82s-1.287-9.571-1.287-9.571-1.853.734-6.716.271" transform="translate(-40.544 -29.225)" fill="#1c1e26"/>
            <path id="Trazado_247145" data-name="Trazado 247145" d="M618.378,285.287s3.473,9.935,3.016,18.495,1.795,17.93,2.716,26.874c1.026,9.969,5.228,33.572,5.38,38.906s-.652,22.364-.652,22.364l-8.411.187s-7.064-41.264-8.894-45.474-10.9-34.228-11.207-37.6,18.051-23.754,18.051-23.754" transform="translate(-43.763 -20.797)" fill="#20284d"/>
            <path id="Trazado_247146" data-name="Trazado 247146" d="M580.858,286.965s-4.62,23.464-5.23,28.7-1.016,25.358-1.321,28.633-2.033,42.853-3.659,47.72H581.4s8.254-28.773,8.254-42.386,6.377-29.6,10.493-38.579,13.539-9.194,16.069-25.859c0,0-31.932-3.517-35.358,1.768" transform="translate(-41.6 -20.707)" fill="#20284d"/>
            <path id="Trazado_247147" data-name="Trazado 247147" d="M604.044,200.638s-8.476-3.049-12.383,3.165-3.532,18.654.74,20.184,10.691.73,12.878-3.159,4.162-9.51,4.067-13.266-3.077-5.84-5.3-6.924" transform="translate(-42.934 -14.572)" fill="#eea886"/>
            <path id="Trazado_247148" data-name="Trazado 247148" d="M594.189,224.879a6.619,6.619,0,0,1-.224,3.194c-.566,1.054,10.662,1.081,10.662,1.081a69.005,69.005,0,0,1,2.638-10.577c1.728-4.844-13.075,6.3-13.075,6.3" transform="translate(-43.298 -15.845)" fill="#eea886"/>
            <path id="Trazado_247149" data-name="Trazado 247149" d="M606.978,217.234s-.775,1.231-3.937.754-7.022-4.531-8.342-4.976-1.334-1.192-1.334-1.192l-.826,1.164-1.4.085s1.279-3.625-.651-5.1,2-11.734,12.147-8.32c0,0,7.79,2.068,7.507,6.336s-1.418,9.129-3.161,11.254" transform="translate(-43.011 -14.504)" fill="#fccca2"/>
            <path id="Trazado_247150" data-name="Trazado 247150" d="M593.248,228.545s.035-2.015.984-2.207,10.461-1.074,11.625-.633v2.346s-2.241,1.329-12.609.5" transform="translate(-43.247 -16.445)" fill="#e2d2ca"/>
            <path id="Trazado_247151" data-name="Trazado 247151" d="M593.835,211.036c.176-.716,2.067-2.762,2.791-.571s-1.093,5.135-2.107,4.884-1.133-2.5-.683-4.313" transform="translate(-43.272 -15.271)" fill="#eea886"/>
            <path id="Trazado_247152" data-name="Trazado 247152" d="M590.473,228.739s-5.216,1.805-11.257,4.279c0,0-6.95,2.5-7.7,9.89-.4,3.924-4.737,24.748-5.55,26.509s-10.432,30.068-10.772,30.655,7.851,3.861,8.393,3.6,9.313-25.816,10.194-27.708c0,0,5.049-15.324,5.184-17.608,0,0,.146,6.511.416,8.337s-4.49,37.31-4.355,38.288,21.638,2.223,30.243,1.309a109.08,109.08,0,0,0,15.55-2.82s-6.772-28-6.565-31.106c.454-6.764,2.8-19.505,2.8-19.505L624.07,265.6l-8.982,22.254,2.058,6.764s16.689-24.291,17.231-26.51-.818-5.045-1.7-6.873-6.666-15.736-8.021-17.693-3.645-9.8-9.18-11.98a89.105,89.105,0,0,0-12.4-3.319Z" transform="translate(-40.472 -16.639)" fill="#313d75"/>
            <path id="Trazado_247153" data-name="Trazado 247153" d="M577.777,316.716l-39.317-9.711,7.034-26.418,39.317,9.71Z" transform="translate(-39.253 -20.455)" fill="#c4c4c4"/>
            <path id="Trazado_247154" data-name="Trazado 247154" d="M551.374,311.952s-1.124,1.749-1.533,2.247,1.009.812,1.616.307-.082-2.554-.082-2.554" transform="translate(-40.078 -22.741)" fill="#c98462"/>
            <path id="Trazado_247155" data-name="Trazado 247155" d="M559.681,317.424a4.2,4.2,0,0,0,.807-1.1s.2-.8.374-1.356a4.141,4.141,0,0,1,.155-.426,7.5,7.5,0,0,0,.9-2.3c.174-1.079.664-5.924.664-5.924l-3.046-.738-2.448-.5s-5.285,5.079-5.568,6.066a2.664,2.664,0,0,0-.064.286,9.428,9.428,0,0,0,.076,2.021c-.009.168.017,1.853.424,2.168a1.757,1.757,0,0,0,1.615.375,4.165,4.165,0,0,0,2.1.762,2.609,2.609,0,0,0,2.2.394s1.139.679,1.807.268" transform="translate(-40.197 -22.24)" fill="#de9d7d"/>
            <path id="Trazado_247156" data-name="Trazado 247156" d="M571.846,285.1s-6.978,20.354-8.26,22.491c0,0-5.119-1.036-8.393-3.6l7.662-21.968Z" transform="translate(-40.473 -20.559)" fill="#313d75"/>
            <path id="Trazado_247157" data-name="Trazado 247157" d="M719.11,416.053H.641a.641.641,0,0,1,0-1.282H719.11a.641.641,0,0,1,0,1.282" transform="translate(0 -30.236)" fill="#8f4240"/>
          </g>
        </g>
      </g>
    </g>
  </g>
</svg>
