<svg id="Grupo_592459" data-name="Grupo 592459" xmlns="http://www.w3.org/2000/svg" xmlns:xlink="http://www.w3.org/1999/xlink" width="248.966" height="173.458" viewBox="0 0 248.966 173.458">
  <defs>
    <clipPath id="clip-path">
      <rect id="Rectángulo_53767" data-name="Rectángulo 53767" width="248.966" height="173.459" fill="none"/>
    </clipPath>
  </defs>
  <g id="Grupo_592458" data-name="Grupo 592458" clip-path="url(#clip-path)">
    <path id="Trazado_245215" data-name="Trazado 245215" d="M349.7,24.972h-4.367a13.16,13.16,0,0,0-1.182-2.359l3.091-2.559a1.439,1.439,0,0,0,0-2.3l-4.766-3.944a2.256,2.256,0,0,0-2.776,0l-3.091,2.559a19.627,19.627,0,0,0-2.852-.981V11.772a1.819,1.819,0,0,0-1.965-1.627h-6.737a1.818,1.818,0,0,0-1.965,1.627v3.616a19.581,19.581,0,0,0-2.852.981l-3.091-2.559a2.256,2.256,0,0,0-2.776,0L309.6,17.754a1.439,1.439,0,0,0,0,2.3l3.091,2.559a13.12,13.12,0,0,0-1.182,2.359h-4.368A1.82,1.82,0,0,0,305.18,26.6v5.577a1.819,1.819,0,0,0,1.965,1.627h4.368a13.344,13.344,0,0,0,1.182,2.361L309.6,38.724a1.439,1.439,0,0,0,0,2.3l4.766,3.944a2.263,2.263,0,0,0,2.776,0l3.091-2.559a19.859,19.859,0,0,0,2.852.978V47a1.819,1.819,0,0,0,1.965,1.627h6.737A1.819,1.819,0,0,0,333.755,47V43.388a19.906,19.906,0,0,0,2.852-.978l3.091,2.559a2.263,2.263,0,0,0,2.776,0l4.766-3.944a1.439,1.439,0,0,0,0-2.3l-3.091-2.559a13.348,13.348,0,0,0,1.182-2.361H349.7a1.819,1.819,0,0,0,1.965-1.627V26.6a1.821,1.821,0,0,0-1.965-1.627M328.422,36.662c-4.852,0-8.785-3.256-8.785-7.274s3.933-7.274,8.785-7.274,8.785,3.256,8.785,7.274-3.933,7.274-8.785,7.274" transform="translate(-131.473 -5.364)" fill="#2b2c84"/>
    <path id="Trazado_245216" data-name="Trazado 245216" d="M334.382,49.427c-8.474,0-15.367-5.708-15.367-12.723s6.893-12.723,15.367-12.723,15.367,5.708,15.367,12.723-6.894,12.723-15.367,12.723m0-24.2c-7.641,0-13.858,5.147-13.858,11.474s6.217,11.473,13.858,11.473S348.24,43.031,348.24,36.7,342.023,25.23,334.382,25.23" transform="translate(-137.433 -12.68)" fill="#fff"/>
    <path id="Trazado_245217" data-name="Trazado 245217" d="M266.512,33.984h-3.06a9.2,9.2,0,0,0-.828-1.652l2.165-1.792a1.008,1.008,0,0,0,0-1.612l-3.338-2.763a1.58,1.58,0,0,0-1.945,0l-2.165,1.792a13.766,13.766,0,0,0-2-.687V24.738a1.274,1.274,0,0,0-1.376-1.14h-4.72a1.274,1.274,0,0,0-1.376,1.14v2.533a13.74,13.74,0,0,0-2,.687l-2.165-1.792a1.58,1.58,0,0,0-1.945,0l-3.338,2.763a1.007,1.007,0,0,0,0,1.612l2.165,1.792a9.2,9.2,0,0,0-.828,1.652H236.7a1.275,1.275,0,0,0-1.376,1.14v3.907a1.274,1.274,0,0,0,1.376,1.14h3.06a9.314,9.314,0,0,0,.828,1.654l-2.165,1.792a1.007,1.007,0,0,0,0,1.612l3.338,2.763a1.585,1.585,0,0,0,1.945,0l2.165-1.793a13.906,13.906,0,0,0,2,.686v2.533a1.274,1.274,0,0,0,1.376,1.14h4.72a1.274,1.274,0,0,0,1.376-1.14V46.884a13.933,13.933,0,0,0,2-.686l2.165,1.793a1.585,1.585,0,0,0,1.945,0l3.338-2.763a1.008,1.008,0,0,0,0-1.612l-2.165-1.792a9.357,9.357,0,0,0,.828-1.654h3.06a1.274,1.274,0,0,0,1.376-1.14V35.124a1.275,1.275,0,0,0-1.376-1.14m-14.9,8.188c-3.4,0-6.154-2.281-6.154-5.095s2.755-5.1,6.154-5.1,6.154,2.281,6.154,5.1-2.755,5.095-6.154,5.095" transform="translate(-101.38 -12.477)" fill="#ffd234"/>
    <path id="Trazado_245218" data-name="Trazado 245218" d="M255.782,51.114c-5.936,0-10.765-4-10.765-8.912s4.829-8.913,10.765-8.913,10.765,4,10.765,8.913-4.829,8.912-10.765,8.912m0-16.949c-5.353,0-9.707,3.605-9.707,8.037s4.354,8.037,9.707,8.037,9.707-3.605,9.707-8.037-4.354-8.037-9.707-8.037" transform="translate(-105.554 -17.601)" fill="#fff"/>
    <path id="Trazado_245219" data-name="Trazado 245219" d="M347.474,302.584h-4.279a12.911,12.911,0,0,0-1.157-2.311l3.028-2.507a1.41,1.41,0,0,0,0-2.255l-4.67-3.864a2.21,2.21,0,0,0-2.72,0l-3.028,2.507a19.278,19.278,0,0,0-2.794-.961v-3.542a1.782,1.782,0,0,0-1.925-1.594h-6.6a1.782,1.782,0,0,0-1.925,1.594v3.542a19.276,19.276,0,0,0-2.794.961l-3.028-2.507a2.21,2.21,0,0,0-2.72,0l-4.67,3.864a1.41,1.41,0,0,0,0,2.255l3.028,2.507a12.877,12.877,0,0,0-1.158,2.311h-4.28a1.784,1.784,0,0,0-1.925,1.594v5.465a1.782,1.782,0,0,0,1.925,1.594h4.28a13.076,13.076,0,0,0,1.158,2.313l-3.028,2.507a1.409,1.409,0,0,0,0,2.254l4.67,3.864a2.216,2.216,0,0,0,2.72,0l3.028-2.507a19.5,19.5,0,0,0,2.794.959v3.543a1.782,1.782,0,0,0,1.925,1.594h6.6a1.782,1.782,0,0,0,1.925-1.594v-3.543a19.5,19.5,0,0,0,2.794-.959l3.028,2.507a2.216,2.216,0,0,0,2.72,0l4.67-3.864a1.409,1.409,0,0,0,0-2.254l-3.028-2.507a13.111,13.111,0,0,0,1.157-2.313h4.279a1.782,1.782,0,0,0,1.926-1.594v-5.465a1.784,1.784,0,0,0-1.926-1.594m-20.846,11.453c-4.754,0-8.607-3.19-8.607-7.126s3.853-7.126,8.607-7.126,8.607,3.19,8.607,7.126-3.853,7.126-8.607,7.126" transform="translate(-130.903 -152.305)" fill="#1b3f5e"/>
    <path id="Trazado_245220" data-name="Trazado 245220" d="M332.468,326.543c-8.3,0-15.056-5.592-15.056-12.465s6.754-12.466,15.056-12.466,15.056,5.592,15.056,12.466-6.754,12.465-15.056,12.465m0-23.707c-7.487,0-13.578,5.043-13.578,11.242s6.091,11.241,13.578,11.241,13.577-5.042,13.577-11.241-6.09-11.242-13.577-11.242" transform="translate(-136.743 -159.472)" fill="#fff"/>
    <path id="Trazado_245221" data-name="Trazado 245221" d="M71.878,59.818H68.36a10.567,10.567,0,0,0-.951-1.9l2.489-2.06A1.159,1.159,0,0,0,69.9,54L66.06,50.829a1.816,1.816,0,0,0-2.235,0l-2.489,2.06a15.811,15.811,0,0,0-2.3-.79V49.188a1.465,1.465,0,0,0-1.582-1.31H52.032a1.464,1.464,0,0,0-1.582,1.31V52.1a15.811,15.811,0,0,0-2.3.79l-2.489-2.06a1.816,1.816,0,0,0-2.235,0L39.592,54a1.158,1.158,0,0,0,0,1.853l2.489,2.06a10.607,10.607,0,0,0-.952,1.9H37.611a1.466,1.466,0,0,0-1.582,1.31v4.491a1.464,1.464,0,0,0,1.582,1.31h3.517a10.782,10.782,0,0,0,.952,1.9l-2.489,2.06a1.158,1.158,0,0,0,0,1.853l3.838,3.175a1.822,1.822,0,0,0,2.235,0l2.489-2.06a16.036,16.036,0,0,0,2.3.788v2.912a1.464,1.464,0,0,0,1.582,1.31h5.425a1.465,1.465,0,0,0,1.582-1.31V74.647a16.037,16.037,0,0,0,2.3-.788l2.489,2.06a1.822,1.822,0,0,0,2.235,0L69.9,72.744a1.159,1.159,0,0,0,0-1.853l-2.489-2.06a10.74,10.74,0,0,0,.951-1.9h3.518a1.464,1.464,0,0,0,1.582-1.31V61.128a1.466,1.466,0,0,0-1.582-1.31M54.745,69.231c-3.907,0-7.075-2.622-7.075-5.857s3.168-5.857,7.075-5.857,7.074,2.622,7.074,5.857-3.167,5.857-7.074,5.857" transform="translate(-15.521 -25.315)" fill="#008489"/>
    <path id="Trazado_245222" data-name="Trazado 245222" d="M59.543,79.509c-6.823,0-12.374-4.6-12.374-10.245S52.72,59.018,59.543,59.018s12.374,4.6,12.374,10.245S66.367,79.509,59.543,79.509m0-19.485c-6.153,0-11.159,4.145-11.159,9.239S53.39,78.5,59.543,78.5,70.7,74.358,70.7,69.263,65.7,60.024,59.543,60.024" transform="translate(-20.321 -31.205)" fill="#fff"/>
    <path id="Trazado_245223" data-name="Trazado 245223" d="M133.6,61.531c-4.276,0-7.754-2.88-7.754-6.42V52.157H128.4v2.954c0,2.377,2.335,4.31,5.205,4.31s5.205-1.933,5.205-4.31V45.778c0-3.54,3.478-6.42,7.754-6.42h2.848c4.276,0,7.754,2.88,7.754,6.42V69.559h-2.549V45.778c0-2.376-2.335-4.309-5.205-4.309h-2.848c-2.87,0-5.205,1.933-5.205,4.309v9.333c0,3.54-3.478,6.42-7.754,6.42" transform="translate(-54.217 -20.81)" fill="#fff"/>
    <path id="Trazado_245224" data-name="Trazado 245224" d="M131.111,10.29c0-5.925-6.048-10.68-13.311-10.265-6.084.347-11.032,4.4-11.506,9.438a8.954,8.954,0,0,0,2.021,6.5,16.842,16.842,0,0,1,3.839,10.547h13.06A16.519,16.519,0,0,1,129,16.031a9.048,9.048,0,0,0,2.114-5.741" transform="translate(-45.775 0)" fill="#ffd947"/>
    <path id="Trazado_245225" data-name="Trazado 245225" d="M125.073,22.067v2.65h-2.689v-2.65h-4.417v3.6h3.265V39.505h1.152V25.671h2.689V39.505h1.152V25.671h3.265v-3.6Zm-3.841,2.65H119.12v-1.7h2.112Zm7.105,0h-2.112v-1.7h2.112Z" transform="translate(-50.821 -11.668)" fill="#fff"/>
    <rect id="Rectángulo_53751" data-name="Rectángulo 53751" width="6.146" height="2.438" transform="translate(69.835 31.654)" fill="#004d47"/>
    <path id="Trazado_245226" data-name="Trazado 245226" d="M126.963,62.512h-7.633a2.513,2.513,0,0,1-2.713-2.246V56.258h13.06v4.008a2.513,2.513,0,0,1-2.713,2.246" transform="translate(-50.239 -29.745)" fill="#008489"/>
    <path id="Trazado_245227" data-name="Trazado 245227" d="M302.246,134.575l-17.5,2.657,3.838,3.734-11.637,8.2-13.535-12.511-23.04,16.1,3.836,3.763L262.837,143.5l13.551,12.526,16.052-11.309,3.838,3.734Z" transform="translate(-103.554 -71.154)" fill="#0e8282"/>
    <path id="Trazado_245228" data-name="Trazado 245228" d="M295.689,106.388,281.751,108.5l3.057,2.975-9.27,6.531-10.782-9.966L246.4,120.869l3.055,3L264.3,113.5l10.794,9.977,12.787-9.008,3.057,2.975Z" transform="translate(-106.152 -56.251)" fill="#1b3f5e"/>
    <path id="Trazado_245229" data-name="Trazado 245229" d="M397.327,152.262a1.18,1.18,0,0,0-1.274,1.055v1.056a1.3,1.3,0,0,0,2.549,0v-1.056a1.18,1.18,0,0,0-1.274-1.055" transform="translate(-170.621 -80.506)" fill="#fff"/>
    <path id="Trazado_245230" data-name="Trazado 245230" d="M397.327,207.288a1.18,1.18,0,0,0-1.274,1.055V210.6a1.3,1.3,0,0,0,2.549,0v-2.262a1.18,1.18,0,0,0-1.274-1.055" transform="translate(-170.621 -109.6)" fill="#fff"/>
    <path id="Trazado_245231" data-name="Trazado 245231" d="M397.327,168.9a1.18,1.18,0,0,0-1.274,1.055v2.261a1.3,1.3,0,0,0,2.549,0v-2.261a1.18,1.18,0,0,0-1.274-1.055" transform="translate(-170.621 -89.302)" fill="#fff"/>
    <path id="Trazado_245232" data-name="Trazado 245232" d="M397.327,188.092a1.181,1.181,0,0,0-1.274,1.056v2.262a1.3,1.3,0,0,0,2.549,0v-2.262a1.181,1.181,0,0,0-1.274-1.056" transform="translate(-170.621 -99.451)" fill="#fff"/>
    <path id="Trazado_245233" data-name="Trazado 245233" d="M396.363,226.482a1.737,1.737,0,1,0-1.274,3.166h2.549v-2.111a1.181,1.181,0,0,0-1.274-1.055" transform="translate(-169.657 -119.749)" fill="#fff"/>
    <path id="Trazado_245234" data-name="Trazado 245234" d="M333.62,228.721h-2.267a1.074,1.074,0,1,0,0,2.111h2.267a1.074,1.074,0,1,0,0-2.111" transform="translate(-142.199 -120.932)" fill="#fff"/>
    <path id="Trazado_245235" data-name="Trazado 245235" d="M349.554,228.721h-2.268a1.074,1.074,0,1,0,0,2.111h2.268a1.074,1.074,0,1,0,0-2.111" transform="translate(-149.064 -120.932)" fill="#fff"/>
    <path id="Trazado_245236" data-name="Trazado 245236" d="M365.488,228.721H363.22a1.074,1.074,0,1,0,0,2.111h2.268a1.074,1.074,0,1,0,0-2.111" transform="translate(-155.928 -120.932)" fill="#fff"/>
    <path id="Trazado_245237" data-name="Trazado 245237" d="M381.422,228.721h-2.267a1.074,1.074,0,1,0,0,2.111h2.267a1.074,1.074,0,1,0,0-2.111" transform="translate(-162.792 -120.932)" fill="#fff"/>
    <path id="Trazado_245238" data-name="Trazado 245238" d="M318.438,228.721h-1.274a1.074,1.074,0,1,0,0,2.111h1.274a1.074,1.074,0,1,0,0-2.111" transform="translate(-136.086 -120.932)" fill="#fff"/>
    <path id="Trazado_245276" data-name="Trazado 245276" d="M0,0,57.572,2.779l1.982,35.089L1.982,35.089Z" transform="matrix(0.957, -0.289, 0.289, 0.957, 0, 92.206)" fill="#1b3f5e"/>
    <path id="Trazado_245277" data-name="Trazado 245277" d="M0,0,50.281,2.427l1.494,26.454L1.494,26.454Z" transform="translate(5.629 97.052) rotate(-16.788)" fill="#fff"/>
    <path id="Trazado_245239" data-name="Trazado 245239" d="M74.341,179.745a1.091,1.091,0,0,1-.9,1.382,1.4,1.4,0,0,1-1.669-.741,1.091,1.091,0,0,1,.9-1.382,1.4,1.4,0,0,1,1.669.741" transform="translate(-30.897 -94.62)" fill="#fff"/>
    <path id="Trazado_245240" data-name="Trazado 245240" d="M83.3,177.043a1.091,1.091,0,0,1-.9,1.382,1.4,1.4,0,0,1-1.669-.741,1.091,1.091,0,0,1,.9-1.382,1.4,1.4,0,0,1,1.669.741" transform="translate(-34.755 -93.191)" fill="#fff"/>
    <path id="Trazado_245241" data-name="Trazado 245241" d="M92.252,174.341a1.091,1.091,0,0,1-.9,1.382,1.4,1.4,0,0,1-1.668-.741,1.09,1.09,0,0,1,.895-1.382,1.4,1.4,0,0,1,1.669.741" transform="translate(-38.613 -91.763)" fill="#fff"/>
    <path id="Trazado_245278" data-name="Trazado 245278" d="M0,0,5.866.283l.52,9.2L.52,9.2Z" transform="translate(17.5 108.853) rotate(-16.794)" fill="#ffd234"/>
    <path id="Trazado_245279" data-name="Trazado 245279" d="M0,0,5.866.283l.748,13.236L.748,13.236Z" transform="translate(25.869 102.615) rotate(-16.788)" fill="#ffd234"/>
    <path id="Trazado_245280" data-name="Trazado 245280" d="M0,0,5.866.283l.516,9.129L.516,9.129Z" transform="translate(37.031 104.043) rotate(-16.788)" fill="#ffd234"/>
    <path id="Trazado_245281" data-name="Trazado 245281" d="M0,0,5.866.283l1.169,20.7L1.169,20.7Z" transform="translate(42.817 90.716) rotate(-16.787)" fill="#ffd234"/>
    <path id="Trazado_245242" data-name="Trazado 245242" d="M19.144,208.516a.9.9,0,0,1-.735,1.135,1.151,1.151,0,0,1-1.371-.609.9.9,0,0,1,.735-1.135,1.152,1.152,0,0,1,1.371.609" transform="translate(-7.32 -109.907)" fill="#ebebeb"/>
    <path id="Trazado_245282" data-name="Trazado 245282" d="M0,0,12.13.586l.041.725L.041.725Z" transform="matrix(0.957, -0.289, 0.289, 0.957, 13.074, 97.925)" fill="#ebebeb"/>
    <path id="Trazado_245243" data-name="Trazado 245243" d="M20.734,213.787A.9.9,0,0,1,20,214.922a1.151,1.151,0,0,1-1.371-.609.9.9,0,0,1,.735-1.135,1.152,1.152,0,0,1,1.371.609" transform="translate(-8.005 -112.694)" fill="#ebebeb"/>
    <path id="Trazado_245283" data-name="Trazado 245283" d="M0,0,12.13.586l.041.725L.041.725Z" transform="matrix(0.957, -0.289, 0.289, 0.957, 13.979, 100.409)" fill="#ebebeb"/>
    <path id="Trazado_245244" data-name="Trazado 245244" d="M119.541,122.376a.461.461,0,0,0,.015-.061V111.205a.416.416,0,0,0-.013-.051.437.437,0,0,0-.026-.105.462.462,0,0,0-.052-.1c-.01-.015-.012-.032-.023-.047s-.028-.02-.041-.033a.6.6,0,0,0-.1-.078.621.621,0,0,0-.1-.054.74.74,0,0,0-.119-.039.8.8,0,0,0-.121-.02c-.022,0-.04-.01-.062-.01H99.255c-.021,0-.039.008-.059.01a.744.744,0,0,0-.126.021.731.731,0,0,0-.114.038.631.631,0,0,0-.1.056.564.564,0,0,0-.1.078.513.513,0,0,0-.041.033c-.012.015-.014.032-.024.047a.489.489,0,0,0-.052.1.464.464,0,0,0-.025.105.414.414,0,0,0-.013.051v3.919H92.988c-.008,0-.014,0-.022,0a.738.738,0,0,0-.143.024.711.711,0,0,0-.1.023.618.618,0,0,0-.094.053.583.583,0,0,0-.111.071c-.005,0-.013.006-.018.011a.477.477,0,0,0-.044.065.517.517,0,0,0-.069.1.454.454,0,0,0-.027.112.432.432,0,0,0-.018.075v11.112a.6.6,0,0,0,.651.538h19.65a.6.6,0,0,0,.65-.538v-2.159a.413.413,0,0,0,0-.106v-1.657h5.618a.74.74,0,0,0,.27-.052.554.554,0,0,0,.062-.034.63.63,0,0,0,.158-.109c.009-.009.022-.012.03-.021a.455.455,0,0,0,.031-.055.466.466,0,0,0,.057-.1.44.44,0,0,0,.026-.106m-6.253-4.212v-2.5a32.409,32.409,0,0,0-.046-.187.471.471,0,0,0-.069-.1.476.476,0,0,0-.044-.065c-.005,0-.012-.007-.017-.011a.641.641,0,0,0-.114-.073l-.023-.015,5.281-2.986v9.015Zm-19.65-1.32,5.927,4.263-5.927,2.55Zm7.491,3.961h0l-6.4-4.6h4.515l.013,0,.013,0h7.857l.017,0,.022,0H110.9l-6.4,4.6,0,0-1.683,1.21Zm9.692-5.681H107.34l-5.979-3.381H116.8Zm1.166,1.719v6.808l-5.926-2.546Zm-12.082-4.619,5.128,2.9H99.905Zm-6.267,14.012V124.87l6.983-3,1.766,1.27a.755.755,0,0,0,.853,0l1.766-1.27,6.983,3v1.372Zm19.65-6.729,3.663,2.268h-3.663Z" transform="translate(-39.779 -58.513)" fill="#fff"/>
    <path id="Trazado_245245" data-name="Trazado 245245" d="M107.347,307.029l2.606-6.241c-.133.21,7.4,2.666,7.4,2.666l-6.036-5.314-.03.047.03-.047L90,293.31Zm3.572-8.259,0-.006,0,.006" transform="translate(-38.771 -155.083)" fill="#ef6f6c"/>
    <path id="Trazado_245246" data-name="Trazado 245246" d="M117.354,303.455l-4.516-7.579L90,293.311l21.321,4.83Z" transform="translate(-38.771 -155.083)" fill="#ef6f6c"/>
    <path id="Trazado_245247" data-name="Trazado 245247" d="M112.838,293.344l4.689-4.822L90,290.779Z" transform="translate(-38.771 -152.551)" fill="#ef6f6c"/>
    <path id="Trazado_245248" data-name="Trazado 245248" d="M144.755,314.179a.913.913,0,0,1-.595-.02c-.748-.292-1.162-.478-1.179-.486a.581.581,0,0,1-.305-.859.852.852,0,0,1,1.037-.253s.4.179,1.1.452a.592.592,0,0,1,.366.843.723.723,0,0,1-.423.323" transform="translate(-61.425 -165.221)" fill="#fff"/>
    <path id="Trazado_245249" data-name="Trazado 245249" d="M178.011,294.209q-.562.175-1.125.327a.808.808,0,0,1-.965-.406.622.622,0,0,1,.49-.8,16.5,16.5,0,0,0,2.276-.759.855.855,0,0,1,1.032.269.585.585,0,0,1-.325.854,14.034,14.034,0,0,1-1.384.513m-6.133,1.256a.94.94,0,0,1-.171.035c-.861.094-1.749.159-2.639.195a.724.724,0,0,1-.8-.6.693.693,0,0,1,.727-.662c.849-.034,1.694-.1,2.514-.186a.75.75,0,0,1,.857.545.632.632,0,0,1-.488.675m11.5-4.344a.885.885,0,0,1-.8-.136.559.559,0,0,1-.022-.895,21.114,21.114,0,0,0,1.63-1.575.873.873,0,0,1,1.072-.114.563.563,0,0,1,.138.887,22.151,22.151,0,0,1-1.737,1.677.791.791,0,0,1-.282.155m-19.25,4.417a.906.906,0,0,1-.343.037c-.856-.069-1.735-.164-2.614-.283a.658.658,0,0,1-.631-.727.761.761,0,0,1,.878-.523c.846.115,1.693.206,2.516.272a.678.678,0,0,1,.687.692.667.667,0,0,1-.492.531m23.758-9.631a.909.909,0,0,1-.643-.04.581.581,0,0,1-.294-.862c.4-.59.8-1.219,1.183-1.87a.843.843,0,0,1,1.023-.288.588.588,0,0,1,.349.848c-.4.669-.808,1.319-1.22,1.928a.742.742,0,0,1-.4.284m-31.372,8.418a.908.908,0,0,1-.476.017c-.834-.2-1.679-.413-2.51-.648a.613.613,0,0,1-.477-.8.81.81,0,0,1,.97-.4c.806.227,1.624.438,2.432.627a.627.627,0,0,1,.528.781.7.7,0,0,1-.467.421m34.656-14.24a.914.914,0,0,1-.549,0,.6.6,0,0,1-.431-.821c.3-.637.607-1.306.9-1.99a.814.814,0,0,1,.978-.382.61.61,0,0,1,.462.81c-.3.7-.61,1.377-.92,2.026a.713.713,0,0,1-.443.361M193.7,274a.909.909,0,0,1-.488.014.624.624,0,0,1-.513-.788q.377-1.038.709-2.047a.794.794,0,0,1,.94-.443.629.629,0,0,1,.535.779q-.338,1.021-.719,2.076a.7.7,0,0,1-.464.411" transform="translate(-65.919 -143.135)" fill="#fff"/>
    <path id="Trazado_245250" data-name="Trazado 245250" d="M216.454,192.731s5.14,21.315,25.022,27.541c0,0,3.314-2.216,5.608-1.794s6.5,4.537,6.5,4.537h-13s-21.284-1.688-32.245-18.888l-.637-6.437Z" transform="translate(-89.479 -101.903)" fill="#ffc7ca"/>
    <path id="Trazado_245251" data-name="Trazado 245251" d="M199.984,154.219s12.914,13.613,14.443,17.2c0,0-8.157,5.593-10.705,7.492,0,0-9.673-15.69-8.029-20.049,1.529-4.056,4.291-4.643,4.291-4.643" transform="translate(-84.224 -81.541)" fill="#ef6f6c"/>
    <path id="Trazado_245252" data-name="Trazado 245252" d="M151.449,146.193s-19.542,2.372-22.941,13.636,23.068,45.207,23.068,45.207h30.631s-7.478-53.062-11.215-55.137-8.667-5.632-19.543-3.706" transform="translate(-55.232 -77.005)" fill="#ef6f6c"/>
    <path id="Trazado_245253" data-name="Trazado 245253" d="M177.391,131.061l-.733,9.889c-2.758,1.41-12.69-1.308-12.69-1.308l1.356-10.86Z" transform="translate(-70.638 -68.091)" fill="#ffc7ca"/>
    <path id="Trazado_245254" data-name="Trazado 245254" d="M188.351,99.325s-.361,20.632-14.019,17.939C158.273,114.1,165.665,95.1,165.665,95.1Z" transform="translate(-70.638 -50.284)" fill="#ffc7ca"/>
    <path id="Trazado_245255" data-name="Trazado 245255" d="M163.821,114.73s-1.1-2.04-2.889-1.2-2.209,6.626,2.549,7.077Z" transform="translate(-68.794 -59.921)" fill="#ffc7ca"/>
    <path id="Trazado_245256" data-name="Trazado 245256" d="M157.445,91.863s2.634-.352,3.526,1.653l1.4-7.492s8.951,2.11,13.843,0c0,0,3.713,4.054,6.533,4.454s6.994-9.2,0-11.1c0,0-15.589-15.828-24.483,0,0,0-5.835.316-6.6,6.12s4.566,9.8,4.566,9.8-.147-2.873,1.212-3.436" transform="translate(-65.307 -38.249)" fill="#2b2c84"/>
    <path id="Trazado_245257" data-name="Trazado 245257" d="M166.726,220.414s17.334,14.668,34.411,14.668h33.9s-7.9-8.548-11.726-7.334a25.581,25.581,0,0,0-6.372,3.008s-24.385-3.826-39.594-18.8c0,0-7.375.015-10.622,8.455" transform="translate(-71.826 -112.07)" fill="#ffc7ca"/>
    <path id="Trazado_245258" data-name="Trazado 245258" d="M128.736,167.494a34.051,34.051,0,0,0,21.072,28.983s8.243-10.157,11.174-11.2c0,0-10.187-19.164-16.951-22.85-3.44-1.874-10.536-1.266-15.294,5.065" transform="translate(-55.46 -85.389)" fill="#ef6f6c"/>
    <path id="Trazado_245259" data-name="Trazado 245259" d="M224.883,261.025a2.559,2.559,0,0,0-.765,2h54.973s-.595-1.9-1.359-2Z" transform="translate(-96.548 -135.452)" fill="#0e8282"/>
    <path id="Trazado_245260" data-name="Trazado 245260" d="M286.744,224.079l14.317-36.722h21.751l-14.444,36.722Z" transform="translate(-124.873 -97.402)" fill="#0e8282"/>
    <path id="Trazado_245261" data-name="Trazado 245261" d="M327.308,220.056c-.426,1.443-1.657,2.435-2.751,2.214s-1.636-1.57-1.211-3.014,1.657-2.436,2.752-2.214,1.636,1.571,1.211,3.014" transform="translate(-143.827 -111.34)" fill="#fff"/>
    <path id="Trazado_245262" data-name="Trazado 245262" d="M243.511,269.922H82.122c0-2.564,2.511-4.643,5.608-4.643H237.9c3.1,0,5.608,2.079,5.608,4.643" transform="translate(-35.254 -137.248)" fill="#1b3f5e"/>
    <path id="Trazado_245263" data-name="Trazado 245263" d="M142.922,256.281h-25.9c-2.675,0-4.843-1.8-4.843-4.01s2.168-4.01,4.843-4.01h25.9Z" transform="translate(-48.328 -131.264)" fill="#ff9a00"/>
    <path id="Trazado_245264" data-name="Trazado 245264" d="M144.674,256.555H118.381a1.8,1.8,0,1,1,0-3.534h26.293Z" transform="translate(-50.08 -133.781)" fill="#fff"/>
    <path id="Trazado_245265" data-name="Trazado 245265" d="M142.922,239.263h-25.9c-2.675,0-4.843-1.8-4.843-4.01s2.168-4.01,4.843-4.01h25.9Z" transform="translate(-48.328 -122.266)" fill="#008489"/>
    <path id="Trazado_245266" data-name="Trazado 245266" d="M144.674,239.538H118.381a1.8,1.8,0,1,1,0-3.534h26.293Z" transform="translate(-50.08 -124.783)" fill="#fff"/>
    <path id="Trazado_245267" data-name="Trazado 245267" d="M114.978,162.845l.28.74.279-.74a4.157,4.157,0,0,1,2.1-2.232,4.154,4.154,0,0,1-2.1-2.231l-.279-.74-.28.74a4.15,4.15,0,0,1-2.1,2.231,4.153,4.153,0,0,1,2.1,2.232" transform="translate(-48.631 -83.35)" fill="#ff9a00"/>
    <path id="Trazado_245268" data-name="Trazado 245268" d="M215.37,136.986l.529,1.4.529-1.4a7.858,7.858,0,0,1,3.962-4.22,7.859,7.859,0,0,1-3.962-4.22l-.529-1.4-.529,1.4a7.855,7.855,0,0,1-3.962,4.22,7.854,7.854,0,0,1,3.962,4.22" transform="translate(-91.076 -67.226)" fill="#ff9a00"/>
    <path id="Trazado_245269" data-name="Trazado 245269" d="M280.869,200.39l.529,1.4.529-1.4a7.857,7.857,0,0,1,3.962-4.221,7.856,7.856,0,0,1-3.962-4.22l-.529-1.4-.529,1.4a7.853,7.853,0,0,1-3.962,4.22,7.854,7.854,0,0,1,3.962,4.221" transform="translate(-119.293 -100.75)" fill="#ff9a00"/>
    <path id="Trazado_245270" data-name="Trazado 245270" d="M266.525,223.5l.347.917.346-.917a5.144,5.144,0,0,1,2.6-2.765,5.149,5.149,0,0,1-2.6-2.765l-.346-.917-.347.917a5.149,5.149,0,0,1-2.6,2.765,5.144,5.144,0,0,1,2.6,2.765" transform="translate(-113.702 -114.762)" fill="#ff9a00"/>
    <path id="Trazado_245271" data-name="Trazado 245271" d="M228.219,103.538l.347.917.346-.917a5.147,5.147,0,0,1,2.6-2.765,5.147,5.147,0,0,1-2.6-2.765l-.346-.917-.347.917a5.147,5.147,0,0,1-2.6,2.765,5.147,5.147,0,0,1,2.6,2.765" transform="translate(-97.199 -51.336)" fill="#ff9a00"/>
    <path id="Trazado_245272" data-name="Trazado 245272" d="M72.566,148.147l.488,1.291.488-1.291a7.249,7.249,0,0,1,3.657-3.895,7.249,7.249,0,0,1-3.657-3.895l-.488-1.291-.488,1.291a7.25,7.25,0,0,1-3.656,3.895,7.25,7.25,0,0,1,3.656,3.895" transform="translate(-29.687 -73.529)" fill="#ff9a00"/>
    <rect id="Rectángulo_53760" data-name="Rectángulo 53760" width="37.725" height="38.279" transform="translate(206.995 46.399)" fill="#ffd234"/>
    <path id="Trazado_245273" data-name="Trazado 245273" d="M434.186,102.61v2.769h-4.247V98.457c2.412.329,4.247,2.064,4.247,4.153" transform="translate(-185.22 -52.058)" fill="#ecaf0b"/>
    <rect id="Rectángulo_53761" data-name="Rectángulo 53761" width="5.974" height="4.946" transform="translate(211.259 57.473)" fill="#ecaf0b"/>
    <rect id="Rectángulo_53762" data-name="Rectángulo 53762" width="20.265" height="1.233" transform="translate(220.19 57.473)" fill="#2b2c84"/>
    <rect id="Rectángulo_53763" data-name="Rectángulo 53763" width="20.265" height="1.233" transform="translate(220.19 61.186)" fill="#2b2c84"/>
    <rect id="Rectángulo_53764" data-name="Rectángulo 53764" width="5.974" height="4.946" transform="translate(211.259 68.658)" fill="#ecaf0b"/>
    <rect id="Rectángulo_53765" data-name="Rectángulo 53765" width="20.265" height="1.233" transform="translate(220.19 68.658)" fill="#2b2c84"/>
    <rect id="Rectángulo_53766" data-name="Rectángulo 53766" width="20.265" height="1.233" transform="translate(220.19 72.371)" fill="#2b2c84"/>
    <path id="Trazado_245274" data-name="Trazado 245274" d="M375.417,124.295l-2.483-1.777,1-.958,1.276.913,2.595-2.707,1.2.787Z" transform="translate(-160.661 -63.324)" fill="#fff"/>
    <path id="Trazado_245275" data-name="Trazado 245275" d="M375.417,147.432l-2.483-1.777,1-.958,1.276.913,2.595-2.707,1.2.787Z" transform="translate(-160.661 -75.558)" fill="#fff"/>
  </g>
</svg>
