<svg xmlns="http://www.w3.org/2000/svg" xmlns:xlink="http://www.w3.org/1999/xlink" width="1077.141" height="402" viewBox="0 0 1077.141 402">
  <defs>
    <clipPath id="clip-path">
      <rect id="Rectángulo_53511" data-name="Rectángulo 53511" width="541.969" height="366.89" fill="none"/>
    </clipPath>
  </defs>
  <g id="Grupo_593160" data-name="Grupo 593160" transform="translate(2166.141 889.5)">
    <path id="Trazado_226790" data-name="Trazado 226790" d="M28.623,0H1048.517c15.808,0,28.623,8.507,28.623,19V383c0,10.493-12.815,19-28.623,19H28.623C12.815,402,0,393.493,0,383V19C0,8.507,12.815,0,28.623,0Z" transform="translate(-2166.141 -889.5)" fill="#7cbbbb"/>
    <g id="Grupo_592231" data-name="Grupo 592231" transform="translate(-1898.555 -871.945)">
      <g id="Grupo_592216" data-name="Grupo 592216">
        <g id="Grupo_592215" data-name="Grupo 592215" clip-path="url(#clip-path)">
          <path id="Trazado_244572" data-name="Trazado 244572" d="M630.8,258.78a24.955,24.955,0,0,1-2.962,8.961l4.881,5.109-5.78,6.687-5.833-4.008a25.352,25.352,0,0,1-8.477,4.269l-.189,7.03-8.853.673-1.267-6.919a25.435,25.435,0,0,1-9.033-2.939l-5.15,4.842-6.74-5.734,4.04-5.788a25.006,25.006,0,0,1-4.3-8.409l-7.087-.188-.678-8.782,6.974-1.257a24.956,24.956,0,0,1,2.962-8.961l-4.881-5.109,5.78-6.686,5.834,4.008a25.364,25.364,0,0,1,8.476-4.27l.189-7.03,8.853-.673,1.267,6.919a25.434,25.434,0,0,1,9.033,2.939l5.15-4.842,6.74,5.734-4.04,5.787a25.017,25.017,0,0,1,4.3,8.41l7.086.187.678,8.783ZM605.577,242.6a12.957,12.957,0,1,0,13.06,12.957A13.009,13.009,0,0,0,605.577,242.6Z" transform="translate(-125.575 -50.357)" fill="#1b3f5e" stroke="#263238" stroke-linejoin="round" stroke-width="1"/>
          <path id="Trazado_244573" data-name="Trazado 244573" d="M668.415,190.818a24.955,24.955,0,0,1-2.962,8.961l4.881,5.109-5.78,6.686-5.834-4.008a25.356,25.356,0,0,1-8.476,4.269l-.19,7.03-8.852.673-1.267-6.919a25.435,25.435,0,0,1-9.033-2.939l-5.15,4.842-6.74-5.734,4.04-5.788a25,25,0,0,1-4.3-8.409l-7.087-.188-.678-8.782,6.974-1.257a24.956,24.956,0,0,1,2.962-8.961l-4.881-5.109,5.78-6.686,5.833,4.008a25.367,25.367,0,0,1,8.477-4.27l.189-7.03,8.853-.673,1.267,6.919a25.435,25.435,0,0,1,9.033,2.939l5.15-4.842,6.74,5.734-4.04,5.788a25.007,25.007,0,0,1,4.3,8.409l7.086.188.678,8.783Zm-25.228-16.183a12.957,12.957,0,1,0,13.061,12.957A13.009,13.009,0,0,0,643.187,174.635Z" transform="translate(-133.812 -35.052)" fill="#0e8282" stroke="#263238" stroke-linejoin="round" stroke-width="1"/>
        </g>
      </g>
      <g id="Grupo_592218" data-name="Grupo 592218">
        <g id="Grupo_592217" data-name="Grupo 592217" clip-path="url(#clip-path)">
          <path id="Trazado_244574" data-name="Trazado 244574" d="M69.616,257.926h45.032a16.481,16.481,0,0,0-6.969-8.509c-5.36-3.191-11.793.532-16.081-1.6,0,0-4.288-10.1-12.329-13.295s-19.3,1.064-23.05,9.04-8.577,2.128-14.473,1.6-7.5,4.254-10.721,6.914-4.288-.532-9.113,0-10.721,5.85-10.721,5.85H64.96" transform="translate(-2.451 -52.577)" fill="#fff" stroke="#263238" stroke-linecap="round" stroke-linejoin="round" stroke-width="1"/>
          <path id="Trazado_244575" data-name="Trazado 244575" d="M531.261,246.885h13.563a9.918,9.918,0,0,0-4.192-5.119c-3.225-1.919-7.094.32-9.675-.959,0,0-2.58-6.079-7.417-8s-11.609.64-13.866,5.438-5.16,1.28-8.707.96-4.515,2.559-6.449,4.159-2.58-.32-5.483,0-6.449,3.519-6.449,3.519H527.9" transform="translate(-105.691 -52.285)" fill="#f5f5f5" stroke="#263238" stroke-linecap="round" stroke-linejoin="round" stroke-width="1"/>
          <path id="Trazado_244576" data-name="Trazado 244576" d="M502.307,15.218H515.87a9.914,9.914,0,0,0-4.192-5.119c-3.225-1.919-7.1.32-9.675-.959,0,0-2.58-6.079-7.417-8s-11.609.64-13.867,5.438-5.16,1.28-8.707.96S467.5,10.1,465.563,11.7s-2.58-.32-5.483,0-6.449,3.519-6.449,3.519h45.313" transform="translate(-99.35 -0.113)" fill="#fff" stroke="#263238" stroke-linecap="round" stroke-linejoin="round" stroke-width="1"/>
          <path id="Trazado_244577" data-name="Trazado 244577" d="M326.921,295.273a11.037,11.037,0,0,0-3.655-2.492c-4.837-1.92-11.609.639-13.867,5.438s-5.159,1.28-8.706.96-4.516,2.559-6.45,4.159-2.58-.32-5.483,0-6.45,3.519-6.45,3.519h62.24a9.913,9.913,0,0,0-4.193-5.119c-3.224-1.919-7.094.32-9.673-.96a19.735,19.735,0,0,0-2.248-3.76" transform="translate(-61.829 -65.791)" fill="#fff" stroke="#263238" stroke-linecap="round" stroke-linejoin="round" stroke-width="1"/>
        </g>
      </g>
      <g id="Grupo_592220" data-name="Grupo 592220">
        <g id="Grupo_592219" data-name="Grupo 592219" clip-path="url(#clip-path)">
          <path id="Trazado_244578" data-name="Trazado 244578" d="M440.668,31.562l15.5,24.135L314.93,142.285l-139.239,44.34a17.38,17.38,0,0,0-3.22,1.4L.5,283.338,3.824,320.9,187.95,218.776l139.568-44.445a17.358,17.358,0,0,0,3.807-1.742L474.762,84.652l15.7,24.454L533.259,27.55Z" transform="translate(-0.11 -6.204)" fill="#263238"/>
          <path id="Trazado_244579" data-name="Trazado 244579" d="M440.668,31.562l15.5,24.135L314.93,142.285l-139.239,44.34a17.38,17.38,0,0,0-3.22,1.4L.5,283.338,3.824,320.9,187.95,218.776l139.568-44.445a17.358,17.358,0,0,0,3.807-1.742L474.762,84.652l15.7,24.454L533.259,27.55Z" transform="translate(-0.11 -6.204)" fill="none" stroke="#263238" stroke-linejoin="round" stroke-width="1"/>
        </g>
      </g>
      <g id="Grupo_592222" data-name="Grupo 592222">
        <g id="Grupo_592221" data-name="Grupo 592221" clip-path="url(#clip-path)">
          <path id="Trazado_244580" data-name="Trazado 244580" d="M427.667,194.4l7.086-.188.679-8.782-6.975-1.257a24.937,24.937,0,0,0-2.962-8.961l4.882-5.109.154-2-.968,1.058-4.967-5.745-5.833,4.008a25.371,25.371,0,0,0-8.476-4.27l-.19-7.03-8.853-.672-1.267,6.919a25.42,25.42,0,0,0-9.033,2.939l-5.15-4.842-5.768,4.908-.818-1.172-.154,2,4.04,5.787a25,25,0,0,0-4.3,8.41l-7.086.187-.679,8.783L378,190.622a24.916,24.916,0,0,0,2.962,8.961l-3.893,4.075-.834-.965-.155,2,5.781,6.686,5.833-4.007a25.357,25.357,0,0,0,8.476,4.269l.19,7.03,8.853.673,1.267-6.919a25.435,25.435,0,0,0,9.033-2.939l5.15,4.842,6.739-5.735.155-2-.972.827-3.222-4.616a25,25,0,0,0,4.3-8.41" transform="translate(-81.258 -35.008)" fill="#263238"/>
          <path id="Trazado_244581" data-name="Trazado 244581" d="M427.667,194.4l7.086-.188.679-8.782-6.975-1.257a24.937,24.937,0,0,0-2.962-8.961l4.882-5.109.154-2-.968,1.058-4.967-5.745-5.833,4.008a25.371,25.371,0,0,0-8.476-4.27l-.19-7.03-8.853-.672-1.267,6.919a25.42,25.42,0,0,0-9.033,2.939l-5.15-4.842-5.768,4.908-.818-1.172-.154,2,4.04,5.787a25,25,0,0,0-4.3,8.41l-7.086.187-.679,8.783L378,190.622a24.916,24.916,0,0,0,2.962,8.961l-3.893,4.075-.834-.965-.155,2,5.781,6.686,5.833-4.007a25.357,25.357,0,0,0,8.476,4.269l.19,7.03,8.853.673,1.267-6.919a25.435,25.435,0,0,0,9.033-2.939l5.15,4.842,6.739-5.735.155-2-.972.827-3.222-4.616A25,25,0,0,0,427.667,194.4Z" transform="translate(-81.258 -35.008)" fill="none" stroke="#263238" stroke-linejoin="round" stroke-width="1"/>
          <path id="Trazado_244582" data-name="Trazado 244582" d="M434.951,191.629l.678-8.783-6.974-1.257a24.941,24.941,0,0,0-2.962-8.961l4.881-5.109-5.78-6.686-5.833,4.008a25.357,25.357,0,0,0-8.476-4.27l-.19-7.03-8.853-.673-1.267,6.92a25.4,25.4,0,0,0-9.033,2.939l-5.15-4.843-6.74,5.735,4.04,5.787a25.02,25.02,0,0,0-4.3,8.409L371.9,178l-.679,8.783,6.975,1.257A24.926,24.926,0,0,0,381.161,197l-4.882,5.109,5.781,6.686,5.833-4.008a25.358,25.358,0,0,0,8.476,4.27l.19,7.03,8.853.673,1.266-6.92a25.419,25.419,0,0,0,9.034-2.939l5.15,4.843,6.739-5.735-4.04-5.787a25.008,25.008,0,0,0,4.3-8.409Z" transform="translate(-81.302 -34.427)" fill="#0e8282"/>
          <path id="Trazado_244583" data-name="Trazado 244583" d="M434.951,191.629l.678-8.783-6.974-1.257a24.941,24.941,0,0,0-2.962-8.961l4.881-5.109-5.78-6.686-5.833,4.008a25.357,25.357,0,0,0-8.476-4.27l-.19-7.03-8.853-.673-1.267,6.92a25.4,25.4,0,0,0-9.033,2.939l-5.15-4.843-6.74,5.735,4.04,5.787a25.02,25.02,0,0,0-4.3,8.409L371.9,178l-.679,8.783,6.975,1.257A24.926,24.926,0,0,0,381.161,197l-4.882,5.109,5.781,6.686,5.833-4.008a25.358,25.358,0,0,0,8.476,4.27l.19,7.03,8.853.673,1.266-6.92a25.419,25.419,0,0,0,9.034-2.939l5.15,4.843,6.739-5.735-4.04-5.787a25.008,25.008,0,0,0,4.3-8.409Z" transform="translate(-81.302 -34.427)" fill="none" stroke="#263238" stroke-linejoin="round" stroke-width="1"/>
          <path id="Trazado_244584" data-name="Trazado 244584" d="M402.083,193.044l-.139,1.8,2.1,7.926,7.968,2.159,5.87-5.766.138-1.8Z" transform="translate(-88.03 -43.474)" fill="#263238"/>
          <path id="Trazado_244585" data-name="Trazado 244585" d="M402.083,193.044l-.139,1.8,2.1,7.926,7.968,2.159,5.87-5.766.138-1.8Z" transform="translate(-88.03 -43.474)" fill="none" stroke="#263238" stroke-linejoin="round" stroke-width="1"/>
          <path id="Trazado_244586" data-name="Trazado 244586" d="M407.991,185.6l-5.869,5.766,2.1,7.926,7.968,2.159,5.869-5.766-2.1-7.926Z" transform="translate(-88.069 -41.798)" fill="#fff"/>
          <path id="Trazado_244587" data-name="Trazado 244587" d="M407.991,185.6l-5.869,5.766,2.1,7.926,7.968,2.159,5.869-5.766-2.1-7.926Z" transform="translate(-88.069 -41.798)" fill="none" stroke="#263238" stroke-linejoin="round" stroke-width="1"/>
        </g>
      </g>
      <g id="Grupo_592224" data-name="Grupo 592224">
        <g id="Grupo_592223" data-name="Grupo 592223" clip-path="url(#clip-path)">
          <path id="Trazado_244588" data-name="Trazado 244588" d="M252.154,248.141l7.051-.724v-8.809l-7.051-.724a24.968,24.968,0,0,0-3.643-8.71l4.474-5.465v-2l-.884,1.128-5.394-5.352-5.508,4.439a25.4,25.4,0,0,0-8.781-3.615l-.73-6.995h-8.879l-.73,6.995a25.394,25.394,0,0,0-8.78,3.615l-5.508-4.439-5.372,5.331-.906-1.106v2l4.474,5.465a24.969,24.969,0,0,0-3.644,8.71l-7.051.724v8.809l7.051.724a24.979,24.979,0,0,0,3.644,8.711l-3.568,4.357-.906-.9v2l6.278,6.229,5.508-4.439a25.4,25.4,0,0,0,8.78,3.615l.73,6.995h8.879l.73-6.995a25.4,25.4,0,0,0,8.781-3.615l5.508,4.439,6.278-6.229v-2l-.906.9-3.568-4.357a24.978,24.978,0,0,0,3.643-8.711" transform="translate(-42.771 -47.588)" fill="#263238"/>
          <path id="Trazado_244589" data-name="Trazado 244589" d="M252.154,248.141l7.051-.724v-8.809l-7.051-.724a24.968,24.968,0,0,0-3.643-8.71l4.474-5.465v-2l-.884,1.128-5.394-5.352-5.508,4.439a25.4,25.4,0,0,0-8.781-3.615l-.73-6.995h-8.879l-.73,6.995a25.394,25.394,0,0,0-8.78,3.615l-5.508-4.439-5.372,5.331-.906-1.106v2l4.474,5.465a24.969,24.969,0,0,0-3.644,8.71l-7.051.724v8.809l7.051.724a24.979,24.979,0,0,0,3.644,8.711l-3.568,4.357-.906-.9v2l6.278,6.229,5.508-4.439a25.4,25.4,0,0,0,8.78,3.615l.73,6.995h8.879l.73-6.995a25.4,25.4,0,0,0,8.781-3.615l5.508,4.439,6.278-6.229v-2l-.906.9-3.568-4.357A24.978,24.978,0,0,0,252.154,248.141Z" transform="translate(-42.771 -47.588)" fill="none" stroke="#263238" stroke-linejoin="round" stroke-width="1"/>
          <path id="Trazado_244590" data-name="Trazado 244590" d="M259.2,244.83v-8.809l-7.051-.724a24.969,24.969,0,0,0-3.644-8.71l4.474-5.465-6.278-6.229-5.508,4.439a25.4,25.4,0,0,0-8.781-3.615l-.73-6.995h-8.879l-.73,6.995a25.4,25.4,0,0,0-8.781,3.615l-5.508-4.439-6.278,6.229,4.474,5.465a24.969,24.969,0,0,0-3.644,8.71l-7.051.724v8.809l7.051.724a24.979,24.979,0,0,0,3.644,8.711l-4.474,5.464,6.278,6.229,5.508-4.439a25.4,25.4,0,0,0,8.781,3.615l.73,6.995h8.879l.73-6.995a25.4,25.4,0,0,0,8.781-3.615l5.508,4.439,6.278-6.229-4.474-5.464a24.979,24.979,0,0,0,3.644-8.711Z" transform="translate(-42.771 -47.005)" fill="#0e8282"/>
          <path id="Trazado_244591" data-name="Trazado 244591" d="M259.2,244.83v-8.809l-7.051-.724a24.969,24.969,0,0,0-3.644-8.71l4.474-5.465-6.278-6.229-5.508,4.439a25.4,25.4,0,0,0-8.781-3.615l-.73-6.995h-8.879l-.73,6.995a25.4,25.4,0,0,0-8.781,3.615l-5.508-4.439-6.278,6.229,4.474,5.465a24.969,24.969,0,0,0-3.644,8.71l-7.051.724v8.809l7.051.724a24.979,24.979,0,0,0,3.644,8.711l-4.474,5.464,6.278,6.229,5.508-4.439a25.4,25.4,0,0,0,8.781,3.615l.73,6.995h8.879l.73-6.995a25.4,25.4,0,0,0,8.781-3.615l5.508,4.439,6.278-6.229-4.474-5.464a24.979,24.979,0,0,0,3.644-8.711Z" transform="translate(-42.771 -47.005)" fill="none" stroke="#263238" stroke-linejoin="round" stroke-width="1"/>
          <path id="Trazado_244592" data-name="Trazado 244592" d="M225.824,249.375v1.805l2.7,7.743,8.111,1.55,5.408-6.194v-1.805Z" transform="translate(-49.458 -56.161)" fill="#263238"/>
          <path id="Trazado_244593" data-name="Trazado 244593" d="M225.824,249.375v1.805l2.7,7.743,8.111,1.55,5.408-6.194v-1.805Z" transform="translate(-49.458 -56.161)" fill="none" stroke="#263238" stroke-linejoin="round" stroke-width="1"/>
          <path id="Trazado_244594" data-name="Trazado 244594" d="M231.232,241.38l-5.408,6.194,2.7,7.744,8.111,1.55,5.408-6.195-2.7-7.743Z" transform="translate(-49.458 -54.36)" fill="#fff"/>
          <path id="Trazado_244595" data-name="Trazado 244595" d="M231.232,241.38l-5.408,6.194,2.7,7.744,8.111,1.55,5.408-6.195-2.7-7.743Z" transform="translate(-49.458 -54.36)" fill="none" stroke="#263238" stroke-linejoin="round" stroke-width="1"/>
        </g>
      </g>
      <rect id="Rectángulo_53516" data-name="Rectángulo 53516" width="95.734" height="82.025" transform="translate(236.261 9.67)" fill="#fff" stroke="#263238" stroke-linecap="round" stroke-linejoin="round" stroke-width="1"/>
      <rect id="Rectángulo_53517" data-name="Rectángulo 53517" width="12.25" height="13.01" transform="translate(246.308 30.523)" fill="#ef6f6c" stroke="#263238" stroke-linecap="round" stroke-linejoin="round" stroke-width="1"/>
      <rect id="Rectángulo_53518" data-name="Rectángulo 53518" width="12.25" height="13.01" transform="translate(262.291 30.523)" fill="#ffd947" stroke="#263238" stroke-linecap="round" stroke-linejoin="round" stroke-width="1"/>
      <rect id="Rectángulo_53519" data-name="Rectángulo 53519" width="12.25" height="13.01" transform="translate(278.274 30.523)" fill="#0e8282" stroke="#263238" stroke-linecap="round" stroke-linejoin="round" stroke-width="1"/>
      <rect id="Rectángulo_53520" data-name="Rectángulo 53520" width="12.25" height="13.01" transform="translate(294.258 30.523)" fill="#1b3f5e" stroke="#263238" stroke-linecap="round" stroke-linejoin="round" stroke-width="1"/>
      <rect id="Rectángulo_53521" data-name="Rectángulo 53521" width="12.25" height="13.01" transform="translate(310.24 30.523)" fill="#ffd947" stroke="#263238" stroke-linecap="round" stroke-linejoin="round" stroke-width="1"/>
      <rect id="Rectángulo_53522" data-name="Rectángulo 53522" width="12.25" height="13.009" transform="translate(246.308 50.472)" fill="#0e8282" stroke="#263238" stroke-linecap="round" stroke-linejoin="round" stroke-width="1"/>
      <rect id="Rectángulo_53523" data-name="Rectángulo 53523" width="12.25" height="13.009" transform="translate(262.291 50.472)" fill="#ef6f6c" stroke="#263238" stroke-linecap="round" stroke-linejoin="round" stroke-width="1"/>
      <rect id="Rectángulo_53524" data-name="Rectángulo 53524" width="12.25" height="13.009" transform="translate(278.274 50.472)" fill="#ffd947" stroke="#263238" stroke-linecap="round" stroke-linejoin="round" stroke-width="1"/>
      <rect id="Rectángulo_53525" data-name="Rectángulo 53525" width="12.25" height="13.009" transform="translate(294.258 50.472)" fill="#0e8282" stroke="#263238" stroke-linecap="round" stroke-linejoin="round" stroke-width="1"/>
      <rect id="Rectángulo_53526" data-name="Rectángulo 53526" width="12.25" height="13.009" transform="translate(310.24 50.472)" fill="#ef6f6c" stroke="#263238" stroke-linecap="round" stroke-linejoin="round" stroke-width="1"/>
      <rect id="Rectángulo_53527" data-name="Rectángulo 53527" width="12.25" height="13.009" transform="translate(246.308 73.605)" fill="#1b3f5e" stroke="#263238" stroke-linecap="round" stroke-linejoin="round" stroke-width="1"/>
      <rect id="Rectángulo_53528" data-name="Rectángulo 53528" width="12.25" height="13.009" transform="translate(262.291 73.605)" fill="#ef6f6c" stroke="#263238" stroke-linecap="round" stroke-linejoin="round" stroke-width="1"/>
      <rect id="Rectángulo_53529" data-name="Rectángulo 53529" width="12.25" height="13.009" transform="translate(278.274 73.605)" fill="#ffd947" stroke="#263238" stroke-linecap="round" stroke-linejoin="round" stroke-width="1"/>
      <rect id="Rectángulo_53530" data-name="Rectángulo 53530" width="12.25" height="13.009" transform="translate(294.258 73.605)" fill="#0e8282" stroke="#263238" stroke-linecap="round" stroke-linejoin="round" stroke-width="1"/>
      <rect id="Rectángulo_53531" data-name="Rectángulo 53531" width="12.25" height="13.009" transform="translate(310.24 73.605)" fill="#1b3f5e" stroke="#263238" stroke-linecap="round" stroke-linejoin="round" stroke-width="1"/>
      <path id="Trazado_244687" data-name="Trazado 244687" d="M0,0H82.9V6.938H0Z" transform="translate(242.728 16.213)" fill="#0e8282" stroke="#263238" stroke-linecap="round" stroke-width="1"/>
      <g id="Grupo_592226" data-name="Grupo 592226">
        <g id="Grupo_592225" data-name="Grupo 592225" clip-path="url(#clip-path)">
          <path id="Trazado_244596" data-name="Trazado 244596" d="M589.786,392.289a17.062,17.062,0,0,1-21.533,1.21l-14.944,20.2a42.452,42.452,0,0,0,53.624-3Zm-28.448-12.344a16.7,16.7,0,0,1,6.537-13.258l-15.531-19.778a41.646,41.646,0,0,0-6.133,60.25l19.2-16.288A16.616,16.616,0,0,1,561.338,379.945Zm16.944-41.872a42.9,42.9,0,0,0-10.547,1.315l6.309,24.279a16.97,16.97,0,0,1,21.183,16.278,15.953,15.953,0,0,1-.167,2.351l25.026,3.508a41.593,41.593,0,0,0,.413-5.859A42.043,42.043,0,0,0,578.282,338.073Z" transform="translate(-117.406 -76.136)" fill="#ffd947" stroke="#263238" stroke-linejoin="round" stroke-width="1"/>
          <path id="Trazado_244597" data-name="Trazado 244597" d="M581.459,378.313l-10.408-13.258L555.52,345.277l-4.94-6.285,18.524-8.166,1.8,6.929h.009l6.309,24.28Z" transform="translate(-120.582 -74.504)" fill="#ef6f6c" stroke="#263238" stroke-linejoin="round" stroke-width="1"/>
          <path id="Trazado_244598" data-name="Trazado 244598" d="M579.148,392.116,569.119,405.67l-14.944,20.2-4.879,6.59-9.266-7.147,7.046-5.98,19.2-16.288Z" transform="translate(-118.272 -88.307)" fill="#1b3f5e" stroke="#263238" stroke-linejoin="round" stroke-width="1"/>
          <path id="Trazado_244599" data-name="Trazado 244599" d="M641.083,399.263,627.7,432.456l-8.933-9.593-17.147-18.4-11.5-12.345,16.777,2.351,25.026,3.508Z" transform="translate(-129.242 -88.306)" fill="#0e8282" stroke="#263238" stroke-linejoin="round" stroke-width="1"/>
        </g>
      </g>
      <rect id="Rectángulo_53534" data-name="Rectángulo 53534" width="12.798" height="74.086" transform="translate(97.793 267.055)" fill="#0e8282" stroke="#263238" stroke-linecap="round" stroke-linejoin="round" stroke-width="1"/>
      <rect id="Rectángulo_53535" data-name="Rectángulo 53535" width="12.798" height="45.973" transform="translate(103.62 295.168)" fill="#0e8282" stroke="#263238" stroke-linecap="round" stroke-linejoin="round" stroke-width="1"/>
      <rect id="Rectángulo_53536" data-name="Rectángulo 53536" width="12.798" height="41.012" transform="translate(120.258 300.129)" fill="#0e8282" stroke="#263238" stroke-linecap="round" stroke-linejoin="round" stroke-width="1"/>
      <rect id="Rectángulo_53537" data-name="Rectángulo 53537" width="12.798" height="52.588" transform="translate(136.894 288.553)" fill="#0e8282" stroke="#263238" stroke-linecap="round" stroke-linejoin="round" stroke-width="1"/>
      <rect id="Rectángulo_53538" data-name="Rectángulo 53538" width="12.798" height="54.242" transform="translate(153.532 286.899)" fill="#0e8282" stroke="#263238" stroke-linecap="round" stroke-linejoin="round" stroke-width="1"/>
      <rect id="Rectángulo_53539" data-name="Rectángulo 53539" width="12.798" height="91.174" transform="translate(170.17 249.967)" fill="#0e8282" stroke="#263238" stroke-linecap="round" stroke-linejoin="round" stroke-width="1"/>
      <rect id="Rectángulo_53540" data-name="Rectángulo 53540" width="12.798" height="49.832" transform="translate(186.807 291.309)" fill="#0e8282" stroke="#263238" stroke-linecap="round" stroke-linejoin="round" stroke-width="1"/>
      <rect id="Rectángulo_53541" data-name="Rectángulo 53541" width="12.798" height="64.163" transform="translate(203.444 276.977)" fill="#0e8282" stroke="#263238" stroke-linecap="round" stroke-linejoin="round" stroke-width="1"/>
      <rect id="Rectángulo_53542" data-name="Rectángulo 53542" width="12.798" height="31.09" transform="translate(220.082 310.051)" fill="#0e8282" stroke="#263238" stroke-linecap="round" stroke-linejoin="round" stroke-width="1"/>
      <rect id="Rectángulo_53543" data-name="Rectángulo 53543" width="12.798" height="50.987" transform="translate(236.603 290.154)" fill="#0e8282" stroke="#263238" stroke-linecap="round" stroke-linejoin="round" stroke-width="1"/>
      <rect id="Rectángulo_53544" data-name="Rectángulo 53544" width="12.798" height="49.832" transform="translate(253.241 291.309)" fill="#0e8282" stroke="#263238" stroke-linecap="round" stroke-linejoin="round" stroke-width="1"/>
      <rect id="Rectángulo_53545" data-name="Rectángulo 53545" width="12.798" height="72.536" transform="translate(269.879 268.605)" fill="#0e8282" stroke="#263238" stroke-linecap="round" stroke-linejoin="round" stroke-width="1"/>
      <rect id="Rectángulo_53546" data-name="Rectángulo 53546" width="12.798" height="31.09" transform="translate(286.515 310.051)" fill="#0e8282" stroke="#263238" stroke-linecap="round" stroke-linejoin="round" stroke-width="1"/>
      <line id="Línea_1493" data-name="Línea 1493" x2="18.123" transform="translate(125.309 64.365)" fill="none" stroke="#263238" stroke-linejoin="round" stroke-width="1"/>
      <line id="Línea_1494" data-name="Línea 1494" x2="18.123" transform="translate(125.309 68.642)" fill="none" stroke="#263238" stroke-linejoin="round" stroke-width="1"/>
      <line id="Línea_1495" data-name="Línea 1495" x2="18.123" transform="translate(125.309 76.095)" fill="none" stroke="#263238" stroke-linejoin="round" stroke-width="1"/>
      <path id="Trazado_244600" data-name="Trazado 244600" d="M42.881,43.6V37.982H155.457" transform="translate(-5.327 -2.658)" fill="none" stroke="#263238" stroke-linejoin="round" stroke-width="1"/>
      <line id="Línea_1496" data-name="Línea 1496" y1="9.302" transform="translate(37.554 57.754)" fill="none" stroke="#263238" stroke-linejoin="round" stroke-width="1"/>
      <line id="Línea_1497" data-name="Línea 1497" y1="9.302" transform="translate(37.554 69.126)" fill="none" stroke="#263238" stroke-linejoin="round" stroke-width="1"/>
      <line id="Línea_1498" data-name="Línea 1498" y2="11.501" transform="translate(133.944 29.22)" fill="none" stroke="#263238" stroke-linejoin="round" stroke-width="1"/>
      <line id="Línea_1499" data-name="Línea 1499" y2="5.324" transform="translate(112.142 35.716)" fill="none" stroke="#263238" stroke-linejoin="round" stroke-width="1"/>
      <line id="Línea_1500" data-name="Línea 1500" y2="10.331" transform="translate(96.189 24.559)" fill="none" stroke="#263238" stroke-linejoin="round" stroke-width="1"/>
      <line id="Línea_1501" data-name="Línea 1501" y2="5.324" transform="translate(75.177 35.716)" fill="none" stroke="#263238" stroke-linejoin="round" stroke-width="1"/>
      <rect id="Rectángulo_53547" data-name="Rectángulo 53547" width="36.989" height="20.186" transform="translate(78.342 3.682)" fill="#ef6f6c" stroke="#263238" stroke-linejoin="round" stroke-width="1"/>
      <rect id="Rectángulo_53548" data-name="Rectángulo 53548" width="30.991" height="16.912" transform="translate(22.059 40.78)" fill="#0e8282" stroke="#263238" stroke-linejoin="round" stroke-width="1"/>
      <rect id="Rectángulo_53549" data-name="Rectángulo 53549" width="30.991" height="8.501" transform="translate(22.059 69.956)" fill="#1b3f5e" stroke="#263238" stroke-linejoin="round" stroke-width="1"/>
      <rect id="Rectángulo_53550" data-name="Rectángulo 53550" width="30.991" height="6.649" transform="translate(22.059 78.883)" fill="#1b3f5e" stroke="#263238" stroke-linejoin="round" stroke-width="1"/>
      <rect id="Rectángulo_53551" data-name="Rectángulo 53551" width="27.488" height="16.912" transform="translate(59.606 40.78)" fill="#0e8282" stroke="#263238" stroke-linejoin="round" stroke-width="1"/>
      <rect id="Rectángulo_53552" data-name="Rectángulo 53552" width="24.86" height="16.912" transform="translate(92.206 40.78)" fill="#0e8282" stroke="#263238" stroke-linejoin="round" stroke-width="1"/>
      <rect id="Rectángulo_53553" data-name="Rectángulo 53553" width="30.991" height="16.912" transform="translate(119.342 40.78)" fill="#0e8282" stroke="#263238" stroke-linejoin="round" stroke-width="1"/>
      <rect id="Rectángulo_53554" data-name="Rectángulo 53554" width="30.991" height="16.912" transform="translate(119.342 12.411)" fill="#ffd947" stroke="#263238" stroke-linejoin="round" stroke-width="1"/>
      <path id="Trazado_244601" data-name="Trazado 244601" d="M219.458,62.282l28.285,16.807L244.2,83.95l-25.514-5.839Z" transform="translate(-48.935 -1.67)" fill="#1b3f5e"/>
      <path id="Trazado_244602" data-name="Trazado 244602" d="M219.458,62.282l28.285,16.807L244.2,83.95l-25.514-5.839Z" transform="translate(-48.935 -1.67)" fill="none" stroke="#263238" stroke-linejoin="round" stroke-width="1"/>
      <path id="Trazado_244603" data-name="Trazado 244603" d="M256.717,86.609l-.244-.39,4.08.474,7,1.972-7.412-8.291-8.777-.021-3.544,4.861,5.771,4.461,7.219,1.789-.24-2.3Z" transform="translate(-55.063 -2.262)" fill="#fff"/>
      <path id="Trazado_244604" data-name="Trazado 244604" d="M256.717,86.609l-.244-.39,4.08.474,7,1.972-7.412-8.291-8.777-.021-3.544,4.861,5.771,4.461,7.219,1.789-.24-2.3Z" transform="translate(-55.063 -2.262)" fill="none" stroke="#263238" stroke-linecap="round" stroke-linejoin="round" stroke-width="1"/>
      <line id="Línea_1502" data-name="Línea 1502" x2="0.008" y2="1.7" transform="translate(176.288 81.597)" fill="none" stroke="#263238" stroke-linecap="round" stroke-linejoin="round" stroke-width="1"/>
      <path id="Trazado_244605" data-name="Trazado 244605" d="M166.27,128.73l-2.7,47.834-39.38,23.9,2.72,9.387,58.759-22.091,11.9-42.642Z" transform="translate(-28.816 -33.502)" fill="#263238"/>
      <path id="Trazado_244606" data-name="Trazado 244606" d="M166.27,128.73l-2.7,47.834-39.38,23.9,2.72,9.387,58.759-22.091,11.9-42.642Z" transform="translate(-28.816 -33.502)" fill="none" stroke="#263238" stroke-linecap="round" stroke-linejoin="round" stroke-width="1"/>
      <g id="Grupo_592228" data-name="Grupo 592228">
        <g id="Grupo_592227" data-name="Grupo 592227" clip-path="url(#clip-path)">
          <path id="Trazado_244607" data-name="Trazado 244607" d="M174.81,113.372s-4.285,11.816-3,13.518c8.186,10.828,46.133,27.175,46.133,27.175l29.7,31.5,7.579-6.618-21.212-34.208-23.092-20.558,1.18-5.314Z" transform="translate(-37.576 -25.532)" fill="#263238"/>
          <path id="Trazado_244608" data-name="Trazado 244608" d="M174.81,113.372s-4.285,11.816-3,13.518c8.186,10.828,46.133,27.175,46.133,27.175l29.7,31.5,7.579-6.618-21.212-34.208-23.092-20.558,1.18-5.314Z" transform="translate(-37.576 -25.532)" fill="none" stroke="#263238" stroke-linecap="round" stroke-linejoin="round" stroke-width="1"/>
          <path id="Trazado_244609" data-name="Trazado 244609" d="M224.8,57.356l3.522,7.721a23.359,23.359,0,0,1,2.106,10.163l-.15,7.61-5.622,17.237.767-29.4Z" transform="translate(-49.202 -12.917)" fill="#1b3f5e"/>
          <path id="Trazado_244610" data-name="Trazado 244610" d="M224.8,57.356l3.522,7.721a23.359,23.359,0,0,1,2.106,10.163l-.15,7.61-5.622,17.237.767-29.4Z" transform="translate(-49.202 -12.917)" fill="none" stroke="#263238" stroke-linejoin="round" stroke-width="1"/>
          <path id="Trazado_244611" data-name="Trazado 244611" d="M199.227,43.183,184.7,58.41l-8.987,39.155,37.292,5.5,4.124-31.485-2.938-14.226-.112-3.188,2.609,1.523-3.32-4.816-2.6-3.915Z" transform="translate(-38.484 -9.725)" fill="#fff"/>
          <path id="Trazado_244612" data-name="Trazado 244612" d="M199.227,43.183,184.7,58.41l-8.987,39.155,37.292,5.5,4.124-31.485-2.938-14.226-.112-3.188,2.609,1.523-3.32-4.816-2.6-3.915Z" transform="translate(-38.484 -9.725)" fill="none" stroke="#263238" stroke-linecap="round" stroke-linejoin="round" stroke-width="1"/>
          <path id="Trazado_244613" data-name="Trazado 244613" d="M176.421,115.007l36.55,5.307.193-1.435-35.851-5.464Z" transform="translate(-38.638 -25.542)" fill="#949494"/>
          <path id="Trazado_244614" data-name="Trazado 244614" d="M176.421,115.007l36.55,5.307.193-1.435-35.851-5.464Z" transform="translate(-38.638 -25.542)" fill="none" stroke="#263238" stroke-linecap="round" stroke-linejoin="round" stroke-width="1"/>
          <path id="Trazado_244615" data-name="Trazado 244615" d="M192.014,117.524l.273-1.717,1.457.271-.273,1.988" transform="translate(-42.053 -26.08)" fill="#263238"/>
          <path id="Trazado_244616" data-name="Trazado 244616" d="M192.014,117.524l.273-1.717,1.457.271-.273,1.988" transform="translate(-42.053 -26.08)" fill="none" stroke="#263238" stroke-linecap="round" stroke-linejoin="round" stroke-width="1"/>
          <path id="Trazado_244617" data-name="Trazado 244617" d="M218.838,121.956l.273-1.717,1.457.271-.273,1.988" transform="translate(-47.928 -27.078)" fill="#263238"/>
          <path id="Trazado_244618" data-name="Trazado 244618" d="M218.838,121.956l.273-1.717,1.457.271-.273,1.988" transform="translate(-47.928 -27.078)" fill="none" stroke="#263238" stroke-linecap="round" stroke-linejoin="round" stroke-width="1"/>
          <path id="Trazado_244619" data-name="Trazado 244619" d="M212.3,119.551c-.051.6-.925,1.01-1.953.924s-1.819-.64-1.768-1.237.925-1.01,1.953-.924,1.819.641,1.768,1.237" transform="translate(-45.68 -26.642)" fill="#fff"/>
          <path id="Trazado_244620" data-name="Trazado 244620" d="M212.3,119.551c-.051.6-.925,1.01-1.953.924s-1.819-.64-1.768-1.237.925-1.01,1.953-.924S212.351,118.954,212.3,119.551Z" transform="translate(-45.68 -26.642)" fill="none" stroke="#263238" stroke-linecap="round" stroke-linejoin="round" stroke-width="1"/>
          <path id="Trazado_244621" data-name="Trazado 244621" d="M227.59,79.831l2.427,8.08s.889,10.4.147,12.362-6.7,11.042-6.7,11.042Z" transform="translate(-48.941 -17.978)" fill="#263238"/>
          <path id="Trazado_244622" data-name="Trazado 244622" d="M227.59,79.831l2.427,8.08s.889,10.4.147,12.362-6.7,11.042-6.7,11.042Z" transform="translate(-48.941 -17.978)" fill="none" stroke="#263238" stroke-linecap="round" stroke-linejoin="round" stroke-width="1"/>
          <path id="Trazado_244623" data-name="Trazado 244623" d="M226.832,18.869a45.367,45.367,0,0,0-2.926-7.169c-1.665-3.041-8.751-4.533-12.644-1.892s-4.287,8.747-3.553,10.688S209,30.828,209,30.828l-.751,5.729,10.1,7.275,1.391-9.339s5.309.2,6.094-1.247.765-7.053.765-7.053,1.956-.728,2.045-1.741-1.811-5.583-1.811-5.583" transform="translate(-45.424 -1.901)" fill="#fff"/>
          <path id="Trazado_244624" data-name="Trazado 244624" d="M226.832,18.869a45.367,45.367,0,0,0-2.926-7.169c-1.665-3.041-8.751-4.533-12.644-1.892s-4.287,8.747-3.553,10.688S209,30.828,209,30.828l-.751,5.729,10.1,7.275,1.391-9.339s5.309.2,6.094-1.247.765-7.053.765-7.053,1.956-.728,2.045-1.741S226.832,18.869,226.832,18.869Z" transform="translate(-45.424 -1.901)" fill="none" stroke="#263238" stroke-linecap="round" stroke-linejoin="round" stroke-width="1"/>
          <path id="Trazado_244625" data-name="Trazado 244625" d="M209.9,20.829s1.808,2.376,3.538.527,3.153-3.769,3.582-5.6-3.82-4.417-.462-4.926,4.931,2.715,6.924.3.836-3-6.536-4.708-11.917,1.1-11.456,6.025A62.671,62.671,0,0,0,207.8,23.266Z" transform="translate(-44.997 -1.334)" fill="#263238"/>
          <path id="Trazado_244626" data-name="Trazado 244626" d="M209.9,20.829s1.808,2.376,3.538.527,3.153-3.769,3.582-5.6-3.82-4.417-.462-4.926,4.931,2.715,6.924.3.836-3-6.536-4.708-11.917,1.1-11.456,6.025A62.671,62.671,0,0,0,207.8,23.266Z" transform="translate(-44.997 -1.334)" fill="none" stroke="#263238" stroke-linecap="round" stroke-linejoin="round" stroke-width="1"/>
          <path id="Trazado_244627" data-name="Trazado 244627" d="M229.848,24.9a3.62,3.62,0,1,1-2.7-4.315A3.623,3.623,0,0,1,229.848,24.9Z" transform="translate(-48.773 -4.614)" fill="none" stroke="#263238" stroke-linecap="round" stroke-linejoin="round" stroke-width="1"/>
          <path id="Trazado_244628" data-name="Trazado 244628" d="M232.127,22.011a3.42,3.42,0,0,1,1.351.04,3.371,3.371,0,0,1,.162,6.537" transform="translate(-50.838 -4.946)" fill="none" stroke="#263238" stroke-linecap="round" stroke-linejoin="round" stroke-width="1"/>
          <line id="Línea_1503" data-name="Línea 1503" x1="9.122" y2="0.841" transform="translate(164.899 18.653)" fill="#fff"/>
          <line id="Línea_1504" data-name="Línea 1504" x1="9.122" y2="0.841" transform="translate(164.899 18.653)" fill="none" stroke="#263238" stroke-linecap="round" stroke-linejoin="round" stroke-width="1"/>
          <path id="Trazado_244629" data-name="Trazado 244629" d="M212.426,27.179s-.871-3.89-2.728-3.582-2.294,5.962-.732,6.913a3.772,3.772,0,0,0,3.442-.089s.72,3.265,2.216,4.5" transform="translate(-45.557 -5.31)" fill="#fff"/>
          <path id="Trazado_244630" data-name="Trazado 244630" d="M212.426,27.179s-.871-3.89-2.728-3.582-2.294,5.962-.732,6.913a3.772,3.772,0,0,0,3.442-.089s.72,3.265,2.216,4.5" transform="translate(-45.557 -5.31)" fill="none" stroke="#263238" stroke-linecap="round" stroke-linejoin="round" stroke-width="1"/>
          <path id="Trazado_244631" data-name="Trazado 244631" d="M229.08,24.2c-.127.538-.394.935-.6.889s-.266-.521-.139-1.059.394-.935.6-.889.266.521.139,1.059" transform="translate(-49.995 -5.21)" fill="#263238"/>
          <path id="Trazado_244632" data-name="Trazado 244632" d="M226.173,19.387a3.184,3.184,0,0,1,2.442-.119" transform="translate(-49.534 -4.301)" fill="none" stroke="#263238" stroke-linecap="round" stroke-linejoin="round" stroke-width="1"/>
          <path id="Trazado_244633" data-name="Trazado 244633" d="M230.946,33.032a2.216,2.216,0,0,1-2.271-.611" transform="translate(-50.082 -7.301)" fill="none" stroke="#263238" stroke-linecap="round" stroke-linejoin="round" stroke-width="1"/>
          <path id="Trazado_244634" data-name="Trazado 244634" d="M206.292,39.417l13.4,11.261-4.181,5.395L204,42.153Z" transform="translate(-44.679 -8.877)" fill="#fff"/>
          <path id="Trazado_244635" data-name="Trazado 244635" d="M206.292,39.417l13.4,11.261-4.181,5.395L204,42.153Z" transform="translate(-44.679 -8.877)" fill="none" stroke="#263238" stroke-linecap="round" stroke-linejoin="round" stroke-width="1"/>
          <path id="Trazado_244636" data-name="Trazado 244636" d="M192.777,43.51s7.862,9.17,10.88,16.956c2.027,5.231-1.9,16.061-2.3,17.237-2.3,6.845-33.328,36.347-35.372,37.868S148.6,102.683,148.6,102.683L170.952,81l4.855-18,5.365-13.688s8.391-5.777,11.606-5.8" transform="translate(-32.546 -9.799)" fill="#1b3f5e"/>
          <path id="Trazado_244637" data-name="Trazado 244637" d="M192.777,43.51s7.862,9.17,10.88,16.956c2.027,5.231-1.9,16.061-2.3,17.237-2.3,6.845-33.328,36.347-35.372,37.868S148.6,102.683,148.6,102.683L170.952,81l4.855-18,5.365-13.688S189.563,43.536,192.777,43.51Z" transform="translate(-32.546 -9.799)" fill="none" stroke="#263238" stroke-linejoin="round" stroke-width="1"/>
          <path id="Trazado_244638" data-name="Trazado 244638" d="M188.218,114.026l-19.975,9.315,2.044,8.111Z" transform="translate(-36.847 -25.679)" fill="#92e3a9"/>
          <path id="Trazado_244639" data-name="Trazado 244639" d="M188.218,114.026l-19.975,9.315,2.044,8.111Z" transform="translate(-36.847 -25.679)" fill="#1b3f5e" stroke="#263238" stroke-linejoin="round" stroke-width="1"/>
          <path id="Trazado_244640" data-name="Trazado 244640" d="M210.262,59.18l.767,2.028,4.088,1.521-3.577,1.521,3.577,10.14-.255,6.844" transform="translate(-46.049 -13.328)" fill="none" stroke="#263238" stroke-linecap="round" stroke-linejoin="round" stroke-width="1"/>
          <path id="Trazado_244641" data-name="Trazado 244641" d="M191.674,51.034s-5.4-6.563-6.253-6.253S152.661,54.959,152.1,55.267s-20.264,29.389-20.264,29.389l5.547,3.218,17.036-16.631L183.4,61.22" transform="translate(-28.874 -10.083)" fill="#1b3f5e"/>
          <path id="Trazado_244642" data-name="Trazado 244642" d="M191.674,51.034s-5.4-6.563-6.253-6.253S152.661,54.959,152.1,55.267s-20.264,29.389-20.264,29.389l5.547,3.218,17.036-16.631L183.4,61.22" transform="translate(-28.874 -10.083)" fill="none" stroke="#263238" stroke-linejoin="round" stroke-width="1"/>
          <path id="Trazado_244643" data-name="Trazado 244643" d="M161.706,73.47l-1.075,3.461-.437-6.9" transform="translate(-35.084 -15.771)" fill="none" stroke="#263238" stroke-linecap="round" stroke-linejoin="round" stroke-width="1"/>
          <path id="Trazado_244644" data-name="Trazado 244644" d="M204.633,58.773l1.414,2.137s-6.506,11.476-11.928,12.568-19.967-1.02-19.967-1.02l-19.5,2.918-6.5,4.108,7.477,4.543,19.943-7.375,18.817,1.475,13.386-16.235.562-5.211-1.284-1.274Z" transform="translate(-32.448 -12.478)" fill="#263238"/>
          <path id="Trazado_244645" data-name="Trazado 244645" d="M204.633,58.773l1.414,2.137s-6.506,11.476-11.928,12.568-19.967-1.02-19.967-1.02l-19.5,2.918-6.5,4.108,7.477,4.543,19.943-7.375,18.817,1.475,13.386-16.235.562-5.211-1.284-1.274Z" transform="translate(-32.448 -12.478)" fill="none" stroke="#263238" stroke-linecap="round" stroke-linejoin="round" stroke-width="1"/>
          <path id="Trazado_244646" data-name="Trazado 244646" d="M122.087,111.847c-.032-.009-.065-.021-.1-.033a1.1,1.1,0,0,1-.62-1.435c.905-2.245,3.8-6.116,8.311-4.6,4.341,1.443,4.228,6.008,3.563,8.219a1.113,1.113,0,0,1-1.385.741,1.1,1.1,0,0,1-.747-1.373c.052-.175,1.243-4.37-2.138-5.494-3.693-1.2-5.464,3.138-5.539,3.324a1.115,1.115,0,0,1-1.35.648" transform="translate(-26.564 -23.745)" fill="#263238"/>
          <path id="Trazado_244647" data-name="Trazado 244647" d="M132.059,145.371l-37.55-11.123,9.834-26.5,34.136,10.113Z" transform="translate(-20.698 -24.266)" fill="#949494"/>
          <path id="Trazado_244648" data-name="Trazado 244648" d="M132.059,145.371l-37.55-11.123,9.834-26.5,34.136,10.113Z" transform="translate(-20.698 -24.266)" fill="none" stroke="#263238" stroke-linecap="round" stroke-linejoin="round" stroke-width="1"/>
          <path id="Trazado_244649" data-name="Trazado 244649" d="M107.8,110.828l10.614,13.784a4.1,4.1,0,0,0,4.678,1.333l16.573-6.165" transform="translate(-23.61 -24.959)" fill="none" stroke="#263238" stroke-linecap="round" stroke-linejoin="round" stroke-width="1"/>
          <path id="Trazado_244650" data-name="Trazado 244650" d="M136.081,99.467l.316,4.338-.784,4.359s-.314,1.4-.785,1.4-1.413-1.09-1.413-1.09v-1.09l-.941,2.18a5.457,5.457,0,0,1-2.669-.156c-.784-.467-.784-2.336-.784-2.336l-2.982-3.114-.157-1.868,4.652-5.843Z" transform="translate(-27.569 -21.676)" fill="#fff"/>
          <path id="Trazado_244651" data-name="Trazado 244651" d="M136.081,99.467l.316,4.338-.784,4.359s-.314,1.4-.785,1.4-1.413-1.09-1.413-1.09v-1.09l-.941,2.18a5.457,5.457,0,0,1-2.669-.156c-.784-.467-.784-2.336-.784-2.336l-2.982-3.114-.157-1.868,4.652-5.843Z" transform="translate(-27.569 -21.676)" fill="none" stroke="#263238" stroke-linecap="round" stroke-linejoin="round" stroke-width="1"/>
          <path id="Trazado_244652" data-name="Trazado 244652" d="M276.525,196.969l7.046-1.325s8.5-2.951,8.712-2.108-9.349,9.064-9.987,9.907-7.437,2.74-7.437,2.74l1.062,1.686-4.674,2.108a5.814,5.814,0,0,1-1.913-2.319,7.454,7.454,0,0,1-.39-4.073Z" transform="translate(-58.874 -43.551)" fill="#949494"/>
          <path id="Trazado_244653" data-name="Trazado 244653" d="M276.525,196.969l7.046-1.325s8.5-2.951,8.712-2.108-9.349,9.064-9.987,9.907-7.437,2.74-7.437,2.74l1.062,1.686-4.674,2.108a5.814,5.814,0,0,1-1.913-2.319,7.454,7.454,0,0,1-.39-4.073Z" transform="translate(-58.874 -43.551)" fill="none" stroke="#263238" stroke-linecap="round" stroke-linejoin="round" stroke-width="1"/>
          <path id="Trazado_244654" data-name="Trazado 244654" d="M122.043,205.555l-2.362-1.045-3.4,1.9-1.912,1.264,1.7,4.426h1.913l1.487,3.794a15.959,15.959,0,0,0-.212,3.583c.212.844,5.525,6.745,6.374,5.9s-1.062-8.01-1.062-8.642-.1-3.361-.1-3.361Z" transform="translate(-25.048 -46.057)" fill="#949494"/>
          <path id="Trazado_244655" data-name="Trazado 244655" d="M122.043,205.555l-2.362-1.045-3.4,1.9-1.912,1.264,1.7,4.426h1.913l1.487,3.794a15.959,15.959,0,0,0-.212,3.583c.212.844,5.525,6.745,6.374,5.9s-1.062-8.01-1.062-8.642-.1-3.361-.1-3.361Z" transform="translate(-25.048 -46.057)" fill="none" stroke="#263238" stroke-linecap="round" stroke-linejoin="round" stroke-width="1"/>
        </g>
      </g>
      <g id="Grupo_592230" data-name="Grupo 592230">
        <g id="Grupo_592229" data-name="Grupo 592229" clip-path="url(#clip-path)">
          <path id="Trazado_244656" data-name="Trazado 244656" d="M402.172,268.811l26.853,13.75s17.324,14.953,19.576,17.358,4.158,6.531,5.2,9.969,5.024,31.967,5.024,31.967l11.954,50.874-43.484,11s-12.82-39.014-13.34-40.045-16.458-11.859-22.348-20.8-6.756-12.2-6.756-12.2l6.583-23.718L395.069,297l1.386-27.842Z" transform="translate(-84.285 -60.538)" fill="#fff"/>
          <path id="Trazado_244657" data-name="Trazado 244657" d="M402.172,268.811l26.853,13.75s17.324,14.953,19.576,17.358,4.158,6.531,5.2,9.969,5.024,31.967,5.024,31.967l11.954,50.874-43.484,11s-12.82-39.014-13.34-40.045-16.458-11.859-22.348-20.8-6.756-12.2-6.756-12.2l6.583-23.718L395.069,297l1.386-27.842Z" transform="translate(-84.285 -60.538)" fill="none" stroke="#263238" stroke-linejoin="round" stroke-width="1"/>
          <path id="Trazado_244658" data-name="Trazado 244658" d="M420.163,274.154a80.545,80.545,0,0,0,2.741,11.374c1.5,3.956,6.425,8.408,5.982,12.363s-2.492,14.588,1.745,16.566c0,0,7.976-15.577,6.979-18.05s-15.453-24.726-15.453-24.726Z" transform="translate(-92.02 -61.184)" fill="#263238"/>
          <path id="Trazado_244659" data-name="Trazado 244659" d="M420.163,274.154a80.545,80.545,0,0,0,2.741,11.374c1.5,3.956,6.425,8.408,5.982,12.363s-2.492,14.588,1.745,16.566c0,0,7.976-15.577,6.979-18.05s-15.453-24.726-15.453-24.726Z" transform="translate(-92.02 -61.184)" fill="none" stroke="#263238" stroke-linejoin="round" stroke-width="1"/>
          <path id="Trazado_244660" data-name="Trazado 244660" d="M387.1,337.431l12.366,6.87a13.871,13.871,0,0,1,8.724,1.977s6.978,0,10.218-1.483,1.36-12.184,1.36-12.184,5.119-8.338,4.372-11.553S418.9,312.9,418.9,312.9l-7.477-10.88s2.244-3.215,2.244-5.934-4.736-7.171-4.736-7.171Z" transform="translate(-84.778 -65.065)" fill="#263238"/>
          <path id="Trazado_244661" data-name="Trazado 244661" d="M387.1,337.431l12.366,6.87a13.871,13.871,0,0,1,8.724,1.977s6.978,0,10.218-1.483,1.36-12.184,1.36-12.184,5.119-8.338,4.372-11.553S418.9,312.9,418.9,312.9l-7.477-10.88s2.244-3.215,2.244-5.934-4.736-7.171-4.736-7.171Z" transform="translate(-84.778 -65.065)" fill="none" stroke="#263238" stroke-linejoin="round" stroke-width="1"/>
          <path id="Trazado_244662" data-name="Trazado 244662" d="M403.581,219.461s2.323,4.416,2.323,7.488-4.035,111.018-4.035,111.018l9.1,1.152,5-112.938s.774-5.376,4.645-8.064Z" transform="translate(-88.013 -49.121)" fill="#b8b8b8"/>
          <path id="Trazado_244663" data-name="Trazado 244663" d="M403.581,219.461s2.323,4.416,2.323,7.488-4.035,111.018-4.035,111.018l9.1,1.152,5-112.938s.774-5.376,4.645-8.064Z" transform="translate(-88.013 -49.121)" fill="none" stroke="#263238" stroke-linecap="round" stroke-linejoin="round" stroke-width="1"/>
          <path id="Trazado_244664" data-name="Trazado 244664" d="M401.16,191.818l1.831,10.474a12.035,12.035,0,0,0,7.48,1.192,8.446,8.446,0,0,0,6.145-4.373l-1.649-11a2.039,2.039,0,0,1,2,.271c2.611,2.262,7.626,8.21,7.927,13.378.4,6.89-4.482,11.022-12.289,12.456-10.82,1.987-14.694-4.373-15.9-7.024s1.8-13.086,2.27-14.047c.418-.851,2.177-1.33,2.177-1.33" transform="translate(-86.822 -42.33)" fill="#949494"/>
          <path id="Trazado_244665" data-name="Trazado 244665" d="M401.16,191.818l1.831,10.474a12.035,12.035,0,0,0,7.48,1.192,8.446,8.446,0,0,0,6.145-4.373l-1.649-11a2.039,2.039,0,0,1,2,.271c2.611,2.262,7.626,8.21,7.927,13.378.4,6.89-4.482,11.022-12.289,12.456-10.82,1.987-14.694-4.373-15.9-7.024s1.8-13.086,2.27-14.047C399.4,192.3,401.16,191.818,401.16,191.818Z" transform="translate(-86.822 -42.33)" fill="none" stroke="#263238" stroke-linecap="round" stroke-linejoin="round" stroke-width="1"/>
          <path id="Trazado_244666" data-name="Trazado 244666" d="M404.541,371.764a10.108,10.108,0,1,0,9.909,10.106,10.01,10.01,0,0,0-9.909-10.106M411.029,384c-.24.763.562,2.035.113,2.672s-1.938.336-2.568.81-.73,1.975-1.489,2.229c-.735.247-1.729-.878-2.544-.878s-1.811,1.125-2.546.878c-.758-.254-.859-1.756-1.489-2.229s-2.111-.162-2.567-.81.353-1.909.113-2.672c-.23-.732-1.628-1.321-1.628-2.131s1.4-1.4,1.628-2.132c.24-.763-.562-2.035-.113-2.672s1.938-.336,2.568-.81.73-1.974,1.489-2.229c.735-.246,1.729.878,2.545.878s1.81-1.124,2.545-.878c.758.255.859,1.756,1.488,2.23s2.112.161,2.568.81-.353,1.909-.113,2.672c.23.733,1.628,1.321,1.628,2.132s-1.4,1.4-1.628,2.131" transform="translate(-86.428 -83.723)" fill="#b8b8b8"/>
          <path id="Trazado_244667" data-name="Trazado 244667" d="M404.541,371.764a10.108,10.108,0,1,0,9.909,10.106A10.01,10.01,0,0,0,404.541,371.764ZM411.029,384c-.24.763.562,2.035.113,2.672s-1.938.336-2.568.81-.73,1.975-1.489,2.229c-.735.247-1.729-.878-2.544-.878s-1.811,1.125-2.546.878c-.758-.254-.859-1.756-1.489-2.229s-2.111-.162-2.567-.81.353-1.909.113-2.672c-.23-.732-1.628-1.321-1.628-2.131s1.4-1.4,1.628-2.132c.24-.763-.562-2.035-.113-2.672s1.938-.336,2.568-.81.73-1.974,1.489-2.229c.735-.246,1.729.878,2.545.878s1.81-1.124,2.545-.878c.758.255.859,1.756,1.488,2.23s2.112.161,2.568.81-.353,1.909-.113,2.672c.23.733,1.628,1.321,1.628,2.132S411.259,383.27,411.029,384Z" transform="translate(-86.428 -83.723)" fill="none" stroke="#263238" stroke-linecap="round" stroke-linejoin="round" stroke-width="1"/>
          <path id="Trazado_244668" data-name="Trazado 244668" d="M385.691,331.8s-2.68,6.98-2.68,10.138-.587,3.49,3.183,5.152,20.439,5.651,23.371,6.067,6.617.665,8.125-.5,3.183-4.57,2.01-7.064a6.964,6.964,0,0,0-3.937-3.324l-13.235-2.659Z" transform="translate(-83.876 -74.723)" fill="#fff"/>
          <path id="Trazado_244669" data-name="Trazado 244669" d="M385.691,331.8s-2.68,6.98-2.68,10.138-.587,3.49,3.183,5.152,20.439,5.651,23.371,6.067,6.617.665,8.125-.5,3.183-4.57,2.01-7.064a6.964,6.964,0,0,0-3.937-3.324l-13.235-2.659Z" transform="translate(-83.876 -74.723)" fill="none" stroke="#263238" stroke-linejoin="round" stroke-width="1"/>
          <path id="Trazado_244670" data-name="Trazado 244670" d="M423.62,356.2a4.537,4.537,0,0,1-2.095-.748,17.782,17.782,0,0,0,.838-2.244c.334-1.164.921-4.571.921-4.571s3.015,0,4.106.914" transform="translate(-92.318 -78.515)" fill="none" stroke="#263238" stroke-linejoin="round" stroke-width="1"/>
          <path id="Trazado_244671" data-name="Trazado 244671" d="M391.058,312.385s-3.937,1-4.691,3.49-2.095,8.227-1.089,10.471,18.261,9.141,18.261,9.141,13.738,2.659,15.748,2.41,3.1-3.906,2.6-6.9-.419-5.235-2.848-6.149-7.455-2.41-8.377-2.66-6.7-2.991-6.7-2.991Z" transform="translate(-84.301 -70.351)" fill="#fff"/>
          <path id="Trazado_244672" data-name="Trazado 244672" d="M391.058,312.385s-3.937,1-4.691,3.49-2.095,8.227-1.089,10.471,18.261,9.141,18.261,9.141,13.738,2.659,15.748,2.41,3.1-3.906,2.6-6.9-.419-5.235-2.848-6.149-7.455-2.41-8.377-2.66-6.7-2.991-6.7-2.991Z" transform="translate(-84.301 -70.351)" fill="none" stroke="#263238" stroke-linejoin="round" stroke-width="1"/>
          <path id="Trazado_244673" data-name="Trazado 244673" d="M429.668,331.142a2.627,2.627,0,0,0-2.345-.249,12.116,12.116,0,0,1-.084,4.9,16.452,16.452,0,0,1-1.424,4.4,20.17,20.17,0,0,0,3.183.582" transform="translate(-93.258 -74.482)" fill="none" stroke="#263238" stroke-linejoin="round" stroke-width="1"/>
          <path id="Trazado_244674" data-name="Trazado 244674" d="M389.526,288.924s-5.54,2.159-5.738,5.888-.4,7.263,1.583,8.637,12.465,9.03,16.818,10.207,14.106,2.279,16.283,1.3,3.957-6.085,1.978-9.226-11.534-6.99-12.325-7.382-4.749-2.944-4.749-2.944Z" transform="translate(-84.027 -65.067)" fill="#fff"/>
          <path id="Trazado_244675" data-name="Trazado 244675" d="M389.526,288.924s-5.54,2.159-5.738,5.888-.4,7.263,1.583,8.637,12.465,9.03,16.818,10.207,14.106,2.279,16.283,1.3,3.957-6.085,1.978-9.226-11.534-6.99-12.325-7.382-4.749-2.944-4.749-2.944Z" transform="translate(-84.027 -65.067)" fill="none" stroke="#263238" stroke-linejoin="round" stroke-width="1"/>
          <path id="Trazado_244676" data-name="Trazado 244676" d="M428.506,310.518a13.388,13.388,0,0,0-4.033-.29c-2.346.167-2.848.665-2.848.665s1.005,3.823.084,5.817-1.257,2.576-1.257,2.576,4.193,1.33,6.075.457" transform="translate(-92.083 -69.857)" fill="none" stroke="#263238" stroke-linejoin="round" stroke-width="1"/>
          <path id="Trazado_244677" data-name="Trazado 244677" d="M401.969,267.322s-4.947-1.963-6.727-.785-4.748,8.244-5.144,12.563,2.77,6.281,4.551,7.066,8.311,3.534,9.7,4.123,7.915,3.14,8.9-3.337-6.134-10.8-7.519-11.582a10.186,10.186,0,0,1-2.573-2.355Z" transform="translate(-85.428 -59.941)" fill="#fff"/>
          <path id="Trazado_244678" data-name="Trazado 244678" d="M401.969,267.322s-4.947-1.963-6.727-.785-4.748,8.244-5.144,12.563,2.77,6.281,4.551,7.066,8.311,3.534,9.7,4.123,7.915,3.14,8.9-3.337-6.134-10.8-7.519-11.582a10.186,10.186,0,0,1-2.573-2.355Z" transform="translate(-85.428 -59.941)" fill="none" stroke="#263238" stroke-linejoin="round" stroke-width="1"/>
          <path id="Trazado_244679" data-name="Trazado 244679" d="M416.4,287.635s-6.282-3.075-7.707-1.5-2.345,5.9-1.675,6.9,4.188,2.576,5.445,2.493" transform="translate(-89.093 -64.338)" fill="none" stroke="#263238" stroke-linejoin="round" stroke-width="1"/>
          <path id="Trazado_244680" data-name="Trazado 244680" d="M460,302.712s-6.245-12.7-10.147-17.191-16.7-18.741-19.358-21.993S426.9,253,424.557,250.674s-5.62,1.7-6.4,8.982,3.279,14.249,5.621,16.882,7.649,12.855,8.742,16.727-7.494,20.289-3.122,32.833,13.581,12.391,13.581,12.391" transform="translate(-91.559 -56.305)" fill="#fff"/>
          <path id="Trazado_244681" data-name="Trazado 244681" d="M460,302.712s-6.245-12.7-10.147-17.191-16.7-18.741-19.358-21.993S426.9,253,424.557,250.674s-5.62,1.7-6.4,8.982,3.279,14.249,5.621,16.882,7.649,12.855,8.742,16.727-7.494,20.289-3.122,32.833,13.581,12.391,13.581,12.391" transform="translate(-91.559 -56.305)" fill="none" stroke="#263238" stroke-linejoin="round" stroke-width="1"/>
          <path id="Trazado_244682" data-name="Trazado 244682" d="M425.06,250.656s-.8,1.873-.871,2.088a11.436,11.436,0,0,0,1.887,5.761c1.6,2.088,3.194,1.224,3.411.5" transform="translate(-92.9 -56.449)" fill="none" stroke="#263238" stroke-linejoin="round" stroke-width="1"/>
          <path id="Trazado_244683" data-name="Trazado 244683" d="M478.727,391.951l-55.96,29.219,3.928,14.61,57.923-23.862Z" transform="translate(-92.59 -88.269)" fill="#fff"/>
          <path id="Trazado_244684" data-name="Trazado 244684" d="M478.727,391.951l-55.96,29.219,3.928,14.61,57.923-23.862Z" transform="translate(-92.59 -88.269)" fill="none" stroke="#263238" stroke-linejoin="round" stroke-width="1"/>
          <path id="Trazado_244685" data-name="Trazado 244685" d="M482.888,408.922,417.11,439.6l3.927,18.992h71.668Z" transform="translate(-91.351 -92.091)" fill="#263238"/>
          <path id="Trazado_244686" data-name="Trazado 244686" d="M482.888,408.922,417.11,439.6l3.927,18.992h71.668Z" transform="translate(-91.351 -92.091)" fill="none" stroke="#263238" stroke-linejoin="round" stroke-width="1"/>
        </g>
      </g>
    </g>
  </g>
</svg>
