<svg xmlns="http://www.w3.org/2000/svg" width="1077.141" height="402" viewBox="0 0 1077.141 402">
  <g id="Grupo_593157" data-name="Grupo 593157" transform="translate(2167.141 2875)">
    <path id="Trazado_226775" data-name="Trazado 226775" d="M28.623,0H1048.517c15.808,0,28.623,8.507,28.623,19V383c0,10.493-12.815,19-28.623,19H28.623C12.815,402,0,393.493,0,383V19C0,8.507,12.815,0,28.623,0Z" transform="translate(-2167.141 -2875)" fill="#7cbbbb"/>
    <path id="Trazado_246528" data-name="Trazado 246528" d="M69,39,0,0" transform="translate(-1480.5 -2649.5)" fill="none" stroke="#fff" stroke-width="3"/>
    <path id="Trazado_246533" data-name="Trazado 246533" d="M77,0,0,41" transform="translate(-1480.5 -2744.5)" fill="none" stroke="#fff" stroke-width="3"/>
    <path id="Trazado_246532" data-name="Trazado 246532" d="M63,45,0,0" transform="translate(-1292.5 -2744.5)" fill="none" stroke="#fff" stroke-width="3"/>
    <path id="Trazado_246524" data-name="Trazado 246524" d="M0,43,69,0" transform="translate(-1301.5 -2649.5)" fill="none" stroke="#fff" stroke-width="3"/>
    <g id="Trazado_246525" data-name="Trazado 246525" transform="translate(-1260 -2721)" fill="#0e8282">
      <path d="M 143 93.5 L 19 93.5 C 16.50230026245117 93.5 14.07958030700684 93.01094055175781 11.79911994934082 92.04637908935547 C 9.596220016479492 91.11463928222656 7.617700099945068 89.7806396484375 5.918519973754883 88.08148193359375 C 4.219359874725342 86.38230133056641 2.8853600025177 84.40377807617188 1.953619956970215 82.20088195800781 C 0.9890599846839905 79.92041778564453 0.5 77.49770355224609 0.5 75 L 0.5 19 C 0.5 16.50230026245117 0.9890599846839905 14.07956027984619 1.953619956970215 11.79911994934082 C 2.8853600025177 9.596199989318848 4.219359874725342 7.617680072784424 5.918519973754883 5.918519973754883 C 7.617700099945068 4.219359874725342 9.596220016479492 2.8853600025177 11.79911994934082 1.953619956970215 C 14.07958030700684 0.9890599846839905 16.50230026245117 0.5 19 0.5 L 143 0.5 C 145.4976959228516 0.5 147.9204406738281 0.9890599846839905 150.2008819580078 1.953619956970215 C 152.4037933349609 2.8853600025177 154.38232421875 4.219359874725342 156.0814819335938 5.918519973754883 C 157.7806396484375 7.617680072784424 159.1146392822266 9.596199989318848 160.04638671875 11.79911994934082 C 161.0109405517578 14.07956027984619 161.5 16.50230026245117 161.5 19 L 161.5 75 C 161.5 77.49770355224609 161.0109405517578 79.92041778564453 160.04638671875 82.20088195800781 C 159.1146392822266 84.40377807617188 157.7806396484375 86.38230133056641 156.0814819335938 88.08148193359375 C 154.38232421875 89.7806396484375 152.4037933349609 91.11463928222656 150.2008819580078 92.04637908935547 C 147.9204406738281 93.01094055175781 145.4976959228516 93.5 143 93.5 Z" stroke="none"/>
      <path d="M 19 1 C 14.1920166015625 1 9.671829223632812 2.872329711914062 6.272079467773438 6.272087097167969 C 2.872329711914062 9.671836853027344 1 14.19202423095703 1 19 L 1 75 C 1 79.8079833984375 2.872329711914062 84.32817077636719 6.272079467773438 87.72792053222656 C 9.671829223632812 91.12767028808594 14.1920166015625 93 19 93 L 143 93 C 147.8079833984375 93 152.3281707763672 91.12767028808594 155.7279205322266 87.72792053222656 C 159.1276702880859 84.32817077636719 161 79.8079833984375 161 75 L 161 19 C 161 14.19202423095703 159.1276702880859 9.671836853027344 155.7279205322266 6.272087097167969 C 152.3281707763672 2.872329711914062 147.8079833984375 1 143 1 L 19 1 M 19 0 L 143 0 C 153.4933929443359 0 162 8.506584167480469 162 19 L 162 75 C 162 85.49341583251953 153.4933929443359 94 143 94 L 19 94 C 8.506576538085938 94 0 85.49341583251953 0 75 L 0 19 C 0 8.506584167480469 8.506576538085938 0 19 0 Z" stroke="none" fill="#f5f5f5"/>
    </g>
    <g id="Trazado_246534" data-name="Trazado 246534" transform="translate(-1430 -2815)" fill="#0e8282">
      <path d="M 143 93.5 L 19 93.5 C 16.50230026245117 93.5 14.07958030700684 93.01094055175781 11.79911994934082 92.04637908935547 C 9.596220016479492 91.11463928222656 7.617700099945068 89.7806396484375 5.918519973754883 88.08148193359375 C 4.219359874725342 86.38230133056641 2.8853600025177 84.40377807617188 1.953619956970215 82.20088195800781 C 0.9890599846839905 79.92041778564453 0.5 77.49770355224609 0.5 75 L 0.5 19 C 0.5 16.50230026245117 0.9890599846839905 14.07956027984619 1.953619956970215 11.79911994934082 C 2.8853600025177 9.596199989318848 4.219359874725342 7.617680072784424 5.918519973754883 5.918519973754883 C 7.617700099945068 4.219359874725342 9.596220016479492 2.8853600025177 11.79911994934082 1.953619956970215 C 14.07958030700684 0.9890599846839905 16.50230026245117 0.5 19 0.5 L 143 0.5 C 145.4976959228516 0.5 147.9204406738281 0.9890599846839905 150.2008819580078 1.953619956970215 C 152.4037933349609 2.8853600025177 154.38232421875 4.219359874725342 156.0814819335938 5.918519973754883 C 157.7806396484375 7.617680072784424 159.1146392822266 9.596199989318848 160.04638671875 11.79911994934082 C 161.0109405517578 14.07956027984619 161.5 16.50230026245117 161.5 19 L 161.5 75 C 161.5 77.49770355224609 161.0109405517578 79.92041778564453 160.04638671875 82.20088195800781 C 159.1146392822266 84.40377807617188 157.7806396484375 86.38230133056641 156.0814819335938 88.08148193359375 C 154.38232421875 89.7806396484375 152.4037933349609 91.11463928222656 150.2008819580078 92.04637908935547 C 147.9204406738281 93.01094055175781 145.4976959228516 93.5 143 93.5 Z" stroke="none"/>
      <path d="M 19 1 C 14.1920166015625 1 9.671829223632812 2.872329711914062 6.272079467773438 6.272087097167969 C 2.872329711914062 9.671836853027344 1 14.19202423095703 1 19 L 1 75 C 1 79.8079833984375 2.872329711914062 84.32817077636719 6.272079467773438 87.72792053222656 C 9.671829223632812 91.12767028808594 14.1920166015625 93 19 93 L 143 93 C 147.8079833984375 93 152.3281707763672 91.12767028808594 155.7279205322266 87.72792053222656 C 159.1276702880859 84.32817077636719 161 79.8079833984375 161 75 L 161 19 C 161 14.19202423095703 159.1276702880859 9.671836853027344 155.7279205322266 6.272087097167969 C 152.3281707763672 2.872329711914062 147.8079833984375 1 143 1 L 19 1 M 19 0 L 143 0 C 153.4933929443359 0 162 8.506584167480469 162 19 L 162 75 C 162 85.49341583251953 153.4933929443359 94 143 94 L 19 94 C 8.506576538085938 94 0 85.49341583251953 0 75 L 0 19 C 0 8.506584167480469 8.506576538085938 0 19 0 Z" stroke="none" fill="#f5f5f5"/>
    </g>
    <g id="Trazado_246523" data-name="Trazado 246523" transform="translate(-1430 -2628)" fill="#0e8282">
      <path d="M 143 93.5 L 19 93.5 C 16.50230026245117 93.5 14.07958030700684 93.01094055175781 11.79911994934082 92.04637908935547 C 9.596220016479492 91.11463928222656 7.617700099945068 89.7806396484375 5.918519973754883 88.08148193359375 C 4.219359874725342 86.38230133056641 2.8853600025177 84.40377807617188 1.953619956970215 82.20088195800781 C 0.9890599846839905 79.92041778564453 0.5 77.49770355224609 0.5 75 L 0.5 19 C 0.5 16.50230026245117 0.9890599846839905 14.07956027984619 1.953619956970215 11.79911994934082 C 2.8853600025177 9.596199989318848 4.219359874725342 7.617680072784424 5.918519973754883 5.918519973754883 C 7.617700099945068 4.219359874725342 9.596220016479492 2.8853600025177 11.79911994934082 1.953619956970215 C 14.07958030700684 0.9890599846839905 16.50230026245117 0.5 19 0.5 L 143 0.5 C 145.4976959228516 0.5 147.9204406738281 0.9890599846839905 150.2008819580078 1.953619956970215 C 152.4037933349609 2.8853600025177 154.38232421875 4.219359874725342 156.0814819335938 5.918519973754883 C 157.7806396484375 7.617680072784424 159.1146392822266 9.596199989318848 160.04638671875 11.79911994934082 C 161.0109405517578 14.07956027984619 161.5 16.50230026245117 161.5 19 L 161.5 75 C 161.5 77.49770355224609 161.0109405517578 79.92041778564453 160.04638671875 82.20088195800781 C 159.1146392822266 84.40377807617188 157.7806396484375 86.38230133056641 156.0814819335938 88.08148193359375 C 154.38232421875 89.7806396484375 152.4037933349609 91.11463928222656 150.2008819580078 92.04637908935547 C 147.9204406738281 93.01094055175781 145.4976959228516 93.5 143 93.5 Z" stroke="none"/>
      <path d="M 19 1 C 14.1920166015625 1 9.671829223632812 2.872329711914062 6.272079467773438 6.272087097167969 C 2.872329711914062 9.671836853027344 1 14.19202423095703 1 19 L 1 75 C 1 79.8079833984375 2.872329711914062 84.32817077636719 6.272079467773438 87.72792053222656 C 9.671829223632812 91.12767028808594 14.1920166015625 93 19 93 L 143 93 C 147.8079833984375 93 152.3281707763672 91.12767028808594 155.7279205322266 87.72792053222656 C 159.1276702880859 84.32817077636719 161 79.8079833984375 161 75 L 161 19 C 161 14.19202423095703 159.1276702880859 9.671836853027344 155.7279205322266 6.272087097167969 C 152.3281707763672 2.872329711914062 147.8079833984375 1 143 1 L 19 1 M 19 0 L 143 0 C 153.4933929443359 0 162 8.506584167480469 162 19 L 162 75 C 162 85.49341583251953 153.4933929443359 94 143 94 L 19 94 C 8.506576538085938 94 0 85.49341583251953 0 75 L 0 19 C 0 8.506584167480469 8.506576538085938 0 19 0 Z" stroke="none" fill="#f5f5f5"/>
    </g>
    <path id="Trazado_246526" data-name="Trazado 246526" d="M1.859-9.96v1.073H1.627a3.33,3.33,0,0,0-2.352.875A3.641,3.641,0,0,0-1.736-5.626a2.7,2.7,0,0,1,2.146-.9,2.581,2.581,0,0,1,2.075.916,3.533,3.533,0,0,1,.776,2.365A3.522,3.522,0,0,1,2.423-.786,2.883,2.883,0,0,1,.178.137,2.841,2.841,0,0,1-2.14-.96a4.348,4.348,0,0,1-.889-2.827v-.485a6.552,6.552,0,0,1,1.172-4.2A4.306,4.306,0,0,1,1.634-9.96ZM.2-5.476a2.018,2.018,0,0,0-1.2.39,2.03,2.03,0,0,0-.759.978v.465A3.265,3.265,0,0,0-1.2-1.661,1.659,1.659,0,0,0,.178-.909a1.608,1.608,0,0,0,1.343-.629A2.61,2.61,0,0,0,2.01-3.186a2.61,2.61,0,0,0-.5-1.658A1.589,1.589,0,0,0,.2-5.476ZM-30.946,17.1V21h-1.312V11.047h3.671a3.688,3.688,0,0,1,2.56.834,2.827,2.827,0,0,1,.926,2.208,2.79,2.79,0,0,1-.906,2.232A3.853,3.853,0,0,1-28.6,17.1Zm0-1.073h2.358a2.358,2.358,0,0,0,1.613-.5,1.815,1.815,0,0,0,.561-1.435,1.876,1.876,0,0,0-.561-1.424,2.209,2.209,0,0,0-1.538-.555h-2.434Zm10.9-1.292a3.79,3.79,0,0,0-.622-.048,1.667,1.667,0,0,0-1.688,1.06V21h-1.265V13.6h1.23l.021.854a1.969,1.969,0,0,1,1.764-.991,1.292,1.292,0,0,1,.561.1Zm4.231,6.4a3.232,3.232,0,0,1-2.447-.988,3.666,3.666,0,0,1-.943-2.642v-.232a4.438,4.438,0,0,1,.42-1.965,3.28,3.28,0,0,1,1.176-1.354,2.956,2.956,0,0,1,1.637-.489,2.77,2.77,0,0,1,2.242.95,4.114,4.114,0,0,1,.8,2.721v.526h-5.011a2.629,2.629,0,0,0,.639,1.767,2.009,2.009,0,0,0,1.555.673,2.2,2.2,0,0,0,1.135-.273,2.851,2.851,0,0,0,.813-.725l.772.6A3.106,3.106,0,0,1-15.818,21.137Zm-.157-6.631a1.687,1.687,0,0,0-1.285.557,2.708,2.708,0,0,0-.643,1.562H-14.2v-.1a2.409,2.409,0,0,0-.52-1.494A1.588,1.588,0,0,0-15.976,14.506Zm8.812,4.532a.931.931,0,0,0-.386-.8A3.718,3.718,0,0,0-8.9,17.753a6.367,6.367,0,0,1-1.524-.492,2.169,2.169,0,0,1-.834-.684,1.635,1.635,0,0,1-.27-.943,1.919,1.919,0,0,1,.769-1.538,3,3,0,0,1,1.965-.629,3.091,3.091,0,0,1,2.041.649,2.063,2.063,0,0,1,.783,1.661H-7.239a1.142,1.142,0,0,0-.441-.9,1.652,1.652,0,0,0-1.111-.376,1.729,1.729,0,0,0-1.08.3.947.947,0,0,0-.39.786.767.767,0,0,0,.362.69,4.458,4.458,0,0,0,1.309.444,6.821,6.821,0,0,1,1.535.506,2.239,2.239,0,0,1,.872.708A1.74,1.74,0,0,1-5.9,18.949a1.893,1.893,0,0,1-.793,1.589,3.326,3.326,0,0,1-2.058.6,3.725,3.725,0,0,1-1.572-.314,2.557,2.557,0,0,1-1.07-.878,2.117,2.117,0,0,1-.386-1.22h1.265A1.309,1.309,0,0,0-10,19.732,1.976,1.976,0,0,0-8.75,20.1,2.039,2.039,0,0,0-7.6,19.814.893.893,0,0,0-7.164,19.038Zm4.628-7.226V13.6h1.381v.978H-2.536v4.593a1.027,1.027,0,0,0,.185.667.777.777,0,0,0,.629.222,3.062,3.062,0,0,0,.6-.082V21a3.688,3.688,0,0,1-.971.136,1.575,1.575,0,0,1-1.278-.513A2.2,2.2,0,0,1-3.8,19.168V14.581H-5.147V13.6H-3.8V11.813ZM4.888,21a2.657,2.657,0,0,1-.178-.779,2.822,2.822,0,0,1-2.105.916A2.611,2.611,0,0,1,.81,20.518a2,2,0,0,1-.7-1.569,2.091,2.091,0,0,1,.878-1.794,4.141,4.141,0,0,1,2.471-.639h1.23v-.581a1.42,1.42,0,0,0-.4-1.056,1.593,1.593,0,0,0-1.169-.393,1.844,1.844,0,0,0-1.135.342,1.007,1.007,0,0,0-.458.827H.26a1.745,1.745,0,0,1,.393-1.07,2.683,2.683,0,0,1,1.066-.817,3.588,3.588,0,0,1,1.48-.3,2.924,2.924,0,0,1,2,.639,2.306,2.306,0,0,1,.752,1.76v3.4a4.162,4.162,0,0,0,.26,1.62V21Zm-2.1-.964a2.223,2.223,0,0,0,1.128-.308,1.861,1.861,0,0,0,.772-.8V17.411H3.7q-2.324,0-2.324,1.36a1.151,1.151,0,0,0,.4.93A1.524,1.524,0,0,0,2.789,20.036ZM10.9,20.1a1.822,1.822,0,0,0,1.183-.41,1.443,1.443,0,0,0,.561-1.025h1.2a2.293,2.293,0,0,1-.437,1.21,2.881,2.881,0,0,1-1.077.916,3.107,3.107,0,0,1-1.425.342,3.047,3.047,0,0,1-2.4-1.008,4.016,4.016,0,0,1-.892-2.758v-.212A4.453,4.453,0,0,1,8,15.237a3.02,3.02,0,0,1,1.138-1.306,3.233,3.233,0,0,1,1.753-.465,2.966,2.966,0,0,1,2.068.745,2.663,2.663,0,0,1,.878,1.935h-1.2a1.743,1.743,0,0,0-.543-1.179,1.691,1.691,0,0,0-1.207-.461A1.77,1.77,0,0,0,9.4,15.2a3.259,3.259,0,0,0-.53,2.006v.239A3.194,3.194,0,0,0,9.4,19.414,1.779,1.779,0,0,0,10.9,20.1Zm5.735.9H15.374V13.6h1.265Zm-1.367-9.358a.755.755,0,0,1,.188-.52.706.706,0,0,1,.557-.212.717.717,0,0,1,.561.212.747.747,0,0,1,.191.52.722.722,0,0,1-.191.513.73.73,0,0,1-.561.205.718.718,0,0,1-.557-.205A.73.73,0,0,1,15.271,11.642Zm3.056,5.592a4.369,4.369,0,0,1,.427-1.955,3.187,3.187,0,0,1,1.189-1.34,3.238,3.238,0,0,1,1.74-.472,3.119,3.119,0,0,1,2.444,1.046,4.024,4.024,0,0,1,.933,2.782v.089a4.407,4.407,0,0,1-.414,1.938,3.14,3.14,0,0,1-1.183,1.336,3.275,3.275,0,0,1-1.767.479,3.111,3.111,0,0,1-2.437-1.046,4,4,0,0,1-.933-2.769Zm1.271.15a3.164,3.164,0,0,0,.571,1.976,1.934,1.934,0,0,0,3.059-.01,3.46,3.46,0,0,0,.567-2.116,3.159,3.159,0,0,0-.578-1.972,1.836,1.836,0,0,0-1.535-.755,1.816,1.816,0,0,0-1.511.745A3.434,3.434,0,0,0,19.6,17.384ZM22.258,10.5h1.531l-1.832,2.01-1.019,0Zm5.585,3.1.041.93A2.7,2.7,0,0,1,30.1,13.467q2.345,0,2.365,2.646V21H31.2V16.105a1.7,1.7,0,0,0-.366-1.183,1.466,1.466,0,0,0-1.118-.383,1.825,1.825,0,0,0-1.08.328,2.228,2.228,0,0,0-.725.861V21H26.646V13.6ZM-18.929,40.038a.931.931,0,0,0-.386-.8,3.718,3.718,0,0,0-1.347-.489,6.367,6.367,0,0,1-1.524-.492,2.169,2.169,0,0,1-.834-.684,1.635,1.635,0,0,1-.27-.943,1.919,1.919,0,0,1,.769-1.538,3,3,0,0,1,1.965-.629,3.091,3.091,0,0,1,2.041.649,2.063,2.063,0,0,1,.783,1.661H-19a1.142,1.142,0,0,0-.441-.9,1.652,1.652,0,0,0-1.111-.376,1.729,1.729,0,0,0-1.08.3.947.947,0,0,0-.39.786.767.767,0,0,0,.362.69,4.458,4.458,0,0,0,1.309.444,6.821,6.821,0,0,1,1.535.506,2.239,2.239,0,0,1,.872.708,1.74,1.74,0,0,1,.284,1.008,1.893,1.893,0,0,1-.793,1.589,3.326,3.326,0,0,1-2.058.6,3.725,3.725,0,0,1-1.572-.314,2.557,2.557,0,0,1-1.07-.878,2.117,2.117,0,0,1-.386-1.22h1.265a1.309,1.309,0,0,0,.509,1.008,1.976,1.976,0,0,0,1.254.373,2.039,2.039,0,0,0,1.152-.291A.893.893,0,0,0-18.929,40.038Zm5.981,2.1a3.232,3.232,0,0,1-2.447-.988,3.666,3.666,0,0,1-.943-2.642v-.232a4.438,4.438,0,0,1,.42-1.965,3.28,3.28,0,0,1,1.176-1.354,2.956,2.956,0,0,1,1.637-.489,2.77,2.77,0,0,1,2.242.95,4.114,4.114,0,0,1,.8,2.721v.526h-5.011a2.629,2.629,0,0,0,.639,1.767,2.009,2.009,0,0,0,1.555.673,2.2,2.2,0,0,0,1.135-.273,2.851,2.851,0,0,0,.813-.725l.772.6A3.106,3.106,0,0,1-12.947,42.137Zm-.157-6.631a1.687,1.687,0,0,0-1.285.557,2.708,2.708,0,0,0-.643,1.562h3.705v-.1a2.409,2.409,0,0,0-.52-1.494A1.588,1.588,0,0,0-13.1,35.506Zm8.08.232a3.79,3.79,0,0,0-.622-.048,1.667,1.667,0,0,0-1.688,1.06V42H-8.6V34.6h1.23l.021.854a1.969,1.969,0,0,1,1.764-.991,1.292,1.292,0,0,1,.561.1ZM-1.3,40.284.533,34.6H1.825L-.827,42h-.964l-2.68-7.4h1.292ZM4.416,42H3.151V34.6H4.416ZM3.049,32.642a.755.755,0,0,1,.188-.52.706.706,0,0,1,.557-.212.717.717,0,0,1,.561.212.747.747,0,0,1,.191.52.722.722,0,0,1-.191.513.73.73,0,0,1-.561.205.718.718,0,0,1-.557-.205A.73.73,0,0,1,3.049,32.642ZM9.406,41.1a1.822,1.822,0,0,0,1.183-.41,1.443,1.443,0,0,0,.561-1.025h1.2a2.293,2.293,0,0,1-.437,1.21,2.881,2.881,0,0,1-1.077.916,3.107,3.107,0,0,1-1.425.342A3.047,3.047,0,0,1,7,41.128a4.016,4.016,0,0,1-.892-2.758v-.212a4.453,4.453,0,0,1,.4-1.921,3.02,3.02,0,0,1,1.138-1.306A3.233,3.233,0,0,1,9.4,34.467a2.966,2.966,0,0,1,2.068.745,2.663,2.663,0,0,1,.878,1.935h-1.2a1.743,1.743,0,0,0-.543-1.179A1.691,1.691,0,0,0,9.4,35.506a1.77,1.77,0,0,0-1.494.694,3.259,3.259,0,0,0-.53,2.006v.239A3.194,3.194,0,0,0,7.9,40.414,1.779,1.779,0,0,0,9.406,41.1Zm5.735.9H13.877V34.6h1.265Zm-1.367-9.358a.755.755,0,0,1,.188-.52.706.706,0,0,1,.557-.212.717.717,0,0,1,.561.212.747.747,0,0,1,.191.52.722.722,0,0,1-.191.513.73.73,0,0,1-.561.205.718.718,0,0,1-.557-.205A.73.73,0,0,1,13.774,32.642Zm3.056,5.592a4.369,4.369,0,0,1,.427-1.955,3.187,3.187,0,0,1,1.189-1.34,3.238,3.238,0,0,1,1.74-.472,3.119,3.119,0,0,1,2.444,1.046,4.024,4.024,0,0,1,.933,2.782v.089a4.407,4.407,0,0,1-.414,1.938,3.14,3.14,0,0,1-1.183,1.336,3.275,3.275,0,0,1-1.767.479,3.111,3.111,0,0,1-2.437-1.046,4,4,0,0,1-.933-2.769Zm1.271.15a3.164,3.164,0,0,0,.571,1.976,1.934,1.934,0,0,0,3.059-.01,3.46,3.46,0,0,0,.567-2.116,3.159,3.159,0,0,0-.578-1.972,1.836,1.836,0,0,0-1.535-.755,1.816,1.816,0,0,0-1.511.745A3.435,3.435,0,0,0,18.1,38.384Z" transform="translate(-1349 -2597.5)" fill="#f3f9ff"/>
    <path id="Trazado_246535" data-name="Trazado 246535" d="M-2.522-4.99l.506-4.963h5.1v1.169H-.943l-.3,2.714A3.212,3.212,0,0,1,.417-6.5a2.746,2.746,0,0,1,2.16.9,3.523,3.523,0,0,1,.8,2.43A3.4,3.4,0,0,1,2.546-.749,3.027,3.027,0,0,1,.226.137,3.146,3.146,0,0,1-1.928-.595a2.919,2.919,0,0,1-.95-2.023h1.2A2.008,2.008,0,0,0-1.073-1.33,1.892,1.892,0,0,0,.226-.9,1.706,1.706,0,0,0,1.61-1.5a2.515,2.515,0,0,0,.5-1.661,2.308,2.308,0,0,0-.543-1.6,1.849,1.849,0,0,0-1.446-.6A2.085,2.085,0,0,0-1.176-5l-.335.273ZM-32.929,17.1V21h-1.312V11.047h3.671a3.688,3.688,0,0,1,2.56.834,2.827,2.827,0,0,1,.926,2.208,2.79,2.79,0,0,1-.906,2.232,3.853,3.853,0,0,1-2.594.783Zm0-1.073h2.358a2.358,2.358,0,0,0,1.613-.5A1.815,1.815,0,0,0-28.4,14.1a1.876,1.876,0,0,0-.561-1.424A2.209,2.209,0,0,0-30.5,12.12h-2.434Zm10.9-1.292a3.79,3.79,0,0,0-.622-.048,1.667,1.667,0,0,0-1.688,1.06V21h-1.265V13.6h1.23l.021.854a1.969,1.969,0,0,1,1.764-.991,1.292,1.292,0,0,1,.561.1Zm.69,2.5a4.369,4.369,0,0,1,.427-1.955,3.187,3.187,0,0,1,1.189-1.34,3.238,3.238,0,0,1,1.74-.472,3.119,3.119,0,0,1,2.444,1.046,4.024,4.024,0,0,1,.933,2.782v.089a4.407,4.407,0,0,1-.414,1.938A3.14,3.14,0,0,1-16.2,20.658a3.275,3.275,0,0,1-1.767.479,3.111,3.111,0,0,1-2.437-1.046,4,4,0,0,1-.933-2.769Zm1.271.15a3.164,3.164,0,0,0,.571,1.976,1.827,1.827,0,0,0,1.528.745,1.816,1.816,0,0,0,1.531-.755,3.46,3.46,0,0,0,.567-2.116,3.159,3.159,0,0,0-.578-1.972,1.836,1.836,0,0,0-1.535-.755,1.816,1.816,0,0,0-1.511.745A3.434,3.434,0,0,0-20.07,17.384Zm6.74-.144a4.333,4.333,0,0,1,.807-2.738,2.551,2.551,0,0,1,2.112-1.036,2.565,2.565,0,0,1,2.058.889V10.5h1.265V21H-8.251l-.062-.793a2.575,2.575,0,0,1-2.112.93,2.526,2.526,0,0,1-2.1-1.053,4.382,4.382,0,0,1-.81-2.748Zm1.265.144a3.281,3.281,0,0,0,.52,1.969,1.68,1.68,0,0,0,1.436.711,1.845,1.845,0,0,0,1.757-1.08v-3.4A1.859,1.859,0,0,0-10.1,14.54a1.687,1.687,0,0,0-1.449.718A3.612,3.612,0,0,0-12.065,17.384Zm11.5,2.885a2.686,2.686,0,0,1-2.167.868,2.3,2.3,0,0,1-1.8-.687,2.974,2.974,0,0,1-.625-2.034V13.6H-3.89v4.778q0,1.682,1.367,1.682a1.893,1.893,0,0,0,1.928-1.08V13.6H.67V21h-1.2ZM5.558,20.1a1.822,1.822,0,0,0,1.183-.41A1.443,1.443,0,0,0,7.3,18.669H8.5a2.293,2.293,0,0,1-.437,1.21,2.881,2.881,0,0,1-1.077.916,3.107,3.107,0,0,1-1.425.342,3.047,3.047,0,0,1-2.4-1.008,4.016,4.016,0,0,1-.892-2.758v-.212a4.453,4.453,0,0,1,.4-1.921A3.02,3.02,0,0,1,3.8,13.932a3.233,3.233,0,0,1,1.753-.465,2.966,2.966,0,0,1,2.068.745A2.663,2.663,0,0,1,8.5,16.146H7.3a1.743,1.743,0,0,0-.543-1.179,1.691,1.691,0,0,0-1.207-.461,1.77,1.77,0,0,0-1.494.694,3.259,3.259,0,0,0-.53,2.006v.239a3.194,3.194,0,0,0,.526,1.969A1.779,1.779,0,0,0,5.558,20.1Zm7.328,0a1.822,1.822,0,0,0,1.183-.41,1.443,1.443,0,0,0,.561-1.025h1.2a2.293,2.293,0,0,1-.437,1.21,2.881,2.881,0,0,1-1.077.916,3.107,3.107,0,0,1-1.425.342,3.047,3.047,0,0,1-2.4-1.008,4.016,4.016,0,0,1-.892-2.758v-.212a4.453,4.453,0,0,1,.4-1.921,3.02,3.02,0,0,1,1.138-1.306,3.233,3.233,0,0,1,1.753-.465,2.966,2.966,0,0,1,2.068.745,2.663,2.663,0,0,1,.878,1.935h-1.2a1.743,1.743,0,0,0-.543-1.179,1.691,1.691,0,0,0-1.207-.461,1.77,1.77,0,0,0-1.494.694,3.259,3.259,0,0,0-.53,2.006v.239a3.194,3.194,0,0,0,.526,1.969A1.779,1.779,0,0,0,12.886,20.1Zm5.735.9H17.356V13.6h1.265Zm-1.367-9.358a.755.755,0,0,1,.188-.52A.706.706,0,0,1,18,10.91a.717.717,0,0,1,.561.212.747.747,0,0,1,.191.52.722.722,0,0,1-.191.513.73.73,0,0,1-.561.205.718.718,0,0,1-.557-.205A.73.73,0,0,1,17.254,11.642Zm3.056,5.592a4.369,4.369,0,0,1,.427-1.955,3.187,3.187,0,0,1,1.189-1.34,3.238,3.238,0,0,1,1.74-.472,3.119,3.119,0,0,1,2.444,1.046,4.024,4.024,0,0,1,.933,2.782v.089a4.407,4.407,0,0,1-.414,1.938,3.14,3.14,0,0,1-1.183,1.336,3.275,3.275,0,0,1-1.767.479,3.111,3.111,0,0,1-2.437-1.046,4,4,0,0,1-.933-2.769Zm1.271.15a3.164,3.164,0,0,0,.571,1.976,1.934,1.934,0,0,0,3.059-.01,3.46,3.46,0,0,0,.567-2.116,3.159,3.159,0,0,0-.578-1.972,1.836,1.836,0,0,0-1.535-.755,1.816,1.816,0,0,0-1.511.745A3.434,3.434,0,0,0,21.581,17.384ZM24.24,10.5h1.531l-1.832,2.01-1.019,0Zm5.585,3.1.041.93a2.7,2.7,0,0,1,2.215-1.066q2.345,0,2.365,2.646V21H33.182V16.105a1.7,1.7,0,0,0-.366-1.183A1.466,1.466,0,0,0,31.7,14.54a1.825,1.825,0,0,0-1.08.328,2.228,2.228,0,0,0-.725.861V21H28.629V13.6ZM-18.351,40.147l1.723-5.544h1.354l-2.974,8.538q-.69,1.846-2.194,1.846l-.239-.021-.472-.089V43.853l.342.027a1.683,1.683,0,0,0,1-.26,1.88,1.88,0,0,0,.591-.95l.28-.752L-21.578,34.6H-20.2Zm10.739,1.989a3.232,3.232,0,0,1-2.447-.988A3.666,3.666,0,0,1-11,38.507v-.232a4.438,4.438,0,0,1,.42-1.965,3.28,3.28,0,0,1,1.176-1.354,2.956,2.956,0,0,1,1.637-.489,2.77,2.77,0,0,1,2.242.95,4.114,4.114,0,0,1,.8,2.721v.526H-9.738A2.629,2.629,0,0,0-9.1,40.431a2.009,2.009,0,0,0,1.555.673,2.2,2.2,0,0,0,1.135-.273,2.851,2.851,0,0,0,.813-.725l.772.6A3.106,3.106,0,0,1-7.612,42.137Zm-.157-6.631a1.687,1.687,0,0,0-1.285.557A2.708,2.708,0,0,0-9.7,37.625h3.705v-.1a2.409,2.409,0,0,0-.52-1.494A1.588,1.588,0,0,0-7.769,35.506Zm5.7-.9.041.93A2.7,2.7,0,0,1,.188,34.467q2.345,0,2.365,2.646V42H1.289V37.105a1.7,1.7,0,0,0-.366-1.183A1.466,1.466,0,0,0-.195,35.54a1.825,1.825,0,0,0-1.08.328A2.228,2.228,0,0,0-2,36.729V42H-3.264V34.6ZM6.9,40.284,8.733,34.6h1.292L7.373,42H6.409l-2.68-7.4H5.021ZM12.616,42H11.344V34.6h1.271Zm.014-10.493h1.531l-1.832,2.01-1.019,0Zm1.736,6.727a4.369,4.369,0,0,1,.427-1.955,3.187,3.187,0,0,1,1.189-1.34,3.238,3.238,0,0,1,1.74-.472,3.119,3.119,0,0,1,2.444,1.046,4.024,4.024,0,0,1,.933,2.782v.089a4.407,4.407,0,0,1-.414,1.938A3.14,3.14,0,0,1,19.5,41.658a3.275,3.275,0,0,1-1.767.479A3.111,3.111,0,0,1,15.3,41.091a4,4,0,0,1-.933-2.769Zm1.271.15a3.164,3.164,0,0,0,.571,1.976,1.934,1.934,0,0,0,3.059-.01,3.46,3.46,0,0,0,.567-2.116,3.159,3.159,0,0,0-.578-1.972,1.836,1.836,0,0,0-1.535-.755,1.816,1.816,0,0,0-1.511.745A3.435,3.435,0,0,0,15.637,38.384Z" transform="translate(-1351 -2784.5)" fill="#f3f9ff"/>
    <path id="Trazado_246527" data-name="Trazado 246527" d="M3.322-9.242-.8,0H-2.126L1.982-8.914H-3.4V-9.953H3.322ZM-21.81,16.6h-4.177V21H-27.3V11.047h6.166V12.12h-4.854v3.411h4.177Zm6.385,4.4a2.657,2.657,0,0,1-.178-.779,2.822,2.822,0,0,1-2.105.916,2.611,2.611,0,0,1-1.794-.619,2,2,0,0,1-.7-1.569,2.091,2.091,0,0,1,.878-1.794,4.141,4.141,0,0,1,2.471-.639h1.23v-.581a1.42,1.42,0,0,0-.4-1.056,1.593,1.593,0,0,0-1.169-.393,1.844,1.844,0,0,0-1.135.342,1.007,1.007,0,0,0-.458.827h-1.271a1.745,1.745,0,0,1,.393-1.07,2.683,2.683,0,0,1,1.066-.817,3.588,3.588,0,0,1,1.48-.3,2.924,2.924,0,0,1,2,.639,2.306,2.306,0,0,1,.752,1.76v3.4a4.162,4.162,0,0,0,.26,1.62V21Zm-2.1-.964a2.223,2.223,0,0,0,1.128-.308,1.861,1.861,0,0,0,.772-.8V17.411h-.991q-2.324,0-2.324,1.36a1.151,1.151,0,0,0,.4.93A1.524,1.524,0,0,0-17.524,20.036Zm8.114.068a1.822,1.822,0,0,0,1.183-.41,1.443,1.443,0,0,0,.561-1.025h1.2a2.293,2.293,0,0,1-.437,1.21,2.881,2.881,0,0,1-1.077.916,3.107,3.107,0,0,1-1.425.342,3.047,3.047,0,0,1-2.4-1.008A4.016,4.016,0,0,1-12.7,17.37v-.212a4.453,4.453,0,0,1,.4-1.921,3.02,3.02,0,0,1,1.138-1.306,3.233,3.233,0,0,1,1.753-.465,2.966,2.966,0,0,1,2.068.745,2.663,2.663,0,0,1,.878,1.935h-1.2a1.743,1.743,0,0,0-.543-1.179,1.691,1.691,0,0,0-1.207-.461,1.77,1.77,0,0,0-1.494.694,3.259,3.259,0,0,0-.53,2.006v.239a3.194,3.194,0,0,0,.526,1.969A1.779,1.779,0,0,0-9.41,20.1Zm6.077-8.292V13.6h1.381v.978H-3.333v4.593a1.027,1.027,0,0,0,.185.667.777.777,0,0,0,.629.222,3.062,3.062,0,0,0,.6-.082V21a3.688,3.688,0,0,1-.971.136,1.575,1.575,0,0,1-1.278-.513A2.2,2.2,0,0,1-4.6,19.168V14.581H-5.944V13.6H-4.6V11.813Zm7.424,8.456a2.686,2.686,0,0,1-2.167.868,2.3,2.3,0,0,1-1.8-.687A2.974,2.974,0,0,1-.5,18.416V13.6H.762v4.778q0,1.682,1.367,1.682a1.893,1.893,0,0,0,1.928-1.08V13.6H5.322V21h-1.2Zm6.727-5.53a3.79,3.79,0,0,0-.622-.048,1.667,1.667,0,0,0-1.688,1.06V21H7.243V13.6h1.23l.021.854a1.969,1.969,0,0,1,1.764-.991,1.292,1.292,0,0,1,.561.1ZM16.273,21a2.657,2.657,0,0,1-.178-.779,2.822,2.822,0,0,1-2.105.916,2.611,2.611,0,0,1-1.794-.619,2,2,0,0,1-.7-1.569,2.091,2.091,0,0,1,.878-1.794,4.142,4.142,0,0,1,2.471-.639h1.23v-.581a1.42,1.42,0,0,0-.4-1.056,1.593,1.593,0,0,0-1.169-.393,1.844,1.844,0,0,0-1.135.342,1.007,1.007,0,0,0-.458.827H11.645a1.745,1.745,0,0,1,.393-1.07,2.683,2.683,0,0,1,1.066-.817,3.588,3.588,0,0,1,1.48-.3,2.924,2.924,0,0,1,2,.639,2.306,2.306,0,0,1,.752,1.76v3.4a4.162,4.162,0,0,0,.26,1.62V21Zm-2.1-.964a2.223,2.223,0,0,0,1.128-.308,1.861,1.861,0,0,0,.772-.8V17.411h-.991q-2.324,0-2.324,1.36a1.151,1.151,0,0,0,.4.93A1.524,1.524,0,0,0,14.174,20.036Zm11.033-.889L26.93,13.6h1.354L25.31,22.142q-.69,1.846-2.194,1.846l-.239-.021-.472-.089V22.853l.342.027a1.683,1.683,0,0,0,1-.26,1.88,1.88,0,0,0,.591-.95l.28-.752L21.981,13.6h1.381ZM-50.439,40.038a.931.931,0,0,0-.386-.8,3.718,3.718,0,0,0-1.347-.489,6.367,6.367,0,0,1-1.524-.492,2.169,2.169,0,0,1-.834-.684,1.635,1.635,0,0,1-.27-.943,1.919,1.919,0,0,1,.769-1.538,3,3,0,0,1,1.965-.629,3.091,3.091,0,0,1,2.041.649,2.063,2.063,0,0,1,.783,1.661h-1.271a1.142,1.142,0,0,0-.441-.9,1.652,1.652,0,0,0-1.111-.376,1.729,1.729,0,0,0-1.08.3.947.947,0,0,0-.39.786.767.767,0,0,0,.362.69,4.458,4.458,0,0,0,1.309.444,6.821,6.821,0,0,1,1.535.506,2.239,2.239,0,0,1,.872.708,1.74,1.74,0,0,1,.284,1.008,1.893,1.893,0,0,1-.793,1.589,3.326,3.326,0,0,1-2.058.6,3.725,3.725,0,0,1-1.572-.314,2.557,2.557,0,0,1-1.07-.878,2.117,2.117,0,0,1-.386-1.22h1.265a1.309,1.309,0,0,0,.509,1.008,1.976,1.976,0,0,0,1.254.373,2.039,2.039,0,0,0,1.152-.291A.893.893,0,0,0-50.439,40.038Zm5.981,2.1a3.232,3.232,0,0,1-2.447-.988,3.666,3.666,0,0,1-.943-2.642v-.232a4.438,4.438,0,0,1,.42-1.965,3.28,3.28,0,0,1,1.176-1.354,2.956,2.956,0,0,1,1.637-.489,2.77,2.77,0,0,1,2.242.95,4.114,4.114,0,0,1,.8,2.721v.526h-5.011a2.629,2.629,0,0,0,.639,1.767,2.009,2.009,0,0,0,1.555.673,2.2,2.2,0,0,0,1.135-.273,2.851,2.851,0,0,0,.813-.725l.772.6A3.106,3.106,0,0,1-44.458,42.137Zm-.157-6.631a1.687,1.687,0,0,0-1.285.557,2.708,2.708,0,0,0-.643,1.562h3.705v-.1a2.409,2.409,0,0,0-.52-1.494A1.588,1.588,0,0,0-44.615,35.506Zm8.08.232a3.79,3.79,0,0,0-.622-.048,1.667,1.667,0,0,0-1.688,1.06V42H-40.11V34.6h1.23l.021.854a1.969,1.969,0,0,1,1.764-.991,1.292,1.292,0,0,1,.561.1Zm3.726,4.546,1.832-5.681h1.292L-32.337,42H-33.3l-2.68-7.4h1.292ZM-27.094,42h-1.265V34.6h1.265Zm-1.367-9.358a.755.755,0,0,1,.188-.52.706.706,0,0,1,.557-.212.717.717,0,0,1,.561.212.747.747,0,0,1,.191.52.722.722,0,0,1-.191.513.73.73,0,0,1-.561.205.718.718,0,0,1-.557-.205A.73.73,0,0,1-28.461,32.642ZM-22.1,41.1a1.822,1.822,0,0,0,1.183-.41,1.443,1.443,0,0,0,.561-1.025h1.2a2.293,2.293,0,0,1-.437,1.21,2.881,2.881,0,0,1-1.077.916,3.107,3.107,0,0,1-1.425.342,3.047,3.047,0,0,1-2.4-1.008A4.016,4.016,0,0,1-25.4,38.37v-.212a4.453,4.453,0,0,1,.4-1.921,3.02,3.02,0,0,1,1.138-1.306,3.233,3.233,0,0,1,1.753-.465,2.966,2.966,0,0,1,2.068.745,2.663,2.663,0,0,1,.878,1.935h-1.2a1.743,1.743,0,0,0-.543-1.179,1.691,1.691,0,0,0-1.207-.461A1.77,1.77,0,0,0-23.6,36.2a3.259,3.259,0,0,0-.53,2.006v.239a3.194,3.194,0,0,0,.526,1.969A1.779,1.779,0,0,0-22.1,41.1Zm5.735.9h-1.265V34.6h1.265Zm-1.367-9.358a.755.755,0,0,1,.188-.52.706.706,0,0,1,.557-.212.717.717,0,0,1,.561.212.747.747,0,0,1,.191.52.722.722,0,0,1-.191.513.73.73,0,0,1-.561.205.718.718,0,0,1-.557-.205A.73.73,0,0,1-17.736,32.642Zm3.056,5.592a4.369,4.369,0,0,1,.427-1.955,3.187,3.187,0,0,1,1.189-1.34,3.238,3.238,0,0,1,1.74-.472A3.119,3.119,0,0,1-8.88,35.513a4.024,4.024,0,0,1,.933,2.782v.089a4.407,4.407,0,0,1-.414,1.938,3.14,3.14,0,0,1-1.183,1.336,3.275,3.275,0,0,1-1.767.479,3.111,3.111,0,0,1-2.437-1.046,4,4,0,0,1-.933-2.769Zm1.271.15a3.164,3.164,0,0,0,.571,1.976,1.827,1.827,0,0,0,1.528.745,1.816,1.816,0,0,0,1.531-.755,3.46,3.46,0,0,0,.567-2.116,3.159,3.159,0,0,0-.578-1.972,1.836,1.836,0,0,0-1.535-.755,1.816,1.816,0,0,0-1.511.745A3.435,3.435,0,0,0-13.409,38.384ZM1.671,42a2.657,2.657,0,0,1-.178-.779,2.822,2.822,0,0,1-2.105.916,2.611,2.611,0,0,1-1.794-.619,2,2,0,0,1-.7-1.569,2.091,2.091,0,0,1,.878-1.794,4.142,4.142,0,0,1,2.471-.639h1.23v-.581a1.42,1.42,0,0,0-.4-1.056,1.593,1.593,0,0,0-1.169-.393,1.844,1.844,0,0,0-1.135.342,1.007,1.007,0,0,0-.458.827H-2.957a1.745,1.745,0,0,1,.393-1.07A2.683,2.683,0,0,1-1.5,34.768a3.588,3.588,0,0,1,1.48-.3,2.924,2.924,0,0,1,2,.639,2.306,2.306,0,0,1,.752,1.76v3.4A4.162,4.162,0,0,0,3,41.891V42Zm-2.1-.964A2.223,2.223,0,0,0,.7,40.729a1.861,1.861,0,0,0,.772-.8V38.411H.482q-2.324,0-2.324,1.36a1.151,1.151,0,0,0,.4.93A1.524,1.524,0,0,0-.427,41.036Zm11.58.068a1.822,1.822,0,0,0,1.183-.41,1.443,1.443,0,0,0,.561-1.025h1.2a2.293,2.293,0,0,1-.437,1.21,2.881,2.881,0,0,1-1.077.916,3.107,3.107,0,0,1-1.425.342,3.047,3.047,0,0,1-2.4-1.008,4.016,4.016,0,0,1-.892-2.758v-.212a4.453,4.453,0,0,1,.4-1.921,3.02,3.02,0,0,1,1.138-1.306,3.233,3.233,0,0,1,1.753-.465,2.966,2.966,0,0,1,2.068.745,2.663,2.663,0,0,1,.878,1.935H12.9a1.743,1.743,0,0,0-.543-1.179,1.691,1.691,0,0,0-1.207-.461,1.77,1.77,0,0,0-1.494.694,3.259,3.259,0,0,0-.53,2.006v.239a3.194,3.194,0,0,0,.526,1.969A1.779,1.779,0,0,0,11.153,41.1Zm5.735.9H15.624V31.5h1.265Zm3.4,0H19.021V34.6h1.265Zm-1.367-9.358a.755.755,0,0,1,.188-.52.706.706,0,0,1,.557-.212.717.717,0,0,1,.561.212.747.747,0,0,1,.191.52.722.722,0,0,1-.191.513.73.73,0,0,1-.561.205.718.718,0,0,1-.557-.205A.73.73,0,0,1,18.918,32.642Zm6.46,9.5a3.232,3.232,0,0,1-2.447-.988,3.666,3.666,0,0,1-.943-2.642v-.232a4.438,4.438,0,0,1,.42-1.965,3.28,3.28,0,0,1,1.176-1.354,2.956,2.956,0,0,1,1.637-.489,2.77,2.77,0,0,1,2.242.95,4.114,4.114,0,0,1,.8,2.721v.526H23.252a2.629,2.629,0,0,0,.639,1.767,2.009,2.009,0,0,0,1.555.673,2.2,2.2,0,0,0,1.135-.273,2.851,2.851,0,0,0,.813-.725l.772.6A3.106,3.106,0,0,1,25.378,42.137Zm-.157-6.631a1.687,1.687,0,0,0-1.285.557,2.708,2.708,0,0,0-.643,1.562H27v-.1a2.409,2.409,0,0,0-.52-1.494A1.588,1.588,0,0,0,25.221,35.506Zm5.7-.9.041.93a2.7,2.7,0,0,1,2.215-1.066q2.345,0,2.365,2.646V42H34.279V37.105a1.7,1.7,0,0,0-.366-1.183A1.466,1.466,0,0,0,32.8,35.54a1.825,1.825,0,0,0-1.08.328,2.228,2.228,0,0,0-.725.861V42H29.726V34.6Zm8.244-1.791V34.6h1.381v.978H39.167v4.593a1.027,1.027,0,0,0,.185.667.777.777,0,0,0,.629.222,3.062,3.062,0,0,0,.6-.082V42a3.688,3.688,0,0,1-.971.136,1.575,1.575,0,0,1-1.278-.513,2.2,2.2,0,0,1-.431-1.456V35.581H36.555V34.6H37.9V32.813Zm5.927,9.324a3.232,3.232,0,0,1-2.447-.988,3.666,3.666,0,0,1-.943-2.642v-.232a4.438,4.438,0,0,1,.42-1.965A3.28,3.28,0,0,1,43.3,34.956a2.956,2.956,0,0,1,1.637-.489,2.77,2.77,0,0,1,2.242.95,4.114,4.114,0,0,1,.8,2.721v.526H42.967a2.629,2.629,0,0,0,.639,1.767,2.009,2.009,0,0,0,1.555.673,2.2,2.2,0,0,0,1.135-.273,2.851,2.851,0,0,0,.813-.725l.772.6A3.106,3.106,0,0,1,45.093,42.137Zm-.157-6.631a1.687,1.687,0,0,0-1.285.557,2.708,2.708,0,0,0-.643,1.562h3.705v-.1a2.409,2.409,0,0,0-.52-1.494A1.588,1.588,0,0,0,44.936,35.506Zm8.812,4.532a.931.931,0,0,0-.386-.8,3.718,3.718,0,0,0-1.347-.489,6.367,6.367,0,0,1-1.524-.492,2.169,2.169,0,0,1-.834-.684,1.635,1.635,0,0,1-.27-.943,1.919,1.919,0,0,1,.769-1.538,3,3,0,0,1,1.965-.629,3.091,3.091,0,0,1,2.041.649,2.063,2.063,0,0,1,.783,1.661H53.672a1.142,1.142,0,0,0-.441-.9,1.652,1.652,0,0,0-1.111-.376,1.729,1.729,0,0,0-1.08.3.947.947,0,0,0-.39.786.767.767,0,0,0,.362.69,4.458,4.458,0,0,0,1.309.444,6.821,6.821,0,0,1,1.535.506,2.239,2.239,0,0,1,.872.708,1.74,1.74,0,0,1,.284,1.008,1.893,1.893,0,0,1-.793,1.589,3.326,3.326,0,0,1-2.058.6,3.725,3.725,0,0,1-1.572-.314,2.557,2.557,0,0,1-1.07-.878,2.117,2.117,0,0,1-.386-1.22H50.4a1.309,1.309,0,0,0,.509,1.008,1.976,1.976,0,0,0,1.254.373,2.039,2.039,0,0,0,1.152-.291A.893.893,0,0,0,53.748,40.038Z" transform="translate(-1176.5 -2695.793)" fill="#f3f9ff"/>
    <path id="Trazado_246540" data-name="Trazado 246540" d="M-92.27-5.065V0h-3.6V-14.93h5.958a6.939,6.939,0,0,1,3.03.631A4.753,4.753,0,0,1-84.841-12.5a4.9,4.9,0,0,1,.723,2.64,4.32,4.32,0,0,1-1.564,3.491,6.488,6.488,0,0,1-4.291,1.307Zm0-2.779h2.358a2.224,2.224,0,0,0,1.594-.523,1.943,1.943,0,0,0,.549-1.477,2.4,2.4,0,0,0-.564-1.671,2,2,0,0,0-1.538-.636h-2.4Zm16.622-.123-1.138-.082a2.044,2.044,0,0,0-2.092,1.025V0h-3.456V-11.095h3.24l.113,1.425a2.676,2.676,0,0,1,2.43-1.63,3.37,3.37,0,0,1,.964.123Zm.441,2.317a6.548,6.548,0,0,1,.646-2.958A4.62,4.62,0,0,1-72.705-10.6a5.59,5.59,0,0,1,2.84-.7,5.1,5.1,0,0,1,3.927,1.543,5.922,5.922,0,0,1,1.436,4.2v.123a5.746,5.746,0,0,1-1.441,4.117,5.115,5.115,0,0,1-3.9,1.523,5.173,5.173,0,0,1-3.8-1.42A5.555,5.555,0,0,1-75.2-5.065Zm3.456.215a4.128,4.128,0,0,0,.482,2.256,1.606,1.606,0,0,0,1.425.718q1.846,0,1.887-2.84V-5.65q0-2.984-1.907-2.984-1.733,0-1.876,2.574Zm13.463,2.974a1.537,1.537,0,0,0,1.128-.395,1.448,1.448,0,0,0,.39-1.1h3.24A3.836,3.836,0,0,1-54.838-.964,4.863,4.863,0,0,1-58.206.205a4.924,4.924,0,0,1-3.814-1.518,5.979,5.979,0,0,1-1.395-4.2V-5.66a6.758,6.758,0,0,1,.62-2.969,4.517,4.517,0,0,1,1.789-1.979,5.335,5.335,0,0,1,2.769-.692A4.8,4.8,0,0,1-54.8-10.1a4.255,4.255,0,0,1,1.271,3.25h-3.24a1.9,1.9,0,0,0-.42-1.323,1.451,1.451,0,0,0-1.128-.461q-1.343,0-1.569,1.712a12.083,12.083,0,0,0-.072,1.5,4.746,4.746,0,0,0,.4,2.317A1.384,1.384,0,0,0-58.288-2.461ZM-46.7.205a5.7,5.7,0,0,1-4.132-1.523,5.258,5.258,0,0,1-1.579-3.963v-.287a6.814,6.814,0,0,1,.631-3,4.614,4.614,0,0,1,1.841-2.015,5.556,5.556,0,0,1,2.871-.713,4.8,4.8,0,0,1,3.691,1.451A5.7,5.7,0,0,1-42.026-5.8V-4.46H-48.9a2.491,2.491,0,0,0,.81,1.466,2.41,2.41,0,0,0,1.62.533A3.106,3.106,0,0,0-43.9-3.609l1.579,1.866a4.414,4.414,0,0,1-1.83,1.42A6.185,6.185,0,0,1-46.7.205Zm-.39-8.839q-1.518,0-1.8,2.01h3.486v-.267a1.712,1.712,0,0,0-.42-1.287A1.673,1.673,0,0,0-47.091-8.634Zm12.264,5.517a.8.8,0,0,0-.461-.708,7.019,7.019,0,0,0-1.753-.554,8,8,0,0,1-2.133-.754,3.573,3.573,0,0,1-1.282-1.133A2.706,2.706,0,0,1-40.9-7.793a3.066,3.066,0,0,1,1.261-2.517,5.2,5.2,0,0,1,3.3-.99,5.756,5.756,0,0,1,3.527.995A3.11,3.11,0,0,1-31.474-7.69H-34.94q0-1.333-1.4-1.333a1.393,1.393,0,0,0-.913.3.937.937,0,0,0-.369.754.86.86,0,0,0,.451.749,4.263,4.263,0,0,0,1.441.472A12.45,12.45,0,0,1-34-6.306q2.5.861,2.5,3.086A2.906,2.906,0,0,1-32.843-.749a5.913,5.913,0,0,1-3.491.954,6.034,6.034,0,0,1-2.543-.513A4.252,4.252,0,0,1-40.621-1.7a3.158,3.158,0,0,1-.625-1.856h3.23A1.335,1.335,0,0,0-37.5-2.435a2.109,2.109,0,0,0,1.261.354,1.659,1.659,0,0,0,1.061-.287A.918.918,0,0,0-34.827-3.117Zm4.512-2.533a6.548,6.548,0,0,1,.646-2.958A4.62,4.62,0,0,1-27.814-10.6a5.59,5.59,0,0,1,2.84-.7,5.1,5.1,0,0,1,3.927,1.543,5.922,5.922,0,0,1,1.436,4.2v.123a5.746,5.746,0,0,1-1.441,4.117,5.115,5.115,0,0,1-3.9,1.523,5.173,5.173,0,0,1-3.8-1.42,5.555,5.555,0,0,1-1.548-3.85Zm3.456.215a4.128,4.128,0,0,0,.482,2.256,1.606,1.606,0,0,0,1.425.718q1.846,0,1.887-2.84V-5.65q0-2.984-1.907-2.984-1.733,0-1.876,2.574Zm14.581,2.317a.8.8,0,0,0-.461-.708,7.019,7.019,0,0,0-1.753-.554,8,8,0,0,1-2.133-.754,3.573,3.573,0,0,1-1.282-1.133,2.706,2.706,0,0,1-.441-1.528,3.066,3.066,0,0,1,1.261-2.517,5.2,5.2,0,0,1,3.3-.99,5.756,5.756,0,0,1,3.527.995A3.11,3.11,0,0,1-8.926-7.69h-3.466q0-1.333-1.4-1.333a1.393,1.393,0,0,0-.913.3.937.937,0,0,0-.369.754.86.86,0,0,0,.451.749,4.263,4.263,0,0,0,1.441.472,12.45,12.45,0,0,1,1.738.441q2.5.861,2.5,3.086A2.906,2.906,0,0,1-10.295-.749a5.913,5.913,0,0,1-3.491.954,6.034,6.034,0,0,1-2.543-.513A4.252,4.252,0,0,1-18.073-1.7,3.158,3.158,0,0,1-18.7-3.558h3.23a1.335,1.335,0,0,0,.513,1.123,2.109,2.109,0,0,0,1.261.354,1.659,1.659,0,0,0,1.061-.287A.918.918,0,0,0-12.279-3.117ZM-2.538-5.65a6.548,6.548,0,0,1,.646-2.958A4.62,4.62,0,0,1-.036-10.6a5.59,5.59,0,0,1,2.84-.7A5.1,5.1,0,0,1,6.732-9.757a5.922,5.922,0,0,1,1.436,4.2v.123A5.746,5.746,0,0,1,6.727-1.318,5.115,5.115,0,0,1,2.825.205a5.173,5.173,0,0,1-3.8-1.42,5.555,5.555,0,0,1-1.548-3.85Zm3.456.215A4.128,4.128,0,0,0,1.4-3.179a1.606,1.606,0,0,0,1.425.718q1.846,0,1.887-2.84V-5.65q0-2.984-1.907-2.984Q1.072-8.634.928-6.06ZM19.99-5.465a6.691,6.691,0,0,1-1.164,4.127A3.731,3.731,0,0,1,15.683.205,3.2,3.2,0,0,1,13.171-.913V4.266H9.716v-15.36h3.23l.1,1.025a3.2,3.2,0,0,1,2.615-1.23,3.761,3.761,0,0,1,3.189,1.512A6.773,6.773,0,0,1,19.99-5.629Zm-3.456-.215q0-2.953-1.723-2.953a1.626,1.626,0,0,0-1.641.882v4.368a1.679,1.679,0,0,0,1.661.923q1.651,0,1.7-2.851ZM26.881.205a5.7,5.7,0,0,1-4.132-1.523,5.258,5.258,0,0,1-1.579-3.963v-.287a6.814,6.814,0,0,1,.631-3,4.614,4.614,0,0,1,1.841-2.015,5.556,5.556,0,0,1,2.871-.713A4.8,4.8,0,0,1,30.2-9.849,5.7,5.7,0,0,1,31.556-5.8V-4.46h-6.87a2.491,2.491,0,0,0,.81,1.466,2.41,2.41,0,0,0,1.62.533A3.106,3.106,0,0,0,29.68-3.609l1.579,1.866a4.414,4.414,0,0,1-1.83,1.42A6.185,6.185,0,0,1,26.881.205Zm-.39-8.839q-1.518,0-1.8,2.01h3.486v-.267a1.712,1.712,0,0,0-.42-1.287A1.673,1.673,0,0,0,26.491-8.634Zm13.166.667-1.138-.082a2.044,2.044,0,0,0-2.092,1.025V0H32.971V-11.095h3.24l.113,1.425a2.676,2.676,0,0,1,2.43-1.63,3.37,3.37,0,0,1,.964.123ZM46.845,0a3.9,3.9,0,0,1-.328-.995,3.213,3.213,0,0,1-2.666,1.2,3.936,3.936,0,0,1-2.666-.948,3.019,3.019,0,0,1-1.1-2.384,3.1,3.1,0,0,1,1.333-2.728A6.791,6.791,0,0,1,45.3-6.778h1.066v-.587q0-1.535-1.323-1.535a1.081,1.081,0,0,0-1.23,1.216H40.354A3.1,3.1,0,0,1,41.723-10.3a5.753,5.753,0,0,1,3.491-1,5.044,5.044,0,0,1,3.353,1.036,3.6,3.6,0,0,1,1.261,2.84v4.912A5.03,5.03,0,0,0,50.3-.174V0ZM44.681-2.256a1.928,1.928,0,0,0,1.072-.277,1.735,1.735,0,0,0,.61-.625V-4.932h-1q-1.8,0-1.8,1.62a.989.989,0,0,0,.318.764A1.15,1.15,0,0,0,44.681-2.256Zm11.084-11.6v2.758h1.825v2.4H55.766V-3.62a1.3,1.3,0,0,0,.226.872,1.21,1.21,0,0,0,.892.246,5.069,5.069,0,0,0,.861-.062V-.092a6.377,6.377,0,0,1-1.948.3,3.62,3.62,0,0,1-2.635-.841,3.446,3.446,0,0,1-.851-2.553V-8.7H50.9v-2.4H52.31v-2.758ZM62.595,0H59.129V-11.095h3.466ZM58.924-13.956a1.542,1.542,0,0,1,.533-1.21,2.012,2.012,0,0,1,1.384-.472,2.012,2.012,0,0,1,1.384.472,1.542,1.542,0,0,1,.533,1.21,1.542,1.542,0,0,1-.533,1.21,2.012,2.012,0,0,1-1.384.472,2.012,2.012,0,0,1-1.384-.472A1.542,1.542,0,0,1,58.924-13.956ZM69.147-4.112,70.9-11.095h3.64L70.921,0H67.394l-3.62-11.095h3.65ZM74.982-5.65a6.548,6.548,0,0,1,.646-2.958A4.62,4.62,0,0,1,77.484-10.6a5.59,5.59,0,0,1,2.84-.7,5.1,5.1,0,0,1,3.927,1.543,5.922,5.922,0,0,1,1.436,4.2v.123a5.746,5.746,0,0,1-1.441,4.117,5.115,5.115,0,0,1-3.9,1.523,5.173,5.173,0,0,1-3.8-1.42,5.555,5.555,0,0,1-1.548-3.85Zm3.456.215a4.128,4.128,0,0,0,.482,2.256,1.606,1.606,0,0,0,1.425.718q1.846,0,1.887-2.84V-5.65q0-2.984-1.907-2.984-1.733,0-1.876,2.574ZM93.018-3.117a.8.8,0,0,0-.461-.708A7.019,7.019,0,0,0,90.8-4.378a8,8,0,0,1-2.133-.754,3.573,3.573,0,0,1-1.282-1.133,2.706,2.706,0,0,1-.441-1.528,3.066,3.066,0,0,1,1.261-2.517,5.2,5.2,0,0,1,3.3-.99,5.756,5.756,0,0,1,3.527.995A3.11,3.11,0,0,1,96.371-7.69H92.906q0-1.333-1.4-1.333a1.393,1.393,0,0,0-.913.3.937.937,0,0,0-.369.754.86.86,0,0,0,.451.749,4.263,4.263,0,0,0,1.441.472,12.45,12.45,0,0,1,1.738.441q2.5.861,2.5,3.086A2.906,2.906,0,0,1,95-.749a5.913,5.913,0,0,1-3.491.954,6.034,6.034,0,0,1-2.543-.513A4.252,4.252,0,0,1,87.225-1.7,3.158,3.158,0,0,1,86.6-3.558h3.23a1.335,1.335,0,0,0,.513,1.123,2.109,2.109,0,0,0,1.261.354,1.659,1.659,0,0,0,1.061-.287A.918.918,0,0,0,93.018-3.117Z" transform="translate(-2000 -2819)" fill="#12263f"/>
    <path id="Trazado_246530" data-name="Trazado 246530" d="M0,0H585" transform="translate(-2056.5 -2673.5)" fill="none" stroke="#fff" stroke-width="3"/>
    <g id="Trazado_246541" data-name="Trazado 246541" transform="translate(-2138 -2722)" fill="#0e8282">
      <path d="M 143 93.5 L 19 93.5 C 16.50230026245117 93.5 14.07958030700684 93.01094055175781 11.79911994934082 92.04637908935547 C 9.596220016479492 91.11463928222656 7.617700099945068 89.7806396484375 5.918519973754883 88.08148193359375 C 4.219359874725342 86.38230133056641 2.8853600025177 84.40377807617188 1.953619956970215 82.20088195800781 C 0.9890599846839905 79.92041778564453 0.5 77.49770355224609 0.5 75 L 0.5 19 C 0.5 16.50230026245117 0.9890599846839905 14.07956027984619 1.953619956970215 11.79911994934082 C 2.8853600025177 9.596199989318848 4.219359874725342 7.617680072784424 5.918519973754883 5.918519973754883 C 7.617700099945068 4.219359874725342 9.596220016479492 2.8853600025177 11.79911994934082 1.953619956970215 C 14.07958030700684 0.9890599846839905 16.50230026245117 0.5 19 0.5 L 143 0.5 C 145.4976959228516 0.5 147.9204406738281 0.9890599846839905 150.2008819580078 1.953619956970215 C 152.4037933349609 2.8853600025177 154.38232421875 4.219359874725342 156.0814819335938 5.918519973754883 C 157.7806396484375 7.617680072784424 159.1146392822266 9.596199989318848 160.04638671875 11.79911994934082 C 161.0109405517578 14.07956027984619 161.5 16.50230026245117 161.5 19 L 161.5 75 C 161.5 77.49770355224609 161.0109405517578 79.92041778564453 160.04638671875 82.20088195800781 C 159.1146392822266 84.40377807617188 157.7806396484375 86.38230133056641 156.0814819335938 88.08148193359375 C 154.38232421875 89.7806396484375 152.4037933349609 91.11463928222656 150.2008819580078 92.04637908935547 C 147.9204406738281 93.01094055175781 145.4976959228516 93.5 143 93.5 Z" stroke="none"/>
      <path d="M 19 1 C 14.1920166015625 1 9.671829223632812 2.872329711914062 6.272079467773438 6.272087097167969 C 2.872329711914062 9.671836853027344 1 14.19202423095703 1 19 L 1 75 C 1 79.8079833984375 2.872329711914062 84.32817077636719 6.272079467773438 87.72792053222656 C 9.671829223632812 91.12767028808594 14.1920166015625 93 19 93 L 143 93 C 147.8079833984375 93 152.3281707763672 91.12767028808594 155.7279205322266 87.72792053222656 C 159.1276702880859 84.32817077636719 161 79.8079833984375 161 75 L 161 19 C 161 14.19202423095703 159.1276702880859 9.671836853027344 155.7279205322266 6.272087097167969 C 152.3281707763672 2.872329711914062 147.8079833984375 1 143 1 L 19 1 M 19 0 L 143 0 C 153.4933929443359 0 162 8.506584167480469 162 19 L 162 75 C 162 85.49341583251953 153.4933929443359 94 143 94 L 19 94 C 8.506576538085938 94 0 85.49341583251953 0 75 L 0 19 C 0 8.506584167480469 8.506576538085938 0 19 0 Z" stroke="none" fill="#f5f5f5"/>
    </g>
    <path id="Trazado_246542" data-name="Trazado 246542" d="M1.053,0H-.219V-8.429l-2.55.937V-8.641L.854-10h.2ZM-45.992,17.842a3.662,3.662,0,0,1-1.166,2.437,3.82,3.82,0,0,1-2.608.858,3.507,3.507,0,0,1-2.827-1.265,5.088,5.088,0,0,1-1.063-3.384v-.957a5.671,5.671,0,0,1,.5-2.44,3.7,3.7,0,0,1,1.4-1.617,3.911,3.911,0,0,1,2.105-.564,3.6,3.6,0,0,1,2.543.885,3.706,3.706,0,0,1,1.114,2.451h-1.319a2.86,2.86,0,0,0-.742-1.728,2.244,2.244,0,0,0-1.6-.535,2.348,2.348,0,0,0-1.972.93,4.271,4.271,0,0,0-.714,2.648v.965a4.391,4.391,0,0,0,.677,2.579,2.187,2.187,0,0,0,1.894.958,2.526,2.526,0,0,0,1.678-.5,2.75,2.75,0,0,0,.776-1.726Zm1.258-.608a4.369,4.369,0,0,1,.427-1.955,3.187,3.187,0,0,1,1.189-1.34,3.238,3.238,0,0,1,1.74-.472,3.119,3.119,0,0,1,2.444,1.046A4.024,4.024,0,0,1-38,17.295v.089a4.407,4.407,0,0,1-.414,1.938A3.14,3.14,0,0,1-39.6,20.658a3.275,3.275,0,0,1-1.767.479A3.111,3.111,0,0,1-43.8,20.091a4,4,0,0,1-.933-2.769Zm1.271.15a3.164,3.164,0,0,0,.571,1.976,1.827,1.827,0,0,0,1.528.745,1.816,1.816,0,0,0,1.531-.755,3.46,3.46,0,0,0,.567-2.116,3.159,3.159,0,0,0-.578-1.972,1.836,1.836,0,0,0-1.535-.755,1.816,1.816,0,0,0-1.511.745A3.434,3.434,0,0,0-43.463,17.384Zm8.244-3.78.041.93a2.7,2.7,0,0,1,2.215-1.066q2.345,0,2.365,2.646V21h-1.265V16.105a1.7,1.7,0,0,0-.366-1.183,1.466,1.466,0,0,0-1.118-.383,1.825,1.825,0,0,0-1.08.328,2.228,2.228,0,0,0-.725.861V21h-1.265V13.6Zm6.193,3.63a4.369,4.369,0,0,1,.427-1.955,3.187,3.187,0,0,1,1.189-1.34,3.238,3.238,0,0,1,1.74-.472,3.119,3.119,0,0,1,2.444,1.046,4.024,4.024,0,0,1,.933,2.782v.089a4.407,4.407,0,0,1-.414,1.938,3.14,3.14,0,0,1-1.183,1.336,3.275,3.275,0,0,1-1.767.479,3.111,3.111,0,0,1-2.437-1.046,4,4,0,0,1-.933-2.769Zm1.271.15a3.164,3.164,0,0,0,.571,1.976,1.827,1.827,0,0,0,1.528.745,1.816,1.816,0,0,0,1.531-.755,3.46,3.46,0,0,0,.567-2.116,3.159,3.159,0,0,0-.578-1.972,1.836,1.836,0,0,0-1.535-.755,1.816,1.816,0,0,0-1.511.745A3.434,3.434,0,0,0-27.754,17.384ZM-17.739,20.1a1.822,1.822,0,0,0,1.183-.41A1.443,1.443,0,0,0-16,18.669h1.2a2.293,2.293,0,0,1-.437,1.21,2.881,2.881,0,0,1-1.077.916,3.107,3.107,0,0,1-1.425.342,3.047,3.047,0,0,1-2.4-1.008,4.016,4.016,0,0,1-.892-2.758v-.212a4.453,4.453,0,0,1,.4-1.921A3.02,3.02,0,0,1-19.5,13.932a3.233,3.233,0,0,1,1.753-.465,2.966,2.966,0,0,1,2.068.745,2.663,2.663,0,0,1,.878,1.935H-16a1.743,1.743,0,0,0-.543-1.179,1.691,1.691,0,0,0-1.207-.461,1.77,1.77,0,0,0-1.494.694,3.259,3.259,0,0,0-.53,2.006v.239a3.194,3.194,0,0,0,.526,1.969A1.779,1.779,0,0,0-17.739,20.1ZM-12,21h-1.265V13.6H-12Zm-1.367-9.358a.755.755,0,0,1,.188-.52.706.706,0,0,1,.557-.212.717.717,0,0,1,.561.212.747.747,0,0,1,.191.52.722.722,0,0,1-.191.513.73.73,0,0,1-.561.205.718.718,0,0,1-.557-.205A.73.73,0,0,1-13.371,11.642Zm4.58,1.962.034.82a2.732,2.732,0,0,1,2.194-.957A2.115,2.115,0,0,1-4.45,14.656a2.8,2.8,0,0,1,.96-.861,2.837,2.837,0,0,1,1.4-.328q2.434,0,2.475,2.577V21H-.882V16.119a1.7,1.7,0,0,0-.362-1.186,1.6,1.6,0,0,0-1.217-.393,1.677,1.677,0,0,0-1.169.42,1.706,1.706,0,0,0-.54,1.131V21H-5.441V16.153A1.411,1.411,0,0,0-7.021,14.54a1.692,1.692,0,0,0-1.7,1.06V21H-9.987V13.6ZM3.664,21H2.4V13.6H3.664ZM2.3,11.642a.755.755,0,0,1,.188-.52.706.706,0,0,1,.557-.212.717.717,0,0,1,.561.212.747.747,0,0,1,.191.52.722.722,0,0,1-.191.513.73.73,0,0,1-.561.205.718.718,0,0,1-.557-.205A.73.73,0,0,1,2.3,11.642Zm6.46,9.5a3.232,3.232,0,0,1-2.447-.988,3.666,3.666,0,0,1-.943-2.642v-.232a4.438,4.438,0,0,1,.42-1.965,3.28,3.28,0,0,1,1.176-1.354A2.956,2.956,0,0,1,8.6,13.467a2.77,2.77,0,0,1,2.242.95,4.114,4.114,0,0,1,.8,2.721v.526H6.631a2.629,2.629,0,0,0,.639,1.767,2.009,2.009,0,0,0,1.555.673,2.2,2.2,0,0,0,1.135-.273,2.851,2.851,0,0,0,.813-.725l.772.6A3.106,3.106,0,0,1,8.757,21.137ZM8.6,14.506a1.687,1.687,0,0,0-1.285.557,2.708,2.708,0,0,0-.643,1.562h3.705v-.1a2.409,2.409,0,0,0-.52-1.494A1.588,1.588,0,0,0,8.6,14.506Zm5.7-.9.041.93a2.7,2.7,0,0,1,2.215-1.066q2.345,0,2.365,2.646V21H17.657V16.105a1.7,1.7,0,0,0-.366-1.183,1.466,1.466,0,0,0-1.118-.383,1.825,1.825,0,0,0-1.08.328,2.228,2.228,0,0,0-.725.861V21H13.1V13.6Zm8.244-1.791V13.6h1.381v.978H22.545v4.593a1.027,1.027,0,0,0,.185.667.777.777,0,0,0,.629.222,3.062,3.062,0,0,0,.6-.082V21a3.688,3.688,0,0,1-.971.136,1.575,1.575,0,0,1-1.278-.513,2.2,2.2,0,0,1-.431-1.456V14.581H19.934V13.6H21.28V11.813Zm2.386,5.421a4.369,4.369,0,0,1,.427-1.955,3.187,3.187,0,0,1,1.189-1.34,3.238,3.238,0,0,1,1.74-.472,3.119,3.119,0,0,1,2.444,1.046,4.024,4.024,0,0,1,.933,2.782v.089a4.407,4.407,0,0,1-.414,1.938,3.14,3.14,0,0,1-1.183,1.336,3.275,3.275,0,0,1-1.767.479,3.111,3.111,0,0,1-2.437-1.046,4,4,0,0,1-.933-2.769Zm1.271.15a3.164,3.164,0,0,0,.571,1.976,1.934,1.934,0,0,0,3.059-.01,3.46,3.46,0,0,0,.567-2.116,3.159,3.159,0,0,0-.578-1.972,1.836,1.836,0,0,0-1.535-.755,1.816,1.816,0,0,0-1.511.745A3.434,3.434,0,0,0,26.2,17.384Zm10.206-.144a4.333,4.333,0,0,1,.807-2.738,2.745,2.745,0,0,1,4.17-.147V10.5h1.265V21H41.487l-.062-.793a2.575,2.575,0,0,1-2.112.93,2.526,2.526,0,0,1-2.1-1.053,4.382,4.382,0,0,1-.81-2.748Zm1.265.144a3.281,3.281,0,0,0,.52,1.969,1.68,1.68,0,0,0,1.436.711,1.845,1.845,0,0,0,1.757-1.08v-3.4a1.859,1.859,0,0,0-1.743-1.046,1.687,1.687,0,0,0-1.449.718A3.612,3.612,0,0,0,37.673,17.384Zm10.008,3.753a3.232,3.232,0,0,1-2.447-.988,3.666,3.666,0,0,1-.943-2.642v-.232a4.438,4.438,0,0,1,.42-1.965,3.28,3.28,0,0,1,1.176-1.354,2.956,2.956,0,0,1,1.637-.489,2.77,2.77,0,0,1,2.242.95,4.114,4.114,0,0,1,.8,2.721v.526H45.555a2.629,2.629,0,0,0,.639,1.767,2.009,2.009,0,0,0,1.555.673,2.2,2.2,0,0,0,1.135-.273,2.851,2.851,0,0,0,.813-.725l.772.6A3.106,3.106,0,0,1,47.681,21.137Zm-.157-6.631a1.687,1.687,0,0,0-1.285.557,2.708,2.708,0,0,0-.643,1.562H49.3v-.1a2.409,2.409,0,0,0-.52-1.494A1.588,1.588,0,0,0,47.523,14.506ZM53.4,21H52.138V10.5H53.4ZM-52.961,34.6l.034.82a2.732,2.732,0,0,1,2.194-.957,2.115,2.115,0,0,1,2.112,1.189,2.8,2.8,0,0,1,.96-.861,2.837,2.837,0,0,1,1.4-.328q2.434,0,2.475,2.577V42h-1.265V37.119a1.7,1.7,0,0,0-.362-1.186,1.6,1.6,0,0,0-1.217-.393,1.677,1.677,0,0,0-1.169.42,1.706,1.706,0,0,0-.54,1.131V42h-1.271V37.153a1.411,1.411,0,0,0-1.579-1.613,1.692,1.692,0,0,0-1.7,1.06V42h-1.265V34.6Zm14.15,7.533a3.232,3.232,0,0,1-2.447-.988,3.666,3.666,0,0,1-.943-2.642v-.232a4.438,4.438,0,0,1,.42-1.965,3.28,3.28,0,0,1,1.176-1.354,2.956,2.956,0,0,1,1.637-.489,2.77,2.77,0,0,1,2.242.95,4.114,4.114,0,0,1,.8,2.721v.526h-5.011a2.629,2.629,0,0,0,.639,1.767,2.009,2.009,0,0,0,1.555.673,2.2,2.2,0,0,0,1.135-.273,2.851,2.851,0,0,0,.813-.725l.772.6A3.106,3.106,0,0,1-38.811,42.137Zm-.157-6.631a1.687,1.687,0,0,0-1.285.557,2.708,2.708,0,0,0-.643,1.562h3.705v-.1a2.409,2.409,0,0,0-.52-1.494A1.588,1.588,0,0,0-38.968,35.506Zm8.08.232a3.79,3.79,0,0,0-.622-.048A1.667,1.667,0,0,0-33.2,36.75V42h-1.265V34.6h1.23l.021.854a1.969,1.969,0,0,1,1.764-.991,1.292,1.292,0,0,1,.561.1Zm4,5.366a1.822,1.822,0,0,0,1.183-.41,1.443,1.443,0,0,0,.561-1.025h1.2a2.293,2.293,0,0,1-.437,1.21,2.881,2.881,0,0,1-1.077.916,3.107,3.107,0,0,1-1.425.342,3.047,3.047,0,0,1-2.4-1.008,4.016,4.016,0,0,1-.892-2.758v-.212a4.453,4.453,0,0,1,.4-1.921,3.02,3.02,0,0,1,1.138-1.306,3.233,3.233,0,0,1,1.753-.465,2.966,2.966,0,0,1,2.068.745,2.663,2.663,0,0,1,.878,1.935h-1.2a1.743,1.743,0,0,0-.543-1.179,1.691,1.691,0,0,0-1.207-.461,1.77,1.77,0,0,0-1.494.694,3.259,3.259,0,0,0-.53,2.006v.239a3.194,3.194,0,0,0,.526,1.969A1.779,1.779,0,0,0-26.889,41.1Zm8.928.9a2.657,2.657,0,0,1-.178-.779,2.822,2.822,0,0,1-2.105.916,2.611,2.611,0,0,1-1.794-.619,2,2,0,0,1-.7-1.569,2.091,2.091,0,0,1,.878-1.794,4.142,4.142,0,0,1,2.471-.639h1.23v-.581a1.42,1.42,0,0,0-.4-1.056,1.593,1.593,0,0,0-1.169-.393,1.844,1.844,0,0,0-1.135.342,1.007,1.007,0,0,0-.458.827h-1.271a1.745,1.745,0,0,1,.393-1.07,2.683,2.683,0,0,1,1.066-.817,3.588,3.588,0,0,1,1.48-.3,2.924,2.924,0,0,1,2,.639,2.306,2.306,0,0,1,.752,1.76v3.4a4.162,4.162,0,0,0,.26,1.62V42Zm-2.1-.964a2.223,2.223,0,0,0,1.128-.308,1.861,1.861,0,0,0,.772-.8V38.411h-.991q-2.324,0-2.324,1.36a1.151,1.151,0,0,0,.4.93A1.524,1.524,0,0,0-20.06,41.036Zm4.84-2.8a4.333,4.333,0,0,1,.807-2.738A2.551,2.551,0,0,1-12.3,34.467a2.565,2.565,0,0,1,2.058.889V31.5h1.265V42h-1.162l-.062-.793a2.575,2.575,0,0,1-2.112.93,2.526,2.526,0,0,1-2.1-1.053,4.382,4.382,0,0,1-.81-2.748Zm1.265.144a3.281,3.281,0,0,0,.52,1.969A1.68,1.68,0,0,0-12,41.063a1.845,1.845,0,0,0,1.757-1.08v-3.4a1.859,1.859,0,0,0-1.743-1.046,1.687,1.687,0,0,0-1.449.718A3.612,3.612,0,0,0-13.956,38.384Zm6.6-.15a4.369,4.369,0,0,1,.427-1.955,3.187,3.187,0,0,1,1.189-1.34A3.238,3.238,0,0,1-4,34.467a3.119,3.119,0,0,1,2.444,1.046,4.024,4.024,0,0,1,.933,2.782v.089a4.407,4.407,0,0,1-.414,1.938,3.14,3.14,0,0,1-1.183,1.336,3.275,3.275,0,0,1-1.767.479,3.111,3.111,0,0,1-2.437-1.046,4,4,0,0,1-.933-2.769Zm1.271.15a3.164,3.164,0,0,0,.571,1.976,1.827,1.827,0,0,0,1.528.745,1.816,1.816,0,0,0,1.531-.755,3.46,3.46,0,0,0,.567-2.116,3.159,3.159,0,0,0-.578-1.972A1.836,1.836,0,0,0-4,35.506a1.816,1.816,0,0,0-1.511.745A3.435,3.435,0,0,0-6.081,38.384Zm9.468,1.764L5.11,34.6H6.463L3.49,43.142Q2.8,44.987,1.3,44.987l-.239-.021-.472-.089V43.853l.342.027a1.683,1.683,0,0,0,1-.26,1.88,1.88,0,0,0,.591-.95l.28-.752L.161,34.6H1.542Zm10.637.957a1.822,1.822,0,0,0,1.183-.41,1.443,1.443,0,0,0,.561-1.025h1.2a2.293,2.293,0,0,1-.437,1.21,2.881,2.881,0,0,1-1.077.916,3.107,3.107,0,0,1-1.425.342,3.047,3.047,0,0,1-2.4-1.008,4.016,4.016,0,0,1-.892-2.758v-.212a4.453,4.453,0,0,1,.4-1.921,3.02,3.02,0,0,1,1.138-1.306,3.233,3.233,0,0,1,1.753-.465,2.966,2.966,0,0,1,2.068.745,2.663,2.663,0,0,1,.878,1.935h-1.2a1.743,1.743,0,0,0-.543-1.179,1.691,1.691,0,0,0-1.207-.461,1.77,1.77,0,0,0-1.494.694,3.259,3.259,0,0,0-.53,2.006v.239a3.194,3.194,0,0,0,.526,1.969A1.779,1.779,0,0,0,14.024,41.1Zm5.735.9H18.495V31.5h1.265Zm3.4,0H21.892V34.6h1.265ZM21.79,32.642a.755.755,0,0,1,.188-.52.706.706,0,0,1,.557-.212.717.717,0,0,1,.561.212.747.747,0,0,1,.191.52.722.722,0,0,1-.191.513.73.73,0,0,1-.561.205.718.718,0,0,1-.557-.205A.73.73,0,0,1,21.79,32.642Zm6.46,9.5a3.232,3.232,0,0,1-2.447-.988,3.666,3.666,0,0,1-.943-2.642v-.232a4.438,4.438,0,0,1,.42-1.965,3.28,3.28,0,0,1,1.176-1.354,2.956,2.956,0,0,1,1.637-.489,2.77,2.77,0,0,1,2.242.95,4.114,4.114,0,0,1,.8,2.721v.526H26.124a2.629,2.629,0,0,0,.639,1.767,2.009,2.009,0,0,0,1.555.673,2.2,2.2,0,0,0,1.135-.273,2.851,2.851,0,0,0,.813-.725l.772.6A3.106,3.106,0,0,1,28.25,42.137Zm-.157-6.631a1.687,1.687,0,0,0-1.285.557,2.708,2.708,0,0,0-.643,1.562H29.87v-.1a2.409,2.409,0,0,0-.52-1.494A1.588,1.588,0,0,0,28.092,35.506Zm5.7-.9.041.93a2.7,2.7,0,0,1,2.215-1.066q2.345,0,2.365,2.646V42H37.15V37.105a1.7,1.7,0,0,0-.366-1.183,1.466,1.466,0,0,0-1.118-.383,1.825,1.825,0,0,0-1.08.328,2.228,2.228,0,0,0-.725.861V42H32.6V34.6Zm8.244-1.791V34.6h1.381v.978H42.038v4.593a1.027,1.027,0,0,0,.185.667.777.777,0,0,0,.629.222,3.062,3.062,0,0,0,.6-.082V42a3.688,3.688,0,0,1-.971.136,1.575,1.575,0,0,1-1.278-.513,2.2,2.2,0,0,1-.431-1.456V35.581H39.426V34.6h1.347V32.813Zm5.927,9.324a3.232,3.232,0,0,1-2.447-.988,3.666,3.666,0,0,1-.943-2.642v-.232a4.438,4.438,0,0,1,.42-1.965,3.28,3.28,0,0,1,1.176-1.354,2.956,2.956,0,0,1,1.637-.489,2.77,2.77,0,0,1,2.242.95,4.114,4.114,0,0,1,.8,2.721v.526H45.838a2.629,2.629,0,0,0,.639,1.767,2.009,2.009,0,0,0,1.555.673,2.2,2.2,0,0,0,1.135-.273,2.851,2.851,0,0,0,.813-.725l.772.6A3.106,3.106,0,0,1,47.964,42.137Zm-.157-6.631a1.687,1.687,0,0,0-1.285.557,2.708,2.708,0,0,0-.643,1.562h3.705v-.1a2.409,2.409,0,0,0-.52-1.494A1.588,1.588,0,0,0,47.807,35.506Zm8.812,4.532a.931.931,0,0,0-.386-.8,3.718,3.718,0,0,0-1.347-.489,6.367,6.367,0,0,1-1.524-.492,2.169,2.169,0,0,1-.834-.684,1.635,1.635,0,0,1-.27-.943,1.919,1.919,0,0,1,.769-1.538,3,3,0,0,1,1.965-.629,3.091,3.091,0,0,1,2.041.649,2.063,2.063,0,0,1,.783,1.661H56.543a1.142,1.142,0,0,0-.441-.9,1.652,1.652,0,0,0-1.111-.376,1.729,1.729,0,0,0-1.08.3.947.947,0,0,0-.39.786.767.767,0,0,0,.362.69,4.458,4.458,0,0,0,1.309.444,6.821,6.821,0,0,1,1.535.506,2.239,2.239,0,0,1,.872.708,1.74,1.74,0,0,1,.284,1.008,1.893,1.893,0,0,1-.793,1.589,3.326,3.326,0,0,1-2.058.6,3.725,3.725,0,0,1-1.572-.314,2.557,2.557,0,0,1-1.07-.878A2.117,2.117,0,0,1,52,39.724h1.265a1.309,1.309,0,0,0,.509,1.008,1.976,1.976,0,0,0,1.254.373,2.039,2.039,0,0,0,1.152-.291A.893.893,0,0,0,56.619,40.038Z" transform="translate(-2057 -2695.793)" fill="#f3f9ff"/>
    <g id="Trazado_246538" data-name="Trazado 246538" transform="translate(-1966 -2722)" fill="#0e8282">
      <path d="M 143 93.5 L 19 93.5 C 16.50230026245117 93.5 14.07958030700684 93.01094055175781 11.79911994934082 92.04637908935547 C 9.596220016479492 91.11463928222656 7.617700099945068 89.7806396484375 5.918519973754883 88.08148193359375 C 4.219359874725342 86.38230133056641 2.8853600025177 84.40377807617188 1.953619956970215 82.20088195800781 C 0.9890599846839905 79.92041778564453 0.5 77.49770355224609 0.5 75 L 0.5 19 C 0.5 16.50230026245117 0.9890599846839905 14.07956027984619 1.953619956970215 11.79911994934082 C 2.8853600025177 9.596199989318848 4.219359874725342 7.617680072784424 5.918519973754883 5.918519973754883 C 7.617700099945068 4.219359874725342 9.596220016479492 2.8853600025177 11.79911994934082 1.953619956970215 C 14.07958030700684 0.9890599846839905 16.50230026245117 0.5 19 0.5 L 143 0.5 C 145.4976959228516 0.5 147.9204406738281 0.9890599846839905 150.2008819580078 1.953619956970215 C 152.4037933349609 2.8853600025177 154.38232421875 4.219359874725342 156.0814819335938 5.918519973754883 C 157.7806396484375 7.617680072784424 159.1146392822266 9.596199989318848 160.04638671875 11.79911994934082 C 161.0109405517578 14.07956027984619 161.5 16.50230026245117 161.5 19 L 161.5 75 C 161.5 77.49770355224609 161.0109405517578 79.92041778564453 160.04638671875 82.20088195800781 C 159.1146392822266 84.40377807617188 157.7806396484375 86.38230133056641 156.0814819335938 88.08148193359375 C 154.38232421875 89.7806396484375 152.4037933349609 91.11463928222656 150.2008819580078 92.04637908935547 C 147.9204406738281 93.01094055175781 145.4976959228516 93.5 143 93.5 Z" stroke="none"/>
      <path d="M 19 1 C 14.1920166015625 1 9.671829223632812 2.872329711914062 6.272079467773438 6.272087097167969 C 2.872329711914062 9.671836853027344 1 14.19202423095703 1 19 L 1 75 C 1 79.8079833984375 2.872329711914062 84.32817077636719 6.272079467773438 87.72792053222656 C 9.671829223632812 91.12767028808594 14.1920166015625 93 19 93 L 143 93 C 147.8079833984375 93 152.3281707763672 91.12767028808594 155.7279205322266 87.72792053222656 C 159.1276702880859 84.32817077636719 161 79.8079833984375 161 75 L 161 19 C 161 14.19202423095703 159.1276702880859 9.671836853027344 155.7279205322266 6.272087097167969 C 152.3281707763672 2.872329711914062 147.8079833984375 1 143 1 L 19 1 M 19 0 L 143 0 C 153.4933929443359 0 162 8.506584167480469 162 19 L 162 75 C 162 85.49341583251953 153.4933929443359 94 143 94 L 19 94 C 8.506576538085938 94 0 85.49341583251953 0 75 L 0 19 C 0 8.506584167480469 8.506576538085938 0 19 0 Z" stroke="none" fill="#f5f5f5"/>
    </g>
    <path id="Trazado_246539" data-name="Trazado 246539" d="M3.418,0H-3.1V-.909L.342-4.737A8.185,8.185,0,0,0,1.4-6.149a2.356,2.356,0,0,0,.291-1.125,1.786,1.786,0,0,0-.472-1.278,1.649,1.649,0,0,0-1.258-.5,1.953,1.953,0,0,0-1.466.537A2.05,2.05,0,0,0-2.03-7.021H-3.295A2.936,2.936,0,0,1-2.41-9.242,3.282,3.282,0,0,1-.041-10.09a3.153,3.153,0,0,1,2.194.728A2.483,2.483,0,0,1,2.96-7.424q0,1.47-1.873,3.5L-1.579-1.032h5ZM-50.6,21V11.047h2.81a4.523,4.523,0,0,1,2.3.574,3.884,3.884,0,0,1,1.542,1.634,5.318,5.318,0,0,1,.55,2.434v.636a5.336,5.336,0,0,1-.543,2.468,3.823,3.823,0,0,1-1.552,1.627A4.811,4.811,0,0,1-47.841,21Zm1.313-8.88v7.807H-47.9a3,3,0,0,0,2.362-.944,3.9,3.9,0,0,0,.844-2.689v-.582a3.963,3.963,0,0,0-.8-2.637,2.834,2.834,0,0,0-2.259-.954Zm10.739,9.017a3.232,3.232,0,0,1-2.447-.988,3.666,3.666,0,0,1-.943-2.642v-.232a4.438,4.438,0,0,1,.42-1.965,3.28,3.28,0,0,1,1.176-1.354,2.956,2.956,0,0,1,1.637-.489,2.77,2.77,0,0,1,2.242.95,4.114,4.114,0,0,1,.8,2.721v.526H-40.67a2.629,2.629,0,0,0,.639,1.767,2.009,2.009,0,0,0,1.555.673,2.2,2.2,0,0,0,1.135-.273,2.851,2.851,0,0,0,.813-.725l.772.6A3.106,3.106,0,0,1-38.544,21.137Zm-.157-6.631a1.687,1.687,0,0,0-1.285.557,2.708,2.708,0,0,0-.643,1.562h3.705v-.1a2.409,2.409,0,0,0-.52-1.494A1.588,1.588,0,0,0-38.7,14.506Zm8.812,4.532a.931.931,0,0,0-.386-.8,3.718,3.718,0,0,0-1.347-.489,6.367,6.367,0,0,1-1.524-.492,2.169,2.169,0,0,1-.834-.684,1.635,1.635,0,0,1-.27-.943,1.919,1.919,0,0,1,.769-1.538,3,3,0,0,1,1.965-.629,3.091,3.091,0,0,1,2.041.649,2.063,2.063,0,0,1,.783,1.661h-1.271a1.142,1.142,0,0,0-.441-.9,1.652,1.652,0,0,0-1.111-.376,1.729,1.729,0,0,0-1.08.3.947.947,0,0,0-.39.786.767.767,0,0,0,.362.69,4.458,4.458,0,0,0,1.309.444,6.821,6.821,0,0,1,1.535.506,2.239,2.239,0,0,1,.872.708,1.74,1.74,0,0,1,.284,1.008,1.893,1.893,0,0,1-.793,1.589,3.326,3.326,0,0,1-2.058.6,3.725,3.725,0,0,1-1.572-.314,2.557,2.557,0,0,1-1.07-.878,2.117,2.117,0,0,1-.386-1.22h1.265a1.309,1.309,0,0,0,.509,1.008,1.976,1.976,0,0,0,1.254.373,2.039,2.039,0,0,0,1.152-.291A.893.893,0,0,0-29.89,19.038ZM-22.412,21a2.657,2.657,0,0,1-.178-.779,2.822,2.822,0,0,1-2.105.916,2.611,2.611,0,0,1-1.794-.619,2,2,0,0,1-.7-1.569,2.091,2.091,0,0,1,.878-1.794,4.141,4.141,0,0,1,2.471-.639h1.23v-.581a1.42,1.42,0,0,0-.4-1.056,1.593,1.593,0,0,0-1.169-.393,1.844,1.844,0,0,0-1.135.342,1.007,1.007,0,0,0-.458.827H-27.04a1.745,1.745,0,0,1,.393-1.07,2.683,2.683,0,0,1,1.066-.817,3.588,3.588,0,0,1,1.48-.3,2.924,2.924,0,0,1,2,.639,2.306,2.306,0,0,1,.752,1.76v3.4a4.162,4.162,0,0,0,.26,1.62V21Zm-2.1-.964a2.223,2.223,0,0,0,1.128-.308,1.861,1.861,0,0,0,.772-.8V17.411H-23.6q-2.324,0-2.324,1.36a1.151,1.151,0,0,0,.4.93A1.524,1.524,0,0,0-24.51,20.036Zm8.723-5.3a3.79,3.79,0,0,0-.622-.048A1.667,1.667,0,0,0-18.1,15.75V21h-1.265V13.6h1.23l.021.854a1.969,1.969,0,0,1,1.764-.991,1.292,1.292,0,0,1,.561.1Zm4.737,0a3.79,3.79,0,0,0-.622-.048,1.667,1.667,0,0,0-1.688,1.06V21h-1.265V13.6h1.23l.021.854a1.969,1.969,0,0,1,1.764-.991,1.292,1.292,0,0,1,.561.1Zm.69,2.5a4.369,4.369,0,0,1,.427-1.955,3.187,3.187,0,0,1,1.189-1.34A3.238,3.238,0,0,1-7,13.467,3.119,3.119,0,0,1-4.56,14.513a4.024,4.024,0,0,1,.933,2.782v.089a4.407,4.407,0,0,1-.414,1.938,3.14,3.14,0,0,1-1.183,1.336,3.275,3.275,0,0,1-1.767.479,3.111,3.111,0,0,1-2.437-1.046,4,4,0,0,1-.933-2.769Zm1.271.15a3.164,3.164,0,0,0,.571,1.976A1.827,1.827,0,0,0-6.99,20.1a1.816,1.816,0,0,0,1.531-.755,3.46,3.46,0,0,0,.567-2.116,3.159,3.159,0,0,0-.578-1.972A1.836,1.836,0,0,0-7,14.506a1.816,1.816,0,0,0-1.511.745A3.434,3.434,0,0,0-9.088,17.384ZM-.667,21H-1.931V10.5H-.667Zm3.4,0H1.466V10.5H2.731Zm1.688-3.767a4.369,4.369,0,0,1,.427-1.955,3.187,3.187,0,0,1,1.189-1.34,3.238,3.238,0,0,1,1.74-.472,3.119,3.119,0,0,1,2.444,1.046,4.024,4.024,0,0,1,.933,2.782v.089a4.407,4.407,0,0,1-.414,1.938,3.14,3.14,0,0,1-1.183,1.336,3.275,3.275,0,0,1-1.767.479,3.111,3.111,0,0,1-2.437-1.046,4,4,0,0,1-.933-2.769Zm1.271.15a3.164,3.164,0,0,0,.571,1.976A1.827,1.827,0,0,0,7.79,20.1a1.816,1.816,0,0,0,1.531-.755,3.46,3.46,0,0,0,.567-2.116,3.159,3.159,0,0,0-.578-1.972,1.836,1.836,0,0,0-1.535-.755,1.816,1.816,0,0,0-1.511.745A3.434,3.434,0,0,0,5.691,17.384Zm12.954,1.9L20.477,13.6h1.292L19.117,21h-.964l-2.68-7.4h1.292ZM24.36,21H23.1V13.6H24.36Zm-1.367-9.358a.755.755,0,0,1,.188-.52.706.706,0,0,1,.557-.212.717.717,0,0,1,.561.212.747.747,0,0,1,.191.52.722.722,0,0,1-.191.513.73.73,0,0,1-.561.205.718.718,0,0,1-.557-.205A.73.73,0,0,1,22.993,11.642Zm7.7,7.4a.931.931,0,0,0-.386-.8,3.718,3.718,0,0,0-1.347-.489,6.367,6.367,0,0,1-1.524-.492,2.169,2.169,0,0,1-.834-.684,1.635,1.635,0,0,1-.27-.943A1.919,1.919,0,0,1,27.1,14.1a3,3,0,0,1,1.965-.629,3.091,3.091,0,0,1,2.041.649,2.063,2.063,0,0,1,.783,1.661H30.615a1.142,1.142,0,0,0-.441-.9,1.652,1.652,0,0,0-1.111-.376,1.729,1.729,0,0,0-1.08.3.947.947,0,0,0-.39.786.767.767,0,0,0,.362.69,4.458,4.458,0,0,0,1.309.444,6.821,6.821,0,0,1,1.535.506,2.239,2.239,0,0,1,.872.708,1.74,1.74,0,0,1,.284,1.008,1.893,1.893,0,0,1-.793,1.589,3.326,3.326,0,0,1-2.058.6,3.725,3.725,0,0,1-1.572-.314,2.557,2.557,0,0,1-1.07-.878,2.117,2.117,0,0,1-.386-1.22H27.34a1.309,1.309,0,0,0,.509,1.008A1.976,1.976,0,0,0,29.1,20.1a2.039,2.039,0,0,0,1.152-.291A.893.893,0,0,0,30.69,19.038ZM34.976,21H33.711V13.6h1.265Zm-1.367-9.358a.755.755,0,0,1,.188-.52.706.706,0,0,1,.557-.212.717.717,0,0,1,.561.212.747.747,0,0,1,.191.52.722.722,0,0,1-.191.513.73.73,0,0,1-.561.205.718.718,0,0,1-.557-.205A.73.73,0,0,1,33.609,11.642Zm3.056,5.592a4.369,4.369,0,0,1,.427-1.955,3.187,3.187,0,0,1,1.189-1.34,3.238,3.238,0,0,1,1.74-.472,3.119,3.119,0,0,1,2.444,1.046,4.024,4.024,0,0,1,.933,2.782v.089a4.407,4.407,0,0,1-.414,1.938A3.14,3.14,0,0,1,41.8,20.658a3.275,3.275,0,0,1-1.767.479A3.111,3.111,0,0,1,37.6,20.091a4,4,0,0,1-.933-2.769Zm1.271.15a3.164,3.164,0,0,0,.571,1.976,1.934,1.934,0,0,0,3.059-.01,3.46,3.46,0,0,0,.567-2.116,3.159,3.159,0,0,0-.578-1.972,1.836,1.836,0,0,0-1.535-.755,1.816,1.816,0,0,0-1.511.745A3.434,3.434,0,0,0,37.936,17.384ZM40.6,10.5h1.531l-1.832,2.01-1.019,0Zm5.585,3.1.041.93a2.7,2.7,0,0,1,2.215-1.066q2.345,0,2.365,2.646V21H49.537V16.105a1.7,1.7,0,0,0-.366-1.183,1.466,1.466,0,0,0-1.118-.383,1.825,1.825,0,0,0-1.08.328,2.228,2.228,0,0,0-.725.861V21H44.984V13.6ZM-32.741,40.147l1.723-5.544h1.354l-2.974,8.538q-.69,1.846-2.194,1.846l-.239-.021-.472-.089V43.853l.342.027a1.683,1.683,0,0,0,1-.26,1.88,1.88,0,0,0,.591-.95l.28-.752L-35.967,34.6h1.381ZM-22,42.137a3.232,3.232,0,0,1-2.447-.988,3.666,3.666,0,0,1-.943-2.642v-.232a4.438,4.438,0,0,1,.42-1.965A3.28,3.28,0,0,1-23.8,34.956a2.956,2.956,0,0,1,1.637-.489,2.77,2.77,0,0,1,2.242.95,4.114,4.114,0,0,1,.8,2.721v.526h-5.011a2.629,2.629,0,0,0,.639,1.767,2.009,2.009,0,0,0,1.555.673,2.2,2.2,0,0,0,1.135-.273,2.851,2.851,0,0,0,.813-.725l.772.6A3.106,3.106,0,0,1-22,42.137Zm-.157-6.631a1.687,1.687,0,0,0-1.285.557,2.708,2.708,0,0,0-.643,1.562h3.705v-.1a2.409,2.409,0,0,0-.52-1.494A1.588,1.588,0,0,0-22.159,35.506Zm8.812,4.532a.931.931,0,0,0-.386-.8,3.718,3.718,0,0,0-1.347-.489,6.367,6.367,0,0,1-1.524-.492,2.169,2.169,0,0,1-.834-.684,1.635,1.635,0,0,1-.27-.943,1.919,1.919,0,0,1,.769-1.538,3,3,0,0,1,1.965-.629,3.091,3.091,0,0,1,2.041.649,2.063,2.063,0,0,1,.783,1.661h-1.271a1.142,1.142,0,0,0-.441-.9,1.652,1.652,0,0,0-1.111-.376,1.729,1.729,0,0,0-1.08.3.947.947,0,0,0-.39.786.767.767,0,0,0,.362.69,4.458,4.458,0,0,0,1.309.444,6.821,6.821,0,0,1,1.535.506,2.239,2.239,0,0,1,.872.708,1.74,1.74,0,0,1,.284,1.008,1.893,1.893,0,0,1-.793,1.589,3.326,3.326,0,0,1-2.058.6,3.725,3.725,0,0,1-1.572-.314,2.557,2.557,0,0,1-1.07-.878,2.117,2.117,0,0,1-.386-1.22H-16.7a1.309,1.309,0,0,0,.509,1.008,1.976,1.976,0,0,0,1.254.373,2.039,2.039,0,0,0,1.152-.291A.893.893,0,0,0-13.347,40.038Zm4.628-7.226V34.6h1.381v.978H-8.719v4.593a1.027,1.027,0,0,0,.185.667.777.777,0,0,0,.629.222,3.062,3.062,0,0,0,.6-.082V42a3.688,3.688,0,0,1-.971.136,1.575,1.575,0,0,1-1.278-.513,2.2,2.2,0,0,1-.431-1.456V35.581h-1.347V34.6h1.347V32.813Zm6.433,2.926a3.79,3.79,0,0,0-.622-.048A1.667,1.667,0,0,0-4.6,36.75V42H-5.862V34.6h1.23l.021.854a1.969,1.969,0,0,1,1.764-.991,1.292,1.292,0,0,1,.561.1ZM3.168,42a2.657,2.657,0,0,1-.178-.779,2.822,2.822,0,0,1-2.105.916,2.611,2.611,0,0,1-1.794-.619,2,2,0,0,1-.7-1.569,2.091,2.091,0,0,1,.878-1.794,4.142,4.142,0,0,1,2.471-.639H2.97v-.581a1.42,1.42,0,0,0-.4-1.056A1.593,1.593,0,0,0,1.4,35.485a1.844,1.844,0,0,0-1.135.342,1.007,1.007,0,0,0-.458.827H-1.459a1.745,1.745,0,0,1,.393-1.07A2.683,2.683,0,0,1,0,34.768a3.588,3.588,0,0,1,1.48-.3,2.924,2.924,0,0,1,2,.639,2.306,2.306,0,0,1,.752,1.76v3.4a4.162,4.162,0,0,0,.26,1.62V42Zm-2.1-.964A2.223,2.223,0,0,0,2.2,40.729a1.861,1.861,0,0,0,.772-.8V38.411H1.979q-2.324,0-2.324,1.36a1.151,1.151,0,0,0,.4.93A1.524,1.524,0,0,0,1.07,41.036Zm6.863-8.224V34.6H9.314v.978H7.933v4.593a1.027,1.027,0,0,0,.185.667.777.777,0,0,0,.629.222,3.062,3.062,0,0,0,.6-.082V42a3.688,3.688,0,0,1-.971.136A1.575,1.575,0,0,1,7.1,41.624a2.2,2.2,0,0,1-.431-1.456V35.581H5.322V34.6H6.668V32.813Zm5.927,9.324a3.232,3.232,0,0,1-2.447-.988,3.666,3.666,0,0,1-.943-2.642v-.232a4.438,4.438,0,0,1,.42-1.965,3.28,3.28,0,0,1,1.176-1.354,2.956,2.956,0,0,1,1.637-.489,2.77,2.77,0,0,1,2.242.95,4.114,4.114,0,0,1,.8,2.721v.526H11.734a2.629,2.629,0,0,0,.639,1.767,2.009,2.009,0,0,0,1.555.673,2.2,2.2,0,0,0,1.135-.273,2.851,2.851,0,0,0,.813-.725l.772.6A3.106,3.106,0,0,1,13.86,42.137ZM13.7,35.506a1.687,1.687,0,0,0-1.285.557,2.708,2.708,0,0,0-.643,1.562H15.48v-.1a2.409,2.409,0,0,0-.52-1.494A1.588,1.588,0,0,0,13.7,35.506Zm4.2,2.734a4.347,4.347,0,0,1,.8-2.751,2.757,2.757,0,0,1,4.231-.065L23,34.6h1.155v7.219a3.009,3.009,0,0,1-.851,2.263,3.141,3.141,0,0,1-2.287.827,3.8,3.8,0,0,1-1.565-.342,2.7,2.7,0,0,1-1.169-.937l.656-.759a2.473,2.473,0,0,0,1.989,1,1.938,1.938,0,0,0,1.439-.52,1.986,1.986,0,0,0,.516-1.463v-.636a2.6,2.6,0,0,1-2.071.875,2.527,2.527,0,0,1-2.1-1.046A4.571,4.571,0,0,1,17.907,38.24Zm1.271.144a3.316,3.316,0,0,0,.513,1.965,1.666,1.666,0,0,0,1.436.714,1.852,1.852,0,0,0,1.757-1.087V36.6a1.874,1.874,0,0,0-1.743-1.06,1.681,1.681,0,0,0-1.442.718A3.612,3.612,0,0,0,19.178,38.384ZM27.436,42H26.171V34.6h1.265Zm-1.367-9.358a.755.755,0,0,1,.188-.52.706.706,0,0,1,.557-.212.717.717,0,0,1,.561.212.747.747,0,0,1,.191.52.722.722,0,0,1-.191.513.73.73,0,0,1-.561.205.718.718,0,0,1-.557-.205A.73.73,0,0,1,26.069,32.642ZM34.026,42a2.657,2.657,0,0,1-.178-.779,2.822,2.822,0,0,1-2.105.916,2.611,2.611,0,0,1-1.794-.619,2,2,0,0,1-.7-1.569,2.091,2.091,0,0,1,.878-1.794,4.142,4.142,0,0,1,2.471-.639h1.23v-.581a1.42,1.42,0,0,0-.4-1.056,1.593,1.593,0,0,0-1.169-.393,1.844,1.844,0,0,0-1.135.342,1.007,1.007,0,0,0-.458.827H29.4a1.745,1.745,0,0,1,.393-1.07,2.683,2.683,0,0,1,1.066-.817,3.588,3.588,0,0,1,1.48-.3,2.924,2.924,0,0,1,2,.639,2.306,2.306,0,0,1,.752,1.76v3.4a4.162,4.162,0,0,0,.26,1.62V42Zm-2.1-.964a2.223,2.223,0,0,0,1.128-.308,1.861,1.861,0,0,0,.772-.8V38.411h-.991q-2.324,0-2.324,1.36a1.151,1.151,0,0,0,.4.93A1.524,1.524,0,0,0,31.927,41.036Z" transform="translate(-1885 -2695.793)" fill="#f3f9ff"/>
    <g id="Trazado_246536" data-name="Trazado 246536" transform="translate(-1791 -2722)" fill="#0e8282">
      <path d="M 143 93.5 L 19 93.5 C 16.50230026245117 93.5 14.07958030700684 93.01094055175781 11.79911994934082 92.04637908935547 C 9.596220016479492 91.11463928222656 7.617700099945068 89.7806396484375 5.918519973754883 88.08148193359375 C 4.219359874725342 86.38230133056641 2.8853600025177 84.40377807617188 1.953619956970215 82.20088195800781 C 0.9890599846839905 79.92041778564453 0.5 77.49770355224609 0.5 75 L 0.5 19 C 0.5 16.50230026245117 0.9890599846839905 14.07956027984619 1.953619956970215 11.79911994934082 C 2.8853600025177 9.596199989318848 4.219359874725342 7.617680072784424 5.918519973754883 5.918519973754883 C 7.617700099945068 4.219359874725342 9.596220016479492 2.8853600025177 11.79911994934082 1.953619956970215 C 14.07958030700684 0.9890599846839905 16.50230026245117 0.5 19 0.5 L 143 0.5 C 145.4976959228516 0.5 147.9204406738281 0.9890599846839905 150.2008819580078 1.953619956970215 C 152.4037933349609 2.8853600025177 154.38232421875 4.219359874725342 156.0814819335938 5.918519973754883 C 157.7806396484375 7.617680072784424 159.1146392822266 9.596199989318848 160.04638671875 11.79911994934082 C 161.0109405517578 14.07956027984619 161.5 16.50230026245117 161.5 19 L 161.5 75 C 161.5 77.49770355224609 161.0109405517578 79.92041778564453 160.04638671875 82.20088195800781 C 159.1146392822266 84.40377807617188 157.7806396484375 86.38230133056641 156.0814819335938 88.08148193359375 C 154.38232421875 89.7806396484375 152.4037933349609 91.11463928222656 150.2008819580078 92.04637908935547 C 147.9204406738281 93.01094055175781 145.4976959228516 93.5 143 93.5 Z" stroke="none"/>
      <path d="M 19 1 C 14.1920166015625 1 9.671829223632812 2.872329711914062 6.272079467773438 6.272087097167969 C 2.872329711914062 9.671836853027344 1 14.19202423095703 1 19 L 1 75 C 1 79.8079833984375 2.872329711914062 84.32817077636719 6.272079467773438 87.72792053222656 C 9.671829223632812 91.12767028808594 14.1920166015625 93 19 93 L 143 93 C 147.8079833984375 93 152.3281707763672 91.12767028808594 155.7279205322266 87.72792053222656 C 159.1276702880859 84.32817077636719 161 79.8079833984375 161 75 L 161 19 C 161 14.19202423095703 159.1276702880859 9.671836853027344 155.7279205322266 6.272087097167969 C 152.3281707763672 2.872329711914062 147.8079833984375 1 143 1 L 19 1 M 19 0 L 143 0 C 153.4933929443359 0 162 8.506584167480469 162 19 L 162 75 C 162 85.49341583251953 153.4933929443359 94 143 94 L 19 94 C 8.506576538085938 94 0 85.49341583251953 0 75 L 0 19 C 0 8.506584167480469 8.506576538085938 0 19 0 Z" stroke="none" fill="#f5f5f5"/>
    </g>
    <path id="Trazado_246537" data-name="Trazado 246537" d="M-1.265-5.592h.95a2.088,2.088,0,0,0,1.408-.472A1.576,1.576,0,0,0,1.606-7.3,1.544,1.544,0,0,0-.137-9.051a1.813,1.813,0,0,0-1.309.468,1.639,1.639,0,0,0-.489,1.241H-3.2a2.539,2.539,0,0,1,.865-1.965,3.15,3.15,0,0,1,2.2-.783,3.113,3.113,0,0,1,2.208.745,2.692,2.692,0,0,1,.8,2.071,2.185,2.185,0,0,1-.42,1.258,2.538,2.538,0,0,1-1.145.909,2.446,2.446,0,0,1,1.268.861,2.392,2.392,0,0,1,.448,1.47A2.715,2.715,0,0,1,2.146-.649,3.277,3.277,0,0,1-.13.137,3.363,3.363,0,0,1-2.41-.622a2.517,2.517,0,0,1-.878-2h1.271A1.627,1.627,0,0,0-1.5-1.367,1.95,1.95,0,0,0-.13-.9a1.914,1.914,0,0,0,1.4-.479,1.844,1.844,0,0,0,.485-1.374,1.673,1.673,0,0,0-.533-1.333A2.323,2.323,0,0,0-.314-4.56h-.95ZM-53.549,21V11.047h2.81a4.523,4.523,0,0,1,2.3.574A3.884,3.884,0,0,1-46.9,13.255a5.318,5.318,0,0,1,.55,2.434v.636a5.336,5.336,0,0,1-.543,2.468,3.823,3.823,0,0,1-1.552,1.627A4.811,4.811,0,0,1-50.794,21Zm1.313-8.88v7.807h1.381a3,3,0,0,0,2.362-.944,3.9,3.9,0,0,0,.844-2.689v-.582a3.963,3.963,0,0,0-.8-2.637,2.834,2.834,0,0,0-2.259-.954ZM-43.193,21h-1.265V13.6h1.265Zm-1.367-9.358a.755.755,0,0,1,.188-.52.706.706,0,0,1,.557-.212.717.717,0,0,1,.561.212.747.747,0,0,1,.191.52.722.722,0,0,1-.191.513.73.73,0,0,1-.561.205.718.718,0,0,1-.557-.205A.73.73,0,0,1-44.56,11.642Zm7.7,7.4a.931.931,0,0,0-.386-.8,3.718,3.718,0,0,0-1.347-.489,6.367,6.367,0,0,1-1.524-.492,2.169,2.169,0,0,1-.834-.684,1.635,1.635,0,0,1-.27-.943,1.919,1.919,0,0,1,.769-1.538,3,3,0,0,1,1.965-.629,3.091,3.091,0,0,1,2.041.649,2.063,2.063,0,0,1,.783,1.661h-1.271a1.142,1.142,0,0,0-.441-.9,1.652,1.652,0,0,0-1.111-.376,1.729,1.729,0,0,0-1.08.3.947.947,0,0,0-.39.786.767.767,0,0,0,.362.69,4.458,4.458,0,0,0,1.309.444,6.821,6.821,0,0,1,1.535.506,2.239,2.239,0,0,1,.872.708,1.74,1.74,0,0,1,.284,1.008,1.893,1.893,0,0,1-.793,1.589,3.326,3.326,0,0,1-2.058.6,3.725,3.725,0,0,1-1.572-.314,2.557,2.557,0,0,1-1.07-.878,2.117,2.117,0,0,1-.386-1.22h1.265a1.309,1.309,0,0,0,.509,1.008,1.976,1.976,0,0,0,1.254.373,2.039,2.039,0,0,0,1.152-.291A.893.893,0,0,0-36.863,19.038Zm5.981,2.1a3.232,3.232,0,0,1-2.447-.988,3.666,3.666,0,0,1-.943-2.642v-.232a4.438,4.438,0,0,1,.42-1.965,3.28,3.28,0,0,1,1.176-1.354,2.956,2.956,0,0,1,1.637-.489,2.77,2.77,0,0,1,2.242.95,4.114,4.114,0,0,1,.8,2.721v.526h-5.011a2.629,2.629,0,0,0,.639,1.767,2.009,2.009,0,0,0,1.555.673,2.2,2.2,0,0,0,1.135-.273,2.851,2.851,0,0,0,.813-.725l.772.6A3.106,3.106,0,0,1-30.881,21.137Zm-.157-6.631a1.687,1.687,0,0,0-1.285.557,2.708,2.708,0,0,0-.643,1.562h3.705v-.1a2.409,2.409,0,0,0-.52-1.494A1.588,1.588,0,0,0-31.039,14.506Zm5.7-.9.041.93a2.7,2.7,0,0,1,2.215-1.066q2.345,0,2.365,2.646V21h-1.265V16.105a1.7,1.7,0,0,0-.366-1.183,1.466,1.466,0,0,0-1.118-.383,1.825,1.825,0,0,0-1.08.328,2.228,2.228,0,0,0-.725.861V21h-1.265V13.6Zm4.184-2.885a1.7,1.7,0,0,1-.42,1.2,1.365,1.365,0,0,1-1.049.458,1.54,1.54,0,0,1-.485-.068,2.619,2.619,0,0,1-.537-.28,2.324,2.324,0,0,0-.479-.256,1.171,1.171,0,0,0-.338-.044.627.627,0,0,0-.479.215.781.781,0,0,0-.2.55l-.848-.048a1.784,1.784,0,0,1,.414-1.21,1.326,1.326,0,0,1,1.049-.479,1.275,1.275,0,0,1,.431.068,3.139,3.139,0,0,1,.52.267,3.057,3.057,0,0,0,.5.26,1.154,1.154,0,0,0,.386.062.612.612,0,0,0,.489-.232.815.815,0,0,0,.195-.54Zm2.01,6.515a4.369,4.369,0,0,1,.427-1.955,3.187,3.187,0,0,1,1.189-1.34,3.238,3.238,0,0,1,1.74-.472,3.119,3.119,0,0,1,2.444,1.046,4.024,4.024,0,0,1,.933,2.782v.089a4.407,4.407,0,0,1-.414,1.938,3.14,3.14,0,0,1-1.183,1.336,3.275,3.275,0,0,1-1.767.479,3.111,3.111,0,0,1-2.437-1.046,4,4,0,0,1-.933-2.769Zm1.271.15a3.164,3.164,0,0,0,.571,1.976,1.827,1.827,0,0,0,1.528.745,1.816,1.816,0,0,0,1.531-.755,3.46,3.46,0,0,0,.567-2.116,3.159,3.159,0,0,0-.578-1.972,1.836,1.836,0,0,0-1.535-.755,1.816,1.816,0,0,0-1.511.745A3.434,3.434,0,0,0-17.873,17.384Zm16.762,0A4.429,4.429,0,0,1-1.883,20.1a2.476,2.476,0,0,1-2.092,1.032,2.713,2.713,0,0,1-2.119-.854v3.562H-7.359V13.6H-6.2l.062.82A2.605,2.605,0,0,1-4,13.467a2.522,2.522,0,0,1,2.109,1,4.477,4.477,0,0,1,.776,2.8Zm-1.265-.144a3.268,3.268,0,0,0-.533-1.976,1.718,1.718,0,0,0-1.463-.725,1.859,1.859,0,0,0-1.723,1.019v3.534A1.863,1.863,0,0,0-4.358,20.1a1.71,1.71,0,0,0,1.446-.721A3.567,3.567,0,0,0-2.375,17.24Zm6.446-2.5a3.79,3.79,0,0,0-.622-.048A1.667,1.667,0,0,0,1.76,15.75V21H.5V13.6h1.23l.021.854a1.969,1.969,0,0,1,1.764-.991,1.292,1.292,0,0,1,.561.1Zm.69,2.5a4.369,4.369,0,0,1,.427-1.955,3.187,3.187,0,0,1,1.189-1.34,3.238,3.238,0,0,1,1.74-.472,3.119,3.119,0,0,1,2.444,1.046,4.024,4.024,0,0,1,.933,2.782v.089a4.407,4.407,0,0,1-.414,1.938A3.14,3.14,0,0,1,9.9,20.658a3.275,3.275,0,0,1-1.767.479,3.111,3.111,0,0,1-2.437-1.046,4,4,0,0,1-.933-2.769Zm1.271.15A3.164,3.164,0,0,0,6.6,19.359a1.827,1.827,0,0,0,1.528.745,1.816,1.816,0,0,0,1.531-.755,3.46,3.46,0,0,0,.567-2.116,3.159,3.159,0,0,0-.578-1.972,1.836,1.836,0,0,0-1.535-.755,1.816,1.816,0,0,0-1.511.745A3.434,3.434,0,0,0,6.033,17.384Zm6.74-.144A4.333,4.333,0,0,1,13.58,14.5a2.551,2.551,0,0,1,2.112-1.036,2.565,2.565,0,0,1,2.058.889V10.5h1.265V21H17.852l-.062-.793a2.575,2.575,0,0,1-2.112.93,2.526,2.526,0,0,1-2.1-1.053,4.382,4.382,0,0,1-.81-2.748Zm1.265.144a3.281,3.281,0,0,0,.52,1.969,1.68,1.68,0,0,0,1.436.711,1.845,1.845,0,0,0,1.757-1.08v-3.4a1.859,1.859,0,0,0-1.743-1.046,1.687,1.687,0,0,0-1.449.718A3.612,3.612,0,0,0,14.038,17.384Zm11.5,2.885a2.686,2.686,0,0,1-2.167.868,2.3,2.3,0,0,1-1.8-.687,2.974,2.974,0,0,1-.625-2.034V13.6h1.265v4.778q0,1.682,1.367,1.682a1.893,1.893,0,0,0,1.928-1.08V13.6h1.265V21h-1.2Zm6.118-.164a1.822,1.822,0,0,0,1.183-.41,1.443,1.443,0,0,0,.561-1.025h1.2a2.293,2.293,0,0,1-.437,1.21,2.881,2.881,0,0,1-1.077.916,3.107,3.107,0,0,1-1.425.342,3.047,3.047,0,0,1-2.4-1.008,4.016,4.016,0,0,1-.892-2.758v-.212a4.453,4.453,0,0,1,.4-1.921A3.02,3.02,0,0,1,29.9,13.932a3.233,3.233,0,0,1,1.753-.465,2.966,2.966,0,0,1,2.068.745,2.663,2.663,0,0,1,.878,1.935H33.4a1.743,1.743,0,0,0-.543-1.179,1.691,1.691,0,0,0-1.207-.461,1.77,1.77,0,0,0-1.494.694,3.259,3.259,0,0,0-.53,2.006v.239a3.194,3.194,0,0,0,.526,1.969A1.779,1.779,0,0,0,31.661,20.1Zm6.077-8.292V13.6h1.381v.978H37.738v4.593a1.027,1.027,0,0,0,.185.667.777.777,0,0,0,.629.222,3.062,3.062,0,0,0,.6-.082V21a3.688,3.688,0,0,1-.971.136,1.575,1.575,0,0,1-1.278-.513,2.2,2.2,0,0,1-.431-1.456V14.581H35.126V13.6h1.347V11.813Zm2.386,5.421a4.369,4.369,0,0,1,.427-1.955,3.187,3.187,0,0,1,1.189-1.34,3.238,3.238,0,0,1,1.74-.472,3.119,3.119,0,0,1,2.444,1.046,4.024,4.024,0,0,1,.933,2.782v.089a4.407,4.407,0,0,1-.414,1.938,3.14,3.14,0,0,1-1.183,1.336,3.275,3.275,0,0,1-1.767.479,3.111,3.111,0,0,1-2.437-1.046,4,4,0,0,1-.933-2.769Zm1.271.15a3.164,3.164,0,0,0,.571,1.976,1.934,1.934,0,0,0,3.059-.01,3.46,3.46,0,0,0,.567-2.116,3.159,3.159,0,0,0-.578-1.972,1.836,1.836,0,0,0-1.535-.755,1.816,1.816,0,0,0-1.511.745A3.434,3.434,0,0,0,41.4,17.384ZM52.75,19.038a.931.931,0,0,0-.386-.8,3.718,3.718,0,0,0-1.347-.489,6.367,6.367,0,0,1-1.524-.492,2.169,2.169,0,0,1-.834-.684,1.635,1.635,0,0,1-.27-.943,1.919,1.919,0,0,1,.769-1.538,3,3,0,0,1,1.965-.629,3.091,3.091,0,0,1,2.041.649,2.063,2.063,0,0,1,.783,1.661H52.674a1.142,1.142,0,0,0-.441-.9,1.652,1.652,0,0,0-1.111-.376,1.729,1.729,0,0,0-1.08.3.947.947,0,0,0-.39.786.767.767,0,0,0,.362.69,4.458,4.458,0,0,0,1.309.444,6.821,6.821,0,0,1,1.535.506,2.239,2.239,0,0,1,.872.708,1.74,1.74,0,0,1,.284,1.008,1.893,1.893,0,0,1-.793,1.589,3.326,3.326,0,0,1-2.058.6,3.725,3.725,0,0,1-1.572-.314,2.557,2.557,0,0,1-1.07-.878,2.117,2.117,0,0,1-.386-1.22H49.4a1.309,1.309,0,0,0,.509,1.008,1.976,1.976,0,0,0,1.254.373,2.039,2.039,0,0,0,1.152-.291A.893.893,0,0,0,52.75,19.038ZM-29.47,40.147l1.723-5.544h1.354l-2.974,8.538q-.69,1.846-2.194,1.846l-.239-.021-.472-.089V43.853l.342.027a1.683,1.683,0,0,0,1-.26,1.88,1.88,0,0,0,.591-.95l.28-.752L-32.7,34.6h1.381Zm11.977-.109a.931.931,0,0,0-.386-.8,3.718,3.718,0,0,0-1.347-.489,6.367,6.367,0,0,1-1.524-.492,2.169,2.169,0,0,1-.834-.684,1.635,1.635,0,0,1-.27-.943,1.919,1.919,0,0,1,.769-1.538,3,3,0,0,1,1.965-.629,3.091,3.091,0,0,1,2.041.649,2.063,2.063,0,0,1,.783,1.661h-1.271a1.142,1.142,0,0,0-.441-.9,1.652,1.652,0,0,0-1.111-.376,1.729,1.729,0,0,0-1.08.3.947.947,0,0,0-.39.786.767.767,0,0,0,.362.69,4.458,4.458,0,0,0,1.309.444,6.821,6.821,0,0,1,1.535.506,2.239,2.239,0,0,1,.872.708,1.74,1.74,0,0,1,.284,1.008,1.893,1.893,0,0,1-.793,1.589,3.326,3.326,0,0,1-2.058.6,3.725,3.725,0,0,1-1.572-.314,2.557,2.557,0,0,1-1.07-.878,2.117,2.117,0,0,1-.386-1.22h1.265a1.309,1.309,0,0,0,.509,1.008,1.976,1.976,0,0,0,1.254.373,2.039,2.039,0,0,0,1.152-.291A.893.893,0,0,0-17.493,40.038Zm5.981,2.1a3.232,3.232,0,0,1-2.447-.988,3.666,3.666,0,0,1-.943-2.642v-.232a4.438,4.438,0,0,1,.42-1.965,3.28,3.28,0,0,1,1.176-1.354,2.956,2.956,0,0,1,1.637-.489,2.77,2.77,0,0,1,2.242.95,4.114,4.114,0,0,1,.8,2.721v.526h-5.011A2.629,2.629,0,0,0-13,40.431a2.009,2.009,0,0,0,1.555.673,2.2,2.2,0,0,0,1.135-.273,2.851,2.851,0,0,0,.813-.725l.772.6A3.106,3.106,0,0,1-11.512,42.137Zm-.157-6.631a1.687,1.687,0,0,0-1.285.557,2.708,2.708,0,0,0-.643,1.562h3.705v-.1a2.409,2.409,0,0,0-.52-1.494A1.588,1.588,0,0,0-11.669,35.506Zm8.08.232a3.79,3.79,0,0,0-.622-.048A1.667,1.667,0,0,0-5.9,36.75V42H-7.164V34.6h1.23l.021.854a1.969,1.969,0,0,1,1.764-.991,1.292,1.292,0,0,1,.561.1ZM.137,40.284,1.969,34.6H3.261L.608,42H-.355l-2.68-7.4h1.292ZM5.852,42H4.587V34.6H5.852ZM4.484,32.642a.755.755,0,0,1,.188-.52.706.706,0,0,1,.557-.212.717.717,0,0,1,.561.212.747.747,0,0,1,.191.52.722.722,0,0,1-.191.513.73.73,0,0,1-.561.205.718.718,0,0,1-.557-.205A.73.73,0,0,1,4.484,32.642ZM10.842,41.1a1.822,1.822,0,0,0,1.183-.41,1.443,1.443,0,0,0,.561-1.025h1.2a2.293,2.293,0,0,1-.437,1.21,2.881,2.881,0,0,1-1.077.916,3.107,3.107,0,0,1-1.425.342,3.047,3.047,0,0,1-2.4-1.008,4.016,4.016,0,0,1-.892-2.758v-.212a4.453,4.453,0,0,1,.4-1.921,3.02,3.02,0,0,1,1.138-1.306,3.233,3.233,0,0,1,1.753-.465,2.966,2.966,0,0,1,2.068.745,2.663,2.663,0,0,1,.878,1.935h-1.2a1.743,1.743,0,0,0-.543-1.179,1.691,1.691,0,0,0-1.207-.461,1.77,1.77,0,0,0-1.494.694,3.259,3.259,0,0,0-.53,2.006v.239a3.194,3.194,0,0,0,.526,1.969A1.779,1.779,0,0,0,10.842,41.1Zm5.735.9H15.313V34.6h1.265ZM15.21,32.642a.755.755,0,0,1,.188-.52.706.706,0,0,1,.557-.212.717.717,0,0,1,.561.212.747.747,0,0,1,.191.52.722.722,0,0,1-.191.513.73.73,0,0,1-.561.205.718.718,0,0,1-.557-.205A.73.73,0,0,1,15.21,32.642Zm3.056,5.592a4.369,4.369,0,0,1,.427-1.955,3.187,3.187,0,0,1,1.189-1.34,3.238,3.238,0,0,1,1.74-.472,3.119,3.119,0,0,1,2.444,1.046A4.024,4.024,0,0,1,25,38.295v.089a4.407,4.407,0,0,1-.414,1.938A3.14,3.14,0,0,1,23.4,41.658a3.275,3.275,0,0,1-1.767.479A3.111,3.111,0,0,1,19.2,41.091a4,4,0,0,1-.933-2.769Zm1.271.15a3.164,3.164,0,0,0,.571,1.976,1.934,1.934,0,0,0,3.059-.01,3.46,3.46,0,0,0,.567-2.116,3.159,3.159,0,0,0-.578-1.972,1.836,1.836,0,0,0-1.535-.755,1.816,1.816,0,0,0-1.511.745A3.435,3.435,0,0,0,19.537,38.384Zm11.354,1.654a.931.931,0,0,0-.386-.8,3.718,3.718,0,0,0-1.347-.489,6.367,6.367,0,0,1-1.524-.492,2.169,2.169,0,0,1-.834-.684,1.635,1.635,0,0,1-.27-.943A1.919,1.919,0,0,1,27.3,35.1a3,3,0,0,1,1.965-.629,3.091,3.091,0,0,1,2.041.649,2.063,2.063,0,0,1,.783,1.661H30.816a1.142,1.142,0,0,0-.441-.9,1.652,1.652,0,0,0-1.111-.376,1.729,1.729,0,0,0-1.08.3.947.947,0,0,0-.39.786.767.767,0,0,0,.362.69,4.458,4.458,0,0,0,1.309.444A6.821,6.821,0,0,1,31,38.233a2.239,2.239,0,0,1,.872.708,1.74,1.74,0,0,1,.284,1.008,1.893,1.893,0,0,1-.793,1.589,3.326,3.326,0,0,1-2.058.6,3.725,3.725,0,0,1-1.572-.314,2.557,2.557,0,0,1-1.07-.878,2.117,2.117,0,0,1-.386-1.22h1.265a1.309,1.309,0,0,0,.509,1.008,1.976,1.976,0,0,0,1.254.373,2.039,2.039,0,0,0,1.152-.291A.893.893,0,0,0,30.892,40.038Z" transform="translate(-1706.7 -2695.793)" fill="#f3f9ff"/>
    <g id="Trazado_246529" data-name="Trazado 246529" transform="translate(-1616 -2721)" fill="#0e8282">
      <path d="M 143 93.5 L 19 93.5 C 16.50230026245117 93.5 14.07958030700684 93.01094055175781 11.79911994934082 92.04637908935547 C 9.596220016479492 91.11463928222656 7.617700099945068 89.7806396484375 5.918519973754883 88.08148193359375 C 4.219359874725342 86.38230133056641 2.8853600025177 84.40377807617188 1.953619956970215 82.20088195800781 C 0.9890599846839905 79.92041778564453 0.5 77.49770355224609 0.5 75 L 0.5 19 C 0.5 16.50230026245117 0.9890599846839905 14.07956027984619 1.953619956970215 11.79911994934082 C 2.8853600025177 9.596199989318848 4.219359874725342 7.617680072784424 5.918519973754883 5.918519973754883 C 7.617700099945068 4.219359874725342 9.596220016479492 2.8853600025177 11.79911994934082 1.953619956970215 C 14.07958030700684 0.9890599846839905 16.50230026245117 0.5 19 0.5 L 143 0.5 C 145.4976959228516 0.5 147.9204406738281 0.9890599846839905 150.2008819580078 1.953619956970215 C 152.4037933349609 2.8853600025177 154.38232421875 4.219359874725342 156.0814819335938 5.918519973754883 C 157.7806396484375 7.617680072784424 159.1146392822266 9.596199989318848 160.04638671875 11.79911994934082 C 161.0109405517578 14.07956027984619 161.5 16.50230026245117 161.5 19 L 161.5 75 C 161.5 77.49770355224609 161.0109405517578 79.92041778564453 160.04638671875 82.20088195800781 C 159.1146392822266 84.40377807617188 157.7806396484375 86.38230133056641 156.0814819335938 88.08148193359375 C 154.38232421875 89.7806396484375 152.4037933349609 91.11463928222656 150.2008819580078 92.04637908935547 C 147.9204406738281 93.01094055175781 145.4976959228516 93.5 143 93.5 Z" stroke="none"/>
      <path d="M 19 1 C 14.1920166015625 1 9.671829223632812 2.872329711914062 6.272079467773438 6.272087097167969 C 2.872329711914062 9.671836853027344 1 14.19202423095703 1 19 L 1 75 C 1 79.8079833984375 2.872329711914062 84.32817077636719 6.272079467773438 87.72792053222656 C 9.671829223632812 91.12767028808594 14.1920166015625 93 19 93 L 143 93 C 147.8079833984375 93 152.3281707763672 91.12767028808594 155.7279205322266 87.72792053222656 C 159.1276702880859 84.32817077636719 161 79.8079833984375 161 75 L 161 19 C 161 14.19202423095703 159.1276702880859 9.671836853027344 155.7279205322266 6.272087097167969 C 152.3281707763672 2.872329711914062 147.8079833984375 1 143 1 L 19 1 M 19 0 L 143 0 C 153.4933929443359 0 162 8.506584167480469 162 19 L 162 75 C 162 85.49341583251953 153.4933929443359 94 143 94 L 19 94 C 8.506576538085938 94 0 85.49341583251953 0 75 L 0 19 C 0 8.506584167480469 8.506576538085938 0 19 0 Z" stroke="none" fill="#f5f5f5"/>
    </g>
    <path id="Trazado_246531" data-name="Trazado 246531" d="M2.235-3.343H3.616v1.032H2.235V0H.964V-2.311H-3.568v-.745l4.457-6.9H2.235Zm-4.368,0h3.1V-8.224l-.15.273ZM-45.281,17.842a3.662,3.662,0,0,1-1.166,2.437,3.82,3.82,0,0,1-2.608.858,3.507,3.507,0,0,1-2.827-1.265,5.088,5.088,0,0,1-1.063-3.384v-.957a5.671,5.671,0,0,1,.5-2.44,3.7,3.7,0,0,1,1.4-1.617,3.911,3.911,0,0,1,2.105-.564A3.6,3.6,0,0,1-46.4,11.8a3.706,3.706,0,0,1,1.114,2.451H-46.6a2.86,2.86,0,0,0-.742-1.728,2.244,2.244,0,0,0-1.6-.535,2.348,2.348,0,0,0-1.972.93,4.271,4.271,0,0,0-.714,2.648v.965a4.391,4.391,0,0,0,.677,2.579,2.187,2.187,0,0,0,1.894.958,2.526,2.526,0,0,0,1.678-.5,2.75,2.75,0,0,0,.776-1.726Zm1.258-.608a4.369,4.369,0,0,1,.427-1.955,3.187,3.187,0,0,1,1.189-1.34,3.238,3.238,0,0,1,1.74-.472,3.119,3.119,0,0,1,2.444,1.046,4.024,4.024,0,0,1,.933,2.782v.089a4.407,4.407,0,0,1-.414,1.938,3.14,3.14,0,0,1-1.183,1.336,3.275,3.275,0,0,1-1.767.479,3.111,3.111,0,0,1-2.437-1.046,4,4,0,0,1-.933-2.769Zm1.271.15a3.164,3.164,0,0,0,.571,1.976,1.827,1.827,0,0,0,1.528.745,1.816,1.816,0,0,0,1.531-.755,3.46,3.46,0,0,0,.567-2.116,3.159,3.159,0,0,0-.578-1.972,1.836,1.836,0,0,0-1.535-.755,1.816,1.816,0,0,0-1.511.745A3.434,3.434,0,0,0-42.752,17.384Zm8.237-3.78.034.82a2.732,2.732,0,0,1,2.194-.957,2.115,2.115,0,0,1,2.112,1.189,2.8,2.8,0,0,1,.96-.861,2.837,2.837,0,0,1,1.4-.328q2.434,0,2.475,2.577V21h-1.265V16.119a1.7,1.7,0,0,0-.362-1.186,1.6,1.6,0,0,0-1.217-.393,1.677,1.677,0,0,0-1.169.42,1.706,1.706,0,0,0-.54,1.131V21h-1.271V16.153a1.411,1.411,0,0,0-1.579-1.613,1.692,1.692,0,0,0-1.7,1.06V21h-1.265V13.6Zm14.15,7.533a3.232,3.232,0,0,1-2.447-.988,3.666,3.666,0,0,1-.943-2.642v-.232a4.438,4.438,0,0,1,.42-1.965,3.28,3.28,0,0,1,1.176-1.354,2.956,2.956,0,0,1,1.637-.489,2.77,2.77,0,0,1,2.242.95,4.114,4.114,0,0,1,.8,2.721v.526H-22.49a2.629,2.629,0,0,0,.639,1.767A2.009,2.009,0,0,0-20.3,20.1a2.2,2.2,0,0,0,1.135-.273,2.851,2.851,0,0,0,.813-.725l.772.6A3.106,3.106,0,0,1-20.364,21.137Zm-.157-6.631a1.687,1.687,0,0,0-1.285.557,2.708,2.708,0,0,0-.643,1.562h3.705v-.1a2.409,2.409,0,0,0-.52-1.494A1.588,1.588,0,0,0-20.521,14.506Zm8.08.232a3.79,3.79,0,0,0-.622-.048,1.667,1.667,0,0,0-1.688,1.06V21h-1.265V13.6h1.23l.021.854A1.969,1.969,0,0,1-13,13.467a1.292,1.292,0,0,1,.561.1Zm4,5.366a1.822,1.822,0,0,0,1.183-.41A1.443,1.443,0,0,0-6.7,18.669h1.2a2.293,2.293,0,0,1-.437,1.21,2.881,2.881,0,0,1-1.077.916,3.107,3.107,0,0,1-1.425.342,3.047,3.047,0,0,1-2.4-1.008,4.016,4.016,0,0,1-.892-2.758v-.212a4.453,4.453,0,0,1,.4-1.921A3.02,3.02,0,0,1-10.2,13.932a3.233,3.233,0,0,1,1.753-.465,2.966,2.966,0,0,1,2.068.745A2.663,2.663,0,0,1-5.5,16.146H-6.7a1.743,1.743,0,0,0-.543-1.179,1.691,1.691,0,0,0-1.207-.461,1.77,1.77,0,0,0-1.494.694,3.259,3.259,0,0,0-.53,2.006v.239a3.194,3.194,0,0,0,.526,1.969A1.779,1.779,0,0,0-8.442,20.1Zm5.735.9H-3.972V13.6h1.265Zm-1.367-9.358a.755.755,0,0,1,.188-.52.706.706,0,0,1,.557-.212.717.717,0,0,1,.561.212.747.747,0,0,1,.191.52.722.722,0,0,1-.191.513.73.73,0,0,1-.561.205.718.718,0,0,1-.557-.205A.73.73,0,0,1-4.074,11.642ZM3.883,21a2.657,2.657,0,0,1-.178-.779,2.822,2.822,0,0,1-2.105.916,2.611,2.611,0,0,1-1.794-.619,2,2,0,0,1-.7-1.569,2.091,2.091,0,0,1,.878-1.794,4.141,4.141,0,0,1,2.471-.639h1.23v-.581a1.42,1.42,0,0,0-.4-1.056,1.593,1.593,0,0,0-1.169-.393,1.844,1.844,0,0,0-1.135.342,1.007,1.007,0,0,0-.458.827H-.745a1.745,1.745,0,0,1,.393-1.07,2.683,2.683,0,0,1,1.066-.817,3.588,3.588,0,0,1,1.48-.3,2.924,2.924,0,0,1,2,.639,2.306,2.306,0,0,1,.752,1.76v3.4a4.162,4.162,0,0,0,.26,1.62V21Zm-2.1-.964a2.223,2.223,0,0,0,1.128-.308,1.861,1.861,0,0,0,.772-.8V17.411H2.693q-2.324,0-2.324,1.36a1.151,1.151,0,0,0,.4.93A1.524,1.524,0,0,0,1.784,20.036ZM8.306,21H7.041V10.5H8.306Zm3.4,0H10.438V13.6H11.7Zm-1.367-9.358a.755.755,0,0,1,.188-.52.706.706,0,0,1,.557-.212.717.717,0,0,1,.561.212.747.747,0,0,1,.191.52.722.722,0,0,1-.191.513.73.73,0,0,1-.561.205.718.718,0,0,1-.557-.205A.73.73,0,0,1,10.336,11.642Zm4.58,8.326h4.327V21H13.371v-.93l4.081-5.421h-4.02V13.6h5.605v.9ZM25.231,21a2.657,2.657,0,0,1-.178-.779,2.822,2.822,0,0,1-2.105.916,2.611,2.611,0,0,1-1.794-.619,2,2,0,0,1-.7-1.569,2.091,2.091,0,0,1,.878-1.794,4.141,4.141,0,0,1,2.471-.639h1.23v-.581a1.42,1.42,0,0,0-.4-1.056,1.593,1.593,0,0,0-1.169-.393,1.844,1.844,0,0,0-1.135.342,1.007,1.007,0,0,0-.458.827H20.6A1.745,1.745,0,0,1,21,14.584a2.683,2.683,0,0,1,1.066-.817,3.588,3.588,0,0,1,1.48-.3,2.924,2.924,0,0,1,2,.639,2.306,2.306,0,0,1,.752,1.76v3.4a4.162,4.162,0,0,0,.26,1.62V21Zm-2.1-.964a2.223,2.223,0,0,0,1.128-.308,1.861,1.861,0,0,0,.772-.8V17.411h-.991q-2.324,0-2.324,1.36a1.151,1.151,0,0,0,.4.93A1.524,1.524,0,0,0,23.133,20.036Zm8.114.068a1.822,1.822,0,0,0,1.183-.41,1.443,1.443,0,0,0,.561-1.025h1.2a2.293,2.293,0,0,1-.437,1.21,2.881,2.881,0,0,1-1.077.916,3.107,3.107,0,0,1-1.425.342,3.047,3.047,0,0,1-2.4-1.008,4.016,4.016,0,0,1-.892-2.758v-.212a4.453,4.453,0,0,1,.4-1.921,3.02,3.02,0,0,1,1.138-1.306,3.233,3.233,0,0,1,1.753-.465,2.966,2.966,0,0,1,2.068.745,2.663,2.663,0,0,1,.878,1.935h-1.2a1.743,1.743,0,0,0-.543-1.179,1.691,1.691,0,0,0-1.207-.461,1.77,1.77,0,0,0-1.494.694,3.259,3.259,0,0,0-.53,2.006v.239a3.194,3.194,0,0,0,.526,1.969A1.779,1.779,0,0,0,31.247,20.1Zm5.735.9H35.718V13.6h1.265Zm-1.367-9.358a.755.755,0,0,1,.188-.52.706.706,0,0,1,.557-.212.717.717,0,0,1,.561.212.747.747,0,0,1,.191.52.722.722,0,0,1-.191.513.73.73,0,0,1-.561.205.718.718,0,0,1-.557-.205A.73.73,0,0,1,35.615,11.642Zm3.056,5.592a4.369,4.369,0,0,1,.427-1.955,3.187,3.187,0,0,1,1.189-1.34,3.238,3.238,0,0,1,1.74-.472,3.119,3.119,0,0,1,2.444,1.046,4.024,4.024,0,0,1,.933,2.782v.089a4.407,4.407,0,0,1-.414,1.938,3.14,3.14,0,0,1-1.183,1.336,3.275,3.275,0,0,1-1.767.479A3.111,3.111,0,0,1,39.6,20.091a4,4,0,0,1-.933-2.769Zm1.271.15a3.164,3.164,0,0,0,.571,1.976,1.934,1.934,0,0,0,3.059-.01,3.46,3.46,0,0,0,.567-2.116,3.159,3.159,0,0,0-.578-1.972,1.836,1.836,0,0,0-1.535-.755,1.816,1.816,0,0,0-1.511.745A3.434,3.434,0,0,0,39.942,17.384ZM42.6,10.5h1.531L42.3,12.51l-1.019,0Zm5.585,3.1.041.93a2.7,2.7,0,0,1,2.215-1.066q2.345,0,2.365,2.646V21H51.543V16.105a1.7,1.7,0,0,0-.366-1.183,1.466,1.466,0,0,0-1.118-.383,1.825,1.825,0,0,0-1.08.328,2.228,2.228,0,0,0-.725.861V21H46.99V13.6Zm-66.91,26.544L-17,34.6h1.354l-2.974,8.538q-.69,1.846-2.194,1.846l-.239-.021-.472-.089V43.853l.342.027a1.683,1.683,0,0,0,1-.26,1.88,1.88,0,0,0,.591-.95l.28-.752L-21.95,34.6h1.381Zm10.11.137L-6.781,34.6h1.292L-8.142,42h-.964l-2.68-7.4h1.292Zm7.41,1.853a3.232,3.232,0,0,1-2.447-.988,3.666,3.666,0,0,1-.943-2.642v-.232a4.438,4.438,0,0,1,.42-1.965A3.28,3.28,0,0,1-3,34.956a2.956,2.956,0,0,1,1.637-.489,2.77,2.77,0,0,1,2.242.95,4.114,4.114,0,0,1,.8,2.721v.526H-3.329a2.629,2.629,0,0,0,.639,1.767,2.009,2.009,0,0,0,1.555.673A2.2,2.2,0,0,0,0,40.831a2.851,2.851,0,0,0,.813-.725l.772.6A3.106,3.106,0,0,1-1.2,42.137Zm-.157-6.631a1.687,1.687,0,0,0-1.285.557,2.708,2.708,0,0,0-.643,1.562H.417v-.1A2.409,2.409,0,0,0-.1,36.036,1.588,1.588,0,0,0-1.36,35.506Zm5.7-.9.041.93A2.7,2.7,0,0,1,6.6,34.467q2.345,0,2.365,2.646V42H7.7V37.105a1.7,1.7,0,0,0-.366-1.183,1.466,1.466,0,0,0-1.118-.383,1.825,1.825,0,0,0-1.08.328,2.228,2.228,0,0,0-.725.861V42H3.145V34.6Zm8.244-1.791V34.6h1.381v.978H12.585v4.593a1.027,1.027,0,0,0,.185.667.777.777,0,0,0,.629.222,3.062,3.062,0,0,0,.6-.082V42a3.688,3.688,0,0,1-.971.136,1.575,1.575,0,0,1-1.278-.513,2.2,2.2,0,0,1-.431-1.456V35.581H9.974V34.6H11.32V32.813ZM20.009,42a2.657,2.657,0,0,1-.178-.779,2.822,2.822,0,0,1-2.105.916,2.611,2.611,0,0,1-1.794-.619,2,2,0,0,1-.7-1.569,2.091,2.091,0,0,1,.878-1.794,4.142,4.142,0,0,1,2.471-.639h1.23v-.581a1.42,1.42,0,0,0-.4-1.056,1.593,1.593,0,0,0-1.169-.393,1.844,1.844,0,0,0-1.135.342,1.007,1.007,0,0,0-.458.827H15.381a1.745,1.745,0,0,1,.393-1.07,2.683,2.683,0,0,1,1.066-.817,3.588,3.588,0,0,1,1.48-.3,2.924,2.924,0,0,1,2,.639,2.306,2.306,0,0,1,.752,1.76v3.4a4.162,4.162,0,0,0,.26,1.62V42Zm-2.1-.964a2.223,2.223,0,0,0,1.128-.308,1.861,1.861,0,0,0,.772-.8V38.411h-.991q-2.324,0-2.324,1.36a1.151,1.151,0,0,0,.4.93A1.524,1.524,0,0,0,17.91,41.036Z" transform="translate(-1535 -2695.793)" fill="#f3f9ff"/>
  </g>
</svg>
