<svg xmlns="http://www.w3.org/2000/svg" xmlns:xlink="http://www.w3.org/1999/xlink" width="541.378" height="360.185" viewBox="0 0 541.378 360.185">
  <defs>
    <clipPath id="clip-path">
      <rect id="Rectángulo_55594" data-name="Rectángulo 55594" width="541.378" height="360.185" fill="none"/>
    </clipPath>
    <clipPath id="clip-path-2">
      <rect id="Rectángulo_55660" data-name="Rectángulo 55660" width="308.12" height="4.879" transform="translate(30.74 251.189)" fill="#084e4e"/>
    </clipPath>
    <clipPath id="clip-path-4">
      <path id="Trazado_246913" data-name="Trazado 246913" d="M293.743,279.145l2.051,4.354a.837.837,0,0,0,1.192.4l.533-.254-2.42-5.134Z" fill="none"/>
    </clipPath>
    <clipPath id="clip-path-6">
      <path id="Trazado_246917" data-name="Trazado 246917" d="M291.13,275.458l.827,4.166,5.338-1-.869-4.377Z" fill="none"/>
    </clipPath>
  </defs>
  <g id="Grupo_599860" data-name="Grupo 599860" transform="translate(1912.467 2196.42)">
    <g id="Grupo_599817" data-name="Grupo 599817" transform="translate(-1912.467 -2196.42)">
      <g id="Grupo_599804" data-name="Grupo 599804">
        <g id="Grupo_599803" data-name="Grupo 599803" clip-path="url(#clip-path)">
          <path id="Trazado_246831" data-name="Trazado 246831" d="M521.152,259.486a66.085,66.085,0,0,0,7.207-16.972l12.756-2.444.132-14.11.131-14.109-12.708-2.682a66.1,66.1,0,0,0-6.889-17.1l7.286-10.739-9.885-10.07-9.883-10.07-10.873,7.084a66.048,66.048,0,0,0-16.972-7.206l-2.444-12.756-14.11-.132-14.109-.132-2.682,12.709a66.1,66.1,0,0,0-17.1,6.889l-10.74-7.286-10.07,9.884-10.069,9.883L407.212,191a66,66,0,0,0-7.207,16.972l-12.757,2.445-.131,14.109-.132,14.108,12.709,2.682a66.06,66.06,0,0,0,6.889,17.1l-7.286,10.74,9.884,10.07,9.883,10.07,10.874-7.085a66.072,66.072,0,0,0,16.972,7.207l2.444,12.756,14.11.132,14.109.132,2.681-12.71a66.011,66.011,0,0,0,17.1-6.889l10.739,7.287,10.071-9.883,10.07-9.884Zm-81.661-10.01a34.6,34.6,0,1,1,48.925.456,34.6,34.6,0,0,1-48.925-.456" fill="#0e8282"/>
          <path id="Trazado_246832" data-name="Trazado 246832" d="M186.081,145.566a49.323,49.323,0,0,0,4.057-13.157l9.289-2.789-.979-10.49-.979-10.491-9.644-1.022A49.35,49.35,0,0,0,181.4,95.438l4.593-8.533-8.11-6.726-8.111-6.726-7.536,6.093a49.289,49.289,0,0,0-13.157-4.058L146.292,66.2l-10.491.979-10.491.979L124.289,77.8a49.3,49.3,0,0,0-12.179,6.422l-8.533-4.592-6.727,8.11-6.725,8.11,6.093,7.536a49.3,49.3,0,0,0-4.058,13.158l-9.289,2.789.978,10.49.98,10.491,9.644,1.022a49.344,49.344,0,0,0,6.423,12.178L96.3,162.05l8.111,6.726,8.11,6.725,7.536-6.092a49.379,49.379,0,0,0,13.158,4.058l2.789,9.289,10.49-.979,10.491-.979,1.022-9.645a49.329,49.329,0,0,0,12.178-6.423l8.533,4.593,6.726-8.11,6.726-8.111Zm-61.423-1.2a25.834,25.834,0,1,1,36.377-3.4,25.835,25.835,0,0,1-36.377,3.4" fill="#0e8282"/>
          <path id="Trazado_246833" data-name="Trazado 246833" d="M497.393,357.744h-.885V294.879a25.4,25.4,0,0,0-25.368-25.368H406.459a26.284,26.284,0,0,1-26.253-26.253V125.749a25.4,25.4,0,0,0-25.367-25.367H189.914V99.5H354.839a26.282,26.282,0,0,1,26.252,26.252V243.258a25.4,25.4,0,0,0,25.368,25.369H471.14a26.281,26.281,0,0,1,26.253,26.252Z" fill="#0e8282"/>
          <path id="Trazado_246834" data-name="Trazado 246834" d="M232.186,59.679s9.982,39.748-13.984,50.614-19.375-9.029-19.375-9.029-9.83-2.732,16.922-17.9c12.609-7.148,16.437-23.686,16.437-23.686" fill="#99c2c2"/>
          <path id="Trazado_246835" data-name="Trazado 246835" d="M294.95,63.147s4.913,34.647-40.443,49.624-51.816,33.975-51.816,33.975-1.357-76.792,92.259-83.6" fill="#99c2c2"/>
          <path id="Trazado_246836" data-name="Trazado 246836" d="M202.488,132.635c-13.449-5.133,18.518-32.658,43.087-31.915s41.217,9.836,57.673,5.994c0,0-34.533,51.2-100.76,25.921" fill="#c4d5d5"/>
          <path id="Trazado_246837" data-name="Trazado 246837" d="M247.673,155.633q1.162-15.673,1.62-29.335c-2.522-1.336-5.552-2.9-7.977-4.049-7.507-3.573-17.965-8.386-24.676-11.465-3.928-1.805-7.777-3.123-7.777-3.123s-26.821-2.571-29-2.433a67.217,67.217,0,0,0-8.437,2.883c-9.511,3.61-27.848,10.959-30.767,13.056-4.282,3.065-19.6,78.165-20.01,83.265-.4,4.955,20.837,11.733,40.5,16.925-.014,7.615-.168,18.281-.341,28.017-.026,1.663-.057,3.3-.089,4.88h86.044c-.115-1.673-.217-3.322-.3-4.88-.008-.208-.021-.411-.03-.616-.328-6.6-1.61-18.4-1.283-29.909,0,0-.208-12.125,1-17.345.133-23.048,1.526-45.871,1.526-45.871M138.568,199.786c.142-9.775,13.161-27.962,13.161-27.962a5.222,5.222,0,0,1,.61-.23c.009.009.672-.093.672-.084s2.023-1.915,2.036-1.915c.478,1.738,4.791,26.3,5.848,40.6-12.227-2.4-22.4-5.742-22.327-10.406" fill="#dbd8e3"/>
          <path id="Trazado_246838" data-name="Trazado 246838" d="M249.267,249.373c-.566-4.074-1.1-8.145-1.584-12.13,0-.021-.009-.035-.009-.058-.155-1.327-.314-2.636-.465-3.941-.008-.062-.012-.133-.021-.208-.629-5.489-1.15-10.755-1.526-15.576a49.18,49.18,0,0,1,.481-10.834c1.5-24.654,2.239-50.649,2.239-50.649.787-10.639,1.239-20.584,1.539-29.852,0,0-33.678-15.917-36.731-16.829,0,0,6.389,15,11.18,48.53,1.839,12.878,5.251,34.555,7.728,56.679v0c1.34,11.939,3.853,24.1,5.764,34.863.292,1.664.571,3.292.827,4.88h11.272q-.358-2.435-.694-4.88" fill="#323657"/>
          <path id="Trazado_246839" data-name="Trazado 246839" d="M193.2,209.771c1.327-12.466,2.521-24.906,1.946-31.722-4.646-54.8-17.788-69.309-19.7-71.433-1.473.562-7.082,2.668-8.724,3.318-8.989,3.544-27.313,10.038-29.781,11.812-4.282,3.066-21.164,81.8-21.673,86.89-.341,3.441,21.69,10.633,44.168,17.053-.208,6.162.375,14.855-1.673,23.932a21.005,21.005,0,0,0-.972,4.756l31.333-.123q.287-2.429.589-4.88c.6-4.9,1.221-9.913,1.84-15.244,9.4,2.432,15.784,4,15.784,4s8.826-14.922,11.388-20.964c.437-1.031-10.923-3.761-24.53-7.394m-40.518-18.864c-.3-11.219-.244-19.047-.244-19.047,1.11,3.844,2.645,14.828,4,25.746-4.552-2.291-3.7-4.433-3.755-6.7" fill="#323657"/>
          <path id="Trazado_246840" data-name="Trazado 246840" d="M178.458,106.085s3.411-6.446,2.469-24.747c-.261-5.07,26.632,12.024,26.632,12.024s-.094,1.747-.152,4.105c-.03.982-.048,2.057-.048,3.163,0,.305,0,.611,0,.916,0,.5.009,1,.018,1.491.014.615.036,1.216.066,1.8.032.659.075,1.283.138,1.854a16.931,16.931,0,0,0,.995,3.592c1.234,2.844-20.054,3.008-30.122-4.194" fill="#eea987"/>
          <path id="Trazado_246841" data-name="Trazado 246841" d="M201,117.725l4.956,6.66s-2.9,3.888-8.061,1.017Z" fill="#e8734d"/>
          <path id="Trazado_246842" data-name="Trazado 246842" d="M204.635,124.654S222.792,169,218.918,225.336l-5.726,10.4-6.458-8.853s-1.042-74.816-6.2-102.4Z" fill="#e8734d"/>
          <path id="Trazado_246843" data-name="Trazado 246843" d="M206.311,111.517,201,117.725s-8.516-1.649-11.016-6.1,16.324-.11,16.324-.11" fill="#eea987"/>
          <path id="Trazado_246844" data-name="Trazado 246844" d="M207.527,106.084s-.616,4.732-6.523,11.642l6.448,8.663,3.49-17.972Z" fill="#c4c1cc"/>
          <path id="Trazado_246845" data-name="Trazado 246845" d="M180.078,100.392S192.392,114.321,201,117.726l-4.005,9.9-19.653-21.68Z" fill="#c4c1cc"/>
          <path id="Trazado_246846" data-name="Trazado 246846" d="M306.675,226.409s-16.346-15.853-27.066-18.489c-4.957-1.22-11.485-8.062-17.688-16.1-2.044-2.648-4.05-5.427-5.958-8.179a.017.017,0,0,1-.005-.011c-7.61-10.989-13.574-21.521-13.574-21.521s-22.495-26.362-4.443-38.113c0,0,7.736-.167,11.979,2.137,4.363,2.369,13.67,21.793,15.248,25.233s18.673,35.384,19.817,36.1,3.053,3.344,9.893,7.027C303.252,199,316.407,212.2,316.407,212.2Z" fill="#323657"/>
          <path id="Trazado_246847" data-name="Trazado 246847" d="M228.212,244.755a10.4,10.4,0,0,1-3.262-.619s-1.708-1.1-2.969-1.8a9.62,9.62,0,0,0-1-.5,18.99,18.99,0,0,1-5.49-2.616c-2.149-1.638-9.157-8.193-9.157-8.193l4.529-6.962,2.091-6.9s16.337,1.625,18.517,2.92a6.5,6.5,0,0,1,.6.4c1.74,1.276,2.5,2.957,3.334,3.729.305.286,3.151,3.332,2.991,4.567a4.069,4.069,0,0,1-2.129,3.336s-.577,3.338-2.3,4.831a6.046,6.046,0,0,1-3.108,4.342s-.791,3.094-2.646,3.464" fill="#efaa88"/>
          <path id="Trazado_246848" data-name="Trazado 246848" d="M202.2,34.121S231.727,27,225.508,64.389s-13.3,40.42-31.29,32.966-16.739-31.365-17.81-43.066S192.753,34.668,202.2,34.121" fill="#eea886"/>
          <path id="Trazado_246849" data-name="Trazado 246849" d="M186.686,60.013c-.439-3.284-6.959-4.394-7.41.545s3.154,13.545,5.609,12.657,2.4-8.674,1.8-13.2" fill="#eea886"/>
          <path id="Trazado_246850" data-name="Trazado 246850" d="M178.133,73.4s.592-11.758,4.877-12.188,5.016,4.292,5.016,4.292l4.344.754s-1.52-10.277,2.738-12.139,27.842,5.261,31.238,2.189,1.47-23.936-4.792-26.7-23.533-8.92-35.994-.217c0,0-9.827-.974-11.166,6.964s.985,31.2,3.739,37.047" fill="#16202e"/>
          <path id="Trazado_246851" data-name="Trazado 246851" d="M218.529,217.165l-12.192,20.962s-32.3-8.322-39.835-10.448l17.227-20.505s25.4,5.8,34.8,9.991" fill="#323657"/>
          <path id="Trazado_246852" data-name="Trazado 246852" d="M207.447,104.833h0a28.242,28.242,0,0,1-21.978-13.807,32.742,32.742,0,0,0,21.894,9.6c0,.305,0,.611,0,.916,0,.5.009,1,.018,1.491.013.615.036,1.216.066,1.8" fill="#a77860"/>
          <path id="Trazado_246853" data-name="Trazado 246853" d="M426.16,290.637a4.82,4.82,0,1,0-4.292,7.7c.125.011.252.02.38.021.08,0,.16,0,.239-.005h.084a4.819,4.819,0,0,0,3.589-7.711m-2.616,6.3h0a3.665,3.665,0,0,1-1.036.211c-.08,0-.161,0-.242,0a3.641,3.641,0,0,1-.986-.153,3.592,3.592,0,0,1-1.179-.6,3.883,3.883,0,0,1-.36-.319,3.605,3.605,0,0,1-1.041-2.583,3.548,3.548,0,0,1,.093-.762,3.5,3.5,0,0,1,.1-.351,3.613,3.613,0,1,1,4.656,4.555" fill="#4da8f2"/>
          <path id="Trazado_246854" data-name="Trazado 246854" d="M241.448,199.949c18.357,18.9,42.61,42.693,42.61,42.693l9.481-18S272,199.39,257.393,182.539c-4.476,2.195-12.694,7.431-15.945,17.41" fill="#eea886"/>
          <path id="Trazado_246855" data-name="Trazado 246855" d="M230.11,225.357a53.858,53.858,0,0,1,6.232,3.451c1.291,1.065,6.519,4.979,7.787,5.9s-1.912,3.54-11.26-.509-2.759-8.842-2.759-8.842" fill="#eea886"/>
          <path id="Trazado_246856" data-name="Trazado 246856" d="M230.542,171.271l-8.613,80.085H335.3l8.613-80.085Z" fill="#ffc955"/>
          <path id="Trazado_246857" data-name="Trazado 246857" d="M341.775,247.66H227.512l8.708-80.969H350.484ZM228.5,246.774H340.981l8.519-79.2H237.014Z" fill="#ffc955"/>
          <rect id="Rectángulo_55593" data-name="Rectángulo 55593" width="18.936" height="7.205" transform="translate(212.906 244.151)" fill="#ffc955"/>
        </g>
      </g>
      <g id="Grupo_599806" data-name="Grupo 599806">
        <g id="Grupo_599805" data-name="Grupo 599805" clip-path="url(#clip-path-2)">
          <path id="Trazado_246858" data-name="Trazado 246858" d="M30.739,251.19v0Z" fill="#084e4e"/>
          <rect id="Rectángulo_55595" data-name="Rectángulo 55595" width="4.74" height="4.879" transform="translate(30.74 251.19)" fill="#084e4e"/>
          <rect id="Rectángulo_55596" data-name="Rectángulo 55596" width="4.74" height="4.879" transform="translate(35.48 251.19)" fill="#084e4e"/>
          <rect id="Rectángulo_55597" data-name="Rectángulo 55597" width="4.74" height="4.879" transform="translate(40.22 251.19)" fill="#084e4e"/>
          <rect id="Rectángulo_55598" data-name="Rectángulo 55598" width="4.74" height="4.879" transform="translate(44.96 251.19)" fill="#084e4e"/>
          <rect id="Rectángulo_55599" data-name="Rectángulo 55599" width="4.74" height="4.879" transform="translate(49.7 251.19)" fill="#084e4e"/>
          <rect id="Rectángulo_55600" data-name="Rectángulo 55600" width="4.74" height="4.879" transform="translate(54.441 251.19)" fill="#084e4e"/>
          <rect id="Rectángulo_55601" data-name="Rectángulo 55601" width="4.74" height="4.879" transform="translate(59.181 251.19)" fill="#084e4e"/>
          <rect id="Rectángulo_55602" data-name="Rectángulo 55602" width="4.74" height="4.879" transform="translate(63.921 251.19)" fill="#084e4e"/>
          <rect id="Rectángulo_55603" data-name="Rectángulo 55603" width="4.741" height="4.879" transform="translate(68.661 251.19)" fill="#084e4e"/>
          <rect id="Rectángulo_55604" data-name="Rectángulo 55604" width="4.74" height="4.879" transform="translate(73.403 251.19)" fill="#084e4e"/>
          <rect id="Rectángulo_55605" data-name="Rectángulo 55605" width="4.74" height="4.879" transform="translate(78.143 251.19)" fill="#084e4e"/>
          <rect id="Rectángulo_55606" data-name="Rectángulo 55606" width="4.74" height="4.879" transform="translate(82.883 251.19)" fill="#084e4e"/>
          <rect id="Rectángulo_55607" data-name="Rectángulo 55607" width="4.74" height="4.879" transform="translate(87.623 251.19)" fill="#084e4e"/>
          <rect id="Rectángulo_55608" data-name="Rectángulo 55608" width="4.74" height="4.879" transform="translate(92.364 251.19)" fill="#084e4e"/>
          <rect id="Rectángulo_55609" data-name="Rectángulo 55609" width="4.74" height="4.879" transform="translate(97.104 251.19)" fill="#084e4e"/>
          <rect id="Rectángulo_55610" data-name="Rectángulo 55610" width="4.74" height="4.879" transform="translate(101.844 251.19)" fill="#084e4e"/>
          <rect id="Rectángulo_55611" data-name="Rectángulo 55611" width="4.74" height="4.879" transform="translate(106.584 251.19)" fill="#084e4e"/>
          <rect id="Rectángulo_55612" data-name="Rectángulo 55612" width="4.74" height="4.879" transform="translate(111.324 251.19)" fill="#084e4e"/>
          <rect id="Rectángulo_55613" data-name="Rectángulo 55613" width="4.74" height="4.879" transform="translate(116.065 251.19)" fill="#084e4e"/>
          <rect id="Rectángulo_55614" data-name="Rectángulo 55614" width="4.741" height="4.879" transform="translate(120.805 251.19)" fill="#084e4e"/>
          <rect id="Rectángulo_55615" data-name="Rectángulo 55615" width="4.74" height="4.879" transform="translate(125.546 251.19)" fill="#084e4e"/>
          <rect id="Rectángulo_55616" data-name="Rectángulo 55616" width="4.74" height="4.879" transform="translate(130.286 251.19)" fill="#084e4e"/>
          <rect id="Rectángulo_55617" data-name="Rectángulo 55617" width="4.74" height="4.879" transform="translate(135.027 251.19)" fill="#084e4e"/>
          <rect id="Rectángulo_55618" data-name="Rectángulo 55618" width="4.74" height="4.879" transform="translate(139.767 251.19)" fill="#084e4e"/>
          <rect id="Rectángulo_55619" data-name="Rectángulo 55619" width="4.74" height="4.879" transform="translate(144.507 251.19)" fill="#084e4e"/>
          <rect id="Rectángulo_55620" data-name="Rectángulo 55620" width="4.74" height="4.879" transform="translate(149.247 251.19)" fill="#084e4e"/>
          <rect id="Rectángulo_55621" data-name="Rectángulo 55621" width="4.74" height="4.879" transform="translate(153.987 251.19)" fill="#084e4e"/>
          <rect id="Rectángulo_55622" data-name="Rectángulo 55622" width="4.74" height="4.879" transform="translate(158.728 251.19)" fill="#084e4e"/>
          <rect id="Rectángulo_55623" data-name="Rectángulo 55623" width="4.74" height="4.879" transform="translate(163.468 251.19)" fill="#084e4e"/>
          <rect id="Rectángulo_55624" data-name="Rectángulo 55624" width="4.74" height="4.879" transform="translate(168.208 251.19)" fill="#084e4e"/>
          <rect id="Rectángulo_55625" data-name="Rectángulo 55625" width="4.741" height="4.879" transform="translate(172.948 251.19)" fill="#084e4e"/>
          <rect id="Rectángulo_55626" data-name="Rectángulo 55626" width="4.74" height="4.879" transform="translate(177.69 251.19)" fill="#084e4e"/>
          <rect id="Rectángulo_55627" data-name="Rectángulo 55627" width="4.74" height="4.879" transform="translate(182.43 251.19)" fill="#084e4e"/>
          <rect id="Rectángulo_55628" data-name="Rectángulo 55628" width="4.74" height="4.879" transform="translate(187.17 251.19)" fill="#084e4e"/>
          <rect id="Rectángulo_55629" data-name="Rectángulo 55629" width="4.74" height="4.879" transform="translate(191.91 251.19)" fill="#084e4e"/>
          <rect id="Rectángulo_55630" data-name="Rectángulo 55630" width="4.74" height="4.879" transform="translate(196.651 251.19)" fill="#084e4e"/>
          <rect id="Rectángulo_55631" data-name="Rectángulo 55631" width="4.74" height="4.879" transform="translate(201.391 251.19)" fill="#084e4e"/>
          <rect id="Rectángulo_55632" data-name="Rectángulo 55632" width="4.74" height="4.879" transform="translate(206.131 251.19)" fill="#084e4e"/>
          <rect id="Rectángulo_55633" data-name="Rectángulo 55633" width="4.74" height="4.879" transform="translate(210.871 251.19)" fill="#084e4e"/>
          <rect id="Rectángulo_55634" data-name="Rectángulo 55634" width="4.74" height="4.879" transform="translate(215.612 251.19)" fill="#084e4e"/>
          <rect id="Rectángulo_55635" data-name="Rectángulo 55635" width="4.741" height="4.879" transform="translate(220.352 251.19)" fill="#084e4e"/>
          <rect id="Rectángulo_55636" data-name="Rectángulo 55636" width="4.74" height="4.879" transform="translate(225.093 251.19)" fill="#084e4e"/>
          <rect id="Rectángulo_55637" data-name="Rectángulo 55637" width="4.74" height="4.879" transform="translate(229.833 251.19)" fill="#084e4e"/>
          <rect id="Rectángulo_55638" data-name="Rectángulo 55638" width="4.74" height="4.879" transform="translate(234.573 251.19)" fill="#084e4e"/>
          <rect id="Rectángulo_55639" data-name="Rectángulo 55639" width="4.74" height="4.879" transform="translate(239.314 251.19)" fill="#084e4e"/>
          <rect id="Rectángulo_55640" data-name="Rectángulo 55640" width="4.74" height="4.879" transform="translate(244.054 251.19)" fill="#084e4e"/>
          <rect id="Rectángulo_55641" data-name="Rectángulo 55641" width="4.74" height="4.879" transform="translate(248.794 251.19)" fill="#084e4e"/>
          <rect id="Rectángulo_55642" data-name="Rectángulo 55642" width="4.74" height="4.879" transform="translate(253.534 251.19)" fill="#084e4e"/>
          <rect id="Rectángulo_55643" data-name="Rectángulo 55643" width="4.74" height="4.879" transform="translate(258.275 251.19)" fill="#084e4e"/>
          <rect id="Rectángulo_55644" data-name="Rectángulo 55644" width="4.74" height="4.879" transform="translate(263.015 251.19)" fill="#084e4e"/>
          <rect id="Rectángulo_55645" data-name="Rectángulo 55645" width="4.74" height="4.879" transform="translate(267.755 251.19)" fill="#084e4e"/>
          <rect id="Rectángulo_55646" data-name="Rectángulo 55646" width="4.741" height="4.879" transform="translate(272.495 251.19)" fill="#084e4e"/>
          <rect id="Rectángulo_55647" data-name="Rectángulo 55647" width="4.74" height="4.879" transform="translate(277.237 251.19)" fill="#084e4e"/>
          <rect id="Rectángulo_55648" data-name="Rectángulo 55648" width="4.74" height="4.879" transform="translate(281.977 251.19)" fill="#084e4e"/>
          <rect id="Rectángulo_55649" data-name="Rectángulo 55649" width="4.74" height="4.879" transform="translate(286.717 251.19)" fill="#084e4e"/>
          <rect id="Rectángulo_55650" data-name="Rectángulo 55650" width="4.74" height="4.879" transform="translate(291.457 251.19)" fill="#084e4e"/>
          <rect id="Rectángulo_55651" data-name="Rectángulo 55651" width="4.74" height="4.879" transform="translate(296.197 251.19)" fill="#084e4e"/>
          <rect id="Rectángulo_55652" data-name="Rectángulo 55652" width="4.74" height="4.879" transform="translate(300.938 251.19)" fill="#084e4e"/>
          <rect id="Rectángulo_55653" data-name="Rectángulo 55653" width="4.74" height="4.879" transform="translate(305.678 251.19)" fill="#084e4e"/>
          <rect id="Rectángulo_55654" data-name="Rectángulo 55654" width="4.74" height="4.879" transform="translate(310.418 251.19)" fill="#084e4e"/>
          <rect id="Rectángulo_55655" data-name="Rectángulo 55655" width="4.74" height="4.879" transform="translate(315.158 251.19)" fill="#084e4e"/>
          <rect id="Rectángulo_55656" data-name="Rectángulo 55656" width="4.74" height="4.879" transform="translate(319.899 251.19)" fill="#084e4e"/>
          <rect id="Rectángulo_55657" data-name="Rectángulo 55657" width="4.741" height="4.879" transform="translate(324.639 251.19)" fill="#084e4e"/>
          <rect id="Rectángulo_55658" data-name="Rectángulo 55658" width="4.74" height="4.879" transform="translate(329.38 251.19)" fill="#084e4e"/>
          <rect id="Rectángulo_55659" data-name="Rectángulo 55659" width="4.74" height="4.879" transform="translate(334.12 251.19)" fill="#084e4e"/>
          <path id="Trazado_246859" data-name="Trazado 246859" d="M338.86,256.069v0Z" fill="#084e4e"/>
        </g>
      </g>
      <g id="Grupo_599808" data-name="Grupo 599808">
        <g id="Grupo_599807" data-name="Grupo 599807" clip-path="url(#clip-path)">
          <rect id="Rectángulo_55661" data-name="Rectángulo 55661" width="266.961" height="4.88" transform="translate(260.189 355.305)" fill="#ffc955"/>
          <path id="Trazado_246860" data-name="Trazado 246860" d="M276.627,210.028c-.911,4.458,1.169,8.65,4.646,9.359s7.035-2.328,7.946-6.787-1.169-8.65-4.646-9.36-7.034,2.328-7.946,6.788" fill="#cfa345"/>
          <path id="Trazado_246861" data-name="Trazado 246861" d="M492.855,178.285s2.615,4.433,3.72,5.158c1.5.982.559,1.976-.153,1.976s-4.347.262-5.148-.647-1.2-3.633-1.944-4.346-1.514-3.545.364-4.233c1.659-.609,3.161,2.092,3.161,2.092" fill="#6069a8"/>
          <path id="Trazado_246862" data-name="Trazado 246862" d="M491.723,176.335s2.995,5.192,3.512,5.959-.972.766-1.895.4-3.241-4.088-3.575-4.766a2.5,2.5,0,0,1-.07-1.736Z" fill="#202338"/>
          <path id="Trazado_246863" data-name="Trazado 246863" d="M488.689,179.128l.691,5.323.367.016-.115-3.829Z" fill="#6069a8"/>
          <path id="Trazado_246864" data-name="Trazado 246864" d="M466.921,178.285s2.615,4.433,3.72,5.158c1.5.982.559,1.976-.153,1.976s-4.346.262-5.147-.647-1.2-3.633-1.943-4.346-1.541-3.618.362-4.233c1.669-.54,3.161,2.092,3.161,2.092" fill="#6069a8"/>
          <path id="Trazado_246865" data-name="Trazado 246865" d="M465.946,176.346s2.838,5.181,3.353,5.949-.971.765-1.893.4-3.242-4.087-3.575-4.766a2.5,2.5,0,0,1-.071-1.736Z" fill="#202338"/>
          <path id="Trazado_246866" data-name="Trazado 246866" d="M462.755,179.128l.691,5.323.367.016-.115-3.829Z" fill="#6069a8"/>
          <path id="Trazado_246867" data-name="Trazado 246867" d="M455.318,137.938l23.666,10.784a4.55,4.55,0,0,1,2.938,3.792c.923,9.155,7.772,23.679,7.772,23.679,2.2,1.075,2.028.142,2.028.142-1.384-4.445-3.07-22.765-3.672-30.13-.127-1.561-.206-2.629-.222-2.97-.012-.233-.267-.537-.705-.892-3.247-2.634-16.61-8.085-16.61-8.085-10.033-.255-15.2,3.68-15.2,3.68" fill="#202338"/>
          <path id="Trazado_246868" data-name="Trazado 246868" d="M450.857,142.568c.732,6.4,9.864,5.665,9.864,5.665h11.067a69.085,69.085,0,0,0-4.03,11.924c-1.19,5.79-4,16.035-4,16.035s.185.349,2.187.154c0,0,8.687-17.315,12.013-21.667a29.429,29.429,0,0,0,3.118-9.054c.119-1.021.046-1.81-.335-2.129a27.564,27.564,0,0,0-2.444-1.67c-3.466-2.186-9.486-5.551-12.84-6.305-4.493-1.01-11.6-2.9-11.6-2.9a12.233,12.233,0,0,0-3,9.949" fill="#202338"/>
          <path id="Trazado_246869" data-name="Trazado 246869" d="M458.39,93.3a10.311,10.311,0,0,1-.85-6.494c.808-3.349,3.915-6.686,8.465-5.153s8.229,5.067,5.5,9.154,2.468,5.933,1.145,7.877-.822,3.975-.262,4.428,2.368,2.065,2.17,3.975-8.828-5.565-8.828-5.565-4.7-9.443-7.341-8.222" fill="#464240"/>
          <path id="Trazado_246870" data-name="Trazado 246870" d="M472.258,133.491s-.685,3.329-18.361-.874c0,0,5.926-1.968,18.361.874" fill="#eb4747"/>
          <path id="Trazado_246871" data-name="Trazado 246871" d="M453.7,133.55l-.822,1.57,19.383.564c-1.021-3.422-.69-8.056-.511-11.574.218-4.3,2.592-7.285,2.339-11.63,1.278.207,1.5.246,2.779.442-1.957-5.578-2.628-8.342-8.71-10.489a11.37,11.37,0,0,0-5.424-.661c-7.044.581-9.168.664-12.627,7.047,5.415.862,4.524,2.807,6.166,8.194.8,2.627,1.637,5.558,1.207,8.329-.422,2.728-3.78,5.72-3.78,8.208" fill="#5f8cc9"/>
          <path id="Trazado_246872" data-name="Trazado 246872" d="M464.936,103.786c-2.883-.544-2.27-2.147-2.27-2.147s.134-.906.186-2.049c.014-.293.021-.6.02-.915a12.255,12.255,0,0,0-.079-1.418c-.236-1.934,5.233-.781,5.233-.781s-.316,3.916.438,5.089-.645,2.765-3.528,2.221" fill="#eea886"/>
          <path id="Trazado_246873" data-name="Trazado 246873" d="M459.438,101.627s5.813,6.714,7.963,8.27c0,0,2.47-2.232.947-8.125,0,0-2.807-1.406-8.91-.145" fill="#eea886"/>
          <path id="Trazado_246874" data-name="Trazado 246874" d="M459.6,85.469s-3.02,5.818-.024,11.329,8.878-2.4,9.259-3.328,2.4-6.178-1.615-7.773-6.766-1.807-7.62-.228" fill="#eea886"/>
          <path id="Trazado_246875" data-name="Trazado 246875" d="M460.6,87.533s-2.078,2.73-2.324,4.747a10.813,10.813,0,0,1,1.512-7.478c2.339-3.665,8.289-.175,9.085,1.29s3.132,2.753-.791,9.045c0,0-7.055-4.9-7.482-7.6" fill="#464240"/>
          <path id="Trazado_246876" data-name="Trazado 246876" d="M465.426,97.378a5.637,5.637,0,0,1-2.573,2.211c.013-.293.021-.6.02-.915a4.9,4.9,0,0,0,2.553-1.3" fill="#a77860"/>
          <path id="Trazado_246877" data-name="Trazado 246877" d="M434.907,128.316s-1.436.638-2.116.349a6.357,6.357,0,0,0-2.066-.347c-.444,0-1.834-.5-1.809.046s2.256.922,2.713,1.092-1.367,1.173-1.536,1.619,1.888,3.372,3.049,2.538,1.79-2.5,2.027-2.6a8.517,8.517,0,0,0,.871-.573Z" fill="#eea886"/>
          <path id="Trazado_246878" data-name="Trazado 246878" d="M430.313,130.815s-3.367,2.792-3.42,3.168.124.553.451.306,3.338-2.6,3.338-2.6-3.373,3.984-3.486,4.28c-.067.173.257.533.445.416s3.775-3.866,3.775-3.866-3.141,3.725-3.159,4a.366.366,0,0,0,.618.247c.253-.26,3.38-3.547,3.38-3.547s-2.1,2.861-1.972,3.113c.079.154.344.477.862-.279s1.94-2.4,1.94-2.4Z" fill="#eea886"/>
          <path id="Trazado_246879" data-name="Trazado 246879" d="M470.634,148.233h-9.912s-9.132.732-9.863-5.664a12.228,12.228,0,0,1,3-9.95s4.824,1.285,9.035,2.3a32.573,32.573,0,0,1,7.618-.665s17.852,5.9,17.315,9c0,0-7.467-3.993-17.2,4.971" fill="#ffc955"/>
          <path id="Trazado_246880" data-name="Trazado 246880" d="M464.182,137.156l18.9-.278-9.541,4.845Z" fill="#5e5853"/>
          <path id="Trazado_246881" data-name="Trazado 246881" d="M470.053,134.742a16.17,16.17,0,0,1-9.463.158l-.244-1.946,10.73.6Z" fill="#5f8cc9"/>
          <path id="Trazado_246882" data-name="Trazado 246882" d="M473.538,141.723l-9.357-3.625v-.942l10.1,3.642Z" fill="#91887f"/>
          <path id="Trazado_246883" data-name="Trazado 246883" d="M469.987,135.642a.934.934,0,0,0,1.3.927l1.1-.469a.78.78,0,0,0,.464-.842c-.457-2.859-1.437-13.986-.005-15.895a6.93,6.93,0,0,0,1.047-1.865c.946,2.438,2.122,5.58,2.59,7.269l8.929,11.878,2.993.76a101.138,101.138,0,0,0-6.736-13.77c-.584-1.569-2.26-6.32-3.743-10.55-.938-2.67-1.8-5.133-2.261-6.457a3.022,3.022,0,0,0-1.306-1.6c-1.383-.827-3.687-2.13-5.777-3.144l-.026-.012-.2-.1h-.005c3.974,6.013,2.424,22.99,1.64,33.846v.024" fill="#eddad3"/>
          <path id="Trazado_246884" data-name="Trazado 246884" d="M455.237,102.286c-1.273.2-4.429,3.26-6.1,6.353-1.914,3.529-3.86,7.548-5.32,8.87-2.683,2.431-10.193,11.024-10.551,10.816a23.551,23.551,0,0,0,2.339,2.689c.14.061,12.345-10.515,13.518-12.126,1.111-1.528,4.084-7.939,4.973-7.8l0,0v0a47.433,47.433,0,0,1,2.174,5.917l.051.17a19.021,19.021,0,0,1,.259,7.9,26.892,26.892,0,0,1-2.923,7.551,1.185,1.185,0,0,0,.04.915h0a.657.657,0,0,0,.325.38l3.584,1.327.842.312a1.837,1.837,0,0,0,2.457-1.483c.8-6.129,1.805-12.391,2.608-14.75a22.342,22.342,0,0,0-1.377-18.128,66.763,66.763,0,0,0-6.9,1.077" fill="#eddad3"/>
          <path id="Trazado_246885" data-name="Trazado 246885" d="M473.538,141.723l5.621-15.348,18.122.3-5.357,14.143Z" fill="#6e6760"/>
          <path id="Trazado_246886" data-name="Trazado 246886" d="M484.958,133.165c-.553,1.105-.387,2.31.373,2.689s1.822-.209,2.375-1.314.387-2.31-.373-2.689-1.822.209-2.375,1.314" fill="#807066"/>
          <path id="Trazado_246887" data-name="Trazado 246887" d="M465.855,91.262a3.258,3.258,0,0,1,.088,3.365c-1.073,1.559.27,3.09.5,4.738s-4.476,6.032.761,8.238,6.9-1.441,5.568-3.447a11.335,11.335,0,0,1-2.4-6.5c-.113-2.861-1.054-7.321-4.522-6.4" fill="#464240"/>
          <path id="Trazado_246888" data-name="Trazado 246888" d="M440.258,83.765h10.927v9.588l-1.668-1.669h-9.259Z" fill="#ffcb55"/>
          <path id="Trazado_246889" data-name="Trazado 246889" d="M378.925,205.292S355.111,227.953,366.7,245.6s17.006,2.189,17.006,2.189,7.835,2.365-3.794-19.39c-5.48-10.253-.982-23.1-.982-23.1" fill="#bbd070"/>
          <path id="Trazado_246890" data-name="Trazado 246890" d="M334.893,180.723s-18.191,21.38,6.13,50.983,20.551,45.254,20.551,45.254,33.856-51.47-26.681-96.237" fill="#97a43c"/>
          <path id="Trazado_246891" data-name="Trazado 246891" d="M367.059,268.024c11.317,2.288,2.16-30.621-14.813-40.654S320.09,216.358,310.583,206.7c0,0,.742,50.057,56.476,61.328" fill="#48753a"/>
          <path id="Trazado_246892" data-name="Trazado 246892" d="M293.091,282.457s.52-1.285.6-1.48a3.384,3.384,0,0,1,1.19-.822,3.873,3.873,0,0,1,1.666-.407.591.591,0,0,1,.365.338,1.144,1.144,0,0,1,.1.572.7.7,0,0,1,.247.626.606.606,0,0,1,.138.66.508.508,0,0,1,.14.542,4.553,4.553,0,0,0-.651.49,9.746,9.746,0,0,1-2.364,1.165s-1.2.022-1.43-1.684" fill="#eea886"/>
          <path id="Trazado_246893" data-name="Trazado 246893" d="M294.931,281.756a3.379,3.379,0,0,1-.083.893c-.1.2,1.412.635,1.412.635s-.482-1.521-1.329-1.528" fill="#cf8c6c"/>
          <path id="Trazado_246894" data-name="Trazado 246894" d="M266.814,349.8l.658-2.05,2.783.45-.416,1.849Z" fill="#3b3f66"/>
          <path id="Trazado_246895" data-name="Trazado 246895" d="M289.634,349.56l.156,1.126,3.047-.508-.162-1.682Z" fill="#555c94"/>
          <path id="Trazado_246896" data-name="Trazado 246896" d="M283.033,317.994s-.448,2.446-.97,5.161c-.091.473-.182.954-.276,1.432-.509,2.616-1.024,5.133-1.214,5.653-.432,1.184-9.764,18.283-9.764,18.283s-3.816-.291-3.959-.781c0,0,7.824-18.567,7.779-19.244s.956-19.71.956-19.71,7.242,8.107,7.448,9.206" fill="#354c70"/>
          <path id="Trazado_246897" data-name="Trazado 246897" d="M287.3,307.7s3.651,18.7,3.964,20.129,1.7,20.585,1.7,20.585-.82,1.692-3.851,1.056c0,0-4.133-20.58-4.482-21.27-1.351-2.676-7.985-15.641-8.629-17.491a11.143,11.143,0,0,1-.454-4.01s4.93-2.77,11.757,1" fill="#354c70"/>
          <path id="Trazado_246898" data-name="Trazado 246898" d="M285.763,283.482s1.6,3.992,2,3.875,5.005-5.523,5.005-5.523,2.105,2.627,1.823,2.929c-.393.42-5.828,9.457-6.576,9.294s-4.09-5.687-4.09-5.687-.189-4.166,1.834-4.888" fill="#deb135"/>
          <path id="Trazado_246899" data-name="Trazado 246899" d="M278.913,275.858a67.029,67.029,0,0,1,5.3,4.434c1.145,1.258,4.309,6.48,4.081,8.05a114.211,114.211,0,0,0-1.317,15.262c-.023,3.579,1.118,4.492.408,4.545-.816.062-11.266,3.849-12.813,4.31,0,0,1.014-12.6,1.527-14.057s-1.643-16.693,2.814-22.544" fill="#f2c344"/>
          <path id="Trazado_246900" data-name="Trazado 246900" d="M305.661,269.837l.932,4.694.931,4.7a25.583,25.583,0,0,0-11.383-.468l-.411-2.07-.414-2.083a25.7,25.7,0,0,0,10.345-4.769" fill="#d9d0c4"/>
          <path id="Trazado_246901" data-name="Trazado 246901" d="M289.79,350.686s2.3-.445,2.381-.515.574-.978.93-.82.36,1.264.708,1.451,3.092,2.042,3.43,2.38,2.417.139,2.656.726.257,1.973-2.844,1.647-6.645.178-7.313-.188-.162-3.788.052-4.681" fill="#84bdff"/>
          <path id="Trazado_246902" data-name="Trazado 246902" d="M266.777,349.751s2.343-.071,2.433-.128.723-.874,1.05-.66.153,1.306.465,1.547,2.728,2.511,3.006,2.9,2.363.525,2.505,1.142-.061,1.989-3.07,1.171-6.587-.888-7.188-1.356.446-3.765.8-4.613" fill="#84bdff"/>
          <path id="Trazado_246903" data-name="Trazado 246903" d="M284.967,308.566s.28,1.139.729,1.386-2.1,2.68-2.1,2.68a21.4,21.4,0,0,1-1.005-2.483,15.571,15.571,0,0,1,2.371-1.583" fill="#eea987"/>
          <path id="Trazado_246904" data-name="Trazado 246904" d="M277.068,280.781s-2.98,14.178-3.225,15.63c-.231,1.374,8.739,14.491,8.739,14.491l2.982-1.769s-7.237-13.161-7.226-13.761,3.473-12.031,3.473-12.031a2.7,2.7,0,1,0-4.743-2.56" fill="#ffd255"/>
          <path id="Trazado_246905" data-name="Trazado 246905" d="M286.715,309.544a48.47,48.47,0,0,1,.91,6.3c-.059,1.477-5.564-2.323-5.285-3.793Z" fill="#3c5780"/>
          <path id="Trazado_246906" data-name="Trazado 246906" d="M278.913,275.858s7.564,8.263,7.1,7.347c-1.662-3.266-2.821-3.817-2.8-4.426.018-.467.2-1.825.231-2.28.059-.867.123-1.57.123-1.57s-3.756-5.275-3.59-3.477a10.94,10.94,0,0,1-1.066,4.406" fill="#eea886"/>
          <path id="Trazado_246907" data-name="Trazado 246907" d="M286.117,266.131a19.139,19.139,0,0,1,1.055,3.013,12.024,12.024,0,0,0-.041,1.668,23.876,23.876,0,0,1,.592,2.507c-.084.479-1.091.23-1.23,1.018s-.871,2.268-1.235,2.3c-.937.076-4.523-1.386-4.751-2.136s-1.528-4.933-1.932-5.729,6.317-5.156,6.93-3.9Z" fill="#eea886"/>
          <path id="Trazado_246908" data-name="Trazado 246908" d="M276.977,267.943c-.476-2.071,1.9-2.326,1.9-2.326s1.551-1.806,5.261-1.591,3.144,5.056,3.144,5.056a13.765,13.765,0,0,0-3.683-.1,17.387,17.387,0,0,0-.015,2.58l-1.4-.125s.156-1.835-.516-1.922-.9,3.885-2.148,4.76a1.383,1.383,0,0,0-.169-.555,15.781,15.781,0,0,1-.973-2.026,22.669,22.669,0,0,1-1.406-3.75" fill="#16202e"/>
          <path id="Trazado_246909" data-name="Trazado 246909" d="M282.606,269.957a1.063,1.063,0,0,0-1.751-.492c-.9.662.025,3.026.9,3.014s1.224-1.3.854-2.522" fill="#eea886"/>
          <path id="Trazado_246910" data-name="Trazado 246910" d="M280.3,273.844a2.734,2.734,0,0,0,.384.917,8.005,8.005,0,0,0,2.777,1.452l-.145,1.467s-3.179-1.227-3.016-3.836" fill="#c48a6f"/>
        </g>
      </g>
      <g id="Grupo_599810" data-name="Grupo 599810">
        <g id="Grupo_599809" data-name="Grupo 599809" clip-path="url(#clip-path-4)">
          <path id="Trazado_246911" data-name="Trazado 246911" d="M293.743,278.506v0Z" fill="#96cbff"/>
          <rect id="Rectángulo_55663" data-name="Rectángulo 55663" width="0.058" height="5.616" transform="translate(293.743 278.506)" fill="#96cbff"/>
          <rect id="Rectángulo_55664" data-name="Rectángulo 55664" width="0.059" height="5.616" transform="translate(293.8 278.506)" fill="#95caff"/>
          <rect id="Rectángulo_55665" data-name="Rectángulo 55665" width="0.058" height="5.616" transform="translate(293.859 278.506)" fill="#94c9ff"/>
          <rect id="Rectángulo_55666" data-name="Rectángulo 55666" width="0.059" height="5.616" transform="translate(293.917 278.506)" fill="#93c9ff"/>
          <rect id="Rectángulo_55667" data-name="Rectángulo 55667" width="0.058" height="5.616" transform="translate(293.975 278.506)" fill="#92c8ff"/>
          <rect id="Rectángulo_55668" data-name="Rectángulo 55668" width="0.059" height="5.616" transform="translate(294.033 278.506)" fill="#91c7ff"/>
          <rect id="Rectángulo_55669" data-name="Rectángulo 55669" width="0.058" height="5.616" transform="translate(294.091 278.506)" fill="#90c6ff"/>
          <rect id="Rectángulo_55670" data-name="Rectángulo 55670" width="0.059" height="5.616" transform="translate(294.149 278.506)" fill="#8fc6ff"/>
          <rect id="Rectángulo_55671" data-name="Rectángulo 55671" width="0.058" height="5.616" transform="translate(294.208 278.506)" fill="#8ec5ff"/>
          <rect id="Rectángulo_55672" data-name="Rectángulo 55672" width="0.059" height="5.616" transform="translate(294.265 278.506)" fill="#8dc4ff"/>
          <rect id="Rectángulo_55673" data-name="Rectángulo 55673" width="0.058" height="5.616" transform="translate(294.324 278.506)" fill="#8cc3ff"/>
          <rect id="Rectángulo_55674" data-name="Rectángulo 55674" width="0.059" height="5.616" transform="translate(294.381 278.506)" fill="#8bc2ff"/>
          <rect id="Rectángulo_55675" data-name="Rectángulo 55675" width="0.058" height="5.616" transform="translate(294.44 278.506)" fill="#8ac2ff"/>
          <rect id="Rectángulo_55676" data-name="Rectángulo 55676" width="0.059" height="5.616" transform="translate(294.498 278.506)" fill="#89c1ff"/>
          <rect id="Rectángulo_55677" data-name="Rectángulo 55677" width="0.058" height="5.616" transform="translate(294.556 278.506)" fill="#88c0ff"/>
          <rect id="Rectángulo_55678" data-name="Rectángulo 55678" width="0.059" height="5.616" transform="translate(294.614 278.506)" fill="#87bfff"/>
          <rect id="Rectángulo_55679" data-name="Rectángulo 55679" width="0.058" height="5.616" transform="translate(294.672 278.506)" fill="#86bfff"/>
          <rect id="Rectángulo_55680" data-name="Rectángulo 55680" width="0.058" height="5.616" transform="translate(294.73 278.506)" fill="#85beff"/>
          <rect id="Rectángulo_55681" data-name="Rectángulo 55681" width="0.059" height="5.616" transform="translate(294.788 278.506)" fill="#84bdff"/>
          <rect id="Rectángulo_55682" data-name="Rectángulo 55682" width="0.059" height="5.616" transform="translate(294.846 278.506)" fill="#83bcff"/>
          <rect id="Rectángulo_55683" data-name="Rectángulo 55683" width="0.058" height="5.616" transform="translate(294.905 278.506)" fill="#82bbff"/>
          <rect id="Rectángulo_55684" data-name="Rectángulo 55684" width="0.058" height="5.616" transform="translate(294.962 278.506)" fill="#81bbff"/>
          <rect id="Rectángulo_55685" data-name="Rectángulo 55685" width="0.059" height="5.616" transform="translate(295.02 278.506)" fill="#80baff"/>
          <rect id="Rectángulo_55686" data-name="Rectángulo 55686" width="0.059" height="5.616" transform="translate(295.079 278.506)" fill="#7fb9ff"/>
          <rect id="Rectángulo_55687" data-name="Rectángulo 55687" width="0.058" height="5.616" transform="translate(295.137 278.506)" fill="#7eb8ff"/>
          <rect id="Rectángulo_55688" data-name="Rectángulo 55688" width="0.058" height="5.616" transform="translate(295.195 278.506)" fill="#7db7ff"/>
          <rect id="Rectángulo_55689" data-name="Rectángulo 55689" width="0.059" height="5.616" transform="translate(295.252 278.506)" fill="#7cb7ff"/>
          <rect id="Rectángulo_55690" data-name="Rectángulo 55690" width="0.059" height="5.616" transform="translate(295.311 278.506)" fill="#7bb6ff"/>
          <rect id="Rectángulo_55691" data-name="Rectángulo 55691" width="0.058" height="5.616" transform="translate(295.37 278.506)" fill="#7ab5ff"/>
          <rect id="Rectángulo_55692" data-name="Rectángulo 55692" width="0.058" height="5.616" transform="translate(295.427 278.506)" fill="#79b4ff"/>
          <rect id="Rectángulo_55693" data-name="Rectángulo 55693" width="0.059" height="5.616" transform="translate(295.485 278.506)" fill="#78b4ff"/>
          <rect id="Rectángulo_55694" data-name="Rectángulo 55694" width="0.058" height="5.616" transform="translate(295.544 278.506)" fill="#77b3ff"/>
          <rect id="Rectángulo_55695" data-name="Rectángulo 55695" width="0.059" height="5.616" transform="translate(295.601 278.506)" fill="#76b2ff"/>
          <rect id="Rectángulo_55696" data-name="Rectángulo 55696" width="0.058" height="5.616" transform="translate(295.66 278.506)" fill="#74b1ff"/>
          <rect id="Rectángulo_55697" data-name="Rectángulo 55697" width="0.059" height="5.616" transform="translate(295.717 278.506)" fill="#73b0ff"/>
          <rect id="Rectángulo_55698" data-name="Rectángulo 55698" width="0.058" height="5.616" transform="translate(295.776 278.506)" fill="#72b0ff"/>
          <rect id="Rectángulo_55699" data-name="Rectángulo 55699" width="0.059" height="5.616" transform="translate(295.834 278.506)" fill="#71afff"/>
          <rect id="Rectángulo_55700" data-name="Rectángulo 55700" width="0.058" height="5.616" transform="translate(295.892 278.506)" fill="#70aeff"/>
          <rect id="Rectángulo_55701" data-name="Rectángulo 55701" width="0.059" height="5.616" transform="translate(295.95 278.506)" fill="#6fadff"/>
          <rect id="Rectángulo_55702" data-name="Rectángulo 55702" width="0.058" height="5.616" transform="translate(296.008 278.506)" fill="#6eadff"/>
          <rect id="Rectángulo_55703" data-name="Rectángulo 55703" width="0.059" height="5.616" transform="translate(296.066 278.506)" fill="#6dacff"/>
          <rect id="Rectángulo_55704" data-name="Rectángulo 55704" width="0.058" height="5.616" transform="translate(296.125 278.506)" fill="#6cabff"/>
          <rect id="Rectángulo_55705" data-name="Rectángulo 55705" width="0.059" height="5.616" transform="translate(296.182 278.506)" fill="#6baaff"/>
          <rect id="Rectángulo_55706" data-name="Rectángulo 55706" width="0.058" height="5.616" transform="translate(296.241 278.506)" fill="#6aa9ff"/>
          <rect id="Rectángulo_55707" data-name="Rectángulo 55707" width="0.059" height="5.616" transform="translate(296.298 278.506)" fill="#69a9ff"/>
          <rect id="Rectángulo_55708" data-name="Rectángulo 55708" width="0.058" height="5.616" transform="translate(296.357 278.506)" fill="#68a8ff"/>
          <rect id="Rectángulo_55709" data-name="Rectángulo 55709" width="0.059" height="5.616" transform="translate(296.415 278.506)" fill="#67a7ff"/>
          <rect id="Rectángulo_55710" data-name="Rectángulo 55710" width="0.058" height="5.616" transform="translate(296.473 278.506)" fill="#66a6ff"/>
          <rect id="Rectángulo_55711" data-name="Rectángulo 55711" width="0.059" height="5.616" transform="translate(296.531 278.506)" fill="#65a6ff"/>
          <rect id="Rectángulo_55712" data-name="Rectángulo 55712" width="0.058" height="5.616" transform="translate(296.589 278.506)" fill="#64a5ff"/>
          <rect id="Rectángulo_55713" data-name="Rectángulo 55713" width="0.059" height="5.616" transform="translate(296.647 278.506)" fill="#63a4ff"/>
          <rect id="Rectángulo_55714" data-name="Rectángulo 55714" width="0.058" height="5.616" transform="translate(296.706 278.506)" fill="#62a3ff"/>
          <rect id="Rectángulo_55715" data-name="Rectángulo 55715" width="0.059" height="5.616" transform="translate(296.763 278.506)" fill="#61a2ff"/>
          <rect id="Rectángulo_55716" data-name="Rectángulo 55716" width="0.058" height="5.616" transform="translate(296.822 278.506)" fill="#60a2ff"/>
          <rect id="Rectángulo_55717" data-name="Rectángulo 55717" width="0.059" height="5.616" transform="translate(296.88 278.506)" fill="#5fa1ff"/>
          <rect id="Rectángulo_55718" data-name="Rectángulo 55718" width="0.058" height="5.616" transform="translate(296.938 278.506)" fill="#5ea0ff"/>
          <rect id="Rectángulo_55719" data-name="Rectángulo 55719" width="0.059" height="5.616" transform="translate(296.996 278.506)" fill="#5d9fff"/>
          <rect id="Rectángulo_55720" data-name="Rectángulo 55720" width="0.058" height="5.616" transform="translate(297.054 278.506)" fill="#5c9eff"/>
          <rect id="Rectángulo_55721" data-name="Rectángulo 55721" width="0.059" height="5.616" transform="translate(297.112 278.506)" fill="#5b9eff"/>
          <rect id="Rectángulo_55722" data-name="Rectángulo 55722" width="0.058" height="5.616" transform="translate(297.17 278.506)" fill="#5a9dff"/>
          <rect id="Rectángulo_55723" data-name="Rectángulo 55723" width="0.059" height="5.616" transform="translate(297.228 278.506)" fill="#599cff"/>
          <rect id="Rectángulo_55724" data-name="Rectángulo 55724" width="0.058" height="5.616" transform="translate(297.287 278.506)" fill="#589bff"/>
          <rect id="Rectángulo_55725" data-name="Rectángulo 55725" width="0.059" height="5.616" transform="translate(297.344 278.506)" fill="#579bff"/>
          <rect id="Rectángulo_55726" data-name="Rectángulo 55726" width="0.058" height="5.616" transform="translate(297.403 278.506)" fill="#569aff"/>
          <rect id="Rectángulo_55727" data-name="Rectángulo 55727" width="0.059" height="5.616" transform="translate(297.461 278.506)" fill="#59f"/>
          <path id="Trazado_246912" data-name="Trazado 246912" d="M297.52,284.122v0Z" fill="#59f"/>
        </g>
      </g>
      <g id="Grupo_599812" data-name="Grupo 599812">
        <g id="Grupo_599811" data-name="Grupo 599811" clip-path="url(#clip-path)">
          <path id="Trazado_246914" data-name="Trazado 246914" d="M296.389,279.824s-1.515.831-1.41,1.092a.438.438,0,0,0,.3.293l-.468.624s-.076.589.587.5c0,0-.128.543.5.381,0,0,.075.4.38.372a5.781,5.781,0,0,0,1.257-.6s.147-.212-.14-.542a.6.6,0,0,0-.138-.66.658.658,0,0,0-.247-.626s.14-.739-.46-.91c0,0-.1.04-.162.075" fill="#db9c7c"/>
        </g>
      </g>
      <g id="Grupo_599814" data-name="Grupo 599814">
        <g id="Grupo_599813" data-name="Grupo 599813" clip-path="url(#clip-path-6)">
          <path id="Trazado_246915" data-name="Trazado 246915" d="M291.13,274.251v0Z" fill="#96cbff"/>
          <rect id="Rectángulo_55729" data-name="Rectángulo 55729" width="0.095" height="5.373" transform="translate(291.13 274.251)" fill="#96cbff"/>
          <rect id="Rectángulo_55730" data-name="Rectángulo 55730" width="0.095" height="5.373" transform="translate(291.224 274.251)" fill="#95caff"/>
          <rect id="Rectángulo_55731" data-name="Rectángulo 55731" width="0.096" height="5.373" transform="translate(291.319 274.251)" fill="#94c9ff"/>
          <rect id="Rectángulo_55732" data-name="Rectángulo 55732" width="0.095" height="5.373" transform="translate(291.415 274.251)" fill="#93c9ff"/>
          <rect id="Rectángulo_55733" data-name="Rectángulo 55733" width="0.095" height="5.373" transform="translate(291.509 274.251)" fill="#92c8ff"/>
          <rect id="Rectángulo_55734" data-name="Rectángulo 55734" width="0.095" height="5.373" transform="translate(291.604 274.251)" fill="#91c7ff"/>
          <rect id="Rectángulo_55735" data-name="Rectángulo 55735" width="0.095" height="5.373" transform="translate(291.699 274.251)" fill="#90c6ff"/>
          <rect id="Rectángulo_55736" data-name="Rectángulo 55736" width="0.095" height="5.373" transform="translate(291.794 274.251)" fill="#8fc6ff"/>
          <rect id="Rectángulo_55737" data-name="Rectángulo 55737" width="0.095" height="5.373" transform="translate(291.888 274.251)" fill="#8ec5ff"/>
          <rect id="Rectángulo_55738" data-name="Rectángulo 55738" width="0.095" height="5.373" transform="translate(291.983 274.251)" fill="#8dc4ff"/>
          <rect id="Rectángulo_55739" data-name="Rectángulo 55739" width="0.096" height="5.373" transform="translate(292.078 274.251)" fill="#8cc3ff"/>
          <rect id="Rectángulo_55740" data-name="Rectángulo 55740" width="0.095" height="5.373" transform="translate(292.173 274.251)" fill="#8bc2ff"/>
          <rect id="Rectángulo_55741" data-name="Rectángulo 55741" width="0.095" height="5.373" transform="translate(292.268 274.251)" fill="#8ac2ff"/>
          <rect id="Rectángulo_55742" data-name="Rectángulo 55742" width="0.095" height="5.373" transform="translate(292.363 274.251)" fill="#89c1ff"/>
          <rect id="Rectángulo_55743" data-name="Rectángulo 55743" width="0.095" height="5.373" transform="translate(292.458 274.251)" fill="#88c0ff"/>
          <rect id="Rectángulo_55744" data-name="Rectángulo 55744" width="0.095" height="5.373" transform="translate(292.552 274.251)" fill="#87bfff"/>
          <rect id="Rectángulo_55745" data-name="Rectángulo 55745" width="0.095" height="5.373" transform="translate(292.647 274.251)" fill="#86bfff"/>
          <rect id="Rectángulo_55746" data-name="Rectángulo 55746" width="0.095" height="5.373" transform="translate(292.742 274.251)" fill="#85beff"/>
          <rect id="Rectángulo_55747" data-name="Rectángulo 55747" width="0.096" height="5.373" transform="translate(292.837 274.251)" fill="#84bdff"/>
          <rect id="Rectángulo_55748" data-name="Rectángulo 55748" width="0.095" height="5.373" transform="translate(292.932 274.251)" fill="#83bcff"/>
          <rect id="Rectángulo_55749" data-name="Rectángulo 55749" width="0.095" height="5.373" transform="translate(293.027 274.251)" fill="#82bbff"/>
          <rect id="Rectángulo_55750" data-name="Rectángulo 55750" width="0.095" height="5.373" transform="translate(293.122 274.251)" fill="#81bbff"/>
          <rect id="Rectángulo_55751" data-name="Rectángulo 55751" width="0.095" height="5.373" transform="translate(293.216 274.251)" fill="#80baff"/>
          <rect id="Rectángulo_55752" data-name="Rectángulo 55752" width="0.095" height="5.373" transform="translate(293.311 274.251)" fill="#7fb9ff"/>
          <rect id="Rectángulo_55753" data-name="Rectángulo 55753" width="0.095" height="5.373" transform="translate(293.406 274.251)" fill="#7eb8ff"/>
          <rect id="Rectángulo_55754" data-name="Rectángulo 55754" width="0.095" height="5.373" transform="translate(293.501 274.251)" fill="#7db7ff"/>
          <rect id="Rectángulo_55755" data-name="Rectángulo 55755" width="0.095" height="5.373" transform="translate(293.595 274.251)" fill="#7cb7ff"/>
          <rect id="Rectángulo_55756" data-name="Rectángulo 55756" width="0.095" height="5.373" transform="translate(293.69 274.251)" fill="#7bb6ff"/>
          <rect id="Rectángulo_55757" data-name="Rectángulo 55757" width="0.095" height="5.373" transform="translate(293.785 274.251)" fill="#7ab5ff"/>
          <rect id="Rectángulo_55758" data-name="Rectángulo 55758" width="0.096" height="5.373" transform="translate(293.88 274.251)" fill="#79b4ff"/>
          <rect id="Rectángulo_55759" data-name="Rectángulo 55759" width="0.095" height="5.373" transform="translate(293.975 274.251)" fill="#78b4ff"/>
          <rect id="Rectángulo_55760" data-name="Rectángulo 55760" width="0.095" height="5.373" transform="translate(294.07 274.251)" fill="#77b3ff"/>
          <rect id="Rectángulo_55761" data-name="Rectángulo 55761" width="0.095" height="5.373" transform="translate(294.165 274.251)" fill="#76b2ff"/>
          <rect id="Rectángulo_55762" data-name="Rectángulo 55762" width="0.095" height="5.373" transform="translate(294.259 274.251)" fill="#74b1ff"/>
          <rect id="Rectángulo_55763" data-name="Rectángulo 55763" width="0.095" height="5.373" transform="translate(294.354 274.251)" fill="#73b0ff"/>
          <rect id="Rectángulo_55764" data-name="Rectángulo 55764" width="0.095" height="5.373" transform="translate(294.449 274.251)" fill="#72b0ff"/>
          <rect id="Rectángulo_55765" data-name="Rectángulo 55765" width="0.095" height="5.373" transform="translate(294.544 274.251)" fill="#71afff"/>
          <rect id="Rectángulo_55766" data-name="Rectángulo 55766" width="0.096" height="5.373" transform="translate(294.638 274.251)" fill="#70aeff"/>
          <rect id="Rectángulo_55767" data-name="Rectángulo 55767" width="0.095" height="5.373" transform="translate(294.734 274.251)" fill="#6fadff"/>
          <rect id="Rectángulo_55768" data-name="Rectángulo 55768" width="0.095" height="5.373" transform="translate(294.829 274.251)" fill="#6eadff"/>
          <rect id="Rectángulo_55769" data-name="Rectángulo 55769" width="0.095" height="5.373" transform="translate(294.923 274.251)" fill="#6dacff"/>
          <rect id="Rectángulo_55770" data-name="Rectángulo 55770" width="0.095" height="5.373" transform="translate(295.018 274.251)" fill="#6cabff"/>
          <rect id="Rectángulo_55771" data-name="Rectángulo 55771" width="0.095" height="5.373" transform="translate(295.113 274.251)" fill="#6baaff"/>
          <rect id="Rectángulo_55772" data-name="Rectángulo 55772" width="0.095" height="5.373" transform="translate(295.208 274.251)" fill="#6aa9ff"/>
          <rect id="Rectángulo_55773" data-name="Rectángulo 55773" width="0.095" height="5.373" transform="translate(295.302 274.251)" fill="#69a9ff"/>
          <rect id="Rectángulo_55774" data-name="Rectángulo 55774" width="0.095" height="5.373" transform="translate(295.397 274.251)" fill="#68a8ff"/>
          <rect id="Rectángulo_55775" data-name="Rectángulo 55775" width="0.096" height="5.373" transform="translate(295.492 274.251)" fill="#67a7ff"/>
          <rect id="Rectángulo_55776" data-name="Rectángulo 55776" width="0.095" height="5.373" transform="translate(295.588 274.251)" fill="#66a6ff"/>
          <rect id="Rectángulo_55777" data-name="Rectángulo 55777" width="0.095" height="5.373" transform="translate(295.682 274.251)" fill="#65a6ff"/>
          <rect id="Rectángulo_55778" data-name="Rectángulo 55778" width="0.095" height="5.373" transform="translate(295.777 274.251)" fill="#64a5ff"/>
          <rect id="Rectángulo_55779" data-name="Rectángulo 55779" width="0.095" height="5.373" transform="translate(295.872 274.251)" fill="#63a4ff"/>
          <rect id="Rectángulo_55780" data-name="Rectángulo 55780" width="0.095" height="5.373" transform="translate(295.966 274.251)" fill="#62a3ff"/>
          <rect id="Rectángulo_55781" data-name="Rectángulo 55781" width="0.095" height="5.373" transform="translate(296.061 274.251)" fill="#61a2ff"/>
          <rect id="Rectángulo_55782" data-name="Rectángulo 55782" width="0.095" height="5.373" transform="translate(296.156 274.251)" fill="#60a2ff"/>
          <rect id="Rectángulo_55783" data-name="Rectángulo 55783" width="0.096" height="5.373" transform="translate(296.251 274.251)" fill="#5fa1ff"/>
          <rect id="Rectángulo_55784" data-name="Rectángulo 55784" width="0.095" height="5.373" transform="translate(296.346 274.251)" fill="#5ea0ff"/>
          <rect id="Rectángulo_55785" data-name="Rectángulo 55785" width="0.095" height="5.373" transform="translate(296.441 274.251)" fill="#5d9fff"/>
          <rect id="Rectángulo_55786" data-name="Rectángulo 55786" width="0.095" height="5.373" transform="translate(296.536 274.251)" fill="#5c9eff"/>
          <rect id="Rectángulo_55787" data-name="Rectángulo 55787" width="0.095" height="5.373" transform="translate(296.631 274.251)" fill="#5b9eff"/>
          <rect id="Rectángulo_55788" data-name="Rectángulo 55788" width="0.095" height="5.373" transform="translate(296.725 274.251)" fill="#5a9dff"/>
          <rect id="Rectángulo_55789" data-name="Rectángulo 55789" width="0.095" height="5.373" transform="translate(296.82 274.251)" fill="#599cff"/>
          <rect id="Rectángulo_55790" data-name="Rectángulo 55790" width="0.095" height="5.373" transform="translate(296.915 274.251)" fill="#589bff"/>
          <rect id="Rectángulo_55791" data-name="Rectángulo 55791" width="0.095" height="5.373" transform="translate(297.009 274.251)" fill="#579bff"/>
          <rect id="Rectángulo_55792" data-name="Rectángulo 55792" width="0.096" height="5.373" transform="translate(297.104 274.251)" fill="#569aff"/>
          <rect id="Rectángulo_55793" data-name="Rectángulo 55793" width="0.095" height="5.373" transform="translate(297.2 274.251)" fill="#59f"/>
          <path id="Trazado_246916" data-name="Trazado 246916" d="M297.3,279.624v0Z" fill="#59f"/>
        </g>
      </g>
      <g id="Grupo_599816" data-name="Grupo 599816">
        <g id="Grupo_599815" data-name="Grupo 599815" clip-path="url(#clip-path)">
          <path id="Trazado_246918" data-name="Trazado 246918" d="M293.74,280.948a5.911,5.911,0,0,1,1.84.231c.147.061.28.146.28.307s-.232.363-.744.4a4.333,4.333,0,0,0-1.156.328s-.539-.113-.22-1.27" fill="#eea886"/>
          <path id="Trazado_246919" data-name="Trazado 246919" d="M282.064,323.155l-.276,1.432-3.033-8.023c.4.81,3.309,6.591,3.309,6.591" fill="#293b57"/>
          <path id="Trazado_246920" data-name="Trazado 246920" d="M115.272,227.569H67.448a6.4,6.4,0,0,1-6.4-6.4V145.625a6.4,6.4,0,0,1,6.4-6.4h47.824a6.4,6.4,0,0,1,6.4,6.4v75.548a6.4,6.4,0,0,1-6.4,6.4" fill="#ffc955"/>
          <rect id="Rectángulo_55794" data-name="Rectángulo 55794" width="3.142" height="23.903" transform="translate(112.088 196.279)" fill="#e3f2ff"/>
          <rect id="Rectángulo_55795" data-name="Rectángulo 55795" width="3.141" height="21.225" transform="translate(105.883 198.957)" fill="#e3f2ff"/>
          <rect id="Rectángulo_55796" data-name="Rectángulo 55796" width="3.141" height="17.74" transform="translate(99.141 202.442)" fill="#e3f2ff"/>
          <rect id="Rectángulo_55797" data-name="Rectángulo 55797" width="3.141" height="13.347" transform="translate(92.217 206.835)" fill="#e3f2ff"/>
          <path id="Trazado_246921" data-name="Trazado 246921" d="M73.477,204l-.681-.242,5.923-16.616,12.844-3.4,4.616-18.237,9.912-4.375,2.22-14.18.714.111-2.281,14.571-9.951,4.392L92.16,184.337l-12.888,3.41Z" fill="#e3f2ff"/>
          <path id="Trazado_246922" data-name="Trazado 246922" d="M93.354,182.823a1.928,1.928,0,1,1-2.713-.272,1.929,1.929,0,0,1,2.713.272" fill="#ffc955"/>
          <path id="Trazado_246923" data-name="Trazado 246923" d="M93.309,185.814a2.289,2.289,0,1,1,.324-3.22,2.289,2.289,0,0,1-.324,3.22M90.87,182.83a1.566,1.566,0,1,0,2.2.222,1.566,1.566,0,0,0-2.2-.222" fill="#e3f2ff"/>
          <path id="Trazado_246924" data-name="Trazado 246924" d="M98.03,164.661a1.927,1.927,0,1,1-2.712-.272,1.926,1.926,0,0,1,2.712.272" fill="#ffc955"/>
          <path id="Trazado_246925" data-name="Trazado 246925" d="M97.986,167.653a2.289,2.289,0,1,1,.324-3.221,2.291,2.291,0,0,1-.324,3.221m-2.439-2.985a1.566,1.566,0,1,0,2.2.221,1.567,1.567,0,0,0-2.2-.221" fill="#e3f2ff"/>
          <path id="Trazado_246926" data-name="Trazado 246926" d="M107.789,160.161a1.928,1.928,0,1,1-2.712-.271,1.928,1.928,0,0,1,2.712.271" fill="#ffc955"/>
          <path id="Trazado_246927" data-name="Trazado 246927" d="M107.745,163.154a2.289,2.289,0,1,1,.325-3.221,2.291,2.291,0,0,1-.325,3.221m-2.439-2.985a1.566,1.566,0,1,0,2.2.222,1.568,1.568,0,0,0-2.2-.222" fill="#e3f2ff"/>
          <path id="Trazado_246928" data-name="Trazado 246928" d="M80.56,186.39a1.927,1.927,0,1,1-2.713-.272,1.927,1.927,0,0,1,2.713.272" fill="#ffc955"/>
          <path id="Trazado_246929" data-name="Trazado 246929" d="M80.515,189.382a2.289,2.289,0,1,1,.324-3.221,2.29,2.29,0,0,1-.324,3.221M78.076,186.4a1.566,1.566,0,1,0,2.2.221,1.566,1.566,0,0,0-2.2-.221" fill="#e3f2ff"/>
          <path id="Trazado_246930" data-name="Trazado 246930" d="M85.4,168.3H68.874a1.383,1.383,0,0,1-1.383-1.383v-1.231a1.384,1.384,0,0,1,1.383-1.384H85.4a1.384,1.384,0,0,1,1.384,1.384v1.231A1.384,1.384,0,0,1,85.4,168.3" fill="#ebebeb"/>
          <path id="Trazado_246931" data-name="Trazado 246931" d="M85.4,161.311H68.874a1.383,1.383,0,0,1-1.383-1.383V158.7a1.383,1.383,0,0,1,1.383-1.383H85.4a1.384,1.384,0,0,1,1.384,1.383v1.231a1.384,1.384,0,0,1-1.384,1.383" fill="#ebebeb"/>
          <path id="Trazado_246932" data-name="Trazado 246932" d="M53.641,171.516s-.56,5.519.46,6.9c0,0-2.7-.588-3.324-1.517s2.864-5.386,2.864-5.386" fill="#16202e"/>
          <path id="Trazado_246933" data-name="Trazado 246933" d="M70.494,189.138s.98-.658,1.132-.754a2.842,2.842,0,0,1,1.231-.012,3.29,3.29,0,0,1,1.369.509.509.509,0,0,1,.1.412.989.989,0,0,1-.207.45.589.589,0,0,1-.125.557.517.517,0,0,1-.219.532.432.432,0,0,1-.159.45,3.84,3.84,0,0,0-.692.033,8.232,8.232,0,0,1-2.223-.309s-1.1-.236-.2-1.868" fill="#eea886"/>
          <path id="Trazado_246934" data-name="Trazado 246934" d="M72.161,189.594a2.888,2.888,0,0,1-.451.617c-.155.1.754,1.081.754,1.081s.312-1.322-.3-1.7" fill="#cf8c6c"/>
          <path id="Trazado_246935" data-name="Trazado 246935" d="M69.914,189.233a3.991,3.991,0,0,0,1-.244c.38-.176-.071,1.918-.071,1.918a3.923,3.923,0,0,0-1.525-.654c-.6-.02.6-1.02.6-1.02" fill="#eea886"/>
          <path id="Trazado_246936" data-name="Trazado 246936" d="M44.389,245a34.617,34.617,0,0,0,2.6,3.413s1.343.7,1.384,1.254c.079,1.054.135,1.674-1.632,1.724s-2.873-.005-3.2-1.075a8.049,8.049,0,0,0-.882-1.912l-.134,2.787h-.4s-.177-2.793-.2-3.192-.286-1.929.555-2.607a2.331,2.331,0,0,1,1.91-.392" fill="#162d40"/>
          <path id="Trazado_246937" data-name="Trazado 246937" d="M47.242,248.557a4.449,4.449,0,0,1-2.092-.017c-1.137-.286-2.227-3.006-2.559-3.233l-.295-1.1h2.216a3.94,3.94,0,0,0,.375,1.508,26.432,26.432,0,0,0,2.355,2.841" fill="#162d40"/>
          <path id="Trazado_246938" data-name="Trazado 246938" d="M56.89,243.948a7.127,7.127,0,0,0,.834,1.393c.4.522,1.644,2.665,2.191,2.814s2.241.448,2.39,1.394.224,1.618-1.444,1.693-2.763.174-3.56-1a8.69,8.69,0,0,0-2.066-2.017v3.053h-.648a27.668,27.668,0,0,0-.472-3.4,3.843,3.843,0,0,1,.92-3.934c1.544-1.27,1.855,0,1.855,0" fill="#162d40"/>
          <path id="Trazado_246939" data-name="Trazado 246939" d="M59.915,248.155s-1.494.373-2.066,0-2.52-3.663-3.164-3.86c0,0,.625-1.268,2.2-.347,0,0,2.6,3.659,3.025,4.207" fill="#162d40"/>
          <path id="Trazado_246940" data-name="Trazado 246940" d="M43.541,198.231a15.635,15.635,0,0,0-2.678,5.987c-.571,3.248.338,14.152.313,15.758s-1.416,6.6-1.118,9.626,1.863,15.649,1.863,15.649l3.649-.066s-.731-13.622-.545-14.891.782-6.671.856-7.2,4.157-14.347,4.157-16.688-1.419-12-6.5-8.18" fill="#1d3b54"/>
          <path id="Trazado_246941" data-name="Trazado 246941" d="M54.121,199.3s3.46,13.205,3.87,15.035,1.233,4.22,1.195,4.556-.435,5.973-.435,5.973l-.984,19.194H54.121s-1.17-12.211-1.357-14.675,1.344-6.274.97-7.319-6.011-13.106-6.011-13.106-4.269-13.492,6.4-9.658" fill="#1d3b54"/>
          <path id="Trazado_246942" data-name="Trazado 246942" d="M53.05,179.536a4.186,4.186,0,0,1,2.43,1.251,16.044,16.044,0,0,1,2.3,3.5c.274.6,4.113,6.135,4.312,6.259s1.876-.316,3.221-.428a29.476,29.476,0,0,0,5.474-1.3l.488,2.478s-8.071,2.6-9.933,2.146c-2.277-.562-7.52-7.287-7.52-7.287s-3.908-4.58-.772-6.622" fill="#eddad3"/>
          <path id="Trazado_246943" data-name="Trazado 246943" d="M50.636,178.565a18.826,18.826,0,0,0,2.414.971c.623.124,3.037,3.261,3.461,4.407s0,2.862-.871,4.877-.05,2.69-.448,4.707a56.244,56.244,0,0,0-.324,8.632c.075,1.12-11.524,3.234-13.838,1.193,0,0,1.566-5.167,3.422-7.108.4-.42.359-3.217.085-3.913s-3.361-5.9-3.361-5.9-.226-5.278,1.12-6.323c1.17-.909,4.36-1.233,4.932-1.432a9.788,9.788,0,0,1,3.408-.112" fill="#eddad3"/>
          <path id="Trazado_246944" data-name="Trazado 246944" d="M51.208,182.561l1.089-1.275-.946-3.358a22.2,22.2,0,0,0-.143,4.633" fill="#d1c0ba"/>
          <path id="Trazado_246945" data-name="Trazado 246945" d="M44.381,179.536a3.121,3.121,0,0,0-3.554,1.842c-1.294,2.49-.97,3.833-1.269,4.954s-1.493,8.613-1.568,8.937-1.219,4.133-1.071,5.3S38.14,210.6,38.09,210.9s2.066-.286,2.066-.286-.087-9.049-.012-9.8.148-4.667.709-5.676,1.941-7.169,2.24-7.8,3.192-6.995,1.288-7.8" fill="#eea886"/>
          <path id="Trazado_246946" data-name="Trazado 246946" d="M51.491,176.5a42.953,42.953,0,0,0-.283,4.359s-1.862,1.866-3.981-2.179a5.55,5.55,0,0,0,.221-3.939c-.671-2.272,4.043,1.759,4.043,1.759" fill="#eea886"/>
          <path id="Trazado_246947" data-name="Trazado 246947" d="M51.208,180.856v1.705l-2-1.774Z" fill="#eea886"/>
          <path id="Trazado_246948" data-name="Trazado 246948" d="M51.208,182.561l-.89-1.1-3-2.987-1.123.5Z" fill="#d1c0ba"/>
          <path id="Trazado_246949" data-name="Trazado 246949" d="M52.3,181.286l1.373.379-2.318-3.737Z" fill="#fae6de"/>
          <path id="Trazado_246950" data-name="Trazado 246950" d="M50.318,181.459l-1.254,2.009-2.913-4.57,1.248-.635Z" fill="#fae6de"/>
          <path id="Trazado_246951" data-name="Trazado 246951" d="M56.7,189.565a15.242,15.242,0,0,0-.028-4.795s-.264,1.463-.906,3.741Z" fill="#d1c0ba"/>
          <path id="Trazado_246952" data-name="Trazado 246952" d="M42.782,189.168s1.239-4.1,1.312-4.324a34.74,34.74,0,0,1-.559,5.633s-.456-.8-.753-1.309" fill="#d1c0ba"/>
          <path id="Trazado_246953" data-name="Trazado 246953" d="M88.943,168.621l-19.5,24.572.68.525Z" fill="#54281a"/>
          <path id="Trazado_246954" data-name="Trazado 246954" d="M74.075,188.857s-1.463-.138-1.515.1a.373.373,0,0,0,.072.349l-.629.217s-.335.378.175.633c0,0-.349.32.172.508,0,0-.136.313.09.443a4.923,4.923,0,0,0,1.172.179s.2-.079.159-.449a.509.509,0,0,0,.219-.533.553.553,0,0,0,.125-.557s.451-.455.11-.861a1.33,1.33,0,0,0-.15-.025" fill="#db9c7c"/>
          <path id="Trazado_246955" data-name="Trazado 246955" d="M71.673,188.383a5.025,5.025,0,0,1,1.186,1.042c.075.114.127.237.051.35s-.338.145-.717-.07a3.673,3.673,0,0,0-.972-.322s-.326-.336.452-1" fill="#eea886"/>
          <path id="Trazado_246956" data-name="Trazado 246956" d="M49.98,165.306s3.3-.085,3.906,3.821-.8,7.339-1.345,7.888-3.85.133-4.627-1.9-1.916-3.508-1.746-5.252-.246-4.627,3.812-4.561" fill="#eea886"/>
          <path id="Trazado_246957" data-name="Trazado 246957" d="M54.027,170.6s.884-4.873-3.5-5.745-5.916,2.124-6.333,3.906.076,6.808.076,6.808a22.766,22.766,0,0,0,4.664,3.224s-1.46-5.348-.91-9.178a18.725,18.725,0,0,0,5.923-.024s.071.8.077,1.009" fill="#16202e"/>
          <path id="Trazado_246958" data-name="Trazado 246958" d="M51.416,177.23a5.576,5.576,0,0,1-2.7-1.02,6.433,6.433,0,0,0,2.625,1.881s.091-.686.079-.861" fill="#a77860"/>
          <rect id="Rectángulo_55798" data-name="Rectángulo 55798" width="12.912" height="9.55" transform="translate(32.159 204.471) rotate(-9.274)" fill="#366e9c"/>
          <path id="Trazado_246959" data-name="Trazado 246959" d="M37.649,213.732a1.733,1.733,0,0,1-.218-.51s-.008-.339-.027-.579a1.531,1.531,0,0,0-.024-.184,3.226,3.226,0,0,1-.148-1,21.363,21.363,0,0,1,.642-2.363l1.128.04,1.061-.115a21.489,21.489,0,0,1,1.306,2.869.976.976,0,0,1,0,.121,4.069,4.069,0,0,1-.206.809c-.011.069-.168.746-.354.84a.682.682,0,0,1-.66.015,1.628,1.628,0,0,1-.884.131,1.007,1.007,0,0,1-.89-.027s-.5.179-.726-.043" fill="#eea886"/>
          <path id="Trazado_246960" data-name="Trazado 246960" d="M44.381,179.536a3.121,3.121,0,0,0-3.554,1.842,11.386,11.386,0,0,0-1.461,4.767c-.163,1.148-1.741,7.966-1.816,8.29s-.594,4.585-.631,6.136c-.027,1.179.249,8.912.2,9.211s3.575-.524,3.575-.524-.4-7.131-.326-7.878a41.517,41.517,0,0,1,.6-5.564c.429-1.284,2.121-7.76,2.42-8.4s2.9-7.075.995-7.884" fill="#eddad3"/>
          <path id="Trazado_246961" data-name="Trazado 246961" d="M161.137,246.561l.234-2.188a16.891,16.891,0,0,0-3.447.237s.263,1.838.295,2.113,2.918-.162,2.918-.162" fill="#5c544d"/>
          <path id="Trazado_246962" data-name="Trazado 246962" d="M155.892,251.136c3.672-.031,5.442.22,5.836-.376s-.569-4.395-.569-4.395a7.714,7.714,0,0,1-2.97.125,7.8,7.8,0,0,1-1.8,1.59c-.885.483-2.274.674-2.8,1.173-.377.362-1.374,1.914,2.3,1.883" fill="#3c4145"/>
          <path id="Trazado_246963" data-name="Trazado 246963" d="M140.465,246.561l.233-2.188a16.878,16.878,0,0,0-3.446.237s.262,1.838.295,2.113,2.918-.162,2.918-.162" fill="#5c544d"/>
          <path id="Trazado_246964" data-name="Trazado 246964" d="M135.219,251.136c3.671-.1,5.442.22,5.836-.376s-.569-4.395-.569-4.395a7.006,7.006,0,0,1-2.969.125,7.813,7.813,0,0,1-1.8,1.59c-.884.483-4.138.879-4.66,1.379-.378.361-1.005,1.813,4.161,1.677" fill="#3c4145"/>
          <path id="Trazado_246965" data-name="Trazado 246965" d="M156.9,197.156a27.191,27.191,0,0,1,1.333,8.492c-.2,3.93.794,8.232,1.2,12.338.454,4.577,2.313,15.414,2.38,17.862s-.289,10.268-.289,10.268l-3.719.087s-3.124-18.946-3.932-20.879-4.822-15.716-4.956-17.262,7.982-10.906,7.982-10.906" fill="#dbd8e3"/>
          <path id="Trazado_246966" data-name="Trazado 246966" d="M141.264,197.967s-2.043,10.773-2.313,13.179-.449,11.642-.583,13.145-.9,19.677-1.619,21.911H141.5s3.65-13.212,3.65-19.462,2.82-13.587,4.64-17.711,5.987-4.222,7.106-11.873c0,0-14.12-1.616-15.636.811" fill="#dbd8e3"/>
          <path id="Trazado_246967" data-name="Trazado 246967" d="M150.927,161.149s-3.748-1.4-5.475,1.453-1.562,8.565.327,9.267,4.727.335,5.694-1.45a14.285,14.285,0,0,0,1.8-6.091,3.758,3.758,0,0,0-2.345-3.179" fill="#eea886"/>
          <path id="Trazado_246968" data-name="Trazado 246968" d="M146.407,171.693a3.139,3.139,0,0,1-.1,1.467c-.25.484,4.715.5,4.715.5a32.7,32.7,0,0,1,1.167-4.856c.764-2.224-5.783,2.893-5.783,2.893" fill="#eea886"/>
          <path id="Trazado_246969" data-name="Trazado 246969" d="M152.19,168.8s-.343.565-1.741.346-3.106-2.08-3.69-2.285-.588-.547-.588-.547l-.367.534-.62.039s.566-1.664-.288-2.343.886-5.388,5.372-3.82c0,0,3.215.634,3.409,2.588a8.879,8.879,0,0,1-1.487,5.488" fill="#fccca2"/>
          <path id="Trazado_246970" data-name="Trazado 246970" d="M146.015,173.1s.016-.924.435-1.013a29.907,29.907,0,0,1,5.14-.291v1.077s-.991.61-5.575.227" fill="#e2d2ca"/>
          <path id="Trazado_246971" data-name="Trazado 246971" d="M146.263,165.6c.079-.329.914-1.268,1.234-.262s-.483,2.358-.931,2.242-.5-1.147-.3-1.98" fill="#eea886"/>
          <path id="Trazado_246972" data-name="Trazado 246972" d="M146.015,173.1s-2.307.829-4.979,1.965a5.605,5.605,0,0,0-3.4,4.541c-.177,1.8-2.1,11.362-2.455,12.171s-4.612,13.8-4.763,14.074,3.472,1.774,3.711,1.654,4.12-11.854,4.508-12.723c0,0,2.234-7.035,2.293-8.084,0,0,.065,2.989.184,3.828s-1.986,17.13-1.925,17.579,9.567,1.021,13.373.6a46.58,46.58,0,0,0,6.876-1.294s-2.994-12.857-2.9-14.282c.2-3.107,1.238-8.955,1.238-8.955l3.1,5.848L156.9,200.244l.909,3.1s7.381-11.153,7.62-12.171a5.482,5.482,0,0,0-.751-3.156c-.39-.839-2.948-7.223-3.548-8.123s-1.611-4.5-4.058-5.5a38.216,38.216,0,0,0-5.482-1.524Z" fill="#63a4ff"/>
          <rect id="Rectángulo_55799" data-name="Rectángulo 55799" width="12.522" height="17.949" transform="translate(123.553 207.285) rotate(-75.619)" fill="#f25f54"/>
          <path id="Trazado_246973" data-name="Trazado 246973" d="M128.9,208.505s-.5.8-.679,1.032.447.373.715.141-.036-1.173-.036-1.173" fill="#c98462"/>
          <path id="Trazado_246974" data-name="Trazado 246974" d="M132.52,211.247a1.933,1.933,0,0,0,.356-.5s.087-.366.165-.623a1.959,1.959,0,0,1,.069-.194,3.552,3.552,0,0,0,.4-1.058c.077-.494.294-2.72.294-2.72l-1.347-.339-1.081-.228a22.193,22.193,0,0,0-2.463,2.785.942.942,0,0,0-.028.132,4.536,4.536,0,0,0,.032.928c0,.077.009.85.188,1a.757.757,0,0,0,.715.171,1.8,1.8,0,0,0,.929.35,1.121,1.121,0,0,0,.974.181s.5.312.8.122" fill="#de9d7d"/>
          <path id="Trazado_246975" data-name="Trazado 246975" d="M137.777,197.179s-3.086,9.346-3.653,10.327a10.162,10.162,0,0,1-3.711-1.653l3.388-10.085Z" fill="#63a4ff"/>
          <path id="Trazado_246976" data-name="Trazado 246976" d="M416.159,211.751s11.455-33.593-10.4-44.007-40.419,4.64-43.925,12.786-2.578,22.958.412,33.287,2.555,26.052-3.94,31.311-14.551,13.992-14.153,31.77c.248,11.03,43.4-28.213,43.4-28.213Z" fill="#252e3b"/>
          <path id="Trazado_246977" data-name="Trazado 246977" d="M385.445,251.711s-17.967,3.982-25.1,8.15-22.967,23.338-22.967,31.582,69.257,15.943,69.257,15.943l13.127,47.925s35.006-8.542,39.173-15.627-13.3-57.861-16.284-68.137c-3.049-10.482-15.6-17.792-30.182-19.836a100.173,100.173,0,0,0-27.025,0" fill="#ffd255"/>
          <path id="Trazado_246978" data-name="Trazado 246978" d="M411.225,251.546s-.4,21.837-17.723,22.485-13.713-20.945-13.713-20.945,12.667-5.132,31.436-1.54" fill="#eea886"/>
          <path id="Trazado_246979" data-name="Trazado 246979" d="M418.552,185.651s6.126,35.122-11.32,60.493c-18.069,26.275,11.32-60.493,11.32-60.493" fill="#252e3b"/>
          <path id="Trazado_246980" data-name="Trazado 246980" d="M407.508,236.107s-1.2,10.445.807,16.941-26.481,6.676-26.465,1.334c.018-6.067,2.915-11.136.186-21.537s25.472,3.262,25.472,3.262" fill="#eea886"/>
          <path id="Trazado_246981" data-name="Trazado 246981" d="M385.407,237.439s9,9.372,20.5.978c0,0-.95,5.99-9.224,6.763s-11.275-7.741-11.275-7.741" fill="#a77860"/>
          <path id="Trazado_246982" data-name="Trazado 246982" d="M396.673,173.473s22.734,6.727,19.486,38.278-18.094,29.926-19.486,30.158-19.023,1.392-24.591-36.885,24.591-31.551,24.591-31.551" fill="#eea886"/>
          <path id="Trazado_246983" data-name="Trazado 246983" d="M390.8,187.541s12.354,19.651,25.355,24.21c0,0,7.1-32.974-22.222-39.883S369.207,205.173,371.4,215.9A87.142,87.142,0,0,1,390.8,187.541" fill="#252e3b"/>
          <path id="Trazado_246984" data-name="Trazado 246984" d="M374.234,184.581s6.5-12.592,17.483-13.155,17.511,8.964,17.511,8.964a18.67,18.67,0,0,0-17.5-10.727c-13.21,0-17.5,14.918-17.5,14.918" fill="#88c0ff"/>
          <path id="Trazado_246985" data-name="Trazado 246985" d="M418.938,283.626l7.71,71.679H325.171l-7.71-71.679Z" fill="#99c2c2"/>
          <path id="Trazado_246986" data-name="Trazado 246986" d="M424.2,352.845H321.84l-7.8-72.564H416.4Zm-101.57-.884H423.22l-7.614-70.8H315.02Z" fill="#0e8282"/>
          <path id="Trazado_246987" data-name="Trazado 246987" d="M378.351,318.307c.911,4.459-1.169,8.65-4.646,9.361s-7.035-2.328-7.946-6.787,1.169-8.65,4.646-9.361,7.034,2.328,7.946,6.787" fill="#0e8282"/>
          <rect id="Rectángulo_55800" data-name="Rectángulo 55800" width="18.936" height="7.205" transform="translate(417.055 348.1)" fill="#0e8282"/>
          <path id="Trazado_246988" data-name="Trazado 246988" d="M358.178,140.088a15.611,15.611,0,1,1,15.611-15.611,15.629,15.629,0,0,1-15.611,15.611m0-30.338A14.727,14.727,0,1,0,372.9,124.477a14.744,14.744,0,0,0-14.727-14.727" fill="#0e8282"/>
          <path id="Trazado_246989" data-name="Trazado 246989" d="M82.866,298.8l-.011-1.327c2.646-.022,5.314-.1,7.929-.219l.062,1.327c-2.631.123-5.316.2-7.98.219m-7.987-.081c-2.622-.074-5.306-.2-7.976-.366l.083-1.324c2.655.168,5.324.29,7.931.364Zm23.934-.672-.115-1.321c2.619-.228,5.272-.513,7.886-.846l.168,1.317c-2.632.335-5.3.622-7.939.85m-39.872-.33c-2.722-.269-5.391-.615-7.93-1.029l.213-1.311c2.513.41,5.153.753,7.848,1.02Zm55.711-1.686-.22-1.31c2.558-.429,5.182-.919,7.8-1.459l.267,1.3c-2.634.542-5.274,1.035-7.847,1.468m-71.49-.921c-2.674-.649-5.263-1.4-7.7-2.237l.432-1.254c2.392.821,4.942,1.562,7.577,2.2Zm87.126-2.287-.309-1.291c2.435-.584,4.954-1.223,7.7-1.954l.342,1.283c-2.756.733-5.285,1.375-7.732,1.962M28.031,289.854a57.974,57.974,0,0,1-7.006-3.945l.732-1.107a56.717,56.717,0,0,0,6.846,3.855Zm117.673-1.1-.359-1.277q1.666-.468,3.3-.931,2.211-.626,4.364-1.23l.357,1.278q-2.151.6-4.36,1.229l-3.3.931m69.186-1.109c-2.447-1.158-4.9-2.179-7.288-3.032l.447-1.25c2.43.869,4.923,1.9,7.408,3.082Zm-53.854-3.12-.329-1.286c2.858-.732,5.4-1.324,7.781-1.816l.268,1.3c-2.357.487-4.883,1.077-7.72,1.8m39.007-2.14a62.391,62.391,0,0,0-7.765-1.286l.132-1.321a64.129,64.129,0,0,1,7.933,1.313Zm-23.493-.98-.168-1.316a76.385,76.385,0,0,1,8-.616l.029,1.327a74.843,74.843,0,0,0-7.857.6m-161.864-.463a44.638,44.638,0,0,1-5.392-6l1.065-.793a43.313,43.313,0,0,0,5.23,5.816ZM5.093,268.057a46.928,46.928,0,0,1-2.9-7.522l1.274-.371a45.643,45.643,0,0,0,2.819,7.309ZM.541,252.649A63.645,63.645,0,0,1,0,244.624l1.327-.008a62.277,62.277,0,0,0,.53,7.857Zm1.178-15.913L.4,236.6c.265-2.6.668-5.269,1.194-7.936l1.3.257c-.519,2.627-.914,5.256-1.176,7.814m3.042-15.5-1.275-.369a70.842,70.842,0,0,1,2.607-7.619l1.22.522a70.87,70.87,0,0,0-2.552,7.466" fill="#c2bebc"/>
          <path id="Trazado_246990" data-name="Trazado 246990" d="M426.444,60.175c-.023-.02-2.24-1.988-6.209-4.939l.792-1.065c4.021,2.99,6.277,4.993,6.3,5.013Zm-12.7-9.511c-2.182-1.457-4.438-2.887-6.706-4.251l.685-1.137c2.285,1.374,4.558,2.816,6.759,4.284Zm-13.6-8.184c-2.332-1.258-4.712-2.468-7.072-3.6l.573-1.2c2.38,1.14,4.778,2.361,7.129,3.629Zm-14.312-6.846c-2.452-1.026-4.94-1.99-7.394-2.868l.446-1.25c2.477.885,4.986,1.859,7.46,2.894ZM284.981,34.009l-.03-1.327a56.122,56.122,0,0,0,7.83-.735l.214,1.31a57.362,57.362,0,0,1-8.014.752m-8.032-.413a59.226,59.226,0,0,1-7.891-1.552l.342-1.282a57.923,57.923,0,0,0,7.713,1.517Zm23.88-2.143-.374-1.273c.852-.251,1.721-.525,2.582-.814,1.66-.557,3.351-1.079,5.029-1.551l.36,1.278c-1.657.466-3.328.982-4.967,1.531-.877.3-1.761.574-2.63.829M370.9,30.308c-2.548-.751-5.126-1.429-7.664-2.016l.3-1.293c2.563.593,5.167,1.278,7.74,2.037ZM261.439,29.53c-2.337-.912-4.734-1.966-7.327-3.222l.579-1.195c2.561,1.241,4.926,2.282,7.23,3.18Zm54.674-2.289-.26-1.3c2.6-.523,5.263-.953,7.907-1.277l.161,1.317c-2.61.321-5.237.744-7.808,1.261m39.349-.489c-2.615-.431-5.256-.778-7.849-1.029l.127-1.321c2.623.254,5.294.6,7.938,1.041ZM122.225,25.489l-.723-1.114c2.274-1.474,4.551-2.9,6.767-4.235l.685,1.136c-2.2,1.329-4.468,2.746-6.729,4.213M331.8,25.315l-.062-1.326c2.641-.124,5.328-.152,8.007-.08l-.034,1.326c-2.648-.07-5.3-.043-7.911.08m-84.791-2.679c-2.25-1.223-4.483-2.48-6.96-3.878L240.7,17.6c2.472,1.4,4.7,2.65,6.942,3.868ZM135.825,17.305l-.642-1.161c2.379-1.314,4.759-2.564,7.074-3.714l.591,1.189c-2.3,1.141-4.661,2.381-7.023,3.686m97.289-2.428c-2.6-1.425-4.9-2.634-7.023-3.7l.593-1.188c2.142,1.07,4.455,2.287,7.068,3.72ZM150.032,10.27,149.5,9.053c2.5-1.087,5-2.087,7.426-2.975l.456,1.247c-2.4.878-4.877,1.869-7.353,2.945M218.9,7.854c-2.542-1.075-4.961-1.984-7.4-2.779l.412-1.262c2.47.807,4.923,1.729,7.5,2.819Zm-54-2.991-.368-1.276c2.617-.754,5.235-1.4,7.781-1.912l.262,1.3c-2.51.507-5.092,1.142-7.675,1.887M203.9,3a72.756,72.756,0,0,0-7.776-1.265l.141-1.32A73.552,73.552,0,0,1,204.186,1.7ZM180.384,1.766l-.142-1.32A78.306,78.306,0,0,1,188.256,0l0,1.328a76.187,76.187,0,0,0-7.876.438" fill="#c2bebc"/>
          <path id="Trazado_246991" data-name="Trazado 246991" d="M261.074,302.206l-33.359-9.7,10-3.016Z" fill="#d6d6d6"/>
          <path id="Trazado_246992" data-name="Trazado 246992" d="M261.074,302.206l-12.469-12.523-7.674,1.558Z" fill="#e8e8e8"/>
          <path id="Trazado_246993" data-name="Trazado 246993" d="M235.387,294.737l.269,3.86,25.418,3.61Z" fill="#c2c2c2"/>
          <path id="Trazado_246994" data-name="Trazado 246994" d="M93.173,47.554l29.4-16.446-10.107-.666Z" fill="#d6d6d6"/>
          <path id="Trazado_246995" data-name="Trazado 246995" d="M93.173,47.554,102.222,33l7.593-.2Z" fill="#e8e8e8"/>
          <path id="Trazado_246996" data-name="Trazado 246996" d="M115.815,34.891,116.4,38.6,93.172,47.555Z" fill="#c2c2c2"/>
        </g>
      </g>
    </g>
  </g>
</svg>
